<?xml version="1.0" encoding="UTF-8" standalone="no"?>
<svg
   version="1.1"
   width="409"
   height="518.95996"
   style="clip-rule:evenodd;fill-rule:evenodd;image-rendering:optimizeQuality;shape-rendering:geometricPrecision;text-rendering:geometricPrecision"
   id="svg166"
   sodipodi:docname="Ammoniak.svg"
   inkscape:version="1.1 (c68e22c387, 2021-05-23)"
   xmlns:inkscape="http://www.inkscape.org/namespaces/inkscape"
   xmlns:sodipodi="http://sodipodi.sourceforge.net/DTD/sodipodi-0.dtd"
   xmlns="http://www.w3.org/2000/svg"
   xmlns:svg="http://www.w3.org/2000/svg">
  <defs
     id="defs170" />
  <sodipodi:namedview
     id="namedview168"
     pagecolor="#ffffff"
     bordercolor="#666666"
     borderopacity="1.0"
     inkscape:pageshadow="2"
     inkscape:pageopacity="0.0"
     inkscape:pagecheckerboard="0"
     showgrid="false"
     fit-margin-top="0"
     fit-margin-left="0"
     fit-margin-right="0"
     fit-margin-bottom="0"
     inkscape:zoom="1.0955546"
     inkscape:cx="301.2173"
     inkscape:cy="221.34908"
     inkscape:window-width="1920"
     inkscape:window-height="1017"
     inkscape:window-x="1912"
     inkscape:window-y="-8"
     inkscape:window-maximized="1"
     inkscape:current-layer="svg166" />
  <g
     id="g8"
     transform="translate(0.5,-10.540025)">
    <path
       style="opacity:1"
       fill="#020201"
       d="m 408.5,346.5 c 0,3 0,6 0,9 -2.118,7.615 -7.118,12.449 -15,14.5 -126.667,0.667 -253.333,0.667 -380,0 -6.98737,-2.182 -11.65403,-6.682 -14,-13.5 0,-3 0,-6 0,-9 62.5398,-109.402 125.373,-218.735 188.5,-328 1.597,-2.7192 3.763,-4.8859 6.5,-6.5 10.345,-4.76986 18.845,-2.6032 25.5,6.5 62.874,109.095 125.707,218.095 188.5,327 z"
       id="path6" />
  </g>
  <g
     id="g12"
     transform="translate(0.5,-10.540025)">
    <path
       style="opacity:1"
       fill="#eee42c"
       d="m 367.5,336.5 c -109,0 -218,0 -327,0 54.4883,-94.306 108.988,-188.639 163.5,-283 55.017,94.034 109.517,188.367 163.5,283 z"
       id="path10" />
  </g>
  <g
     id="g20"
     transform="translate(0.5,-10.540025)">
    <path
       style="opacity:1"
       fill="#0c0a04"
       d="m 193.5,149.5 c 28.411,-1.886 48.911,9.78 61.5,35 1.478,7.611 1.812,15.278 1,23 -2.579,6.157 -5.413,12.157 -8.5,18 2.796,7.452 2.629,14.786 -0.5,22 -1.413,1.914 -3.247,3.247 -5.5,4 -1.114,1.223 -1.281,2.556 -0.5,4 8.139,-3.159 16.305,-6.325 24.5,-9.5 5.006,-2.501 9.673,-5.501 14,-9 9.17,-1.024 12.503,2.976 10,12 1.233,2.402 2.233,4.902 3,7.5 -0.885,5.776 -3.885,7.276 -9,4.5 -3,-0.667 -6,-0.667 -9,0 -11.667,4.333 -23.333,8.667 -35,13 -2.267,2.728 -2.934,5.728 -2,9 10,4.667 20,9.333 30,14 3.667,-0.333 7.333,-0.667 11,-1 3.964,3.903 3.797,7.736 -0.5,11.5 -0.238,3.722 -0.738,7.389 -1.5,11 -3.485,3.795 -7.151,3.962 -11,0.5 -2.371,-2.706 -5.037,-5.039 -8,-7 -9.364,-4.682 -18.698,-9.349 -28,-14 -4.166,0.244 -7.833,1.911 -11,5 -14.765,6.145 -28.098,3.978 -40,-6.5 -15.445,5.882 -29.445,14.049 -42,24.5 -4.884,1.141 -8.05,-0.692 -9.5,-5.5 -0.333,-3 -0.667,-6 -1,-9 -2.415,-2.532 -3.081,-5.532 -2,-9 3.439,-2.518 6.939,-2.518 10.5,0 11.938,-4.305 23.271,-9.638 34,-16 -0.808,-2.425 -1.808,-4.758 -3,-7 -12.116,-4.205 -24.116,-8.705 -36,-13.5 -5.188,-0.529 -10.188,-0.196 -15,1 -3.631,-3.434 -3.797,-6.934 -0.5,-10.5 0.333,-4 0.667,-8 1,-12 2.21,-2.79 5.044,-3.623 8.5,-2.5 12.658,8.328 26.325,14.494 41,18.5 0.149,-1.052 -0.017,-2.052 -0.5,-3 -8.077,-5.176 -10.744,-12.509 -8,-22 0.422,-1.855 0.922,-3.689 1.5,-5.5 -14.913,-21.95 -12.913,-42.283 6,-61 8.913,-7.24 18.913,-12.073 30,-14.5 z"
       id="path18" />
  </g>
  <g
     id="g24"
     transform="translate(0.5,-10.540025)">
    <path
       style="opacity:1"
       fill="#ece32c"
       d="m 158.5,209.5 c 0.284,1.915 -0.049,3.581 -1,5 -8.278,-20.673 -3.278,-37.507 15,-50.5 26.865,-14.685 50.699,-10.852 71.5,11.5 9.052,12.991 9.719,26.324 2,40 0.669,-8.672 1.336,-17.339 2,-26 -1.123,-2.749 -2.623,-5.249 -4.5,-7.5 -1.496,-0.507 -2.663,-0.007 -3.5,1.5 1.653,3.706 2.486,7.706 2.5,12 -2.722,11.404 -2.555,22.737 0.5,34 0.667,4.667 0.667,9.333 0,14 -4.179,2.757 -8.179,5.757 -12,9 -2.279,3.474 -4.112,7.14 -5.5,11 -15.554,6.472 -31.221,6.639 -47,0.5 -2.193,-9.201 -7.693,-15.701 -16.5,-19.5 -0.935,-2.409 -1.435,-4.909 -1.5,-7.5 1.655,-8.285 2.988,-16.618 4,-25 -0.289,-5.65 -1.289,-11.15 -3,-16.5 0.975,-4.391 1.808,-8.724 2.5,-13 -1.049,-1.017 -2.216,-1.184 -3.5,-0.5 -1.294,2.087 -2.461,4.254 -3.5,6.5 -0.554,7.073 -0.054,14.073 1.5,21 z"
       id="path22" />
  </g>
  <g
     id="g32"
     transform="translate(0.5,-10.540025)">
    <path
       style="opacity:1"
       fill="#060502"
       d="m 217.5,212.5 c 20.23,0.292 24.23,8.459 12,24.5 -3.697,1.899 -7.364,1.899 -11,0 -6.55,-4.929 -9.383,-11.429 -8.5,-19.5 1.913,-2.78 4.413,-4.447 7.5,-5 z"
       id="path30" />
  </g>
  <g
     id="g36"
     transform="translate(0.5,-10.540025)">
    <path
       style="opacity:1"
       fill="#060402"
       d="m 176.5,212.5 c 17.829,-2.053 22.662,4.614 14.5,20 -10.392,9.558 -17.726,7.558 -22,-6 -1.548,-6.928 0.952,-11.595 7.5,-14 z"
       id="path34" />
  </g>
  <g
     id="g40"
     transform="translate(0.5,-10.540025)">
    <path
       style="opacity:1"
       fill="#010002"
       d="m 200.5,231.5 c 2.155,-0.128 4.155,0.372 6,1.5 4.726,6.402 6.559,13.569 5.5,21.5 -2.666,3.504 -5.666,3.838 -9,1 -3.724,2.89 -7.057,2.556 -10,-1 -0.991,-8.858 1.509,-16.525 7.5,-23 z"
       id="path38" />
  </g>
  <g
     id="g44"
     transform="translate(0.5,-10.540025)">
    <path
       style="opacity:1"
       fill="#e7de30"
       d="m 281.5,240.5 c 1.322,-0.17 2.489,0.163 3.5,1 -1.612,5.67 -0.445,10.67 3.5,15 -1.455,1.245 -2.789,1.078 -4,-0.5 -3,-0.667 -6,-0.667 -9,0 -11.928,4.308 -23.761,8.808 -35.5,13.5 -0.821,-3.054 -0.655,-6.054 0.5,-9 13.072,-4.633 25.739,-10.133 38,-16.5 1.21,-1.039 2.21,-2.206 3,-3.5 z"
       id="path42" />
  </g>
  <g
     id="g48"
     transform="translate(0.5,-10.540025)">
    <path
       style="opacity:1"
       fill="#e7de2f"
       d="m 119.5,240.5 c 13.808,8.232 28.474,14.898 44,20 1.155,2.946 1.321,5.946 0.5,9 -11.739,-4.692 -23.572,-9.192 -35.5,-13.5 -3.944,-0.99 -7.611,-0.49 -11,1.5 -0.333,-0.333 -0.667,-0.667 -1,-1 1.423,-2.343 2.423,-4.843 3,-7.5 -1.158,-2.897 -1.158,-5.73 0,-8.5 z"
       id="path46" />
  </g>
  <g
     id="g52"
     transform="translate(0.5,-10.540025)">
    <path
       style="opacity:1"
       fill="#eae02e"
       d="m 169.5,257.5 c 2.872,4.466 4.372,9.466 4.5,15 18.768,17.27 37.602,17.27 56.5,0 0.554,-4.838 1.72,-9.505 3.5,-14 1.156,14.849 -3.678,27.349 -14.5,37.5 -18.597,9.47 -33.43,5.303 -44.5,-12.5 -3.735,-8.273 -5.568,-16.939 -5.5,-26 z"
       id="path50" />
  </g>
  <g
     id="g56"
     transform="translate(0.5,-10.540025)">
    <path
       style="opacity:1"
       fill="#e9e030"
       d="m 167.5,287.5 c 3.693,-0.314 6.027,1.352 7,5 -8.444,4.723 -17.11,9.223 -26,13.5 -4.874,2.607 -9.208,5.94 -13,10 -1.284,0.684 -2.451,0.517 -3.5,-0.5 -0.333,-3.333 -0.667,-6.667 -1,-10 -1.337,-1.404 -2.503,-2.904 -3.5,-4.5 0.333,-0.5 0.667,-1 1,-1.5 4.143,2.354 8.477,2.521 13,0.5 8.88,-3.941 17.546,-8.108 26,-12.5 z"
       id="path54" />
  </g>
  <g
     id="g60"
     transform="translate(0.5,-10.540025)">
    <path
       style="opacity:1"
       fill="#e8de31"
       d="m 233.5,287.5 c 1.373,-0.157 2.707,0.01 4,0.5 9.548,4.608 19.215,8.941 29,13 3.416,0.893 6.583,0.393 9.5,-1.5 0.722,2.161 0.055,3.828 -2,5 -0.333,3.667 -0.667,7.333 -1,11 -1.868,1.172 -3.702,1.005 -5.5,-0.5 -2.371,-2.706 -5.037,-5.039 -8,-7 -9.988,-4.659 -19.654,-9.826 -29,-15.5 1.263,-1.529 2.263,-3.195 3,-5 z"
       id="path58" />
  </g>
  <g
     id="g76"
     transform="translate(0.5,-10.540025)">
    <path
       style="opacity:1"
       fill="#eee438"
       d="m 408.5,355.5 c 0,8.333 0,16.667 0,25 -136.333,0 -272.667,0 -409,0 0,-8 0,-16 0,-24 2.34597,6.818 7.01263,11.318 14,13.5 126.667,0.667 253.333,0.667 380,0 7.882,-2.051 12.882,-6.885 15,-14.5 z"
       id="path74" />
  </g>
  <g
     id="g80"
     transform="translate(0.5,-10.540025)">
    <path
       style="opacity:1"
       fill="#020201"
       d="m -0.5,380.5 c 136.333,0 272.667,0 409,0 0,49.667 0,99.333 0,149 -136.333,0 -272.667,0 -409,0 0,-49.667 0,-99.333 0,-149 z"
       id="path78" />
  </g>
  <g
     id="g84"
     transform="translate(0.5,-10.540025)">
    <path
       style="opacity:1"
       fill="#eee42d"
       d="M 401.14543,522.4363 7.5,521.5 v -133 h 393 z"
       id="path82"
       sodipodi:nodetypes="ccccc" />
  </g>
  <path
     d="m 296.46556,422.2304 v 5.11003 h 5.11003 5.11003 v -5.11003 -5.11004 h -5.11003 -5.11003 z"
     id="path14"
     style="fill:#000000;stroke:none;stroke-width:0.102201" />
  <path
     d="m 33.810003,418.44897 c 0,0.2044 -4.08803,11.95747 -9.198055,26.16335 -5.007835,14.20588 -9.198055,26.06116 -9.198055,26.26556 0,0.20441 2.657211,0.4088 5.927633,0.4088 h 5.927632 l 1.839611,-5.62103 1.737413,-5.72324 9.811259,0.30662 9.811258,0.3066 1.533009,5.31442 1.533009,5.41663 h 5.927633 c 4.190228,0 6.029839,-0.4088 5.927634,-1.3286 0,-0.61321 -4.088022,-12.46847 -8.891453,-26.26556 l -8.891453,-25.03915 -6.949637,-0.3066 c -3.78142,-0.2044 -6.847438,-0.1022 -6.847438,0.1022 z m 9.606854,20.64452 c 1.53301,4.80344 2.963813,9.40245 3.270415,10.22006 0.511005,1.22641 -0.510998,1.53301 -6.029831,1.53301 h -6.643042 l 3.168224,-10.22006 c 1.737405,-5.62102 3.168216,-10.22006 3.37262,-10.22006 0.102198,0 1.430804,3.88362 2.861614,8.68705 z"
     id="path16"
     style="fill:#000000;stroke:none;stroke-width:0.102201" />
  <path
     d="m 357.78592,444.71453 v 26.57215 h 5.62103 5.62104 v -6.43863 c 0,-5.11003 0.4088,-6.94965 1.94181,-8.27825 2.14621,-1.94182 1.63521,-2.45282 8.68705,9.81126 l 2.75941,4.90562 h 6.02985 c 3.37261,0 6.13203,-0.20439 6.13203,-0.4088 0,-0.3066 -2.96382,-5.41663 -6.64304,-11.54867 -3.67922,-6.02983 -6.64304,-11.44647 -6.64304,-11.95747 0,-0.51101 3.06602,-4.29242 6.74524,-8.38044 l 6.74524,-7.56285 h -6.54084 -6.54084 l -6.02983,7.25625 -6.13204,7.35844 -0.3066,-14.00149 -0.30661,-13.89928 h -5.51883 -5.62103 z"
     id="path18-5"
     style="fill:#000000;stroke:none;stroke-width:0.102201" />
  <path
     d="m 88.998325,431.53064 c -1.328606,0.51101 -3.270415,1.73742 -4.19022,2.55502 -1.533009,1.32861 -1.737413,1.32861 -2.248419,-0.6132 -0.510998,-1.83961 -1.226407,-2.14621 -5.518832,-1.83961 l -4.90563,0.30661 -0.306601,19.6225 -0.204397,19.72472 h 5.621031 5.621031 V 457.694 c 0,-15.33008 0.919806,-18.0895 6.132037,-18.0895 5.518834,0 6.132036,1.73741 6.132036,17.47629 v 14.20589 h 5.621039 5.62102 V 457.183 c 0,-12.46847 0.20441,-14.41028 1.83962,-15.84109 2.65722,-2.45282 6.94964,-2.14622 8.78926,0.511 1.32859,1.83961 1.6352,5.21223 1.6352,15.84109 v 13.59268 h 5.11003 5.11002 v -16.24989 c 0,-15.9433 -0.10219,-16.35209 -2.55501,-19.41811 -5.00782,-5.82544 -14.20588,-6.64305 -18.90711,-1.63522 l -2.45282,2.55502 -2.75941,-2.65721 c -3.066019,-2.96383 -9.198055,-4.08803 -13.183875,-2.35063 z"
     id="path20"
     style="fill:#000000;stroke:none;stroke-width:0.102201" />
  <path
     d="m 154.91771,431.63285 c -1.12421,0.61321 -3.06602,2.04401 -4.29242,3.16822 l -2.35061,2.04401 v -2.75942 c 0,-2.65721 -0.20441,-2.75941 -4.80343,-2.45281 l -4.90563,0.30661 -0.3066,19.6225 -0.20441,19.72472 h 5.62105 5.62102 V 457.183 c 0,-12.46847 0.2044,-14.41028 1.83961,-15.84109 2.35061,-2.14622 6.74525,-2.24842 8.78925,-0.1022 1.32862,1.22641 1.63522,4.19022 1.63522,15.84108 v 14.20589 h 5.11003 5.11003 v -12.16186 c 0,-13.59268 1.12421,-18.19171 4.59902,-19.11152 7.15404,-1.73741 8.68705,1.43081 8.68705,18.1917 v 13.08168 h 5.11003 5.11003 v -15.63669 c 0,-13.79708 -0.20439,-15.94329 -2.04401,-18.90711 -4.08802,-6.64304 -13.89928,-8.07385 -19.41811,-2.75942 -2.45282,2.35061 -2.86162,2.45282 -4.08803,1.02202 -3.37262,-4.08804 -10.62886,-5.72325 -14.81909,-3.37263 z"
     id="path22-5"
     style="fill:#000000;stroke:none;stroke-width:0.102201" />
  <path
     d="m 215.31827,431.93946 c -8.78925,3.06602 -13.59268,11.44646 -12.57067,22.07532 1.022,11.34427 8.58485,18.29391 19.92912,18.29391 6.84744,0 11.13986,-1.83961 15.22789,-6.43864 5.31443,-6.13203 6.54083,-12.87727 3.88362,-21.87093 -3.16822,-10.83326 -14.92128,-16.1477 -26.46996,-12.05966 z m 13.18388,9.91345 c 4.49683,3.98583 4.70123,15.02349 0.4088,19.31592 -2.86161,2.86161 -9.50466,2.65721 -12.67287,-0.6132 -4.49683,-4.39464 -3.16822,-17.27191 1.94181,-19.72472 3.57703,-1.73742 7.46065,-1.32862 10.32226,1.022 z"
     id="path24"
     style="fill:#000000;stroke:none;stroke-width:0.102201" />
  <path
     d="m 266.00977,432.14385 c -1.9418,0.91981 -3.78142,2.45281 -4.08802,3.27042 -0.51101,1.22641 -0.81761,1.02201 -1.2264,-0.9198 -0.51101,-2.24841 -1.22642,-2.55501 -5.41664,-2.86162 l -4.80343,-0.3066 v 19.92911 20.03132 h 5.00783 5.00783 l 0.4088,-13.89929 c 0.30661,-13.18386 0.40881,-14.00147 2.75942,-15.84108 2.86162,-2.24841 7.05184,-2.55501 9.91346,-0.51101 1.7374,1.32862 1.94181,3.06603 2.24841,15.8411 l 0.4088,14.41028 h 5.00784 5.00783 v -15.63669 c 0,-13.79708 -0.20441,-15.94329 -2.04403,-18.90711 -3.57701,-5.82544 -11.65086,-7.86944 -18.1917,-4.59903 z"
     id="path26"
     style="fill:#000000;stroke:none;stroke-width:0.102201" />
  <path
     d="m 325.28612,431.42845 c -4.19022,1.02201 -7.25623,3.67922 -8.99365,7.86945 -2.14621,5.00782 -1.83961,5.41663 3.67922,5.41663 2.86162,0 5.11003,-0.40881 5.11003,-0.91981 0,-3.78142 9.60686,-5.82544 12.36628,-2.55501 2.35061,2.86162 -0.20441,4.90563 -8.07384,6.23424 -3.88363,0.6132 -8.07386,1.6352 -9.19806,2.2484 -3.98583,2.14622 -6.33644,6.23424 -6.33644,11.03767 0,3.88362 0.51101,5.11003 3.47482,8.07385 3.06602,3.06602 4.19023,3.47482 8.58485,3.47482 3.67922,0 6.02984,-0.71541 8.68706,-2.45282 3.57702,-2.45281 3.67922,-2.45281 4.29242,-0.511 0.511,1.63521 1.63521,1.94181 6.33643,1.94181 5.00784,0 5.51884,-0.20439 4.80343,-1.8396 -0.51101,-0.91981 -1.12421,-8.48266 -1.43081,-16.76091 -0.511,-14.10368 -0.6132,-15.12568 -2.96381,-17.5785 -3.98582,-4.19023 -11.95747,-5.72323 -20.33793,-3.67922 z m 13.08168,24.42594 c 0,6.54084 -7.76724,11.13987 -12.36626,7.35844 -2.35063,-1.94181 -2.35063,-2.14621 -0.91982,-4.90562 1.43081,-2.55502 5.92764,-4.49683 12.57069,-5.31443 0.40879,-0.1022 0.71539,1.2264 0.71539,2.86161 z"
     id="path28"
     style="fill:#000000;stroke:none;stroke-width:0.102201" />
  <path
     d="m 296.46556,451.35757 v 19.92911 h 5.11003 5.11003 v -19.92911 -19.92912 h -5.11003 -5.11003 z"
     id="path30-7"
     style="fill:#000000;stroke:none;stroke-width:0.102201" />
</svg>
