<?xml version="1.0" encoding="UTF-8" standalone="no"?>
<!-- Created with Inkscape (http://www.inkscape.org/) -->

<svg
   version="1.0"
   width="775.60504"
   height="775.54199"
   viewBox="0 0 581.7038 581.65652"
   id="svg8"
   sodipodi:docname="explosives_graa.svg"
   inkscape:version="1.1 (c68e22c387, 2021-05-23)"
   inkscape:export-filename="/media/juhele/data_2TB/_GRAFIKA/GHS hazard symbols/GHS01_explosive_substances.png"
   inkscape:export-xdpi="99.027519"
   inkscape:export-ydpi="99.027519"
   xmlns:inkscape="http://www.inkscape.org/namespaces/inkscape"
   xmlns:sodipodi="http://sodipodi.sourceforge.net/DTD/sodipodi-0.dtd"
   xmlns="http://www.w3.org/2000/svg"
   xmlns:svg="http://www.w3.org/2000/svg"
   xmlns:rdf="http://www.w3.org/1999/02/22-rdf-syntax-ns#"
   xmlns:cc="http://creativecommons.org/ns#"
   xmlns:dc="http://purl.org/dc/elements/1.1/">
  <title
     id="title821">Globally Harmonized System of Classification and Labelling of Chemicals (GHS) pictogram for explosive substances</title>
  <metadata
     id="metadata14">
    <rdf:RDF>
      <cc:Work
         rdf:about="">
        <dc:format>image/svg+xml</dc:format>
        <dc:type
           rdf:resource="http://purl.org/dc/dcmitype/StillImage" />
        <dc:title>Globally Harmonized System of Classification and Labelling of Chemicals (GHS) pictogram for explosive substances</dc:title>
        <dc:description>Official hazard symbols according to directive (EC) No 1272/2008 by the European Chemicals Bureau 
The Globally Harmonized System of Classification and Labelling of Chemicals (GHS) is an internationally agreed-upon standard managed by the United Nations that was set up to replace the assortment of hazardous material classification and labelling schemes previously used around the world.
https://en.wikipedia.org/wiki/Globally_Harmonized_System_of_Classification_and_Labelling_of_Chemicals

symbols (Public Domain)
https://commons.wikimedia.org/wiki/GHS_hazard_symbols</dc:description>
        <dc:source>EPS file explos.eps from UNECE web site converted with ImageMagick convert and with potrace, edited in inkscape</dc:source>
        <dc:subject>
          <rdf:Bag>
            <rdf:li>GHS</rdf:li>
            <rdf:li>explosive</rdf:li>
            <rdf:li>flammable</rdf:li>
            <rdf:li>gas</rdf:li>
            <rdf:li>corrosive</rdf:li>
            <rdf:li>acid</rdf:li>
            <rdf:li>harmful</rdf:li>
            <rdf:li>health</rdf:li>
            <rdf:li>pollution</rdf:li>
            <rdf:li>contamination</rdf:li>
            <rdf:li>nature</rdf:li>
            <rdf:li>toxic</rdf:li>
            <rdf:li>hazard</rdf:li>
            <rdf:li>warning</rdf:li>
            <rdf:li>label</rdf:li>
            <rdf:li>chemical</rdf:li>
            <rdf:li>pictogram</rdf:li>
            <rdf:li>symbol</rdf:li>
            <rdf:li>danger</rdf:li>
          </rdf:Bag>
        </dc:subject>
      </cc:Work>
    </rdf:RDF>
  </metadata>
  <defs
     id="defs12" />
  <sodipodi:namedview
     pagecolor="#ffffff"
     bordercolor="#666666"
     borderopacity="1"
     objecttolerance="10"
     gridtolerance="10"
     guidetolerance="10"
     inkscape:pageopacity="0"
     inkscape:pageshadow="2"
     inkscape:window-width="1920"
     inkscape:window-height="1017"
     id="namedview10"
     showgrid="false"
     units="px"
     fit-margin-top="10"
     fit-margin-left="10"
     fit-margin-bottom="10"
     fit-margin-right="10"
     inkscape:zoom="0.61139896"
     inkscape:cx="505.39831"
     inkscape:cy="237.97882"
     inkscape:window-x="1912"
     inkscape:window-y="-8"
     inkscape:window-maximized="1"
     inkscape:current-layer="svg8"
     inkscape:pagecheckerboard="0" />
  <path
     d="M 26.801165,290.82825 290.82987,554.85697 554.90261,290.78423 C 466.85022,202.83223 378.97182,114.70595 290.8739,26.79956 Z"
     style="fill:#ffffff;stroke:none"
     id="path2"
     inkscape:connector-curvature="0" />
  <path
     d="M 149.15941,149.16886 7.5000003,290.82826 149.16886,432.49712 290.82827,574.15653 432.51602,432.46877 574.20378,290.78102 432.56327,149.14051 C 354.66571,71.24296 290.90386,7.5000003 290.87551,7.5000003 c -0.0284,0 -63.79965,63.7524097 -141.7161,141.6688597 z M 410.12189,171.58188 529.32103,290.78102 410.0652,410.03685 290.81882,529.28323 171.62913,410.0274 52.439444,290.77157 171.63858,171.57244 C 237.19574,106.01527 290.84716,52.38275 290.87551,52.38275 c 0.0283,0 53.68922,53.64197 119.24638,119.19913 z"
     style="fill:#707070;stroke:none;fill-opacity:1"
     id="path4"
     inkscape:connector-curvature="0" />
  <path
     d="m 339.5175,80.754206 c -0.10446,0.0134 -0.17654,0.12431 -0.26115,0.33576 -0.0706,0.21152 -13.53543,38.592064 -29.92036,85.321544 -16.38493,46.72947 -29.82665,85.02718 -29.88306,85.09769 -0.16921,0.16919 -1.35714,-0.25939 -1.34306,-0.48499 0.0134,-0.15511 35.01469,-109.06006 35.36722,-110.0189 0.0422,-0.11281 -1.00461,-0.82014 -3.13381,-2.0892 -3.17265,-1.88949 -3.54418,-2.09096 -3.54418,-1.86536 0,0.19742 -29.15512,113.84243 -29.21153,113.89884 -0.0282,0.0422 -0.8228,-0.14251 -1.75344,-0.41038 -2.22791,-0.63453 -6.01523,-1.40593 -8.46873,-1.71613 -2.74963,-0.33842 -9.00891,-0.35252 -11.49061,0 -11.59072,1.62157 -20.98175,6.41609 -29.17422,14.84826 -5.75305,5.92226 -10.33376,13.60259 -12.75906,21.41433 -0.29611,0.93065 -0.57781,1.73433 -0.63422,1.79074 -0.0564,0.0564 -4.50908,-3.19981 -9.92371,-7.2749 -5.41465,-4.07508 -9.89551,-7.39182 -9.92371,-7.34952 -0.0282,0.0282 0.517,1.14592 1.19383,2.49959 l 1.23114,2.46227 8.50603,5.708 c 8.22067,5.51334 8.46462,5.71445 8.39412,6.08107 -0.0706,0.35251 0.2053,0.69351 2.5742,3.24573 1.45237,1.57927 3.05067,3.28359 3.54418,3.80533 l 0.93268,0.93268 2.49958,-0.14923 2.49958,-0.14923 4.70071,3.1338 c 2.58042,1.70618 4.53003,2.95815 4.29032,2.76074 -0.22562,-0.1974 -2.09651,-1.63415 -4.14109,-3.17111 -2.0305,-1.52287 -3.60558,-2.78394 -3.50688,-2.79804 0.0988,-0.0134 3.35992,-0.19888 7.23759,-0.41038 l 7.05106,-0.37307 10.14756,5.11108 c 5.61206,2.79192 10.25447,5.07378 10.29678,5.07378 0.0422,0 2.59176,-3.03914 5.708,-6.78991 3.11624,-3.73666 5.75853,-6.90095 5.85723,-7.01375 0.15511,-0.18331 -0.25348,-1.25012 -2.42497,-6.56607 -1.42416,-3.48285 -2.56509,-6.35132 -2.53689,-6.37953 0.0282,-0.0134 3.58022,0.35544 7.90913,0.82076 4.32888,0.46533 7.89003,0.82576 7.94643,0.78345 0.0422,-0.0564 0.61072,-2.209 1.23113,-4.77532 l 1.15653,-4.7007 3.50687,-0.0373 c 1.9318,-0.0134 4.04709,0.0182 4.73801,0.0746 l 1.26845,0.11192 -12.01292,13.13213 c -6.62729,7.20542 -12.15626,13.27048 -12.31137,13.46789 -0.53582,0.63452 4.24017,-4.15057 15.40787,-15.44517 l 11.00562,-11.15485 4.10379,-0.0746 4.06648,-0.0746 -0.70883,-1.0446 c -0.40892,-0.57813 -1.18031,-1.58981 -1.71613,-2.23843 -0.53582,-0.64863 -0.94678,-1.21204 -0.93268,-1.26845 0.0282,-0.0564 1.56187,-1.65469 3.39495,-3.54418 l 3.32034,-3.39495 0.37307,0.78345 c 0.1974,0.45122 0.33577,0.86217 0.33577,0.93268 0,0.2256 0.18467,0.15545 5.78261,-2.42497 2.89064,-1.32547 5.31583,-2.34623 5.37224,-2.27574 0.0564,0.0564 0.58751,1.86267 1.19383,3.99187 0.59223,2.1292 1.13742,3.93546 1.19383,3.99187 0.0988,0.11282 17.15277,-13.65913 17.6463,-14.25135 0.11281,-0.1551 2.23308,-4.01204 4.7007,-8.58065 2.4676,-4.58269 4.65253,-8.57801 4.84993,-8.91642 0.19742,-0.33842 0.28524,-0.62512 0.18654,-0.59691 -0.0846,0.0282 -3.59522,2.93397 -7.7972,6.41683 l -7.64797,6.30492 -5.48416,0.14923 c -3.03163,0.0706 -5.72944,0.10282 -5.96915,0.0746 -0.40892,-0.0422 2.62202,-3.1267 51.29738,-52.26737 28.44095,-28.70887 51.74507,-52.24828 51.74507,-52.30467 0,-0.0564 -1.34891,-1.43761 -2.98458,-3.05919 -2.79192,-2.79192 -2.98281,-2.92584 -3.20842,-2.68612 -0.12684,0.12685 -23.78646,25.88354 -52.56582,57.22923 l -52.30468,57.00538 -4.14109,2.90996 c -2.2702,1.59336 -4.20572,2.97459 -4.29033,3.05919 -0.0988,0.0988 0.0119,0.46059 0.33577,1.19383 0.39481,0.93063 0.43036,1.09425 0.26115,1.30575 -0.15511,0.19741 -5.59723,6.19826 -6.64068,7.31221 -0.25381,0.26792 -0.26554,0.25177 -1.49229,-0.93268 -2.383,-2.3548 -4.63719,-4.16838 -7.38682,-6.04377 l -1.34306,-0.93268 25.92849,-44.54478 c 20.44591,-35.12464 25.88297,-44.5671 25.74196,-44.69401 -0.0846,-0.0988 -1.4244,-0.93472 -2.94727,-1.86535 l -2.79804,-1.71614 -0.48499,0.85807 c -0.25381,0.47941 -10.76244,21.23817 -23.3543,46.11168 -12.98667,25.69134 -22.94304,45.21631 -23.05584,45.21631 -0.14102,0 -0.12281,-0.16802 0.0746,-0.74614 0.1551,-0.39482 13.91085,-38.75717 30.59189,-85.24692 16.69514,-46.48976 30.32164,-84.565394 30.29343,-84.650014 -0.0564,-0.12684 -10.19511,-4.86548 -11.26677,-5.26031 -0.0422,-0.0134 -0.0772,-0.004 -0.11192,0 z m -51.44661,65.101044 -1.45498,3.6188 -1.41767,3.6561 -2.76073,-1.08191 c -1.53697,-0.60633 -2.83035,-1.06369 -2.87266,-1.00729 -0.0422,0.0564 -0.69354,3.10964 -1.45498,6.78991 -0.74732,3.68026 -1.37538,6.81223 -1.41767,6.93913 -0.0422,0.16921 0.57925,0.50935 2.83535,1.5669 1.62158,0.76143 2.98867,1.43588 3.05919,1.49229 0.0564,0.0564 0.74905,2.54623 1.5669,5.52146 0.80373,2.96114 1.50139,5.41866 1.52959,5.44685 0.0282,0.0282 1.17824,-1.6115 2.5742,-3.6561 2.65093,-3.87766 2.64394,-3.86479 11.00562,-12.94559 l 0.44768,-0.485 -2.42496,-7.83451 -2.42497,-7.83451 -1.0446,-0.0746 c -0.57813,-0.0564 -2.0977,-0.0977 -3.39496,-0.11192 z m 192.28124,34.8076 c -0.0564,0 -0.14431,0.16656 -0.18654,0.33577 -0.43712,1.45235 -4.90546,15.27684 -4.96185,15.33325 -0.0282,0.0422 -3.04914,0.20388 -6.7153,0.37307 l -6.67798,0.29846 -1.90267,1.41767 c -1.04344,0.80373 -1.91177,1.4782 -1.93997,1.49229 -0.0422,0.0422 -1.81895,11.41102 -1.79075,11.45331 0.0564,0.0422 10.40371,5.96915 10.44601,5.96915 0.0282,0 1.90821,-2.00015 4.17841,-4.43956 2.2843,-2.4394 4.1734,-4.45366 4.21571,-4.43955 0.0422,0 3.7791,2.54535 8.3195,5.63338 l 8.24489,5.59608 0.0373,-2.0519 c 0.0134,-1.12805 0.009,-5.72907 -0.0746,-10.18486 l -0.14923,-8.09566 -5.48415,-9.3641 c -3.01754,-5.13263 -5.50236,-9.3268 -5.55877,-9.3268 z m -140.31233,5.708 -0.26115,0.33577 c -0.14102,0.18331 -0.98613,1.40296 -1.90267,2.68611 l -1.64151,2.31305 -1.0446,5.22301 c -0.56403,2.87651 -1.0446,5.36637 -1.0446,5.52146 0.0134,0.19741 1.1976,1.31217 3.69341,3.46957 2.03049,1.74848 3.72072,3.17111 3.80533,3.17111 0.0706,0 1.34567,-1.44583 2.79804,-3.20842 l 2.64881,-3.24572 0.59691,-2.90996 c 0.32432,-1.59338 0.66154,-3.2654 0.74615,-3.73072 l 0.14923,-0.85807 -1.60421,-4.32763 c -0.87424,-2.3689 -1.63652,-4.34584 -1.67883,-4.40225 -0.0564,-0.0564 -0.65211,0.53522 -1.34305,1.26844 l -1.23114,1.34306 -1.34306,-1.34306 z m 86.21691,7.72259 c -0.0706,0 -31.15723,21.88557 -69.13022,48.64857 -37.97298,26.77708 -69.0465,48.69498 -69.01829,48.72318 0.0134,0.0282 31.15225,-19.2383 69.16752,-42.82864 l 69.09291,-42.90327 v -5.85723 c 0,-3.20085 -0.0555,-5.79671 -0.11192,-5.78261 z m -13.65443,38.05333 -2.79804,3.1338 -2.83535,3.0965 -1.34306,3.6188 c -0.74732,1.98819 -1.35716,3.6279 -1.34305,3.6561 0.0564,0.0564 24.64096,3.00368 24.69735,2.94727 0.0282,-0.0134 -3.65807,-3.74679 -8.17027,-8.24489 z m 113.37653,2.16382 c -0.0706,-0.0134 -54.83087,14.14349 -121.69603,31.48726 -66.86517,17.34377 -121.57502,31.57098 -121.54682,31.59919 0.0422,0.0422 246.57642,-55.80157 246.67512,-55.88617 0.0846,-0.0564 -3.31946,-7.17209 -3.43227,-7.20028 z m -143.25959,16.71362 c -0.0706,0.0134 -18.29302,8.59632 -40.5156,19.10127 -22.22258,10.50498 -40.51472,19.16591 -40.62753,19.25051 -0.15511,0.11282 -0.10461,0.12192 0.14923,0.0373 0.49353,-0.16921 81.68865,-31.49637 81.70274,-31.52457 0.0134,0 -0.0919,-1.54279 -0.26115,-3.43226 -0.1692,-2.07281 -0.34899,-3.43226 -0.44769,-3.43226 z m 176.16453,8.46873 c -0.1833,0.0134 -60.26468,10.20872 -133.55972,22.64546 -73.28095,12.42265 -133.43693,22.60815 -133.63434,22.60815 -0.23971,0.0134 -0.85423,-0.4083 -1.93997,-1.26844 l -1.64152,-1.30575 -0.0746,5.40954 -0.0746,5.40954 -4.21571,2.87265 c -2.32661,1.56517 -4.30355,2.82125 -4.40225,2.83535 -0.0988,0 -1.88177,-1.19144 -3.95456,-2.68612 -5.49924,-3.97638 -5.5812,-3.96315 -0.33577,0.11192 1.97409,1.53699 3.67431,2.81625 3.73072,2.87266 0.14102,0.12684 -6.6298,4.6966 -6.82721,4.62609 -0.0988,-0.0282 -16.73733,-14.20486 -20.85472,-17.75822 l -0.93268,-0.82076 -7.72259,6.67799 c -4.24427,3.68026 -7.7781,6.71529 -7.83451,6.71529 -0.0706,0 -4.44034,-1.14093 -9.69986,-2.53689 l -9.55064,-2.53689 2.68611,0.0746 c 1.48056,0.0422 3.71601,0.0695 4.99917,0.11192 2.21379,0.0564 -4.09602,-0.41595 -11.63984,-0.89537 -1.39596,-0.0988 -8.9624,-0.6116 -16.78824,-1.11922 l -14.25135,-0.93268 -0.0373,-0.41038 c -0.0846,-0.47941 -0.0276,-0.46032 -1.26844,-0.0373 -0.88834,0.29612 -1.01841,0.28114 -3.76803,0.11193 -1.55106,-0.0846 -3.15847,-0.18156 -3.58149,-0.22385 l -0.78345,-0.11192 -0.67153,-1.23114 -0.67153,-1.19383 -4.81262,-0.26115 c -2.65092,-0.14102 -5.16396,-0.22384 -5.55877,-0.22384 h -0.70884 l -0.63422,1.0073 -0.59692,1.0446 -0.70889,-0.0746 c -0.39483,-0.0134 -15.15314,-0.95615 -32.79302,-2.12651 -17.63988,-1.15625 -32.310364,-2.1033 -32.606479,-2.0892 l -0.522301,0.0373 1.641516,1.75343 c 1.424165,1.55107 1.689389,1.78575 2.12651,1.82806 0.282013,0.0282 14.236634,0.59161 31.002274,1.26844 16.76564,0.67683 30.54958,1.26345 30.59189,1.30575 0.0422,0.0422 -0.63215,1.22465 -1.49229,2.64881 -0.84604,1.41007 -1.52547,2.65292 -1.45498,2.72343 0.0564,0.0564 2.10298,1.51134 4.51417,3.24572 l 4.36494,3.17111 4.81263,0.78345 c 2.63681,0.45121 4.90045,0.78845 4.99916,0.74615 0.0988,-0.0282 0.82368,-1.13683 1.64152,-2.46228 l 1.49229,-2.42496 h 3.05918 3.05919 v -0.5223 c 0,-0.29612 -0.10595,-1.97314 -0.26115,-3.69342 -0.1551,-1.73438 -0.26615,-3.16612 -0.22384,-3.20841 0.0846,-0.0846 30.45059,1.08102 31.22612,1.19383 0.36663,0.0564 0.44769,0.10013 0.44769,0.41038 0,0.52173 0.74172,3.7994 1.30575,5.7453 0.47941,1.63567 0.48265,1.64564 0.18653,1.71613 -0.15509,0.0282 -37.51988,4.31021 -83.00849,9.51334 -45.488606,5.21723 -82.695928,9.51333 -82.71003,9.51333 -0.04223,0.0282 -0.340764,3.65112 -0.298457,3.69341 0.0282,0.0134 37.378875,-5.03019 83.008487,-11.19216 45.62961,-6.16198 83.06813,-11.19215 83.19503,-11.19215 0.15511,0 0.34811,0.30314 0.55961,0.89537 0.18331,0.49351 0.59926,1.5002 0.89537,2.27574 0.29611,0.76142 0.5132,1.40358 0.48499,1.41767 -0.0282,0.0134 -27.95565,6.19931 -62.07916,13.72905 -34.12351,7.52973 -62.147905,13.77047 -62.302999,13.84096 -0.239721,0.0988 -0.384517,0.46264 -0.708836,2.12651 -0.225604,1.09985 -0.340764,2.0469 -0.298458,2.0892 0.07058,0.0564 125.086583,-30.73936 125.650603,-30.96496 0.0846,-0.0282 0.35721,0.36454 0.59692,0.85806 0.31022,0.62042 0.37397,0.92769 0.26115,0.96999 -0.0988,0.0282 -9.51693,2.57356 -20.96664,5.63339 l -20.85472,5.52146 -0.26115,2.12651 c -0.15511,1.17034 -0.27525,2.14971 -0.26115,2.16382 0.0134,0.0134 9.74223,-3.1684 21.60086,-7.08837 21.63035,-7.13492 21.7733,-7.1815 21.7874,-6.60337 0,0.0846 -15.19249,8.35279 -33.76301,18.39244 l -33.80031,18.24322 0.11192,1.34305 c 0.0564,0.73324 0.0928,1.56925 0.14923,1.86536 l 0.11192,0.5223 33.53922,-19.7355 c 18.45772,-10.85748 33.67341,-19.82832 33.80032,-19.88473 0.18331,-0.11281 0.44973,0.23056 1.38036,1.75344 1.05756,1.74847 2.4881,3.78622 3.95457,5.63339 0.56402,0.73323 0.59869,0.83809 0.37307,1.00729 -0.12685,0.0846 -17.90617,14.2795 -39.50832,31.52457 l -39.24716,31.37534 2.76074,2.72343 c 1.53696,1.49467 2.90908,2.76485 3.02188,2.83535 0.16921,0.0988 5.41742,-4.68776 23.46622,-21.22779 12.80333,-11.74581 23.28876,-21.31649 23.31696,-21.30241 0.0282,0.0282 -0.17067,0.45326 -0.41038,0.93268 -0.2397,0.46533 -0.41037,0.89949 -0.41037,0.96999 0,0.0988 3.87288,4.47889 4.77532,5.40954 0.2397,0.23971 0.36598,0.20536 3.05918,-1.00729 l 2.79804,-1.26845 1.41768,1.41768 1.41767,1.38036 2.79804,-1.67882 2.83534,-1.71613 1.08191,-3.6188 c 0.60633,-2.00229 1.06781,-3.72984 1.08191,-3.84264 0,-0.12684 -1.06542,-0.88331 -2.57419,-1.82805 l -2.53689,-1.60421 -4.10379,-0.0746 -4.06649,-0.0746 10.03564,-9.21487 c 5.51334,-5.04802 10.04473,-9.17757 10.07294,-9.17757 0.0134,0 1.14592,1.0854 2.49958,2.42497 1.35365,1.33955 3.1044,2.96107 3.87995,3.58149 9.40511,7.52974 20.09306,11.18071 31.59918,10.85639 9.03849,-0.25381 17.07802,-2.80558 24.73467,-7.7972 3.15854,-2.05869 5.14451,-3.67133 8.02104,-6.49145 l 1.79075,-1.71614 26.82386,21.60087 c 14.77745,11.90093 26.87029,21.61496 26.89848,21.60086 0.0134,-0.0282 -0.68767,-1.70024 -1.60421,-3.73072 l -1.64151,-3.69341 -24.9212,-18.28053 -24.9212,-18.24321 0.48499,-0.59691 c 0.26793,-0.31021 0.98878,-1.21585 1.5669,-1.97728 0.59223,-0.74733 1.13742,-1.35717 1.19383,-1.34306 0.0706,0.0282 15.11053,11.76558 33.42724,26.07772 18.31671,14.31212 33.5274,26.18787 33.83762,26.41349 l 0.55961,0.41038 1.60421,-1.60421 c 0.88834,-0.88835 1.61831,-1.65973 1.6042,-1.71613 -0.0282,-0.0422 -15.71947,-11.43336 -34.88221,-25.29428 -19.14866,-13.8609 -34.94185,-25.27929 -35.06876,-25.40619 -0.2256,-0.21152 -0.18361,-0.32105 0.63422,-1.60421 0.54993,-0.86014 0.9318,-1.34806 1.0446,-1.30575 0.0988,0.0422 14.33504,8.72147 31.6365,19.32512 17.28736,10.58957 31.48228,19.2041 31.52457,19.1759 0.0282,-0.0422 -0.71997,-1.64971 -1.67882,-3.58149 l -1.75344,-3.50688 -29.62191,-16.26593 -29.6219,-16.26594 1.00729,-1.97728 c 0.56403,-1.08574 1.26169,-2.46696 1.5296,-3.05919 l 0.48499,-1.0819 18.35514,4.73801 c 10.09605,2.60862 18.37334,4.79352 18.42974,4.84993 0.11282,0.11282 -1.29487,2.08921 -1.49228,2.08921 -0.0706,0 -2.56533,-0.47148 -5.48416,-1.0073 -2.93293,-0.54992 -5.40866,-0.96999 -5.52146,-0.96999 -0.15511,0 -0.7755,0.98817 -1.79075,2.83535 l -1.5669,2.87265 3.69341,2.72343 c 2.03048,1.50876 4.59405,3.39788 5.708,4.21571 l 2.01459,1.49229 14.99749,2.57419 c 8.23475,1.41007 15.00659,2.52777 15.03479,2.49959 0.0422,-0.0422 0.30668,-3.86052 0.44769,-6.34223 l 0.0373,-0.85806 -2.46228,-2.83535 -2.46227,-2.79804 -3.05919,-1.30575 c -1.69207,-0.71913 -3.03598,-1.32897 -3.02188,-1.34306 0.0134,-0.0134 9.59888,2.42931 21.3024,5.44685 11.70352,3.01753 21.37614,5.48416 21.48894,5.48416 0.0988,0 0.14923,-0.0415 0.14923,-0.11192 0,-0.0564 0.42505,-2.93897 0.93268,-6.37953 0.50761,-3.44056 0.90947,-6.23942 0.89537,-6.26761 -0.0282,-0.0134 -21.57657,-3.07234 -47.90243,-6.7526 -26.31175,-3.68026 -47.87423,-6.7244 -47.90242,-6.7526 -0.0282,-0.0282 0.25351,-1.00756 0.63422,-2.16382 0.39481,-1.15624 0.70884,-2.18614 0.70884,-2.31304 0,-0.15511 -1.0284,-0.57076 -3.69341,-1.5296 l -3.69342,-1.30575 -0.74614,-1.30575 c -0.40892,-0.69093 -0.71384,-1.30077 -0.67153,-1.34306 0.0282,-0.0422 20.73145,0.92795 45.99976,2.12651 l 45.92515,2.16382 0.37307,0.37307 0.37307,0.41038 8.3195,0.55961 8.2822,0.5596 0.48499,-0.5223 0.48499,-0.5223 58.72151,2.79804 c 32.30454,1.52287 58.74472,2.73753 58.75882,2.72343 0.0282,-0.0282 -1.08541,-0.87333 -2.42496,-1.90267 l -2.42497,-1.90267 -55.32656,-1.71613 c -30.42914,-0.97294 -55.40029,-1.77664 -55.51309,-1.79074 -0.11282,-0.0282 1.55246,-2.0348 3.99187,-4.81263 2.31249,-2.62271 4.1693,-4.79852 4.1411,-4.81263 -0.0134,-0.0282 -6.66578,-2.9845 -14.77365,-6.56606 -8.10785,-3.58156 -14.75454,-6.56108 -14.81095,-6.60337 -0.0564,-0.0282 -1.89498,1.65793 -4.06649,3.73072 l -3.95456,3.76802 -5.59608,1.86536 c -3.05984,1.02935 -5.60518,1.89767 -5.63338,1.93997 -0.0422,0.0282 0.512,2.31007 1.23114,5.07378 0.71913,2.76373 1.23613,5.092 1.19383,5.14839 -0.0564,0.0422 -16.67151,-0.47059 -36.93412,-1.11921 -20.24849,-0.63454 -36.8777,-1.13332 -36.93411,-1.11922 -0.0564,0 -0.37953,-0.5129 -0.74614,-1.11921 -0.63454,-1.04346 -0.78162,-1.19819 -4.58879,-4.21571 l -3.95456,-3.0965 0.74614,-0.11192 c 0.40892,-0.0564 60.61544,-8.22766 133.78357,-18.1686 l 133.03744,-18.05671 0.0746,-4.55148 v -4.55147 z m -375.31029,21.93662 c -0.005,0.0301 0.0161,0.0822 0.0373,0.14923 0.0564,0.15511 0.30579,0.84367 0.55961,1.49229 l 0.48505,1.15652 22.04855,10.63255 c 12.11243,5.83766 22.05766,10.57203 22.08585,10.55793 0.0134,-0.0282 -9.82007,-5.28956 -21.86201,-11.67715 -12.02782,-6.38758 -22.22244,-11.78729 -22.64546,-12.01291 -0.5182,-0.2961 -0.69627,-0.38901 -0.70883,-0.29846 z m -19.36243,12.90829 c -0.0422,0 -0.98435,0.8037 -2.12651,1.79074 -1.14215,0.98705 -2.03367,1.82306 -1.97728,1.86536 0.14102,0.11282 65.72527,10.34409 65.80988,10.25948 0.0564,-0.0422 -61.46638,-13.92968 -61.70609,-13.91558 z m 62.15378,13.95289 c -0.1551,-0.0134 -0.24295,0.0324 -0.18654,0.0746 0.0422,0.0422 0.16245,0.0422 0.26115,0 0.11282,-0.0422 0.0804,-0.0746 -0.0746,-0.0746 z m -54.54311,3.20841 0.96999,0.0746 c 0.52173,0.0564 1.15474,0.0977 1.38036,0.11192 0.35251,0 0.30874,0.0677 -0.41038,0.33576 -1.46647,0.56403 -1.39681,0.56403 -1.67882,0 z m 216.82936,1.86536 c 0.0846,0 0.75906,0.62803 1.49229,1.41768 l 1.30575,1.45498 -2.38766,-0.11193 c -1.32546,-0.0564 -3.92134,-0.13012 -5.78261,-0.18653 -1.86129,-0.0422 -3.28391,-0.14416 -3.17111,-0.18654 0.36661,-0.12684 8.40234,-2.37356 8.54334,-2.38766 z m -162.73394,0.29846 c -0.0336,0.0134 -0.0282,0.0534 0,0.0746 0.0422,0.0422 0.16245,0.0422 0.26115,0 0.11282,-0.0422 0.0433,-0.0746 -0.11192,-0.0746 -0.0776,-0.007 -0.11565,-0.0134 -0.14923,0 z m -107.482,4.25302 c -0.0564,-0.0134 -2.03335,1.43174 -4.40225,3.20842 l -4.29033,3.17111 -0.0373,1.71613 c -0.0422,1.67797 -0.0491,1.73433 0.26115,1.79074 0.52172,0.11282 23.52996,2.20613 23.72737,2.16382 0.14102,-0.0422 -14.97662,-11.97973 -15.25864,-12.05022 z m 28.61461,27.4954 c 0,0.12684 8.62618,8.43142 8.76719,8.43142 0.0846,0 1.52134,-0.56841 3.17111,-1.23114 l 2.98457,-1.19383 v -2.6115 -2.6115 h -0.37307 c -0.49353,0 -12.57779,-0.66154 -13.69174,-0.74615 -0.49353,-0.0422 -0.85806,-0.0655 -0.85806,-0.0373 z m -31.6738,21.93662 c -0.0422,0 -0.12103,0.10192 -0.14923,0.18654 -0.0422,0.0988 -0.71176,2.35735 -1.5296,5.03647 l -1.49228,4.88724 0.44768,0.63422 c 2.43941,3.39825 8.49606,11.64894 8.58066,11.67715 0.0564,0.0134 0.3381,-0.66035 0.63422,-1.49229 0.29611,-0.84604 0.91504,-2.58269 1.38036,-3.87995 l 0.82076,-2.35035 0.5223,-0.0746 c 0.29612,-0.0422 1.50168,-0.13013 2.68612,-0.18654 l 2.12651,-0.0746 1.67882,-1.82806 1.67883,-1.79074 0.89537,-2.72342 c 0.47943,-1.48056 0.81165,-2.69523 0.78345,-2.72343 -0.0846,-0.0846 -7.94055,-3.02188 -8.09566,-3.02188 -0.0846,0 -0.65711,0.65123 -1.30575,1.45498 -0.64862,0.81783 -1.28167,1.44588 -1.38037,1.41767 -0.0846,-0.0282 -1.96459,-1.17823 -4.1784,-2.57419 -2.2138,-1.41007 -4.0615,-2.5742 -4.10379,-2.5742 z"
     style="fill:#707070;stroke:none;stroke-width:1.19383;fill-opacity:1"
     id="path6"
     inkscape:connector-curvature="0" />
</svg>
