<?xml version="1.0" encoding="UTF-8" standalone="no"?>
<!-- Created with Inkscape (http://www.inkscape.org/) -->

<svg
   version="1.0"
   width="775.60504"
   height="775.54199"
   viewBox="0 0 581.7038 581.65652"
   id="svg8"
   sodipodi:docname="flammable_graa.svg"
   inkscape:version="1.1 (c68e22c387, 2021-05-23)"
   inkscape:export-filename="/media/juhele/data_2TB/_GRAFIKA/GHS hazard symbols/GHS02_flammable_substances.png"
   inkscape:export-xdpi="99.027519"
   inkscape:export-ydpi="99.027519"
   xmlns:inkscape="http://www.inkscape.org/namespaces/inkscape"
   xmlns:sodipodi="http://sodipodi.sourceforge.net/DTD/sodipodi-0.dtd"
   xmlns="http://www.w3.org/2000/svg"
   xmlns:svg="http://www.w3.org/2000/svg"
   xmlns:rdf="http://www.w3.org/1999/02/22-rdf-syntax-ns#"
   xmlns:cc="http://creativecommons.org/ns#"
   xmlns:dc="http://purl.org/dc/elements/1.1/">
  <title
     id="title821">Globally Harmonized System of Classification and Labelling of Chemicals (GHS) pictogram for flammable substances</title>
  <metadata
     id="metadata14">
    <rdf:RDF>
      <cc:Work
         rdf:about="">
        <dc:format>image/svg+xml</dc:format>
        <dc:type
           rdf:resource="http://purl.org/dc/dcmitype/StillImage" />
        <dc:title>Globally Harmonized System of Classification and Labelling of Chemicals (GHS) pictogram for flammable substances</dc:title>
        <dc:description>Official hazard symbols according to directive (EC) No 1272/2008 by the European Chemicals Bureau 
The Globally Harmonized System of Classification and Labelling of Chemicals (GHS) is an internationally agreed-upon standard managed by the United Nations that was set up to replace the assortment of hazardous material classification and labelling schemes previously used around the world.
https://en.wikipedia.org/wiki/Globally_Harmonized_System_of_Classification_and_Labelling_of_Chemicals

symbols (Public Domain)
https://commons.wikimedia.org/wiki/GHS_hazard_symbols</dc:description>
        <dc:source>EPS file flamme.eps from UNECE web site converted with ImageMagick convert and with potrace, edited and flame redrawn in inkscape</dc:source>
        <dc:subject>
          <rdf:Bag>
            <rdf:li>GHS</rdf:li>
            <rdf:li>explosive</rdf:li>
            <rdf:li>flammable</rdf:li>
            <rdf:li>gas</rdf:li>
            <rdf:li>corrosive</rdf:li>
            <rdf:li>acid</rdf:li>
            <rdf:li>harmful</rdf:li>
            <rdf:li>health</rdf:li>
            <rdf:li>pollution</rdf:li>
            <rdf:li>contamination</rdf:li>
            <rdf:li>nature</rdf:li>
            <rdf:li>toxic</rdf:li>
            <rdf:li>hazard</rdf:li>
            <rdf:li>warning</rdf:li>
            <rdf:li>label</rdf:li>
            <rdf:li>chemical</rdf:li>
            <rdf:li>pictogram</rdf:li>
            <rdf:li>symbol</rdf:li>
            <rdf:li>danger</rdf:li>
          </rdf:Bag>
        </dc:subject>
        <cc:license
           rdf:resource="http://creativecommons.org/publicdomain/zero/1.0/" />
      </cc:Work>
      <cc:License
         rdf:about="http://creativecommons.org/publicdomain/zero/1.0/">
        <cc:permits
           rdf:resource="http://creativecommons.org/ns#Reproduction" />
        <cc:permits
           rdf:resource="http://creativecommons.org/ns#Distribution" />
        <cc:permits
           rdf:resource="http://creativecommons.org/ns#DerivativeWorks" />
      </cc:License>
    </rdf:RDF>
  </metadata>
  <defs
     id="defs12" />
  <sodipodi:namedview
     pagecolor="#ffffff"
     bordercolor="#666666"
     borderopacity="1"
     objecttolerance="10"
     gridtolerance="10"
     guidetolerance="10"
     inkscape:pageopacity="0"
     inkscape:pageshadow="2"
     inkscape:window-width="1920"
     inkscape:window-height="1017"
     id="namedview10"
     showgrid="false"
     units="px"
     fit-margin-top="10"
     fit-margin-left="10"
     fit-margin-bottom="10"
     fit-margin-right="10"
     inkscape:zoom="0.61139896"
     inkscape:cx="26.169492"
     inkscape:cy="237.97882"
     inkscape:window-x="1912"
     inkscape:window-y="-8"
     inkscape:window-maximized="1"
     inkscape:current-layer="svg8"
     inkscape:pagecheckerboard="0" />
  <path
     id="path815"
     style="fill:#ffffff;stroke:none"
     d="M 26.776165,290.75325 290.80487,554.78197 554.87761,290.70923 C 466.82522,202.75723 378.94682,114.63095 290.8489,26.724555 Z"
     inkscape:connector-curvature="0" />
  <path
     id="path817"
     style="fill:#707070;stroke:none;fill-opacity:1"
     d="M 149.13441,149.09386 7.475,290.75326 149.14386,432.42212 290.80327,574.08153 432.49102,432.39377 574.17878,290.70602 432.53827,149.06551 C 354.64071,71.167955 290.87886,7.4250006 290.85051,7.4250006 c -0.0284,0 -63.79965,63.7524034 -141.7161,141.6688594 z M 410.09689,171.50688 529.29603,290.70602 410.04965,409.9524 290.79382,529.20823 171.60413,409.9524 52.414444,290.69657 171.61358,171.49744 C 237.17074,105.94027 290.82216,52.307751 290.85051,52.307751 c 0.0283,0 53.68922,53.641969 119.24638,119.199129 z"
     inkscape:connector-curvature="0" />
  <path
     id="path819"
     style="fill:#707070;stroke:none;stroke-width:0.8;fill-opacity:1"
     d="m 291,122.45653 c -17.58137,33.57957 3.84069,52.5347 -19.775,102 -12.52962,-10.01086 -5.26579,-47.42302 -30.15,-48.05 3.82957,11.48871 0.96326,15.9513 0.325,20.1 -2.47531,16.08951 -8.21958,30.46823 2.95,51.85 -17.15815,-8.33635 -17.44294,-23.63222 -31.95,-33.225 2.87218,16.27568 -4.04441,49.27894 15.225,80.9 -17.17072,-1.6889 -22.86528,-8.28964 -41.45,-26.1 19.39579,100.47654 33.82553,103.2991 104.95,109 -5.35885,-0.62822 -41.19542,-6.35135 -54.175,-47.65 -0.7367,-10.22603 -1.14114,8.98674 33.325,9.625 -21.82338,-34.56223 -15.87805,-28.01975 -13.325,-48.125 9.03412,13.75955 1.11952,14.96281 26.65,25.175 -8.09458,-25.71757 12.49283,-43.31495 8.025,-72.675 5.64126,12.89433 25.70739,10.86359 24.75,72.775 16.61468,-18.53622 18.59672,-5.70648 26.575,-26.45 0.4621,11.54841 5.53074,25.92763 -17.05,49.6 5.74436,1.59566 15.36258,2.83132 31,-7.7 -15.22581,17.25591 -1.46495,17.66285 -39.975,45.9 48.50791,0.63826 80.36745,-29.8973 79.225,-97 -1.27652,5.74436 -2.70626,17.21456 -28.875,20.725 16.39193,-16.28826 24.93437,-48.718 11.85,-75.525 -4.60683,4.28458 -11.76693,24.20564 -29,29.95 8.74108,-14.34086 6.775,-32.9 6.775,-32.9 0,0 2.23002,-25.06599 -12.575,-44.425 -4.1487,30.31744 -3.80214,45.56304 -22.95,50.35 3.08144,-17.89314 3.64893,-26.22562 -5.925,-46.65 -9.99948,-21.33221 -21.57782,-42.32714 -24.45,-61.475 z m -80.1,273.8 v 8.775 8.8 h 85.375 85.375 l -0.025,-8.775 -0.025,-8.75 -85.32508,-0.025 z"
     inkscape:connector-curvature="0" />
</svg>
