<?xml version="1.0" encoding="UTF-8" standalone="no"?>
<svg
   version="1.1"
   width="409"
   height="359.96024"
   style="clip-rule:evenodd;fill-rule:evenodd;image-rendering:optimizeQuality;shape-rendering:geometricPrecision;text-rendering:geometricPrecision"
   id="svg166"
   sodipodi:docname="fyrvaerkeri.svg"
   inkscape:version="1.1 (c68e22c387, 2021-05-23)"
   xmlns:inkscape="http://www.inkscape.org/namespaces/inkscape"
   xmlns:sodipodi="http://sodipodi.sourceforge.net/DTD/sodipodi-0.dtd"
   xmlns="http://www.w3.org/2000/svg"
   xmlns:svg="http://www.w3.org/2000/svg">
  <defs
     id="defs170" />
  <sodipodi:namedview
     id="namedview168"
     pagecolor="#ffffff"
     bordercolor="#666666"
     borderopacity="1.0"
     inkscape:pageshadow="2"
     inkscape:pageopacity="0.0"
     inkscape:pagecheckerboard="0"
     showgrid="false"
     fit-margin-top="0"
     fit-margin-left="0"
     fit-margin-right="0"
     fit-margin-bottom="0"
     inkscape:zoom="0.5477773"
     inkscape:cx="686.41033"
     inkscape:cy="219.97991"
     inkscape:window-width="1920"
     inkscape:window-height="1017"
     inkscape:window-x="1912"
     inkscape:window-y="-8"
     inkscape:window-maximized="1"
     inkscape:current-layer="svg166" />
  <g
     id="g8"
     transform="translate(0.5,-10.540025)">
    <path
       style="opacity:1"
       fill="#020201"
       d="m 408.5,346.5 c 0,3 0,6 0,9 -2.118,7.615 -7.118,12.449 -15,14.5 -126.667,0.667 -253.333,0.667 -380,0 -6.98737,-2.182 -11.65403,-6.682 -14,-13.5 0,-3 0,-6 0,-9 62.5398,-109.402 125.373,-218.735 188.5,-328 1.597,-2.7192 3.763,-4.8859 6.5,-6.5 10.345,-4.76986 18.845,-2.6032 25.5,6.5 62.874,109.095 125.707,218.095 188.5,327 z"
       id="path6" />
  </g>
  <g
     id="g12"
     transform="translate(0.5,-10.540025)">
    <path
       style="opacity:1"
       fill="#eee42c"
       d="m 367.5,336.5 c -109,0 -218,0 -327,0 54.4883,-94.306 108.988,-188.639 163.5,-283 55.017,94.034 109.517,188.367 163.5,283 z"
       id="path10" />
  </g>
  <g
     id="g148"
     transform="translate(0.5,-10.540025)" />
  <g
     id="g948"
     style="clip-rule:evenodd;fill-rule:evenodd;image-rendering:optimizeQuality;shape-rendering:geometricPrecision;text-rendering:geometricPrecision"
     transform="translate(-56.091949,65.068814)" />
  <g
     id="g1040"
     transform="matrix(0.33271797,0.04455249,-0.04455249,0.33271797,60.430505,120.03948)">
    <g
       id="g144"
       style="clip-rule:evenodd;fill-rule:evenodd;image-rendering:optimizeQuality;shape-rendering:geometricPrecision;text-rendering:geometricPrecision"
       transform="translate(-56.091949,65.068814)">
      <path
         style="opacity:1"
         fill="#010101"
         d="m 703.5,30.5 c -5.001,29.3392 -10.001,58.6725 -15,88 0,1 0,2 0,3 -4.456,24.19 -8.789,48.523 -13,73 0.293,12.771 -5.874,19.771 -18.5,21 -3.5,-0.834 -6.667,-2.334 -9.5,-4.5 C 596.639,160.472 546.139,109.639 496,58.5 c -3.975,-9.266 -1.808,-16.766 6.5,-22.5 23.279,-4.4909 46.613,-8.6576 70,-12.5 38.968,-6.7725 77.968,-13.4392 117,-20 9.659,0.99222 14.992,6.32555 16,16 -0.486,3.7453 -1.152,7.4119 -2,11 z"
         id="path142" />
    </g>
    <path
       style="clip-rule:evenodd;opacity:1;fill-rule:evenodd;image-rendering:optimizeQuality;shape-rendering:geometricPrecision;text-rendering:geometricPrecision"
       fill="#000000"
       d="m 554.5,150.5 c 16.798,17.299 33.798,34.465 51,51.5 -2.871,2.703 -5.538,5.536 -8,8.5 -4.333,3.667 -8.333,7.667 -12,12 -4.343,4.176 -8.843,8.176 -13.5,12 -5.485,-2.106 -10.985,-4.106 -16.5,-6 -24.39,-9.853 -49.057,-19.187 -74,-28 -10.101,-4.371 -20.434,-8.371 -31,-12 -6.641,-2.719 -13.308,-5.553 -20,-8.5 25.5,-25.5 51,-51 76.5,-76.5 15.701,15.868 31.535,31.535 47.5,47 z"
       id="path946"
       transform="translate(-56.091949,65.068814)" />
    <g
       id="g2268"
       style="clip-rule:evenodd;fill-rule:evenodd;image-rendering:optimizeQuality;shape-rendering:geometricPrecision;text-rendering:geometricPrecision"
       transform="translate(-56.091949,65.068814)">
      <path
         style="opacity:1"
         fill="#000000"
         d="m 341.5,268.5 c 12.59,4.863 25.256,9.53 38,14 34.862,13.57 69.862,27.07 105,40.5 -2.539,2.37 -4.872,4.87 -7,7.5 -4.333,3.667 -8.333,7.667 -12,12 -1.333,0.667 -2.333,1.667 -3,3 -4.333,3.667 -8.333,7.667 -12,12 -1.333,0.667 -2.333,1.667 -3,3 -4.333,3.667 -8.333,7.667 -12,12 -1.333,0.667 -2.333,1.667 -3,3 -4.439,5.599 -10.106,9.432 -17,11.5 -3.333,0.667 -6.667,0.667 -10,0 -3.021,-1.18 -6.021,-2.346 -9,-3.5 -7.464,-7.965 -15.131,-15.798 -23,-23.5 -0.667,-0.667 -1.333,-0.667 -2,0 -48,48 -96,96 -144,144 -1.693,0.847 -3.36,1.68 -5,2.5 -12.018,2.487 -19.018,-2.346 -21,-14.5 0.365,-3.763 1.532,-7.263 3.5,-10.5 42.035,-41.868 83.868,-83.868 125.5,-126 6.646,-5.979 12.979,-12.312 19,-19 -2.65,-3.151 -5.484,-6.151 -8.5,-9 -23.04,14.342 -47.873,18.509 -74.5,12.5 -11.496,-3.943 -23.163,-7.277 -35,-10 -10,-0.333 -20,-0.667 -30,-1 -3.217,-1.715 -5.55,-4.215 -7,-7.5 -0.493,-2.306 -0.826,-4.639 -1,-7 1.421,-3.258 3.754,-5.758 7,-7.5 15.442,-2.316 30.775,-1.649 46,2 10.227,3.41 20.561,6.41 31,9 16.79,2.88 32.457,0.047 47,-8.5 -4.363,-9.039 -3.696,-17.705 2,-26 5.333,-4.667 10.333,-9.667 15,-15 z"
         id="path2266" />
    </g>
    <path
       style="clip-rule:evenodd;fill-rule:evenodd;image-rendering:optimizeQuality;shape-rendering:geometricPrecision;text-rendering:geometricPrecision"
       fill="#000000"
       d="m 370.40805,272.56881 c 13.083,4.805 26.083,9.805 39,15 28.809,10.603 57.476,21.603 86,33 -4.688,5.02 -9.355,10.02 -14,15 -4.333,3.667 -8.333,7.667 -12,12 -1.333,0.667 -2.333,1.667 -3,3 -4.333,3.667 -8.333,7.667 -12,12 -1.963,1.46 -3.796,3.127 -5.5,5 -47.43,-18.296 -94.93,-36.463 -142.5,-54.5 2.539,-2.37 4.872,-4.87 7,-7.5 13.132,-12.631 26.132,-25.465 39,-38.5 6.217,0.904 12.217,2.737 18,5.5 z"
       id="path1830" />
  </g>
</svg>
