<?xml version="1.0" encoding="UTF-8" standalone="no"?>
<!-- Created with Inkscape (http://www.inkscape.org/) -->

<svg
   version="1.0"
   width="775.60504"
   height="775.54199"
   viewBox="0 0 581.7038 581.65652"
   id="svg8"
   sodipodi:docname="hazard_other_graa.svg"
   inkscape:version="1.1 (c68e22c387, 2021-05-23)"
   inkscape:export-filename="/media/juhele/data_2TB/_GRAFIKA/GHS hazard symbols/GHS07_hazardous_substances.png"
   inkscape:export-xdpi="99.027519"
   inkscape:export-ydpi="99.027519"
   xmlns:inkscape="http://www.inkscape.org/namespaces/inkscape"
   xmlns:sodipodi="http://sodipodi.sourceforge.net/DTD/sodipodi-0.dtd"
   xmlns="http://www.w3.org/2000/svg"
   xmlns:svg="http://www.w3.org/2000/svg"
   xmlns:rdf="http://www.w3.org/1999/02/22-rdf-syntax-ns#"
   xmlns:cc="http://creativecommons.org/ns#"
   xmlns:dc="http://purl.org/dc/elements/1.1/">
  <title
     id="title821">	
Globally Harmonized System of Classification and Labelling of Chemicals (GHS) pictogram for hazardous substances</title>
  <metadata
     id="metadata14">
    <rdf:RDF>
      <cc:Work
         rdf:about="">
        <dc:format>image/svg+xml</dc:format>
        <dc:type
           rdf:resource="http://purl.org/dc/dcmitype/StillImage" />
        <dc:title>	
Globally Harmonized System of Classification and Labelling of Chemicals (GHS) pictogram for hazardous substances</dc:title>
        <dc:description>Official hazard symbols according to directive (EC) No 1272/2008 by the European Chemicals Bureau 
The Globally Harmonized System of Classification and Labelling of Chemicals (GHS) is an internationally agreed-upon standard managed by the United Nations that was set up to replace the assortment of hazardous material classification and labelling schemes previously used around the world.
https://en.wikipedia.org/wiki/Globally_Harmonized_System_of_Classification_and_Labelling_of_Chemicals

symbols (Public Domain)
https://commons.wikimedia.org/wiki/GHS_hazard_symbols</dc:description>
        <dc:source>EPS file exclam.eps from UNECE web site converted with ImageMagick convert and with potrace, edited in inkscape</dc:source>
        <dc:subject>
          <rdf:Bag>
            <rdf:li>GHS</rdf:li>
            <rdf:li>explosive</rdf:li>
            <rdf:li>flammable</rdf:li>
            <rdf:li>gas</rdf:li>
            <rdf:li>corrosive</rdf:li>
            <rdf:li>acid</rdf:li>
            <rdf:li>harmful</rdf:li>
            <rdf:li>health</rdf:li>
            <rdf:li>pollution</rdf:li>
            <rdf:li>contamination</rdf:li>
            <rdf:li>nature</rdf:li>
            <rdf:li>toxic</rdf:li>
            <rdf:li>hazard</rdf:li>
            <rdf:li>warning</rdf:li>
            <rdf:li>label</rdf:li>
            <rdf:li>chemical</rdf:li>
            <rdf:li>pictogram</rdf:li>
            <rdf:li>symbol</rdf:li>
            <rdf:li>danger</rdf:li>
          </rdf:Bag>
        </dc:subject>
        <cc:license
           rdf:resource="http://creativecommons.org/publicdomain/zero/1.0/" />
      </cc:Work>
      <cc:License
         rdf:about="http://creativecommons.org/publicdomain/zero/1.0/">
        <cc:permits
           rdf:resource="http://creativecommons.org/ns#Reproduction" />
        <cc:permits
           rdf:resource="http://creativecommons.org/ns#Distribution" />
        <cc:permits
           rdf:resource="http://creativecommons.org/ns#DerivativeWorks" />
      </cc:License>
    </rdf:RDF>
  </metadata>
  <defs
     id="defs12" />
  <sodipodi:namedview
     pagecolor="#ffffff"
     bordercolor="#666666"
     borderopacity="1"
     objecttolerance="10"
     gridtolerance="10"
     guidetolerance="10"
     inkscape:pageopacity="0"
     inkscape:pageshadow="2"
     inkscape:window-width="1920"
     inkscape:window-height="1017"
     id="namedview10"
     showgrid="false"
     units="px"
     fit-margin-top="10"
     fit-margin-left="10"
     fit-margin-bottom="10"
     fit-margin-right="10"
     inkscape:zoom="0.8646487"
     inkscape:cx="475.33756"
     inkscape:cy="455.09812"
     inkscape:window-x="1912"
     inkscape:window-y="-8"
     inkscape:window-maximized="1"
     inkscape:current-layer="svg8"
     inkscape:pagecheckerboard="0" />
  <path
     id="path819"
     style="fill:#ffffff;stroke:none"
     d="M 26.465769,288.62709 290.49447,552.65581 554.56721,288.58307 C 466.51482,200.63107 378.63642,112.50479 290.5385,24.598397 Z"
     inkscape:connector-curvature="0" />
  <path
     id="path821"
     style="fill:#707070;stroke:none;stroke-opacity:1;fill-opacity:1"
     d="M 7.1646037,288.6271 290.49287,571.95537 573.86838,288.57986 290.54011,5.2988428 Z M 528.98563,288.57986 290.49287,527.06317 52.113497,288.56096 290.54011,50.181593 Z"
     inkscape:connector-curvature="0" />
  <path
     id="path823"
     style="fill:#707070;stroke:none;fill-opacity:1"
     d="m 290.3396,141.78037 c -0.87285,0.009 -1.58484,0.0311 -1.925,0.05 -12.3593,0.85041 -23.29003,5.21838 -30.15,12.05 -2.18272,2.17327 -3.56553,4.05882 -4.775,6.525 -0.85041,1.72917 -1.28149,3.03028 -1.65,4.75 -0.23623,1.12443 -0.275,1.37063 -0.275,3.525 0,2.08823 0.0232,2.43718 0.25,3.675 0.24567,1.37955 19.50097,131.43008 19.775,133.575 0.18898,1.49294 0.70196,3.461 1.25,4.85 2.86305,7.22848 9.1847,12.28836 16.725,13.375 1.41735,0.20787 4.50765,0.20787 5.925,0 9.32616,-1.34176 16.75607,-8.88604 17.975,-18.25 0.34016,-2.61738 19.52933,-132.36494 19.775,-133.65 0.21733,-1.22837 0.225,-1.5785 0.225,-3.525 0,-2.2772 -0.0654,-3.09367 -0.5,-4.7 -0.73702,-2.70241 -2.19741,-5.50606 -4.125,-7.925 -1.53074,-1.9276 -4.03106,-4.19918 -6.45,-5.9 -5.44262,-3.81739 -13.01245,-6.69447 -20.6,-7.8 -3.40164,-0.49135 -4.61922,-0.5872 -8.55,-0.625 -0.98742,-0.009 -2.02715,-0.009 -2.9,0 z m 2.1,201.125 c -0.49666,-0.002 -0.96909,0.006 -1.425,0.025 -7.50251,0.32126 -14.60954,3.51565 -20.175,9.1 -1.68193,1.68193 -2.75214,2.96571 -4.075,4.95 -3.07093,4.62056 -4.70293,9.10599 -5.525,15.125 -0.16063,1.20947 -0.17008,6.68324 0,8.025 0.81262,6.6143 3.23418,12.48868 7.25,17.525 0.97325,1.22837 2.94997,3.27006 4.15,4.3 3.62841,3.10872 8.00622,5.42892 12.4,6.525 2.8725,0.71812 4.36628,0.9 7.475,0.9 3.06148,0 4.61313,-0.19468 7.325,-0.875 7.38911,-1.84256 14.03732,-6.60125 18.45,-13.225 3.25046,-4.89459 5.1242,-10.31543 5.625,-16.325 0.13229,-1.61577 0.0484,-5.70765 -0.15,-7.125 -0.55749,-4.11032 -1.55253,-7.45111 -3.225,-10.9 -4.71506,-9.68522 -13.70453,-16.3921 -23.9,-17.8 -1.11262,-0.14882 -2.71001,-0.22102 -4.2,-0.225 z"
     inkscape:connector-curvature="0" />
</svg>
