<?xml version="1.0" encoding="UTF-8" standalone="no"?>
<svg
   version="1.1"
   width="409"
   height="359.96024"
   style="clip-rule:evenodd;fill-rule:evenodd;image-rendering:optimizeQuality;shape-rendering:geometricPrecision;text-rendering:geometricPrecision"
   id="svg166"
   sodipodi:docname="kemikalie.svg"
   inkscape:version="1.1 (c68e22c387, 2021-05-23)"
   xmlns:inkscape="http://www.inkscape.org/namespaces/inkscape"
   xmlns:sodipodi="http://sodipodi.sourceforge.net/DTD/sodipodi-0.dtd"
   xmlns="http://www.w3.org/2000/svg"
   xmlns:svg="http://www.w3.org/2000/svg">
  <defs
     id="defs170" />
  <sodipodi:namedview
     id="namedview168"
     pagecolor="#ffffff"
     bordercolor="#666666"
     borderopacity="1.0"
     inkscape:pageshadow="2"
     inkscape:pageopacity="0.0"
     inkscape:pagecheckerboard="0"
     showgrid="false"
     fit-margin-top="0"
     fit-margin-left="0"
     fit-margin-right="0"
     fit-margin-bottom="0"
     inkscape:zoom="1.0955546"
     inkscape:cx="301.21729"
     inkscape:cy="221.34907"
     inkscape:window-width="1920"
     inkscape:window-height="1017"
     inkscape:window-x="1912"
     inkscape:window-y="-8"
     inkscape:window-maximized="1"
     inkscape:current-layer="svg166" />
  <g
     id="g8"
     transform="translate(0.5,-10.540025)">
    <path
       style="opacity:1"
       fill="#020201"
       d="m 408.5,346.5 c 0,3 0,6 0,9 -2.118,7.615 -7.118,12.449 -15,14.5 -126.667,0.667 -253.333,0.667 -380,0 -6.98737,-2.182 -11.65403,-6.682 -14,-13.5 0,-3 0,-6 0,-9 62.5398,-109.402 125.373,-218.735 188.5,-328 1.597,-2.7192 3.763,-4.8859 6.5,-6.5 10.345,-4.76986 18.845,-2.6032 25.5,6.5 62.874,109.095 125.707,218.095 188.5,327 z"
       id="path6" />
  </g>
  <g
     id="g12"
     transform="translate(0.5,-10.540025)">
    <path
       style="opacity:1"
       fill="#eee42c"
       d="m 367.5,336.5 c -109,0 -218,0 -327,0 54.4883,-94.306 108.988,-188.639 163.5,-283 55.017,94.034 109.517,188.367 163.5,283 z"
       id="path10" />
  </g>
  <g
     id="g20"
     transform="translate(0.5,-10.540025)">
    <path
       style="opacity:1"
       fill="#0c0a04"
       d="m 193.5,149.5 c 28.411,-1.886 48.911,9.78 61.5,35 1.478,7.611 1.812,15.278 1,23 -2.579,6.157 -5.413,12.157 -8.5,18 2.796,7.452 2.629,14.786 -0.5,22 -1.413,1.914 -3.247,3.247 -5.5,4 -1.114,1.223 -1.281,2.556 -0.5,4 8.139,-3.159 16.305,-6.325 24.5,-9.5 5.006,-2.501 9.673,-5.501 14,-9 9.17,-1.024 12.503,2.976 10,12 1.233,2.402 2.233,4.902 3,7.5 -0.885,5.776 -3.885,7.276 -9,4.5 -3,-0.667 -6,-0.667 -9,0 -11.667,4.333 -23.333,8.667 -35,13 -2.267,2.728 -2.934,5.728 -2,9 10,4.667 20,9.333 30,14 3.667,-0.333 7.333,-0.667 11,-1 3.964,3.903 3.797,7.736 -0.5,11.5 -0.238,3.722 -0.738,7.389 -1.5,11 -3.485,3.795 -7.151,3.962 -11,0.5 -2.371,-2.706 -5.037,-5.039 -8,-7 -9.364,-4.682 -18.698,-9.349 -28,-14 -4.166,0.244 -7.833,1.911 -11,5 -14.765,6.145 -28.098,3.978 -40,-6.5 -15.445,5.882 -29.445,14.049 -42,24.5 -4.884,1.141 -8.05,-0.692 -9.5,-5.5 -0.333,-3 -0.667,-6 -1,-9 -2.415,-2.532 -3.081,-5.532 -2,-9 3.439,-2.518 6.939,-2.518 10.5,0 11.938,-4.305 23.271,-9.638 34,-16 -0.808,-2.425 -1.808,-4.758 -3,-7 -12.116,-4.205 -24.116,-8.705 -36,-13.5 -5.188,-0.529 -10.188,-0.196 -15,1 -3.631,-3.434 -3.797,-6.934 -0.5,-10.5 0.333,-4 0.667,-8 1,-12 2.21,-2.79 5.044,-3.623 8.5,-2.5 12.658,8.328 26.325,14.494 41,18.5 0.149,-1.052 -0.017,-2.052 -0.5,-3 -8.077,-5.176 -10.744,-12.509 -8,-22 0.422,-1.855 0.922,-3.689 1.5,-5.5 -14.913,-21.95 -12.913,-42.283 6,-61 8.913,-7.24 18.913,-12.073 30,-14.5 z"
       id="path18" />
  </g>
  <g
     id="g24"
     transform="translate(0.5,-10.540025)">
    <path
       style="opacity:1"
       fill="#ece32c"
       d="m 158.5,209.5 c 0.284,1.915 -0.049,3.581 -1,5 -8.278,-20.673 -3.278,-37.507 15,-50.5 26.865,-14.685 50.699,-10.852 71.5,11.5 9.052,12.991 9.719,26.324 2,40 0.669,-8.672 1.336,-17.339 2,-26 -1.123,-2.749 -2.623,-5.249 -4.5,-7.5 -1.496,-0.507 -2.663,-0.007 -3.5,1.5 1.653,3.706 2.486,7.706 2.5,12 -2.722,11.404 -2.555,22.737 0.5,34 0.667,4.667 0.667,9.333 0,14 -4.179,2.757 -8.179,5.757 -12,9 -2.279,3.474 -4.112,7.14 -5.5,11 -15.554,6.472 -31.221,6.639 -47,0.5 -2.193,-9.201 -7.693,-15.701 -16.5,-19.5 -0.935,-2.409 -1.435,-4.909 -1.5,-7.5 1.655,-8.285 2.988,-16.618 4,-25 -0.289,-5.65 -1.289,-11.15 -3,-16.5 0.975,-4.391 1.808,-8.724 2.5,-13 -1.049,-1.017 -2.216,-1.184 -3.5,-0.5 -1.294,2.087 -2.461,4.254 -3.5,6.5 -0.554,7.073 -0.054,14.073 1.5,21 z"
       id="path22" />
  </g>
  <g
     id="g32"
     transform="translate(0.5,-10.540025)">
    <path
       style="opacity:1"
       fill="#060502"
       d="m 217.5,212.5 c 20.23,0.292 24.23,8.459 12,24.5 -3.697,1.899 -7.364,1.899 -11,0 -6.55,-4.929 -9.383,-11.429 -8.5,-19.5 1.913,-2.78 4.413,-4.447 7.5,-5 z"
       id="path30" />
  </g>
  <g
     id="g36"
     transform="translate(0.5,-10.540025)">
    <path
       style="opacity:1"
       fill="#060402"
       d="m 176.5,212.5 c 17.829,-2.053 22.662,4.614 14.5,20 -10.392,9.558 -17.726,7.558 -22,-6 -1.548,-6.928 0.952,-11.595 7.5,-14 z"
       id="path34" />
  </g>
  <g
     id="g40"
     transform="translate(0.5,-10.540025)">
    <path
       style="opacity:1"
       fill="#010002"
       d="m 200.5,231.5 c 2.155,-0.128 4.155,0.372 6,1.5 4.726,6.402 6.559,13.569 5.5,21.5 -2.666,3.504 -5.666,3.838 -9,1 -3.724,2.89 -7.057,2.556 -10,-1 -0.991,-8.858 1.509,-16.525 7.5,-23 z"
       id="path38" />
  </g>
  <g
     id="g44"
     transform="translate(0.5,-10.540025)">
    <path
       style="opacity:1"
       fill="#e7de30"
       d="m 281.5,240.5 c 1.322,-0.17 2.489,0.163 3.5,1 -1.612,5.67 -0.445,10.67 3.5,15 -1.455,1.245 -2.789,1.078 -4,-0.5 -3,-0.667 -6,-0.667 -9,0 -11.928,4.308 -23.761,8.808 -35.5,13.5 -0.821,-3.054 -0.655,-6.054 0.5,-9 13.072,-4.633 25.739,-10.133 38,-16.5 1.21,-1.039 2.21,-2.206 3,-3.5 z"
       id="path42" />
  </g>
  <g
     id="g48"
     transform="translate(0.5,-10.540025)">
    <path
       style="opacity:1"
       fill="#e7de2f"
       d="m 119.5,240.5 c 13.808,8.232 28.474,14.898 44,20 1.155,2.946 1.321,5.946 0.5,9 -11.739,-4.692 -23.572,-9.192 -35.5,-13.5 -3.944,-0.99 -7.611,-0.49 -11,1.5 -0.333,-0.333 -0.667,-0.667 -1,-1 1.423,-2.343 2.423,-4.843 3,-7.5 -1.158,-2.897 -1.158,-5.73 0,-8.5 z"
       id="path46" />
  </g>
  <g
     id="g52"
     transform="translate(0.5,-10.540025)">
    <path
       style="opacity:1"
       fill="#eae02e"
       d="m 169.5,257.5 c 2.872,4.466 4.372,9.466 4.5,15 18.768,17.27 37.602,17.27 56.5,0 0.554,-4.838 1.72,-9.505 3.5,-14 1.156,14.849 -3.678,27.349 -14.5,37.5 -18.597,9.47 -33.43,5.303 -44.5,-12.5 -3.735,-8.273 -5.568,-16.939 -5.5,-26 z"
       id="path50" />
  </g>
  <g
     id="g56"
     transform="translate(0.5,-10.540025)">
    <path
       style="opacity:1"
       fill="#e9e030"
       d="m 167.5,287.5 c 3.693,-0.314 6.027,1.352 7,5 -8.444,4.723 -17.11,9.223 -26,13.5 -4.874,2.607 -9.208,5.94 -13,10 -1.284,0.684 -2.451,0.517 -3.5,-0.5 -0.333,-3.333 -0.667,-6.667 -1,-10 -1.337,-1.404 -2.503,-2.904 -3.5,-4.5 0.333,-0.5 0.667,-1 1,-1.5 4.143,2.354 8.477,2.521 13,0.5 8.88,-3.941 17.546,-8.108 26,-12.5 z"
       id="path54" />
  </g>
  <g
     id="g60"
     transform="translate(0.5,-10.540025)">
    <path
       style="opacity:1"
       fill="#e8de31"
       d="m 233.5,287.5 c 1.373,-0.157 2.707,0.01 4,0.5 9.548,4.608 19.215,8.941 29,13 3.416,0.893 6.583,0.393 9.5,-1.5 0.722,2.161 0.055,3.828 -2,5 -0.333,3.667 -0.667,7.333 -1,11 -1.868,1.172 -3.702,1.005 -5.5,-0.5 -2.371,-2.706 -5.037,-5.039 -8,-7 -9.988,-4.659 -19.654,-9.826 -29,-15.5 1.263,-1.529 2.263,-3.195 3,-5 z"
       id="path58" />
  </g>
  <g
     id="g148"
     transform="translate(0.5,-10.540025)" />
</svg>
