<?xml version="1.0" encoding="UTF-8" standalone="no"?>
<!-- Created with Inkscape (http://www.inkscape.org/) -->

<svg
   version="1.0"
   width="775.60504"
   height="775.54199"
   viewBox="0 0 581.7038 581.65652"
   id="svg8"
   sodipodi:docname="kulturskat.svg"
   inkscape:version="1.1 (c68e22c387, 2021-05-23)"
   inkscape:export-filename="/media/juhele/data_2TB/_GRAFIKA/GHS hazard symbols/GHS02_flammable_substances.png"
   inkscape:export-xdpi="99.027519"
   inkscape:export-ydpi="99.027519"
   xmlns:inkscape="http://www.inkscape.org/namespaces/inkscape"
   xmlns:sodipodi="http://sodipodi.sourceforge.net/DTD/sodipodi-0.dtd"
   xmlns="http://www.w3.org/2000/svg"
   xmlns:svg="http://www.w3.org/2000/svg"
   xmlns:rdf="http://www.w3.org/1999/02/22-rdf-syntax-ns#"
   xmlns:cc="http://creativecommons.org/ns#"
   xmlns:dc="http://purl.org/dc/elements/1.1/">
  <title
     id="title821">Globally Harmonized System of Classification and Labelling of Chemicals (GHS) pictogram for flammable substances</title>
  <metadata
     id="metadata14">
    <rdf:RDF>
      <cc:Work
         rdf:about="">
        <dc:format>image/svg+xml</dc:format>
        <dc:type
           rdf:resource="http://purl.org/dc/dcmitype/StillImage" />
        <dc:title>Globally Harmonized System of Classification and Labelling of Chemicals (GHS) pictogram for flammable substances</dc:title>
        <dc:description>Official hazard symbols according to directive (EC) No 1272/2008 by the European Chemicals Bureau 
The Globally Harmonized System of Classification and Labelling of Chemicals (GHS) is an internationally agreed-upon standard managed by the United Nations that was set up to replace the assortment of hazardous material classification and labelling schemes previously used around the world.
https://en.wikipedia.org/wiki/Globally_Harmonized_System_of_Classification_and_Labelling_of_Chemicals

symbols (Public Domain)
https://commons.wikimedia.org/wiki/GHS_hazard_symbols</dc:description>
        <dc:source>EPS file flamme.eps from UNECE web site converted with ImageMagick convert and with potrace, edited and flame redrawn in inkscape</dc:source>
        <dc:subject>
          <rdf:Bag>
            <rdf:li>GHS</rdf:li>
            <rdf:li>explosive</rdf:li>
            <rdf:li>flammable</rdf:li>
            <rdf:li>gas</rdf:li>
            <rdf:li>corrosive</rdf:li>
            <rdf:li>acid</rdf:li>
            <rdf:li>harmful</rdf:li>
            <rdf:li>health</rdf:li>
            <rdf:li>pollution</rdf:li>
            <rdf:li>contamination</rdf:li>
            <rdf:li>nature</rdf:li>
            <rdf:li>toxic</rdf:li>
            <rdf:li>hazard</rdf:li>
            <rdf:li>warning</rdf:li>
            <rdf:li>label</rdf:li>
            <rdf:li>chemical</rdf:li>
            <rdf:li>pictogram</rdf:li>
            <rdf:li>symbol</rdf:li>
            <rdf:li>danger</rdf:li>
          </rdf:Bag>
        </dc:subject>
        <cc:license
           rdf:resource="http://creativecommons.org/publicdomain/zero/1.0/" />
      </cc:Work>
      <cc:License
         rdf:about="http://creativecommons.org/publicdomain/zero/1.0/">
        <cc:permits
           rdf:resource="http://creativecommons.org/ns#Reproduction" />
        <cc:permits
           rdf:resource="http://creativecommons.org/ns#Distribution" />
        <cc:permits
           rdf:resource="http://creativecommons.org/ns#DerivativeWorks" />
      </cc:License>
    </rdf:RDF>
  </metadata>
  <defs
     id="defs12" />
  <sodipodi:namedview
     pagecolor="#ffffff"
     bordercolor="#666666"
     borderopacity="1"
     objecttolerance="10"
     gridtolerance="10"
     guidetolerance="10"
     inkscape:pageopacity="0"
     inkscape:pageshadow="2"
     inkscape:window-width="1920"
     inkscape:window-height="1017"
     id="namedview10"
     showgrid="false"
     units="px"
     fit-margin-top="10"
     fit-margin-left="10"
     fit-margin-bottom="10"
     fit-margin-right="10"
     inkscape:zoom="0.61139896"
     inkscape:cx="255.15254"
     inkscape:cy="522.57204"
     inkscape:window-x="-8"
     inkscape:window-y="-8"
     inkscape:window-maximized="1"
     inkscape:current-layer="svg8"
     inkscape:pagecheckerboard="0" />
  <path
     id="path815"
     style="fill:#ffffff;stroke:none"
     d="M 26.776165,290.75325 290.80487,554.78197 554.87761,290.70923 C 466.82522,202.75723 378.94682,114.63095 290.8489,26.724555 Z"
     inkscape:connector-curvature="0" />
  <path
     id="path817"
     style="fill:#006680;stroke:none"
     d="M 149.13441,149.09386 7.475,290.75326 149.14386,432.42212 290.80327,574.08153 432.49102,432.39377 574.17878,290.70602 432.53827,149.06551 C 354.64071,71.167955 290.87886,7.4250006 290.85051,7.4250006 c -0.0284,0 -63.79965,63.7524034 -141.7161,141.6688594 z M 410.09689,171.50688 529.29603,290.70602 410.04965,409.9524 290.79382,529.20823 171.60413,409.9524 52.414444,290.69657 171.61358,171.49744 C 237.17074,105.94027 290.82216,52.307751 290.85051,52.307751 c 0.0283,0 53.68922,53.641969 119.24638,119.199129 z"
     inkscape:connector-curvature="0" />
  <g
     id="g1058"
     transform="matrix(0.36851801,0,0,0.36851801,219.10401,177.74155)"
     style="fill:#006680">
    <g
       id="g220"
       style="clip-rule:evenodd;fill-rule:evenodd;image-rendering:optimizeQuality;shape-rendering:geometricPrecision;text-rendering:geometricPrecision;fill:#006680"
       transform="matrix(0.75000003,0,0,0.75000003,-153.77398,-88.695256)">
      <path
         style="opacity:1;fill:#006680"
         fill="#000000"
         d="m 451.5,-0.5 c 0.667,0 1.333,0 2,0 18.81,9.90532 37.81,19.572 57,29 8.667,4.3333 17.333,8.6667 26,13 11.333,5.6667 22.667,11.3333 34,17 8.667,4.3333 17.333,8.6667 26,13 11.333,5.6667 22.667,11.3333 34,17 8.667,4.3333 17.333,8.6667 26,13 11.333,5.667 22.667,11.333 34,17 8.667,4.333 17.333,8.667 26,13 11.333,5.667 22.667,11.333 34,17 8.667,4.333 17.333,8.667 26,13 11.333,5.667 22.667,11.333 34,17 8.667,4.333 17.333,8.667 26,13 11.333,5.667 22.667,11.333 34,17 9.484,4.239 18.484,9.239 27,15 1,0.667 2,1.333 3,2 1.746,3.163 3.246,6.496 4.5,10 0.667,16 0.667,32 0,48 -0.665,4.822 -1.832,9.488 -3.5,14 -6.772,9.558 -16.105,14.724 -28,15.5 -281.667,0.667 -563.333,0.667 -845,0 -17.1324,-3.294 -26.79903,-13.461 -29,-30.5 0,-15 0,-30 0,-45 1.74354,-7.266 5.74354,-13.1 12,-17.5 146.883,-73.275 293.549,-146.7745 440,-220.5 z"
         id="path218" />
    </g>
    <g
       id="g1824"
       style="clip-rule:evenodd;fill-rule:evenodd;image-rendering:optimizeQuality;shape-rendering:geometricPrecision;text-rendering:geometricPrecision;fill:#006680"
       transform="matrix(0.75000003,0,0,0.75000003,-153.77398,-88.695256)">
      <path
         style="opacity:1;fill:#006680"
         fill="#000000"
         d="m 278.5,348.5 c 0.167,13.004 0,26.004 -0.5,39 -0.617,5.825 -2.45,11.158 -5.5,16 -7.12,9.613 -16.787,14.279 -29,14 0,100.667 0,201.333 0,302 0,4 0,8 0,12 -46.333,0 -92.667,0 -139,0 0,-104.667 0,-209.333 0,-314 -19.7292,-0.021 -31.3959,-9.688 -35,-29 0,-9 0,-18 0,-27 0,-4.333 0,-8.667 0,-13 69.667,0 139.333,0 209,0 z"
         id="path1822" />
    </g>
    <g
       id="g1832"
       style="clip-rule:evenodd;fill-rule:evenodd;image-rendering:optimizeQuality;shape-rendering:geometricPrecision;text-rendering:geometricPrecision;fill:#006680"
       transform="matrix(0.75000003,0,0,0.75000003,-153.77398,-88.695256)">
      <path
         style="opacity:1;fill:#006680"
         fill="#020202"
         d="m 812.5,416.5 c -3.679,0.224 -7.346,0.558 -11,1 0.333,104.835 -10e-4,209.501 -1,314 -46.333,0 -92.667,0 -139,0 0,-104.667 0,-209.333 0,-314 -6.625,-0.058 -12.959,-1.392 -19,-4 -8.904,-6.475 -14.237,-15.141 -16,-26 0,-13.333 0,-26.667 0,-40 69.667,0 139.333,0 209,0 0.167,14.337 0,28.671 -0.5,43 -2.427,13.248 -9.927,21.915 -22.5,26 z"
         id="path1830" />
    </g>
    <g
       id="g2788"
       style="clip-rule:evenodd;fill-rule:evenodd;image-rendering:optimizeQuality;shape-rendering:geometricPrecision;text-rendering:geometricPrecision;fill:#006680"
       transform="matrix(0.75000003,0,0,0.75000003,-153.77398,-88.695256)">
      <path
         style="opacity:1;fill:#006680"
         fill="#000000"
         d="m 905.5,796.5 c 0,5 0,10 0,15 0.167,22.336 0,44.669 -0.5,67 -0.813,1.936 -1.313,3.936 -1.5,6 -3.485,7.631 -8.818,13.631 -16,18 -3.068,0.522 -6.068,1.355 -9,2.5 -284,0.667 -568,0.667 -852,0 -15.9923,-4.15 -24.99233,-14.316 -27,-30.5 0,-27 0,-54 0,-81 2.14171,-8.952 6.80837,-16.286 14,-22 3.8376,-1.781 7.8376,-3.281 12,-4.5 284,-0.667 568,-0.667 852,0 16.657,2.825 25.991,12.659 28,29.5 z"
         id="path2786" />
    </g>
    <path
       style="clip-rule:evenodd;fill-rule:evenodd;stroke-width:0.75;image-rendering:optimizeQuality;shape-rendering:geometricPrecision;text-rendering:geometricPrecision;fill:#006680"
       fill="#010101"
       d="m 263.60104,201.92976 c -0.9615,9.19425 -5.4615,15.94425 -13.5,20.25 -3.84675,1.46025 -7.8465,2.21025 -12,2.25 0,78.50025 0,156.99975 0,235.50001 -35.00026,0 -69.99976,0 -105.00001,0 0,-78.50026 0,-156.99976 0,-235.50001 -9.80025,0.17625 -17.30025,-3.8235 -22.5,-12 -1.65975,-3.291 -2.6595,-6.7905 -3,-10.5 0,-9.75 0,-19.50001 0,-29.25001 51.99975,0 104.00025,0 156.00001,0 0,9.75 0,19.50001 0,29.25001 z"
       id="path1826" />
  </g>
</svg>
