<?xml version="1.0" encoding="UTF-8" standalone="no"?>
<svg
   version="1.1"
   width="409"
   height="359.96024"
   style="clip-rule:evenodd;fill-rule:evenodd;image-rendering:optimizeQuality;shape-rendering:geometricPrecision;text-rendering:geometricPrecision"
   id="svg166"
   sodipodi:docname="trykflasker.svg"
   inkscape:version="1.1 (c68e22c387, 2021-05-23)"
   xmlns:inkscape="http://www.inkscape.org/namespaces/inkscape"
   xmlns:sodipodi="http://sodipodi.sourceforge.net/DTD/sodipodi-0.dtd"
   xmlns="http://www.w3.org/2000/svg"
   xmlns:svg="http://www.w3.org/2000/svg">
  <defs
     id="defs170" />
  <sodipodi:namedview
     id="namedview168"
     pagecolor="#ffffff"
     bordercolor="#666666"
     borderopacity="1.0"
     inkscape:pageshadow="2"
     inkscape:pageopacity="0.0"
     inkscape:pagecheckerboard="0"
     showgrid="false"
     fit-margin-top="0"
     fit-margin-left="0"
     fit-margin-right="0"
     fit-margin-bottom="0"
     inkscape:zoom="1.0955546"
     inkscape:cx="128.70194"
     inkscape:cy="178.44843"
     inkscape:window-width="1920"
     inkscape:window-height="1017"
     inkscape:window-x="1912"
     inkscape:window-y="-8"
     inkscape:window-maximized="1"
     inkscape:current-layer="svg166" />
  <g
     id="g8"
     transform="translate(0.5,-10.540025)">
    <path
       style="opacity:1"
       fill="#020201"
       d="m 408.5,346.5 c 0,3 0,6 0,9 -2.118,7.615 -7.118,12.449 -15,14.5 -126.667,0.667 -253.333,0.667 -380,0 -6.98737,-2.182 -11.65403,-6.682 -14,-13.5 0,-3 0,-6 0,-9 62.5398,-109.402 125.373,-218.735 188.5,-328 1.597,-2.7192 3.763,-4.8859 6.5,-6.5 10.345,-4.76986 18.845,-2.6032 25.5,6.5 62.874,109.095 125.707,218.095 188.5,327 z"
       id="path6" />
  </g>
  <g
     id="g148"
     transform="translate(0.5,-10.540025)" />
  <g
     id="g948"
     style="clip-rule:evenodd;fill-rule:evenodd;image-rendering:optimizeQuality;shape-rendering:geometricPrecision;text-rendering:geometricPrecision"
     transform="translate(-56.091949,65.068814)" />
  <path
     id="path1"
     d="m 204.04663,36.717992 c -0.606,0.639 -1.401,1.699 -1.767,2.356 -0.365,0.657 -1.066,1.886 -1.557,2.730995 -0.491,0.84401 -1.341,2.316 -1.888,3.26901 -0.547,0.953 -1.386,2.376 -1.863,3.162 -0.477,0.786 -1.113,1.911 -1.413,2.5 -0.301,0.589 -1.109,1.95499 -1.796,3.036 -0.687,1.07999 -1.573,2.607 -1.969,3.393 -0.396,0.785 -1.282,2.31199 -1.969,3.392 -0.687,1.081 -1.497,2.447 -1.799,3.036 -0.653,1.273 -2.018,3.66499 -3.715,6.50699 -1.98,3.318 -2.446,4.14 -3.028,5.344 -0.302,0.625 -0.694,1.225 -0.871,1.334 -0.176,0.11 -0.674,0.884 -1.105,1.721 -0.896,1.74 -1.508,2.821 -3.245,5.73 -0.678,1.136 -1.634,2.767 -2.125,3.624 -2.391,4.174 -2.946,5.131 -3.748,6.454 -0.475,0.786 -1.195,2.072005 -1.598,2.858005 -0.403,0.785 -1.212,2.150999 -1.797,3.034998 -0.585,0.884 -1.394,2.25 -1.797,3.036 -0.403,0.786 -1.123,2.071 -1.598,2.857 -0.802,1.324 -1.357,2.28 -3.748,6.454 -0.491,0.858 -1.447,2.488 -2.125,3.624 -2.01,3.368 -2.438,4.133 -3.181,5.686 -0.388,0.814 -0.883,1.588 -1.098,1.721 -0.216,0.134 -0.638,0.754 -0.939,1.379 -0.525,1.09299 -1.469,2.761 -3.371,5.958 -0.491,0.82499 -1.295,2.19999 -1.786,3.056 -0.491,0.85499 -1.696,2.94 -2.678,4.632 -0.983,1.69301 -2.188,3.784 -2.679,4.647 -0.491,0.864 -1.447,2.5 -2.125,3.63499 -1.832,3.06801 -2.421,4.094 -3.032,5.28 -0.304,0.589 -1.115,1.95501 -1.802,3.035 -0.687,1.081 -1.574,2.607 -1.97,3.393 -0.397,0.786 -1.2,2.152 -1.785,3.036 -0.585,0.884 -1.397,2.25 -1.804,3.036 -0.407,0.785 -1.172,2.165 -1.7,3.065 -3.024,5.154 -4.127,7.047 -5.527,9.487 -0.547,0.953 -1.385,2.376 -1.862,3.162 -0.477,0.786 -1.114,1.911 -1.414,2.5 -0.3,0.589 -1.108,1.95501 -1.795,3.036 -0.687,1.08001 -1.574,2.607 -1.97,3.392 -0.396,0.786 -1.282,2.313 -1.969,3.393 -0.687,1.081 -1.497,2.447 -1.799,3.036 -0.653,1.273 -2.018,3.665 -3.714,6.507 -1.981,3.318 -2.447,4.14 -3.029,5.344 -0.302,0.625 -0.694,1.225 -0.87,1.334 -0.177,0.109 -0.674,0.884 -1.106,1.721 -0.896,1.74001 -1.508,2.82101 -3.244004,5.73 -0.678,1.13601 -1.635,2.767 -2.126,3.62401 -2.391,4.17399 -2.946,5.131 -3.747,6.454 -0.476,0.786 -1.195,2.072 -1.599,2.857 -0.403,0.786 -1.212,2.152 -1.797,3.036 -0.585,0.884 -1.394,2.25 -1.797,3.036 -0.403,0.786 -1.122,2.071 -1.598,2.857 -0.801,1.32401 -1.357,2.28 -3.748,6.45401 -0.491,0.858 -1.447,2.48799 -2.125,3.62399 -2.01,3.368 -2.438,4.13301 -3.18,5.68601 -0.389,0.81299 -0.883,1.58799 -1.099,1.721 -0.216,0.13299 -0.638,0.75399 -0.938,1.37899 -0.526,1.093 -1.47,2.761 -3.372,5.95701 -0.491,0.826 -1.294,2.201 -1.785998,3.056 -0.491,0.85599 -1.696,2.94099 -2.678,4.63299 -0.982,1.692 -2.188,3.784 -2.679,4.647 -0.491,0.864 -1.447,2.5 -2.125,3.635 -1.831,3.068 -2.42,4.094 -3.032,5.279 -0.304,0.59 -1.115,1.956 -1.802,3.036 -0.687,1.081 -1.574,2.607 -1.97,3.393 -0.397,0.786 -1.2,2.152 -1.785,3.036 -0.585,0.884 -1.397,2.25 -1.804,3.035 -0.407,0.786 -1.172,2.166 -1.7,3.066 -3.023,5.154 -4.126,7.047 -5.527,9.487 -0.547,0.953 -1.385,2.376 -1.862,3.162 -0.477,0.785 -1.113,1.91 -1.414,2.5 -0.3,0.589 -1.108,1.955 -1.795,3.035 -0.687,1.081 -1.573,2.608 -1.97,3.393 -0.396,0.786 -1.224,2.232 -1.84,3.215 -2.951,4.704 -3.953,6.75999 -3.804,7.80399 l 0.109,0.767 171.875002,0.09 171.875,0.089 -0.006,-0.982 c -0.003,-0.541 -0.4,-1.626 -0.883,-2.411 -0.482,-0.786 -1.204,-2.072 -1.604,-2.857 -0.4,-0.786 -1.289,-2.313 -1.976,-3.393 -0.688,-1.081 -1.497,-2.447 -1.799,-3.036 -0.653,-1.273 -2.018,-3.665 -3.715,-6.507 -1.831,-3.067 -2.42,-4.093 -3.032,-5.279 -0.304,-0.589 -1.114,-1.955 -1.802,-3.035 -0.687,-1.081 -1.578,-2.608 -1.981,-3.393 -0.403,-0.786 -1.122,-2.072 -1.597,-2.857 -0.476,-0.786 -1.313,-2.209 -1.86,-3.162 -0.547,-0.954 -1.43,-2.481 -1.961,-3.393 -0.531,-0.913 -1.178,-2.061 -1.437,-2.553 -0.259,-0.491 -1.03,-1.822 -1.713,-2.957 -0.683,-1.136 -1.643,-2.767 -2.134,-3.624 -2.391,-4.174 -2.946,-5.131 -3.748,-6.454 -0.475,-0.786 -1.194,-2.072 -1.597,-2.857 -0.403,-0.786 -1.295,-2.313 -1.982,-3.393 -0.687,-1.081 -1.498,-2.447 -1.802,-3.036 -0.611,-1.185 -1.2,-2.211 -3.031,-5.279 -1.697,-2.842 -3.062,-5.234 -3.715,-6.507 -0.302,-0.589 -1.112,-1.955 -1.799,-3.035 -0.687,-1.081 -1.58,-2.608 -1.985,-3.393 -0.847,-1.646 -2.136,-3.917 -3.895,-6.864 -1.707,-2.86 -2.396,-4.061 -2.923,-5.101 -0.249,-0.491 -0.782,-1.375 -1.184,-1.964 -0.792,-1.161 -1.517,-2.412 -2.69,-4.643 -0.413,-0.785 -1.14,-2.071 -1.616,-2.857 -0.476,-0.786 -1.312,-2.208 -1.86,-3.162 -0.547,-0.953 -1.429,-2.48 -1.961,-3.393 -0.531,-0.91199 -1.223,-2.141 -1.537,-2.731 -0.313,-0.58899 -1.12,-1.95499 -1.792,-3.035 -0.672,-1.081 -1.548,-2.607 -1.948,-3.39299 -0.4,-0.786 -1.289,-2.313 -1.976,-3.393 -0.687,-1.08 -1.496,-2.446 -1.799,-3.036 -0.652,-1.273 -2.018,-3.664 -3.714,-6.506 -1.831,-3.068 -2.42,-4.094 -3.032,-5.279 -0.304,-0.59 -1.115,-1.956 -1.802,-3.036 -0.687,-1.08 -1.579,-2.607 -1.982,-3.393 -0.402,-0.786 -1.121,-2.071 -1.597,-2.857 -0.476,-0.786 -1.312,-2.209 -1.86,-3.162 -0.547,-0.954 -1.429,-2.48 -1.96,-3.393 -0.532,-0.913 -1.178,-2.061 -1.437,-2.552 -0.259,-0.491 -1.03,-1.822 -1.713,-2.958 -0.683,-1.136 -1.643,-2.766 -2.135,-3.624 -2.39,-4.174 -2.946,-5.13 -3.747,-6.454 -0.476,-0.786 -1.195,-2.071 -1.597,-2.857 -0.403,-0.786 -1.295,-2.313 -1.982,-3.393 -0.687,-1.08 -1.498,-2.446 -1.802,-3.036 -0.612,-1.185 -1.201,-2.211 -3.032,-5.279 -1.696,-2.842 -3.062,-5.233 -3.714,-6.506 -0.303,-0.59 -1.112,-1.956 -1.799,-3.036 -0.687,-1.08 -1.58,-2.607 -1.985,-3.393 -0.847,-1.645 -2.136,-3.917 -3.896,-6.864 -1.838,-3.081 -2.398,-4.063 -3.213,-5.636 -0.407,-0.786 -1.219,-2.152 -1.804,-3.036 -0.585,-0.884 -1.394,-2.25 -1.797,-3.035 -0.403,-0.786 -1.123,-2.072 -1.598,-2.858 -0.476,-0.785 -1.313,-2.208 -1.86,-3.162 -0.547,-0.953 -1.43,-2.48 -1.961,-3.392 -0.532,-0.913 -1.223,-2.142 -1.537,-2.731 -0.314,-0.59 -1.12,-1.956 -1.792,-3.036 -0.672,-1.08 -1.549,-2.606999 -1.948,-3.392999 -0.4,-0.785999 -1.289,-2.311999 -1.976,-3.393004 -0.687,-1.08 -1.497,-2.446 -1.799,-3.035 -0.653,-1.274 -2.018,-3.665 -3.715,-6.507 -1.838,-3.081 -2.398,-4.063 -3.213,-5.636 -0.407,-0.786 -1.219,-2.152 -1.804,-3.036 -0.585,-0.884 -1.394,-2.25 -1.797,-3.036 -0.403,-0.785 -1.123,-2.071 -1.598,-2.857 -0.476,-0.786 -1.313,-2.20799 -1.86,-3.162 -0.547,-0.953 -1.43,-2.48 -1.961,-3.393 -0.531,-0.912 -1.178,-2.061 -1.437,-2.552 -0.259,-0.491 -1.03,-1.822 -1.712,-2.958 -0.683,-1.135 -1.644,-2.776 -2.135,-3.645 -0.491,-0.869 -1.696,-2.965 -2.679,-4.657 -2.286,-3.94 -3.331,-5.74699 -4.566,-7.899 -0.547,-0.954 -1.38,-2.376995 -1.851,-3.161995 -0.471,-0.786 -1.192,-2.032 -1.602,-2.768 -0.895,-1.609 -0.707,-1.593 -2.049,-0.179 m 54.057,118.801998 c 2.23,0.432 4.303,2.269 5.516,4.889 2.041,4.41 0.856,7.374 -4.919,12.307 -4.763,4.069 -8.248,7.134 -10.629,9.35 -2.12,1.972 -3.655,2.489 -4.392,1.48 -0.268,-0.367 -1.093,-1.31 -1.834,-2.096 -0.741,-0.785 -2.707,-3.116 -4.368,-5.178 -3.941,-4.893 -4.032,-4.514 2.364,-9.892 2.756,-2.319 5.651,-4.809 6.433,-5.534 2.768,-2.567 5.933,-4.932 6.88,-5.14 0.528,-0.116 1.121,-0.26499 1.318,-0.33 0.631,-0.211 2.102,-0.152 3.631,0.144 m -33.986,19.454 c 15.797,2.373 22.15,22.738 10.712,34.339 -0.59,0.597 -2.759,2.505 -4.822,4.238 -2.062,1.734 -3.91,3.344 -4.107,3.579 -0.196,0.23501 -2.607,2.33 -5.357,4.65601 -4.947,4.18399 -9.247,7.92199 -10.711,9.31 -0.415,0.394 -3.399,2.95999 -6.629,5.702 -3.231,2.74099 -6.115,5.247 -6.41,5.56799 -0.295,0.32 -2.625,2.322 -5.179,4.447 -2.553,2.12601 -4.883,4.12801 -5.178,4.44901 -0.295,0.322 -1.58,1.46 -2.857,2.52899 -1.277,1.06901 -2.781,2.392 -3.343,2.93901 -0.562,0.546 -1.606,1.422 -2.321,1.946 -0.716,0.523 -1.542,1.21 -1.836,1.526 -0.295,0.315 -1.581,1.438 -2.857,2.496 -1.277,1.058 -2.483,2.107 -2.679,2.332 -0.196,0.225 -2.607,2.306 -5.357,4.624 -2.75,2.319 -5.161,4.399 -5.357,4.624 -0.197,0.224 -1.563,1.434 -3.036,2.687 -1.473,1.254 -2.759,2.374 -2.857,2.489 -0.098,0.116 -0.971,0.848 -1.939,1.626 -0.968,0.779 -2.118,1.743 -2.556,2.143 -0.438,0.39999 -1.727,1.531 -2.866,2.51299 -1.139,0.98201 -2.399,2.113 -2.801,2.512 -0.402,0.4 -2.82,2.47501 -5.374,4.61201 -2.553,2.137 -4.995,4.221 -5.425,4.63099 -1.721,1.638 -2.979,2.738 -7.416,6.483 -2.544,2.14801 -4.963,4.226 -5.376,4.619 -1.552,1.478 -5.796,5.153 -11.193,9.694 l -5.579,4.693 -1.077,-0.905 c -0.592,-0.49799 -2.523001,-2.692 -4.291004,-4.877 -3.663,-4.527 -4.413,-5.423 -5.216,-6.238 -0.315,-0.32 -1.907,-2.269 -3.536,-4.331 -1.63,-2.063 -3.3,-4.092 -3.713,-4.51 -1.034,-1.048 -3.851,-4.36 -4.486,-5.274 -0.287,-0.413 -1.231,-1.626 -2.097,-2.694 l -1.575,-1.942 1.576,-1.451 c 3.345,-3.08 4.9,-4.442 9.572,-8.381 2.658,-2.241 4.993,-4.264 5.189,-4.496 0.197,-0.232 2.447,-2.16 5,-4.284 2.554004,-2.124 4.884004,-4.124 5.179004,-4.445 0.295,-0.32 2.786,-2.488 5.536,-4.817 4.974,-4.214 9.268,-7.948 10.71,-9.316 0.416,-0.394 3.399,-2.957 6.63,-5.696 3.231,-2.738 6.035,-5.165 6.231,-5.392 0.196,-0.228 2.527,-2.228 5.179,-4.445 2.651,-2.217 4.982,-4.213 5.178,-4.437 0.197,-0.223 1.563,-1.431 3.036,-2.685 1.473,-1.253 2.759,-2.374 2.857,-2.49 0.098,-0.116 1.304,-1.124 2.679,-2.24 1.375,-1.116 3.076,-2.562 3.78,-3.213 2.353,-2.179 6.176,-5.512 11.22,-9.784 2.75,-2.329 5.241,-4.497 5.535,-4.817 0.295,-0.321 2.625,-2.322 5.179,-4.447 2.553,-2.126 4.884,-4.127 5.178,-4.449 0.295,-0.32101 1.581,-1.45101 2.858,-2.509 1.276,-1.059 2.562,-2.183 2.857,-2.49701 0.294,-0.314 1.339,-1.193 2.321,-1.954 0.982,-0.76 1.947,-1.561 2.143,-1.78 0.196,-0.219 1.563,-1.426 3.036,-2.683 1.473,-1.256 2.839,-2.472 3.035,-2.701 3.94,-4.592 13.826,-11.12799 17.858,-11.804 3.397,-0.571 3.488,-0.571 7.145,-0.022"
     stroke="none"
     fill="#fbf304"
     fill-rule="evenodd" />
</svg>
