<?xml version="1.0" encoding="UTF-8" standalone="no"?>
<!-- Created with Inkscape (http://www.inkscape.org/) -->

<svg
   width="6.0007539mm"
   height="6.0007596mm"
   viewBox="0 0 6.0007539 6.0007596"
   version="1.1"
   id="svg8622"
   inkscape:version="1.1 (c68e22c387, 2021-05-23)"
   sodipodi:docname="aba_undercen.svg"
   xmlns:inkscape="http://www.inkscape.org/namespaces/inkscape"
   xmlns:sodipodi="http://sodipodi.sourceforge.net/DTD/sodipodi-0.dtd"
   xmlns="http://www.w3.org/2000/svg"
   xmlns:svg="http://www.w3.org/2000/svg">
  <sodipodi:namedview
     id="namedview8624"
     pagecolor="#ffffff"
     bordercolor="#666666"
     borderopacity="1.0"
     inkscape:pageshadow="2"
     inkscape:pageopacity="0.0"
     inkscape:pagecheckerboard="0"
     inkscape:document-units="mm"
     showgrid="false"
     fit-margin-top="0"
     fit-margin-left="0"
     fit-margin-right="0"
     fit-margin-bottom="0"
     inkscape:zoom="7.2496663"
     inkscape:cx="3.0346224"
     inkscape:cy="10.138398"
     inkscape:window-width="1920"
     inkscape:window-height="1017"
     inkscape:window-x="-8"
     inkscape:window-y="-8"
     inkscape:window-maximized="1"
     inkscape:current-layer="layer1" />
  <defs
     id="defs8619" />
  <g
     inkscape:label="Lag 1"
     inkscape:groupmode="layer"
     id="layer1"
     transform="translate(-86.956352,-123.72438)">
    <rect
       class="cls-3"
       x="86.956352"
       y="123.72438"
       width="6.0007501"
       height="6.0007501"
       id="rect3594"
       style="fill:#ffffff;stroke-width:0.264583" />
    <path
       class="cls-15"
       d="m 89.424192,127.26786 v -1.38378 h 0.529167 a 0.61912499,0.61912499 0 0 1 0.264583,0.0423 0.30691666,0.30691666 0 0 1 0.148167,0.12964 0.33602083,0.33602083 0 0 1 0.05556,0.18257 0.32014583,0.32014583 0 0 1 -0.04762,0.16668 0.34395833,0.34395833 0 0 1 -0.145521,0.127 0.36777083,0.36777083 0 0 1 0.193146,0.12436 0.333375,0.333375 0 0 1 0.06615,0.20902 0.41804166,0.41804166 0 0 1 -0.03969,0.18256 0.33602083,0.33602083 0 0 1 -0.103187,0.127 0.396875,0.396875 0 0 1 -0.150813,0.0688 0.89164582,0.89164582 0 0 1 -0.22225,0.0238 z m 0.182562,-0.79375 h 0.306917 a 0.69320832,0.69320832 0 0 0 0.174625,-0.0159 0.1984375,0.1984375 0 0 0 0.103188,-0.0688 0.206375,0.206375 0 0 0 0.03704,-0.12171 0.21166666,0.21166666 0 0 0 -0.0344,-0.12171 0.1666875,0.1666875 0 0 0 -0.0926,-0.0714 0.79374999,0.79374999 0 0 0 -0.211666,-0.0185 h -0.264583 z m 0,0.63764 h 0.346605 0.124354 a 0.35454166,0.35454166 0 0 0 0.105833,-0.037 0.20372916,0.20372916 0 0 0 0.06879,-0.0794 0.2301875,0.2301875 0 0 0 0.0291,-0.11641 0.238125,0.238125 0 0 0 -0.03969,-0.13494 0.21695833,0.21695833 0 0 0 -0.111125,-0.0794 0.66674999,0.66674999 0 0 0 -0.203729,-0.0238 h -0.320146 z"
       id="path3638"
       style="fill:#030303;stroke-width:0.264583" />
    <polygon
       class="cls-14"
       points="42.78,1264.45 43.53,1264.45 43.53,1263.7 45.36,1263.7 45.36,1266.28 42.78,1266.28 "
       id="polygon3596"
       style="fill:#bc2231"
       transform="matrix(0.26458333,0,0,0.26458333,80.955606,-205.31144)" />
    <path
       class="cls-14"
       d="m 91.345793,129.72514 h -0.926042 v -0.48154 h 0.926042 z m -1.852083,0 h -0.928688 v -0.48154 h 0.928688 z"
       id="path3598"
       style="fill:#bc2231;stroke-width:0.264583" />
    <polygon
       class="cls-14"
       points="22.68,1263.7 24.5,1263.7 24.5,1264.45 25.26,1264.45 25.26,1266.28 22.68,1266.28 "
       id="polygon3600"
       style="fill:#bc2231"
       transform="matrix(0.26458333,0,0,0.26458333,80.955606,-205.31144)" />
    <path
       class="cls-14"
       d="m 87.437897,128.11648 h -0.473604 v -0.92869 h 0.481542 z m 0,-1.85209 h -0.473604 v -0.92604 h 0.481542 z"
       id="path3602"
       style="fill:#bc2231;stroke-width:0.264583" />
    <polygon
       class="cls-14"
       points="22.68,1243.6 25.26,1243.6 25.26,1245.42 24.5,1245.42 24.5,1246.18 22.68,1246.18 "
       id="polygon3604"
       style="fill:#bc2231"
       transform="matrix(0.26458333,0,0,0.26458333,80.955606,-205.31144)" />
    <path
       class="cls-14"
       d="m 91.345793,124.20858 h -0.926042 v -0.48419 h 0.926042 z m -1.852083,0 h -0.928688 v -0.48419 h 0.928688 z"
       id="path3606"
       style="fill:#bc2231;stroke-width:0.264583" />
    <polygon
       class="cls-14"
       points="43.53,1245.42 42.78,1245.42 42.78,1243.6 45.36,1243.6 45.36,1246.18 43.53,1246.18 "
       id="polygon3608"
       style="fill:#bc2231"
       transform="matrix(0.26458333,0,0,0.26458333,80.955606,-205.31144)" />
    <path
       class="cls-14"
       d="m 92.957106,128.11648 h -0.484188 v -0.92869 h 0.484188 z m 0,-1.85209 h -0.484188 v -0.92604 h 0.484188 z"
       id="path3610"
       style="fill:#bc2231;stroke-width:0.264583" />
    <path
       class="cls-15"
       d="m 87.94336,127.26736 0.529167,-1.38376 h 0.198437 l 0.566209,1.38376 h -0.209021 l -0.161396,-0.41804 h -0.587375 l -0.150812,0.41804 z m 0.399521,-0.56884 h 0.465667 l -0.142875,-0.38366 c -0.04498,-0.11641 -0.07673,-0.21165 -0.0979,-0.28574 a 1.5875,1.5875 0 0 1 -0.07673,0.26459 z"
       id="path3612"
       style="fill:#030303;stroke-width:0.264583" />
    <path
       class="cls-15"
       d="m 90.581668,127.25886 0.529167,-1.38376 h 0.195792 l 0.566208,1.38376 h -0.209021 l -0.161396,-0.41804 h -0.576791 l -0.153459,0.41804 z m 0.399521,-0.56884 h 0.468313 l -0.145521,-0.38366 c -0.04233,-0.11641 -0.07673,-0.21165 -0.0979,-0.28574 a 1.5875,1.5875 0 0 1 -0.07408,0.26459 z"
       id="path3616"
       style="fill:#030303;stroke-width:0.264583" />
  </g>
</svg>
