<?xml version="1.0" encoding="UTF-8" standalone="no"?>
<!-- Created with Inkscape (http://www.inkscape.org/) -->

<svg
   width="6.0007529mm"
   height="6.0034122mm"
   viewBox="0 0 6.0007529 6.0034122"
   version="1.1"
   id="svg8449"
   inkscape:version="1.1 (c68e22c387, 2021-05-23)"
   sodipodi:docname="abv.svg"
   xmlns:inkscape="http://www.inkscape.org/namespaces/inkscape"
   xmlns:sodipodi="http://sodipodi.sourceforge.net/DTD/sodipodi-0.dtd"
   xmlns="http://www.w3.org/2000/svg"
   xmlns:svg="http://www.w3.org/2000/svg">
  <sodipodi:namedview
     id="namedview8451"
     pagecolor="#ffffff"
     bordercolor="#666666"
     borderopacity="1.0"
     inkscape:pageshadow="2"
     inkscape:pageopacity="0.0"
     inkscape:pagecheckerboard="0"
     inkscape:document-units="mm"
     showgrid="false"
     fit-margin-top="0"
     fit-margin-left="0"
     fit-margin-right="0"
     fit-margin-bottom="0"
     inkscape:zoom="0.74118967"
     inkscape:cx="-80.950939"
     inkscape:cy="111.30754"
     inkscape:window-width="1920"
     inkscape:window-height="1017"
     inkscape:window-x="-8"
     inkscape:window-y="-8"
     inkscape:window-maximized="1"
     inkscape:current-layer="layer1" />
  <defs
     id="defs8446" />
  <g
     inkscape:label="Lag 1"
     inkscape:groupmode="layer"
     id="layer1"
     transform="translate(-126.22318,-119.08243)">
    <rect
       class="cls-3"
       x="126.22318"
       y="119.08243"
       width="6.0007501"
       height="6.0007501"
       id="rect3618"
       style="fill:#ffffff;stroke-width:0.264583" />
    <polygon
       class="cls-14"
       points="42.78,1224.68 43.53,1224.68 43.53,1223.93 45.36,1223.93 45.36,1226.51 42.78,1226.51 "
       id="polygon3620"
       style="fill:#bc2231"
       transform="matrix(0.26458333,0,0,0.26458333,120.22243,-199.43091)" />
    <path
       class="cls-14"
       d="m 130.61261,125.08584 h -0.92604 v -0.48154 h 0.92604 z m -1.85208,0 h -0.92869 v -0.48154 h 0.92869 z"
       id="path3622"
       style="fill:#bc2231;stroke-width:0.264583" />
    <polygon
       class="cls-14"
       points="22.68,1223.93 24.5,1223.93 24.5,1224.68 25.26,1224.68 25.26,1226.51 22.68,1226.51 "
       id="polygon3624"
       style="fill:#bc2231"
       transform="matrix(0.26458333,0,0,0.26458333,120.22243,-199.43091)" />
    <path
       class="cls-14"
       d="m 126.70472,123.47453 h -0.47361 v -0.92869 h 0.48154 z m 0,-1.85209 h -0.47361 v -0.92604 h 0.48154 z"
       id="path3626"
       style="fill:#bc2231;stroke-width:0.264583" />
    <polygon
       class="cls-14"
       points="22.68,1203.83 25.26,1203.83 25.26,1205.65 24.5,1205.65 24.5,1206.41 22.68,1206.41 "
       id="polygon3628"
       style="fill:#bc2231"
       transform="matrix(0.26458333,0,0,0.26458333,120.22243,-199.43091)" />
    <path
       class="cls-14"
       d="m 130.61261,119.56663 h -0.92604 v -0.48419 h 0.92604 z m -1.85208,0 h -0.92869 v -0.48419 h 0.92869 z"
       id="path3630"
       style="fill:#bc2231;stroke-width:0.264583" />
    <polygon
       class="cls-14"
       points="43.53,1205.65 42.78,1205.65 42.78,1203.83 45.36,1203.83 45.36,1206.41 43.53,1206.41 "
       id="polygon3632"
       style="fill:#bc2231"
       transform="matrix(0.26458333,0,0,0.26458333,120.22243,-199.43091)" />
    <path
       class="cls-14"
       d="m 132.22393,123.47453 h -0.48419 v -0.92869 h 0.48419 z m 0,-1.85209 h -0.48419 v -0.92604 h 0.48419 z"
       id="path3634"
       style="fill:#bc2231;stroke-width:0.264583" />
    <path
       class="cls-15"
       d="m 127.48259,122.59876 0.52917,-1.38378 h 0.19844 l 0.5662,1.38378 h -0.20902 l -0.16139,-0.41805 h -0.58738 l -0.15081,0.41805 z m 0.39952,-0.56886 h 0.46567 l -0.14288,-0.38364 c -0.045,-0.11642 -0.0767,-0.21167 -0.0979,-0.28575 a 1.9764375,1.9764375 0 0 1 -0.0741,0.26458 z"
       id="path3636"
       style="fill:#030303;stroke-width:0.264583" />
    <path
       class="cls-15"
       d="m 128.91663,122.59876 v -1.38378 h 0.52917 a 0.61912499,0.61912499 0 0 1 0.26458,0.0423 0.30691666,0.30691666 0 0 1 0.14817,0.12964 0.33602083,0.33602083 0 0 1 0.0556,0.18257 0.32014583,0.32014583 0 0 1 -0.0476,0.16668 0.34395833,0.34395833 0 0 1 -0.14552,0.127 0.36777083,0.36777083 0 0 1 0.19314,0.12436 0.333375,0.333375 0 0 1 0.0661,0.20902 0.41804166,0.41804166 0 0 1 -0.0397,0.18256 0.33602083,0.33602083 0 0 1 -0.10319,0.127 0.396875,0.396875 0 0 1 -0.15081,0.0688 0.89164582,0.89164582 0 0 1 -0.22225,0.0238 z m 0.18257,-0.79375 h 0.30691 a 0.69320832,0.69320832 0 0 0 0.17463,-0.0159 0.1984375,0.1984375 0 0 0 0.10319,-0.0688 0.206375,0.206375 0 0 0 0.037,-0.12171 0.21166666,0.21166666 0 0 0 -0.0344,-0.12171 0.1666875,0.1666875 0 0 0 -0.0926,-0.0714 0.79374999,0.79374999 0 0 0 -0.21167,-0.0185 h -0.26458 z m 0,0.63764 h 0.3466 0.12435 a 0.35454166,0.35454166 0 0 0 0.10584,-0.037 0.20372916,0.20372916 0 0 0 0.0688,-0.0794 0.2301875,0.2301875 0 0 0 0.0291,-0.11641 0.238125,0.238125 0 0 0 -0.0397,-0.13494 0.21695833,0.21695833 0 0 0 -0.11113,-0.0794 0.66674999,0.66674999 0 0 0 -0.20373,-0.0238 h -0.32014 z"
       id="path3638"
       style="fill:#030303;stroke-width:0.264583" />
    <path
       class="cls-15"
       d="m 130.60997,122.59876 -0.52917,-1.38378 h 0.19844 l 0.35983,1.00542 c 0.0291,0.0794 0.0529,0.15611 0.0741,0.22754 a 2.2833541,2.2833541 0 0 1 0.0741,-0.22754 l 0.37306,-1.00542 h 0.18785 l -0.52916,1.38378 z"
       id="path3640"
       style="fill:#030303;stroke-width:0.264583" />
  </g>
</svg>
