<?xml version="1.0" encoding="UTF-8" standalone="no"?>
<!-- Created with Inkscape (http://www.inkscape.org/) -->

<svg
   width="6.0007529mm"
   height="6.0034122mm"
   viewBox="0 0 6.0007529 6.0034122"
   version="1.1"
   id="svg8449"
   inkscape:version="1.1 (c68e22c387, 2021-05-23)"
   sodipodi:docname="aga.svg"
   xmlns:inkscape="http://www.inkscape.org/namespaces/inkscape"
   xmlns:sodipodi="http://sodipodi.sourceforge.net/DTD/sodipodi-0.dtd"
   xmlns="http://www.w3.org/2000/svg"
   xmlns:svg="http://www.w3.org/2000/svg">
  <sodipodi:namedview
     id="namedview8451"
     pagecolor="#ffffff"
     bordercolor="#666666"
     borderopacity="1.0"
     inkscape:pageshadow="2"
     inkscape:pageopacity="0.0"
     inkscape:pagecheckerboard="0"
     inkscape:document-units="mm"
     showgrid="false"
     fit-margin-top="0"
     fit-margin-left="0"
     fit-margin-right="0"
     fit-margin-bottom="0"
     inkscape:zoom="23.718069"
     inkscape:cx="12.395613"
     inkscape:cy="13.302094"
     inkscape:window-width="1920"
     inkscape:window-height="1017"
     inkscape:window-x="1912"
     inkscape:window-y="-8"
     inkscape:window-maximized="1"
     inkscape:current-layer="layer1" />
  <defs
     id="defs8446" />
  <g
     inkscape:label="Lag 1"
     inkscape:groupmode="layer"
     id="layer1"
     transform="translate(-126.22318,-119.08243)">
    <rect
       class="cls-3"
       x="126.22318"
       y="119.08243"
       width="6.0007501"
       height="6.0007501"
       id="rect3618"
       style="fill:#ffffff;stroke-width:0.264583" />
    <polygon
       class="cls-14"
       points="42.78,1224.68 43.53,1224.68 43.53,1223.93 45.36,1223.93 45.36,1226.51 42.78,1226.51 "
       id="polygon3620"
       style="fill:#bc2231"
       transform="matrix(0.26458333,0,0,0.26458333,120.22243,-199.43091)" />
    <path
       class="cls-14"
       d="m 130.61261,125.08584 h -0.92604 v -0.48154 h 0.92604 z m -1.85208,0 h -0.92869 v -0.48154 h 0.92869 z"
       id="path3622"
       style="fill:#bc2231;stroke-width:0.264583" />
    <polygon
       class="cls-14"
       points="22.68,1223.93 24.5,1223.93 24.5,1224.68 25.26,1224.68 25.26,1226.51 22.68,1226.51 "
       id="polygon3624"
       style="fill:#bc2231"
       transform="matrix(0.26458333,0,0,0.26458333,120.22243,-199.43091)" />
    <path
       class="cls-14"
       d="m 126.70472,123.47453 h -0.47361 v -0.92869 h 0.48154 z m 0,-1.85209 h -0.47361 v -0.92604 h 0.48154 z"
       id="path3626"
       style="fill:#bc2231;stroke-width:0.264583" />
    <polygon
       class="cls-14"
       points="22.68,1203.83 25.26,1203.83 25.26,1205.65 24.5,1205.65 24.5,1206.41 22.68,1206.41 "
       id="polygon3628"
       style="fill:#bc2231"
       transform="matrix(0.26458333,0,0,0.26458333,120.22243,-199.43091)" />
    <path
       class="cls-14"
       d="m 130.61261,119.56663 h -0.92604 v -0.48419 h 0.92604 z m -1.85208,0 h -0.92869 v -0.48419 h 0.92869 z"
       id="path3630"
       style="fill:#bc2231;stroke-width:0.264583" />
    <polygon
       class="cls-14"
       points="43.53,1205.65 42.78,1205.65 42.78,1203.83 45.36,1203.83 45.36,1206.41 43.53,1206.41 "
       id="polygon3632"
       style="fill:#bc2231"
       transform="matrix(0.26458333,0,0,0.26458333,120.22243,-199.43091)" />
    <path
       class="cls-14"
       d="m 132.22393,123.47453 h -0.48419 v -0.92869 h 0.48419 z m 0,-1.85209 h -0.48419 v -0.92604 h 0.48419 z"
       id="path3634"
       style="fill:#bc2231;stroke-width:0.264583" />
    <path
       class="cls-15"
       d="m 127.17598,122.68923 0.56789,-1.54154 h 0.21296 l 0.60762,1.54154 h -0.22431 l -0.1732,-0.46571 h -0.63035 l -0.16185,0.46571 z m 0.42875,-0.63371 h 0.49974 l -0.15333,-0.42738 c -0.0483,-0.12969 -0.0823,-0.2358 -0.10506,-0.31833 a 2.1210354,2.201765 0 0 1 -0.0795,0.29474 z"
       id="path3636"
       style="fill:#030303;stroke-width:0.289293" />
    <path
       class="cls-15"
       d="m 129.97993,122.68923 0.56789,-1.54154 h 0.21296 l 0.60762,1.54154 h -0.22431 l -0.1732,-0.46571 h -0.63035 l -0.16185,0.46571 z m 0.42875,-0.63371 h 0.49974 l -0.15333,-0.42738 c -0.0483,-0.12969 -0.0823,-0.2358 -0.10506,-0.31833 a 2.1210354,2.201765 0 0 1 -0.0795,0.29474 z"
       id="path3636-0"
       style="fill:#030303;stroke-width:0.289293" />
    <text
       xml:space="preserve"
       style="font-size:1.94915px;line-height:1.25;font-family:sans-serif;stroke-width:0.243643"
       x="135.15706"
       y="116.66808"
       id="text1795"
       transform="scale(0.95111579,1.0513967)"><tspan
         sodipodi:role="line"
         id="tspan1793"
         style="font-size:1.94915px;stroke-width:0.243643"
         x="135.15706"
         y="116.66808">G</tspan></text>
  </g>
</svg>
