<?xml version="1.0" encoding="UTF-8" standalone="no"?>
<!-- Created with Inkscape (http://www.inkscape.org/) -->

<svg
   width="7.5009398mm"
   height="7.4982872mm"
   viewBox="0 0 7.5009398 7.4982872"
   version="1.1"
   id="svg8311"
   inkscape:version="1.1 (c68e22c387, 2021-05-23)"
   sodipodi:docname="ars.svg"
   xmlns:inkscape="http://www.inkscape.org/namespaces/inkscape"
   xmlns:sodipodi="http://sodipodi.sourceforge.net/DTD/sodipodi-0.dtd"
   xmlns="http://www.w3.org/2000/svg"
   xmlns:svg="http://www.w3.org/2000/svg">
  <sodipodi:namedview
     id="namedview8313"
     pagecolor="#ffffff"
     bordercolor="#666666"
     borderopacity="1.0"
     inkscape:pageshadow="2"
     inkscape:pageopacity="0.0"
     inkscape:pagecheckerboard="0"
     inkscape:document-units="mm"
     showgrid="false"
     fit-margin-top="0"
     fit-margin-left="0"
     fit-margin-right="0"
     fit-margin-bottom="0"
     inkscape:zoom="11.313709"
     inkscape:cx="36.504387"
     inkscape:cy="16.219262"
     inkscape:window-width="1920"
     inkscape:window-height="1017"
     inkscape:window-x="-8"
     inkscape:window-y="-8"
     inkscape:window-maximized="1"
     inkscape:current-layer="layer1" />
  <defs
     id="defs8308" />
  <g
     inkscape:label="Lag 1"
     inkscape:groupmode="layer"
     id="layer1"
     transform="translate(-126.90097,-94.060953)">
    <rect
       class="cls-3"
       x="127.14703"
       y="94.304375"
       width="7.0088124"
       height="7.0088124"
       id="rect3536"
       style="fill:#ffffff;stroke-width:0.264583" />
    <path
       class="cls-14"
       d="m 134.40191,101.55924 h -7.50094 v -7.498287 h 7.50094 z m -7.00617,-0.48947 h 6.51669 v -6.519337 h -6.51669 z"
       id="path3538"
       style="fill:#bc2231;stroke-width:0.264583" />
    <g
       id="g1033"
       transform="translate(0.07600307)">
      <path
         class="cls-15"
         d="m 127.99566,98.563395 0.67469,-1.759479 h 0.26458 l 0.71967,1.759479 h -0.26459 l -0.20637,-0.529167 h -0.74613 l -0.19314,0.529167 z m 0.508,-0.722313 h 0.59531 l -0.18256,-0.486833 c -0.0556,-0.148167 -0.0979,-0.264583 -0.12435,-0.365125 a 2.5452916,2.5452916 0 0 1 -0.0953,0.336021 z"
         id="path3540"
         style="fill:#030303;stroke-width:0.264583" />
      <path
         class="cls-15"
         d="m 131.76031,98.002398 0.2196,-0.01852 a 0.51329166,0.51329166 0 0 0 0.0714,0.216958 0.43656249,0.43656249 0 0 0 0.17727,0.137583 0.69056249,0.69056249 0 0 0 0.26458,0.05027 0.63499999,0.63499999 0 0 0 0.23548,-0.03969 0.32279166,0.32279166 0 0 0 0.15346,-0.108479 0.26458333,0.26458333 0 0 0 0.0476,-0.150813 0.22225,0.22225 0 0 0 -0.0476,-0.142875 0.33072916,0.33072916 0 0 0 -0.15875,-0.103187 2.9580416,2.9580416 0 0 0 -0.31221,-0.08731 1.635125,1.635125 0 0 1 -0.33867,-0.108479 0.48154166,0.48154166 0 0 1 -0.18785,-0.164042 0.40216666,0.40216666 0 0 1 -0.0635,-0.219604 0.44449999,0.44449999 0 0 1 0.0767,-0.248708 0.49212499,0.49212499 0 0 1 0.2196,-0.177271 0.85460416,0.85460416 0 0 1 0.32279,-0.05821 0.88106249,0.88106249 0 0 1 0.34661,0.0635 0.50006249,0.50006249 0 0 1 0.23019,0.185208 0.51329166,0.51329166 0 0 1 0.0847,0.264583 l -0.22225,0.01852 a 0.36247916,0.36247916 0 0 0 -0.12171,-0.264583 0.46566666,0.46566666 0 0 0 -0.30691,-0.08731 0.49741666,0.49741666 0 0 0 -0.30692,0.07673 0.23547916,0.23547916 0 0 0 -0.0979,0.187855 0.20108333,0.20108333 0 0 0 0.0688,0.156104 0.94191665,0.94191665 0 0 0 0.35189,0.124354 2.6167291,2.6167291 0 0 1 0.38894,0.113771 0.52916666,0.52916666 0 0 1 0.2249,0.177271 0.43127083,0.43127083 0 0 1 0.0741,0.264583 0.48418749,0.48418749 0 0 1 -0.0794,0.264583 0.52916666,0.52916666 0 0 1 -0.23018,0.193146 0.82814582,0.82814582 0 0 1 -0.34132,0.06879 1.0398125,1.0398125 0 0 1 -0.39952,-0.06879 0.57943749,0.57943749 0 0 1 -0.34925,-0.529167 z"
         id="path3544"
         style="fill:#030303;stroke-width:0.264583" />
      <path
         class="cls-9"
         d="m 129.92465,98.566546 v -1.770198 h 0.78556 a 1.0287654,1.0287596 0 0 1 0.35942,0.04842 0.39170568,0.39170346 0 0 1 0.19692,0.167874 0.51007828,0.51007539 0 0 1 0.0731,0.266876 0.4465875,0.44658497 0 0 1 -0.12159,0.322832 0.61984195,0.61983845 0 0 1 -0.37664,0.164643 0.59401521,0.59401185 0 0 1 0.14096,0.08825 1.2063242,1.2063175 0 0 1 0.19478,0.234591 l 0.30776,0.482092 h -0.29486 l -0.23566,-0.373405 a 2.8344855,2.8344695 0 0 0 -0.16894,-0.244276 0.55097059,0.55096747 0 0 0 -0.11838,-0.118374 0.38524898,0.3852468 0 0 0 -0.10761,-0.04735 0.75328014,0.75327588 0 0 0 -0.13128,-0.0075 h -0.26897 v 0.785558 z m 0.23457,-0.988945 h 0.50363 a 0.74144286,0.74143869 0 0 0 0.25074,-0.03335 0.26364805,0.26364655 0 0 0 0.13773,-0.107613 0.29270315,0.2927015 0 0 0 0.0473,-0.159262 0.26149583,0.26149435 0 0 0 -0.0915,-0.206614 0.4239891,0.42398671 0 0 0 -0.2873,-0.08071 h -0.56065 z"
         id="path3478"
         style="fill:#000000;fill-opacity:1;stroke-width:0.107611" />
    </g>
  </g>
</svg>
