<?xml version="1.0" encoding="UTF-8" standalone="no"?>
<!-- Created with Inkscape (http://www.inkscape.org/) -->

<svg
   width="12.192227mm"
   height="4.4701295mm"
   viewBox="0 0 12.192227 4.4701295"
   version="1.1"
   id="svg9046"
   inkscape:version="1.1 (c68e22c387, 2021-05-23)"
   sodipodi:docname="ars.svg"
   xmlns:inkscape="http://www.inkscape.org/namespaces/inkscape"
   xmlns:sodipodi="http://sodipodi.sourceforge.net/DTD/sodipodi-0.dtd"
   xmlns="http://www.w3.org/2000/svg"
   xmlns:svg="http://www.w3.org/2000/svg">
  <sodipodi:namedview
     id="namedview9048"
     pagecolor="#ffffff"
     bordercolor="#666666"
     borderopacity="1.0"
     inkscape:pageshadow="2"
     inkscape:pageopacity="0.0"
     inkscape:pagecheckerboard="0"
     inkscape:document-units="mm"
     showgrid="false"
     fit-margin-top="0"
     fit-margin-left="0"
     fit-margin-right="0"
     fit-margin-bottom="0"
     inkscape:zoom="0.74118967"
     inkscape:cx="-485.70563"
     inkscape:cy="118.05345"
     inkscape:window-width="1920"
     inkscape:window-height="1017"
     inkscape:window-x="-8"
     inkscape:window-y="-8"
     inkscape:window-maximized="1"
     inkscape:current-layer="layer1" />
  <defs
     id="defs9043" />
  <g
     inkscape:label="Lag 1"
     inkscape:groupmode="layer"
     id="layer1"
     transform="translate(-233.43153,-117.35035)">
    <path
       class="cls-9"
       d="m 233.43153,121.76387 1.67217,-4.35239 h 0.61912 l 1.78065,4.35239 h -0.65617 l -0.508,-1.32291 h -1.81769 l -0.47889,1.32291 z m 1.25148,-1.78064 h 1.47637 l -0.45508,-1.2065 c -0.13758,-0.36513 -0.24077,-0.66675 -0.30692,-0.90223 a 5.6567916,5.6567916 0 0 1 -0.23547,0.83079 z"
       id="path3476"
       style="fill:#ed2224;stroke-width:0.264583" />
    <path
       class="cls-9"
       d="m 237.97178,121.76387 v -4.35239 h 1.93146 a 2.5294166,2.5294166 0 0 1 0.88371,0.11906 0.96308332,0.96308332 0 0 1 0.48418,0.41275 1.254125,1.254125 0 0 1 0.17992,0.65617 1.0980208,1.0980208 0 0 1 -0.29898,0.79375 1.524,1.524 0 0 1 -0.92604,0.40481 1.4605,1.4605 0 0 1 0.3466,0.21696 2.9659791,2.9659791 0 0 1 0.4789,0.57679 l 0.75671,1.18533 h -0.72496 l -0.57944,-0.9181 a 6.9691249,6.9691249 0 0 0 -0.41539,-0.6006 1.3546666,1.3546666 0 0 0 -0.29104,-0.29105 0.94720832,0.94720832 0 0 0 -0.26459,-0.11641 1.8520833,1.8520833 0 0 0 -0.32279,-0.0185 h -0.66146 v 1.93145 z m 0.57679,-2.43152 h 1.23825 a 1.8229791,1.8229791 0 0 0 0.61648,-0.082 0.64822916,0.64822916 0 0 0 0.33867,-0.26458 0.71966666,0.71966666 0 0 0 0.11641,-0.39158 0.64293749,0.64293749 0 0 0 -0.22489,-0.508 1.0424583,1.0424583 0 0 0 -0.70644,-0.19844 h -1.37848 z"
       id="path3478"
       style="fill:#ed2224;stroke-width:0.264583" />
    <path
       class="cls-9"
       d="m 242.15749,120.36687 0.54504,-0.0476 a 1.1932708,1.1932708 0 0 0 0.17727,0.52917 0.99218749,0.99218749 0 0 0 0.43921,0.33866 1.7806458,1.7806458 0 0 0 1.24883,0.0318 0.80962499,0.80962499 0 0 0 0.37571,-0.26458 0.62706249,0.62706249 0 0 0 0.12436,-0.37306 0.56885416,0.56885416 0 0 0 -0.11907,-0.35719 0.88370832,0.88370832 0 0 0 -0.39158,-0.26458 7.6729166,7.6729166 0 0 0 -0.77523,-0.21167 3.96875,3.96875 0 0 1 -0.84137,-0.26458 1.1694583,1.1694583 0 0 1 -0.46303,-0.40482 0.98160415,0.98160415 0 0 1 -0.15345,-0.52916 1.1006667,1.1006667 0 0 1 0.18785,-0.61384 1.158875,1.158875 0 0 1 0.54504,-0.43656 2.0955,2.0955 0 0 1 0.79375,-0.14817 2.206625,2.206625 0 0 1 0.85461,0.15611 1.222375,1.222375 0 0 1 0.5662,0.45773 1.3229166,1.3229166 0 0 1 0.21432,0.68791 l -0.55298,0.0397 a 0.88899999,0.88899999 0 0 0 -0.29898,-0.62177 1.1800417,1.1800417 0 0 0 -0.75936,-0.21167 1.2197292,1.2197292 0 0 0 -0.762,0.1905 0.57943749,0.57943749 0 0 0 -0.23812,0.46303 0.49212499,0.49212499 0 0 0 0.16933,0.38629 2.2992291,2.2992291 0 0 0 0.87313,0.29104 5.7123541,5.7123541 0 0 1 0.96308,0.26458 1.3229166,1.3229166 0 0 1 0.56092,0.4445 1.0583333,1.0583333 0 0 1 0.18256,0.61648 1.1932708,1.1932708 0 0 1 -0.20108,0.65617 1.3229166,1.3229166 0 0 1 -0.5715,0.47625 1.9790833,1.9790833 0 0 1 -0.83873,0.17198 2.5320625,2.5320625 0 0 1 -0.98954,-0.17198 1.3837708,1.3837708 0 0 1 -0.62442,-0.52917 1.4525625,1.4525625 0 0 1 -0.24077,-0.75142 z"
       id="path3480"
       style="fill:#ed2224;stroke-width:0.264583" />
  </g>
</svg>
