<?xml version="1.0" encoding="UTF-8" standalone="no"?>
<!-- Created with Inkscape (http://www.inkscape.org/) -->

<svg
   width="7.5551763mm"
   height="7.5551891mm"
   viewBox="0 0 7.5551762 7.5551892"
   version="1.1"
   id="svg8311"
   inkscape:version="1.1 (c68e22c387, 2021-05-23)"
   sodipodi:docname="aspirationsanlaeg.svg"
   xmlns:inkscape="http://www.inkscape.org/namespaces/inkscape"
   xmlns:sodipodi="http://sodipodi.sourceforge.net/DTD/sodipodi-0.dtd"
   xmlns="http://www.w3.org/2000/svg"
   xmlns:svg="http://www.w3.org/2000/svg">
  <sodipodi:namedview
     id="namedview8313"
     pagecolor="#ffffff"
     bordercolor="#666666"
     borderopacity="1.0"
     inkscape:pageshadow="2"
     inkscape:pageopacity="0.0"
     inkscape:pagecheckerboard="0"
     inkscape:document-units="mm"
     showgrid="false"
     fit-margin-top="0"
     fit-margin-left="0"
     fit-margin-right="0"
     fit-margin-bottom="0"
     inkscape:zoom="8"
     inkscape:cx="47.375"
     inkscape:cy="17.9375"
     inkscape:window-width="1920"
     inkscape:window-height="1017"
     inkscape:window-x="-8"
     inkscape:window-y="-8"
     inkscape:window-maximized="1"
     inkscape:current-layer="layer1" />
  <defs
     id="defs8308" />
  <g
     inkscape:label="Lag 1"
     inkscape:groupmode="layer"
     id="layer1"
     transform="translate(-125.62699,-93.350556)">
    <g
       id="g1520">
      <rect
         class="cls-3"
         x="125.627"
         y="93.350571"
         width="7.5551744"
         height="7.5551744"
         id="rect3454"
         style="fill:#ffffff;stroke-width:0.33312" />
      <polygon
         class="cls-14"
         points="45.36,1385.59 42.78,1385.59 42.78,1383.77 43.53,1383.77 43.53,1383.01 45.36,1383.01 "
         id="polygon3456"
         style="fill:#bc2231"
         transform="matrix(0.33312055,0,0,0.33312055,118.07182,-360.66277)" />
      <path
         class="cls-14"
         d="m 131.15345,100.90573 h -1.16592 v -0.60627 h 1.16592 z m -2.33184,0 h -1.16925 v -0.60627 h 1.16925 z"
         id="path3458"
         style="fill:#bc2231;stroke-width:0.33312" />
      <polygon
         class="cls-14"
         points="25.26,1385.59 22.68,1385.59 22.68,1383.01 24.5,1383.01 24.5,1383.77 25.26,1383.77 "
         id="polygon3460"
         style="fill:#bc2231"
         transform="matrix(0.33312055,0,0,0.33312055,118.07182,-360.66277)" />
      <path
         class="cls-14"
         d="m 126.23327,98.883693 h -0.59629 v -1.165922 h 0.60628 z m 0,-2.331845 h -0.59629 v -1.165921 h 0.60628 z"
         id="path3462"
         style="fill:#bc2231;stroke-width:0.33312" />
      <polygon
         class="cls-14"
         points="24.5,1365.49 22.68,1365.49 22.68,1362.91 25.26,1362.91 25.26,1364.74 24.5,1364.74 "
         id="polygon3464"
         style="fill:#bc2231"
         transform="matrix(0.33312055,0,0,0.33312055,118.07182,-360.66277)" />
      <path
         class="cls-14"
         d="m 131.15345,93.960171 h -1.16592 v -0.60628 h 1.16592 z m -2.33184,0 h -1.16925 v -0.60628 h 1.16925 z"
         id="path3466"
         style="fill:#bc2231;stroke-width:0.33312" />
      <polygon
         class="cls-14"
         points="45.36,1365.49 43.53,1365.49 43.53,1364.74 42.78,1364.74 42.78,1362.91 45.36,1362.91 "
         id="polygon3468"
         style="fill:#bc2231"
         transform="matrix(0.33312055,0,0,0.33312055,118.07182,-360.66277)" />
      <path
         class="cls-14"
         d="m 133.18217,98.883693 h -0.60962 v -1.165922 h 0.60962 z m 0,-2.331845 h -0.60962 v -1.165921 h 0.60962 z"
         id="path3470"
         style="fill:#bc2231;stroke-width:0.33312" />
      <path
         class="cls-15"
         d="m 127.4306,98.043725 0.78962,-2.064825 h 0.29214 l 0.84884,2.064825 h -0.31189 l -0.24084,-0.62774 h -0.86066 l -0.22899,0.62774 z m 0.59615,-0.848828 h 0.69882 l -0.21321,-0.572466 c -0.0671,-0.173715 -0.11449,-0.315844 -0.14608,-0.430337 a 2.8110037,2.8110037 0 0 1 -0.11449,0.394803 z"
         id="path3472"
         style="fill:#030303;stroke-width:0.394803" />
      <path
         class="cls-15"
         d="m 129.48753,97.376506 0.26058,-0.02368 a 0.56062153,0.56062153 0 0 0 0.083,0.252674 0.4658686,0.4658686 0 0 0 0.20924,0.161869 0.78960778,0.78960778 0 0 0 0.31586,0.06317 0.73433523,0.73433523 0 0 0 0.27635,-0.04737 0.3948039,0.3948039 0 0 0 0.17767,-0.130281 0.28031075,0.28031075 0 0 0 0.0593,-0.173712 0.27241469,0.27241469 0 0 0 -0.0552,-0.169766 0.3948039,0.3948039 0 0 0 -0.18555,-0.122389 3.3795214,3.3795214 0 0 0 -0.36717,-0.102647 1.823994,1.823994 0 0 1 -0.39481,-0.126343 0.56456957,0.56456957 0 0 1 -0.22108,-0.193453 0.44612839,0.44612839 0 0 1 -0.075,-0.256622 0.52114115,0.52114115 0 0 1 0.0907,-0.292156 0.56456957,0.56456957 0 0 1 0.25663,-0.209246 1.0620225,1.0620225 0 0 1 0.3948,-0.06712 1.0817627,1.0817627 0 0 1 0.39481,0.07106 0.5566735,0.5566735 0 0 1 0.26846,0.22109 0.60404995,0.60404995 0 0 1 0.10263,0.32374 h -0.26056 a 0.4263882,0.4263882 0 0 0 -0.14608,-0.296103 0.54088134,0.54088134 0 0 0 -0.35927,-0.09871 0.55272544,0.55272544 0 0 0 -0.35928,0.0908 0.26846665,0.26846665 0 0 0 -0.11448,0.217141 0.24872646,0.24872646 0 0 0 0.0789,0.185559 1.1844117,1.1844117 0 0 0 0.41454,0.146084 3.1900154,3.1900154 0 0 1 0.45798,0.13028 0.60799799,0.60799799 0 0 1 0.26452,0.213194 0.48955683,0.48955683 0 0 1 0.0869,0.292155 0.56456957,0.56456957 0 0 1 -0.0948,0.311895 0.64353035,0.64353035 0 0 1 -0.27243,0.225038 0.9238411,0.9238411 0 0 1 -0.3948,0.0829 1.1844117,1.1844117 0 0 1 -0.4698,-0.0829 0.67116662,0.67116662 0 0 1 -0.29611,-0.244778 0.710647,0.710647 0 0 1 -0.12639,-0.351375 z"
         id="path3474"
         style="fill:#030303;stroke-width:0.394803" />
    </g>
  </g>
</svg>
