<?xml version="1.0" encoding="UTF-8" standalone="no"?>
<!-- Created with Inkscape (http://www.inkscape.org/) -->

<svg
   width="7.5009398mm"
   height="7.4982872mm"
   viewBox="0 0 7.5009398 7.4982872"
   version="1.1"
   id="svg8311"
   inkscape:version="1.1 (c68e22c387, 2021-05-23)"
   sodipodi:docname="avs.svg"
   xmlns:inkscape="http://www.inkscape.org/namespaces/inkscape"
   xmlns:sodipodi="http://sodipodi.sourceforge.net/DTD/sodipodi-0.dtd"
   xmlns="http://www.w3.org/2000/svg"
   xmlns:svg="http://www.w3.org/2000/svg">
  <sodipodi:namedview
     id="namedview8313"
     pagecolor="#ffffff"
     bordercolor="#666666"
     borderopacity="1.0"
     inkscape:pageshadow="2"
     inkscape:pageopacity="0.0"
     inkscape:pagecheckerboard="0"
     inkscape:document-units="mm"
     showgrid="false"
     fit-margin-top="0"
     fit-margin-left="0"
     fit-margin-right="0"
     fit-margin-bottom="0"
     inkscape:zoom="0.74118967"
     inkscape:cx="-82.300121"
     inkscape:cy="207.09949"
     inkscape:window-width="1920"
     inkscape:window-height="1017"
     inkscape:window-x="-8"
     inkscape:window-y="-8"
     inkscape:window-maximized="1"
     inkscape:current-layer="layer1" />
  <defs
     id="defs8308" />
  <g
     inkscape:label="Lag 1"
     inkscape:groupmode="layer"
     id="layer1"
     transform="translate(-126.90097,-94.060953)">
    <rect
       class="cls-3"
       x="127.14703"
       y="94.304375"
       width="7.0088124"
       height="7.0088124"
       id="rect3536"
       style="fill:#ffffff;stroke-width:0.264583" />
    <path
       class="cls-14"
       d="m 134.40191,101.55924 h -7.50094 v -7.498287 h 7.50094 z m -7.00617,-0.48947 h 6.51669 v -6.519337 h -6.51669 z"
       id="path3538"
       style="fill:#bc2231;stroke-width:0.264583" />
    <path
       class="cls-15"
       d="m 128.18949,98.466266 0.67469,-1.759479 h 0.26458 l 0.71967,1.759479 h -0.26459 l -0.20637,-0.529167 h -0.74613 l -0.19314,0.529167 z m 0.508,-0.722313 h 0.59531 l -0.18256,-0.486833 c -0.0556,-0.148167 -0.0979,-0.264583 -0.12435,-0.365125 a 2.5452916,2.5452916 0 0 1 -0.0953,0.336021 z"
       id="path3540"
       style="fill:#030303;stroke-width:0.264583" />
    <path
       class="cls-15"
       d="m 130.3432,98.466266 -0.68263,-1.759479 h 0.26459 l 0.45773,1.277937 c 0.037,0.103188 0.0688,0.198438 0.0926,0.288396 0.0265,-0.09525 0.0582,-0.193146 0.0952,-0.288396 l 0.4736,-1.277937 h 0.23813 l -0.68792,1.759479 z"
       id="path3542"
       style="fill:#030303;stroke-width:0.264583" />
    <path
       class="cls-15"
       d="m 131.39889,97.900058 0.2196,-0.01852 a 0.51329166,0.51329166 0 0 0 0.0714,0.216958 0.43656249,0.43656249 0 0 0 0.17727,0.137583 0.69056249,0.69056249 0 0 0 0.26458,0.05027 0.63499999,0.63499999 0 0 0 0.23548,-0.03969 0.32279166,0.32279166 0 0 0 0.15346,-0.108479 0.26458333,0.26458333 0 0 0 0.0476,-0.150813 0.22225,0.22225 0 0 0 -0.0476,-0.142875 0.33072916,0.33072916 0 0 0 -0.15875,-0.103187 2.9580416,2.9580416 0 0 0 -0.31221,-0.08731 1.635125,1.635125 0 0 1 -0.33867,-0.108479 0.48154166,0.48154166 0 0 1 -0.18785,-0.164042 0.40216666,0.40216666 0 0 1 -0.0635,-0.219604 0.44449999,0.44449999 0 0 1 0.0767,-0.248708 0.49212499,0.49212499 0 0 1 0.2196,-0.177271 0.85460416,0.85460416 0 0 1 0.32279,-0.05821 0.88106249,0.88106249 0 0 1 0.34661,0.0635 0.50006249,0.50006249 0 0 1 0.23019,0.185208 0.51329166,0.51329166 0 0 1 0.0847,0.264583 l -0.22225,0.01852 a 0.36247916,0.36247916 0 0 0 -0.12171,-0.264583 0.46566666,0.46566666 0 0 0 -0.30691,-0.08731 0.49741666,0.49741666 0 0 0 -0.30692,0.07673 0.23547916,0.23547916 0 0 0 -0.0979,0.187855 0.20108333,0.20108333 0 0 0 0.0688,0.156104 0.94191665,0.94191665 0 0 0 0.35189,0.124354 2.6167291,2.6167291 0 0 1 0.38894,0.113771 0.52916666,0.52916666 0 0 1 0.2249,0.177271 0.43127083,0.43127083 0 0 1 0.0741,0.264583 0.48418749,0.48418749 0 0 1 -0.0794,0.264583 0.52916666,0.52916666 0 0 1 -0.23018,0.193146 0.82814582,0.82814582 0 0 1 -0.34132,0.06879 1.0398125,1.0398125 0 0 1 -0.39952,-0.06879 0.57943749,0.57943749 0 0 1 -0.34925,-0.529167 z"
       id="path3544"
       style="fill:#030303;stroke-width:0.264583" />
  </g>
</svg>
