<?xml version="1.0" encoding="UTF-8" standalone="no"?>
<!-- Created with Inkscape (http://www.inkscape.org/) -->

<svg
   width="7.5009398mm"
   height="7.5009298mm"
   viewBox="0 0 7.5009398 7.5009299"
   version="1.1"
   id="svg9482"
   inkscape:version="1.1 (c68e22c387, 2021-05-23)"
   sodipodi:docname="brandmandselevator.svg"
   xmlns:inkscape="http://www.inkscape.org/namespaces/inkscape"
   xmlns:sodipodi="http://sodipodi.sourceforge.net/DTD/sodipodi-0.dtd"
   xmlns="http://www.w3.org/2000/svg"
   xmlns:svg="http://www.w3.org/2000/svg">
  <sodipodi:namedview
     id="namedview9484"
     pagecolor="#ffffff"
     bordercolor="#666666"
     borderopacity="1.0"
     inkscape:pageshadow="2"
     inkscape:pageopacity="0.0"
     inkscape:pagecheckerboard="0"
     inkscape:document-units="mm"
     showgrid="false"
     fit-margin-top="0"
     fit-margin-left="0"
     fit-margin-right="0"
     fit-margin-bottom="0"
     inkscape:zoom="0.74118967"
     inkscape:cx="16.864779"
     inkscape:cy="147.06087"
     inkscape:window-width="1285"
     inkscape:window-height="1040"
     inkscape:window-x="527"
     inkscape:window-y="4"
     inkscape:window-maximized="0"
     inkscape:current-layer="layer1" />
  <defs
     id="defs9479" />
  <g
     inkscape:label="Lag 1"
     inkscape:groupmode="layer"
     id="layer1"
     transform="translate(-100.5777,-109.11306)">
    <rect
       class="cls-3"
       x="100.82376"
       y="109.3565"
       width="7.0088124"
       height="7.0088124"
       id="rect270"
       style="fill:#ffffff;stroke-width:0.264583" />
    <path
       class="cls-6"
       d="m 108.07864,116.61399 h -7.50094 v -7.50093 h 7.50094 z m -7.00617,-0.49212 h 6.51669 v -6.51934 h -6.51669 z"
       id="path272"
       style="fill:#b51f33;stroke-width:0.264583" />
    <path
       class="cls-7"
       d="m 107.13143,113.57922 a 3.0718125,3.0718125 0 0 1 -0.54769,-0.57944 c -0.2196,-0.32014 -0.26458,-0.84666 -0.96573,-0.76729 a 2.4870833,2.4870833 0 0 1 0.41275,0.77259 c 0,0 0.37307,0.8546 1.10596,0.60589"
       id="path274"
       style="fill:#010101;stroke-width:0.264583" />
    <path
       class="cls-7"
       d="m 107.25843,114.07928 a 1.7515416,1.7515416 0 0 1 -1.45521,-1.00806 c 0,0 -0.0794,1.27794 1.44992,1.47373 z"
       id="path276"
       style="fill:#010101;stroke-width:0.264583" />
    <path
       class="cls-7"
       d="m 107.17641,114.85451 a 1.603375,1.603375 0 0 1 -0.64558,-0.36777 c -0.26459,-0.26458 -0.60855,-0.65881 -1.2065,-0.23283 a 1.0874375,1.0874375 0 0 1 0.71437,0.35719 c 0.23813,0.31485 0.59267,0.45508 1.13771,0.24341"
       id="path278"
       style="fill:#010101;stroke-width:0.264583" />
    <path
       class="cls-7"
       d="m 107.25843,115.17466 c -0.34925,-0.0159 -1.21708,-0.0926 -1.46579,-0.44715 0,0 0.045,0.90488 1.46579,0.89165 z"
       id="path280"
       style="fill:#010101;stroke-width:0.264583" />
    <path
       class="cls-7"
       d="m 107.25314,112.74578 a 1.0583333,1.0583333 0 0 1 -0.62442,-0.93662 1.11125,1.11125 0 0 0 0.62971,1.46315 z"
       id="path282"
       style="fill:#010101;stroke-width:0.264583" />
    <rect
       class="cls-7"
       x="104.99095"
       y="111.61598"
       width="2.2674789"
       height="0.13229166"
       id="rect284"
       style="fill:#010101;stroke-width:0.264583" />
    <path
       class="cls-7"
       d="m 107.25843,111.51812 h -2.26748 v -0.0397 a 0.35983333,0.35983333 0 0 0 0.31221,-0.30956 h -0.0423 l -0.0582,-0.4445 h 0.22225 a 0.69585416,0.69585416 0 0 1 0.57944,-0.32279 0.72760416,0.72760416 0 0 1 0.62706,0.43656 c 0.037,0.0873 0.17198,0.62442 0.60589,0.62971 h 0.0212 z"
       id="path286"
       style="fill:#010101;stroke-width:0.264583" />
    <path
       class="cls-7"
       d="m 105.69739,110.36453 a 0.73554166,0.73554166 0 0 1 0.94456,0.30428 c 0,0 0.24342,0.67733 0.508,0.66939 v -0.0318 c 0,0 -0.17992,-0.0529 -0.29369,-0.45508 0,0 -0.11641,-0.79375 -1.15887,-0.74348 z"
       id="path288"
       style="fill:#010101;stroke-width:0.264583" />
    <path
       d="m 102.94572,111.71656 a 0.29897916,0.29897916 0 1 0 -0.29898,-0.29898 0.301625,0.301625 0 0 0 0.29898,0.29898 z"
       id="path290"
       style="stroke-width:0.264583" />
    <path
       d="m 102.39539,112.01024 a 0.23283333,0.23283333 0 0 1 0.23019,-0.18256 h 0.61383 a 0.23283333,0.23283333 0 0 1 0.23283,0.19844 l 0.27782,0.96308 a 0.1349375,0.1349375 0 0 1 0,0.0344 0.111125,0.111125 0 0 1 -0.21696,0.0265 l -0.21167,-0.7673 -0.10054,0.52917 0.30162,1.72244 a 0.16139583,0.16139583 0 0 1 0,0.037 0.1825625,0.1825625 0 0 1 -0.35718,0.045 l -0.24342,-1.32292 -0.24606,1.32292 a 0.18040723,0.18040723 0 0 1 -0.35984,-0.0265 0.16139583,0.16139583 0 0 1 0,-0.037 l 0.3175,-1.73831 -0.0953,-0.52917 -0.22489,0.77258 a 0.111125,0.111125 0 0 1 -0.21431,-0.037 0.1349375,0.1349375 0 0 1 0,-0.0344 z"
       id="path292"
       style="stroke-width:0.264583" />
    <path
       d="m 104.3877,110.41481 h -1.19856 v -0.21961 h -0.11642 v -0.50006 h -0.26458 v 0.50006 h -0.11642 v 0.22225 h -1.21444 v 4.83923 h 1.2118 v 0.27781 h 0.11641 v 0.50271 h 0.26459 v -0.50271 h 0.11906 v -0.27781 h 1.21179 z m -0.26458,4.58258 h -2.39184 v -4.32858 h 2.40242 z"
       id="path294"
       style="stroke-width:0.264583" />
  </g>
</svg>
