<?xml version="1.0" encoding="UTF-8" standalone="no"?>
<!-- Created with Inkscape (http://www.inkscape.org/) -->

<svg
   width="7.500937mm"
   height="7.498292mm"
   viewBox="0 0 7.500937 7.498292"
   version="1.1"
   id="svg7981"
   inkscape:version="1.1 (c68e22c387, 2021-05-23)"
   sodipodi:docname="brandmandspanel.svg"
   xmlns:inkscape="http://www.inkscape.org/namespaces/inkscape"
   xmlns:sodipodi="http://sodipodi.sourceforge.net/DTD/sodipodi-0.dtd"
   xmlns="http://www.w3.org/2000/svg"
   xmlns:svg="http://www.w3.org/2000/svg">
  <sodipodi:namedview
     id="namedview7983"
     pagecolor="#ffffff"
     bordercolor="#666666"
     borderopacity="1.0"
     inkscape:pageshadow="2"
     inkscape:pageopacity="0.0"
     inkscape:pagecheckerboard="0"
     inkscape:document-units="mm"
     showgrid="false"
     fit-margin-top="0"
     fit-margin-left="0"
     fit-margin-right="0"
     fit-margin-bottom="0"
     inkscape:zoom="11.859035"
     inkscape:cx="16.864779"
     inkscape:cy="19.858277"
     inkscape:window-width="1920"
     inkscape:window-height="1017"
     inkscape:window-x="1912"
     inkscape:window-y="-8"
     inkscape:window-maximized="1"
     inkscape:current-layer="layer1" />
  <defs
     id="defs7978" />
  <g
     inkscape:label="Lag 1"
     inkscape:groupmode="layer"
     id="layer1"
     transform="translate(24.454796,-31.234034)">
    <rect
       class="cls-3"
       x="-24.208733"
       y="31.477449"
       width="7.0088124"
       height="7.0088124"
       id="rect3526"
       style="fill:#ffffff;stroke-width:0.264583" />
    <path
       class="cls-14"
       d="m -16.953859,38.732326 h -7.500937 v -7.498292 h 7.500937 z m -7.006166,-0.489479 h 6.516687 v -6.519333 h -6.516687 z"
       id="path3528"
       style="fill:#bc2231;stroke-width:0.264583" />
    <path
       class="cls-15"
       d="m -23.166275,35.639347 0.677333,-1.759479 h 0.248708 l 0.719667,1.759479 h -0.264583 l -0.203729,-0.529167 h -0.735542 l -0.193146,0.529167 z m 0.508,-0.722313 h 0.597958 l -0.185208,-0.486833 c -0.05556,-0.148167 -0.0979,-0.264583 -0.124354,-0.365125 a 1.9314583,1.9314583 0 0 1 -0.09525,0.336021 z"
       id="path3530"
       style="fill:#030303;stroke-width:0.264583" />
    <path
       class="cls-15"
       d="m -21.343296,35.639347 v -1.759479 h 0.658812 a 0.85195832,0.85195832 0 0 1 0.325438,0.05292 0.44185416,0.44185416 0 0 1 0.1905,0.164042 0.44714583,0.44714583 0 0 1 0.06879,0.232833 0.40216666,0.40216666 0 0 1 -0.06086,0.211667 0.44449999,0.44449999 0 0 1 -0.185208,0.161396 0.47624999,0.47624999 0 0 1 0.246063,0.15875 0.44185416,0.44185416 0 0 1 0.08467,0.264583 0.52916666,0.52916666 0 0 1 -0.05292,0.230188 0.45243749,0.45243749 0 0 1 -0.127,0.164041 0.61912499,0.61912499 0 0 1 -0.193146,0.08731 1.2250208,1.2250208 0 0 1 -0.283104,0.0291 z m 0.232833,-1.021292 h 0.381 a 0.88899999,0.88899999 0 0 0 0.22225,-0.01852 0.26458333,0.26458333 0 0 0 0.132292,-0.08731 0.24870833,0.24870833 0 0 0 0.04498,-0.156104 0.28045833,0.28045833 0 0 0 -0.04233,-0.153459 0.19579166,0.19579166 0 0 0 -0.119063,-0.08996 1.031875,1.031875 0 0 0 -0.264583,-0.02381 h -0.354542 z m 0,0.812271 h 0.439209 a 1.0292292,1.0292292 0 0 0 0.156104,0 0.35189583,0.35189583 0 0 0 0.134937,-0.04763 0.24870833,0.24870833 0 0 0 0.08996,-0.0979 0.33072916,0.33072916 0 0 0 0.03439,-0.148167 0.31220833,0.31220833 0 0 0 -0.05027,-0.171979 0.26458333,0.26458333 0 0 0 -0.14023,-0.100541 0.89693749,0.89693749 0 0 0 -0.264583,-0.02911 h -0.399521 z"
       id="path3532"
       style="fill:#030303;stroke-width:0.264583" />
    <path
       class="cls-15"
       d="m -19.888088,35.639347 0.674688,-1.759479 h 0.264583 l 0.719667,1.759479 h -0.264584 l -0.206375,-0.529167 h -0.746125 l -0.193145,0.529167 z m 0.508,-0.722313 h 0.595313 l -0.182563,-0.486833 c -0.05556,-0.148167 -0.0979,-0.264583 -0.124354,-0.365125 a 2.5452916,2.5452916 0 0 1 -0.09525,0.336021 z"
       id="path3534"
       style="fill:#030303;stroke-width:0.264583" />
  </g>
</svg>
