<?xml version="1.0" encoding="UTF-8" standalone="no"?>
<!-- Created with Inkscape (http://www.inkscape.org/) -->

<svg
   width="4.5032086mm"
   height="4.503212mm"
   viewBox="0 0 4.5032086 4.503212"
   version="1.1"
   id="svg8087"
   inkscape:version="1.1 (c68e22c387, 2021-05-23)"
   sodipodi:docname="doer_el_30.svg"
   xmlns:inkscape="http://www.inkscape.org/namespaces/inkscape"
   xmlns:sodipodi="http://sodipodi.sourceforge.net/DTD/sodipodi-0.dtd"
   xmlns="http://www.w3.org/2000/svg"
   xmlns:svg="http://www.w3.org/2000/svg">
  <sodipodi:namedview
     id="namedview8089"
     pagecolor="#ffffff"
     bordercolor="#666666"
     borderopacity="1.0"
     inkscape:pageshadow="2"
     inkscape:pageopacity="0.0"
     inkscape:pagecheckerboard="0"
     inkscape:document-units="mm"
     showgrid="false"
     fit-margin-top="0"
     fit-margin-left="0"
     fit-margin-right="0"
     fit-margin-bottom="0"
     inkscape:zoom="0.74118967"
     inkscape:cx="126.82314"
     inkscape:cy="127.49773"
     inkscape:window-width="1920"
     inkscape:window-height="1017"
     inkscape:window-x="-8"
     inkscape:window-y="-8"
     inkscape:window-maximized="1"
     inkscape:current-layer="layer1" />
  <defs
     id="defs8084" />
  <g
     inkscape:label="Lag 1"
     inkscape:groupmode="layer"
     id="layer1"
     transform="translate(-71.284454,-114.83493)">
    <circle
       class="cls-3"
       cx="73.538704"
       cy="117.08389"
       r="2.2489583"
       id="circle1534"
       style="fill:#ffffff;stroke-width:0.264583" />
    <path
       class="cls-9"
       d="m 73.538704,115.21065 a 1.8758958,1.8758958 0 1 1 -1.875896,1.87589 1.8785416,1.8785416 0 0 1 1.875896,-1.87589 m 0,-0.37571 a 2.2516041,2.2516041 0 1 0 2.248958,2.2516 2.2516041,2.2516041 0 0 0 -2.248958,-2.2516 z"
       id="path1536"
       style="fill:#ed2224;stroke-width:0.264583" />
    <path
       class="cls-7"
       d="m 74.377433,117.93585 v 0.29898 h -1.677459 a 0.52916666,0.52916666 0 0 1 0.03704,-0.21431 1.143,1.143 0 0 1 0.203729,-0.33867 3.3125833,3.3125833 0 0 1 0.407459,-0.38364 3.3390416,3.3390416 0 0 0 0.55827,-0.52917 0.63764583,0.63764583 0 0 0 0.145521,-0.37571 0.40745833,0.40745833 0 0 0 -0.132291,-0.30956 0.46566666,0.46566666 0 0 0 -0.343959,-0.12965 0.48418749,0.48418749 0 0 0 -0.359833,0.13494 0.52916666,0.52916666 0 0 0 -0.137583,0.37571 l -0.320146,-0.0344 a 0.79374999,0.79374999 0 0 1 0.248708,-0.54504 0.84402082,0.84402082 0 0 1 0.574146,-0.18785 0.80962499,0.80962499 0 0 1 0.579437,0.20108 0.67204166,0.67204166 0 0 1 0.211667,0.50271 0.79374999,0.79374999 0 0 1 -0.06085,0.29898 1.2091458,1.2091458 0 0 1 -0.206375,0.30956 5.3181249,5.3181249 0 0 1 -0.481542,0.44715 4.3629791,4.3629791 0 0 0 -0.359833,0.32014 1.0424583,1.0424583 0 0 0 -0.132292,0.16669 z"
       id="path1538"
       style="fill:#010101;stroke-width:0.264583" />
  </g>
</svg>
