<?xml version="1.0" encoding="UTF-8" standalone="no"?>
<!-- Created with Inkscape (http://www.inkscape.org/) -->

<svg
   width="4.5032201mm"
   height="4.503212mm"
   viewBox="0 0 4.5032201 4.503212"
   version="1.1"
   id="svg8197"
   inkscape:version="1.1 (c68e22c387, 2021-05-23)"
   sodipodi:docname="doer_el_60c.svg"
   xmlns:inkscape="http://www.inkscape.org/namespaces/inkscape"
   xmlns:sodipodi="http://sodipodi.sourceforge.net/DTD/sodipodi-0.dtd"
   xmlns="http://www.w3.org/2000/svg"
   xmlns:svg="http://www.w3.org/2000/svg">
  <sodipodi:namedview
     id="namedview8199"
     pagecolor="#ffffff"
     bordercolor="#666666"
     borderopacity="1.0"
     inkscape:pageshadow="2"
     inkscape:pageopacity="0.0"
     inkscape:pagecheckerboard="0"
     inkscape:document-units="mm"
     showgrid="false"
     fit-margin-top="0"
     fit-margin-left="0"
     fit-margin-right="0"
     fit-margin-bottom="0"
     inkscape:zoom="0.74118967"
     inkscape:cx="-36.427922"
     inkscape:cy="92.418988"
     inkscape:window-width="1920"
     inkscape:window-height="1017"
     inkscape:window-x="-8"
     inkscape:window-y="-8"
     inkscape:window-maximized="1"
     inkscape:current-layer="layer1" />
  <defs
     id="defs8194" />
  <g
     inkscape:label="Lag 1"
     inkscape:groupmode="layer"
     id="layer1"
     transform="translate(-114.47796,-124.11618)">
    <circle
       class="cls-3"
       cx="116.73222"
       cy="126.36514"
       r="2.2489583"
       id="circle1540"
       style="fill:#ffffff;stroke-width:0.264583" />
    <path
       class="cls-9"
       d="m 116.73221,124.49189 a 1.8758958,1.8758958 0 1 1 -1.87589,1.8759 1.8785416,1.8785416 0 0 1 1.87589,-1.8759 m 0,-0.3757 a 2.2516041,2.2516041 0 1 0 2.24896,2.2516 2.2516041,2.2516041 0 0 0 -2.24896,-2.2516 z"
       id="path1542"
       style="fill:#ed2224;stroke-width:0.264583" />
    <path
       class="cls-7"
       d="m 115.90142,126.84669 0.31221,-0.0397 a 0.67733332,0.67733332 0 0 0 0.18256,0.381 0.45243749,0.45243749 0 0 0 0.31221,0.11641 0.49212499,0.49212499 0 0 0 0.37042,-0.15345 0.50535416,0.50535416 0 0 0 0.15346,-0.37571 0.48154166,0.48154166 0 0 0 -0.14023,-0.35454 0.49212499,0.49212499 0 0 0 -0.35719,-0.13759 0.85989582,0.85989582 0 0 0 -0.2196,0.0344 l 0.0344,-0.26458 h 0.0503 a 0.62177083,0.62177083 0 0 0 0.35719,-0.10584 0.35454166,0.35454166 0 0 0 0.15875,-0.32014 0.381,0.381 0 0 0 -0.11377,-0.28311 0.41804166,0.41804166 0 0 0 -0.29898,-0.10848 0.42597916,0.42597916 0 0 0 -0.30427,0.11377 0.58737499,0.58737499 0 0 0 -0.1561,0.34132 l -0.30957,-0.0556 a 0.79374999,0.79374999 0 0 1 0.26459,-0.48418 0.75141666,0.75141666 0 0 1 0.5027,-0.17198 0.80962499,0.80962499 0 0 1 0.381,0.09 0.62970833,0.62970833 0 0 1 0.26459,0.24341 0.59531249,0.59531249 0 0 1 0.0926,0.32544 0.52916666,0.52916666 0 0 1 -0.0873,0.29898 0.59266666,0.59266666 0 0 1 -0.26458,0.21431 0.57414583,0.57414583 0 0 1 0.34925,0.21696 0.64029166,0.64029166 0 0 1 0.127,0.40746 0.74877082,0.74877082 0 0 1 -0.24342,0.56356 0.85195832,0.85195832 0 0 1 -0.61119,0.23019 0.79374999,0.79374999 0 0 1 -0.55562,-0.19844 0.76464582,0.76464582 0 0 1 -0.25136,-0.52387 z"
       id="path1544"
       style="fill:#010101;stroke-width:0.264583" />
  </g>
</svg>
