<?xml version="1.0" encoding="UTF-8" standalone="no"?>
<!-- Created with Inkscape (http://www.inkscape.org/) -->

<svg
   width="7.5009398mm"
   height="7.500936mm"
   viewBox="0 0 7.5009398 7.5009361"
   version="1.1"
   id="svg8311"
   inkscape:version="1.1 (c68e22c387, 2021-05-23)"
   sodipodi:docname="erstatningsluft_mekanisk.svg"
   xmlns:inkscape="http://www.inkscape.org/namespaces/inkscape"
   xmlns:sodipodi="http://sodipodi.sourceforge.net/DTD/sodipodi-0.dtd"
   xmlns="http://www.w3.org/2000/svg"
   xmlns:svg="http://www.w3.org/2000/svg">
  <sodipodi:namedview
     id="namedview8313"
     pagecolor="#ffffff"
     bordercolor="#666666"
     borderopacity="1.0"
     inkscape:pageshadow="2"
     inkscape:pageopacity="0.0"
     inkscape:pagecheckerboard="0"
     inkscape:document-units="mm"
     showgrid="false"
     fit-margin-top="0"
     fit-margin-left="0"
     fit-margin-right="0"
     fit-margin-bottom="0"
     inkscape:zoom="8"
     inkscape:cx="47.25"
     inkscape:cy="18.0625"
     inkscape:window-width="1920"
     inkscape:window-height="1017"
     inkscape:window-x="-8"
     inkscape:window-y="-8"
     inkscape:window-maximized="1"
     inkscape:current-layer="layer1" />
  <defs
     id="defs8308" />
  <g
     inkscape:label="Lag 1"
     inkscape:groupmode="layer"
     id="layer1"
     transform="translate(-125.6508,-93.308224)">
    <g
       id="g1276">
      <rect
         class="cls-3"
         x="125.89687"
         y="93.551643"
         width="7.0088124"
         height="7.0088124"
         id="rect4644"
         style="fill:#ffffff;stroke-width:0.264583" />
      <path
         class="cls-14"
         d="m 125.6508,93.308224 v 7.500936 h 7.50094 v -7.500936 z m 0.49212,0.48948 h 6.51934 v 1.852083 h -6.51669 z m 6.51934,6.519336 h -6.51669 v -4.183066 h 6.51669 z"
         id="path4646"
         style="fill:#bc2231;stroke-width:0.264583" />
      <path
         class="cls-16"
         d="m 129.82592,98.515224 a 2.38125,2.38125 0 0 1 -0.5715,-0.264583 0.2460625,0.2460625 0 0 0 0.0476,-0.134937 0.74347916,0.74347916 0 0 0 0.86254,-0.264584 0.75141666,0.75141666 0 0 0 -0.1561,-1.039812 2.0611041,2.0611041 0 0 1 -0.33602,0.66675 2.2357291,2.2357291 0 0 1 -0.42598,0.463021 0.24870833,0.24870833 0 0 0 -0.11907,-0.08202 0.74612499,0.74612499 0 0 0 -1.00806,-1.082146 2.1166666,2.1166666 0 0 1 0.52917,0.529167 2.2568958,2.2568958 0 0 1 0.30956,0.55827 0.26458333,0.26458333 0 0 0 -0.11112,0.08731 0.74612499,0.74612499 0 0 0 -1.34409,0.616479 2.0716875,2.0716875 0 0 1 0.66146,-0.341312 2.2992291,2.2992291 0 0 1 0.62971,-0.124355 0.24341666,0.24341666 0 0 0 0.045,0.134938 0.74612499,0.74612499 0 0 0 0.17198,1.471083 2.1404791,2.1404791 0 0 1 -0.11907,-0.735541 2.25425,2.25425 0 0 1 0.0741,-0.632355 0.2301875,0.2301875 0 0 0 0.0847,0.01588 0.2460625,0.2460625 0 0 0 0.0582,0 0.74612499,0.74612499 0 0 0 1.45257,0.277813 2.0875625,2.0875625 0 0 1 -0.73555,-0.119063 z"
         id="path4648"
         style="fill:#2179bc;stroke-width:0.264583" />
      <path
         class="cls-13"
         d="m 131.78913,97.353704 -0.82021,-0.582084 -0.0926,1.002771 0.39158,-0.179917 a 1.9711458,1.9711458 0 0 1 -0.39687,1.629834 l 0.0979,0.07938 a 2.0928541,2.0928541 0 0 0 0.4154,-1.764771 z"
         id="path4650"
         style="fill:#020202;stroke-width:0.264583" />
    </g>
  </g>
</svg>
