<?xml version="1.0" encoding="UTF-8" standalone="no"?>
<!-- Created with Inkscape (http://www.inkscape.org/) -->

<svg
   width="7.5009398mm"
   height="7.4982872mm"
   viewBox="0 0 7.5009398 7.4982872"
   version="1.1"
   id="svg8311"
   inkscape:version="1.1 (c68e22c387, 2021-05-23)"
   sodipodi:docname="inverter.svg"
   xmlns:inkscape="http://www.inkscape.org/namespaces/inkscape"
   xmlns:sodipodi="http://sodipodi.sourceforge.net/DTD/sodipodi-0.dtd"
   xmlns="http://www.w3.org/2000/svg"
   xmlns:svg="http://www.w3.org/2000/svg">
  <sodipodi:namedview
     id="namedview8313"
     pagecolor="#ffffff"
     bordercolor="#666666"
     borderopacity="1.0"
     inkscape:pageshadow="2"
     inkscape:pageopacity="0.0"
     inkscape:pagecheckerboard="0"
     inkscape:document-units="mm"
     showgrid="false"
     fit-margin-top="0"
     fit-margin-left="0"
     fit-margin-right="0"
     fit-margin-bottom="0"
     inkscape:zoom="1"
     inkscape:cx="144"
     inkscape:cy="-3.5"
     inkscape:window-width="1920"
     inkscape:window-height="1017"
     inkscape:window-x="-8"
     inkscape:window-y="-8"
     inkscape:window-maximized="1"
     inkscape:current-layer="layer1" />
  <defs
     id="defs8308" />
  <g
     inkscape:label="Lag 1"
     inkscape:groupmode="layer"
     id="layer1"
     transform="translate(-126.90097,-94.060953)">
    <rect
       class="cls-3"
       x="127.14703"
       y="94.304375"
       width="7.0088124"
       height="7.0088124"
       id="rect3536"
       style="fill:#ffffff;stroke-width:0.264583" />
    <path
       class="cls-14"
       d="m 134.40191,101.55924 h -7.50094 v -7.498287 h 7.50094 z m -7.00617,-0.48947 h 6.51669 v -6.519337 h -6.51669 z"
       id="path3538"
       style="fill:#bc2231;stroke-width:0.264583" />
    <g
       id="g908"
       transform="matrix(0.01572609,0,0,0.01554242,127.53757,94.665602)">
      <path
         id="path0"
         d="m 112.611,10.785 c -0.907,0.143 -2.199,0.538 -2.87,0.876 -1.946,0.98 -40.969,40.11 -42.181,42.296 l -1.013,1.828 -0.092,145.282 c -0.083,131.684 -0.038,145.467 0.477,147.264 0.629,2.195 39.189,41.536 42.844,43.712 l 1.614,0.961 88.24,0.093 c 80.662,0.085 88.394,0.042 90.045,-0.491 2.499,-0.808 41.908,-39.915 43.522,-43.189 l 0.973,-1.973 V 201.794 56.143 l -0.765,-1.655 c -0.746,-1.613 -38.063,-39.464 -41.468,-42.061 -2.794,-2.13 2.616,-2.015 -91.399,-1.957 -47.453,0.029 -87.02,0.171 -87.927,0.315 m 186.132,35.222 16.235,16.232 v 139.558 139.557 l -16.412,16.408 -16.412,16.408 h -81.9 -81.9 L 102.047,357.83 85.74,341.489 V 201.867 62.245 L 101.972,46.01 118.203,29.776 h 82.153 82.152 l 16.235,16.231 M 188.879,58.858 c -17.44,1.745 -33.488,6.2 -47.285,13.126 l -3.16,1.587 0.689,1.151 c 0.379,0.634 2.35,4.381 4.38,8.327 2.03,3.947 3.724,7.219 3.763,7.272 0.04,0.053 1.832,-0.726 3.982,-1.732 42.681,-19.973 94.243,-11.89 127.509,19.987 l 1.626,1.559 6.782,-6.816 6.782,-6.816 -2.669,-2.456 C 263.657,68.628 224.772,55.266 188.879,58.858 m -73.363,29.826 c -6.699,5.506 -17.985,16.872 -17.916,18.042 0.021,0.359 12.248,10.664 13.803,11.634 0.768,0.48 0.887,0.433 1.823,-0.717 2.929,-3.601 10.121,-10.524 16.224,-15.618 l 0.904,-0.755 -5.683,-7.421 c -3.126,-4.082 -5.779,-7.478 -5.895,-7.547 -0.116,-0.068 -1.583,1.003 -3.26,2.382 m 129.805,17.929 c -1.294,0.344 -4.695,2.837 -20.226,14.822 -4.091,3.157 -9.648,7.435 -12.349,9.507 -14.111,10.824 -18.366,14.096 -24.764,19.041 -3.847,2.973 -9.175,7.074 -11.839,9.113 -6.01,4.601 -16.789,12.888 -22.639,17.406 -2.427,1.875 -5.567,4.296 -6.979,5.381 -1.411,1.086 -6.019,4.629 -10.24,7.875 -4.222,3.246 -9.37,7.189 -11.442,8.763 -7.93,6.024 -8.614,6.665 -9.759,9.155 -1.607,3.498 -0.445,8.781 2.411,10.959 3.212,2.45 1.887,2.335 26.989,2.344 12.48,0.004 22.691,0.141 22.691,0.304 0,0.163 -2.999,8.275 -6.665,18.027 -3.666,9.752 -7.285,19.425 -8.042,21.497 -0.758,2.072 -3.182,8.529 -5.388,14.35 -3.421,9.026 -4.015,10.899 -4.038,12.735 -0.106,8.546 9.436,12.536 16.399,6.858 0.801,-0.652 2.828,-2.233 4.505,-3.511 5.624,-4.287 12.301,-9.418 23.281,-17.892 5.997,-4.628 12.293,-9.472 13.991,-10.766 4.688,-3.571 11.305,-8.662 23.309,-17.933 5.992,-4.628 11.723,-9.05 12.735,-9.827 1.013,-0.777 9.412,-7.235 18.665,-14.35 9.254,-7.116 18.456,-14.176 20.449,-15.69 6.992,-5.311 7.884,-6.127 8.915,-8.164 1.96,-3.869 1.003,-8.935 -2.162,-11.442 -3.174,-2.514 -1.772,-2.384 -26.934,-2.497 -21.264,-0.096 -22.719,-0.142 -22.563,-0.718 0.136,-0.505 2.883,-7.944 7.843,-21.243 0.405,-1.085 0.943,-2.538 1.196,-3.228 0.253,-0.691 1.123,-2.951 1.932,-5.023 8.006,-20.486 12.975,-34.543 12.972,-36.692 -0.01,-6.427 -5.923,-10.847 -12.254,-9.161 m -26.703,60.6 c -4.845,12.926 -8.581,23.415 -8.67,24.344 -0.344,3.577 1.668,7.295 4.94,9.13 l 1.973,1.107 15.782,0.179 15.782,0.179 -5.379,4.104 c -2.958,2.258 -8.427,6.455 -12.154,9.328 -3.727,2.873 -7.931,6.111 -9.344,7.196 -1.412,1.085 -4.554,3.507 -6.982,5.381 -2.429,1.875 -5.65,4.354 -7.159,5.511 -1.509,1.156 -6.762,5.192 -11.674,8.968 -4.912,3.777 -9.755,7.499 -10.762,8.273 -1.008,0.773 -3.85,2.959 -6.316,4.858 -4.782,3.681 -5.608,4.265 -5.299,3.746 0.594,-0.998 17.209,-45.869 17.384,-46.949 0.339,-2.086 -0.782,-5.524 -2.428,-7.449 -2.652,-3.103 -2.933,-3.146 -20.612,-3.146 -8.379,0 -15.227,-0.121 -15.22,-0.269 0.008,-0.148 2.13,-1.883 4.717,-3.856 2.586,-1.974 6.656,-5.093 9.044,-6.933 2.388,-1.84 7.49,-5.754 11.337,-8.699 3.848,-2.945 10.144,-7.786 13.992,-10.758 8.199,-6.333 13.039,-10.054 22.6,-17.375 3.848,-2.946 8.278,-6.367 9.845,-7.603 1.567,-1.236 2.909,-2.187 2.983,-2.113 0.073,0.073 -3.698,10.354 -8.38,22.846 m 66.976,121.042 c -3.082,3.521 -8.119,8.337 -12.277,11.741 l -2.378,1.947 4.469,5.71 c 2.459,3.141 5.057,6.477 5.774,7.414 0.716,0.937 1.419,1.704 1.562,1.704 1.511,0 20.395,-18.291 20.395,-19.756 0,-0.127 -2.043,-1.909 -4.541,-3.96 -2.497,-2.05 -4.721,-3.889 -4.941,-4.086 -1.486,-1.332 -4.834,-4.126 -4.943,-4.126 -0.073,0 -1.477,1.536 -3.12,3.412 m -171.454,13.001 -6.47,6.726 1.143,1.199 c 0.628,0.659 2.918,2.696 5.088,4.526 40.142,33.849 96.267,41.208 143.588,18.826 2.417,-1.143 4.394,-2.249 4.394,-2.458 0,-0.209 -1.591,-3.409 -3.536,-7.111 -1.945,-3.702 -3.87,-7.387 -4.278,-8.188 l -0.741,-1.458 -3.893,1.865 c -41.057,19.672 -90.953,12.529 -125.309,-17.938 -1.678,-1.488 -3.155,-2.707 -3.283,-2.71 -0.129,-0.003 -3.145,3.021 -6.703,6.721"
         stroke="none"
         fill="#040404"
         fill-rule="evenodd" />
    </g>
  </g>
</svg>
