<?xml version="1.0" encoding="UTF-8" standalone="no"?>
<!-- Created with Inkscape (http://www.inkscape.org/) -->

<svg
   width="1.0637678mm"
   height="1.3849894mm"
   viewBox="0 0 1.0637678 1.3849894"
   version="1.1"
   id="svg8946"
   inkscape:version="1.1 (c68e22c387, 2021-05-23)"
   sodipodi:docname="otv_ats.svg"
   xmlns:inkscape="http://www.inkscape.org/namespaces/inkscape"
   xmlns:sodipodi="http://sodipodi.sourceforge.net/DTD/sodipodi-0.dtd"
   xmlns="http://www.w3.org/2000/svg"
   xmlns:svg="http://www.w3.org/2000/svg">
  <sodipodi:namedview
     id="namedview8948"
     pagecolor="#ffffff"
     bordercolor="#666666"
     borderopacity="1.0"
     inkscape:pageshadow="2"
     inkscape:pageopacity="0.0"
     inkscape:pagecheckerboard="0"
     inkscape:document-units="mm"
     showgrid="false"
     fit-margin-top="0"
     fit-margin-left="0"
     fit-margin-right="0"
     fit-margin-bottom="0"
     inkscape:zoom="0.74118967"
     inkscape:cx="28.332829"
     inkscape:cy="41.150061"
     inkscape:window-width="1920"
     inkscape:window-height="1017"
     inkscape:window-x="-8"
     inkscape:window-y="-8"
     inkscape:window-maximized="1"
     inkscape:current-layer="layer1" />
  <defs
     id="defs8943" />
  <g
     inkscape:label="Lag 1"
     inkscape:groupmode="layer"
     id="layer1"
     transform="translate(-97.278215,-137.81229)">
    <path
       class="cls-15"
       d="m 97.278215,139.19717 v -1.38378 h 0.529167 a 0.61912499,0.61912499 0 0 1 0.264583,0.0423 0.30691666,0.30691666 0 0 1 0.148167,0.12964 0.33602083,0.33602083 0 0 1 0.05556,0.18257 0.32014583,0.32014583 0 0 1 -0.04762,0.16668 0.34395833,0.34395833 0 0 1 -0.145521,0.127 0.36777083,0.36777083 0 0 1 0.193146,0.12436 0.333375,0.333375 0 0 1 0.06615,0.20902 0.41804166,0.41804166 0 0 1 -0.03969,0.18256 0.33602083,0.33602083 0 0 1 -0.103187,0.127 0.396875,0.396875 0 0 1 -0.150813,0.0688 0.89164582,0.89164582 0 0 1 -0.22225,0.0238 z m 0.182562,-0.79375 h 0.306917 a 0.69320832,0.69320832 0 0 0 0.174625,-0.0159 0.1984375,0.1984375 0 0 0 0.103188,-0.0688 0.206375,0.206375 0 0 0 0.03704,-0.12171 0.21166666,0.21166666 0 0 0 -0.0344,-0.12171 0.1666875,0.1666875 0 0 0 -0.0926,-0.0714 0.79374999,0.79374999 0 0 0 -0.211666,-0.0185 h -0.264584 z m 0,0.63764 h 0.346605 0.124354 a 0.35454166,0.35454166 0 0 0 0.105833,-0.037 0.20372916,0.20372916 0 0 0 0.06879,-0.0794 0.2301875,0.2301875 0 0 0 0.0291,-0.11641 0.238125,0.238125 0 0 0 -0.03969,-0.13494 0.21695833,0.21695833 0 0 0 -0.111125,-0.0794 0.66674999,0.66674999 0 0 0 -0.203729,-0.0238 h -0.320146 z"
       id="path3638"
       style="fill:#030303;stroke-width:0.264583" />
  </g>
</svg>
