<?xml version="1.0" encoding="UTF-8" standalone="no"?>
<!-- Created with Inkscape (http://www.inkscape.org/) -->

<svg
   width="7.500937mm"
   height="7.500937mm"
   viewBox="0 0 7.500937 7.500937"
   version="1.1"
   id="svg7981"
   inkscape:version="1.1 (c68e22c387, 2021-05-23)"
   sodipodi:docname="overrislinganl.svg"
   xmlns:inkscape="http://www.inkscape.org/namespaces/inkscape"
   xmlns:sodipodi="http://sodipodi.sourceforge.net/DTD/sodipodi-0.dtd"
   xmlns="http://www.w3.org/2000/svg"
   xmlns:svg="http://www.w3.org/2000/svg">
  <sodipodi:namedview
     id="namedview7983"
     pagecolor="#ffffff"
     bordercolor="#666666"
     borderopacity="1.0"
     inkscape:pageshadow="2"
     inkscape:pageopacity="0.0"
     inkscape:pagecheckerboard="0"
     inkscape:document-units="mm"
     showgrid="false"
     fit-margin-top="0"
     fit-margin-left="0"
     fit-margin-right="0"
     fit-margin-bottom="0"
     inkscape:zoom="2.3967268"
     inkscape:cx="-73.433485"
     inkscape:cy="2.7120321"
     inkscape:window-width="1920"
     inkscape:window-height="1017"
     inkscape:window-x="-8"
     inkscape:window-y="-8"
     inkscape:window-maximized="1"
     inkscape:current-layer="layer1" />
  <defs
     id="defs7978" />
  <g
     inkscape:label="Lag 1"
     inkscape:groupmode="layer"
     id="layer1"
     transform="translate(24.399836,-31.249969)">
    <rect
       class="cls-3"
       x="17.142315"
       y="-38.494244"
       width="7.0088124"
       height="7.0088124"
       transform="scale(-1)"
       id="rect4692"
       style="fill:#ffffff;stroke-width:0.264583" />
    <path
       class="cls-6"
       d="m -16.898899,38.750906 h -7.500937 v -7.500937 h 7.500937 z m -7.006166,-0.500062 h 6.516687 V 31.73151 h -6.516687 z"
       id="path4694"
       style="fill:#b51f33;stroke-width:0.264583" />
    <g
       id="g130"
       transform="matrix(0.10912238,0,0,0.10912238,-18.551473,31.025947)">
      <path
         style="fill:#020202;stroke:none;stroke-width:0.264583"
         d="m -44.333039,11.235616 c -3.12169,1.266598 -2.862243,5.805595 0.321121,6.823911 20.855529,0.02176 31.05522,0.03471 50.1096727,0.0116 2.6711698,-1.10543 2.9763005,-5.574563 -0.1112811,-6.926441 -21.8807216,0.07731 -22.6679546,0.03835 -50.3195126,0.09093 z"
         id="path12"
         sodipodi:nodetypes="ccccc" />
      <path
         style="fill:#020202;stroke:none;stroke-width:0.264583"
         d="m -28.669974,23.506421 c -0.739748,1.208458 -1.559348,2.421017 -2.163207,3.704167 -2.691553,5.719233 5.672349,7.993327 5.045869,1.5875 -0.0962,-0.983589 -0.549831,-1.801495 -1.03079,-2.645833 -0.548746,-0.963401 -1.034495,-1.890686 -1.851872,-2.645834 m 9.525,0 c -0.732367,1.007983 -1.363927,2.073434 -1.947333,3.175 -0.479425,0.905616 -0.954617,1.859413 -0.926836,2.910417 0.125942,4.795308 6.34074,3.929988 5.734579,-0.79375 -0.111918,-0.871538 -0.519112,-1.62261 -0.937154,-2.38125 -0.563562,-1.023012 -1.122627,-2.058062 -1.923256,-2.910417 z"
         id="path94" />
      <path
         style="fill:#020202;stroke:none;stroke-width:0.264583"
         d="m -9.8845575,23.506421 c -1.1718395,2.224643 -3.5178995,5.008721 -2.3074315,7.669027 1.524794,3.351927 5.6591731,1.364959 5.4506815,-1.848193 -0.1394355,-2.150454 -1.7361959,-3.942795 -2.6140833,-5.820834 z"
         id="path100" />
      <path
         style="fill:#020202;stroke:none;stroke-width:0.264583"
         d="m -33.432474,36.471004 c -0.719058,1.522148 -1.804961,2.893219 -2.352675,4.497917 -0.726466,2.128573 0.403093,6.191779 3.406934,5.020733 4.158006,-1.621102 0.984065,-7.542212 -1.054259,-9.51865 m 9.525,0 c -0.738399,1.2065 -1.506564,2.42914 -2.121773,3.704167 -0.390102,0.808567 -0.745437,1.733815 -0.684318,2.645833 0.316626,4.725723 6.113912,3.765286 5.688462,-0.79375 -0.08943,-0.959643 -0.529961,-1.805252 -0.972344,-2.645833 -0.542131,-1.030287 -1.112573,-2.061369 -1.910027,-2.910417 z"
         id="path352" />
      <path
         style="fill:#020202;stroke:none;stroke-width:0.264583"
         d="m -5.1220576,36.471004 c -0.7191375,1.522148 -1.8049874,2.893219 -2.3526749,4.497917 -1.8973271,5.558896 5.8864499,6.83551 5.4681437,1.322917 -0.079111,-1.0414 -0.6058959,-2.019829 -1.1120438,-2.910417 -0.5847291,-1.028435 -1.1535833,-2.086239 -2.003425,-2.910417 z"
         id="path360" />
      <path
         style="fill:#020202;stroke:none;stroke-width:0.264583"
         d="m -14.647057,36.735588 c -0.89535,1.682221 -2.244196,3.368675 -2.557727,5.291666 -0.436034,2.673615 2.576512,5.744898 4.828116,3.139811 2.226204,-2.575719 -0.337344,-6.13754 -1.741223,-8.431477 z"
         id="path370" />
      <path
         style="fill:#020202;stroke:none;stroke-width:0.264583"
         d="m -28.669974,49.435588 c -0.713449,1.209675 -1.495954,2.427816 -2.083805,3.704166 -2.694385,5.850731 5.600805,7.989358 4.966467,1.5875 -0.08848,-0.892704 -0.479108,-1.618985 -0.925857,-2.38125 -0.592825,-1.011502 -1.121621,-2.086504 -1.956805,-2.910416 z"
         id="path768" />
      <path
         style="fill:#020202;stroke:none;stroke-width:0.264583"
         d="m -19.144974,49.435588 c -0.76835,1.079235 -1.417373,2.264833 -2.032,3.439583 -0.467783,0.894556 -0.890852,1.879335 -0.840052,2.910417 0.222514,4.515114 6.274858,3.718454 5.733256,-0.79375 -0.103187,-0.859103 -0.448469,-1.629569 -0.859896,-2.38125 -0.597693,-1.09273 -1.18401,-2.234142 -2.001308,-3.175 z"
         id="path772" />
      <path
         style="fill:#020202;stroke:none;stroke-width:0.264583"
         d="m -9.8845575,49.435588 c -0.6717775,1.557073 -1.8110725,2.881048 -2.3534685,4.497916 -0.802217,2.391834 0.827881,6.427259 3.9264164,4.755092 3.4872083,-1.881717 0.4624917,-7.509404 -1.5729479,-9.253008 z"
         id="path776" />
    </g>
  </g>
</svg>
