<?xml version="1.0" encoding="UTF-8" standalone="no"?>
<!-- Created with Inkscape (http://www.inkscape.org/) -->

<svg
   width="7.5009398mm"
   height="7.5009298mm"
   viewBox="0 0 7.5009396 7.5009298"
   version="1.1"
   id="svg9046"
   inkscape:version="1.1 (c68e22c387, 2021-05-23)"
   sodipodi:docname="roegudluft_horisontal.svg"
   xmlns:inkscape="http://www.inkscape.org/namespaces/inkscape"
   xmlns:sodipodi="http://sodipodi.sourceforge.net/DTD/sodipodi-0.dtd"
   xmlns="http://www.w3.org/2000/svg"
   xmlns:svg="http://www.w3.org/2000/svg">
  <sodipodi:namedview
     id="namedview9048"
     pagecolor="#ffffff"
     bordercolor="#666666"
     borderopacity="1.0"
     inkscape:pageshadow="2"
     inkscape:pageopacity="0.0"
     inkscape:pagecheckerboard="0"
     inkscape:document-units="mm"
     showgrid="false"
     fit-margin-top="0"
     fit-margin-left="0"
     fit-margin-right="0"
     fit-margin-bottom="0"
     inkscape:zoom="5.9295174"
     inkscape:cx="-34.741445"
     inkscape:cy="46.125171"
     inkscape:window-width="1920"
     inkscape:window-height="1017"
     inkscape:window-x="-8"
     inkscape:window-y="-8"
     inkscape:window-maximized="1"
     inkscape:current-layer="layer1" />
  <defs
     id="defs9043" />
  <g
     inkscape:label="Lag 1"
     inkscape:groupmode="layer"
     id="layer1"
     transform="translate(-237.17745,-116.41104)">
    <rect
       class="cls-3"
       x="237.42352"
       y="116.6571"
       width="7.0088124"
       height="7.0088124"
       id="rect4620"
       style="fill:#ffffff;stroke-width:0.264583" />
    <path
       class="cls-14"
       d="m 237.17745,116.41104 v 7.50093 h 7.50094 v -7.50093 z m 0.49212,0.49212 h 6.51934 v 1.85208 h -6.51669 z m 6.51934,6.52727 h -6.51669 v -4.17777 h 6.51669 z"
       id="path4622"
       style="fill:#bc2231;stroke-width:0.264583" />
    <polygon
       class="cls-13"
       points="24.95,1666.79 30,1666.79 30,1661.74 30.47,1661.74 30.47,1667.27 24.95,1667.27 "
       id="polygon4624"
       style="fill:#020202"
       transform="matrix(0.26458333,0,0,0.26458333,231.92812,-318.03215)" />
    <path
       class="cls-7"
       d="m 239.57193,120.17076 0.10054,-0.4392 -0.96308,0.29898 0.74083,0.68262 0.0952,-0.42069 a 1.254125,1.254125 0 0 1 0.91017,1.32292 v 1.41552 h 0.127 v -1.41023 a 1.4022916,1.4022916 0 0 0 -1.01071,-1.44992 z"
       id="path4626"
       style="fill:#010101;stroke-width:0.264583" />
    <path
       class="cls-7"
       d="m 243.14645,120.03054 -0.96044,-0.30428 0.0979,0.43921 a 1.3996458,1.3996458 0 0 0 -1.01071,1.45257 v 1.41552 h 0.127 v -1.42346 a 1.2514792,1.2514792 0 0 1 0.91281,-1.32292 l 0.0953,0.42069 z"
       id="path4628"
       style="fill:#010101;stroke-width:0.264583" />
    <polygon
       class="cls-13"
       points="37.57,1661.74 38.04,1661.74 38.04,1666.79 43.09,1666.79 43.09,1667.27 37.57,1667.27 "
       id="polygon4630"
       style="fill:#020202"
       transform="matrix(0.26458333,0,0,0.26458333,231.92812,-318.03215)" />
  </g>
</svg>
