<?xml version="1.0" encoding="UTF-8" standalone="no"?>
<!-- Created with Inkscape (http://www.inkscape.org/) -->

<svg
   width="7.5009379mm"
   height="7.5009398mm"
   viewBox="0 0 7.5009379 7.5009398"
   version="1.1"
   id="svg8001"
   inkscape:version="1.1 (c68e22c387, 2021-05-23)"
   sodipodi:docname="siktrappe_luftsluse.svg"
   xmlns:inkscape="http://www.inkscape.org/namespaces/inkscape"
   xmlns:sodipodi="http://sodipodi.sourceforge.net/DTD/sodipodi-0.dtd"
   xmlns="http://www.w3.org/2000/svg"
   xmlns:svg="http://www.w3.org/2000/svg">
  <sodipodi:namedview
     id="namedview8003"
     pagecolor="#ffffff"
     bordercolor="#666666"
     borderopacity="1.0"
     inkscape:pageshadow="2"
     inkscape:pageopacity="0.0"
     inkscape:pagecheckerboard="0"
     inkscape:document-units="mm"
     showgrid="false"
     fit-margin-top="0"
     fit-margin-left="0"
     fit-margin-right="0"
     fit-margin-bottom="0"
     inkscape:zoom="0.74118967"
     inkscape:cx="257.69382"
     inkscape:cy="-74.879618"
     inkscape:window-width="1920"
     inkscape:window-height="1017"
     inkscape:window-x="-8"
     inkscape:window-y="-8"
     inkscape:window-maximized="1"
     inkscape:current-layer="layer1" />
  <defs
     id="defs7998" />
  <g
     inkscape:label="Lag 1"
     inkscape:groupmode="layer"
     id="layer1"
     transform="translate(-24.338698,-123.06354)">
    <rect
       class="cls-3"
       x="24.584761"
       y="123.30695"
       width="7.0088124"
       height="7.0088124"
       id="rect6946"
       style="fill:#ffffff;stroke-width:0.264583" />
    <path
       class="cls-6"
       d="m 24.338698,123.06354 v 7.50094 h 7.500938 v -7.50094 z m 0.492125,0.48948 h 6.519334 v 1.85208 h -6.516688 z m 6.519334,6.51404 h -6.516688 v -4.17777 h 6.516688 z"
       id="path6948"
       style="fill:#b51f33;stroke-width:0.264583" />
    <path
       class="cls-17"
       d="m 26.783448,129.41089 a 0.10054167,0.10054167 0 0 1 -0.100541,-0.0979 v -0.92604 h 1.322916 v -0.83079 h 1.304396 v -0.72232 a 0.09789583,0.09789583 0 0 1 0.0979,-0.10054 0.10054167,0.10054167 0 0 1 0.0979,0.10054 v 0.91811 h -1.312333 v 0.83343 h -1.322917 v 0.72761 a 0.10054167,0.10054167 0 0 1 -0.08731,0.0979 z"
       id="path6950"
       style="fill:#211e1f;stroke-width:0.264583" />
    <path
       class="cls-17"
       d="m 29.934636,129.821 h -0.140229 a 0.15345833,0.15345833 0 0 1 0.07144,-0.20902 0.06879167,0.06879167 0 0 1 0.06879,0.0688 z"
       id="path6952"
       style="fill:#211e1f;stroke-width:0.264583" />
    <path
       class="cls-17"
       d="M 29.349907,129.821 H 29.20174 a 0.0714375,0.0714375 0 0 1 0,-0.14023 h 0.148167 a 0.0714375,0.0714375 0 1 1 0,0.14023 z m -0.592667,0 h -0.148167 a 0.0714375,0.0714375 0 1 1 0,-0.14023 h 0.148167 a 0.0714375,0.0714375 0 0 1 0,0.14023 z"
       id="path6954"
       style="fill:#211e1f;stroke-width:0.264583" />
    <path
       class="cls-17"
       d="m 28.164573,129.821 h -0.156104 a 0.0714375,0.0714375 0 1 1 0,-0.14023 h 0.148167 a 0.0714375,0.0714375 0 0 1 0,0.14023 z m -0.595312,0 h -0.148167 a 0.0714375,0.0714375 0 0 1 0,-0.14023 h 0.148167 a 0.0714375,0.0714375 0 1 1 0,0.14023 z m -0.592667,0 h -0.148166 a 0.0714375,0.0714375 0 0 1 0,-0.14023 h 0.148166 a 0.0714375,0.0714375 0 1 1 0,0.14023 z"
       id="path6956"
       style="fill:#211e1f;stroke-width:0.264583" />
    <path
       class="cls-17"
       d="m 26.383927,129.821 h -0.140229 v -0.14023 a 0.0714375,0.0714375 0 0 1 0.140229,0 0.0714375,0.0714375 0 0 1 0,0.14023 z"
       id="path6958"
       style="fill:#211e1f;stroke-width:0.264583" />
    <path
       class="cls-17"
       d="m 26.31249,129.30771 a 0.0714375,0.0714375 0 0 1 -0.06879,-0.0714 v -0.14817 a 0.0714375,0.0714375 0 0 1 0.140229,0 v 0.14817 a 0.0714375,0.0714375 0 0 1 -0.07144,0.0714 z m 0,-0.59532 a 0.06879167,0.06879167 0 0 1 -0.06879,-0.0688 v -0.14816 a 0.0714375,0.0714375 0 1 1 0.140229,0 v 0.14816 a 0.0714375,0.0714375 0 0 1 -0.07144,0.0688 z"
       id="path6960"
       style="fill:#211e1f;stroke-width:0.264583" />
    <path
       class="cls-17"
       d="m 26.31249,128.11973 a 0.06879167,0.06879167 0 0 1 -0.06879,-0.0688 v -0.14817 a 0.0714375,0.0714375 0 1 1 0.140229,0 v 0.14817 a 0.0714375,0.0714375 0 0 1 -0.07144,0.0688 z m 0,-0.59267 a 0.0714375,0.0714375 0 0 1 -0.06879,-0.0714 v -0.14816 a 0.0714375,0.0714375 0 0 1 0.140229,0 v 0.14816 a 0.0714375,0.0714375 0 0 1 -0.07144,0.0714 z m 0,-0.59267 a 0.0714375,0.0714375 0 0 1 -0.06879,-0.0714 v -0.14817 a 0.0714375,0.0714375 0 0 1 0.140229,0 v 0.14817 a 0.0714375,0.0714375 0 0 1 -0.07144,0.0714 z"
       id="path6962"
       style="fill:#211e1f;stroke-width:0.264583" />
    <path
       class="cls-17"
       d="m 26.31249,126.33908 a 0.06879167,0.06879167 0 0 1 -0.06879,-0.0688 v -0.14023 h 0.140229 a 0.0714375,0.0714375 0 0 1 0,0.14023 v 0 a 0.0714375,0.0714375 0 0 1 -0.07144,0.0688 z"
       id="path6964"
       style="fill:#211e1f;stroke-width:0.264583" />
    <path
       class="cls-17"
       d="m 27.569261,126.27029 h -0.148167 a 0.0714375,0.0714375 0 0 1 0,-0.14023 h 0.148167 a 0.0714375,0.0714375 0 1 1 0,0.14023 z m -0.592667,0 h -0.148166 a 0.0714375,0.0714375 0 0 1 0,-0.14023 h 0.148166 a 0.0714375,0.0714375 0 1 1 0,0.14023 z"
       id="path6966"
       style="fill:#211e1f;stroke-width:0.264583" />
    <path
       class="cls-17"
       d="M 29.349907,126.27029 H 29.20174 a 0.0714375,0.0714375 0 0 1 0,-0.14023 h 0.148167 a 0.0714375,0.0714375 0 1 1 0,0.14023 z m -0.592667,0 h -0.148167 a 0.0714375,0.0714375 0 1 1 0,-0.14023 h 0.148167 a 0.0714375,0.0714375 0 0 1 0,0.14023 z m -0.592667,0 h -0.156104 a 0.0714375,0.0714375 0 1 1 0,-0.14023 h 0.148167 a 0.0714375,0.0714375 0 0 1 0,0.14023 z"
       id="path6968"
       style="fill:#211e1f;stroke-width:0.264583" />
    <path
       class="cls-17"
       d="m 29.860553,126.33908 a 0.0714375,0.0714375 0 0 1 -0.07144,-0.0688 v 0 a 0.0714375,0.0714375 0 0 1 0,-0.14023 h 0.140229 v 0.14023 a 0.06879167,0.06879167 0 0 1 -0.06879,0.0688 z"
       id="path6970"
       style="fill:#211e1f;stroke-width:0.264583" />
    <path
       class="cls-17"
       d="m 29.860553,127.52706 a 0.0714375,0.0714375 0 0 1 -0.07144,-0.0714 v -0.14816 a 0.0714375,0.0714375 0 0 1 0.07144,-0.0688 0.06879167,0.06879167 0 0 1 0.06879,0.0688 v 0.14816 a 0.06879167,0.06879167 0 0 1 -0.06879,0.0714 z m 0,-0.59531 a 0.06879167,0.06879167 0 0 1 -0.07144,-0.0688 v -0.14817 a 0.06879167,0.06879167 0 0 1 0.07144,-0.0688 0.06614583,0.06614583 0 0 1 0.06879,0.0688 v 0.14817 a 0.06614583,0.06614583 0 0 1 -0.06879,0.0688 z"
       id="path6972"
       style="fill:#211e1f;stroke-width:0.264583" />
    <path
       class="cls-17"
       d="m 29.860553,129.30506 a 0.06879167,0.06879167 0 0 1 -0.07144,-0.0688 v -0.14817 a 0.06879167,0.06879167 0 0 1 0.07144,-0.0794 0.06614583,0.06614583 0 0 1 0.06879,0.0688 v 0.14817 a 0.06614583,0.06614583 0 0 1 -0.06879,0.0794 z m 0,-0.59267 a 0.0714375,0.0714375 0 0 1 -0.07144,-0.0688 v -0.14816 a 0.0714375,0.0714375 0 0 1 0.07144,-0.0714 0.06879167,0.06879167 0 0 1 0.06879,0.0714 v 0.14816 a 0.06879167,0.06879167 0 0 1 -0.06879,0.0688 z m 0,-0.59266 a 0.0714375,0.0714375 0 0 1 -0.07144,-0.0688 v -0.15082 a 0.0714375,0.0714375 0 0 1 0.07144,-0.0688 0.06879167,0.06879167 0 0 1 0.06879,0.0688 v 0.15082 a 0.06879167,0.06879167 0 0 1 -0.06879,0.0688 z"
       id="path6974"
       style="fill:#211e1f;stroke-width:0.264583" />
  </g>
</svg>
