<?xml version="1.0" encoding="UTF-8" standalone="no"?>
<!-- Created with Inkscape (http://www.inkscape.org/) -->

<svg
   width="5.5761032mm"
   height="6.0007801mm"
   viewBox="0 0 5.5761032 6.0007801"
   version="1.1"
   id="svg9482"
   inkscape:version="1.1 (c68e22c387, 2021-05-23)"
   sodipodi:docname="slangevinde.svg"
   xmlns:inkscape="http://www.inkscape.org/namespaces/inkscape"
   xmlns:sodipodi="http://sodipodi.sourceforge.net/DTD/sodipodi-0.dtd"
   xmlns="http://www.w3.org/2000/svg"
   xmlns:svg="http://www.w3.org/2000/svg">
  <sodipodi:namedview
     id="namedview9484"
     pagecolor="#ffffff"
     bordercolor="#666666"
     borderopacity="1.0"
     inkscape:pageshadow="2"
     inkscape:pageopacity="0.0"
     inkscape:pagecheckerboard="0"
     inkscape:document-units="mm"
     showgrid="false"
     fit-margin-top="0"
     fit-margin-left="0"
     fit-margin-right="0"
     fit-margin-bottom="0"
     inkscape:zoom="0.74118967"
     inkscape:cx="-66.784525"
     inkscape:cy="102.53786"
     inkscape:window-width="1285"
     inkscape:window-height="1040"
     inkscape:window-x="2033"
     inkscape:window-y="2"
     inkscape:window-maximized="0"
     inkscape:current-layer="layer1" />
  <defs
     id="defs9479" />
  <g
     inkscape:label="Lag 1"
     inkscape:groupmode="layer"
     id="layer1"
     transform="translate(-122.86576,-121.22555)">
    <path
       class="cls-3"
       d="m 127.69443,122.61201 a 0.73554166,0.73554166 0 0 0 -0.70115,0.52916 h -0.56885 v -1.30439 0 -0.13229 a 0.46831249,0.46831249 0 0 0 -0.34925,-0.44979 0.15345833,0.15345833 0 0 0 -0.0847,-0.0265 h -0.0873 a 0.174625,0.174625 0 0 0 -0.17463,0.17198 v 0.17462 h -1.72244 v -0.17462 a 0.174625,0.174625 0 0 0 -0.17462,-0.17463 h -0.0847 a 0.16139583,0.16139583 0 0 0 -0.0873,0.0265 0.47624999,0.47624999 0 0 0 -0.34925,0.45244 v 3.34698 a 0.16933333,0.16933333 0 0 0 0.0265,0.0873 0.47095833,0.47095833 0 0 0 0.24077,0.29369 0.1666875,0.1666875 0 0 0 0.082,0.11377 v 0.635 h -0.79375 l 0.95515,1.0451 0.87048,-1.0451 h -0.68528 v -0.86784 h 1.72244 v 0.17463 a 0.174625,0.174625 0 0 0 0.17463,0.17198 h 0.0873 a 0.19579166,0.19579166 0 0 0 0.0873,-0.0238 0.47360416,0.47360416 0 0 0 0.34661,-0.45244 v -1.43669 h 0.65352 a 0.73818749,0.73818749 0 1 0 0.62441,-1.12977 z"
       id="path468"
       style="fill:#ffffff;stroke-width:0.264583" />
    <path
       class="cls-9"
       d="m 127.69443,122.61201 a 0.73554166,0.73554166 0 0 0 -0.70115,0.52916 h -0.56885 v -1.30439 0 -0.13229 a 0.46831249,0.46831249 0 0 0 -0.34925,-0.44979 0.15345833,0.15345833 0 0 0 -0.0847,-0.0265 h -0.0873 a 0.174625,0.174625 0 0 0 -0.17463,0.17198 v 0.17462 h -1.72244 v -0.17462 a 0.174625,0.174625 0 0 0 -0.17462,-0.17463 h -0.0847 a 0.16139583,0.16139583 0 0 0 -0.0873,0.0265 0.47624999,0.47624999 0 0 0 -0.34925,0.45244 v 3.34698 a 0.16933333,0.16933333 0 0 0 0.0265,0.0873 0.47095833,0.47095833 0 0 0 0.24077,0.29369 0.1666875,0.1666875 0 0 0 0.082,0.11377 v 0.635 h -0.79375 l 0.95515,1.0451 0.87048,-1.0451 h -0.68528 v -0.86784 h 1.72244 v 0.17463 a 0.174625,0.174625 0 0 0 0.17463,0.17198 h 0.0873 a 0.19579166,0.19579166 0 0 0 0.0873,-0.0238 0.47360416,0.47360416 0 0 0 0.34661,-0.45244 v -1.43669 h 0.65352 a 0.73818749,0.73818749 0 1 0 0.62441,-1.12977 z m -3.34698,2.34685 h -0.34132 v -3.04271 h 0.34925 z m 0.69321,0 h -0.33867 v -3.04271 h 0.3466 z m 0.67997,0 h -0.32279 v -3.04271 h 0.33073 z m 1.98703,-1.14829 a 0.45243749,0.45243749 0 1 1 0.44979,-0.44979 0.44979166,0.44979166 0 0 1 -0.44186,0.44979 z"
       id="path470"
       style="fill:#ed2224;stroke-width:0.264583" />
  </g>
</svg>
