<svg xmlns="http://www.w3.org/2000/svg" width="28.35" height="28.339" viewBox="0 0 7.501 7.498" xmlns:v="https://vecta.io/nano"><path fill="#fff" d="M.25.243h7.009v7.009H.25z"/><path d="M7.5 7.499H-.001V.001H7.5zM.494 7.01h6.517V.49H.494z" fill="#bc2231"/><path d="M3.73 1.076c-.016.013-.02.019-.02.029-.011.016-.014.027-.014.039s-.003.023-.007.023-.007.01-.007.023-.003.023-.01.023-.01.007-.01.023-.003.023-.007.023-.007.01-.007.023-.003.023-.007.023c-.007.024-.011.033-.017.035s-.01.012-.01.024-.003.02-.007.02-.007.01-.007.023-.003.023-.007.023-.007.01-.007.023-.003.023-.01.023-.01.007-.01.023-.003.023-.007.023c-.007.02-.01.027-.014.029s-.007.013-.007.023-.004.021-.01.023-.01.012-.01.022-.003.02-.007.023-.007.013-.007.023-.003.019-.007.019-.007.009-.007.02-.004.024-.01.03-.01.017-.01.026c-.011.016-.014.023-.014.032-.011.016-.014.026-.014.039s-.004.024-.01.026-.01.012-.01.024-.003.02-.007.02-.007.013-.007.029v.029h.039c.022 0 .039-.003.039-.006s.022-.006.052-.006.052-.003.052-.007.05-.006.137-.006l.137.006c0 .004.022.007.052.007s.054.003.056.006c.009.014.088.008.088-.006-.011-.013-.014-.023-.014-.036s-.003-.023-.007-.023-.007-.009-.007-.02-.004-.021-.01-.024-.01-.012-.01-.026-.003-.022-.007-.022c-.007-.02-.01-.027-.014-.029s-.007-.014-.007-.027-.003-.023-.01-.023-.01-.007-.01-.023-.003-.023-.007-.023-.007-.01-.007-.023-.003-.023-.007-.023-.007-.009-.007-.02-.004-.021-.01-.024-.01-.011-.01-.02c-.011-.01-.014-.018-.014-.034s-.003-.027-.007-.027-.007-.009-.007-.02-.004-.021-.01-.024-.01-.012-.01-.026-.003-.022-.007-.022-.007-.009-.007-.019-.003-.021-.007-.023c-.007-.024-.011-.029-.017-.029s-.01-.007-.01-.023-.003-.023-.007-.023-.007-.01-.007-.023-.003-.023-.007-.023-.007-.01-.007-.023-.003-.023-.01-.023-.01-.007-.01-.023-.003-.023-.007-.023c-.007-.025-.01-.033-.014-.033s-.007-.01-.007-.023-.003-.023-.01-.023c-.01-.01-.016-.013-.023-.013m-1.694.716c0 .016.003.029.007.029.007.025.01.033.014.033.007.02.011.026.017.026.01.025.013.033.017.033.007.025.01.033.014.033.007.025.011.036.017.042s.01.014.01.02c.011.01.014.018.014.027.009.016.014.024.016.033.014.016.016.022.016.029.011.013.014.02.014.029.011.016.014.022.014.03.015.019.02.026.02.033.011.012.014.02.014.029.011.016.014.023.014.032s.004.02.01.026.01.016.01.023c.011.014.014.019.014.027.009.013.014.02.016.029.014.016.016.024.016.033.011.016.014.02.014.025 0 .013.02.05.027.05.006.025.009.033.013.033.007.022.027.059.034.059s.006.01.006.023.003.023.006.023c.011.033.053.041.053.023.011-.01.014-.016.014-.023.016-.013.032-.033.032-.044 0-.005.013-.021.03-.037s.029-.032.029-.036c.017-.007.033-.024.033-.036.011-.01.014-.015.014-.02l.03-.026c.009-.009.016-.019.016-.023.015-.007.02-.01.02-.013.02-.006.026-.011.026-.016l.049-.046c.02-.02.041-.036.049-.036.013-.018.031-.033.044-.033.007 0 .018-.007.024-.016s.018-.016.024-.016c.012-.025-.004-.039-.02-.039-.014-.016-.02-.02-.03-.02-.016-.01-.02-.013-.025-.013-.013 0-.05-.02-.05-.027-.025-.006-.033-.009-.033-.013-.021-.007-.031-.01-.036-.015-.023-.021-.03-.025-.042-.025-.013-.01-.019-.013-.027-.013s-.018-.005-.024-.01-.017-.009-.026-.007c-.015-.011-.021-.015-.028-.015-.013-.01-.02-.013-.029-.013s-.017-.004-.019-.01c-.024-.01-.03-.013-.03-.016-.02-.006-.026-.009-.026-.013-.025-.006-.033-.009-.033-.013-.025-.013-.033-.017-.033-.02-.02-.006-.026-.009-.026-.012-.021-.006-.032-.011-.037-.017s-.014-.009-.019-.007c-.009-.013-.016-.016-.032-.016s-.023-.003-.023-.006c-.019-.007-.026-.011-.028-.016-.024-.01-.03-.013-.03-.016-.025-.007-.033-.009-.033-.013-.019-.006-.026-.011-.029-.016-.024-.01-.03-.013-.03-.016-.025-.006-.033-.009-.033-.013-.024-.007-.026-.002-.026.023m3.378-.024c-.025.006-.033.009-.033.012-.025.012-.033.017-.033.02-.02.006-.026.009-.026.013-.025.006-.033.009-.033.013-.02.006-.028.011-.03.016-.023.01-.029.013-.029.016-.025.006-.033.009-.033.013-.02.006-.028.011-.03.016-.023.01-.029.013-.029.016s-.01.006-.023.006-.023.003-.023.006c-.025.012-.033.017-.033.02-.025.006-.033.009-.033.013-.02.007-.026.009-.026.012-.025.012-.033.017-.033.02-.025.006-.033.009-.033.013-.02.006-.026.009-.026.013-.02.006-.028.011-.03.016s-.011.01-.019.01c-.016.01-.022.013-.029.013-.013.01-.02.013-.029.013s-.02.004-.026.01-.016.01-.023.01c-.013.01-.02.013-.029.013s-.017.004-.019.01c-.02.01-.024.013-.024.016-.025.006-.033.009-.033.013-.026.006-.033.01-.033.016-.033.014-.041.05-.024.05.01.015.016.02.023.02s.023.01.035.023.026.023.031.023.021.013.036.029.032.029.037.029.017.01.028.023.023.023.028.023c.008.016.038.046.047.046.007.016.037.046.046.046.007.015.01.02.014.02.007.016.02.034.036.049s.029.032.029.038.007.015.016.022.016.019.016.027.003.015.023.015.023-.002.023-.016c.011-.016.014-.022.014-.029.01-.013.014-.02.017-.029.013-.016.016-.024.016-.033.011-.016.014-.021.014-.026s.007-.022.016-.036.016-.03.016-.036a.04.04 0 0 0 .014-.033c0-.016.003-.023.01-.023.01-.02.013-.027.017-.029.007-.024.01-.029.014-.029.007-.024.011-.033.017-.035.01-.024.013-.03.017-.03.007-.02.01-.026.014-.026.007-.024.011-.033.017-.035.01-.024.013-.03.017-.03.007-.02.01-.026.014-.026.007-.025.01-.033.014-.034s.008-.011.009-.022.005-.02.009-.022c.007-.027.01-.034.014-.034.007-.019.011-.026.017-.029.01-.024.013-.03.017-.03.007-.025.01-.033.014-.033.007-.019.011-.026.017-.029.01-.024.013-.03.017-.03.007-.025.01-.033.014-.033.007-.02.01-.026.013-.026.009 0 .015-.022.01-.035s-.042-.015-.042-.004m-1.85.566c0 .008-.009.01-.046.01-.026 0-.046.003-.046.007s-.013.006-.029.006-.029.003-.029.006-.01.006-.023.006-.023.003-.023.01-.007.01-.023.01-.023.003-.023.006c-.025.006-.033.009-.033.013-.027.007-.033.01-.033.016s-.007.01-.021.01-.025.005-.031.013-.016.013-.024.013c-.015.015-.021.02-.028.02-.013.01-.019.013-.027.013-.014 0-.032.014-.032.026-.023.007-.034.013-.039.02s-.013.013-.018.013c-.008.015-.014.02-.021.02l-.03.02c-.009.005-.016.011-.016.015s-.017.025-.023.025-.023.017-.023.023-.017.023-.023.023-.023.018-.023.023-.01.013-.023.024-.023.024-.023.029c0 .011-.016.028-.026.028-.015.019-.019.027-.019.033-.011.012-.014.017-.014.022-.015.01-.02.016-.02.023-.011.013-.014.02-.014.028s-.007.02-.016.027-.016.018-.016.024c-.011.012-.014.02-.014.029-.011.016-.014.027-.014.039s-.003.023-.01.023c-.01.02-.013.026-.017.026s-.007.01-.007.023-.003.023-.007.023-.007.009-.007.02-.004.025-.01.03-.01.021-.01.035-.003.026-.007.026-.007.016-.007.035-.003.036-.006.038-.008.034-.011.072-.007.07-.01.07-.006.026-.006.059.002.059.006.059.007.033.01.074a.23.23 0 0 0 .011.076c.004.001.007.02.007.041s.003.039.007.039.007.013.007.029c0 .022.003.029.01.029s.01.007.01.023.003.023.007.023c.007.018.134.02 1.112.02h1.105v-.022c0-.014.004-.024.01-.026s.01-.013.01-.033.003-.03.007-.03.007-.013.007-.029.003-.029.006-.029.008-.024.011-.052.007-.052.011-.052a.75.75 0 0 0 .006-.131l-.006-.131c-.003 0-.008-.024-.011-.052s-.007-.052-.011-.052-.006-.018-.006-.039-.003-.039-.007-.039-.007-.01-.007-.023-.003-.023-.01-.023-.01-.007-.01-.023-.003-.023-.007-.023-.007-.01-.007-.023-.003-.023-.007-.023c-.007-.027-.011-.033-.017-.033-.01-.02-.013-.026-.017-.026-.007-.025-.01-.033-.014-.033-.007-.026-.01-.032-.015-.031-.011-.021-.015-.028-.018-.028-.006-.028-.02-.046-.032-.046-.007-.023-.013-.034-.02-.039s-.013-.013-.013-.018c-.015-.008-.02-.014-.02-.021-.011-.013-.014-.016-.014-.02s-.016-.026-.023-.026-.023-.017-.023-.023-.017-.023-.023-.023-.023-.017-.023-.023-.017-.023-.023-.023-.023-.017-.023-.023-.018-.023-.024-.023-.011-.007-.018-.016-.017-.016-.023-.016-.015-.006-.02-.013-.016-.013-.024-.013c-.015-.018-.032-.033-.046-.033-.007 0-.018-.007-.024-.016s-.018-.016-.024-.016c-.012-.01-.018-.013-.025-.013-.013-.01-.02-.013-.029-.013s-.017-.004-.019-.01-.012-.01-.024-.01-.02-.003-.02-.007c-.025-.006-.033-.009-.033-.013s-.01-.006-.023-.006-.023-.003-.023-.01-.007-.01-.023-.01-.023-.003-.023-.006-.013-.006-.029-.006-.029-.003-.029-.006-.017-.007-.039-.007c-.03 0-.039-.002-.039-.01s-.025-.01-.19-.01-.19.001-.19.01m-1.373.825c0 .006-.008.009-.023.009s-.023.003-.023.006-.01.006-.023.006-.023.003-.023.006-.01.007-.023.007-.023.003-.023.01-.007.01-.023.01-.023.003-.023.006c-.025.007-.033.01-.033.013s-.01.006-.023.006-.023.003-.023.01-.007.01-.023.01-.023.003-.023.006-.01.006-.023.006-.023.003-.023.006c-.025.006-.036.011-.042.016s-.019.01-.03.01-.02.003-.02.006c-.025.006-.033.009-.033.013s-.009.006-.02.006-.021.004-.024.01-.012.01-.026.01-.022.003-.022.007-.009.006-.019.006-.021.003-.023.006-.011.006-.02.006a.04.04 0 0 0-.025.01c-.005.005-.014.01-.02.01-.01.01-.021.013-.033.013s-.023.003-.023.007-.01.006-.023.006-.023.003-.023.01-.007.01-.023.01-.023.003-.023.007c-.016.006-.02.013-.02.023s.003.016.016.016c.016.01.023.013.033.013.016.01.027.013.039.013s.023.003.023.01.007.01.023.01.023.003.023.006.01.007.023.007.023.003.023.006.01.006.022.006.024.004.026.01.012.01.024.01.02.003.02.006c.02.006.027.009.029.013s.012.006.023.006.02.004.022.01.012.01.024.01.02.003.02.006.01.006.023.006.023.003.023.007.01.006.023.006.023.003.023.01c.025.01.033.013.033.016s.01.006.023.006.023.003.023.006.01.006.023.006.023.003.023.01.007.01.023.01.023.003.023.006.01.006.023.006.023.003.023.006c.027.007.033.01.033.016s.007.01.023.01.023.003.023.006.01.007.023.007.023.003.023.006.01.006.023.006c.021 0 .023-.002.023-.02s-.003-.02-.01-.02-.01-.009-.01-.045c0-.025-.003-.047-.007-.049s-.007-.064-.007-.164l.007-.16c.004 0 .007-.022.007-.052 0-.042.002-.052.01-.052s.01-.009.01-.038v-.038h-.023c-.015 0-.023.003-.023.009m3.067.019c0 .02.003.031.01.033s.01.015.01.049c0 .026.003.045.007.045s.007.068.007.19l-.007.19c-.004 0-.007.022-.007.052 0 .048.001.052.013.052.013-.01.023-.013.036-.013s.023-.003.023-.007.01-.006.023-.006.023-.003.023-.01.007-.01.023-.01.023-.003.023-.007c.025-.006.033-.009.033-.013s.01-.006.023-.006.023-.003.023-.01.007-.01.023-.01.023-.003.023-.006.01-.006.023-.006.023-.003.023-.006.009-.007.02-.007.021-.004.024-.01.012-.01.026-.01.022-.003.022-.006c.025-.007.033-.01.033-.013s.009-.006.02-.006.021-.004.024-.01.012-.01.026-.01.022-.003.022-.006.01-.006.023-.006.023-.003.023-.006.009-.006.02-.006.021-.004.024-.01c.023-.01.029-.013.029-.016s.01-.006.023-.006.023-.003.023-.007.01-.006.023-.006.023-.003.023-.01.007-.01.023-.01.023-.003.023-.007.01-.006.023-.006.023-.003.023-.006c.016-.006.02-.013.02-.023-.015-.016-.02-.019-.02-.023s-.01-.007-.023-.007-.023-.003-.023-.01c-.014-.005-.022-.008-.026-.013s-.016-.009-.027-.009a.08.08 0 0 0-.041-.013c-.014 0-.024-.004-.026-.01s-.012-.01-.024-.01-.02-.003-.02-.006-.01-.006-.023-.006-.023-.003-.023-.006c-.02-.007-.031-.011-.037-.016s-.017-.01-.026-.01c-.016-.01-.026-.013-.039-.013s-.023-.003-.023-.006-.01-.006-.022-.006-.024-.004-.026-.01-.012-.01-.024-.01-.02-.003-.02-.006-.01-.006-.023-.006-.023-.003-.023-.006c-.025-.006-.033-.011-.035-.016s-.012-.01-.024-.01-.02-.003-.02-.006-.01-.006-.023-.006-.023-.003-.023-.007-.01-.006-.023-.006-.023-.003-.023-.01-.007-.01-.023-.01-.023-.003-.023-.007c-.025-.006-.033-.009-.033-.013s-.01-.006-.022-.006-.024-.004-.026-.01-.013-.01-.03-.01H5.26v.03M1.268 4.41c-.005.011-.01.024-.01.029a.33.33 0 0 1-.01.044l-.016.06-.012.049-.017.067-.017.067-.012.049-.014.054-.014.054-.012.049-.012.051a1.21 1.21 0 0 1-.017.065l-.016.065-.023.092-.022.093-.005.028h1.219l.004-.077.034-.474a5.92 5.92 0 0 0 .02-.311l.004-.074H1.279l-.01.019m1.21-.005a2.16 2.16 0 0 0-.017.201l-.029.396-.018.275-.002.049h1.267l-.004-.932-1.193-.003-.003.015m1.361-.01c-.002.002-.004.213-.004.468v.463h1.269L5.1 5.252l-.007-.093c-.002-.011-.006-.062-.009-.114l-.016-.229-.017-.219-.011-.144-.005-.059-.596-.002a20.93 20.93 0 0 0-.6.003m1.36 0c-.007.007-.005.118.002.162.008.051.02.212.036.474l.015.178.011.116h1.186l-.005-.021-.016-.06-.014-.059c-.002-.011-.005-.026-.008-.033s-.01-.032-.017-.056l-.017-.058a.12.12 0 0 1-.006-.034c0-.01-.003-.021-.006-.023s-.007-.013-.009-.025a.5.5 0 0 0-.014-.057l-.017-.06-.029-.113-.014-.056c-.002-.009-.006-.022-.009-.029s-.007-.02-.009-.029l-.014-.056-.017-.062c-.015-.062-.02-.08-.028-.092a12.9 12.9 0 0 0-1.001-.008M.993 5.496c-.003.004-.007.018-.009.031a.9.9 0 0 1-.026.102.2.2 0 0 0-.009.033c-.006.037-.029.131-.037.15a.2.2 0 0 0-.009.033c-.006.037-.029.131-.037.15-.003.007-.007.022-.008.033l-.014.059-.029.118-.016.065-.04.168-.004.018h1.412l.007-.045a.74.74 0 0 0 .007-.096c0-.048.003-.094.02-.265l.013-.172.023-.335.004-.054h-.626l-.626.008m1.403-.006c-.001.007-.022.288-.026.358l-.012.173-.031.387-.004.047h1.355v-.968H3.03l-.641.002m1.439.482v.484h1.355l-.004-.041-.01-.136-.016-.229-.029-.399-.011-.132-.005-.031h-1.28v.484m1.441-.43l.01.159.01.114a8.54 8.54 0 0 1 .036.5l.011.123.005.018h1.405l-.004-.018-.007-.028c-.002-.005-.006-.02-.009-.033l-.023-.085-.021-.082a.2.2 0 0 0-.009-.033c-.003-.007-.01-.032-.016-.056l-.017-.063c-.003-.011-.006-.026-.006-.034-.009-.019-.013-.031-.015-.042-.006-.035-.021-.089-.026-.094s-.005-.015-.005-.026-.003-.023-.006-.025-.007-.013-.009-.025a1.2 1.2 0 0 0-.038-.144c-.003-.006-.006-.016-.006-.022s-.005-.026-.01-.044l-.026-.098-.004-.018H5.265l.004.054" fill="#2c2c2c" fill-rule="evenodd"/></svg>