<?xml version="1.0" encoding="UTF-8" standalone="no"?>
<!-- Created with Inkscape (http://www.inkscape.org/) -->

<svg
   width="7.5009398mm"
   height="7.4982872mm"
   viewBox="0 0 7.5009398 7.4982872"
   version="1.1"
   id="svg8311"
   inkscape:version="1.1 (c68e22c387, 2021-05-23)"
   sodipodi:docname="solceller.svg"
   xmlns:inkscape="http://www.inkscape.org/namespaces/inkscape"
   xmlns:sodipodi="http://sodipodi.sourceforge.net/DTD/sodipodi-0.dtd"
   xmlns="http://www.w3.org/2000/svg"
   xmlns:svg="http://www.w3.org/2000/svg">
  <sodipodi:namedview
     id="namedview8313"
     pagecolor="#ffffff"
     bordercolor="#666666"
     borderopacity="1.0"
     inkscape:pageshadow="2"
     inkscape:pageopacity="0.0"
     inkscape:pagecheckerboard="0"
     inkscape:document-units="mm"
     showgrid="false"
     fit-margin-top="0"
     fit-margin-left="0"
     fit-margin-right="0"
     fit-margin-bottom="0"
     inkscape:zoom="4"
     inkscape:cx="44.75"
     inkscape:cy="14.375"
     inkscape:window-width="1920"
     inkscape:window-height="1017"
     inkscape:window-x="-8"
     inkscape:window-y="-8"
     inkscape:window-maximized="1"
     inkscape:current-layer="layer1" />
  <defs
     id="defs8308" />
  <g
     inkscape:label="Lag 1"
     inkscape:groupmode="layer"
     id="layer1"
     transform="translate(-126.90097,-94.060953)">
    <rect
       class="cls-3"
       x="127.14703"
       y="94.304375"
       width="7.0088124"
       height="7.0088124"
       id="rect3536"
       style="fill:#ffffff;stroke-width:0.264583" />
    <path
       class="cls-14"
       d="m 134.40191,101.55924 h -7.50094 v -7.498287 h 7.50094 z m -7.00617,-0.48947 h 6.51669 v -6.519337 h -6.51669 z"
       id="path3538"
       style="fill:#bc2231;stroke-width:0.264583" />
    <g
       id="g908"
       transform="matrix(0.01421791,0,0,0.01421791,127.81355,94.88667)">
      <path
         id="path0"
         d="M 187.6,31.2 V 62.4 H 200 212.4 V 31.2 0 H 200 187.6 V 31.2 M 101,26.232 c -5.06,2.961 -9.47,5.498 -9.8,5.637 -2.186,0.921 -2.186,0.923 2.293,8.657 4.211,7.27 5.005,8.645 6.507,11.274 1.005,1.758 0.947,1.658 9.002,15.6 7.935,13.736 7.96,13.778 9.045,15.7 2.446,4.333 2.134,4.255 6.621,1.649 1.943,-1.129 4.117,-2.389 4.832,-2.8 0.715,-0.412 1.885,-1.087 2.6,-1.5 0.715,-0.413 3.233,-1.867 5.595,-3.23 l 4.295,-2.479 -0.555,-1.07 c -0.305,-0.588 -1.495,-2.69 -2.646,-4.67 -2.229,-3.837 -3.112,-5.365 -4.389,-7.6 -1.005,-1.758 -0.947,-1.658 -9.002,-15.6 -3.686,-6.38 -7.038,-12.185 -7.45,-12.9 -6.694,-11.63 -7,-12.123 -7.497,-12.077 -0.138,0.013 -4.391,2.447 -9.451,5.409 M 288.886,21.3 c -0.226,0.275 -1.352,2.12 -2.5,4.1 -1.957,3.373 -2.422,4.178 -4.334,7.5 -0.412,0.715 -3.764,6.52 -7.45,12.9 -8.055,13.942 -7.997,13.842 -9.002,15.6 -1.277,2.235 -2.16,3.763 -4.389,7.6 -1.151,1.98 -2.341,4.082 -2.646,4.67 l -0.555,1.07 4.295,2.479 c 2.362,1.363 4.88,2.817 5.595,3.23 0.715,0.413 1.93,1.111 2.7,1.551 3.465,1.98 4.124,2.362 6.118,3.544 2.878,1.707 2.896,1.699 5.235,-2.444 1.085,-1.922 1.11,-1.964 9.045,-15.7 3.686,-6.38 7.04,-12.185 7.452,-12.9 0.413,-0.715 1.088,-1.885 1.5,-2.6 8.497,-14.725 10.505,-18.379 10.34,-18.809 C 310.133,32.682 289.978,20.8 289.442,20.8 c -0.079,0 -0.329,0.225 -0.556,0.5 M 189.4,75.433 c -0.66,0.088 -2.82,0.356 -4.8,0.596 -42.05,5.087 -78.827,31.597 -97.359,70.181 -2.098,4.369 -2.683,5.665 -3.241,7.19 -0.161,0.44 -0.49,1.25 -0.731,1.8 -7.341,16.75 -10.039,44.117 -6.48,65.732 1.182,7.179 4.463,19.267 6.48,23.868 0.241,0.55 0.576,1.36 0.744,1.8 8.282,21.675 26.162,43.651 46.587,57.261 32.241,21.484 71.966,26.864 108.841,14.741 2.397,-0.788 4.809,-1.63 5.359,-1.871 0.919,-0.403 1.584,-0.675 3.8,-1.556 51.697,-20.56 83.793,-78.583 74.77,-135.175 -6.649,-41.708 -36.785,-80.069 -74.77,-95.175 -2.216,-0.881 -2.881,-1.153 -3.8,-1.556 -5.649,-2.476 -17.679,-5.555 -27.8,-7.115 -3.789,-0.584 -24.561,-1.127 -27.6,-0.721 M 32.254,90.5 c -4.93,7.857 -11.467,20.056 -10.994,20.516 0.465,0.453 2.229,1.513 9.04,5.435 4.003,2.306 26.811,15.484 28.3,16.352 4.493,2.619 14.185,8.169 15.07,8.63 l 1.07,0.557 2.479,-4.295 c 1.363,-2.362 2.817,-4.88 3.23,-5.595 0.413,-0.715 1.111,-1.93 1.551,-2.7 1.981,-3.468 2.363,-4.126 3.566,-6.155 1.734,-2.924 1.956,-2.644 -5.466,-6.9 C 77.722,114.982 76.271,114.144 66,108.2 55.147,101.92 53.995,101.254 51.8,100 49.8,98.857 48.639,98.187 40.8,93.654 33.135,89.222 33.071,89.198 32.254,90.5 M 360.6,92.853 c -3.08,1.785 -6.14,3.559 -6.8,3.944 -0.66,0.385 -6.42,3.715 -12.8,7.401 -13.942,8.055 -13.842,7.997 -15.6,9.002 -8.71,4.977 -11.597,6.733 -11.924,7.253 -0.24,0.379 0.309,1.691 1.738,4.151 1.149,1.978 2.426,4.181 2.837,4.896 0.412,0.715 1.087,1.885 1.5,2.6 0.413,0.715 1.867,3.233 3.23,5.595 l 2.479,4.295 1.27,-0.656 c 0.698,-0.36 4.06,-2.272 7.47,-4.248 6.177,-3.579 7.542,-4.367 10.2,-5.886 0.77,-0.44 1.985,-1.137 2.7,-1.55 1.625,-0.937 23.996,-13.862 25.9,-14.963 0.77,-0.446 2.057,-1.166 2.859,-1.601 0.803,-0.435 1.949,-1.182 2.548,-1.659 l 1.09,-0.869 -5.302,-9.179 C 371.079,96.331 368.387,91.66 368.012,91 c -1,-1.764 -1.298,-1.689 -7.412,1.853 m -151.627,7.553 c 31.432,3.523 57.084,18.789 74.203,44.159 5.045,7.476 11.09,20.395 12.783,27.316 0.204,0.835 0.63,2.509 0.947,3.719 14.242,54.474 -21.376,111.129 -76.906,122.329 -22.785,4.596 -47.181,1.083 -66.8,-9.621 -4.973,-2.712 -5.64,-3.106 -8.169,-4.814 -23.703,-16.009 -37.947,-37.875 -43.694,-67.076 -1.637,-8.318 -1.637,-24.518 0,-32.836 3.641,-18.501 9.449,-31.582 20.226,-45.55 6.422,-8.324 18.808,-19.191 27.306,-23.957 11.33,-6.354 19.471,-9.49 31.331,-12.066 8.206,-1.783 20.87,-2.488 28.773,-1.603 M 186.941,139.1 c -0.339,0.825 -0.888,2.13 -1.22,2.9 -0.619,1.439 -1.062,2.528 -1.667,4.1 -0.191,0.495 -0.551,1.395 -0.8,2 -0.25,0.605 -0.655,1.595 -0.901,2.2 -0.245,0.605 -0.605,1.413 -0.8,1.795 -0.194,0.382 -0.353,0.879 -0.353,1.104 0,0.225 -0.344,1.173 -0.765,2.105 -1.448,3.212 -17.635,43.845 -17.635,44.27 0,0.292 3.841,0.426 12.2,0.426 9.501,0 12.197,0.111 12.186,0.5 -0.007,0.275 -5.48,16.88 -12.161,36.9 -6.682,20.02 -12.068,36.482 -11.97,36.583 0.098,0.101 19.656,-19.294 43.461,-43.1 L 249.8,187.6 h -15.877 c -8.732,0 -15.961,-0.137 -16.064,-0.305 -0.104,-0.167 4.123,-11.012 9.392,-24.1 5.269,-13.087 9.683,-24.2 9.808,-24.695 l 0.228,-0.9 h -24.864 -24.864 l -0.618,1.5 M 0,200 v 12.4 H 31.2 62.4 V 200 187.6 H 31.2 0 V 200 m 337.6,0 v 12.4 H 368.8 400 V 200 187.6 H 368.8 337.6 V 200 M 70,260.649 c -2.53,1.454 -5.185,2.983 -5.9,3.398 -0.715,0.414 -1.885,1.09 -2.6,1.502 -0.715,0.412 -7.15,4.125 -14.3,8.251 -12.579,7.259 -14.11,8.142 -16.9,9.749 -6.809,3.921 -8.574,4.982 -9.038,5.433 -0.448,0.435 0.347,2.05 4.762,9.67 2.915,5.032 5.562,9.656 5.882,10.277 0.958,1.859 1.413,1.727 8.799,-2.535 8.534,-4.925 9.327,-5.382 10.995,-6.342 1.351,-0.778 26.317,-15.181 28.6,-16.501 0.715,-0.413 1.975,-1.132 2.8,-1.598 4.333,-2.446 4.255,-2.134 1.649,-6.621 -1.129,-1.943 -2.389,-4.117 -2.8,-4.832 -0.412,-0.715 -1.087,-1.885 -1.5,-2.6 -0.413,-0.715 -1.868,-3.235 -3.233,-5.6 -1.365,-2.365 -2.512,-4.299 -2.549,-4.298 -0.037,10e-4 -2.137,1.192 -4.667,2.647 m 252.781,1.656 c -1.363,2.362 -2.817,4.88 -3.23,5.595 -0.413,0.715 -1.088,1.885 -1.5,2.6 -0.411,0.715 -1.671,2.889 -2.8,4.832 -2.606,4.487 -2.684,4.175 1.649,6.621 3.072,1.734 2.669,1.503 18.5,10.649 6.38,3.686 12.185,7.038 12.9,7.45 0.715,0.411 1.885,1.087 2.6,1.5 11.382,6.587 15.61,8.891 16.023,8.733 0.678,-0.26 12.36,-20.627 12.086,-21.071 -0.218,-0.353 -6.145,-4.014 -6.498,-4.014 -0.103,0 -0.665,-0.333 -1.249,-0.739 -0.584,-0.406 -2.052,-1.282 -3.262,-1.945 -1.21,-0.664 -7.42,-4.224 -13.8,-7.911 -13.643,-7.886 -13.787,-7.969 -15.6,-9.005 -2.235,-1.277 -3.763,-2.16 -7.6,-4.389 -1.98,-1.151 -4.082,-2.341 -4.67,-2.646 l -1.07,-0.555 -2.479,4.295 M 119.674,314.3 c -0.429,0.605 -1.161,1.775 -1.627,2.6 -1.085,1.922 -1.11,1.964 -9.045,15.7 -8.055,13.942 -7.997,13.842 -9.002,15.6 -0.898,1.572 -0.78,1.366 -6.394,11.095 -4.262,7.385 -4.394,7.843 -2.535,8.796 0.621,0.318 1.759,0.944 2.529,1.39 16.721,9.696 16.899,9.791 17.421,9.255 0.286,-0.295 1.456,-2.156 2.601,-4.136 1.969,-3.407 2.551,-4.415 4.326,-7.5 0.412,-0.715 3.764,-6.52 7.45,-12.9 8.055,-13.942 7.997,-13.842 9.002,-15.6 1.277,-2.235 2.16,-3.763 4.389,-7.6 1.151,-1.98 2.341,-4.082 2.646,-4.67 l 0.555,-1.07 -4.295,-2.488 c -18.941,-10.968 -16.923,-10.02 -18.021,-8.472 m 156.926,0.186 c -1.1,0.673 -2.585,1.559 -3.3,1.969 -0.715,0.41 -1.885,1.083 -2.6,1.497 -0.715,0.413 -3.863,2.226 -6.995,4.029 l -5.696,3.277 0.558,1.071 c 0.461,0.885 6.01,10.577 8.63,15.071 0.385,0.66 3.715,6.42 7.401,12.8 8.055,13.942 7.997,13.842 9.002,15.6 1.822,3.188 2.359,4.116 3.754,6.482 0.804,1.364 1.633,2.586 1.842,2.715 0.462,0.286 20.816,-11.364 21.087,-12.07 0.16,-0.416 -2.137,-4.634 -8.731,-16.027 -0.413,-0.715 -1.089,-1.885 -1.5,-2.6 -0.412,-0.715 -3.764,-6.52 -7.45,-12.9 -9.146,-15.831 -8.915,-15.428 -10.649,-18.5 -2.331,-4.13 -2.458,-4.187 -5.353,-2.414 m -89,54.314 V 400 H 200 212.4 V 368.8 337.6 H 200 187.6 v 31.2"
         stroke="none"
         fill="#050505"
         fill-rule="evenodd" />
    </g>
  </g>
</svg>
