<?xml version="1.0" encoding="UTF-8" standalone="no"?>
<!-- Created with Inkscape (http://www.inkscape.org/) -->

<svg
   width="7.500937mm"
   height="7.5009298mm"
   viewBox="0 0 7.500937 7.5009298"
   version="1.1"
   id="svg9282"
   inkscape:version="1.1 (c68e22c387, 2021-05-23)"
   sodipodi:docname="trykforoegeranl.svg"
   xmlns:inkscape="http://www.inkscape.org/namespaces/inkscape"
   xmlns:sodipodi="http://sodipodi.sourceforge.net/DTD/sodipodi-0.dtd"
   xmlns="http://www.w3.org/2000/svg"
   xmlns:svg="http://www.w3.org/2000/svg">
  <sodipodi:namedview
     id="namedview9284"
     pagecolor="#ffffff"
     bordercolor="#666666"
     borderopacity="1.0"
     inkscape:pageshadow="2"
     inkscape:pageopacity="0.0"
     inkscape:pagecheckerboard="0"
     inkscape:document-units="mm"
     showgrid="false"
     fit-margin-top="0"
     fit-margin-left="0"
     fit-margin-right="0"
     fit-margin-bottom="0"
     inkscape:zoom="0.74118967"
     inkscape:cx="58.014839"
     inkscape:cy="151.78301"
     inkscape:window-width="1920"
     inkscape:window-height="1017"
     inkscape:window-x="-8"
     inkscape:window-y="-8"
     inkscape:window-maximized="1"
     inkscape:current-layer="layer1" />
  <defs
     id="defs9279" />
  <g
     inkscape:label="Lag 1"
     inkscape:groupmode="layer"
     id="layer1"
     transform="translate(-89.775973,-108.69545)">
    <rect
       class="cls-3"
       x="90.022034"
       y="108.93886"
       width="7.0088124"
       height="7.0088124"
       id="rect6392"
       style="fill:#ffffff;stroke-width:0.264583" />
    <path
       class="cls-14"
       d="m 89.775973,108.69545 v 7.50093 h 7.500937 v -7.50093 z m 0.492125,0.48948 h 6.519333 v 1.85208 h -6.516687 z m 6.519333,6.51933 h -6.516687 v -4.17777 h 6.516687 z"
       id="path6394"
       style="fill:#bc2231;stroke-width:0.264583" />
    <polygon
       class="cls-17"
       points="31.97,3457.15 28.69,3455.26 28.69,3456.88 23.93,3456.88 23.93,3457.42 28.69,3457.42 28.69,3459.04 "
       id="polygon6396"
       style="fill:#211e1f"
       transform="matrix(0.26458333,0,0,0.26458333,84.52664,-801.62467)" />
    <path
       class="cls-17"
       d="m 96.14714,113.25157 -0.08731,-0.0873 v 0 a 1.190625,1.190625 0 0 0 -1.500187,0 v 0 l -0.08996,0.0873 A 1.2276667,1.2276667 0 0 0 94.2051,113.6749 v -0.90752 l -0.579438,-0.91281 v 2.49767 h -2.415645 v -0.14023 H 90.79991 v 0.86783 h 0.420688 v -0.17462 h 2.958042 v -0.381 a 1.1932708,1.1932708 0 0 0 0.264583,0.42068 l 0.08996,0.09 v 0 a 1.1826875,1.1826875 0 0 0 0.748771,0.26459 1.1959167,1.1959167 0 0 0 0.751417,-0.26459 v 0 l 0.08731,-0.09 a 1.2012083,1.2012083 0 0 0 0.02646,-1.69333 z m 0.08467,1.01865 a 0.38629166,0.38629166 0 0 0 0,0.0529 c 0,0.037 -0.02117,0.0741 -0.0344,0.11113 -0.01323,0.037 -0.01588,0.037 -0.02381,0.0582 a 0.69849999,0.69849999 0 0 1 -0.05292,0.0979 0.36247916,0.36247916 0 0 1 -0.0344,0.0529 0.24870833,0.24870833 0 0 1 -0.02381,0.0318 l -0.5715,-0.57415 0.5715,-0.5715 a 0.2301875,0.2301875 0 0 1 0.02381,0.0291 l 0.0344,0.0529 a 0.92074999,0.92074999 0 0 1 0.05292,0.10055 0.52916666,0.52916666 0 0 1 0.02381,0.0582 c 0.01323,0.037 0.02381,0.0741 0.0344,0.11113 a 0.51329166,0.51329166 0 0 0 0,0.0529 1.0583333,1.0583333 0 0 1 0,0.15875 v 0.0159 a 1.0768542,1.0768542 0 0 1 0,0.1614 z m -0.933979,-1.11654 a 0.94456249,0.94456249 0 0 1 0.574146,0.19843 l -0.574146,0.5715 -0.574146,-0.5715 a 0.94191665,0.94191665 0 0 1 0.574146,-0.19843 z m -0.748771,1.52135 -0.02646,-0.0318 -0.03175,-0.0529 a 0.69849999,0.69849999 0 0 1 -0.05292,-0.0979 c 0,-0.0212 -0.01852,-0.0397 -0.02646,-0.0582 -0.0079,-0.0185 -0.02117,-0.0741 -0.03175,-0.11113 -0.01058,-0.037 0,-0.0344 0,-0.0529 a 1.5875,1.5875 0 0 1 -0.01587,-0.1614 v -0.0159 q 0,-0.0794 0.01587,-0.15875 c 0,-0.0185 0,-0.0371 0,-0.0529 0,-0.0159 0.01852,-0.0741 0.03175,-0.11113 l 0.02646,-0.0582 a 0.92074999,0.92074999 0 0 1 0.05292,-0.10055 l 0.03175,-0.0529 0.02646,-0.0291 0.5715,0.5715 z m 0.177271,0.17727 0.574146,-0.5715 0.5715,0.5715 a 0.94456249,0.94456249 0 0 1 -1.145646,0 z"
       id="path6398"
       style="fill:#211e1f;stroke-width:0.264583" />
  </g>
</svg>
