<?xml version="1.0" encoding="UTF-8" standalone="no"?>
<svg
   version="1.1"
   viewBox="-10 0 2064 2048"
   id="svg6"
   sodipodi:docname="alarmeringspunkt.svg"
   inkscape:version="1.1 (c68e22c387, 2021-05-23)"
   xmlns:inkscape="http://www.inkscape.org/namespaces/inkscape"
   xmlns:sodipodi="http://sodipodi.sourceforge.net/DTD/sodipodi-0.dtd"
   xmlns="http://www.w3.org/2000/svg"
   xmlns:svg="http://www.w3.org/2000/svg">
  <defs
     id="defs10" />
  <sodipodi:namedview
     id="namedview8"
     pagecolor="#ffffff"
     bordercolor="#666666"
     borderopacity="1.0"
     inkscape:pageshadow="2"
     inkscape:pageopacity="0.0"
     inkscape:pagecheckerboard="0"
     showgrid="false"
     inkscape:zoom="0.40625"
     inkscape:cx="1032.6154"
     inkscape:cy="1025.2308"
     inkscape:window-width="1920"
     inkscape:window-height="1017"
     inkscape:window-x="1912"
     inkscape:window-y="-8"
     inkscape:window-maximized="1"
     inkscape:current-layer="svg6" />
  <path
     d="M 0,1025 Q 0,817 81,628 162,439 298,301 431,166 627,84 821,3 1022,3 q 207,0 397,81 189,81 327,217 135,134 217,328 81,193 81,396 0,208 -81.5,396.5 Q 1881,1610 1746,1748 q -133,135 -327,218 -189,81 -398,81 -208,0 -396,-81 Q 437,1885 299,1749 167,1619 81,1421 40,1327 20,1228 0,1129 0,1025 Z"
     id="path844" />
  <path
     d="m 1028,174 h -10 q -175,0 -328,66 -160,69 -273,181 -116,115 -182,272 -65,155 -65,333 0,177 65,332 65,154 183,272 117,117 272,182 152,64 326,65 182,0 338,-65 156,-65 273,-183 116,-117 180,-271 66,-159 66,-317 v -9 -10 Q 1871,842 1807,694 1737,532 1626,420 1516,309 1354,240 1199,174 1028,174 Z"
     id="path846"
     style="fill:#ffffff" />
  <path
     d="m 1288,1133 q -49,-75 -49,-209 0,-118 -61,-189 -60,-70 -153,-70 -97,0 -156,70 -58,69 -59,219 -1,116 -43,183 -18,28 -45,50 h 610 q -24,-23 -44,-54 z"
     id="path850" />
  <path
     d="M 1507,1280 H 543 v -92 l 14,-7 q 102,-51 131,-89 31,-40 31,-138 0,-153 59,-246 63,-97 156,-117 l 57,-64 h 67 l 57,64 q 92,20 155,110 60,87 60,224 0,120 37,169 35,45 125,87 l 15,7 z"
     id="path848" />
  <path
     d="m 1570,1405 h -101 l 157,157 -41,41 -155,-157 v 101 l -58,-57 v -140 h 141 z"
     id="path842" />
  <path
     d="m 478,1405 57,-55 h 141 v 140 l -58,57 v -101 l -155,157 -41,-41 157,-157 z"
     id="path840" />
  <path
     d="m 1560,617 -57,56 H 1362 V 532 l 58,-57 v 101 l 155,-157 41,41 -157,157 z"
     id="path838" />
  <path
     d="M 638,576 V 475 l 58,57 V 673 H 555 L 498,617 H 599 L 442,460 483,419 Z"
     id="path836" />
  <path
     d="m 1403,785 44,-39 q 35,89 35,180 0,86 -31,174 l -44,-36 q 24,-69 24,-136 0,-72 -28,-143 z"
     id="path834" />
  <path
     d="m 1503,785 44,-39 q 35,89 35,180 0,86 -31,174 l -44,-36 q 24,-69 24,-136 0,-72 -28,-143 z"
     id="path832" />
  <path
     d="m 591,785 q -28,71 -28,143 0,67 24,136 l -44,36 q -31,-88 -31,-174 0,-91 35,-180 z"
     id="path830" />
  <path
     d="m 491,785 q -28,71 -28,143 0,67 24,136 l -44,36 q -31,-88 -31,-174 0,-91 35,-180 z"
     id="path2" />
</svg>
