<?xml version="1.0" encoding="UTF-8" standalone="no"?>
<!-- Created with Inkscape (http://www.inkscape.org/) -->

<svg
   width="210mm"
   height="297mm"
   viewBox="0 0 210 297"
   version="1.1"
   id="svg2957"
   inkscape:version="1.1 (c68e22c387, 2021-05-23)"
   sodipodi:docname="behandlingsplads.svg"
   xmlns:inkscape="http://www.inkscape.org/namespaces/inkscape"
   xmlns:sodipodi="http://sodipodi.sourceforge.net/DTD/sodipodi-0.dtd"
   xmlns="http://www.w3.org/2000/svg"
   xmlns:svg="http://www.w3.org/2000/svg">
  <sodipodi:namedview
     id="namedview2959"
     pagecolor="#ffffff"
     bordercolor="#666666"
     borderopacity="1.0"
     inkscape:pageshadow="2"
     inkscape:pageopacity="0.0"
     inkscape:pagecheckerboard="0"
     inkscape:document-units="mm"
     showgrid="false"
     inkscape:zoom="0.36388287"
     inkscape:cx="395.73174"
     inkscape:cy="561.99403"
     inkscape:window-width="1920"
     inkscape:window-height="1017"
     inkscape:window-x="-8"
     inkscape:window-y="-8"
     inkscape:window-maximized="1"
     inkscape:current-layer="layer1" />
  <defs
     id="defs2954" />
  <g
     inkscape:label="Lag 1"
     inkscape:groupmode="layer"
     id="layer1">
    <path
       style="fill:#aad400;stroke-width:0.212977"
       d="m -93.138439,162.66066 q 0,40.78508 15.334339,78.05604 16.186251,37.69691 43.12783,64.42552 26.9415804,26.7286 64.212539,42.91484 36.845009,15.54732 77.310621,15.54732 0.21298,-0.21298 0.63893,-0.21298 40.89157,0 78.58848,-15.33434 37.69692,-16.18624 64.42552,-43.12782 26.72861,-26.94158 42.4889,-64.21254 15.54731,-37.05799 15.54731,-77.94956 0,-0.21297 0.21298,-0.63893 0,-40.67858 -15.76029,-77.949551 -16.18625,-37.696914 -42.70187,-64.425515 -26.51563,-26.7286033 -64.21255,-42.488896 -37.05798,-15.547314 -78.16252,-15.547314 -0.21298,0 -0.63893,-0.212978 -40.891572,0 -77.736581,15.760292 Q -8.1606461,-6.549506 -34.889247,19.966121 -61.617849,46.481745 -77.8041,84.178659 -93.138439,121.87558 -93.138439,162.66066 Z"
       id="path3018" />
    <path
       style="stroke-width:0.231618"
       d="M 292.10256,220.33571 H -74.7805 v -9.95958 h 46.091998 V 118.42374 H -74.7805 v -10.42281 h 368.04114 v 10.42281 h -59.29423 v 91.95239 h 58.13615 z"
       id="path3074" />
    <path
       style="fill:#aad400;stroke-width:0.231185"
       d="M -18.282473,209.83492 H 223.30578 V 118.05451 H -18.282473 Z"
       id="path3076" />
    <path
       style="stroke-width:0.264583"
       d="m 209.53758,190.33542 h -39.42292 v -54.23958 h 14.02292 v 43.92083 h 25.4 z"
       id="path3072" />
    <path
       style="stroke-width:0.264583"
       d="M 209.53758,190.33542 Z"
       id="path3070" />
    <path
       style="stroke-width:0.264583"
       d="m 147.09591,137.15417 q 13.22917,3.96875 13.22917,15.61042 0,11.64166 -12.43542,17.99166 -2.91041,1.5875 -7.40833,1.5875 h -2.38125 -8.46667 v 17.99167 h -13.75833 v -54.23958 h 23.01875 q 5.02708,0 8.20208,1.05833 z"
       id="path3068" />
    <path
       style="stroke-width:0.264583;fill:#aad400"
       d="m 145.50841,153.82292 q 0,-2.11667 -1.05833,-3.70417 -2.64583,-3.70416 -6.08542,-3.70416 h -8.73125 v 16.13958 h 3.96875 q 10.84792,0 11.64167,-5.02708 0.26458,-1.5875 0.26458,-3.70417 z"
       id="path3066" />
    <path
       style="stroke-width:0.264583"
       d="M 145.50841,153.82292 Z"
       id="path3064" />
    <path
       style="stroke-width:0.264583"
       d="M 102.11675,190.33542 H 88.093832 v -23.8125 h -20.90208 v 23.8125 h -14.02292 v -54.23958 h 14.02292 v 19.84375 h 20.90208 v -19.84375 h 14.022918 z"
       id="path3062" />
    <path
       style="stroke-width:0.264583"
       d="M 102.11675,190.33542 Z"
       id="path3060" />
    <path
       style="stroke-width:0.264583"
       d="m 31.208412,159.90834 q 11.37709,3.175 11.37709,13.49375 0,7.40833 -4.36563,11.24479 -4.36562,3.83646 -9.26041,4.49791 -4.8948,0.66146 -8.86355,1.19063 H -3.7165882 V 136.09584 H 17.450082 q 21.43125,0 21.43125,12.7 0,7.9375 -7.67292,11.1125 z"
       id="path3058" />
    <path
       style="stroke-width:0.264583;fill:#aad400"
       d="m 18.508412,146.41459 q -0.52916,0 -6.61458,-0.79375 h -1.5875 v 11.90625 h 2.38125 q 2.11667,0.52916 3.70417,0.52916 3.43958,0 5.82083,-1.85208 2.38125,-0.52917 2.38125,-5.15938 0,-4.6302 -6.08542,-4.6302 z"
       id="path3056" />
    <path
       style="stroke-width:0.264583;fill:#aad400"
       d="m 19.566752,180.54584 q 8.99583,0 8.99583,-7.14375 0,-5.55625 -4.49792,-5.55625 -3.96875,-1.32292 -10.31875,-1.32292 h -3.43958 v 14.02292 z"
       id="path3054" />
    <path
       style="stroke-width:0.264583"
       d="M 28.562582,173.40209 Z"
       id="path3052" />
  </g>
</svg>
