<?xml version="1.0" encoding="UTF-8" standalone="no"?>
<svg
   version="1.1"
   viewBox="-10 0 2064 2048"
   id="svg6"
   sodipodi:docname="depot.svg"
   inkscape:version="1.1 (c68e22c387, 2021-05-23)"
   xmlns:inkscape="http://www.inkscape.org/namespaces/inkscape"
   xmlns:sodipodi="http://sodipodi.sourceforge.net/DTD/sodipodi-0.dtd"
   xmlns="http://www.w3.org/2000/svg"
   xmlns:svg="http://www.w3.org/2000/svg">
  <defs
     id="defs10" />
  <sodipodi:namedview
     id="namedview8"
     pagecolor="#ffffff"
     bordercolor="#666666"
     borderopacity="1.0"
     inkscape:pageshadow="2"
     inkscape:pageopacity="0.0"
     inkscape:pagecheckerboard="0"
     showgrid="false"
     inkscape:zoom="0.40625"
     inkscape:cx="1032.6154"
     inkscape:cy="1025.2308"
     inkscape:window-width="1920"
     inkscape:window-height="1017"
     inkscape:window-x="1912"
     inkscape:window-y="-8"
     inkscape:window-maximized="1"
     inkscape:current-layer="svg6" />
  <path
     d="M 0,1025 Q 0,817 81,628 162,439 298,301 431,166 627,84 821,3 1022,3 q 207,0 397,81 189,81 327,217 135,134 217,328 81,193 81,396 0,208 -81.5,396.5 Q 1881,1610 1746,1748 q -133,135 -327,218 -189,81 -398,81 -208,0 -396,-81 Q 437,1885 299,1749 167,1619 81,1421 40,1327 20,1228 0,1129 0,1025 Z"
     id="path846" />
  <path
     d="M 1873,1022 Q 1871,842 1807,694 1738,534 1626,420 1514,307 1354,240 1199,174 1028,174 h -10 q -180,2 -328,66 -160,69 -273,181 -116,115 -182,272 -65,155 -65,333 0,177 65,332 65,154 183,272 117,117 272,182 152,64 326,65 182,0 338,-65 156,-65 273,-183 116,-117 180,-271 66,-159 66,-326 z"
     id="path844"
     style="fill:#ffffff" />
  <path
     d="M 672,1024 Z"
     id="path842" />
  <path
     d="m 696,811 q 112,70 112,216 0,70 -32,124 -31,55 -74,83 -70,44 -195,44 H 355 V 770 h 158 q 117,0 183,41 z"
     id="path838" />
  <path
     d="M 598,883 Q 568,868 492,868 h -7 v 315 h 7 q 81,0 113,-19 67,-40 67,-141 v -3 q 0,-99 -74,-137 z"
     id="path840"
     style="fill:#ffffff" />
  <path
     d="M 1237,1278 Z"
     id="path836" />
  <path
     d="M 1237,1278 H 871 V 770 h 366 v 99 h -236 v 88 h 217 v 98 h -217 v 126 h 236 z"
     id="path834" />
  <path
     d="M 1593,935 Z"
     id="path832" />
  <path
     d="m 1607,780 q 121,39 121,147 v 2 q 0,120 -113,168 -38,15 -95,16 h -80 v 165 H 1310 V 770 h 216 q 49,0 81,10 z"
     id="path2" />
  <path
     d="m 1461,868 h -21 v 151 h 37 q 68,0 85,-16 30,-29 30,-69 0,-1 1,-3 -1,-38 -31,-50 -30,-12 -101,-13 z"
     id="path830"
     style="fill:#ffffff" />
</svg>
