<?xml version="1.0" encoding="UTF-8" standalone="no"?>
<!-- Created with Inkscape (http://www.inkscape.org/) -->

<svg
   width="7.9322109mm"
   height="7.9269099mm"
   viewBox="0 0 7.932211 7.9269099"
   version="1.1"
   id="svg4078"
   inkscape:version="1.1 (c68e22c387, 2021-05-23)"
   sodipodi:docname="evak_paaroerende_cen.svg"
   xmlns:inkscape="http://www.inkscape.org/namespaces/inkscape"
   xmlns:sodipodi="http://sodipodi.sourceforge.net/DTD/sodipodi-0.dtd"
   xmlns="http://www.w3.org/2000/svg"
   xmlns:svg="http://www.w3.org/2000/svg">
  <sodipodi:namedview
     id="namedview4080"
     pagecolor="#ffffff"
     bordercolor="#666666"
     borderopacity="1.0"
     inkscape:pageshadow="2"
     inkscape:pageopacity="0.0"
     inkscape:pagecheckerboard="0"
     inkscape:document-units="mm"
     showgrid="false"
     fit-margin-top="0"
     fit-margin-left="0"
     fit-margin-right="0"
     fit-margin-bottom="0"
     inkscape:zoom="0.74118967"
     inkscape:cx="239.47986"
     inkscape:cy="-244.202"
     inkscape:window-width="1285"
     inkscape:window-height="1040"
     inkscape:window-x="2019"
     inkscape:window-y="15"
     inkscape:window-maximized="0"
     inkscape:current-layer="layer1" />
  <defs
     id="defs4075" />
  <g
     inkscape:label="Lag 1"
     inkscape:groupmode="layer"
     id="layer1"
     transform="translate(-41.410782,-213.13776)">
    <path
       d="m 48.663014,217.08008 c 0,-0.46567 -0.08467,-0.889 -0.254,-1.27265 -0.169333,-0.42333 -0.381,-0.762 -0.677333,-1.05833 -0.298979,-0.29633 -0.637646,-0.51064 -1.060979,-0.67998 -0.42598,-0.16933 -0.849313,-0.254 -1.272646,-0.254 0,0 -0.04233,0 -0.04233,0 -0.468312,0 -0.891645,0.0847 -1.272645,0.254 -0.42598,0.16934 -0.764647,0.38365 -1.06098,0.67998 -0.296333,0.29633 -0.552979,0.67733 -0.722312,1.05833 -0.169334,0.42598 -0.254,0.84932 -0.254,1.31498 0,0.42334 0.08467,0.889 0.254,1.27265 0.169333,0.381 0.425979,0.762 0.722312,1.05833 0.296333,0.29634 0.677334,0.55298 1.06098,0.72231 0.381,0.16934 0.804333,0.21167 1.272645,0.254 0.465667,0 0.889,-0.0847 1.31498,-0.254 0.381,-0.16933 0.762,-0.42597 1.060979,-0.72231 0.296333,-0.29633 0.508,-0.67733 0.677333,-1.05833 0.169333,-0.42598 0.254,-0.84931 0.254,-1.27265 0,0 0,0 0,-0.0423 z m -7.252229,0.0423 c 0,-0.55033 0.08467,-1.06098 0.296333,-1.56898 0.211667,-0.46566 0.508,-0.889 0.849313,-1.27 0.338667,-0.34131 0.761999,-0.63764 1.272646,-0.84931 0.508,-0.21166 1.016,-0.29633 1.526645,-0.29633 0.550334,0 1.06098,0.0847 1.56898,0.29633 0.465666,0.21167 0.891645,0.508 1.272645,0.84931 0.338667,0.33867 0.635,0.762 0.849313,1.27 0.211666,0.508 0.296333,1.01865 0.296333,1.56898 0,0.508 -0.08467,1.01865 -0.296333,1.52665 -0.214313,0.46567 -0.510646,0.889 -0.849313,1.27 -0.338666,0.34131 -0.764645,0.63764 -1.272645,0.84931 -0.508,0.21167 -1.018646,0.29633 -1.56898,0.29633 -0.510645,0 -1.018645,-0.0847 -1.526645,-0.29633 -0.468313,-0.21167 -0.891646,-0.508 -1.272646,-0.84931 -0.341313,-0.33867 -0.595313,-0.762 -0.849313,-1.27 -0.08467,-0.254 -0.169333,-0.508 -0.211666,-0.76465 -0.04233,-0.254 -0.08467,-0.508 -0.08467,-0.762 z m 6.405562,1.82298 H 42.81043 v -2.58498 h 2.587626 v -1.10331 h 2.418291 z m -4.624916,-0.381 h 4.198937 v -2.92629 h -1.568979 v 1.10331 h -2.629958 z m 3.267604,-0.46566 c 0.169333,0 0.296333,-0.0423 0.423333,-0.17198 v 0.29898 c -0.127,0.0423 -0.296333,0.0847 -0.423333,0.0847 -0.468313,0 -0.679979,-0.21166 -0.679979,-0.63764 0,-0.46567 0.211666,-0.67734 0.679979,-0.67734 0.127,0 0.296333,0.0423 0.423333,0.127 v 0.254 c -0.127,-0.0847 -0.296333,-0.16933 -0.423333,-0.16933 -0.298979,0 -0.425979,0.16933 -0.425979,0.46567 v 0 c 0,0.29633 0.127,0.42598 0.425979,0.42598 z m -1.272646,-1.06098 c 0.338667,0 0.508,0.127 0.508,0.381 0,0.254 -0.169333,0.42333 -0.508,0.42333 h -0.129646 v 0.46831 H 44.76041 v -1.27264 z m -0.04233,0.55033 c 0.169333,0 0.296333,-0.0423 0.296333,-0.16933 h 0.04233 c -0.04233,-0.127 -0.127,-0.16934 -0.296333,-0.16934 h -0.129646 v 0.33867 z m -0.595313,0.72231 H 43.6571 v -1.27264 h 0.891646 v 0.21166 H 43.87141 v 0.254 h 0.677333 v 0.21167 H 43.87141 v 0.38365 h 0.677333 z"
       style="fill:#000000;fill-opacity:1;fill-rule:nonzero;stroke:none;stroke-width:0.264583"
       id="path2252" />
  </g>
</svg>
