<?xml version="1.0" encoding="UTF-8" standalone="no"?>
<svg
   version="1.1"
   viewBox="-10 0 2064 2048"
   id="svg6"
   sodipodi:docname="evakuerings-paaroerendecenter.svg"
   inkscape:version="1.1 (c68e22c387, 2021-05-23)"
   xmlns:inkscape="http://www.inkscape.org/namespaces/inkscape"
   xmlns:sodipodi="http://sodipodi.sourceforge.net/DTD/sodipodi-0.dtd"
   xmlns="http://www.w3.org/2000/svg"
   xmlns:svg="http://www.w3.org/2000/svg">
  <defs
     id="defs10" />
  <sodipodi:namedview
     id="namedview8"
     pagecolor="#ffffff"
     bordercolor="#666666"
     borderopacity="1.0"
     inkscape:pageshadow="2"
     inkscape:pageopacity="0.0"
     inkscape:pagecheckerboard="0"
     showgrid="false"
     inkscape:zoom="0.40625"
     inkscape:cx="1032.6154"
     inkscape:cy="1025.2308"
     inkscape:window-width="1920"
     inkscape:window-height="1017"
     inkscape:window-x="1912"
     inkscape:window-y="-8"
     inkscape:window-maximized="1"
     inkscape:current-layer="svg6" />
  <path
     d="M 0,1025 Q 0,817 81,628 162,439 298,301 431,166 627,84 821,3 1022,3 q 207,0 397,81 189,81 327,217 135,134 217,328 81,193 81,396 0,208 -81.5,396.5 Q 1881,1610 1746,1748 q -133,135 -327,218 -189,81 -398,81 -208,0 -396,-81 Q 437,1885 299,1749 167,1619 81,1421 40,1327 20,1228 0,1129 0,1025 Z"
     id="path830" />
  <path
     d="M 1873,1022 Q 1871,842 1807,694 1738,534 1626,420 1514,307 1354,240 1199,174 1028,174 h -10 q -180,2 -328,66 -160,69 -273,181 -116,115 -182,272 -65,155 -65,333 0,177 65,332 65,154 183,272 117,117 272,182 152,64 326,65 182,0 338,-65 156,-65 273,-183 116,-117 180,-271 66,-159 66,-326 z"
     id="path2"
     style="fill:#ffffff" />
  <path
     d="M 1646,1499 H 359 V 831 h 674 V 545 h 613 z"
     id="path832" />
  <path
     d="M 814,1335 Z"
     id="path848" />
  <path
     d="M 459,1399 H 1546 V 645 H 1133 V 931 H 459 Z"
     id="path834"
     style="fill:#ffffff" />
  <path
     d="M 814,1335 H 577 v -330 h 237 v 59 H 640 v 60 h 174 v 60 H 640 v 92 h 174 z"
     id="path846" />
  <path
     d="M 1034,1106 Z"
     id="path844" />
  <path
     d="m 974,1005 q 126,0 126,103 0,103 -128,103 h -34 v 124 h -74 v -330 z"
     id="path840" />
  <path
     d="m 964,1155 q 70,0 70,-47 v 0 q 0,-46 -62,-46 h -34 v 93 z"
     id="path842"
     style="fill:#ffffff" />
  <path
     d="M 1413,1311 Z"
     id="path838" />
  <path
     d="m 1298,1283 q 63,0 111,-44 l 4,72 q -58,26 -113,30 -171,0 -171,-171 0,-171 171,-171 54,0 113,29 v 72 q -59,-43 -115,-43 -104,0 -104,112 v 1 q 0,113 104,113 z"
     id="path836" />
</svg>
