<?xml version="1.0" encoding="UTF-8" standalone="no"?>
<!-- Created with Inkscape (http://www.inkscape.org/) -->

<svg
   width="4.5032086mm"
   height="4.503212mm"
   viewBox="0 0 4.5032086 4.503212"
   version="1.1"
   id="svg8087"
   inkscape:version="1.1 (c68e22c387, 2021-05-23)"
   sodipodi:docname="flugtvejtrap.svg"
   xmlns:inkscape="http://www.inkscape.org/namespaces/inkscape"
   xmlns:sodipodi="http://sodipodi.sourceforge.net/DTD/sodipodi-0.dtd"
   xmlns="http://www.w3.org/2000/svg"
   xmlns:svg="http://www.w3.org/2000/svg">
  <sodipodi:namedview
     id="namedview8089"
     pagecolor="#ffffff"
     bordercolor="#666666"
     borderopacity="1.0"
     inkscape:pageshadow="2"
     inkscape:pageopacity="0.0"
     inkscape:pagecheckerboard="0"
     inkscape:document-units="mm"
     showgrid="false"
     fit-margin-top="0"
     fit-margin-left="0"
     fit-margin-right="0"
     fit-margin-bottom="0"
     inkscape:zoom="23.579016"
     inkscape:cx="10.263363"
     inkscape:cy="9.7332306"
     inkscape:window-width="1920"
     inkscape:window-height="1017"
     inkscape:window-x="-8"
     inkscape:window-y="-8"
     inkscape:window-maximized="1"
     inkscape:current-layer="layer1" />
  <defs
     id="defs8084" />
  <g
     inkscape:label="Lag 1"
     inkscape:groupmode="layer"
     id="layer1"
     transform="translate(-71.284454,-114.83493)">
    <circle
       class="cls-3"
       cx="73.538704"
       cy="117.08389"
       r="2.2489583"
       id="circle1534"
       style="fill:#ffffff;stroke-width:0.264583" />
    <path
       class="cls-9"
       d="m 73.538704,115.21065 a 1.8758958,1.8758958 0 1 1 -1.875896,1.87589 1.8785416,1.8785416 0 0 1 1.875896,-1.87589 m 0,-0.37571 a 2.2516041,2.2516041 0 1 0 2.248958,2.2516 2.2516041,2.2516041 0 0 0 -2.248958,-2.2516 z"
       id="path1536"
       style="fill:#ed2224;stroke-width:0.264583" />
    <g
       id="g921"
       transform="matrix(0.01112638,0,0,0.01112638,71.973172,115.82482)">
      <path
         style="fill:#020202;stroke:none"
         d="M 69,82 C 69,74.6689 67.2966,49.5031 53.419,61.7029 47.8284,66.6177 50,78.3803 50,85 c 0,7.5973 -2.6141,21.417 2.7029,27.606 2.855,3.323 7.2695,3.372 11.2971,3.393 9.8106,0.051 30.579,3.872 38.775,-2.008 5.23,-3.752 4.827,-12.368 -0.883,-15.4185 C 96.7941,95.8487 89.5794,97 84,97 94.9312,81.4819 111.61,68.4591 124.999,55 129.842,50.1314 137.728,42.3997 131.347,35.419 124.578,28.013 115.999,36.0285 111,41.0008 97.5403,54.3895 84.5184,71.0686 69,82 Z"
         id="path8" />
      <path
         style="fill:#020202;stroke:none"
         d="M 214.004,32.5725 C 201.825,36.1154 207,65.9585 207,76 c 0,3.8538 1.437,11.4664 -2.318,13.9722 C 201.52,92.0822 195.618,91 192,91 182.065,91 159.098,86.78 151.228,93.5139 143.575,100.063 148,125.567 148,135 c 0,3.694 1.272,10.521 -1.603,13.397 C 143.521,151.272 136.694,150 133,150 122.769,150 101.807,146.03 93.1088,151.858 88.5806,154.892 89.0019,160.187 89,165 v 30 c 0,3.503 1.1305,9.663 -1.6034,12.397 C 84.5212,210.272 77.6941,209 74,209 c -9.9354,0 -32.9023,-4.22 -40.7716,2.514 -6.6722,5.709 -1.9536,15.226 5.7716,16.297 17.069,2.367 43.1336,3.322 59.9992,-0.155 C 112.414,224.89 107,194.389 107,184 c 0,-3.854 -1.437,-11.466 2.318,-13.972 3.162,-2.11 9.064,-1.028 12.682,-1.028 9.935,0 32.902,4.22 40.772,-2.514 C 170.425,159.937 166,134.433 166,125 c 0,-3.694 -1.272,-10.521 1.603,-13.397 2.876,-2.875 9.703,-1.603 13.397,-1.603 9.935,0 32.902,4.22 40.772,-2.514 C 225.912,103.943 225,97.8742 225,93 V 65 c 0,-3.3894 -0.954,-8.7129 1.028,-11.6821 C 228.534,49.5627 236.146,51 240,51 c 9.935,0 32.902,4.22 40.772,-2.5139 C 287.444,42.7766 282.725,33.2603 275,32.189 262.456,30.4495 248.666,32 236,32 c -6.846,0 -15.38,-1.352 -21.996,0.5725 z"
         id="path18" />
    </g>
  </g>
</svg>
