<?xml version="1.0" standalone="no"?>
<!DOCTYPE svg PUBLIC "-//W3C//DTD SVG 1.1//EN" "http://www.w3.org/Graphics/SVG/1.1/DTD/svg11.dtd" >
<svg xmlns="http://www.w3.org/2000/svg" xmlns:xlink="http://www.w3.org/1999/xlink" version="1.1" viewBox="-10 0 2064 2048">
  <g transform="matrix(1 0 0 -1 0 2047)">
   <path fill="currentColor"
d="M1283 681h-143v292h-255v-292h-143v687h143v-255h255v255h143v-687zM1283 681zM1873 1025q-2 180 -66 328q-69 160 -181 274q-112 113 -272 180q-155 66 -326 66h-10q-180 -2 -328 -66q-160 -69 -273 -181q-116 -115 -182 -272q-65 -155 -65 -333q0 -177 65 -332
q65 -154 183 -272q117 -117 272 -182q152 -64 326 -65q182 0 338 65t273 183q116 117 180 271q66 159 66 326v10zM0 1022q0 208 81 397t217 327q133 135 329 217q194 81 395 81q207 0 397 -81q189 -81 327 -217q135 -134 217 -328q81 -193 81 -396q0 -208 -81.5 -396.5
t-216.5 -326.5q-133 -135 -327 -218q-189 -81 -398 -81q-208 0 -396 81t-326 217q-132 130 -218 328q-41 94 -61 193t-20 203zM1021 403q-256 1 -438 184q-85 85 -133 197q-50 114 -50 242t49 242q49 113 134 197q183 183 438 183q254 0 436 -183q85 -85 135 -197
q50 -114 50 -242q0 -256 -183.5 -439.5t-437.5 -183.5zM1021 451q233 0 403 170t170 405q0 118 -46 222.5t-124 183.5q-169 168 -403 168q-235 0 -405 -168q-78 -78 -123 -184q-45 -103 -45 -222q0 -113 46 -222q44 -105 122 -184q171 -169 405 -169z" />
  </g>

</svg>
