<?xml version="1.0" encoding="UTF-8" standalone="no"?>
<!-- Created with Inkscape (http://www.inkscape.org/) -->

<svg
   width="7.9322081mm"
   height="7.9269166mm"
   viewBox="0 0 7.9322081 7.9269166"
   version="1.1"
   id="svg4078"
   inkscape:version="1.1 (c68e22c387, 2021-05-23)"
   sodipodi:docname="helipad.svg"
   xmlns:inkscape="http://www.inkscape.org/namespaces/inkscape"
   xmlns:sodipodi="http://sodipodi.sourceforge.net/DTD/sodipodi-0.dtd"
   xmlns="http://www.w3.org/2000/svg"
   xmlns:svg="http://www.w3.org/2000/svg">
  <sodipodi:namedview
     id="namedview4080"
     pagecolor="#ffffff"
     bordercolor="#666666"
     borderopacity="1.0"
     inkscape:pageshadow="2"
     inkscape:pageopacity="0.0"
     inkscape:pagecheckerboard="0"
     inkscape:document-units="mm"
     showgrid="false"
     fit-margin-top="0"
     fit-margin-left="0"
     fit-margin-right="0"
     fit-margin-bottom="0"
     inkscape:zoom="0.74118967"
     inkscape:cx="-236.7815"
     inkscape:cy="14.841005"
     inkscape:window-width="1285"
     inkscape:window-height="1040"
     inkscape:window-x="2019"
     inkscape:window-y="15"
     inkscape:window-maximized="0"
     inkscape:current-layer="layer1" />
  <defs
     id="defs4075" />
  <g
     inkscape:label="Lag 1"
     inkscape:groupmode="layer"
     id="layer1"
     transform="translate(-167.65818,-144.81997)">
    <g
       id="g2294"
       transform="matrix(0.26458333,0,0,0.26458333,172.62176,150.11957)">
      <path
         d="M 0,0 H -2.09 V -4.33 H -5.78 V 0 h -2.24 v -10.1 h 2.24 v 3.69 h 3.69 V -10.1 H 0 Z m 8.65,-5.13 c 0,-1.76 -0.32,-3.36 -0.96,-4.81 -0.64,-1.6 -1.6,-2.88 -2.72,-4 -0.97,-1.12 -2.41,-1.93 -3.85,-2.57 -1.61,-0.64 -3.21,-0.959999 -4.81,-0.959999 -0.16,0 -0.16,0 -0.16,0 -1.77,0 -3.37,0.319999 -4.81,0.959999 -1.61,0.64 -2.89,1.45 -4.01,2.57 -1.12,1.12 -2.08,2.56 -2.73,4 -0.640001,1.61 -0.960001,3.21 -0.960001,4.97 0,1.6 0.32,3.36 0.960001,4.81 0.65,1.44 1.61,2.88 2.73,4 1.12,1.12 2.4,2.09 4.01,2.73 1.44,0.64 3.04,0.8 4.81,0.96 1.76,0 3.36,-0.32 4.97,-0.96 1.44,-0.64 2.72,-1.61 4.01,-2.73 1.12,-1.12 1.92,-2.56 2.56,-4 0.64,-1.61 0.96,-3.21 0.96,-4.81 0,0 0,0 0,-0.16 z m -27.41,0.16 c 0,-2.08 0.319999,-4.01 1.120001,-5.93 0.799999,-1.76 1.759999,-3.36 3.209999,-4.8 1.28,-1.29 2.88,-2.410001 4.81,-3.21 1.92,-0.799999 3.84,-1.120001 5.77,-1.120001 2.08,0 4.01,0.320002 5.77,1.120001 1.92,0.799999 3.53,1.92 4.81,3.21 1.44,1.28 2.4,2.88 3.21,4.8 0.8,1.92 1.28,3.85 1.28,5.93 0,1.92 -0.48,3.85 -1.28,5.77 C 9.13,2.56 8.17,4.16 6.73,5.6 5.45,6.89 3.84,8.01 1.92,8.81 0.16,9.61 -1.77,9.93 -3.85,9.93 -5.94,9.93 -7.86,9.61 -9.62,8.81 -11.55,8.01 -13.15,6.89 -14.43,5.6 -15.72,4.32 -16.84,2.72 -17.639999,0.8 -18.120001,-0.16 -18.280001,-1.12 -18.6,-2.09 c -0.16,-0.96 -0.16,-1.92 -0.16,-2.88 z M -3.85,4 c -2.57,0 -4.65,-0.8 -6.42,-2.72 -0.8,-0.8 -1.44,-1.76 -1.92,-2.89 -0.48,-1.12 -0.8,-2.24 -0.8,-3.52 0,-1.28 0.32,-2.4 0.8,-3.53 0.48,-1.12 1.12,-2.08 1.92,-2.88 1.77,-1.76 3.85,-2.72 6.42,-2.72 2.4,0 4.65,0.96 6.41,2.72 0.8,0.8 1.44,1.76 1.93,2.88 0.48,1.13 0.8,2.25 0.8,3.53 0,2.56 -0.97,4.65 -2.73,6.41 C 0.8,3.2 -1.29,4 -3.85,4 Z m 0,-0.64 c 2.24,0 4.33,-0.8 5.93,-2.56 1.6,-1.6 2.41,-3.53 2.41,-5.93 0,-1.12 -0.17,-2.24 -0.65,-3.2 -0.48,-1.13 -0.96,-1.93 -1.76,-2.73 -1.6,-1.6 -3.69,-2.4 -5.93,-2.4 -2.25,0 -4.33,0.8 -5.93,2.4 -0.81,0.8 -1.45,1.6 -1.77,2.73 -0.48,0.96 -0.64,2.08 -0.64,3.2 0,1.12 0.16,2.24 0.64,3.36 0.32,0.97 0.96,1.93 1.77,2.57 1.6,1.76 3.68,2.56 5.93,2.56 z"
         style="fill:#000000;fill-opacity:1;fill-rule:nonzero;stroke:none"
         id="path2296" />
    </g>
  </g>
</svg>
