<?xml version="1.0" encoding="UTF-8" standalone="no"?>
<svg
   version="1.1"
   viewBox="-10 0 2064 2048"
   id="svg6"
   sodipodi:docname="kommandostade.svg"
   inkscape:version="1.1 (c68e22c387, 2021-05-23)"
   xmlns:inkscape="http://www.inkscape.org/namespaces/inkscape"
   xmlns:sodipodi="http://sodipodi.sourceforge.net/DTD/sodipodi-0.dtd"
   xmlns="http://www.w3.org/2000/svg"
   xmlns:svg="http://www.w3.org/2000/svg">
  <defs
     id="defs10" />
  <sodipodi:namedview
     id="namedview8"
     pagecolor="#ffffff"
     bordercolor="#666666"
     borderopacity="1.0"
     inkscape:pageshadow="2"
     inkscape:pageopacity="0.0"
     inkscape:pagecheckerboard="0"
     showgrid="false"
     inkscape:zoom="0.40625"
     inkscape:cx="1032.6154"
     inkscape:cy="1025.2308"
     inkscape:window-width="1920"
     inkscape:window-height="1017"
     inkscape:window-x="-8"
     inkscape:window-y="-8"
     inkscape:window-maximized="1"
     inkscape:current-layer="svg6" />
  <path
     d="M 0,1025 Q 0,817 81,628 162,439 298,301 431,166 627,84 821,3 1022,3 q 207,0 397,81 189,81 327,217 135,134 217,328 81,193 81,396 0,208 -81.5,396.5 Q 1881,1610 1746,1748 q -133,135 -327,218 -189,81 -398,81 -208,0 -396,-81 Q 437,1885 299,1749 167,1619 81,1421 40,1327 20,1228 0,1129 0,1025 Z"
     id="path830" />
  <path
     d="M 1873,1022 Q 1871,842 1807,694 1738,534 1626,420 1514,307 1354,240 1199,174 1028,174 h -10 q -180,2 -328,66 -160,69 -273,181 -116,115 -182,272 -65,155 -65,333 0,177 65,332 65,154 183,272 117,117 272,182 152,64 326,65 182,0 338,-65 156,-65 273,-183 116,-117 180,-271 66,-159 66,-326 z"
     id="path2"
     style="fill:#ffffff" />
  <path
     d="M 793,1275 Z"
     id="path842" />
  <path
     d="M 793,1275 H 640 l -146,-195 -30,37 v 158 H 338 V 789 h 126 v 220 L 640,789 h 145 l -192,226 z"
     id="path840" />
  <path
     d="M 1246,1123 Z"
     id="path838" />
  <path
     d="m 1212,925 q -69,-53 -160,-54 h -4 q -87,0 -87,52 0,16 18.5,26 18.5,10 71.5,22 53,10 97,24 98,31 98,128 0,72 -61,116 -61,42 -162,44 -4,0 -8,1 -97,0 -186,-36 v -118 h 15 q 90,66 186,66 10,0 22,-5 60,-6 63,-39 v -12 q -1,-31 -41,-38 -90,-15 -138,-31 -102,-34 -102,-126 v -10 q 0,-68 58,-112 60,-40 160,-41 h 6 q 96,0 165,31 v 112 z"
     id="path836" />
  <path
     d="M 1712,883 Z"
     id="path834" />
  <path
     d="m 1712,883 h -154 v 392 H 1435 V 883 h -152 v -94 h 429 z"
     id="path832" />
</svg>
