<?xml version="1.0" standalone="no"?>
<!DOCTYPE svg PUBLIC "-//W3C//DTD SVG 1.1//EN" "http://www.w3.org/Graphics/SVG/1.1/DTD/svg11.dtd" >
<svg xmlns="http://www.w3.org/2000/svg" xmlns:xlink="http://www.w3.org/1999/xlink" version="1.1" viewBox="-10 0 2064 2048">
   <path fill="currentColor"
d="M1873 1022q-2 -180 -66 -328q-70 -162 -181 -274q-110 -111 -272 -180q-155 -66 -326 -66h-10q-175 0 -328 66q-160 69 -273 181q-116 115 -182 272q-65 155 -65 333q0 177 65 332q65 154 183 272q117 117 272 182q152 64 326 65q182 0 338 -65t273 -183
q116 -117 180 -271q66 -159 66 -317v-9v-10zM0 1025q0 -208 81 -397t217 -327q133 -135 329 -217q194 -81 395 -81q207 0 397 81q189 81 327 217q135 134 217 328q81 193 81 396q0 208 -81.5 396.5t-216.5 326.5q-133 135 -327 218q-189 81 -398 81q-208 0 -396 -81
t-326 -217q-132 -130 -218 -328q-41 -94 -61 -193t-20 -203zM1011 1365l430 -750l-851 1zM960 1528l-580 -1042l1273 -1l-593 1047v294h-100v-298z" />
</svg>
