<?xml version="1.0" encoding="UTF-8" standalone="no"?>
<!-- Created with Inkscape (http://www.inkscape.org/) -->

<svg
   width="41.763103mm"
   height="41.689121mm"
   viewBox="0 0 41.763103 41.689121"
   version="1.1"
   id="svg5"
   inkscape:version="1.1 (c68e22c387, 2021-05-23)"
   sodipodi:docname="kst.svg"
   xmlns:inkscape="http://www.inkscape.org/namespaces/inkscape"
   xmlns:sodipodi="http://sodipodi.sourceforge.net/DTD/sodipodi-0.dtd"
   xmlns="http://www.w3.org/2000/svg"
   xmlns:svg="http://www.w3.org/2000/svg">
  <sodipodi:namedview
     id="namedview7"
     pagecolor="#ffffff"
     bordercolor="#666666"
     borderopacity="1.0"
     inkscape:pageshadow="2"
     inkscape:pageopacity="0.0"
     inkscape:pagecheckerboard="0"
     inkscape:document-units="mm"
     showgrid="false"
     fit-margin-top="0"
     fit-margin-left="0"
     fit-margin-right="0"
     fit-margin-bottom="0"
     inkscape:zoom="1.8"
     inkscape:cx="-14.444444"
     inkscape:cy="-17.5"
     inkscape:window-width="1920"
     inkscape:window-height="1017"
     inkscape:window-x="1912"
     inkscape:window-y="-8"
     inkscape:window-maximized="1"
     inkscape:current-layer="layer1" />
  <defs
     id="defs2">
    <clipPath
       clipPathUnits="userSpaceOnUse"
       id="clipPath838">
      <path
         d="M 8.871e-6,0 H 595.32001 V 842.04 H 8.871e-6 Z"
         clip-rule="evenodd"
         id="path836" />
    </clipPath>
    <clipPath
       clipPathUnits="userSpaceOnUse"
       id="clipPath850">
      <path
         d="M 8.871e-6,0 H 595.32001 V 842.04 H 8.871e-6 Z"
         clip-rule="evenodd"
         id="path848" />
    </clipPath>
    <clipPath
       clipPathUnits="userSpaceOnUse"
       id="clipPath858">
      <path
         d="M 8.871e-6,0 H 595.32001 V 842.04 H 8.871e-6 Z"
         clip-rule="evenodd"
         id="path856" />
    </clipPath>
    <clipPath
       clipPathUnits="userSpaceOnUse"
       id="clipPath866">
      <path
         d="M 8.871e-6,0 H 595.32001 V 842.04 H 8.871e-6 Z"
         clip-rule="evenodd"
         id="path864" />
    </clipPath>
    <clipPath
       clipPathUnits="userSpaceOnUse"
       id="clipPath878">
      <path
         d="M 8.871e-6,0 H 595.32001 V 842.04 H 8.871e-6 Z"
         clip-rule="evenodd"
         id="path876" />
    </clipPath>
    <clipPath
       clipPathUnits="userSpaceOnUse"
       id="clipPath890">
      <path
         d="M 8.871e-6,0 H 595.32001 V 842.04 H 8.871e-6 Z"
         clip-rule="evenodd"
         id="path888" />
    </clipPath>
    <clipPath
       clipPathUnits="userSpaceOnUse"
       id="clipPath902">
      <path
         d="M 8.871e-6,0 H 595.32001 V 842.04 H 8.871e-6 Z"
         clip-rule="evenodd"
         id="path900" />
    </clipPath>
    <clipPath
       clipPathUnits="userSpaceOnUse"
       id="clipPath910">
      <path
         d="M 8.871e-6,0 H 595.32001 V 842.04 H 8.871e-6 Z"
         clip-rule="evenodd"
         id="path908" />
    </clipPath>
    <clipPath
       clipPathUnits="userSpaceOnUse"
       id="clipPath922">
      <path
         d="M 8.871e-6,0 H 595.32001 V 842.04 H 8.871e-6 Z"
         clip-rule="evenodd"
         id="path920" />
    </clipPath>
    <clipPath
       clipPathUnits="userSpaceOnUse"
       id="clipPath934">
      <path
         d="M 8.871e-6,0 H 595.32001 V 842.04 H 8.871e-6 Z"
         clip-rule="evenodd"
         id="path932" />
    </clipPath>
    <clipPath
       clipPathUnits="userSpaceOnUse"
       id="clipPath946">
      <path
         d="M 8.871e-6,0 H 595.32001 V 842.04 H 8.871e-6 Z"
         clip-rule="evenodd"
         id="path944" />
    </clipPath>
    <clipPath
       clipPathUnits="userSpaceOnUse"
       id="clipPath958">
      <path
         d="M 8.871e-6,0 H 595.32001 V 842.04 H 8.871e-6 Z"
         clip-rule="evenodd"
         id="path956" />
    </clipPath>
    <clipPath
       clipPathUnits="userSpaceOnUse"
       id="clipPath966">
      <path
         d="M 8.871e-6,0 H 595.32001 V 842.04 H 8.871e-6 Z"
         clip-rule="evenodd"
         id="path964" />
    </clipPath>
    <clipPath
       clipPathUnits="userSpaceOnUse"
       id="clipPath974">
      <path
         d="M 8.871e-6,0 H 595.32001 V 842.04 H 8.871e-6 Z"
         clip-rule="evenodd"
         id="path972" />
    </clipPath>
    <clipPath
       clipPathUnits="userSpaceOnUse"
       id="clipPath982">
      <path
         d="M 8.871e-6,0 H 595.32001 V 842.04 H 8.871e-6 Z"
         clip-rule="evenodd"
         id="path980" />
    </clipPath>
    <clipPath
       clipPathUnits="userSpaceOnUse"
       id="clipPath990">
      <path
         d="M 8.871e-6,0 H 595.32001 V 842.04 H 8.871e-6 Z"
         clip-rule="evenodd"
         id="path988" />
    </clipPath>
    <clipPath
       clipPathUnits="userSpaceOnUse"
       id="clipPath1002">
      <path
         d="M 8.871e-6,0 H 595.32001 V 842.04 H 8.871e-6 Z"
         clip-rule="evenodd"
         id="path1000" />
    </clipPath>
    <clipPath
       clipPathUnits="userSpaceOnUse"
       id="clipPath1010">
      <path
         d="M 8.871e-6,0 H 595.32001 V 842.04 H 8.871e-6 Z"
         clip-rule="evenodd"
         id="path1008" />
    </clipPath>
    <clipPath
       clipPathUnits="userSpaceOnUse"
       id="clipPath1022">
      <path
         d="M 8.871e-6,0 H 595.32001 V 842.04 H 8.871e-6 Z"
         clip-rule="evenodd"
         id="path1020" />
    </clipPath>
    <clipPath
       clipPathUnits="userSpaceOnUse"
       id="clipPath1030">
      <path
         d="M 8.871e-6,0 H 595.32001 V 842.04 H 8.871e-6 Z"
         clip-rule="evenodd"
         id="path1028" />
    </clipPath>
    <clipPath
       clipPathUnits="userSpaceOnUse"
       id="clipPath1038">
      <path
         d="M 8.871e-6,0 H 595.32001 V 842.04 H 8.871e-6 Z"
         clip-rule="evenodd"
         id="path1036" />
    </clipPath>
    <clipPath
       clipPathUnits="userSpaceOnUse"
       id="clipPath1050">
      <path
         d="M 8.871e-6,0 H 595.32001 V 842.04 H 8.871e-6 Z"
         clip-rule="evenodd"
         id="path1048" />
    </clipPath>
    <clipPath
       clipPathUnits="userSpaceOnUse"
       id="clipPath1058">
      <path
         d="M 8.871e-6,0 H 595.32001 V 842.04 H 8.871e-6 Z"
         clip-rule="evenodd"
         id="path1056" />
    </clipPath>
    <clipPath
       clipPathUnits="userSpaceOnUse"
       id="clipPath1066">
      <path
         d="M 8.871e-6,0 H 595.32001 V 842.04 H 8.871e-6 Z"
         clip-rule="evenodd"
         id="path1064" />
    </clipPath>
    <clipPath
       clipPathUnits="userSpaceOnUse"
       id="clipPath1074">
      <path
         d="M 8.871e-6,0 H 595.32001 V 842.04 H 8.871e-6 Z"
         clip-rule="evenodd"
         id="path1072" />
    </clipPath>
    <clipPath
       clipPathUnits="userSpaceOnUse"
       id="clipPath1086">
      <path
         d="M 8.871e-6,0 H 595.32001 V 842.04 H 8.871e-6 Z"
         clip-rule="evenodd"
         id="path1084" />
    </clipPath>
    <clipPath
       clipPathUnits="userSpaceOnUse"
       id="clipPath1098">
      <path
         d="M 8.871e-6,0 H 595.32001 V 842.04 H 8.871e-6 Z"
         clip-rule="evenodd"
         id="path1096" />
    </clipPath>
    <clipPath
       clipPathUnits="userSpaceOnUse"
       id="clipPath1106">
      <path
         d="M 8.871e-6,0 H 595.32001 V 842.04 H 8.871e-6 Z"
         clip-rule="evenodd"
         id="path1104" />
    </clipPath>
    <clipPath
       clipPathUnits="userSpaceOnUse"
       id="clipPath1118">
      <path
         d="M 8.871e-6,0 H 595.32001 V 842.04 H 8.871e-6 Z"
         clip-rule="evenodd"
         id="path1116" />
    </clipPath>
    <clipPath
       clipPathUnits="userSpaceOnUse"
       id="clipPath1130">
      <path
         d="M 8.871e-6,0 H 595.32001 V 842.04 H 8.871e-6 Z"
         clip-rule="evenodd"
         id="path1128" />
    </clipPath>
    <clipPath
       clipPathUnits="userSpaceOnUse"
       id="clipPath1138">
      <path
         d="M 8.871e-6,0 H 595.32001 V 842.04 H 8.871e-6 Z"
         clip-rule="evenodd"
         id="path1136" />
    </clipPath>
    <clipPath
       clipPathUnits="userSpaceOnUse"
       id="clipPath1146">
      <path
         d="M 8.871e-6,0 H 595.32001 V 842.04 H 8.871e-6 Z"
         clip-rule="evenodd"
         id="path1144" />
    </clipPath>
    <clipPath
       clipPathUnits="userSpaceOnUse"
       id="clipPath1154">
      <path
         d="M 8.871e-6,0 H 595.32001 V 842.04 H 8.871e-6 Z"
         clip-rule="evenodd"
         id="path1152" />
    </clipPath>
    <clipPath
       clipPathUnits="userSpaceOnUse"
       id="clipPath1162">
      <path
         d="M 8.871e-6,0 H 595.32001 V 842.04 H 8.871e-6 Z"
         clip-rule="evenodd"
         id="path1160" />
    </clipPath>
    <clipPath
       clipPathUnits="userSpaceOnUse"
       id="clipPath1174">
      <path
         d="M 8.871e-6,0 H 595.32001 V 842.04 H 8.871e-6 Z"
         clip-rule="evenodd"
         id="path1172" />
    </clipPath>
    <clipPath
       clipPathUnits="userSpaceOnUse"
       id="clipPath1186">
      <path
         d="M 8.871e-6,0 H 595.32001 V 842.04 H 8.871e-6 Z"
         clip-rule="evenodd"
         id="path1184" />
    </clipPath>
    <clipPath
       clipPathUnits="userSpaceOnUse"
       id="clipPath1198">
      <path
         d="M 8.871e-6,0 H 595.32001 V 842.04 H 8.871e-6 Z"
         clip-rule="evenodd"
         id="path1196" />
    </clipPath>
    <clipPath
       clipPathUnits="userSpaceOnUse"
       id="clipPath1210">
      <path
         d="M 8.871e-6,0 H 595.32001 V 842.04 H 8.871e-6 Z"
         clip-rule="evenodd"
         id="path1208" />
    </clipPath>
    <clipPath
       clipPathUnits="userSpaceOnUse"
       id="clipPath1218">
      <path
         d="M 8.871e-6,0 H 595.32001 V 842.04 H 8.871e-6 Z"
         clip-rule="evenodd"
         id="path1216" />
    </clipPath>
    <clipPath
       clipPathUnits="userSpaceOnUse"
       id="clipPath1230">
      <path
         d="M 8.871e-6,0 H 595.32001 V 842.04 H 8.871e-6 Z"
         clip-rule="evenodd"
         id="path1228" />
    </clipPath>
    <clipPath
       clipPathUnits="userSpaceOnUse"
       id="clipPath1242">
      <path
         d="M 8.871e-6,0 H 595.32001 V 842.04 H 8.871e-6 Z"
         clip-rule="evenodd"
         id="path1240" />
    </clipPath>
    <clipPath
       clipPathUnits="userSpaceOnUse"
       id="clipPath1250">
      <path
         d="M 8.871e-6,0 H 595.32001 V 842.04 H 8.871e-6 Z"
         clip-rule="evenodd"
         id="path1248" />
    </clipPath>
    <clipPath
       clipPathUnits="userSpaceOnUse"
       id="clipPath1258">
      <path
         d="M 8.871e-6,0 H 595.32001 V 842.04 H 8.871e-6 Z"
         clip-rule="evenodd"
         id="path1256" />
    </clipPath>
    <clipPath
       clipPathUnits="userSpaceOnUse"
       id="clipPath1266">
      <path
         d="M 8.871e-6,0 H 595.32001 V 842.04 H 8.871e-6 Z"
         clip-rule="evenodd"
         id="path1264" />
    </clipPath>
    <clipPath
       clipPathUnits="userSpaceOnUse"
       id="clipPath1274">
      <path
         d="M 8.871e-6,0 H 595.32001 V 842.04 H 8.871e-6 Z"
         clip-rule="evenodd"
         id="path1272" />
    </clipPath>
    <clipPath
       clipPathUnits="userSpaceOnUse"
       id="clipPath1282">
      <path
         d="M 8.871e-6,0 H 595.32001 V 842.04 H 8.871e-6 Z"
         clip-rule="evenodd"
         id="path1280" />
    </clipPath>
    <clipPath
       clipPathUnits="userSpaceOnUse"
       id="clipPath1290">
      <path
         d="M 8.871e-6,0 H 595.32001 V 842.04 H 8.871e-6 Z"
         clip-rule="evenodd"
         id="path1288" />
    </clipPath>
    <clipPath
       clipPathUnits="userSpaceOnUse"
       id="clipPath1302">
      <path
         d="M 8.871e-6,0 H 595.32001 V 842.04 H 8.871e-6 Z"
         clip-rule="evenodd"
         id="path1300" />
    </clipPath>
    <clipPath
       clipPathUnits="userSpaceOnUse"
       id="clipPath1310">
      <path
         d="M 8.871e-6,0 H 595.32001 V 842.04 H 8.871e-6 Z"
         clip-rule="evenodd"
         id="path1308" />
    </clipPath>
    <clipPath
       clipPathUnits="userSpaceOnUse"
       id="clipPath1322">
      <path
         d="M 8.871e-6,0 H 595.32001 V 842.04 H 8.871e-6 Z"
         clip-rule="evenodd"
         id="path1320" />
    </clipPath>
    <clipPath
       clipPathUnits="userSpaceOnUse"
       id="clipPath1330">
      <path
         d="M 8.871e-6,0 H 595.32001 V 842.04 H 8.871e-6 Z"
         clip-rule="evenodd"
         id="path1328" />
    </clipPath>
    <clipPath
       clipPathUnits="userSpaceOnUse"
       id="clipPath1338">
      <path
         d="M 8.871e-6,0 H 595.32001 V 842.04 H 8.871e-6 Z"
         clip-rule="evenodd"
         id="path1336" />
    </clipPath>
    <clipPath
       clipPathUnits="userSpaceOnUse"
       id="clipPath1346">
      <path
         d="M 8.871e-6,0 H 595.32001 V 842.04 H 8.871e-6 Z"
         clip-rule="evenodd"
         id="path1344" />
    </clipPath>
    <clipPath
       clipPathUnits="userSpaceOnUse"
       id="clipPath1358">
      <path
         d="M 8.871e-6,0 H 595.32001 V 842.04 H 8.871e-6 Z"
         clip-rule="evenodd"
         id="path1356" />
    </clipPath>
    <clipPath
       clipPathUnits="userSpaceOnUse"
       id="clipPath1366">
      <path
         d="M 8.871e-6,0 H 595.32001 V 842.04 H 8.871e-6 Z"
         clip-rule="evenodd"
         id="path1364" />
    </clipPath>
    <clipPath
       clipPathUnits="userSpaceOnUse"
       id="clipPath1378">
      <path
         d="M 8.871e-6,0 H 595.32001 V 842.04 H 8.871e-6 Z"
         clip-rule="evenodd"
         id="path1376" />
    </clipPath>
    <clipPath
       clipPathUnits="userSpaceOnUse"
       id="clipPath1386">
      <path
         d="M 8.871e-6,0 H 595.32001 V 842.04 H 8.871e-6 Z"
         clip-rule="evenodd"
         id="path1384" />
    </clipPath>
    <clipPath
       clipPathUnits="userSpaceOnUse"
       id="clipPath1394">
      <path
         d="M 8.871e-6,0 H 595.32001 V 842.04 H 8.871e-6 Z"
         clip-rule="evenodd"
         id="path1392" />
    </clipPath>
    <clipPath
       clipPathUnits="userSpaceOnUse"
       id="clipPath1402">
      <path
         d="M 8.871e-6,0 H 595.32001 V 842.04 H 8.871e-6 Z"
         clip-rule="evenodd"
         id="path1400" />
    </clipPath>
    <clipPath
       clipPathUnits="userSpaceOnUse"
       id="clipPath1410">
      <path
         d="M 8.871e-6,0 H 595.32001 V 842.04 H 8.871e-6 Z"
         clip-rule="evenodd"
         id="path1408" />
    </clipPath>
    <clipPath
       clipPathUnits="userSpaceOnUse"
       id="clipPath1418">
      <path
         d="M 8.871e-6,0 H 595.32001 V 842.04 H 8.871e-6 Z"
         clip-rule="evenodd"
         id="path1416" />
    </clipPath>
    <clipPath
       clipPathUnits="userSpaceOnUse"
       id="clipPath1426">
      <path
         d="M 8.871e-6,0 H 595.32001 V 842.04 H 8.871e-6 Z"
         clip-rule="evenodd"
         id="path1424" />
    </clipPath>
    <clipPath
       clipPathUnits="userSpaceOnUse"
       id="clipPath1434">
      <path
         d="M 8.871e-6,0 H 595.32001 V 842.04 H 8.871e-6 Z"
         clip-rule="evenodd"
         id="path1432" />
    </clipPath>
    <clipPath
       clipPathUnits="userSpaceOnUse"
       id="clipPath1446">
      <path
         d="M 8.871e-6,0 H 595.32001 V 842.04 H 8.871e-6 Z"
         clip-rule="evenodd"
         id="path1444" />
    </clipPath>
    <clipPath
       clipPathUnits="userSpaceOnUse"
       id="clipPath1454">
      <path
         d="M 8.871e-6,0 H 595.32001 V 842.04 H 8.871e-6 Z"
         clip-rule="evenodd"
         id="path1452" />
    </clipPath>
    <clipPath
       clipPathUnits="userSpaceOnUse"
       id="clipPath1462">
      <path
         d="M 8.871e-6,0 H 595.32001 V 842.04 H 8.871e-6 Z"
         clip-rule="evenodd"
         id="path1460" />
    </clipPath>
  </defs>
  <g
     inkscape:label="Lag 1"
     inkscape:groupmode="layer"
     id="layer1"
     transform="translate(-196.97072,-314.38645)">
    <g
       id="g1154"
       transform="matrix(0.11007316,0,0,0.11007316,212.45564,316.88121)">
      <path
         style="fill:#000080;stroke-width:0.185549"
         d="m -140.67841,166.70553 q 0,-38.46724 15.04278,-73.504868 15.04278,-35.037631 40.299785,-60.620665 Q -60.07884,6.9969649 -24.42189,-7.6483944 10.67792,-22.664518 49.120569,-22.664518 q 38.442646,0 73.542461,15.0161236 35.09981,15.0161274 60.72824,40.2283914 25.62843,25.212263 40.29978,60.620665 15.04278,35.037628 15.04278,73.504868 0,38.46724 -15.04278,73.31949 -15.04277,35.03763 -40.29978,60.62066 -25.257,25.58303 -60.72824,40.41377 -35.099815,15.01613 -73.635316,15.01613 -38.535505,0 -73.449604,-15.01613 -35.099809,-15.01613 -60.728244,-40.22839 -25.628426,-25.21226 -40.485496,-60.80604 -15.04278,-34.85225 -15.04278,-73.31949 z"
         id="path2013" />
      <path
         style="stroke-width:0.264818"
         d="M -1.1998024,222.13574 Z"
         id="path2011" />
      <path
         style="fill:#ffffff;stroke-width:0.264818"
         d="M -1.1998024,222.13574 H -35.126574 l -32.071394,-43.12709 -6.626329,8.20209 v 34.925 H -101.65485 V 114.97949 h 27.830553 v 48.41875 l 38.697723,-48.41875 h 32.0713948 l -42.4084568,49.74166 z"
         id="path2009" />
      <path
         style="stroke-width:0.264818"
         d="M 98.725124,188.53365 Z"
         id="path2007" />
      <path
         style="fill:#ffffff;stroke-width:0.264818"
         d="m 98.725124,188.53365 q 0,15.875 -13.517696,25.4 -13.252637,9.78959 -36.312237,10.31875 -13.252647,0 -23.58971,-2.11666 -9.806953,-2.38125 -18.5536972,-6.08542 v -25.92917 h 3.1806345 q 9.0117937,6.61459 19.0838067,10.58334 6.626319,2.38125 20.409065,3.70416 0.795158,0.26459 1.590317,0.26459 2.120426,0 5.036011,-1.05834 4.240843,-0.52916 6.891368,-1.32291 2.915585,-1.5875 5.036011,-2.64584 1.855367,-1.85208 1.855367,-4.7625 v -1.5875 -1.05833 q 0,-2.91042 -2.650525,-5.02708 -2.915585,-2.91042 -8.746745,-3.96875 -6.096219,-0.79375 -12.987597,-2.64584 -6.626319,-0.79375 -12.457479,-2.91041 -13.252647,-4.23334 -19.613916,-11.90625 -5.56611,-6.87917 -5.56611,-16.40417 v -2.38125 q 0,-15.08125 12.722538,-24.60625 13.252647,-8.73125 34.986979,-9.26042 10.602112,0 20.939174,1.98438 10.337062,1.98437 17.22844,5.15937 v 24.60625 h -2.385476 q -6.626319,-5.02708 -16.035697,-8.46666 -9.409379,-3.43959 -18.951282,-3.70417 -2.915585,0 -6.891378,0.26458 -3.710734,0.79375 -6.626319,2.11667 -2.915585,0.79375 -4.903476,3.30729 -1.987902,2.51354 -1.987902,4.89479 0,4.49792 3.445694,6.61459 3.445684,1.85208 12.192429,3.96875 6.096219,1.5875 11.132221,2.64583 5.036001,0.79375 11.927379,2.91042 12.192429,3.96875 18.023599,10.84791 6.096209,6.87917 6.096209,18.25625 z"
         id="path2005" />
      <path
         style="stroke-width:0.264818"
         d="M 201.8307,135.61699 Z"
         id="path2003" />
      <path
         style="fill:#ffffff;stroke-width:0.264818"
         d="m 201.8307,135.61699 h -34.19183 v 86.51875 h -27.03539 v -86.51875 h -33.66171 v -20.6375 h 94.88893 z"
         id="path1953" />
    </g>
  </g>
</svg>
