<?xml version="1.0" standalone="no"?>
<!DOCTYPE svg PUBLIC "-//W3C//DTD SVG 1.1//EN" "http://www.w3.org/Graphics/SVG/1.1/DTD/svg11.dtd" >
<svg xmlns="http://www.w3.org/2000/svg" xmlns:xlink="http://www.w3.org/1999/xlink" version="1.1" viewBox="-10 0 2064 2048">
  <g transform="matrix(1 0 0 -1 0 2047)">
   <path fill="currentColor"
d="M0 1022q0 208 81 397t217 327q133 135 329 217q194 81 395 81q207 0 397 -81q189 -81 327 -217q135 -134 217 -328q81 -193 81 -396q0 -208 -81.5 -396.5t-216.5 -326.5q-133 -135 -327 -218q-189 -81 -398 -81q-208 0 -396 81t-326 217q-132 130 -218 328
q-41 94 -61 193t-20 203zM1873 1025q-2 180 -66 328q-70 162 -181 274q-110 111 -272 180q-155 66 -326 66h-10q-175 0 -328 -66q-160 -69 -273 -181q-116 -115 -182 -272q-65 -155 -65 -333q0 -177 65 -332q65 -154 183 -272q117 -117 272 -182q152 -64 326 -65
q182 0 338 65t273 183q116 117 180 271q66 159 66 317v9v10zM820 1500q0 84 60 144t144 60t144 -60t60 -144t-60 -144q-41 -41 -94 -54v-964h-100v964q-53 13 -94 54q-60 60 -60 144z" />
  </g>

</svg>
