<?xml version="1.0" standalone="no"?>
<!DOCTYPE svg PUBLIC "-//W3C//DTD SVG 1.1//EN" "http://www.w3.org/Graphics/SVG/1.1/DTD/svg11.dtd" >
<svg xmlns="http://www.w3.org/2000/svg" xmlns:xlink="http://www.w3.org/1999/xlink" version="1.1" viewBox="-10 0 2064 2048">
  <g transform="matrix(1 0 0 -1 0 2047)">
   <path fill="currentColor"
d="M1873 1025q-2 175 -66 328q-69 160 -181 274q-112 113 -272 180q-156 66 -331 66h-5q-176 -2 -328 -66q-160 -69 -273 -181t-182 -272q-65 -160 -65 -333t65 -332q69 -160 183 -272q113 -113 272 -182q152 -64 326 -65q177 0 338 65q160 69 273 183t180 271
q66 159 66 336zM0 1022q0 208 81 397t217 327q133 135 329 217q194 81 395 81q207 0 397 -81q189 -81 327 -217q135 -134 217 -328q81 -193 81 -396q0 -208 -81.5 -396.5t-216.5 -326.5q-133 -135 -327 -218q-189 -81 -398 -81q-208 0 -396 81t-326 217q-132 130 -218 328
q-41 94 -61 193t-20 203zM1015 992l353 304h-713zM1175 965h433v-365h-1176v365h421l-534 455h1385zM1485 842h-931v-120h931v120z" />
  </g>

</svg>
