<?xml version="1.0" encoding="UTF-8" standalone="no"?>
<svg
   version="1.1"
   viewBox="-10 0 2064 2048"
   id="svg6"
   sodipodi:docname="opmarchomraade.svg"
   inkscape:version="1.1 (c68e22c387, 2021-05-23)"
   xmlns:inkscape="http://www.inkscape.org/namespaces/inkscape"
   xmlns:sodipodi="http://sodipodi.sourceforge.net/DTD/sodipodi-0.dtd"
   xmlns="http://www.w3.org/2000/svg"
   xmlns:svg="http://www.w3.org/2000/svg">
  <defs
     id="defs10" />
  <sodipodi:namedview
     id="namedview8"
     pagecolor="#ffffff"
     bordercolor="#666666"
     borderopacity="1.0"
     inkscape:pageshadow="2"
     inkscape:pageopacity="0.0"
     inkscape:pagecheckerboard="0"
     showgrid="false"
     inkscape:zoom="0.40625"
     inkscape:cx="1032.6154"
     inkscape:cy="1025.2308"
     inkscape:window-width="1920"
     inkscape:window-height="1017"
     inkscape:window-x="1912"
     inkscape:window-y="-8"
     inkscape:window-maximized="1"
     inkscape:current-layer="svg6" />
  <path
     d="M 0,1025 Q 0,817 81,628 162,439 298,301 431,166 627,84 821,3 1022,3 q 207,0 397,81 189,81 327,217 135,134 217,328 81,193 81,396 0,208 -81.5,396.5 Q 1881,1610 1746,1748 q -133,135 -327,218 -189,81 -398,81 -208,0 -396,-81 Q 437,1885 299,1749 167,1619 81,1421 40,1327 20,1228 0,1129 0,1025 Z"
     id="path830" />
  <path
     d="M 1873,1022 Q 1871,847 1807,694 1738,534 1626,420 1514,307 1354,240 1198,174 1023,174 h -5 q -176,2 -328,66 -160,69 -273,181 -113,112 -182,272 -65,160 -65,333 0,173 65,332 69,160 183,272 113,113 272,182 152,64 326,65 177,0 338,-65 160,-69 273,-183 113,-114 180,-271 66,-159 66,-336 z"
     id="path2"
     style="fill:#ffffff" />
  <path
     d="m 1175,1082 h 433 v 365 H 432 V 1082 H 853 L 319,627 h 1385 z"
     id="path834"
     style="fill:#000000" />
  <path
     d="M 1485,1205 H 554 v 120 h 931 z"
     id="path836"
     style="fill:#ffffff" />
  <path
     d="M 1015,1055 1368,751 H 655 Z"
     id="path832"
     style="fill:#ffffff" />
</svg>
