<?xml version="1.0" encoding="UTF-8" standalone="no"?>
<svg
   version="1.1"
   viewBox="-10 0 2064 2048"
   id="svg6"
   sodipodi:docname="opsamlingssted.svg"
   inkscape:version="1.1 (c68e22c387, 2021-05-23)"
   xmlns:inkscape="http://www.inkscape.org/namespaces/inkscape"
   xmlns:sodipodi="http://sodipodi.sourceforge.net/DTD/sodipodi-0.dtd"
   xmlns="http://www.w3.org/2000/svg"
   xmlns:svg="http://www.w3.org/2000/svg">
  <defs
     id="defs10" />
  <sodipodi:namedview
     id="namedview8"
     pagecolor="#ffffff"
     bordercolor="#666666"
     borderopacity="1.0"
     inkscape:pageshadow="2"
     inkscape:pageopacity="0.0"
     inkscape:pagecheckerboard="0"
     showgrid="false"
     inkscape:zoom="0.203125"
     inkscape:cx="999.38461"
     inkscape:cy="775.38461"
     inkscape:window-width="1920"
     inkscape:window-height="1009"
     inkscape:window-x="1912"
     inkscape:window-y="-8"
     inkscape:window-maximized="1"
     inkscape:current-layer="svg6" />
  <path
     d="M 0,1025 Q 0,817 81,628 162,439 298,301 431,166 627,84 821,3 1022,3 q 207,0 397,81 189,81 327,217 135,134 217,328 81,193 81,396 0,208 -81.5,396.5 Q 1881,1610 1746,1748 q -133,135 -327,218 -189,81 -398,81 -208,0 -396,-81 Q 437,1885 299,1749 167,1619 81,1421 40,1327 20,1228 0,1129 0,1025 Z"
     id="path830" />
  <path
     d="M 1873,1022 Q 1871,842 1807,694 1738,534 1626,420 1514,307 1354,240 1199,174 1028,174 h -10 q -180,2 -328,66 -160,69 -273,181 -116,115 -182,272 -65,155 -65,333 0,177 65,332 65,154 183,272 117,117 272,182 152,64 326,65 182,0 338,-65 156,-65 273,-183 116,-117 180,-271 66,-159 66,-326 z"
     id="path2"
     style="fill:#ffffff" />
  <path
     fill="currentColor"
     d="M 1756.4188,625.05034 V 1434.3714 H 281.92817 V 625.05034 Z M 324.32567,665.5635 V 1392.916 H 1714.0213 V 665.5635 Z M 1610.383,1096.1336 c 0,37.6867 -16.0168,68.15 -48.0505,91.3901 -32.0337,23.2401 -75.3733,34.8602 -130.019,34.8602 -31.4055,0 -59.1994,-2.6695 -83.3817,-8.0084 -24.1823,-5.3389 -46.0091,-12.4052 -65.4806,-21.1988 v -90.4479 h 10.3639 c 20.7277,16.3309 43.6537,28.8931 68.7781,37.6866 25.1245,8.7936 49.3067,13.1904 72.5468,13.1904 5.653,0 13.3474,-0.7852 23.0831,-2.3555 9.7357,-1.5703 18.0582,-3.2976 24.9674,-5.1819 6.9093,-1.8843 12.8763,-5.496 17.9012,-10.8349 5.0249,-5.3389 7.5373,-12.4052 7.5373,-21.1987 0,-8.7936 -3.4546,-16.0169 -10.3638,-21.6699 -6.9092,-5.653 -17.5871,-10.0498 -32.0337,-13.1903 -14.4465,-3.7687 -29.5212,-7.2233 -45.224,-10.3638 -15.7027,-3.1406 -30.4633,-6.9093 -44.2818,-11.306 -31.4055,-10.6779 -54.3316,-24.8104 -68.7781,-42.3975 -14.4466,-17.58717 -21.6699,-40.19918 -21.6699,-67.83605 0,-35.17419 15.8598,-63.5962 47.5794,-85.26603 31.7196,-21.66983 72.7039,-32.50475 122.9528,-32.50475 24.4963,0 49.1497,2.35542 73.96,7.06625 24.8104,4.71083 46.0092,10.20681 63.5963,16.48792 v 88.56361 h -8.4795 c -15.7028,-11.93409 -35.0172,-22.14088 -57.9433,-30.62037 -22.926,-8.4795 -46.0091,-12.71925 -69.2492,-12.71925 -8.7935,0 -17.116,0.62811 -24.9674,1.88433 -7.8514,1.25622 -15.3887,3.14055 -22.612,5.653 -7.2233,2.51245 -13.3474,6.43815 -18.3723,11.77708 -5.0249,5.33895 -7.5373,11.46303 -7.5373,18.37225 0,10.04977 4.2398,17.90116 12.7193,23.55416 8.4795,5.65301 23.3971,10.99194 44.7529,16.0168 14.4465,1.88433 27.9509,4.39677 40.5131,7.5373 13.8185,3.76867 27.6369,6.90923 41.4553,9.4217 28.8931,10.04975 50.406,23.24015 64.5385,39.57105 14.1325,16.3309 21.1987,37.6866 21.1987,64.0673 z M 1235.4007,954.80865 c 0,16.33087 -3.1405,32.81878 -9.4216,49.46375 -6.2811,16.6449 -14.7607,30.9344 -25.4386,42.8685 -15.7028,14.4466 -32.8188,25.2815 -51.3481,32.5048 -18.5293,7.2233 -41.9264,10.8349 -70.1914,10.8349 h -61.2408 v 124.366 H 919.7749 V 834.21131 h 162.0526 c 24.4963,0 44.7529,2.04136 60.7697,6.12408 16.0169,4.08272 30.9345,10.52086 44.753,19.31441 15.7028,10.04978 27.6369,23.08308 35.8024,39.09991 8.1654,16.01683 12.2481,34.70315 12.2481,56.05894 z m -102.6962,3.7686 c 0,-11.306 -2.8265,-20.88468 -8.4795,-28.73604 -5.653,-7.85139 -12.5622,-13.66142 -20.7277,-17.43008 -10.6779,-3.76867 -19.9425,-5.96706 -27.7939,-6.59517 -7.8514,-0.62811 -20.8847,-0.94217 -39.0999,-0.94217 h -18.8433 v 115.88651 h 27.3228 c 15.7028,0 29.5212,-0.9422 41.4553,-2.8265 10.6779,-1.8843 20.4137,-6.9092 29.2072,-15.0747 5.653,-5.0249 9.8927,-10.83495 12.7192,-17.43015 2.8265,-6.59513 4.2398,-15.5457 4.2398,-26.8517 z M 843.4594,1025 c 0,61.2409 -17.27305,109.9195 -51.81916,146.0358 -34.54611,36.1164 -82.75363,54.1746 -144.62256,54.1746 -61.86893,0 -110.23348,-18.0582 -145.09364,-54.1746 C 467.06388,1134.9195 449.6338,1086.2409 449.6338,1025 c 0,-61.24081 17.43008,-109.60535 52.29024,-145.09362 34.86016,-35.48827 83.06768,-53.2324 144.62256,-53.2324 61.55488,0 109.7624,17.74413 144.62256,53.2324 34.86016,35.48827 52.29024,83.85281 52.29024,145.09362 z m -128.13464,97.5143 c 10.04977,-11.9341 16.95899,-25.7526 20.72766,-41.4554 3.76867,-15.7027 5.653,-34.232 5.653,-55.5878 0,-21.3558 -2.66947,-40.35618 -8.00842,-57.00105 -5.33894,-16.64493 -12.40519,-30.30635 -21.19874,-40.98426 -8.79355,-10.04977 -18.84333,-17.43008 -30.14933,-22.14091 -11.306,-4.71083 -23.08308,-7.06625 -35.33125,-7.06625 -12.24816,0 -23.86821,2.19839 -34.86016,6.59516 -10.99193,4.39679 -21.51279,11.93412 -31.56257,22.612 -6.90922,10.04977 -13.50439,23.39713 -19.7855,40.04206 -6.28111,16.64493 -9.42166,35.95935 -9.42166,57.94325 0,23.2401 2.98353,42.8686 8.95058,58.8854 5.96705,16.0169 13.0333,28.8931 21.19874,38.6288 8.16545,9.7357 17.90117,16.959 29.20717,21.6699 11.30599,4.7108 24.18227,7.0662 38.62882,7.0662 14.44656,0 25.75256,-2.1984 33.918,-6.5951 14.44655,-8.1655 25.12444,-15.7028 32.03366,-22.612 z"
     id="path2-8"
     style="stroke-width:0.942167"
     sodipodi:nodetypes="ccccccccccsssscccssssssscscssssscccssssssscccsssscssccccsscsssscssccsccssssssssssscssscssscsssssscc" />
</svg>
