<?xml version="1.0" standalone="no"?>
<!DOCTYPE svg PUBLIC "-//W3C//DTD SVG 1.1//EN" "http://www.w3.org/Graphics/SVG/1.1/DTD/svg11.dtd" >
<svg xmlns="http://www.w3.org/2000/svg" xmlns:xlink="http://www.w3.org/1999/xlink" version="1.1" viewBox="-10 0 2063 2048">
  <g transform="matrix(1 0 0 -1 0 2047)">
   <path fill="currentColor"
d="M1801 1446v-859h-1565v859h1565zM281 1403v-772h1475v772h-1475zM1646 946q0 -60 -51 -97t-138 -37q-50 0 -88.5 8.5t-69.5 22.5v96h11q33 -26 73 -40t77 -14q9 0 24.5 2.5t26.5 5.5t19 11.5t8 22.5t-11 23t-34 14q-23 6 -48 11t-47 12q-50 17 -73 45t-23 72
q0 56 50.5 90.5t130.5 34.5q39 0 78.5 -7.5t67.5 -17.5v-94h-9q-25 19 -61.5 32.5t-73.5 13.5q-14 0 -26.5 -2t-24 -6t-19.5 -12.5t-8 -19.5q0 -16 13.5 -25t47.5 -17q23 -3 43 -8q22 -6 44 -10q46 -16 68.5 -42t22.5 -68zM1646 946zM1248 1096q0 -26 -10 -52.5t-27 -45.5
q-25 -23 -54.5 -34.5t-74.5 -11.5h-65v-132h-104v404h172q39 0 64.5 -6.5t47.5 -20.5q25 -16 38 -41.5t13 -59.5zM1139 1092q0 18 -9 30.5t-22 18.5q-17 6 -29.5 7t-41.5 1h-20v-123h29q25 0 44 3q17 3 31 16q9 8 13.5 18.5t4.5 28.5zM1139 1093zM832 1021.5
q0 -97.5 -55 -155t-153.5 -57.5t-154 57.5t-55.5 155t55.5 154t153.5 56.5t153.5 -56.5t55.5 -154zM696 918q16 19 22 44t6 59t-8.5 60.5t-22.5 43.5q-14 16 -32 23.5t-37.5 7.5t-37 -7t-33.5 -24q-11 -16 -21 -42.5t-10 -61.5q0 -37 9.5 -62.5t22.5 -41t31 -23t41 -7.5
t36 7q23 13 34 24zM696 918zM0 1021.5q0 207.5 81 396.5t217 327t328 217q189 81 396 81t396 -81t327 -217t217 -327q81 -189 81 -396.5t-81 -395.5q-81 -189 -217 -327t-327 -218q-189 -81 -396.5 -81t-395.5 81q-189 81 -327 217t-218 328q-81 188 -81 395.5zM78 1020.5
q0 -191.5 72 -366.5q76 -177 202.5 -302.5t301.5 -201.5q173 -73 363 -73q1 1 3 1q192 0 369 72q177 76 302.5 202.5t199.5 301.5q73 174 73 366q0 1 1 3q0 191 -74 366q-76 177 -200.5 302.5t-301.5 199.5q-174 73 -367 73q-1 0 -3 1q-192 0 -365 -74
q-177 -76 -302.5 -200.5t-201.5 -301.5q-72 -177 -72 -368.5z" />
  </g>

</svg>
