<?xml version="1.0" encoding="UTF-8" standalone="no"?>
<svg
   version="1.1"
   viewBox="-10 0 2064 2048"
   id="svg6"
   sodipodi:docname="pumpestand.svg"
   inkscape:version="1.1 (c68e22c387, 2021-05-23)"
   xmlns:inkscape="http://www.inkscape.org/namespaces/inkscape"
   xmlns:sodipodi="http://sodipodi.sourceforge.net/DTD/sodipodi-0.dtd"
   xmlns="http://www.w3.org/2000/svg"
   xmlns:svg="http://www.w3.org/2000/svg">
  <defs
     id="defs10" />
  <sodipodi:namedview
     id="namedview8"
     pagecolor="#ffffff"
     bordercolor="#666666"
     borderopacity="1.0"
     inkscape:pageshadow="2"
     inkscape:pageopacity="0.0"
     inkscape:pagecheckerboard="0"
     showgrid="false"
     inkscape:zoom="0.40625"
     inkscape:cx="1032.6154"
     inkscape:cy="1025.2308"
     inkscape:window-width="1920"
     inkscape:window-height="1017"
     inkscape:window-x="-8"
     inkscape:window-y="-8"
     inkscape:window-maximized="1"
     inkscape:current-layer="svg6" />
  <path
     d="M 0,1025 Q 0,817 81,628 162,439 298,301 431,166 627,84 821,3 1022,3 q 207,0 397,81 189,81 327,217 135,134 217,328 81,193 81,396 0,208 -81.5,396.5 Q 1881,1610 1746,1748 q -133,135 -327,218 -189,81 -398,81 -208,0 -396,-81 Q 437,1885 299,1749 167,1619 81,1421 40,1327 20,1228 0,1129 0,1025 Z"
     id="path830" />
  <path
     d="M 1873,1022 Q 1871,842 1807,694 1738,534 1626,420 1514,307 1354,240 1199,174 1028,174 h -10 q -180,2 -328,66 -160,69 -273,181 -116,115 -182,272 -65,155 -65,333 0,177 65,332 65,154 183,272 117,117 272,182 152,64 326,65 182,0 338,-65 156,-65 273,-183 116,-117 180,-271 66,-159 66,-326 z"
     id="path2"
     style="fill:#ffffff" />
  <path
     d="m 1791,972 v 145 l -251,-3 v 246 h -155 v -233 l -717,408 v -421 l -411,-1 V 968 l 411,3 V 557 l 717,392 V 733 h 155 v 235 z"
     id="path832" />
</svg>
