<?xml version="1.0" encoding="UTF-8" standalone="no"?>
<!-- Created with Inkscape (http://www.inkscape.org/) -->

<svg
   width="7.9322mm"
   height="7.9269099mm"
   viewBox="0 0 7.9322 7.9269099"
   version="1.1"
   id="svg4078"
   inkscape:version="1.1 (c68e22c387, 2021-05-23)"
   sodipodi:docname="rensepunkt.svg"
   xmlns:inkscape="http://www.inkscape.org/namespaces/inkscape"
   xmlns:sodipodi="http://sodipodi.sourceforge.net/DTD/sodipodi-0.dtd"
   xmlns="http://www.w3.org/2000/svg"
   xmlns:svg="http://www.w3.org/2000/svg">
  <sodipodi:namedview
     id="namedview4080"
     pagecolor="#ffffff"
     bordercolor="#666666"
     borderopacity="1.0"
     inkscape:pageshadow="2"
     inkscape:pageopacity="0.0"
     inkscape:pagecheckerboard="0"
     inkscape:document-units="mm"
     showgrid="false"
     fit-margin-top="0"
     fit-margin-left="0"
     fit-margin-right="0"
     fit-margin-bottom="0"
     inkscape:zoom="0.74118967"
     inkscape:cx="-231.38477"
     inkscape:cy="12.142641"
     inkscape:window-width="1285"
     inkscape:window-height="1040"
     inkscape:window-x="2019"
     inkscape:window-y="15"
     inkscape:window-maximized="0"
     inkscape:current-layer="layer1" />
  <defs
     id="defs4075" />
  <g
     inkscape:label="Lag 1"
     inkscape:groupmode="layer"
     id="layer1"
     transform="translate(-166.19088,-145.49714)">
    <path
       d="m 173.44311,149.48176 c 0,-0.46567 -0.0847,-0.88899 -0.25401,-1.27264 -0.16933,-0.42334 -0.42333,-0.80434 -0.71967,-1.10067 -0.25664,-0.254 -0.63764,-0.508 -1.01864,-0.67733 -0.42598,-0.17198 -0.84931,-0.25665 -1.27264,-0.25665 -0.0423,0 -0.0423,0 -0.0423,0 -0.46831,0 -0.89165,0.0847 -1.27264,0.25665 -0.42598,0.16933 -0.76465,0.42333 -1.06098,0.71966 -0.29633,0.29633 -0.55034,0.635 -0.72232,1.016 -0.16933,0.42599 -0.254,0.84931 -0.254,1.31498 0,0.46567 0.0847,0.89165 0.254,1.27265 0.17198,0.42333 0.42599,0.762 0.72232,1.05833 0.29633,0.29898 0.635,0.55298 1.06098,0.72231 0.38099,0.16934 0.80433,0.254 1.27264,0.254 0.46567,0 0.889,-0.0847 1.31498,-0.254 0.381,-0.16933 0.71967,-0.42333 1.06098,-0.72231 0.29633,-0.29633 0.508,-0.635 0.67733,-1.05833 0.16934,-0.381 0.25401,-0.80698 0.25401,-1.23031 0,-0.0423 0,-0.0423 0,-0.0423 z m -7.25223,0 c 0,-0.55033 0.0847,-1.05833 0.29633,-1.52664 0.21166,-0.50801 0.46567,-0.93134 0.84931,-1.27001 0.33866,-0.38364 0.762,-0.63764 1.27264,-0.84931 0.50801,-0.21166 1.016,-0.33866 1.52665,-0.33866 0.55033,0 1.06098,0.127 1.52665,0.33866 0.508,0.21167 0.93398,0.46567 1.27264,0.84931 0.381,0.33867 0.635,0.762 0.84931,1.27001 0.21167,0.46831 0.33867,0.97631 0.33867,1.52664 0,0.55034 -0.127,1.06098 -0.33867,1.52665 -0.21431,0.508 -0.46831,0.93133 -0.84931,1.27265 -0.33866,0.33866 -0.76464,0.635 -1.27264,0.84666 -0.46567,0.21167 -0.97632,0.29633 -1.52665,0.29633 -0.55298,0 -1.06098,-0.0847 -1.52665,-0.29633 -0.51064,-0.21166 -0.93398,-0.46566 -1.27264,-0.84666 -0.34132,-0.34132 -0.63765,-0.76465 -0.84931,-1.27265 -0.12701,-0.254 -0.16934,-0.46567 -0.254,-0.762 -0.0423,-0.25664 -0.0423,-0.51065 -0.0423,-0.76465 z m 6.19389,-0.50799 c 0.0423,0 0.0423,0.0423 0.0423,0.0423 v 0.0423 c 0,0.0423 0,0.0847 -0.0423,0.0847 0,0 0,0 0,0 0,0 -0.0423,0 -0.0873,0 0,-0.0423 -0.0423,-0.0423 -0.0423,-0.0847 -0.0423,-0.0423 -0.0423,-0.0847 -0.0423,-0.0847 -0.0423,-0.0423 -0.0423,-0.0423 -0.0423,-0.0847 0,0 0,0 0.0423,-0.0423 0,0 0,0 0,0 0.0423,0 0.0423,0 0.0847,0.0423 0,0 0.045,0.0423 0.0873,0.0847 z m -0.89165,0.21166 c 0,0 0,0 0,0 -0.0423,0 -0.0423,0 -0.0847,0 -0.0423,0 -0.0423,-0.0423 -0.0847,-0.0847 0,-0.0423 0,-0.0847 -0.0423,-0.0847 0,-0.0423 0,-0.0423 0,-0.0423 0,-0.0423 0,-0.0423 0,-0.0423 0.0423,0 0.0423,0 0.0423,0 0,0 0.0423,0 0.0423,0 0.0423,0.0423 0.0847,0.0423 0.127,0.0847 0,0.0423 0.0423,0.0423 0.0423,0.0847 v 0 c 0,0 0,0.0423 -0.0423,0.0423 0,0.0423 0,0.0423 0,0.0423 z m 0.508,-0.42334 c -0.0423,0.0423 -0.0423,0.0423 -0.0423,0.0423 0,0 -0.0423,-0.0423 -0.0847,-0.0423 0,0 -0.0423,-0.0423 -0.0423,-0.0847 -0.0423,-0.0423 -0.0423,-0.0847 -0.0423,-0.0847 0,0 -0.0423,-0.0423 -0.0423,-0.0423 0,-0.0423 0,-0.0423 0.0423,-0.0423 0,0 0,0 0,0 0.0423,0 0.0423,0 0.0847,0 0,0.0423 0.0423,0.0423 0.0847,0.0847 0.0423,0.0423 0.0423,0.0423 0.0423,0.0847 v 0 c 0,0 0,0.0423 0,0.0423 0,0.0423 0,0.0423 0,0.0423 z m -0.93133,1.39965 c 0.0423,0 0.0847,0.0423 0.127,0.0423 0,0.0423 0,0.0847 0,0.0847 v 0.0423 c 0,0.0423 0,0.0847 0,0.0847 0,0 0,0 -0.0423,0 0,0 0,0 -0.0423,-0.0423 -0.0423,0 -0.0423,-0.0423 -0.0873,-0.0847 0,-0.0423 0,-0.0423 -0.0423,-0.0847 0,0 0,-0.0423 0,-0.0423 0,0 0,-0.045 0,-0.045 0,0 0.0423,0 0.0423,0 0,0 0.045,0 0.045,0.045 z m 1.05834,-0.29898 c 0.0423,0.0423 0.0423,0.0423 0.0423,0.0847 v 0.0423 c 0,0.0423 0,0.0423 0,0.0423 0,0 -0.0423,0 -0.0423,0 0,0 -0.0423,0 -0.0423,0 -0.0423,-0.0423 -0.0847,-0.0423 -0.0847,-0.0847 0,-0.0423 -0.0423,-0.0847 -0.0423,-0.0847 0,-0.0423 0,-0.0423 0,-0.0847 0,0 0,0 0,0 0,0 0,0 0.0423,0 0,0 0,0 0.0423,0 0.0423,0 0.0423,0.0423 0.0847,0.0847 z m 0.59531,-0.635 c 0,0.0423 0.0423,0.0423 0.0847,0.0847 0,0.0423 0.0423,0.0423 0.0423,0.0847 0,0 0,0.0423 0,0.0423 0,0.0423 0,0.0423 -0.0423,0.0423 0,0.0423 0,0.0423 0,0.0423 0,0 -0.0423,-0.0423 -0.0847,-0.0423 0,0 -0.0423,-0.0423 -0.0423,-0.0847 -0.0423,-0.0423 -0.0423,-0.0423 -0.0423,-0.0847 -0.0423,0 -0.0423,-0.0423 -0.0423,-0.0423 0,-0.0423 0,-0.0423 0.0423,-0.0423 0,0 0,0 0,0 0.0423,0 0.0423,0 0.0847,0 z m -1.65365,0.508 c 0,0.0423 0.0423,0.0423 0.0423,0.0847 v 0.0423 c 0,0.0423 -0.0423,0.0423 -0.0423,0.0423 0,0 0,0 0,0 -0.045,0 -0.045,0 -0.0873,0 -0.0423,0 -0.0423,-0.0423 -0.0847,-0.0847 0,-0.0423 0,-0.0847 0,-0.0847 -0.0423,-0.0423 -0.0423,-0.0423 -0.0423,-0.0423 0,-0.0423 0,-0.0423 0,-0.0423 0.0423,0 0.0423,0 0.0423,0 0,0 0.0423,0 0.0847,0 0,0.0423 0.0423,0.0423 0.0873,0.0847 z m 0.67734,-0.12699 c 0,0 0,0 -0.0423,0 0,0 -0.0423,0 -0.0423,0 -0.0423,0 -0.0847,-0.0423 -0.0847,-0.0847 0,-0.0423 -0.0423,-0.0847 -0.0423,-0.0847 0,-0.0423 0,-0.0423 0,-0.0847 0,0 0,0 0,0 0,0 0.0423,-0.0423 0.0423,-0.0423 0,0 0.0423,0.0423 0.0423,0.0423 0.0423,0 0.0423,0.0423 0.0847,0.0847 0.0423,0.0423 0.0423,0.0423 0.0423,0.0847 v 0 c 0,0 0,0.0423 0,0.0423 0,0.0423 0,0.0423 0,0.0423 z m -0.97632,-0.42334 c 0.0423,0 0.0847,0.0423 0.0847,0.0847 0.0423,0 0.0423,0.0423 0.0423,0.0423 0,0.0423 0,0.0423 0,0.0847 0,0 0,0.0423 0,0.0423 0,0 0,0 -0.0423,0 0,0 0,0 -0.0423,0 -0.0423,-0.0423 -0.0423,-0.0423 -0.0847,-0.0847 0,-0.0423 0,-0.0847 -0.0423,-0.0847 0,-0.0423 0,-0.0423 0,-0.0847 0,0 0,0 0,0 0,0 0.0423,-0.0423 0.0423,-0.0423 0,0 0.0423,0.0423 0.0423,0.0423 z m -2.46063,-0.46567 v 2.16165 h -0.42332 v -2.16165 c 0,-0.29633 0.12699,-0.55298 0.381,-0.80698 0.42597,-0.42333 0.89164,-0.63499 1.44197,-0.63499 0.045,0 0.0873,0 0.17198,0 0.254,0.0423 0.508,0.12699 0.67733,0.29633 0.0847,-0.0423 0.21167,-0.0423 0.29634,-0.0423 0.29897,0 0.67997,0.16934 1.14564,0.50801 l 0.16934,0.12699 -2.07698,1.14565 -0.0423,-0.21167 c 0,-0.12699 -0.0423,-0.254 -0.0423,-0.33867 0,-0.46566 0.0847,-0.76464 0.254,-0.93397 0,-0.0423 -0.0423,-0.0423 -0.0847,-0.0847 -0.0423,-0.0423 -0.21167,-0.0847 -0.46832,-0.0847 -0.0847,0 -0.16933,0 -0.254,0.0423 -0.381,0.0423 -0.635,0.21166 -0.80433,0.38099 -0.21431,0.34132 -0.34132,0.51066 -0.34132,0.63765 z"
       style="fill:#000000;fill-opacity:1;fill-rule:nonzero;stroke:none;stroke-width:0.264583"
       id="path2516" />
  </g>
</svg>
