<?xml version="1.0" encoding="UTF-8" standalone="no"?>
<svg
   version="1.1"
   viewBox="-10 0 2064 2048"
   id="svg6"
   sodipodi:docname="rensning.svg"
   inkscape:version="1.1 (c68e22c387, 2021-05-23)"
   xmlns:inkscape="http://www.inkscape.org/namespaces/inkscape"
   xmlns:sodipodi="http://sodipodi.sourceforge.net/DTD/sodipodi-0.dtd"
   xmlns="http://www.w3.org/2000/svg"
   xmlns:svg="http://www.w3.org/2000/svg">
  <defs
     id="defs10" />
  <sodipodi:namedview
     id="namedview8"
     pagecolor="#ffffff"
     bordercolor="#666666"
     borderopacity="1.0"
     inkscape:pageshadow="2"
     inkscape:pageopacity="0.0"
     inkscape:pagecheckerboard="0"
     showgrid="false"
     inkscape:zoom="0.40625"
     inkscape:cx="1032.6154"
     inkscape:cy="1025.2308"
     inkscape:window-width="1920"
     inkscape:window-height="1017"
     inkscape:window-x="-8"
     inkscape:window-y="-8"
     inkscape:window-maximized="1"
     inkscape:current-layer="svg6" />
  <path
     d="M 0,1025 Q 0,817 81,628 162,439 298,301 431,166 627,84 821,3 1022,3 q 207,0 397,81 189,81 327,217 135,134 217,328 81,193 81,396 0,208 -81.5,396.5 Q 1881,1610 1746,1748 q -133,135 -327,218 -189,81 -398,81 -208,0 -396,-81 Q 437,1885 299,1749 167,1619 81,1421 40,1327 20,1228 0,1129 0,1025 Z"
     id="path830" />
  <path
     d="M 1873,1022 Q 1871,842 1807,694 1738,534 1626,420 1514,307 1354,240 1199,174 1028,174 h -10 q -180,2 -328,66 -160,69 -273,181 -116,115 -182,272 -65,155 -65,333 0,177 65,332 65,154 183,272 117,117 272,182 152,64 326,65 182,0 338,-65 156,-65 273,-183 116,-117 180,-271 66,-159 66,-326 z"
     id="path2"
     style="fill:#ffffff" />
  <path
     d="m 550,826 v 561 H 445 V 826 q 0,-102 96,-202 158,-163 366,-163 22,0 45,2 104,9 183,73 32,-14 71,-14 119,0 299,133 l 42,31 -541,295 -8,-50 q -6,-49 -6,-93 0,-172 64,-236 l -20,-24 q -29,-19 -127,-19 -30,0 -62,6 -145,27 -204,102 -93,122 -93,159 z"
     id="path850" />
  <path
     d="m 1210,967.5 q 12,12.5 12,20 0,7.5 -1,16.5 -1,9 -3.5,11 -2.5,2 -7,2 -4.5,0 -16.5,-6 -12,-6 -18,-21 -6,-15 -10.5,-23 -4.5,-8 -4.5,-13.5 0,-5.5 3.5,-7.5 3.5,-2 8,-2 4.5,0 15,5.5 10.5,5.5 22.5,18 z"
     id="path848" />
  <path
     d="m 1434,1063 q -2,1 -6.5,1 -4.5,0 -16.5,-6 -12,-6 -18,-21 -6,-15 -10.5,-24 -4.5,-9 -4.5,-14 0,-5 4,-8 4,-3 8.5,-3 4.5,0 14.5,6.5 10,6.5 22,19.5 12,12 12,20 l -1,1 q 0,8 -1,17 -1,9 -3,11 z"
     id="path846" />
  <path
     d="m 1259,1092 q 9,11 9,19 v 10 q -2,16 -4.5,18 -2.5,2 -6.5,2 -4,0 -16.5,-6 -12.5,-6 -18.5,-21 -6,-15 -10,-23.5 -4,-8.5 -4,-13.5 0,-5 3,-7 3,-2 7.5,-2 4.5,0 15.5,5 11,5 25,19 z"
     id="path844" />
  <path
     d="m 1706,983 q 12,13 12,20.5 0,7.5 -1,16.5 -1,9 -3.5,11 -2.5,2 -7,2 -4.5,0 -16.5,-6 -12,-6 -18,-21 -6,-15 -10.5,-23 -4.5,-8 -4.5,-13.5 0,-5.5 3.5,-8 3.5,-2.5 8.5,-2.5 5,0 15,5.5 10,5.5 22,18.5 z"
     id="path842" />
  <path
     d="m 1538,1123 q 9,12 9,20 v 10 q -2,16 -4.5,17.5 -2.5,1.5 -6.5,1.5 -4,0 -16,-6 -12,-6 -18,-21 -6,-15 -10.5,-23.5 -4.5,-8.5 -4.5,-13.5 0,-5 3,-7 3,-2 7.5,-2 4.5,0 15.5,5 11,5 25,19 z"
     id="path840" />
  <path
     d="m 1290,1216 q 9,12 9,19 v 10 q -2,16 -4.5,18 -2.5,2 -6.5,2 -4,0 -16,-6 -12,-6 -18,-21 -6,-15 -10.5,-23.5 -4.5,-8.5 -4.5,-13.5 0,-5 3,-7 3,-2 7.5,-2 4.5,0 15.5,5 16,7 25,19 z"
     id="path838" />
  <path
     d="m 1496,846 q -2,1 -6.5,1 -4.5,0 -16.5,-6 -12,-6 -18,-21 -6,-15 -10.5,-23 -4.5,-8 -4.5,-13.5 0,-5.5 3.5,-8 3.5,-2.5 8.5,-2.5 5,0 15,5.5 10,5.5 22,18.5 12,12 12,20 h -1 q 0,8 -1,17 -1,9 -3,12 z"
     id="path836" />
  <path
     d="m 1372,954 q -2,1 -6.5,1 -4.5,0 -16.5,-6 -12,-6 -18,-21 -6,-15 -10.5,-23 -4.5,-8 -4.5,-13.5 0,-5.5 3.5,-7.5 3.5,-2 8,-2 4.5,0 15,5.5 10.5,5.5 22.5,17.5 12,12 12,20 h -1 q 0,8 -1,17 -1,9 -3,12 z"
     id="path834" />
  <path
     d="m 1600,891 q 9,12 9,20 v 10 q -2,16 -4.5,17.5 -2.5,1.5 -6.5,1.5 -4,0 -16,-6 -12,-6 -18,-21 -6,-15 -10.5,-23 -4.5,-8 -4.5,-13.5 0,-5.5 4,-9.5 2,-1 7,-1 5,0 15.5,5.5 10.5,5.5 24.5,19.5 z"
     id="path832" />
</svg>
