<?xml version="1.0" encoding="UTF-8" standalone="no"?>
<!-- Created with Inkscape (http://www.inkscape.org/) -->

<svg
   width="7.9322109mm"
   height="7.9269099mm"
   viewBox="0 0 7.932211 7.9269099"
   version="1.1"
   id="svg4078"
   inkscape:version="1.1 (c68e22c387, 2021-05-23)"
   sodipodi:docname="samlested_doede.svg"
   xmlns:inkscape="http://www.inkscape.org/namespaces/inkscape"
   xmlns:sodipodi="http://sodipodi.sourceforge.net/DTD/sodipodi-0.dtd"
   xmlns="http://www.w3.org/2000/svg"
   xmlns:svg="http://www.w3.org/2000/svg">
  <sodipodi:namedview
     id="namedview4080"
     pagecolor="#ffffff"
     bordercolor="#666666"
     borderopacity="1.0"
     inkscape:pageshadow="2"
     inkscape:pageopacity="0.0"
     inkscape:pagecheckerboard="0"
     inkscape:document-units="mm"
     showgrid="false"
     fit-margin-top="0"
     fit-margin-left="0"
     fit-margin-right="0"
     fit-margin-bottom="0"
     inkscape:zoom="0.74118967"
     inkscape:cx="61.387795"
     inkscape:cy="52.61811"
     inkscape:window-width="1285"
     inkscape:window-height="1040"
     inkscape:window-x="2019"
     inkscape:window-y="15"
     inkscape:window-maximized="0"
     inkscape:current-layer="layer1" />
  <defs
     id="defs4075" />
  <g
     inkscape:label="Lag 1"
     inkscape:groupmode="layer"
     id="layer1"
     transform="translate(-88.570399,-134.64091)">
    <path
       d="m 88.570402,138.62553 c 0,-0.55033 0.08467,-1.05833 0.296333,-1.52665 0.211667,-0.508 0.508,-0.93133 0.849313,-1.27 0.338666,-0.38364 0.762,-0.63764 1.272646,-0.84931 0.508,-0.21166 1.016,-0.33866 1.526645,-0.33866 0.550334,0 1.06098,0.127 1.56898,0.33866 0.465666,0.21167 0.891645,0.46567 1.272645,0.84931 0.338667,0.33867 0.635,0.762 0.849313,1.27 0.211667,0.46832 0.296333,0.97632 0.296333,1.52665 0,0.55033 -0.08467,1.06098 -0.296333,1.52665 -0.214313,0.508 -0.510646,0.93133 -0.849313,1.27264 -0.338666,0.33867 -0.764645,0.635 -1.272645,0.84667 -0.508,0.21166 -1.018646,0.29633 -1.56898,0.29633 -0.510645,0 -1.018645,-0.0847 -1.526645,-0.29633 -0.468313,-0.21167 -0.891646,-0.46567 -1.272646,-0.84667 -0.341313,-0.34131 -0.595313,-0.76464 -0.849313,-1.27264 -0.08467,-0.254 -0.169333,-0.46567 -0.211666,-0.762 -0.04233,-0.25665 -0.08467,-0.51065 -0.08467,-0.76465 z m 7.252229,0 c 0,-0.46567 -0.08467,-0.889 -0.254,-1.27265 -0.169334,-0.42333 -0.381,-0.80433 -0.677334,-1.10066 -0.298978,-0.254 -0.637645,-0.508 -1.060979,-0.67734 -0.425979,-0.17197 -0.849312,-0.25664 -1.272645,-0.25664 -0.04233,0 -0.04233,0 -0.04233,0 -0.468312,0 -0.891645,0.0847 -1.272645,0.25664 -0.42598,0.16934 -0.764646,0.42334 -1.06098,0.71967 -0.296333,0.254 -0.508,0.635 -0.722312,1.016 -0.169333,0.42598 -0.254,0.84931 -0.254,1.31498 0,0.42333 0.08467,0.89165 0.254,1.27265 0.214312,0.42333 0.425979,0.762 0.722312,1.05833 0.296334,0.29898 0.635,0.55298 1.06098,0.72231 0.381,0.16933 0.804333,0.254 1.272645,0.254 0.465667,0 0.889,-0.0847 1.314979,-0.254 0.423334,-0.16933 0.762001,-0.42333 1.060979,-0.72231 0.296334,-0.29633 0.508,-0.635 0.677334,-1.05833 0.169333,-0.381 0.254,-0.84932 0.254,-1.27265 z m -2.076979,-1.35731 -0.256646,-0.97367 h -0.719667 v 0.97367 z m 0.169334,4.11427 -0.169334,0.16933 H 91.32736 l -0.211666,-0.16933 -0.383646,-3.73063 v -0.21166 l 0.425979,-1.56898 0.169333,-0.127 h 2.418292 l 0.169334,0.127 0.423332,1.56898 v 0.21166 z m -1.653647,-0.38365 v -3.13531 h -0.976312 l 0.338667,3.13531 z m 0,-4.70429 h -0.637645 l -0.296334,0.97367 h 0.933979 z m 0.508,4.70429 h 0.635 l 0.383646,-3.13531 h -1.018646 z"
       style="fill:#000000;fill-opacity:1;fill-rule:nonzero;stroke:none;stroke-width:0.264583"
       id="path2428" />
  </g>
</svg>
