<svg xmlns="http://www.w3.org/2000/svg" width="29.979" height="29.96" viewBox="0 0 7.932 7.927" xmlns:v="https://vecta.io/nano"><path d="M0 3.985c0-.55.085-1.058.296-1.527.212-.508.508-.931.849-1.27.339-.384.762-.638 1.273-.849S3.435 0 3.945 0c.55 0 1.061.127 1.569.339.466.212.892.466 1.273.849a3.97 3.97 0 0 1 .849 1.27c.212.468.296.976.296 1.527s-.085 1.061-.296 1.527c-.214.508-.511.931-.849 1.273s-.765.635-1.273.847-1.019.296-1.569.296a3.91 3.91 0 0 1-1.527-.296c-.468-.212-.892-.466-1.273-.847-.341-.341-.595-.765-.849-1.273-.085-.254-.169-.466-.212-.762C.043 4.493 0 4.239 0 3.985zm7.252 0c0-.466-.085-.889-.254-1.273-.169-.423-.381-.804-.677-1.101-.299-.254-.638-.508-1.061-.677S4.411.677 3.988.677h-.042c-.468 0-.892.085-1.273.257-.426.169-.765.423-1.061.72-.296.254-.508.635-.722 1.016-.169.426-.254.849-.254 1.315 0 .423.085.892.254 1.273.214.423.426.762.722 1.058s.635.553 1.061.722c.381.169.804.254 1.273.254s.889-.085 1.315-.254.762-.423 1.061-.722.508-.635.677-1.058c.169-.381.254-.849.254-1.273zM5.176 2.627l-.257-.974h-.72v.974zm.169 4.114l-.169.169H2.757l-.212-.169-.384-3.731v-.212l.426-1.569.169-.127h2.418l.169.127.423 1.569v.212zm-1.654-.384V3.223h-.976l.339 3.135zm0-4.704h-.638l-.296.974h.934zm.508 4.704h.635l.384-3.135H4.199z"/></svg>