<?xml version="1.0" encoding="UTF-8" standalone="no"?>
<svg
   version="1.1"
   viewBox="-10 0 2064 2048"
   id="svg6"
   sodipodi:docname="samlingssted_for_doede.svg"
   inkscape:version="1.1 (c68e22c387, 2021-05-23)"
   xmlns:inkscape="http://www.inkscape.org/namespaces/inkscape"
   xmlns:sodipodi="http://sodipodi.sourceforge.net/DTD/sodipodi-0.dtd"
   xmlns="http://www.w3.org/2000/svg"
   xmlns:svg="http://www.w3.org/2000/svg">
  <defs
     id="defs10" />
  <sodipodi:namedview
     id="namedview8"
     pagecolor="#ffffff"
     bordercolor="#666666"
     borderopacity="1.0"
     inkscape:pageshadow="2"
     inkscape:pageopacity="0.0"
     inkscape:pagecheckerboard="0"
     showgrid="false"
     inkscape:zoom="0.035455254"
     inkscape:cx="973.05749"
     inkscape:cy="1170.4894"
     inkscape:window-width="1920"
     inkscape:window-height="1017"
     inkscape:window-x="-8"
     inkscape:window-y="-8"
     inkscape:window-maximized="1"
     inkscape:current-layer="svg6" />
  <path
     d="M 0,1025 Q 0,817 81,628 162,439 298,301 431,166 627,84 821,3 1022,3 q 207,0 397,81 189,81 327,217 135,134 217,328 81,193 81,396 0,208 -81.5,396.5 Q 1881,1610 1746,1748 q -133,135 -327,218 -189,81 -398,81 -208,0 -396,-81 Q 437,1885 299,1749 167,1619 81,1421 40,1327 20,1228 0,1129 0,1025 Z"
     id="path2" />
  <path
     d="M 1873,1022 Q 1871,847 1807,694 1738,534 1626,420 1514,307 1354,240 1198,174 1023,174 h -5 q -176,2 -328,66 -160,69 -273,181 -113,112 -182,272 -65,160 -65,333 0,173 65,332 69,160 183,272 113,113 272,182 152,64 326,65 177,0 338,-65 160,-69 273,-183 113,-114 180,-271 66,-159 66,-336 z"
     id="path830"
     style="fill:#ffffff" />
  <path
     d="m 1382,1732 -50,46 H 708 l -51,-46 -99,-960 -1,-49 106,-404 46,-39 h 627 l 46,39 109,403 v 51 z"
     id="path834"
     style="fill:#000000" />
  <path
     d="m 1087,1633 h 163 l 96,-807 h -259 z"
     id="path840"
     style="fill:#ffffff" />
  <path
     d="M 956,423 H 782 l -70,255 h 244 z"
     id="path838"
     style="fill:#ffffff" />
  <path
     d="M 956,1633 V 826 H 703 l 89,807 z"
     id="path836"
     style="fill:#ffffff" />
  <path
     d="M 1332,678 1264,423 H 1087 V 678 Z"
     id="path832"
     style="fill:#ffffff" />
  <path
     id="rect1795"
     style="fill:#ffffff;stroke:#ffffff;stroke-width:4.97261;stroke-opacity:1"
     d="m 716.62109,672.4547 23.8681,-6.86721 v 171.01106 l -33.85183,0.92379 c -12.63603,-56.70723 -6.68508,-121.01712 9.98373,-165.06764 z"
     sodipodi:nodetypes="ccccc" />
  <path
     id="rect1795-0"
     style="fill:#ffffff;stroke:#ffffff;stroke-width:4.75497;stroke-opacity:1"
     d="m 1328.6125,674.2778 h -21.5824 v 171.01106 l 35.3947,-3.29701 c 9.4387,-92.66805 -3.5064,-135.65047 -13.8123,-167.71405 z"
     sodipodi:nodetypes="ccccc" />
  <rect
     style="fill:#ffffff;stroke:#ffffff;stroke-width:5.7;stroke-opacity:1"
     id="rect5071"
     width="286.19122"
     height="33.904186"
     x="881.48065"
     y="425.79669" />
  <rect
     style="fill:#ffffff;stroke:#ffffff;stroke-width:8.26659;stroke-opacity:1"
     id="rect5071-2"
     width="286.19122"
     height="71.310928"
     x="879.37952"
     y="1556.8739" />
</svg>
