<?xml version="1.0" encoding="UTF-8" standalone="no"?>
<!-- Created with Inkscape (http://www.inkscape.org/) -->

<svg
   width="7.93224mm"
   height="7.9269099mm"
   viewBox="0 0 7.9322401 7.9269099"
   version="1.1"
   id="svg4078"
   inkscape:version="1.1 (c68e22c387, 2021-05-23)"
   sodipodi:docname="spærring.svg"
   xmlns:inkscape="http://www.inkscape.org/namespaces/inkscape"
   xmlns:sodipodi="http://sodipodi.sourceforge.net/DTD/sodipodi-0.dtd"
   xmlns="http://www.w3.org/2000/svg"
   xmlns:svg="http://www.w3.org/2000/svg">
  <sodipodi:namedview
     id="namedview4080"
     pagecolor="#ffffff"
     bordercolor="#666666"
     borderopacity="1.0"
     inkscape:pageshadow="2"
     inkscape:pageopacity="0.0"
     inkscape:pagecheckerboard="0"
     inkscape:document-units="mm"
     showgrid="false"
     fit-margin-top="0"
     fit-margin-left="0"
     fit-margin-right="0"
     fit-margin-bottom="0"
     inkscape:zoom="0.74118967"
     inkscape:cx="-285.35206"
     inkscape:cy="-53.967293"
     inkscape:window-width="1285"
     inkscape:window-height="1040"
     inkscape:window-x="2019"
     inkscape:window-y="15"
     inkscape:window-maximized="0"
     inkscape:current-layer="layer1" />
  <defs
     id="defs4075" />
  <g
     inkscape:label="Lag 1"
     inkscape:groupmode="layer"
     id="layer1"
     transform="translate(-180.35141,-162.8784)">
    <path
       d="m 187.60367,166.82069 c 0,-0.46567 -0.0847,-0.89165 -0.254,-1.27265 -0.16933,-0.42333 -0.381,-0.762 -0.67733,-1.05833 -0.29898,-0.29898 -0.63765,-0.55298 -1.06098,-0.72231 -0.42598,-0.16933 -0.84931,-0.254 -1.27265,-0.254 0,0 -0.0423,0 -0.0423,0 -0.46831,0 -0.89165,0.0847 -1.27265,0.254 -0.42598,0.21167 -0.76464,0.42333 -1.06098,0.72231 -0.29633,0.29633 -0.55298,0.635 -0.72231,1.05833 -0.16933,0.381 -0.254,0.80698 -0.254,1.27265 0,0.46567 0.0847,0.889 0.254,1.31498 0.16933,0.381 0.42598,0.71967 0.72231,1.05833 0.29634,0.29634 0.67734,0.508 1.06098,0.67734 0.381,0.17197 0.80434,0.25664 1.27265,0.25664 0.46567,0 0.889,-0.0847 1.31498,-0.25664 0.381,-0.16934 0.762,-0.381 1.06098,-0.67734 0.29633,-0.33866 0.508,-0.67733 0.67733,-1.05833 0.16933,-0.42598 0.254,-0.84931 0.254,-1.27265 0,0 0,-0.0423 0,-0.0423 z m -7.25223,0 c 0,-0.508 0.0847,-1.06098 0.29633,-1.52665 0.21167,-0.508 0.508,-0.93133 0.84932,-1.27264 0.33866,-0.33867 0.762,-0.635 1.27264,-0.84667 0.508,-0.21166 1.016,-0.29633 1.52665,-0.29633 0.55033,0 1.06098,0.0847 1.56898,0.29633 0.46566,0.21167 0.89164,0.508 1.27264,0.84667 0.33867,0.34131 0.635,0.76464 0.84932,1.27264 0.21166,0.508 0.29633,1.01865 0.29633,1.52665 0,0.55033 -0.0847,1.05833 -0.29633,1.56898 -0.21432,0.46567 -0.51065,0.889 -0.84932,1.22767 -0.33866,0.38364 -0.76464,0.63764 -1.27264,0.84931 -0.508,0.21166 -1.01865,0.33866 -1.56898,0.33866 -0.51065,0 -1.01865,-0.127 -1.52665,-0.33866 -0.46831,-0.21167 -0.89164,-0.46567 -1.27264,-0.80698 -0.34132,-0.33867 -0.59532,-0.762 -0.84932,-1.31233 -0.0847,-0.21167 -0.16933,-0.46832 -0.21166,-0.72232 -0.0423,-0.254 -0.0847,-0.508 -0.0847,-0.80433 z m 2.92629,-1.78065 1.10332,1.10067 1.14564,-1.143 0.21167,0.21167 -1.14565,1.14564 0.381,0.33867 1.44198,-1.44198 0.21431,0.21167 -1.44462,1.44198 1.44462,1.44198 -0.21431,0.21166 -1.44198,-1.44198 -0.254,0.254 0.97631,0.97632 -0.16933,0.21166 -1.01864,-0.97631 -1.18798,1.18798 -0.21167,-0.21167 1.18798,-1.18798 -0.34131,-0.381 -1.52665,1.52665 -0.21167,-0.21167 1.52665,-1.52664 -1.56898,-1.52665 0.21167,-0.21167 1.56898,1.52665 0.21431,-0.21167 -1.10331,-1.10331 z m 1.48432,1.86532 -0.381,-0.33867 -0.21167,0.21167 0.33867,0.381 z"
       style="fill:#000000;fill-opacity:1;fill-rule:nonzero;stroke:none;stroke-width:0.264583"
       id="path2064" />
  </g>
</svg>
