<?xml version="1.0" encoding="UTF-8" standalone="no"?>
<svg
   version="1.1"
   viewBox="-10 0 2064 2048"
   id="svg6"
   sodipodi:docname="vandreservoir.svg"
   inkscape:version="1.1 (c68e22c387, 2021-05-23)"
   xmlns:inkscape="http://www.inkscape.org/namespaces/inkscape"
   xmlns:sodipodi="http://sodipodi.sourceforge.net/DTD/sodipodi-0.dtd"
   xmlns="http://www.w3.org/2000/svg"
   xmlns:svg="http://www.w3.org/2000/svg">
  <defs
     id="defs10" />
  <sodipodi:namedview
     id="namedview8"
     pagecolor="#ffffff"
     bordercolor="#666666"
     borderopacity="1.0"
     inkscape:pageshadow="2"
     inkscape:pageopacity="0.0"
     inkscape:pagecheckerboard="0"
     showgrid="false"
     inkscape:zoom="0.40625"
     inkscape:cx="1032.6154"
     inkscape:cy="1025.2308"
     inkscape:window-width="1920"
     inkscape:window-height="1017"
     inkscape:window-x="1912"
     inkscape:window-y="-8"
     inkscape:window-maximized="1"
     inkscape:current-layer="svg6" />
  <path
     d="M 0,1025 Q 0,817 81,628 162,439 298,301 431,166 627,84 821,3 1022,3 q 207,0 397,81 189,81 327,217 135,134 217,328 81,193 81,396 0,208 -81.5,396.5 Q 1881,1610 1746,1748 q -133,135 -327,218 -189,81 -398,81 -208,0 -396,-81 Q 437,1885 299,1749 167,1619 81,1421 40,1327 20,1228 0,1129 0,1025 Z"
     id="path910" />
  <path
     d="M 1873,1022 Q 1871,842 1807,694 1738,534 1626,420 1514,307 1354,240 1199,174 1028,174 h -10 q -180,2 -328,66 -160,69 -273,181 -116,115 -182,272 -65,155 -65,333 0,177 65,332 65,154 183,272 117,117 272,182 152,64 326,65 182,0 338,-65 156,-65 273,-183 116,-117 180,-271 66,-159 66,-326 z"
     id="path2"
     style="fill:#ffffff" />
  <path
     d="m 510,593 v 235 q 48,38 116,50 23,4 49,4 72,0 191,-35 68,-20 94,-32 l 40,-19 40,-17 q 90,-40 208,-60 71,-12 125,-12 36,0 65,6 39,8 97,39 V 595 h 83 v 900 H 425 V 593 Z"
     id="path912"
     style="fill:#000000" />
  <path
     d="m 1015,1176 -39,19 q -33,16 -102,36 -130,38 -210,38 -26,0 -46,-4 -55,-10 -108,-41 v 188 h 1025 v -265 q -53,-41 -103,-48 -41,-6 -79,-6 -31,0 -61,4 -66,9 -157,36 -81,24 -120,43 z"
     id="path918"
     style="fill:#ffffff" />
  <path
     d="m 1017,1006 v 1 l -39,19 q -88,43 -234,65 -40,6 -77,6 -79,0 -157,-45 v 119 q 51,36 94,43 38,6 74,6 29,0 57,-4 62,-9 145,-35 79,-25 119,-44 l 38,-18 q 88,-42 208,-61 64,-10 119,-10 95,0 171,45 V 977 q -49,-38 -124,-50 -24,-4 -52,-4 -83,0 -203,34 -70,20 -99,32 z"
     id="path916"
     style="fill:#ffffff" />
  <path
     d="m 1018,836 -38,21 q -92,42 -236,65 -39,6 -75,6 -79,0 -159,-46 v 119 q 50,36 94,44 44,7 67,7 h 6 q 30,-1 58,-5 62,-10 151,-38.5 Q 975,980 998,968 v -1 l 39,-17 q 87,-42 207,-60 71,-11 125,-11 37,0 67,6 44,8 99,39 V 805 q -54,-39 -101,-46 -41,-6 -80,-6 -30,0 -59,4 -66,8 -155,34.5 -89,26.5 -122,44.5 z"
     id="path914"
     style="fill:#ffffff" />
</svg>
