<?xml version="1.0" standalone="no"?>
<!DOCTYPE svg PUBLIC "-//W3C//DTD SVG 1.1//EN" "http://www.w3.org/Graphics/SVG/1.1/DTD/svg11.dtd" >
<svg xmlns="http://www.w3.org/2000/svg" xmlns:xlink="http://www.w3.org/1999/xlink" version="1.1" viewBox="-10 0 2064 2048">
  <g transform="matrix(1 0 0 -1 0 2047)">
   <path fill="currentColor"
d="M1873 1025q-2 180 -66 328q-69 160 -181 274q-112 113 -272 180q-155 66 -326 66h-10q-180 -2 -328 -66q-160 -69 -273 -181q-116 -115 -182 -272q-65 -155 -65 -333q0 -177 65 -332q65 -154 183 -272q117 -117 272 -182q152 -64 326 -65q182 0 338 65t273 183
q116 117 180 271q66 159 66 326v10zM0 1022q0 208 81 397t217 327q133 135 329 217q194 81 395 81q207 0 397 -81q189 -81 327 -217q135 -134 217 -328q81 -193 81 -396q0 -208 -81.5 -396.5t-216.5 -326.5q-133 -135 -327 -218q-189 -81 -398 -81q-208 0 -396 81t-326 217
q-132 130 -218 328q-41 94 -61 193t-20 203zM510 1454v-235q48 -38 116 -50q23 -4 49 -4q72 0 191 35q68 20 94 32l40 19l40 17q90 40 208 60q71 12 125 12q36 0 65 -6q39 -8 97 -39v157h83v-900h-1193v902h85zM1018 1211l-38 -21q-92 -42 -236 -65q-39 -6 -75 -6
q-79 0 -159 46v-119q50 -36 94 -44q44 -7 67 -7h6q30 1 58 5q62 10 151 38.5t112 40.5v1l39 17q87 42 207 60q71 11 125 11q37 0 67 -6q44 -8 99 -39v119q-54 39 -101 46q-41 6 -80 6q-30 0 -59 -4q-66 -8 -155 -34.5t-122 -44.5zM1017 1041v-1l-39 -19q-88 -43 -234 -65
q-40 -6 -77 -6q-79 0 -157 45v-119q51 -36 94 -43q38 -6 74 -6q29 0 57 4q62 9 145 35q79 25 119 44l38 18q88 42 208 61q64 10 119 10q95 0 171 -45v116q-49 38 -124 50q-24 4 -52 4q-83 0 -203 -34q-70 -20 -99 -32zM1015 871l-39 -19q-33 -16 -102 -36q-130 -38 -210 -38
q-26 0 -46 4q-55 10 -108 41v-188h1025v265q-53 41 -103 48q-41 6 -79 6q-31 0 -61 -4q-66 -9 -157 -36q-81 -24 -120 -43z" />
  </g>

</svg>
