<?xml version="1.0" standalone="no"?>
<!DOCTYPE svg PUBLIC "-//W3C//DTD SVG 20010904//EN"
 "http://www.w3.org/TR/2001/REC-SVG-20010904/DTD/svg10.dtd">
<svg version="1.0" xmlns="http://www.w3.org/2000/svg"
 width="656.000000pt" height="1677.000000pt" viewBox="0 0 656.000000 1677.000000"
 preserveAspectRatio="xMidYMid meet">

<g transform="translate(0.000000,1677.000000) scale(0.100000,-0.100000)"
fill="#000000" stroke="none">
<path d="M3122 16731 c-121 -30 -216 -84 -307 -176 -79 -79 -88 -93 -594 -970
-1432 -2478 -2126 -3685 -2146 -3730 -39 -90 -50 -146 -50 -260 0 -192 60
-332 199 -470 85 -84 153 -126 266 -166 64 -23 72 -23 670 -30 333 -3 606 -7
606 -7 1 -1 1 -923 0 -2049 0 -1127 3 -3450 8 -5163 8 -2960 9 -3119 26 -3186
62 -244 263 -437 505 -489 104 -22 1846 -22 1950 0 198 42 372 181 460 367 67
142 62 -95 72 3318 4 1708 7 4026 7 5153 -1 1126 -1 2048 0 2049 0 0 273 4
606 8 672 7 642 4 785 78 90 46 218 172 267 262 101 183 113 404 33 585 -20
45 -689 1208 -2146 3730 -506 876 -515 891 -594 970 -63 64 -98 89 -165 122
-149 73 -306 91 -458 54z"/>
</g>
</svg>
