<?xml version="1.0" encoding="UTF-8" standalone="no"?>
<!-- Created with Inkscape (http://www.inkscape.org/) -->

<svg
   width="34.352711"
   height="34.352711"
   viewBox="0 0 34.352709 34.352709"
   id="svg4142"
   version="1.1"
   inkscape:version="1.1 (c68e22c387, 2021-05-23)"
   sodipodi:docname="forsamlingslokale blå.svg"
   xmlns:inkscape="http://www.inkscape.org/namespaces/inkscape"
   xmlns:sodipodi="http://sodipodi.sourceforge.net/DTD/sodipodi-0.dtd"
   xmlns="http://www.w3.org/2000/svg"
   xmlns:svg="http://www.w3.org/2000/svg"
   xmlns:rdf="http://www.w3.org/1999/02/22-rdf-syntax-ns#"
   xmlns:cc="http://creativecommons.org/ns#"
   xmlns:dc="http://purl.org/dc/elements/1.1/">
  <defs
     id="defs4144" />
  <sodipodi:namedview
     id="base"
     pagecolor="#ffffff"
     bordercolor="#666666"
     borderopacity="1.0"
     inkscape:pageopacity="0.0"
     inkscape:pageshadow="2"
     inkscape:zoom="7.0710678"
     inkscape:cx="-15.414928"
     inkscape:cy="-8.131728"
     inkscape:document-units="px"
     inkscape:current-layer="layer1"
     showgrid="false"
     fit-margin-top="0"
     fit-margin-left="0"
     fit-margin-right="0"
     fit-margin-bottom="0"
     inkscape:window-width="1920"
     inkscape:window-height="1017"
     inkscape:window-x="1912"
     inkscape:window-y="-8"
     inkscape:window-maximized="1"
     units="px"
     inkscape:pagecheckerboard="0" />
  <metadata
     id="metadata4147">
    <rdf:RDF>
      <cc:Work
         rdf:about="">
        <dc:format>image/svg+xml</dc:format>
        <dc:type
           rdf:resource="http://purl.org/dc/dcmitype/StillImage" />
      </cc:Work>
    </rdf:RDF>
  </metadata>
  <g
     inkscape:groupmode="layer"
     id="layer2"
     inkscape:label="Layer 2"
     transform="translate(-87.966508,-89.757295)" />
  <g
     inkscape:label="Layer 1"
     inkscape:groupmode="layer"
     id="layer1"
     transform="translate(-87.966508,-89.757295)">
    <circle
       style="opacity:1;fill:#006680;fill-opacity:1;stroke:#ffffff;stroke-width:2.9;stroke-miterlimit:4;stroke-dasharray:none;stroke-opacity:1"
       id="path4690"
       cx="105.14286"
       cy="106.93365"
       r="15.726353" />
    <g
       id="svgPath"
       transform="matrix(0.07726758,0,0,0.07726758,95.083477,92.658529)"
       style="fill:#ffffff">
      <path
         d="m 125,6 c 0,4.724 -0.326,6 -1.533,6 -2.51,0 -10.729,4.562 -14.186,7.874 -12.434,11.912 -9.993,32.227 4.985,41.487 6.213,3.841 16.468,4.776 23.391,2.132 5.684,-2.171 11.827,-7.561 14.429,-12.662 4.531,-8.88 3.229,-21.354 -3.019,-28.933 C 146.129,18.333 135.599,12 132.61,12 131.309,12 131,10.849 131,6 V 0 h -3 -3 V 6 M 54.192,50.75 c -1.949,2.063 -5.538,6.828 -7.975,10.59 -15.886,24.526 -18.28,48.202 -6.861,67.862 2.297,3.954 2.414,4.738 1.464,9.798 -1.838,9.798 -0.43,30.852 3.068,45.859 l 3.113,13.36 -4.982,5.451 c -10.325,11.297 -16.094,28.471 -14.515,43.214 1.466,13.683 9.93,33.738 15.444,36.589 6.259,3.237 13.616,1.072 16.417,-4.83 2.277,-4.797 2.12,-5.925 -2.02,-14.532 -6.407,-13.321 -7.823,-22.839 -4.861,-32.679 1.711,-5.685 7.191,-13.235 13.145,-18.11 l 4.129,-3.381 25.261,34.78 c 13.893,19.128 26.376,35.984 27.738,37.456 3.818,4.126 7.582,5.338 12.245,3.941 5.129,-1.537 7.998,-5.608 7.998,-11.349 0,-4.201 -1.292,-6.194 -25.825,-39.845 C 100.405,211.92 90.78,197.823 89.724,194.716 l -1.626,-4.784 2.586,2.034 c 3.745,2.946 6.515,2.527 11.976,-1.809 12.193,-9.683 17.75,-18.341 17.75,-27.657 0,-7.091 -2.339,-12.199 -8.075,-17.634 -8.456,-8.011 -16.742,-11.511 -38.835,-16.403 -8.8,-1.948 -16.797,-3.782 -17.771,-4.076 -2.524,-0.762 -6.515,-9.201 -7.59,-16.049 C 45.991,94.652 51.429,79.423 64.646,62.106 68.589,56.941 69.09,52.09 66,49 62.736,45.736 58.311,46.391 54.192,50.75 m 153.211,25.402 c -1.408,0.683 -6.136,9.458 -14.377,26.683 -6.754,14.116 -12.48329,24.81101 -13.403,26.404 -3.60399,4.65597 -7.28594,11.14652 -18.36,13.88 -6.203,1.364 -11.173,5.452 -13.837,11.381 -2.574,5.73 -1.408,0.39 1.642,-7.519 3.614,-9.373 3.541,-12.8 -0.318,-14.949 -2.468,-1.375 -3.03,-1.375 -5.483,-0.003 -3.122,1.746 -7.97,13.307 -10.836,25.842 -1.559,6.818 -1.564,7.627 -0.064,10.773 1.852,3.882 5.65,5.731 9.87,4.804 1.589,-0.349 5.757,-3.317 9.262,-6.596 l 6.373,-5.962 2.076,6.805 c 3.603,11.809 6.958,30.326 8.011,44.21 0.559,7.372 1.244,13.632 1.522,13.91 0.441,0.44 5.527,-0.912 9.269,-2.463 0.983,-0.408 1.25,5.601 1.25,28.13 0,17.737 0.392,29.382 1.03,30.573 1.539,2.877 6.651,5.174 9.917,4.457 1.541,-0.339 3.871,-1.753 5.177,-3.143 l 2.376,-2.527 0.291,-30.921 c 0.16,-17.007 0.686,-30.921 1.168,-30.921 0.483,0 1.589,-0.273 2.459,-0.607 1.421,-0.545 1.582,2.506 1.582,30.05 0,33.687 0.233,35.168 5.894,37.513 2.326,0.963 3.781,0.976 6.565,0.058 6.406,-2.115 6.541,-2.939 6.541,-39.845 v -32.931 l 9,-2.348 c 4.95,-1.291 9,-2.729 9,-3.195 0,-2.022 -12.529,-25.135 -19.078,-35.195 -7.622,-11.706 -13.612,-19.606 -23.629,-31.158 l -6.206,-7.158 12.456,-25.958 C 211.395,93.949 217,81.737 217,81.089 c 0,-1.625 -4.616,-6.104 -6.205,-6.021 -0.712,0.037 -2.239,0.525 -3.392,1.084 M 67.907,86.327 c -2.424,1.279 -5.757,4.242 -7.407,6.584 -2.556,3.628 -3.028,5.277 -3.191,11.151 -0.760925,14.4636 11.766989,21.39381 20.191,21.438 8.408773,-0.80676 15.617936,-5.67094 19.424,-13.953 C 98.836405,105.32377 97.838707,97.706626 94.5,92.911 90.552,87.308 84.241,84 77.5,84 c -3.499,0 -6.619,0.757 -9.593,2.327 m 81.65918,12.458982 C 145.83019,99.537348 141.038,103.033 138.794,106.058 c -3.296,4.442 -4.586,9.663 -3.654,14.786 1.248,6.863 2.829,9.426 5.313,8.615 5.716,-1.865 8.18,-1.639 11.365,1.042 1.75,1.472 3.03937,3.45787 3.182,4.388 0.58324,3.80346 1.955,4.078 4.662,3.05 2.55763,-0.18817 5.09993,-1.21052 7.093,-2.262 3.853,-2.052 6.69893,-6.92914 8.789,-13.058 0.79134,-5.54654 0.69956,-8.10728 -1.164,-12.667 -2.466,-4.715 -6.153,-8.341 -10.88,-10.699 -2.436,-1.215 -9.07026,-1.767234 -13.07693,-0.692204 M 89.618,155.916 c -3.905,8.701 -4.968,15.819 -3.642,24.369 1.182,7.615 2.024,9.806 2.024,5.266 0,-1.997 1.199,-3.878 4.25,-6.667 2.337,-2.136 4.566,-3.884 4.954,-3.884 0.387,0 2.3,-2.09 4.25,-4.644 3.727,-4.88 4.561,-9.461 2.264,-12.431 C 102.309,156.103 94.045,150 92.987,150 c -0.393,0 -1.909,2.662 -3.369,5.916 M 0,298.011 v 6.997 l 127.75,-0.254 127.75,-0.254 0.289,-7 0.289,-7 -128.039,0.258 L 0,291.015 v 6.996 M 0.336,298 c 0,4.125 0.177,5.813 0.392,3.75 0.216,-2.062 0.216,-5.437 0,-7.5 -0.215,-2.062 -0.392,-0.375 -0.392,3.75"
         stroke="none"
         fill="#040404"
         fill-rule="evenodd"
         id="path6"
         sodipodi:nodetypes="cscccccssccccccccccsccccccccccscscccscccccsccccccccccccccccccscccccscsccsccsccccscccsccccsccccccsccccccccscsccscccccccccccccc"
         style="fill:#ffffff" />
    </g>
  </g>
</svg>
