<?xml version="1.0" encoding="UTF-8" standalone="no"?>
<!-- Created with Inkscape (http://www.inkscape.org/) -->

<svg
   width="34.352711"
   height="34.352711"
   viewBox="0 0 34.352709 34.352709"
   id="svg4142"
   version="1.1"
   inkscape:version="1.1 (c68e22c387, 2021-05-23)"
   sodipodi:docname="fredetbygning blå.svg"
   xmlns:inkscape="http://www.inkscape.org/namespaces/inkscape"
   xmlns:sodipodi="http://sodipodi.sourceforge.net/DTD/sodipodi-0.dtd"
   xmlns="http://www.w3.org/2000/svg"
   xmlns:svg="http://www.w3.org/2000/svg"
   xmlns:rdf="http://www.w3.org/1999/02/22-rdf-syntax-ns#"
   xmlns:cc="http://creativecommons.org/ns#"
   xmlns:dc="http://purl.org/dc/elements/1.1/">
  <defs
     id="defs4144" />
  <sodipodi:namedview
     id="base"
     pagecolor="#ffffff"
     bordercolor="#666666"
     borderopacity="1.0"
     inkscape:pageopacity="0.0"
     inkscape:pageshadow="2"
     inkscape:zoom="0.88388348"
     inkscape:cx="231.93102"
     inkscape:cy="17.536248"
     inkscape:document-units="px"
     inkscape:current-layer="layer1"
     showgrid="false"
     fit-margin-top="0"
     fit-margin-left="0"
     fit-margin-right="0"
     fit-margin-bottom="0"
     inkscape:window-width="1920"
     inkscape:window-height="1017"
     inkscape:window-x="1912"
     inkscape:window-y="-8"
     inkscape:window-maximized="1"
     units="px"
     inkscape:pagecheckerboard="0" />
  <metadata
     id="metadata4147">
    <rdf:RDF>
      <cc:Work
         rdf:about="">
        <dc:format>image/svg+xml</dc:format>
        <dc:type
           rdf:resource="http://purl.org/dc/dcmitype/StillImage" />
      </cc:Work>
    </rdf:RDF>
  </metadata>
  <g
     inkscape:groupmode="layer"
     id="layer2"
     inkscape:label="Layer 2"
     transform="translate(-87.966508,-89.757295)" />
  <g
     inkscape:label="Layer 1"
     inkscape:groupmode="layer"
     id="layer1"
     transform="translate(-87.966508,-89.757295)">
    <circle
       style="opacity:1;fill:#006680;fill-opacity:1;stroke:#ffffff;stroke-width:2.9;stroke-miterlimit:4;stroke-dasharray:none;stroke-opacity:1"
       id="path4690"
       cx="105.14286"
       cy="106.93365"
       r="15.726353" />
    <g
       id="svgPath"
       transform="matrix(0.10215721,0,0,0.10215721,93.452295,95.05702)"
       style="fill:#ffffff">
      <path
         d="M 105,1.687 C 101.191,2.982 95.942,7.842 70.796,33.358 51.635,52.801 40.876,64.45 40.483,66.177 c -0.802,3.522 1.878,8.629 5.188,9.888 6.213,2.362 7.581,1.308 37.894,-29.199 15.928,-16.031 29.41,-28.819 30.213,-28.658 0.797,0.161 14.386,13.297 30.197,29.193 l 28.747,28.901 4.611,0.099 c 6.072,0.13 9.122,-2.683 9.122,-8.414 0,-3.784 -0.669,-4.673 -12.228,-16.259 L 162,39.471 V 24.91 c 0,-13.928 -0.101,-14.656 -2.314,-16.736 -3.071,-2.884 -9.868,-2.992 -12.661,-0.199 -1.98,1.98 -2.741,4.151 -3.251,9.283 -0.263,2.653 -0.6,2.44 -8.781,-5.573 C 123.398,0.329 116.128,-2.094 105,1.687 M 85.708,51.831 61,76.662 v 25.325 25.324 l 2.632,3.451 c 4.053,5.314 7.432,6.238 22.814,6.238 h 13.51 l 0.272,-18.75 0.272,-18.75 h 13 13 l 0.138,16.5 c 0.075,9.075 0.188,17.512 0.25,18.75 0.11,2.217 0.311,2.25 13.644,2.25 15.49,0 18.775,-0.914 22.948,-6.385 3.147,-4.126 3.096,-3.504 2.753,-33.463 L 166,76.805 141.304,51.902 C 119.629,30.047 116.228,27 113.512,27 c -2.715,0 -6.139,3.058 -27.804,24.831 M 6.784,51.738 C 5.29,52.664 3.58,54.601 2.983,56.041 2.245,57.823 1.994,72.207 2.199,101.08 L 2.5,143.5 4.885,148 c 1.312,2.475 9.756,11.997 18.764,21.161 9.424,9.586 17.01,18.172 17.865,20.218 1.046,2.505 1.486,7.263 1.486,16.089 V 218 H 64.061 85.123 L 84.811,192.25 C 84.406,158.689 86.35,162.739 56.241,132.75 35.715,112.305 33.066,110 30.104,110 c -7.148,0 -11.912,5.634 -10.761,12.727 0.508,3.133 3.191,6.289 17.628,20.744 9.366,9.378 17.029,17.592 17.029,18.254 0,0.663 -0.943,1.709 -2.096,2.326 -1.901,1.018 -3.673,-0.444 -18.975,-15.65 -9.283,-9.225 -17.564,-18.22 -18.403,-19.988 -1.939,-4.086 -1.962,-11.669 -0.047,-15.373 0.814,-1.573 3.087,-4.185 5.052,-5.805 L 23.103,104.291 22.801,80.034 22.5,55.778 19.038,52.889 C 15.066,49.575 10.902,49.184 6.784,51.738 m 202.982,1.178 -3.266,2.917 -0.301,24.229 -0.302,24.229 3.572,2.944 c 1.965,1.62 4.238,4.232 5.052,5.805 1.915,3.704 1.892,11.287 -0.047,15.373 -0.839,1.768 -9.12,10.763 -18.403,19.988 -15.302,15.206 -17.074,16.668 -18.975,15.65 -1.153,-0.617 -2.096,-1.663 -2.096,-2.326 0,-0.662 7.663,-8.876 17.029,-18.254 14.437,-14.455 17.12,-17.611 17.628,-20.744 1.151,-7.093 -3.613,-12.727 -10.761,-12.727 -2.962,0 -5.611,2.305 -26.137,22.75 -30.109,29.989 -28.165,25.939 -28.57,59.5 L 143.877,218 H 164.939 186 v -12.532 c 0,-8.826 0.44,-13.584 1.486,-16.089 0.855,-2.046 8.441,-10.632 17.865,-20.218 9.008,-9.164 17.452,-18.686 18.764,-21.161 l 2.385,-4.5 0.301,-42.42 c 0.206,-29.07 -0.043,-43.251 -0.793,-45.06 -2.577,-6.221 -10.957,-7.823 -16.242,-3.104"
         stroke="none"
         fill="#040404"
         fill-rule="evenodd"
         id="path6"
         style="fill:#ffffff" />
    </g>
  </g>
</svg>
