<?xml version="1.0" encoding="UTF-8" standalone="no"?>
<!-- Created with Inkscape (http://www.inkscape.org/) -->

<svg
   width="34.352711"
   height="34.352711"
   viewBox="0 0 34.352709 34.352709"
   id="svg4142"
   version="1.1"
   inkscape:version="1.1 (c68e22c387, 2021-05-23)"
   sodipodi:docname="plejehjem blå.svg"
   xmlns:inkscape="http://www.inkscape.org/namespaces/inkscape"
   xmlns:sodipodi="http://sodipodi.sourceforge.net/DTD/sodipodi-0.dtd"
   xmlns="http://www.w3.org/2000/svg"
   xmlns:svg="http://www.w3.org/2000/svg"
   xmlns:rdf="http://www.w3.org/1999/02/22-rdf-syntax-ns#"
   xmlns:cc="http://creativecommons.org/ns#"
   xmlns:dc="http://purl.org/dc/elements/1.1/">
  <defs
     id="defs4144" />
  <sodipodi:namedview
     id="base"
     pagecolor="#ffffff"
     bordercolor="#666666"
     borderopacity="1.0"
     inkscape:pageopacity="0.0"
     inkscape:pageshadow="2"
     inkscape:zoom="10"
     inkscape:cx="22"
     inkscape:cy="29.45"
     inkscape:document-units="px"
     inkscape:current-layer="layer1"
     showgrid="false"
     fit-margin-top="0"
     fit-margin-left="0"
     fit-margin-right="0"
     fit-margin-bottom="0"
     inkscape:window-width="1920"
     inkscape:window-height="1017"
     inkscape:window-x="1912"
     inkscape:window-y="-8"
     inkscape:window-maximized="1"
     units="px"
     inkscape:pagecheckerboard="0" />
  <metadata
     id="metadata4147">
    <rdf:RDF>
      <cc:Work
         rdf:about="">
        <dc:format>image/svg+xml</dc:format>
        <dc:type
           rdf:resource="http://purl.org/dc/dcmitype/StillImage" />
      </cc:Work>
    </rdf:RDF>
  </metadata>
  <g
     inkscape:groupmode="layer"
     id="layer2"
     inkscape:label="Layer 2"
     transform="translate(-87.966508,-89.757295)" />
  <g
     inkscape:label="Layer 1"
     inkscape:groupmode="layer"
     id="layer1"
     transform="translate(-87.966508,-89.757295)">
    <circle
       style="opacity:1;fill:#006680;fill-opacity:1;stroke:#ffffff;stroke-width:2.9;stroke-miterlimit:4;stroke-dasharray:none;stroke-opacity:1"
       id="path4690"
       cx="105.14286"
       cy="106.93365"
       r="15.726353" />
    <path
       d="m 105.12645,94.499998 c -0.21952,0.04596 -0.0627,-0.08021 -2.53217,2.037088 -0.78442,0.672543 -1.56627,1.343971 -1.73742,1.49204 -3.253034,2.814294 -4.054456,3.511614 -5.111041,4.447214 -0.440792,0.39033 -0.666702,0.60834 -0.700161,0.67568 -0.03913,0.0787 -0.04937,0.15613 -0.04937,0.37172 0,0.23422 0.0084,0.28785 0.05947,0.38367 0.09134,0.17105 0.22888,0.30783 0.387549,0.38547 0.127278,0.0623 0.175199,0.0707 0.409237,0.0721 0.249046,0.002 0.271189,-0.002 0.365682,-0.07 0.166047,-0.1181 1.816212,-1.52197 3.692144,-3.1411 3.44026,-2.969302 5.35638,-4.605808 5.3928,-4.605808 0.0248,0 0.5623,0.467782 1.28463,1.117995 1.08477,0.976461 1.14758,1.019356 1.49107,1.018108 0.22595,-8.03e-4 0.40928,-0.07158 0.58767,-0.227009 0.17818,-0.155195 0.21401,-0.261622 0.24218,-0.719423 0.0135,-0.219306 0.025,-0.587429 0.0253,-0.818017 3.5e-4,-0.230605 0.008,-0.437725 0.0164,-0.460283 0.0134,-0.03498 0.0757,-0.041 0.42401,-0.041 h 0.40827 l 0.0185,1.65315 c 0.0173,1.548207 0.0397,2.189527 0.0802,2.293307 0.0261,0.067 1.21251,1.10593 2.63185,2.30463 1.28329,1.08382 1.74238,1.46222 1.94162,1.60038 0.13915,0.0965 0.13975,0.0966 0.40194,0.0947 0.20626,-0.002 0.28831,-0.0134 0.38244,-0.0555 0.16276,-0.0725 0.32376,-0.2236 0.40729,-0.38184 0.0624,-0.11818 0.0693,-0.1585 0.0693,-0.40359 0,-0.2137 -0.0106,-0.29324 -0.0484,-0.36965 -0.0743,-0.1494 -0.90807,-0.87915 -3.57557,-3.12934 l -0.56402,-0.47577 V 97.438281 95.32759 l -0.0657,-0.129733 c -0.0795,-0.156888 -0.21713,-0.31336 -0.36532,-0.415329 l -0.10987,-0.07557 h -1.61867 -1.61866 l -0.1141,0.08111 c -0.30519,0.216923 -0.37463,0.34311 -0.41938,0.761856 l -0.0318,0.297798 -0.47973,-0.430517 c -0.61919,-0.555696 -0.94211,-0.825745 -1.04671,-0.875384 -0.10668,-0.05069 -0.3848,-0.07256 -0.53131,-0.04182 m 3.04664,7.664569 c -0.5908,0.14301 -1.02778,0.70231 -1.02778,1.31551 0,0.46418 0.23577,0.88827 0.63826,1.14803 0.40482,0.26123 0.9726,0.27114 1.39738,0.0243 0.62361,-0.36232 0.84724,-1.15394 0.51269,-1.81479 -0.0889,-0.17553 -0.39841,-0.47745 -0.57752,-0.56332 -0.30713,-0.14721 -0.63208,-0.18504 -0.94303,-0.10979 m -7.27018,2.6431 c -0.51111,0.11106 -0.91848,0.53173 -1.03149,1.06518 -0.0504,0.23817 -0.0485,0.32782 0.0124,0.56575 0.0728,0.28464 0.18677,0.4818 0.38765,0.67076 0.34166,0.32135 0.78219,0.44483 1.2194,0.34178 0.79187,-0.18665 1.24294,-0.99033 0.98592,-1.7568 -0.14983,-0.44687 -0.5373,-0.78894 -1.00626,-0.88833 -0.21092,-0.0447 -0.35609,-0.0443 -0.56756,0.002 m 5.41846,0.59477 c -0.45279,0.10966 -0.84278,0.48814 -0.98649,0.95742 -0.0351,0.11439 -0.0421,0.39315 -0.05,1.98339 -0.006,1.27307 -3.9e-4,1.89295 0.0191,1.98694 0.0308,0.14826 0.15948,0.32514 0.2815,0.38685 0.31199,0.1578 0.7063,-0.0324 0.78003,-0.37611 0.0179,-0.0833 0.0277,-0.65539 0.0277,-1.60616 v -1.47684 h 0.25904 0.25903 l 0.01,4.50565 c 0.005,2.47811 0.003,4.39838 0.0188,4.49536 0.0585,0.27102 0.23104,0.46749 0.60968,0.46601 0.40984,0 0.62308,-0.19899 0.67293,-0.45031 0.0253,-0.0943 0.0496,-0.24252 0.05,-2.81254 l 4.9e-4,-2.67745 h 0.26547 0.26544 l 0.0106,2.74228 c 0.005,1.50827 -0.0289,2.61667 0.006,2.74454 0.0629,0.30065 0.29869,0.4439 0.64659,0.4572 0.3309,-0.01 0.54692,-0.18079 0.64323,-0.44229 0.0412,-0.11461 0.0443,-0.43858 0.0432,-4.57589 l -8.1e-4,-4.45256 h 0.27261 0.27262 l 1.1e-4,1.56239 c 7e-5,1.51577 0.002,1.56493 0.0518,1.64731 l 0.0518,0.0849 -0.15097,0.14848 c -0.0831,0.0817 -0.18215,0.21264 -0.22021,0.2911 -0.0811,0.16705 -0.13192,0.41233 -0.10804,0.52109 0.042,0.19123 0.25575,0.31777 0.43613,0.25823 0.13381,-0.0442 0.21594,-0.15413 0.23745,-0.31794 0.01,-0.0755 0.0351,-0.16405 0.0559,-0.19683 0.10588,-0.16675 0.38101,-0.21548 0.52631,-0.0932 0.0442,0.0372 0.0947,0.0926 0.1122,0.12317 0.0243,0.0425 0.0349,0.66876 0.0447,2.65734 l 0.0129,2.6018 0.0832,0.0743 c 0.15953,0.14252 0.38221,0.11597 0.51161,-0.061 0.0532,-0.0726 0.0536,-0.0931 0.0605,-2.60472 0.004,-1.6309 -0.002,-2.58274 -0.0194,-2.67556 -0.0579,-0.31719 -0.28403,-0.62565 -0.54625,-0.74527 -0.0853,-0.0389 -0.0999,-0.056 -0.0842,-0.0989 0.0106,-0.0285 0.0226,-0.89431 0.0271,-1.92397 0.008,-2.06505 0.007,-2.0926 -0.15028,-2.41294 -0.10073,-0.20499 -0.35047,-0.45987 -0.55859,-0.57003 -0.31018,-0.16417 -0.27797,-0.16215 -2.55188,-0.16014 -1.57851,0.002 -2.09361,0.01 -2.1983,0.0349 m -5.46105,2.72644 c -0.0836,0.0203 -0.21858,0.0722 -0.29983,0.11555 -0.28203,0.15032 -0.37543,0.2603 -0.83168,0.9791 l -0.42788,0.67412 -0.739052,0.01 c -0.661203,0.008 -0.74862,0.0143 -0.829813,0.0576 -0.16682,0.089 -0.247102,0.16466 -0.323187,0.30449 -0.205151,0.37689 0.01863,0.86415 0.43988,0.95765 0.08599,0.0191 0.44198,0.026 1.056741,0.0203 l 0.927061,-0.008 v 0.24847 l -2e-5,0.24848 -1.212312,-0.002 c -1.359476,-0.002 -1.338212,-0.004 -1.535008,0.18057 -0.104476,0.0982 -0.219696,0.31443 -0.995982,1.86988 -0.864386,1.73193 -0.877841,1.76131 -0.877791,1.91662 2.03e-4,0.61351 0.721188,0.91361 1.137291,0.47341 0.04881,-0.0517 0.317663,-0.5589 0.667247,-1.25889 l 0.585436,-1.17229 1.912959,-0.008 c 1.87331,-0.008 1.91594,-0.01 2.05683,-0.0627 0.43633,-0.16589 0.70886,-0.42956 0.86269,-0.83459 0.0549,-0.14433 0.056,-0.179 0.0637,-1.85384 0.008,-1.86303 0.01,-1.85624 -0.14195,-2.17004 -0.0903,-0.18743 -0.39107,-0.48822 -0.57829,-0.57817 -0.30177,-0.14501 -0.6106,-0.18096 -0.91711,-0.1068 m 2.29148,2.71613 c 0,0.70628 0.005,0.79278 0.0433,0.82466 0.1064,0.0872 0.35252,0.43077 0.44837,0.62583 0.1518,0.30887 0.20843,0.56038 0.20822,0.92442 -3.6e-4,0.61574 -0.20602,1.11602 -0.62874,1.52947 -0.27604,0.27 -0.57945,0.44766 -0.94536,0.55359 -0.1682,0.0486 -0.26288,0.0582 -0.56508,0.0573 -0.42741,-0.002 -0.58697,-0.0369 -0.93355,-0.20714 -0.28825,-0.14165 -0.51036,-0.31826 -0.7174,-0.5705 l -0.15872,-0.1934 h -0.734673 -0.734985 l 0.05328,0.13615 c 0.297782,0.76114 0.928808,1.4427 1.689438,1.82471 0.40093,0.19363 0.94524,0.28271 1.57832,0.31235 0.69635,-0.0295 0.96077,-0.10657 1.48146,-0.27414 1.06853,-0.4748 1.7226,-1.33563 1.90303,-2.47881 0.0675,-0.32179 0.0681,-1.04737 8.1e-4,-1.3554 -0.22529,-1.03662 -0.88544,-1.92453 -1.77487,-2.38727 l -0.213,-0.11081 v 0.78905"
       stroke="none"
       fill="#000000"
       fill-rule="evenodd"
       id="path6"
       sodipodi:nodetypes="cccccsccccssccscscscccccccssscccccsccccccccccscccccccccccscccscccscccccccccccccccccccccccccsccscscscccccsscsccccccccccccccscsccccccccccccccsccsccccscccccccc"
       style="fill:#ffffff;stroke-width:0.0259317" />
  </g>
</svg>
