<?xml version="1.0" encoding="UTF-8" standalone="no"?>
<!-- Created with Inkscape (http://www.inkscape.org/) -->

<svg
   width="34.352711"
   height="34.352711"
   viewBox="0 0 34.352709 34.352709"
   id="svg4142"
   version="1.1"
   inkscape:version="1.1 (c68e22c387, 2021-05-23)"
   sodipodi:docname="virksomhed blå.svg"
   xmlns:inkscape="http://www.inkscape.org/namespaces/inkscape"
   xmlns:sodipodi="http://sodipodi.sourceforge.net/DTD/sodipodi-0.dtd"
   xmlns="http://www.w3.org/2000/svg"
   xmlns:svg="http://www.w3.org/2000/svg"
   xmlns:rdf="http://www.w3.org/1999/02/22-rdf-syntax-ns#"
   xmlns:cc="http://creativecommons.org/ns#"
   xmlns:dc="http://purl.org/dc/elements/1.1/">
  <defs
     id="defs4144" />
  <sodipodi:namedview
     id="base"
     pagecolor="#ffffff"
     bordercolor="#666666"
     borderopacity="1.0"
     inkscape:pageopacity="0.0"
     inkscape:pageshadow="2"
     inkscape:zoom="7.0710678"
     inkscape:cx="55.578593"
     inkscape:cy="38.395898"
     inkscape:document-units="px"
     inkscape:current-layer="layer1"
     showgrid="false"
     fit-margin-top="0"
     fit-margin-left="0"
     fit-margin-right="0"
     fit-margin-bottom="0"
     inkscape:window-width="1920"
     inkscape:window-height="1017"
     inkscape:window-x="1912"
     inkscape:window-y="-8"
     inkscape:window-maximized="1"
     units="px"
     inkscape:pagecheckerboard="0" />
  <metadata
     id="metadata4147">
    <rdf:RDF>
      <cc:Work
         rdf:about="">
        <dc:format>image/svg+xml</dc:format>
        <dc:type
           rdf:resource="http://purl.org/dc/dcmitype/StillImage" />
      </cc:Work>
    </rdf:RDF>
  </metadata>
  <g
     inkscape:groupmode="layer"
     id="layer2"
     inkscape:label="Layer 2"
     transform="translate(-87.966508,-89.757295)" />
  <g
     inkscape:label="Layer 1"
     inkscape:groupmode="layer"
     id="layer1"
     transform="translate(-87.966508,-89.757295)">
    <circle
       style="opacity:1;fill:#006680;fill-opacity:1;stroke:#ffffff;stroke-width:2.9;stroke-miterlimit:4;stroke-dasharray:none;stroke-opacity:1"
       id="path4690"
       cx="105.14286"
       cy="106.93365"
       r="15.726353" />
    <g
       id="svgPath"
       transform="matrix(0.01825064,0,0,0.01825064,94.121893,95.33546)"
       style="fill:#ffffff">
      <path
         d="m 454.5,96.665 c -117.057,2.305 -186.25,12.568 -232.434,34.476 -48.023,22.78 -73.485,57.488 -84.994,115.859 -3.884,19.697 -4.32,27.195 -4.784,82.25 L 131.825,384 h 35.978 35.977 l 0.504,-50.75 c 0.529,-53.401 1.244,-63.459 5.69,-80.077 13.788,-51.534 53.035,-71.483 156.691,-79.644 38.747,-3.051 85.577,-4.277 220.835,-5.784 21.429,-0.239 22.146,-0.313 27.62,-2.88 7.905,-3.707 13.327,-8.995 17.12,-16.702 2.988,-6.068 3.26,-7.415 3.26,-16.142 0,-8.197 -0.366,-10.302 -2.635,-15.141 -3.706,-7.904 -8.996,-13.327 -16.7,-17.12 L 609.544,96.5 538.522,96.455 C 499.46,96.43 461.65,96.524 454.5,96.665 M 729,243.069 c -50.379,18.658 -98.949,28.129 -164,31.978 -10.175,0.602 -49.1,1.24 -86.5,1.419 -84.483,0.404 -104.608,1.89 -130.76,9.659 -43.283,12.859 -68.728,44.08 -71.412,87.625 L 275.696,384 h 35.973 35.972 l 1.182,-7.599 c 0.65,-4.18 1.904,-8.823 2.788,-10.319 4.206,-7.12 18.31,-12.454 39.889,-15.086 6.502,-0.793 37.987,-1.492 90,-1.999 44,-0.429 86.975,-1.29 95.5,-1.914 62.502,-4.575 110.154,-13.392 157.132,-29.073 30.207,-10.082 36.144,-13.727 42.108,-25.852 2.987,-6.073 3.26,-7.424 3.26,-16.143 0,-8.191 -0.367,-10.297 -2.635,-15.135 -3.687,-7.862 -8.995,-13.326 -16.568,-17.055 -5.336,-2.627 -7.936,-3.257 -14.642,-3.549 -7.188,-0.313 -9.163,0.018 -16.655,2.793 M 106.5,457.417 c -3.727,1.664 -8.031,6.179 -9.436,9.898 C 96.32,469.282 96,565.568 96,787.065 V 1104 h 504.006 504.005 l -0.255,-256.75 -0.256,-256.75 -2.635,-5.62 c -5.873,-12.524 -16.809,-19.881 -30.68,-20.637 l -7.685,-0.42 -156.661,47.047 c -86.163,25.876 -157.809,47.335 -159.212,47.688 l -2.552,0.64 -0.287,-34.373 -0.288,-34.373 -3.26,-6.618 c -5.79,-11.758 -16.396,-18.759 -29.708,-19.614 -6.843,-0.439 -12.856,1.122 -181.61,47.149 -95.992,26.182 -175.97,47.891 -177.727,48.242 L 348,660.25 v -95.157 c 0,-78.576 -0.24,-95.718 -1.377,-98.375 -1.665,-3.892 -6.107,-8.207 -9.938,-9.654 -1.93,-0.73 -38.076,-1.052 -115,-1.025 -91.503,0.032 -112.738,0.286 -115.185,1.378 M 348,870 v 54 h 90 90 v -54 -54 h -90 -90 v 54 m 252,0 v 54 h 90 90 v -54 -54 h -90 -90 v 54 m 252,0 v 54 h 90 90 v -54 -54 h -90 -90 v 54"
         stroke="none"
         fill="#040404"
         fill-rule="evenodd"
         id="path6"
         style="fill:#ffffff" />
    </g>
  </g>
</svg>
