<?xml version="1.0" encoding="UTF-8" standalone="no"?>
<svg
   id="svg"
   width="897.47382"
   height="897.47382"
   viewBox="0 0 897.47382 897.47385"
   version="1.1"
   sodipodi:docname="frysecontainer_blaa.svg"
   inkscape:version="1.1 (c68e22c387, 2021-05-23)"
   xmlns:inkscape="http://www.inkscape.org/namespaces/inkscape"
   xmlns:sodipodi="http://sodipodi.sourceforge.net/DTD/sodipodi-0.dtd"
   xmlns="http://www.w3.org/2000/svg"
   xmlns:svg="http://www.w3.org/2000/svg">
  <defs
     id="defs7" />
  <sodipodi:namedview
     id="namedview5"
     pagecolor="#ffffff"
     bordercolor="#666666"
     borderopacity="1.0"
     inkscape:pageshadow="2"
     inkscape:pageopacity="0.0"
     inkscape:pagecheckerboard="0"
     showgrid="false"
     fit-margin-top="0"
     fit-margin-left="0"
     fit-margin-right="0"
     fit-margin-bottom="0"
     inkscape:zoom="0.02545462"
     inkscape:cx="589.28399"
     inkscape:cy="726.78359"
     inkscape:window-width="1920"
     inkscape:window-height="1009"
     inkscape:window-x="-8"
     inkscape:window-y="-8"
     inkscape:window-maximized="1"
     inkscape:current-layer="svg" />
  <circle
     style="fill:#006680;fill-opacity:1;stroke:#ffffff;stroke-width:25;stroke-miterlimit:4;stroke-dasharray:none;stroke-opacity:1"
     id="path846"
     cx="448.73691"
     cy="448.73691"
     r="436.23691" />
  <path
     id="path0"
     d="m 225.47644,166.8382 c -2.13041,0.48257 -4.5804,0.88927 -5.44548,0.90542 -3.58619,0.063 -15.64402,6.49455 -21.62049,11.53169 -8.53296,7.19016 -16.72054,19.6773 -18.06819,27.55338 -0.2437,1.42028 -0.86507,3.89769 -1.38315,5.50358 -0.73596,2.28536 -1.18303,416.11063 -0.47451,438.01034 0.0162,0.35507 -0.0969,7.4726 -0.24208,15.81673 -0.28407,16.26218 0.97967,25.13244 4.37541,30.74092 0.66979,1.10719 1.22338,2.41449 1.22983,2.90513 0.0226,1.73822 7.64852,12.00942 11.70277,15.76185 4.63204,4.28827 7.94387,6.61235 12.92937,9.07201 2.60169,1.2831 5.57458,2.7518 6.60752,3.26504 1.03292,0.51324 5.20176,1.50097 9.26408,2.19658 11.39289,1.94643 438.05231,1.94481 448.83511,-0.004 6.48809,-1.17173 13.33609,-3.52004 16.78833,-5.75697 0.88929,-0.57618 2.08199,-1.33797 2.65334,-1.69304 7.79055,-4.85315 12.47261,-9.46582 18.34256,-18.07626 1.8399,-2.69851 5.46968,-10.36641 5.46968,-11.55589 0,-0.54068 0.65365,-2.66625 1.45256,-4.7208 l 1.45255,-3.73631 V 448.59865 212.63892 l -1.45255,-4.03811 c -0.79891,-2.21918 -1.45256,-4.34475 -1.45256,-4.7208 0,-0.37606 -0.93608,-2.6259 -2.07876,-5.00003 -5.41804,-11.25409 -14.23991,-20.71669 -24.06726,-25.81355 -7.61139,-3.94773 -9.57396,-4.71756 -14.75798,-5.79247 -7.2305,-1.49936 -443.4897,-1.9206 -450.0601,-0.43576 m 446.02199,29.17702 c 6.66403,2.29988 13.28606,8.42805 16.65277,15.40678 l 2.14332,4.44482 v 232.08626 232.08625 l -1.87219,4.19626 c -4.05585,9.09463 -10.26473,14.49814 -19.38355,16.86742 -7.12883,1.85281 -433.89961,1.85281 -441.02844,0 -8.91546,-2.31602 -14.99199,-7.50488 -19.3771,-16.54462 l -1.87864,-3.8735 -0.16623,-232.67049 -0.16624,-232.6705 2.04165,-4.25761 c 3.12945,-6.52197 9.92095,-12.85351 16.12983,-15.03557 l 4.75632,-1.67206 218.50322,-0.0694 218.50324,-0.0693 5.14204,1.77535 m -229.61205,74.00774 c -7.79378,4.79182 -7.78893,4.76922 -8.19403,31.59794 -0.4164,27.626 0.0566,26.52208 -8.38609,19.59499 -8.36189,-6.86253 -25.27287,-20.18408 -28.16669,-22.18699 -6.54296,-4.53198 -16.38322,-1.55424 -19.97911,6.04425 -3.63139,7.67757 -0.9022,13.70567 10.17597,22.47912 0.89736,0.71014 2.46611,1.95287 3.48775,2.75985 2.27082,1.79633 15.65209,12.57268 25.54562,20.57305 4.01551,3.24727 9.11075,7.26278 11.32188,8.92353 5.66335,4.24953 5.4616,2.78246 5.22275,37.97468 -0.22273,32.54049 -0.25017,32.78743 -3.43127,30.44073 -0.71174,-0.52613 -2.45644,-1.53487 -3.87671,-2.24016 -1.42027,-0.70691 -3.88962,-2.14494 -5.48744,-3.19563 -1.59781,-1.05067 -3.81054,-2.42738 -4.9161,-3.06004 -1.10716,-0.63267 -3.43125,-1.95773 -5.16464,-2.94547 -1.735,-0.98774 -4.46097,-2.65656 -6.05877,-3.70886 -1.59782,-1.0523 -3.63139,-2.28536 -4.51907,-2.73887 -1.643,-0.83927 -6.41222,-3.66367 -12.45648,-7.37738 -1.84797,-1.1346 -4.23178,-2.47419 -5.29698,-2.97774 -4.32378,-2.03842 -6.12818,-7.15302 -7.41934,-21.02979 -0.38413,-4.12365 -1.11202,-9.09623 -1.61719,-11.0491 -0.50516,-1.9529 -1.23143,-6.89158 -1.61556,-10.97488 -0.38411,-4.0833 -1.10071,-9.022 -1.59619,-10.97487 -0.49388,-1.95288 -1.18626,-6.51069 -1.5381,-10.12917 -1.23952,-12.73569 -8.07945,-19.04623 -18.33126,-16.91098 -9.47552,1.97063 -12.77443,11.36221 -9.27054,26.39456 0.53744,2.30795 1.296,7.36931 1.68658,11.24602 0.39058,3.87833 1.12653,8.81703 1.63654,10.97488 2.12397,9.00906 1.3299,10.30668 -4.32055,7.05457 -2.25307,-1.29599 -5.113,-2.91318 -6.35574,-3.59427 -1.24274,-0.68109 -3.42157,-1.93513 -4.84186,-2.78406 -1.42027,-0.85056 -3.99291,-2.35637 -5.71499,-3.34573 -1.72371,-0.98934 -4.39964,-2.52421 -5.94581,-3.41189 -1.54778,-0.88767 -4.69497,-2.70821 -6.99486,-4.04457 -10.32122,-5.99581 -19.42875,-3.8654 -22.93748,5.36801 -2.90027,7.62915 0.0404,14.72086 7.70016,18.57496 0.88767,0.44707 2.94386,1.59944 4.56911,2.56136 5.0323,2.97935 15.00329,8.67821 25.54724,14.60142 l 5.63914,3.16818 -2.22241,1.85767 c -1.22177,1.02 -3.55714,2.25307 -5.18725,2.73724 -1.63008,0.48581 -4.16076,1.49291 -5.623,2.23856 -1.46225,0.74564 -3.03262,1.35894 -3.49099,1.36217 -0.45836,0.004 -2.28534,0.71983 -4.0607,1.59298 -1.77533,0.87314 -3.66366,1.59942 -4.19627,1.61394 -0.5326,0.0146 -2.42092,0.74082 -4.19627,1.61396 -1.77534,0.87314 -3.60396,1.59781 -4.06394,1.6075 -7.18854,0.1743 -15.87966,9.18338 -15.85384,16.43325 0.0404,11.63176 12.18856,16.88193 25.48592,11.01361 1.99806,-0.88122 4.03164,-1.61233 4.51906,-1.62363 0.48903,-0.009 2.34023,-0.73435 4.11557,-1.6075 1.77535,-0.87315 3.66368,-1.59942 4.19628,-1.61395 0.53261,-0.0145 2.42093,-0.74081 4.19627,-1.61396 1.77536,-0.87314 3.66368,-1.59942 4.19628,-1.61395 0.53259,-0.0144 2.42092,-0.74079 4.19627,-1.61395 1.77534,-0.87315 3.66366,-1.59297 4.19628,-1.59942 0.5326,-0.006 2.42092,-0.72629 4.19627,-1.59942 1.77535,-0.87316 3.66367,-1.59945 4.19628,-1.61396 0.53259,-0.0146 2.42093,-0.7408 4.19627,-1.61395 1.77534,-0.87316 3.67497,-1.59782 4.22047,-1.6075 0.54714,-0.0109 2.14496,-0.6133 3.5507,-1.33636 3.31828,-1.70755 7.32089,-2.20305 9.13336,-1.13137 0.7763,0.45836 3.1004,1.83505 5.16464,3.06005 6.40578,3.80247 7.55814,4.44966 9.88707,5.54878 1.24275,0.58746 2.74856,1.50096 3.3441,2.03195 1.06361,0.94417 3.44257,2.36282 7.30798,4.35605 1.06522,0.55037 3.53455,2.01583 5.48745,3.25696 1.95287,1.24274 4.71273,2.83894 6.13301,3.54747 1.42027,0.70852 4.39156,2.43222 6.60267,3.8299 2.21112,1.3993 4.55618,2.71306 5.20984,2.91964 1.42996,0.45353 4.29634,4.16238 3.68788,4.77084 -0.23725,0.23564 -1.57038,1.01196 -2.96483,1.7237 -1.39284,0.71176 -6.317,3.47323 -10.93937,6.13625 -12.56944,7.23857 -14.27379,8.20372 -17.09013,9.67241 -1.42028,0.7408 -3.91222,2.13527 -5.53747,3.10039 -3.68465,2.18691 -13.66048,7.89385 -15.97328,9.13982 -2.47419,1.33151 -6.82863,0.96031 -10.8054,-0.91995 -1.88833,-0.89412 -3.81538,-1.62848 -4.28021,-1.6317 -0.46643,-0.004 -2.29989,-0.71983 -4.07522,-1.59297 -1.77535,-0.87316 -3.6443,-1.59782 -4.1543,-1.60751 -0.50841,-0.0109 -2.10621,-0.58263 -3.5507,-1.27017 -1.44288,-0.68594 -4.22211,-1.81247 -6.17499,-2.50163 -1.95287,-0.68915 -4.56748,-1.61395 -5.81022,-2.05778 -1.24275,-0.44223 -3.79118,-1.49614 -5.66336,-2.34023 -1.87218,-0.8441 -3.90576,-1.54456 -4.51906,-1.55586 -0.6133,-0.009 -2.5678,-0.73434 -4.34315,-1.60749 -1.77535,-0.87316 -3.60879,-1.58974 -4.07522,-1.59297 -0.46482,-0.004 -2.49839,-0.79891 -4.51906,-1.76889 -18.84452,-9.04459 -33.42172,14.1834 -15.56012,24.79353 1.92222,1.14267 4.36735,2.27405 5.43257,2.51452 1.0652,0.24048 3.30698,1.12654 4.98226,1.97065 1.67366,0.84409 3.41673,1.53809 3.87349,1.54132 0.45513,0.004 2.28051,0.71983 4.05585,1.59297 1.77536,0.87315 3.66368,1.59942 4.19627,1.61395 0.53261,0.0146 2.42094,0.7408 4.19628,1.61396 1.77535,0.87314 3.60881,1.5978 4.07523,1.60749 1.08619,0.0275 9.06234,3.86219 9.49972,4.56748 0.28245,0.45675 -1.72853,1.91254 -7.76472,5.623 -0.71014,0.43739 -2.70175,1.59459 -4.42384,2.57426 -1.7237,0.97967 -4.48356,2.56779 -6.13302,3.5281 -1.65107,0.96029 -3.87187,2.19337 -4.93707,2.74049 -1.06521,0.54552 -3.53456,2.01097 -5.48743,3.25534 -1.9529,1.24435 -4.53845,2.72112 -5.74407,3.28117 -8.50714,3.94449 -12.20793,12.95841 -8.1569,19.86935 4.99034,8.51683 13.88159,10.27765 22.70667,4.49647 1.89318,-1.24113 4.70144,-2.82764 8.30217,-4.69014 1.42028,-0.73435 4.18014,-2.35154 6.13302,-3.59427 1.95288,-1.24113 4.42222,-2.70499 5.48744,-3.25049 1.06521,-0.54714 3.38929,-1.83668 5.16465,-2.868 1.77534,-1.03132 4.43028,-2.44675 5.9006,-3.1456 1.47031,-0.69884 2.86961,-1.59135 3.11171,-1.98032 1.69625,-2.74694 2.14008,3.2392 0.6956,9.369 -0.51001,2.15785 -1.24596,7.09654 -1.63654,10.97487 -0.39058,3.87671 -1.15398,8.93806 -1.69627,11.24601 -0.54229,2.30795 -1.15237,7.03684 -1.35411,10.50844 l -0.36959,6.31217 2.42416,3.51842 c 9.06234,13.15854 25.25512,6.61881 26.89649,-10.86191 0.34057,-3.61524 1.03133,-8.16982 1.5365,-10.12269 0.50516,-1.9529 1.23629,-7.03685 1.62685,-11.29767 0.38897,-4.26083 1.11363,-9.34478 1.61234,-11.29766 0.49711,-1.95289 1.2137,-6.83669 1.59136,-10.85382 1.37186,-14.58528 2.95676,-18.84128 7.981,-21.4349 4.86767,-2.51292 6.9529,-3.73307 8.052,-4.7079 0.59555,-0.53098 2.10136,-1.43803 3.34411,-2.01744 2.55811,-1.1927 5.93773,-3.11976 10.65208,-6.07814 1.77535,-1.11362 4.38995,-2.61137 5.81022,-3.32796 1.42028,-0.7166 3.88963,-2.17077 5.48743,-3.23114 1.59782,-1.06037 3.88802,-2.38542 5.09041,-2.94385 1.20239,-0.55842 3.01808,-1.57521 4.03488,-2.26115 1.01679,-0.68591 2.73404,-1.84474 3.81377,-2.57747 1.11686,-0.75534 2.72113,-1.24436 3.71209,-1.12977 l 1.74791,0.20175 0.16784,30.9685 c 0.19368,35.84909 0.68272,33.0037 -6.65593,38.7542 -2.71951,2.13043 -8.37641,6.63334 -12.57107,10.00651 -6.7334,5.41319 -11.71245,9.39642 -28.92523,23.12793 -7.87125,6.27988 -9.90967,10.22761 -8.86706,17.17244 1.31698,8.7912 13.44099,14.47877 20.55528,9.64498 4.11236,-2.79536 7.82768,-5.60526 11.76409,-8.90094 1.06522,-0.89092 3.24406,-2.64365 4.84186,-3.89447 6.56717,-5.13882 6.36543,-4.97744 12.58883,-10.0646 8.39416,-6.86091 8.06975,-7.56138 8.06975,17.40969 0,11.64789 0.28407,22.67764 0.63267,24.51109 1.6414,8.65562 11.95294,13.6621 19.47555,9.45776 7.66951,-4.28667 7.88739,-5.11946 8.28766,-31.87394 0.40832,-27.26125 -0.0597,-26.18637 8.40869,-19.2722 13.64111,11.13466 22.88421,18.40874 28.33453,22.29836 6.65109,4.74341 17.20473,0.75371 20.29544,-7.67434 2.59846,-7.08525 -0.26954,-12.70825 -10.68921,-20.96039 -0.89735,-0.71015 -2.46611,-1.95288 -3.48774,-2.75986 -2.27082,-1.79633 -15.6521,-12.57268 -25.54563,-20.57304 -4.01551,-3.24727 -9.08815,-7.24665 -11.27507,-8.88641 -5.59557,-4.20113 -5.38736,-2.82604 -5.37929,-35.5021 0.0162,-37.09668 -0.28728,-35.6877 6.59137,-31.33972 2.23048,1.40898 5.2163,3.14237 6.63657,3.8509 1.42028,0.70851 4.18013,2.30472 6.13302,3.54746 1.95288,1.24112 4.42223,2.69208 5.48744,3.22306 1.06519,0.53099 3.53455,1.98354 5.48742,3.22791 1.9529,1.24435 4.42223,2.70337 5.48745,3.24242 1.0652,0.54068 4.55134,2.56942 7.74697,4.511 3.19563,1.94158 6.97388,4.0946 8.39416,4.78536 5.09847,2.47742 5.93934,3.99938 6.74954,12.21601 0.39704,4.03002 1.13623,9.11398 1.6414,11.29766 0.50516,2.18206 1.23143,7.30958 1.61395,11.39288 0.38412,4.0833 1.11039,9.02198 1.61555,10.97488 0.50517,1.95288 1.2363,6.96258 1.62364,11.13142 1.83668,19.73701 8.57977,27.5679 20.65859,23.98816 9.27539,-2.75017 11.01522,-10.87158 7.03683,-32.87781 -2.40641,-13.31025 -3.1698,-24.19152 -1.69788,-24.19152 0.9603,0 3.73467,1.3993 9.03489,4.55619 5.17595,3.08264 9.36577,5.46645 12.40646,7.0578 1.42027,0.74403 3.74437,2.05619 5.16464,2.9148 1.42028,0.86024 3.74437,2.18851 5.16464,2.95354 1.42028,0.765 3.03101,1.7818 3.57814,2.26276 3.10848,2.72112 13.25377,2.98096 16.67374,0.42769 9.10752,-6.79958 7.95192,-20.12436 -2.17562,-25.09049 -2.16269,-1.06037 -6.17013,-3.33442 -11.76087,-6.67047 -5.50034,-3.28439 -7.32248,-4.32538 -10.18886,-5.81991 -1.42028,-0.74079 -4.18014,-2.34183 -6.13302,-3.55553 -1.95289,-1.21531 -4.51584,-2.65333 -5.69564,-3.19723 -1.27824,-0.59071 -1.96418,-1.28149 -1.69787,-1.71241 0.67946,-1.09748 6.22017,-4.46903 7.358,-4.47548 0.55198,-0.004 2.45643,-0.71983 4.23178,-1.59298 1.77534,-0.87315 3.66366,-1.60588 4.19627,-1.62847 0.5326,-0.0226 2.42093,-0.75533 4.19628,-1.62848 1.77534,-0.87314 3.66367,-1.59943 4.19628,-1.61395 0.5326,-0.0146 2.42092,-0.74081 4.19627,-1.61395 1.77534,-0.87315 3.5991,-1.58975 4.05263,-1.59297 5.40836,-0.0387 13.87031,-7.19016 15.01137,-12.68889 2.93901,-14.15597 -9.92742,-21.79804 -24.83065,-14.74668 -1.86734,0.88283 -3.80409,1.60911 -4.30279,1.61234 -0.4971,0.004 -2.35799,0.71981 -4.13333,1.59297 -1.77535,0.87315 -3.66368,1.59942 -4.19628,1.61395 -0.53261,0.0146 -2.42093,0.7408 -4.19627,1.61396 -1.77536,0.87314 -3.64431,1.5978 -4.15432,1.60749 -0.50839,0.0109 -2.1062,0.58264 -3.5507,1.27017 -1.44287,0.68593 -4.22209,1.81248 -6.17497,2.50163 -1.95289,0.68917 -4.56748,1.61396 -5.81023,2.05779 -1.24274,0.44222 -3.79117,1.49614 -5.66335,2.34023 -1.87219,0.8441 -3.90576,1.54456 -4.51907,1.55585 -0.61331,0.009 -2.5678,0.73435 -4.34315,1.60749 -3.87348,1.90447 -6.70596,2.02713 -8.80087,0.37928 -0.85216,-0.66978 -2.56134,-1.69949 -3.79924,-2.28696 -1.23629,-0.58909 -3.7008,-1.91254 -5.47614,-2.94384 -1.77535,-1.03133 -4.38995,-2.48065 -5.81023,-3.22146 -1.42028,-0.74079 -4.03487,-2.21111 -5.81023,-3.26825 -1.77534,-1.05714 -4.38995,-2.51776 -5.81022,-3.24565 -1.42027,-0.7279 -3.93643,-2.1046 -5.59234,-3.05845 -1.6543,-0.95546 -6.81087,-3.86058 -11.45906,-6.45743 -4.64656,-2.59685 -8.44903,-5.1146 -8.44903,-5.59557 0,-0.48256 -0.1614,-1.296 -0.35831,-1.80923 -0.24047,-0.62621 0.55843,-1.40414 2.42094,-2.36283 4.91932,-2.53229 7.04006,-3.77018 8.15046,-4.7547 0.59554,-0.53098 2.10135,-1.43803 3.3441,-2.01743 2.55811,-1.19272 5.93773,-3.11978 10.65208,-6.07816 1.77535,-1.11361 4.38995,-2.61136 5.81023,-3.32795 1.42028,-0.7166 3.88962,-2.16915 5.48742,-3.22629 1.59783,-1.05714 4.06717,-2.5097 5.48745,-3.22791 1.42027,-0.71821 3.88963,-2.17238 5.48743,-3.23274 6.52844,-4.33347 9.79186,-4.59815 15.95069,-1.29763 1.33635,0.7166 2.85023,1.30247 3.36509,1.30247 0.51485,0 2.11589,0.56165 3.56038,1.24919 1.44287,0.68594 4.22209,1.81248 6.17497,2.50163 1.95289,0.68916 4.56748,1.61395 5.81023,2.05779 1.24274,0.44222 3.79117,1.49614 5.66335,2.34024 1.87219,0.84408 3.84282,1.53486 4.37866,1.53486 0.53745,0 2.40963,0.72628 4.16076,1.61396 1.75115,0.88766 3.70241,1.62363 4.33669,1.63492 0.63268,0.009 2.6033,0.73435 4.37866,1.60749 1.77534,0.87316 3.66851,1.58976 4.20595,1.59297 0.53745,0.004 2.11751,0.61653 3.51034,1.3638 14.69341,7.87446 30.79098,-6.17176 22.01269,-19.20764 -2.20789,-3.27794 -9.04781,-7.97292 -11.61722,-7.97292 -0.57617,0 -2.48064,-0.72628 -4.23178,-1.61395 -1.75113,-0.88767 -3.55715,-1.61718 -4.01389,-1.62042 -0.45515,-0.004 -2.28053,-0.71981 -4.05587,-1.59297 -1.77535,-0.87314 -3.66367,-1.59942 -4.19627,-1.61394 -0.53261,-0.0146 -2.42094,-0.74081 -4.19628,-1.61395 -1.77535,-0.87316 -3.6088,-1.59782 -4.07523,-1.6075 -1.06037,-0.0259 -9.05749,-3.85411 -9.48034,-4.53843 -0.37444,-0.60523 2.82117,-3.11009 6.68014,-5.23405 1.54455,-0.85055 4.15915,-2.33215 5.81022,-3.29246 1.65107,-0.9603 3.72822,-2.1288 4.6159,-2.59685 0.88768,-0.46804 3.31183,-1.86088 5.38576,-3.09555 6.69306,-3.98325 9.73858,-5.70371 12.02072,-6.79474 12.39837,-5.92966 12.85189,-21.58176 0.77792,-26.83518 -5.27116,-2.29343 -13.84932,0.0743 -21.18797,5.84734 -0.92963,0.73113 -2.05133,1.32829 -2.49193,1.32829 -0.44061,0 -1.19755,0.47611 -1.67851,1.05714 -0.48258,0.58103 -2.04327,1.59943 -3.46837,2.26437 -1.42513,0.66495 -4.04458,2.11912 -5.81992,3.23275 -4.15593,2.60652 -7.81476,4.71597 -10.65208,6.14109 -1.24274,0.62297 -2.75017,1.53648 -3.34895,2.02873 -2.53552,2.08684 -3.17787,-1.60105 -1.50905,-8.67338 0.51324,-2.1756 1.25403,-7.25955 1.64785,-11.29765 0.39218,-4.03812 1.13622,-8.93968 1.65268,-10.89257 3.86864,-14.61593 0.35185,-24.39488 -9.52393,-26.4914 -10.22922,-2.17076 -16.90937,4.03005 -18.09078,16.79479 -0.31149,3.36669 -0.98128,7.72437 -1.48806,9.6837 -0.50679,1.95934 -1.23467,6.90449 -1.61879,10.98778 -0.38252,4.08331 -1.10879,9.21083 -1.61395,11.39289 -0.50517,2.18367 -1.24598,7.26763 -1.64463,11.29766 -1.47837,14.92098 -3.031,18.78157 -8.68467,21.58499 -1.06521,0.52777 -3.09879,1.66559 -4.51907,2.52906 -1.42027,0.86185 -3.98807,2.37735 -5.70693,3.36671 -4.71919,2.71627 -6.22178,3.59588 -10.29216,6.02649 -2.05295,1.225 -5.00003,2.95354 -6.54942,3.84121 -7.51133,4.30279 -9.27377,5.32442 -11.66726,6.77053 -1.42028,0.857 -3.3086,1.92544 -4.19628,2.3725 -0.88766,0.44707 -2.30633,1.33151 -3.15366,1.96741 -0.84733,0.63589 -2.3725,1.15558 -3.38929,1.15558 h -1.84959 v -31.27999 c 0,-36.14767 -0.62137,-32.83584 7.34993,-39.18028 3.23597,-2.57587 7.48229,-5.97323 9.43516,-7.55169 16.53655,-13.35384 29.1754,-23.46847 32.18543,-25.75705 5.32281,-4.04779 7.60656,-7.23696 8.11979,-11.33962 1.86249,-14.90646 -14.24312,-22.13052 -25.55531,-11.4623 -0.58747,0.55198 -4.03003,3.3296 -7.65336,6.17014 -3.62171,2.84056 -9.532,7.57913 -13.13435,10.53104 -7.01099,5.74406 -9.76602,7.5065 -10.76666,6.88834 -0.38412,-0.23724 -0.62782,-8.4345 -0.62944,-21.1702 0,-23.46201 -0.38089,-27.21929 -3.0536,-30.46173 -4.31731,-5.23726 -12.11916,-7.0352 -17.13855,-3.94933"
     stroke="none"
     fill="#080808"
     fill-rule="evenodd"
     style="fill:#ffffff;stroke-width:1" />
</svg>
