<?xml version="1.0" encoding="UTF-8" standalone="no"?>
<svg
   id="svg"
   width="897.47382"
   height="897.47382"
   viewBox="0 0 897.47382 897.47385"
   version="1.1"
   sodipodi:docname="havn.svg"
   inkscape:version="1.1 (c68e22c387, 2021-05-23)"
   xmlns:inkscape="http://www.inkscape.org/namespaces/inkscape"
   xmlns:sodipodi="http://sodipodi.sourceforge.net/DTD/sodipodi-0.dtd"
   xmlns="http://www.w3.org/2000/svg"
   xmlns:svg="http://www.w3.org/2000/svg">
  <defs
     id="defs7" />
  <sodipodi:namedview
     id="namedview5"
     pagecolor="#ffffff"
     bordercolor="#666666"
     borderopacity="1.0"
     inkscape:pageshadow="2"
     inkscape:pageopacity="0.0"
     inkscape:pagecheckerboard="0"
     showgrid="false"
     fit-margin-top="0"
     fit-margin-left="0"
     fit-margin-right="0"
     fit-margin-bottom="0"
     inkscape:zoom="0.15674954"
     inkscape:cx="1684.2154"
     inkscape:cy="673.04822"
     inkscape:window-width="1920"
     inkscape:window-height="1017"
     inkscape:window-x="1912"
     inkscape:window-y="-8"
     inkscape:window-maximized="1"
     inkscape:current-layer="svg" />
  <circle
     style="fill:#006680;fill-opacity:1;stroke:#ffffff;stroke-width:25;stroke-miterlimit:4;stroke-dasharray:none;stroke-opacity:1"
     id="path846"
     cx="448.73691"
     cy="448.73691"
     r="436.23691" />
  <g
     id="g2336"
     style="fill:#ffffff"
     transform="matrix(1.253253,0,0,1.253253,87.724661,91.65416)">
    <path
       d="m 160.77,450.55 c 8.937,-5.793 16.26,-14.225 20.826,-24.829 1.68737,-3.3592 2.50765,-5.18911 3.64542,-7.4545 2.6058,-5.16796 1.95357,-4.93542 6.50658,-9.4655 3.331,-3.453 7.049,-6.52 12.407,-7.895 10.768,-2.82 20.778,2.256 27.069,10.15 2.68036,4.05076 4.39424,10.44157 5.64,13.535 6.592,16.742 16.126,25.52 33.838,31.582 30.48886,8.6012 57.43958,-5.72718 71.66517,-31.27701 1.80043,-3.29661 4.52464,-8.10589 6.16283,-11.58499 1.58015,-2.54385 3.313,-4.477 3.384,-4.512 2.044,-2.045 5.675,-6.168 12.407,-7.895 10.785,-2.82 20.796,2.256 27.07,10.15 l 0.97396,1.39857 c 3.2448,5.72931 4.92491,10.37785 5.79404,12.13743 5.27286,10.21222 9.904,18.427 18.126,24.023 1.093,-11.154 3.17,-26.344 7.125,-44.221 7.778,-35.16 24.631,-88.272 60.752,-141.623 l 14.515,-21.442 -25.142,-6.197 c -0.238,-0.059 -16.547,-4.1 -39.205,-10.814 v -115.11 h -73.6 V 36.619 l -143.797,1.346 -1.126,71.242 h -69.238 v 114.926 c -17.651,5.367 -33.237,9.631 -43.813,12.288 l -24.494,6.155 13.757,21.178 c 50.065,77.076 64.583,152.605 68.751,186.796 z m 7.456,-319.687 h 68.898 l 1.13,-71.441 100.82,-0.943 v 72.385 h 73.598 v 86.783 c -4.573,-1.464 -9.256,-3.001 -13.996,-4.604 -66.246,-22.412 -88.369,-38.751 -95.659,-46.496 l -12.962,-13.769 -13.148,13.59 c -17.171,17.748 -65.341,36.75 -108.681,50.935 z"
       fill="param(fill)"
       fill-opacity="param(fill-opacity)"
       stroke="param(outline)"
       stroke-opacity="param(outline-opacity)"
       stroke-width="param(outline-width)"
       id="path2"
       sodipodi:nodetypes="ccccccccccccccccccccccccccccccccccccccccccccc"
       style="fill:#ffffff" />
    <path
       d="m 536.885,408.998 c -9.429,-3.228 -19.69,1.8 -22.919,11.229 -11.94,34.88 -50.048,53.557 -84.931,41.645 -19.586,-6.715 -34.729,-21.765 -41.545,-41.289 -1.507,-4.317 -4.497,-7.683 -8.191,-9.761 -1.164,-0.733 -2.419,-1.359 -3.777,-1.824 -9.431,-3.228 -19.69,1.8 -22.919,11.229 -11.94,34.878 -50.046,53.556 -84.931,41.645 -18.563,-6.365 -27.42022,-8.38567 -40.371,-38.294 -1.56954,-6.56457 -5.363,-12.306 -12.021,-14.582 -7.806,-2.668 -16.163,0.327 -20.646,6.78 -1.45,1.957 -1.74032,2.79978 -3.05,6.565 -12.72,33.509 -49.957,51.199 -84.135,39.529 C 87.864,455.16 72.731,440.115 65.929,420.593 62.65,411.18 52.36,406.21 42.95,409.489 c -9.412,3.279 -14.384,13.567 -11.104,22.979 10.472,30.059 33.765,53.221 63.922,63.553 10.996,3.756 22.193,5.538 33.215,5.538 31.061,0 60.674,-14.174 80.18,-38.247 12.006,14.906 28.088,26.285 46.824,32.709 10.994,3.755 22.188,5.536 33.209,5.536 31.36,0 61.247,-14.454 80.751,-38.953 12.073,15.252 28.37,26.892 47.403,33.417 10.994,3.755 22.188,5.536 33.209,5.536 42.829,0 82.936,-26.934 97.556,-69.641 3.227,-9.429 -1.801,-19.689 -11.23,-22.918 z"
       fill="param(fill)"
       fill-opacity="param(fill-opacity)"
       stroke="param(outline)"
       stroke-opacity="param(outline-opacity)"
       stroke-width="param(outline-width)"
       id="path4"
       sodipodi:nodetypes="cccscccccccccccccsccsccscc"
       style="fill:#ffffff" />
  </g>
</svg>
