<?xml version="1.0" encoding="UTF-8" standalone="no"?>
<svg
   id="svg"
   width="897.47382"
   height="897.47382"
   viewBox="0 0 897.47382 897.47385"
   version="1.1"
   sodipodi:docname="helipad.svg"
   inkscape:version="1.1 (c68e22c387, 2021-05-23)"
   xmlns:inkscape="http://www.inkscape.org/namespaces/inkscape"
   xmlns:sodipodi="http://sodipodi.sourceforge.net/DTD/sodipodi-0.dtd"
   xmlns="http://www.w3.org/2000/svg"
   xmlns:svg="http://www.w3.org/2000/svg">
  <defs
     id="defs7" />
  <sodipodi:namedview
     id="namedview5"
     pagecolor="#ffffff"
     bordercolor="#666666"
     borderopacity="1.0"
     inkscape:pageshadow="2"
     inkscape:pageopacity="0.0"
     inkscape:pagecheckerboard="0"
     showgrid="false"
     fit-margin-top="0"
     fit-margin-left="0"
     fit-margin-right="0"
     fit-margin-bottom="0"
     inkscape:zoom="0.20683226"
     inkscape:cx="1692.1925"
     inkscape:cy="669.62474"
     inkscape:window-width="1920"
     inkscape:window-height="1017"
     inkscape:window-x="1912"
     inkscape:window-y="-8"
     inkscape:window-maximized="1"
     inkscape:current-layer="svg" />
  <circle
     style="fill:#006680;fill-opacity:1;stroke:#ffffff;stroke-width:25;stroke-miterlimit:4;stroke-dasharray:none;stroke-opacity:1"
     id="path846"
     cx="448.73691"
     cy="448.73691"
     r="436.23691" />
  <path
     id="path1"
     d="M 203.04882,196.90237 99.460288,300.63758 v 146.75157 146.75158 l 102.885252,102.9616 102.88324,102.9616 H 452.14311 599.05743 L 702.75044,696.27849 806.44345,592.49305 V 447.39719 302.29931 L 701.91656,197.69004 597.38967,93.080772 452.0145,93.124949 306.63935,93.167119 203.04882,196.90232 m 238.0187,-14.66833 0.21098,16.19344 h -8.16403 c -4.59943,0 -8.37301,0.33958 -8.64427,0.77963 -0.26523,0.43 -3.05221,0.77963 -6.19485,0.77963 -4.1232,0 -5.97986,0.32551 -6.68112,1.17146 -0.58874,0.7093 -2.29871,1.16944 -4.34223,1.16944 -1.85263,0 -3.58671,0.35164 -3.85194,0.78164 -0.26524,0.42799 -2.19623,0.77964 -4.29199,0.77964 -2.09577,0 -4.02676,0.35164 -4.292,0.77963 -0.26523,0.43 -1.66977,0.78164 -3.12053,0.78164 -1.45076,0 -2.85731,0.35163 -3.12255,0.77963 -0.26523,0.43 -1.66978,0.78164 -3.12053,0.78164 -1.45076,0 -2.8553,0.34963 -3.12054,0.77963 -0.26523,0.42799 -1.32015,0.77963 -2.3409,0.77963 -1.02276,0 -2.07567,0.35165 -2.34091,0.78165 -0.26523,0.42799 -1.32014,0.77963 -2.3409,0.77963 -1.02276,0 -2.07768,0.35163 -2.34291,0.77963 -0.26524,0.43 -1.31814,0.78164 -2.3409,0.78164 -1.02076,0 -2.07568,0.34962 -2.34091,0.77963 -0.26524,0.43 -1.15337,0.77963 -1.97319,0.77963 -0.81982,0 -2.74076,0.70328 -4.26788,1.56128 -1.52912,0.85799 -3.25919,1.56127 -3.84792,1.56127 -0.58674,0 -3.0683,1.05291 -5.51771,2.3409 -2.44739,1.288 -4.87269,2.34091 -5.39111,2.34091 -1.19959,0 -11.04545,4.939 -12.79359,6.41588 -0.72739,0.61688 -3.33554,2.07969 -5.79499,3.25315 -2.45946,1.17548 -4.67579,2.46549 -4.92495,2.86736 -0.24715,0.40388 -1.95309,1.4166 -3.78764,2.25249 -1.83656,0.8359 -3.78965,2.06361 -4.34022,2.72871 -0.55257,0.6651 -1.42262,1.20963 -1.933,1.20963 -0.51038,0 -1.93903,1.05291 -3.17077,2.34091 -1.23375,1.28801 -2.65034,2.3409 -3.14665,2.3409 -0.49833,0 -1.53917,0.70328 -2.31679,1.56127 -0.77763,0.858 -1.81245,1.56128 -2.30274,1.56128 -0.49028,0 -2.26253,1.40455 -3.94035,3.12053 -1.67581,1.716 -3.42596,3.12054 -3.88811,3.12054 -0.46417,0 -2.92763,2.10782 -5.4755,4.68382 -2.54787,2.57398 -5.00532,4.68181 -5.45943,4.68181 -1.69792,0 -22.24161,-20.8873 -22.24161,-22.61535 0,-1.81043 1.67179,-3.91624 3.10849,-3.91624 0.48425,0 2.94772,-2.10782 5.4755,-4.68181 2.52576,-2.576 4.99929,-4.68181 5.4956,-4.68181 0.4943,0 1.88478,-1.05491 3.08637,-2.34089 1.20361,-1.28801 2.60816,-2.34292 3.12255,-2.34292 0.5144,0 1.91894,-1.05291 3.12053,-2.3409 1.20361,-1.286 2.67045,-2.34091 3.2632,-2.34091 0.59075,0 1.58137,-0.70126 2.20025,-1.55926 0.61688,-0.858 1.67179,-1.56127 2.34091,-1.56127 0.66911,0 1.72202,-0.70328 2.3409,-1.56128 0.61889,-0.858 1.69389,-1.55926 2.39114,-1.55926 0.69725,0 1.90287,-0.70327 2.68049,-1.56127 0.77762,-0.858 1.84258,-1.56128 2.36702,-1.56128 0.52444,0 1.38445,-0.51841 1.90889,-1.15136 0.52646,-0.63496 2.9397,-2.09777 5.36298,-3.25316 2.42329,-1.15537 5.16004,-2.7709 6.08234,-3.59072 1.89482,-1.68585 21.19271,-11.51363 22.6073,-11.51363 0.50636,0 2.92161,-1.0529 5.37102,-2.34091 2.4474,-1.28598 5.09574,-2.3409 5.88542,-2.3409 0.78967,0 1.65168,-0.34962 1.91692,-0.77963 0.26523,-0.43 1.15337,-0.77963 1.9732,-0.77963 0.81981,0 2.74076,-0.70328 4.26989,-1.56128 1.52711,-0.85798 3.45006,-1.56127 4.26989,-1.56127 0.81981,0 1.70795,-0.34962 1.97319,-0.77963 0.26523,-0.43 1.66977,-0.77963 3.12053,-0.77963 1.45076,0 2.8553,-0.35163 3.12054,-0.78163 0.26523,-0.428 1.32015,-0.77964 2.3409,-0.77964 1.02276,0 2.07768,-0.35164 2.34291,-0.77963 0.26524,-0.43 1.66978,-0.78164 3.12053,-0.78164 1.45076,0 2.85531,-0.35164 3.12054,-0.77964 0.26524,-0.43 1.66978,-0.78163 3.12255,-0.78163 1.45075,0 2.8553,-0.34963 3.12053,-0.77963 0.26524,-0.428 1.66978,-0.77963 3.12255,-0.77963 1.45075,0 2.8553,-0.35165 3.12053,-0.78164 0.26524,-0.428 2.02141,-0.77964 3.90218,-0.77964 1.88076,0 3.63494,-0.35164 3.90017,-0.77963 0.26524,-0.43001 2.72469,-0.78164 5.46345,-0.78164 2.73875,0 5.1962,-0.34963 5.46144,-0.77963 0.26523,-0.43001 3.27123,-0.77963 6.6791,-0.77963 3.7555,0 6.19688,-0.31949 6.19688,-0.80978 0,-0.5164 2.73473,-0.72739 7.60742,-0.58472 l 7.60945,0.22304 0.21099,16.19141 m 37.63531,-15.80159 c 0,0.45612 2.58604,0.78164 6.19686,0.78164 3.40787,0 6.41388,0.34962 6.67911,0.77963 0.26524,0.43 2.72268,0.77963 5.46144,0.77963 2.73875,0 5.19621,0.35163 5.46144,0.78164 0.26725,0.42799 2.02142,0.77963 3.90217,0.77963 1.88077,0 3.63694,0.35164 3.90218,0.77964 0.26524,0.42999 1.66978,0.78164 3.12054,0.78164 1.45276,0 2.8573,0.35163 3.12254,0.77963 0.26523,0.43 1.66978,0.77963 3.12054,0.77963 1.45277,0 2.85731,0.35163 3.12255,0.78163 0.26523,0.428 1.66977,0.77964 3.12053,0.77964 1.45076,0 2.8553,0.35164 3.12054,0.78164 0.26523,0.42799 1.32014,0.77963 2.3409,0.77963 1.02276,0 2.07566,0.35164 2.3409,0.77964 0.26523,0.43 1.67178,0.78163 3.12255,0.78163 1.45076,0 2.8553,0.34963 3.12054,0.77963 0.26523,0.43001 1.15336,0.77963 1.97318,0.77963 0.81982,0 2.74278,0.70329 4.26989,1.56127 1.52912,0.858 3.45007,1.56128 4.26989,1.56128 0.81982,0 1.70796,0.34963 1.97319,0.77963 0.26524,0.43001 1.15338,0.77963 1.97319,0.77963 0.81982,0 2.74077,0.70327 4.26989,1.56127 1.52712,0.858 3.20493,1.56128 3.72535,1.56128 1.57937,0 26.85108,12.93023 29.2382,14.95968 0.7535,0.64099 2.63829,1.74413 4.18951,2.45141 1.54922,0.70931 3.26119,1.82048 3.80172,2.47353 0.54051,0.65103 1.41257,1.18351 1.93702,1.18351 0.52443,0 1.5894,0.70328 2.36702,1.56128 0.77763,0.858 1.83052,1.56127 2.3409,1.56127 0.51038,0 1.56329,0.70126 2.34091,1.55926 0.77763,0.858 1.83052,1.56128 2.3409,1.56128 0.51038,0 1.5653,0.70327 2.3409,1.56127 0.77762,0.858 1.98324,1.55926 2.68049,1.55926 0.69726,0 1.77427,0.70328 2.39114,1.56127 0.61888,0.858 1.60146,1.56128 2.18418,1.56128 0.58271,0 2.40921,1.40454 4.0589,3.12053 1.64969,1.718 3.40185,3.12254 3.89213,3.12254 0.49029,0 2.60212,1.75418 4.69186,3.90018 2.08973,2.14599 4.1855,3.90216 4.65769,3.90216 0.4702,0 2.03749,1.18151 3.48223,2.62624 l 2.62622,2.62423 -11.44129,11.4212 c -13.38836,13.36826 -11.64826,12.80564 -18.44391,5.95775 -2.97988,-3.004 -5.80303,-5.46144 -6.2692,-5.46144 -0.46818,0 -1.86068,-1.05291 -3.09442,-2.34091 -1.23375,-1.288 -2.63829,-2.3409 -3.12054,-2.3409 -0.48425,0 -1.88879,-1.05492 -3.12253,-2.34091 -1.23175,-1.28799 -2.64834,-2.3409 -3.14465,-2.3409 -0.49832,0 -1.53917,-0.70328 -2.31679,-1.56127 -0.77763,-0.858 -1.84259,-1.56128 -2.36703,-1.56128 -0.52445,0 -1.40454,-0.54453 -1.95712,-1.20963 -0.55257,-0.6651 -2.50366,-1.89281 -4.34022,-2.72871 -1.83455,-0.83589 -3.54049,-1.84861 -3.78965,-2.25249 -0.24715,-0.40187 -2.46348,-1.69188 -4.92293,-2.86736 -2.45946,-1.17346 -5.0676,-2.63627 -5.79499,-3.25315 -1.74815,-1.47688 -11.59401,-6.41588 -12.79359,-6.41588 -0.51843,0 -2.94372,-1.05291 -5.39112,-2.34091 -2.44941,-1.28799 -4.93097,-2.3409 -5.51971,-2.3409 -0.58673,0 -2.3168,-0.70328 -3.84592,-1.56127 -1.52711,-0.858 -3.44805,-1.56128 -4.26788,-1.56128 -0.82182,0 -1.70795,-0.34963 -1.97319,-0.77963 -0.26523,-0.43001 -1.32015,-0.77963 -2.34291,-0.77963 -1.02075,0 -2.07567,-0.35164 -2.3409,-0.78164 -0.26524,-0.428 -1.31815,-0.77963 -2.3409,-0.77963 -1.02076,0 -2.07568,-0.35164 -2.34091,-0.77963 -0.26524,-0.43 -1.31814,-0.78165 -2.3409,-0.78165 -1.02076,0 -2.07568,-0.35164 -2.34091,-0.77963 -0.26524,-0.43 -1.86468,-0.77963 -3.55657,-0.77963 -1.69188,0 -3.07632,-0.35164 -3.07632,-0.78164 0,-0.428 -1.40454,-0.77963 -3.12054,-0.77963 -1.71801,0 -3.12255,-0.35164 -3.12255,-0.78164 0,-0.42799 -1.73407,-0.77963 -3.85394,-0.77963 -2.12189,0 -4.07298,-0.35165 -4.33822,-0.77964 -0.26523,-0.43 -1.9993,-0.78164 -3.85193,-0.78164 -2.04353,0 -3.75349,-0.46014 -4.34224,-1.16944 -0.70126,-0.84595 -2.55791,-1.17146 -6.68111,-1.17146 -3.14264,0 -5.92963,-0.34963 -6.19486,-0.77963 -0.27126,-0.44005 -4.03882,-0.77963 -8.62819,-0.77963 h -8.14795 v -15.86792 c 0,-8.72664 0.23308,-16.101 0.52042,-16.38632 0.85197,-0.85399 15.08628,-0.60884 15.08628,0.25921 M 256.76704,266.87029 c 13.05883,13.33009 12.52433,11.88335 6.56256,17.78283 -2.57398,2.54787 -4.6818,5.01335 -4.6818,5.47551 0,0.46215 -1.40455,2.2123 -3.12053,3.88811 -1.716,1.67781 -3.12255,3.45006 -3.12255,3.94035 0,0.49029 -0.70127,1.52711 -1.55926,2.30273 -0.858,0.77762 -1.56127,1.82048 -1.56127,2.31679 0,0.49631 -1.05291,1.91291 -2.34091,3.14665 -1.288,1.23376 -2.3409,2.6604 -2.3409,3.17078 0,0.51038 -0.54454,1.38042 -1.20964,1.933 -0.6651,0.55257 -1.89282,2.50567 -2.72871,4.34022 -0.8359,1.83455 -1.85263,3.5425 -2.26053,3.79367 -0.40589,0.25117 -2.1681,3.39381 -3.91222,6.98252 -1.74614,3.58872 -3.69521,6.95841 -4.33419,7.48888 -0.63898,0.53047 -1.16141,1.56731 -1.16141,2.30273 0,0.73744 -1.75618,4.79032 -3.90218,9.00395 -2.146,4.21563 -3.90218,8.12383 -3.90218,8.68444 0,0.56262 -0.70126,2.2726 -1.55926,3.80172 -0.858,1.52711 -1.56127,3.45006 -1.56127,4.26988 0,0.81982 -0.35164,1.70796 -0.77963,1.97319 -0.43,0.26524 -0.78165,1.31815 -0.78165,2.34091 0,1.02075 -0.34962,2.07567 -0.77963,2.3409 -0.43,0.26524 -0.77963,1.31815 -0.77963,2.3409 0,1.02076 -0.35163,2.07568 -0.78164,2.34091 -0.42799,0.26524 -0.77963,1.8667 -0.77963,3.55657 0,1.69188 -0.35163,3.07633 -0.77963,3.07633 -0.43,0 -0.78164,1.0529 -0.78164,2.3409 0,1.288 -0.34963,2.3409 -0.77964,2.3409 -0.43,0 -0.77963,1.40454 -0.77963,3.12054 0,1.71801 -0.35163,3.12255 -0.78164,3.12255 -0.42799,0 -0.77963,1.73407 -0.77963,3.85394 0,2.12189 -0.35163,4.07298 -0.77963,4.33822 -0.43,0.26523 -0.78164,2.37305 -0.78164,4.6818 0,2.31077 -0.35164,4.41657 -0.77963,4.68382 -0.43,0.26523 -0.77964,2.70058 -0.77964,5.4112 0,3.43199 -0.35766,5.22635 -1.17145,5.9035 -0.9022,0.74949 -1.17145,2.82316 -1.17145,9.08432 v 8.11379 l -16.19142,-0.21098 -16.19143,-0.21098 -0.22504,-6.82781 c -0.14468,-4.34624 0.0683,-6.8278 0.58472,-6.8278 0.50033,0 0.80977,-2.67245 0.80977,-6.9765 0,-3.83788 0.35164,-7.19351 0.78164,-7.45874 0.42799,-0.26725 0.77963,-2.37305 0.77963,-4.68382 0,-2.30875 0.35165,-4.41657 0.78165,-4.6818 0.42798,-0.26524 0.77963,-2.01941 0.77963,-3.90017 0,-1.88077 0.35164,-3.63695 0.77963,-3.90218 0.43,-0.26524 0.78164,-2.02142 0.78164,-3.90218 0,-1.88075 0.34963,-3.63693 0.77963,-3.90217 0.43,-0.26523 0.77963,-1.66978 0.77963,-3.12054 0,-1.45076 0.35163,-2.85529 0.78164,-3.12053 0.42799,-0.26523 0.77964,-1.67179 0.77964,-3.12255 0,-1.45076 0.35163,-2.8553 0.77963,-3.12054 0.43,-0.26523 0.78164,-1.32014 0.78164,-2.3409 0,-1.02276 0.34963,-2.07566 0.77963,-2.3409 0.43,-0.26523 0.77963,-1.32015 0.77963,-2.34091 0,-1.02276 0.35163,-2.07566 0.78164,-2.3409 0.42799,-0.26523 0.77963,-1.32015 0.77963,-2.34291 0,-1.02076 0.35164,-2.07567 0.77964,-2.3409 0.43,-0.26524 0.78164,-1.31815 0.78164,-2.34091 0,-1.02075 0.35163,-2.07567 0.77963,-2.3409 0.43,-0.26524 0.77963,-1.15338 0.77963,-1.97319 0,-0.81983 0.70327,-2.74077 1.56127,-4.26788 0.858,-1.52913 1.56128,-3.25919 1.56128,-3.84793 0,-0.58673 1.05289,-3.0703 2.3409,-5.5177 1.288,-2.4474 2.3409,-4.85059 2.3409,-5.33887 0,-0.49028 1.61352,-4.05489 3.58671,-7.92089 4.63157,-9.0783 5.29064,-10.25176 6.68714,-11.89943 0.64099,-0.75552 2.10984,-3.35363 3.26522,-5.77691 1.15738,-2.42329 2.62221,-4.83653 3.25516,-5.36298 0.63496,-0.52646 1.15337,-1.38646 1.15337,-1.91091 0,-0.52443 0.70327,-1.5894 1.56127,-2.36702 0.858,-0.77562 1.55926,-1.83052 1.55926,-2.3409 0,-0.51038 0.70328,-1.56329 1.56128,-2.34091 0.858,-0.77763 1.56127,-1.98323 1.56127,-2.68049 0,-0.69725 0.70126,-1.77225 1.55926,-2.39113 0.86001,-0.61888 1.56128,-1.6095 1.56128,-2.20025 0,-0.59276 1.0529,-2.05959 2.3409,-3.2632 1.288,-1.2016 2.3409,-2.60615 2.3409,-3.12054 0,-0.5144 1.05492,-1.91894 2.34091,-3.12053 1.288,-1.20361 2.3409,-2.59208 2.3409,-3.08839 0,-0.4943 2.10783,-2.96782 4.68181,-5.4956 2.576,-2.52778 4.68382,-4.97919 4.68382,-5.44737 0,-0.74547 3.06628,-4.52106 3.77558,-4.64966 0.14468,-0.0261 5.32481,5.11784 11.50962,11.43125 m 404.95027,-8.77487 c 1.48693,1.48893 2.7046,3.09239 2.7046,3.56259 0,0.47219 1.75618,2.56796 3.90217,4.65769 2.146,2.08974 3.90218,4.20962 3.90218,4.70794 0,0.50033 1.05291,1.89281 2.34091,3.09642 1.28598,1.20159 2.3409,2.60613 2.3409,3.12053 0,0.51439 1.05291,1.91894 2.3409,3.12054 1.28599,1.20361 2.34091,2.69455 2.34091,3.31343 0,0.6209 0.70126,1.76222 1.55926,2.53984 0.86001,0.77762 1.56127,1.83052 1.56127,2.3409 0,0.51038 0.70328,1.56327 1.56128,2.3409 0.858,0.77762 1.56127,1.83053 1.56127,2.34091 0,0.51038 0.70126,1.56528 1.55926,2.3409 0.858,0.77762 1.56128,1.84259 1.56128,2.36702 0,0.52445 0.54452,1.40455 1.20963,1.95713 0.6651,0.55257 1.89281,2.50566 2.72871,4.34021 0.83589,1.83455 1.84861,3.53849 2.24847,3.78765 0.40188,0.24715 2.53582,4.04282 4.74611,8.43528 2.20829,4.39247 5.00934,9.74138 6.22499,11.88737 1.21567,2.146 2.24045,4.48087 2.27862,5.18817 0.0402,0.7073 1.12524,3.28933 2.41324,5.73673 1.28599,2.44739 2.3409,5.09573 2.3409,5.88541 0,0.78968 0.34963,1.65169 0.77963,1.91693 0.43001,0.26523 0.77963,1.15337 0.77963,1.97319 0,0.81982 0.70329,2.74077 1.56128,4.26989 0.858,1.52913 1.56127,3.45007 1.56127,4.26989 0,0.81982 0.35164,1.70795 0.77963,1.97318 0.43001,0.26524 0.78164,1.66978 0.78164,3.12054 0,1.45277 0.34963,2.85732 0.77963,3.12255 0.428,0.26524 0.77964,1.31814 0.77964,2.3409 0,1.02076 0.35164,2.07567 0.78164,2.3409 0.428,0.26524 0.77963,1.66978 0.77963,3.12054 0,1.45076 0.35164,2.85732 0.77963,3.12255 0.43001,0.26524 0.78164,1.66977 0.78164,3.12053 0,1.45076 0.34963,2.85531 0.77963,3.12054 0.43,0.26524 0.77963,1.66978 0.77963,3.12254 0,1.45076 0.35165,2.8553 0.78165,3.12054 0.42799,0.26524 0.77963,2.02141 0.77963,3.90218 0,1.88075 0.35164,3.63693 0.77963,3.90217 0.43,0.26523 0.78164,2.72269 0.78164,5.46144 0,2.73876 0.34963,5.1962 0.77963,5.46345 0.43,0.26523 0.77963,3.26923 0.77963,6.6771 0,3.7555 0.3195,6.19686 0.80977,6.19686 0.51843,0 0.72739,2.73676 0.58473,7.60945 l -0.22304,7.60744 h -16.38633 -16.38833 l -0.22305,-8.18413 c -0.12457,-4.50096 -0.56262,-8.52169 -0.97655,-8.93361 -0.41192,-0.41393 -0.75149,-3.29535 -0.75149,-6.40181 0,-3.10848 -0.34963,-5.86734 -0.77963,-6.13257 -0.43001,-0.26524 -0.77963,-2.02142 -0.77963,-3.90218 0,-1.88076 -0.35164,-3.63694 -0.78164,-3.90217 -0.428,-0.26524 -0.77964,-2.01941 -0.77964,-3.90017 0,-1.88077 -0.35164,-3.63695 -0.77963,-3.90218 -0.43001,-0.26524 -0.78164,-1.8667 -0.78164,-3.55858 0,-1.68987 -0.34963,-3.07432 -0.77963,-3.07432 -0.43001,0 -0.77963,-1.40453 -0.77963,-3.12254 0,-1.71599 -0.35164,-3.12054 -0.78164,-3.12054 -0.428,0 -0.77963,-1.0529 -0.77963,-2.3409 0,-1.288 -0.35165,-2.34091 -0.77964,-2.34091 -0.43001,0 -0.78164,-1.0529 -0.78164,-2.3409 0,-1.288 -0.35164,-2.3409 -0.77963,-2.3409 -0.43001,0 -0.77963,-1.03281 -0.77963,-2.29469 0,-1.26187 -0.35164,-2.5117 -0.78164,-2.77694 -0.428,-0.26523 -0.77963,-1.15337 -0.77963,-1.97319 0,-0.81982 -0.70328,-2.74277 -1.56128,-4.26988 -0.85799,-1.52912 -1.56127,-3.25919 -1.56127,-3.84592 0,-0.58874 -1.05291,-3.0703 -2.3409,-5.5177 -1.28599,-2.44941 -2.34091,-4.87069 -2.34091,-5.38107 0,-1.19958 -6.51434,-14.19813 -7.98318,-15.9302 -0.61486,-0.72538 -1.71399,-2.62021 -2.44138,-4.21162 -0.72739,-1.59141 -1.66374,-3.10647 -2.08371,-3.36367 -0.41794,-0.25921 -1.44472,-1.97318 -2.28061,-3.80773 -0.8359,-1.83455 -2.06362,-3.78765 -2.72871,-4.34022 -0.6651,-0.55258 -1.20964,-1.43267 -1.20964,-1.95712 0,-0.52444 -0.70328,-1.5894 -1.56128,-2.36703 -0.85798,-0.77762 -1.55926,-1.81847 -1.55926,-2.31679 0,-0.49631 -1.05491,-1.91089 -2.3429,-3.14465 -1.286,-1.23374 -2.34091,-2.63828 -2.34091,-3.12253 0,-0.48225 -1.0529,-1.88679 -2.3409,-3.12054 -1.286,-1.23374 -2.34091,-2.62624 -2.34091,-3.09442 0,-0.46617 -2.45745,-3.28932 -5.46144,-6.2692 -6.92827,-6.87603 -7.33417,-5.53378 5.65635,-18.67298 13.08092,-13.22962 10.98115,-11.95167 14.26846,-8.66636 m -256.55504,100.10429 0.20094,48.57627 h 46.80803 46.80803 l 0.20094,-48.57627 0.20093,-48.57628 42.33319,-0.20093 42.33319,-0.20093 v 138.12539 138.12538 h -42.5281 -42.52809 V 529.67845 473.88456 H 452.17726 405.3612 l -0.20095,55.59898 -0.19892,55.59899 -42.33318,0.20094 -42.3332,0.20294 V 447.35298 309.22157 l 42.3332,0.20093 42.33318,0.20093 0.20094,48.57628 M 203.24373,466.37559 c 0,6.2471 0.26925,8.32076 1.17145,9.07025 0.81379,0.67514 1.17145,2.47151 1.17145,5.90149 0,2.71263 0.34964,5.14798 0.77964,5.41321 0.42799,0.26524 0.77963,2.56796 0.77963,5.11784 0,2.56998 0.34762,4.6356 0.78164,4.6356 0.428,0 0.77963,1.40453 0.77963,3.12254 0,1.716 0.35164,3.12054 0.77963,3.12054 0.43001,0 0.78164,1.73407 0.78164,3.85596 0,2.11987 0.34963,4.07297 0.77963,4.33821 0.43001,0.26523 0.77964,1.31813 0.77964,2.3409 0,1.02076 0.35164,2.07567 0.78164,2.34091 0.428,0.26523 0.77963,1.66978 0.77963,3.12053 0,1.45076 0.35164,2.85731 0.77963,3.12255 0.43001,0.26523 0.78164,1.31813 0.78164,2.34089 0,1.02076 0.34963,2.07568 0.77963,2.34091 0.43001,0.26524 0.77963,1.15337 0.77963,1.97319 0,0.81982 0.70328,2.74077 1.56128,4.26789 0.858,1.52911 1.56127,3.45006 1.56127,4.26988 0,0.81982 0.35164,1.70796 0.77963,1.97319 0.43001,0.26524 0.77963,1.07501 0.77963,1.79838 0,1.70394 16.17334,34.11893 17.62611,35.32254 0.60683,0.50434 1.10314,1.34626 1.10314,1.87071 0,0.52444 0.70126,1.5894 1.56127,2.36703 0.858,0.77561 1.55926,1.83052 1.55926,2.34089 0,0.51038 0.70328,1.56329 1.56128,2.34091 0.858,0.77562 1.56127,1.83053 1.56127,2.3409 0,0.51038 0.70126,1.56329 1.55926,2.34091 0.86,0.77763 1.56128,1.81847 1.56128,2.3168 0,0.49631 1.05289,1.91089 2.3409,3.14464 1.288,1.23375 2.3409,2.63829 2.3409,3.12254 0,0.48225 1.0529,1.88679 2.34091,3.12054 1.288,1.23374 2.3409,2.62825 2.3409,3.09642 0,0.47019 2.10782,2.93969 4.6818,5.48756 6.04416,5.98187 6.45407,4.87471 -6.657,17.98578 -11.35489,11.35489 -13.6315,12.71925 -13.6315,8.16805 0,-0.48426 -2.10581,-2.94774 -4.6818,-5.4755 -2.574,-2.52778 -4.68181,-4.99326 -4.68181,-5.47953 0,-0.48627 -1.40454,-2.2344 -3.12054,-3.88409 -1.71801,-1.64969 -3.12255,-3.41189 -3.12255,-3.91826 0,-0.50434 -1.0529,-1.90085 -2.3409,-3.10445 -1.288,-1.20361 -2.3409,-2.67045 -2.3409,-3.2632 0,-0.59075 -0.70127,-1.58137 -1.56128,-2.19824 -0.858,-0.61889 -1.55926,-1.6738 -1.55926,-2.34292 0,-0.6671 -0.70327,-1.72202 -1.56127,-2.3409 -0.858,-0.61688 -1.56128,-1.67178 -1.56128,-2.34091 0,-0.66911 -0.70126,-1.72202 -1.55926,-2.3409 -0.858,-0.61889 -1.56127,-1.51908 -1.56127,-2.00333 0,-1.17146 -2.26254,-5.65836 -3.12054,-6.18883 -0.37574,-0.23107 -1.64164,-2.43333 -2.8131,-4.89279 -1.17347,-2.45945 -2.80506,-5.22634 -3.62489,-6.15065 -1.70594,-1.91693 -8.38907,-14.9436 -8.38907,-16.35016 0,-0.51238 -1.0529,-2.93366 -2.3409,-5.38106 -1.28801,-2.4474 -2.3409,-4.93097 -2.3409,-5.51771 0,-0.58673 -0.70328,-2.3188 -1.56128,-3.84591 -0.858,-1.52912 -1.56127,-3.45006 -1.56127,-4.26989 0,-0.81982 -0.34963,-1.70795 -0.77963,-1.97319 -0.428,-0.26523 -0.77963,-1.31814 -0.77963,-2.34091 0,-1.02275 -0.35164,-2.07566 -0.78164,-2.3409 -0.428,-0.26523 -0.77964,-1.31814 -0.77964,-2.34091 0,-1.02275 -0.35164,-2.07566 -0.77963,-2.3409 -0.43001,-0.26523 -0.78164,-1.32015 -0.78164,-2.3409 0,-1.02276 -0.34963,-2.07567 -0.77963,-2.34091 -0.43,-0.26523 -0.77963,-1.32015 -0.77963,-2.3409 0,-1.02276 -0.35164,-2.07567 -0.78164,-2.34091 -0.428,-0.26523 -0.77963,-1.66977 -0.77963,-3.12253 0,-1.45076 -0.35165,-2.85531 -0.77964,-3.12054 -0.43001,-0.26524 -0.78164,-1.66978 -0.78164,-3.12255 0,-1.45075 -0.34963,-2.8553 -0.77963,-3.12053 -0.43,-0.26524 -0.77963,-2.02142 -0.77963,-3.90218 0,-1.88077 -0.35164,-3.63493 -0.78164,-3.90218 -0.42799,-0.26524 -0.77963,-2.01941 -0.77963,-3.90016 0,-1.88076 -0.35165,-3.63694 -0.77963,-3.90218 -0.43,-0.26523 -0.78165,-2.37305 -0.78165,-4.68181 0,-2.31077 -0.35164,-4.41657 -0.77963,-4.68181 -0.43,-0.26523 -0.78164,-3.62287 -0.78164,-7.45873 0,-4.13125 -0.31748,-6.97851 -0.77963,-6.97851 -0.86603,0 -1.10917,-12.67505 -0.25921,-13.525 0.28534,-0.28533 7.65968,-0.52043 16.38633,-0.52043 h 15.86591 v 8.09772 m 530.4609,-0.0985 c 0.14266,4.8727 -0.0663,7.60743 -0.58473,7.60743 -0.49027,0 -0.80977,2.44138 -0.80977,6.19687 0,3.40788 -0.34963,6.41387 -0.77963,6.67911 -0.43,0.26523 -0.77963,2.72269 -0.77963,5.46144 0,2.73876 -0.35164,5.19821 -0.78164,5.46345 -0.42799,0.26523 -0.77963,2.0194 -0.77963,3.90017 0,1.88076 -0.35164,3.63694 -0.77963,3.90218 -0.43,0.26523 -0.78165,1.66978 -0.78165,3.12254 0,1.45076 -0.34963,2.8553 -0.77963,3.12054 -0.43,0.26523 -0.77963,1.66977 -0.77963,3.12053 0,1.45276 -0.35163,2.85731 -0.78164,3.12254 -0.42799,0.26524 -0.77963,1.66978 -0.77963,3.12054 0,1.45276 -0.35163,2.85731 -0.77963,3.12254 -0.43,0.26524 -0.78164,1.31815 -0.78164,2.34091 0,1.02075 -0.35164,2.07567 -0.77964,2.3409 -0.43,0.26524 -0.77963,1.31815 -0.77963,2.34091 0,1.02075 -0.35163,2.07567 -0.78164,2.3409 -0.42799,0.26524 -0.77963,1.31815 -0.77963,2.3409 0,1.02277 -0.35163,2.07568 -0.78164,2.34091 -0.42799,0.26524 -0.77963,1.31814 -0.77963,2.3409 0,1.02277 -0.35164,2.07567 -0.77963,2.34091 -0.43,0.26524 -0.78165,1.31813 -0.78165,2.3409 0,1.02277 -0.34962,2.07567 -0.77963,2.34091 -0.43,0.26523 -0.77963,1.12926 -0.77963,1.91692 0,0.78968 -1.05491,3.43802 -2.3409,5.88743 -1.288,2.4474 -2.37306,5.02742 -2.41324,5.73672 -0.0381,0.70729 -1.06496,3.04016 -2.28263,5.18616 -1.21768,2.146 -3.66306,6.78962 -5.43331,10.32007 -1.77225,3.53044 -3.5425,6.61682 -3.93433,6.85794 -0.39183,0.24314 -1.78833,2.69657 -3.10446,5.4534 -1.31613,2.75484 -2.72268,5.21429 -3.12656,5.46346 -0.40388,0.25117 -1.31011,1.66776 -2.01338,3.15268 -0.70529,1.48291 -1.59141,2.69857 -1.97118,2.69857 -0.38178,0 -0.69122,0.62491 -0.69122,1.38847 0,0.76355 -0.70327,1.89482 -1.56127,2.5117 -0.858,0.61888 -1.56128,1.6738 -1.56128,2.3409 0,0.66912 -0.70126,1.72403 -1.56127,2.34292 -0.858,0.61687 -1.55926,1.60748 -1.55926,2.19824 0,0.59275 -1.05492,2.05959 -2.34091,3.2632 -1.28799,1.2036 -2.3409,2.60814 -2.3409,3.12053 0,0.51439 -1.05492,1.91894 -2.3409,3.12255 -1.288,1.20159 -2.34091,2.59206 -2.34091,3.08637 0,0.49631 -2.10781,2.96984 -4.68382,5.4976 -2.57398,2.52577 -4.68181,4.98121 -4.68181,5.45341 0,0.47221 -0.87004,1.73006 -1.93501,2.79502 l -1.93702,1.93702 -11.32877,-11.32877 c -13.10103,-13.10102 -12.69112,-11.99386 -6.64696,-17.97573 2.57399,-2.54787 4.68181,-5.01134 4.68181,-5.4755 0,-0.46215 1.40454,-2.21231 3.12054,-3.88811 1.71598,-1.67581 3.12053,-3.43802 3.12053,-3.91424 0,-0.47622 1.05491,-1.87473 2.34091,-3.10848 1.28799,-1.23374 2.3429,-2.65034 2.3429,-3.14666 0,-0.49631 0.70128,-1.53917 1.55926,-2.31679 0.858,-0.77561 1.56128,-1.84057 1.56128,-2.36502 0,-0.52644 0.54454,-1.40655 1.20964,-1.95912 0.66509,-0.55056 1.89281,-2.50366 2.72871,-4.34021 0.83589,-1.83455 1.8486,-3.53849 2.25249,-3.78765 0.40187,-0.24916 1.69188,-2.46548 2.86735,-4.92494 1.17347,-2.45945 2.63628,-5.0676 3.25316,-5.79499 1.47889,-1.74814 6.41588,-11.594 6.41588,-12.7936 0,-0.51841 1.05492,-2.94371 2.34091,-5.3911 1.28799,-2.4474 2.3409,-4.93097 2.3409,-5.51771 0,-0.58874 0.70328,-2.3188 1.56127,-3.84591 0.858,-1.52913 1.56128,-3.45008 1.56128,-4.26989 0,-0.81982 0.35163,-1.70795 0.77963,-1.97319 0.43,-0.26523 0.78164,-1.32015 0.78164,-2.34091 0,-1.02276 0.34962,-2.07566 0.77963,-2.3409 0.42799,-0.26523 0.77963,-1.32015 0.77963,-2.34091 0,-1.02276 0.35163,-2.07566 0.78164,-2.3409 0.42799,-0.26523 0.77964,-1.32015 0.77964,-2.34292 0,-1.02074 0.35163,-2.07566 0.77963,-2.34089 0.43,-0.26524 0.78164,-1.86469 0.78164,-3.55657 0,-1.69188 0.34962,-3.07633 0.77963,-3.07633 0.43,0 0.77963,-1.40455 0.77963,-3.12053 0,-1.716 0.35163,-3.12054 0.78164,-3.12054 0.42799,0 0.77963,-1.73609 0.77963,-3.85597 0,-2.12188 0.35164,-4.07297 0.77964,-4.3382 0.43,-0.26524 0.78164,-2.02142 0.78164,-3.90218 0,-1.88075 0.34962,-3.63493 0.77963,-3.90016 0.43,-0.26725 0.77963,-3.07633 0.77963,-6.24309 0,-3.16876 0.35163,-5.97784 0.78164,-6.24308 0.43804,-0.27126 0.77963,-3.99661 0.77963,-8.49958 0,-10.00662 -1.69791,-9.12451 17.11774,-8.87937 l 16.04674,0.21099 0.22304,7.60944 M 289.47138,636.19462 c 2.54787,2.57398 5.01737,4.6818 5.48756,4.6818 0.47019,0 1.86268,1.0529 3.09642,2.3409 1.23375,1.28801 2.63829,2.34091 3.12054,2.34091 0.48425,0 1.88879,1.0529 3.12254,2.3409 1.23375,1.28801 2.64833,2.3409 3.14666,2.3409 0.49631,0 1.53917,0.70328 2.31478,1.56128 0.77762,0.858 1.83053,1.55926 2.34091,1.55926 0.51037,0 1.56528,0.70327 2.3409,1.56127 0.77762,0.858 1.84259,1.56128 2.36702,1.56128 0.52445,0 1.39651,0.53248 1.93702,1.18552 0.54052,0.65104 2.25249,1.76221 3.80171,2.47152 1.55123,0.70728 3.40989,1.78631 4.13326,2.39917 2.07165,1.75618 30.49805,15.79357 31.98297,15.79357 0.73544,0 1.55324,0.34962 1.81848,0.77963 0.26523,0.43 1.15337,0.77963 1.97319,0.77963 0.81982,0 2.74077,0.70327 4.26988,1.56127 1.52712,0.858 3.44807,1.56128 4.26789,1.56128 0.82183,0 1.70795,0.34962 1.97319,0.77963 0.26523,0.43 1.32015,0.77963 2.34291,0.77963 1.02076,0 2.07567,0.35163 2.3409,0.78164 0.26524,0.42799 1.64768,0.77963 3.07031,0.77963 1.42463,0 3.02811,0.52645 3.56259,1.17146 0.53248,0.64299 2.13595,1.16945 3.56059,1.16945 1.42463,0 2.80708,0.35163 3.07231,0.78164 0.26524,0.42799 1.66978,0.77963 3.12053,0.77963 1.45076,0 2.85531,0.35163 3.12054,0.77963 0.26524,0.43 1.66978,0.78163 3.12255,0.78163 1.45075,0 2.85529,0.34963 3.12053,0.77964 0.26523,0.42799 2.56796,0.77963 5.11784,0.77963 2.57198,0 4.63559,0.34761 4.63559,0.78164 0,0.44406 2.32684,0.77964 5.41724,0.77964 2.97988,0 5.63424,0.35163 5.89947,0.77963 0.27126,0.44004 4.04484,0.78163 8.64427,0.78163 h 8.16403 l -0.21098,16.19142 -0.21099,16.19143 -6.56055,0.22906 c -3.82985,0.13262 -6.89814,-0.11051 -7.37436,-0.58472 -0.44808,-0.44809 -3.70727,-0.81379 -7.24373,-0.81379 -3.53849,0 -6.64898,-0.35164 -6.91421,-0.78164 -0.26524,-0.42799 -2.37104,-0.77963 -4.68181,-0.77963 -2.30876,0 -4.41658,-0.35165 -4.68181,-0.77963 -0.26524,-0.43 -2.02142,-0.78165 -3.90218,-0.78165 -1.88075,0 -3.63492,-0.35164 -3.90016,-0.77963 -0.26524,-0.43 -2.02141,-0.77963 -3.90218,-0.77963 -1.88076,0 -3.63694,-0.35164 -3.90218,-0.78164 -0.26523,-0.42799 -1.66978,-0.77963 -3.12053,-0.77963 -1.45277,0 -2.85731,-0.35163 -3.12255,-0.78164 -0.26523,-0.42799 -1.66978,-0.77964 -3.12054,-0.77964 -1.45075,0 -2.85529,-0.35163 -3.12053,-0.77963 -0.26523,-0.43 -1.32015,-0.78164 -2.34291,-0.78164 -1.02075,0 -2.07567,-0.34963 -2.3409,-0.77963 -0.26524,-0.43 -1.31815,-0.77963 -2.34091,-0.77963 -1.02075,0 -2.07567,-0.35163 -2.3409,-0.78164 -0.26524,-0.42799 -1.31815,-0.77963 -2.3409,-0.77963 -1.02076,0 -2.07568,-0.35164 -2.34091,-0.77964 -0.26524,-0.43 -1.31815,-0.78164 -2.3409,-0.78164 -1.02277,0 -2.07568,-0.34962 -2.34091,-0.77963 -0.26524,-0.43 -1.15337,-0.77963 -1.97319,-0.77963 -0.81983,0 -2.74077,-0.70327 -4.26989,-1.56127 -1.52711,-0.858 -3.25918,-1.56128 -3.84591,-1.56128 -0.58674,0 -3.07031,-1.05289 -5.51771,-2.3409 -2.4474,-1.288 -4.86868,-2.3409 -5.38106,-2.3409 -1.19557,0 -14.19211,-6.51033 -15.9302,-7.98118 -0.72538,-0.61286 -3.30139,-2.0616 -5.72467,-3.21698 -2.42329,-1.15739 -4.8305,-2.61418 -5.34891,-3.23909 -1.06296,-1.27996 -5.24242,-3.51035 -6.57865,-3.51035 -0.48425,0 -1.38444,-0.70127 -2.00333,-1.56127 -0.61888,-0.858 -1.67179,-1.55926 -2.3409,-1.55926 -0.66913,0 -1.72202,-0.70328 -2.34091,-1.56128 -0.61888,-0.858 -1.67179,-1.56127 -2.3409,-1.56127 -0.66912,0 -1.72403,-0.70126 -2.34091,-1.55926 -0.61888,-0.86001 -1.6095,-1.56128 -2.20025,-1.56128 -0.59275,0 -2.05959,-1.0529 -3.2632,-2.3409 -1.20159,-1.288 -2.60011,-2.3409 -3.10445,-2.3409 -0.50637,0 -2.26857,-1.40454 -3.91826,-3.12255 -1.64969,-1.716 -3.39782,-3.12054 -3.88409,-3.12054 -0.48627,0 -2.95175,-2.10781 -5.47953,-4.68181 -2.52776,-2.57599 -5.14194,-4.6818 -5.80906,-4.6818 -3.438,0 -0.88813,-3.81778 9.50428,-14.23229 12.47209,-12.4942 11.09769,-12.00393 16.98311,-6.05621 m 343.06802,6.7434 11.44331,11.42523 -1.84059,1.84057 c -1.0107,1.01071 -2.22636,1.84057 -2.69857,1.84057 -0.47219,0 -2.92762,2.10581 -5.4554,4.68181 -2.52778,2.57398 -4.99929,4.68181 -5.4956,4.68181 -0.4943,0 -1.88478,1.0529 -3.08638,2.3409 -1.2036,1.288 -2.60814,2.34091 -3.12254,2.34091 -0.51439,0 -1.91894,1.0529 -3.12054,2.3409 -1.20361,1.288 -2.67044,2.3409 -3.2632,2.3409 -0.59075,0 -1.58137,0.70127 -2.20025,1.56128 -0.61888,0.858 -1.69388,1.55926 -2.39113,1.55926 -0.69726,0 -1.90286,0.70327 -2.68049,1.56127 -0.77762,0.858 -1.83053,1.56128 -2.34091,1.56128 -0.51038,0 -1.56327,0.70126 -2.3409,1.55926 -0.77762,0.86 -1.83053,1.56127 -2.34091,1.56127 -0.51038,0 -1.56528,0.70328 -2.34491,1.56328 -0.77762,0.86001 -3.37773,2.50166 -5.77691,3.64699 -2.40118,1.14332 -4.9571,2.58203 -5.68047,3.19488 -1.73005,1.46281 -17.86722,9.54245 -19.05877,9.54245 -0.50837,0 -2.92764,1.0529 -5.37504,2.3409 -2.4474,1.28801 -4.93097,2.3409 -5.5177,2.3409 -0.58874,0 -2.3188,0.70328 -3.84592,1.56128 -1.52912,0.858 -3.45006,1.56127 -4.26989,1.56127 -0.81981,0 -1.70795,0.34963 -1.97319,0.77963 -0.26523,0.43001 -1.32015,0.77963 -2.3409,0.77963 -1.02276,0 -2.07567,0.35164 -2.34091,0.78164 -0.26523,0.428 -1.32014,0.77964 -2.3409,0.77964 -1.02276,0 -2.07567,0.35164 -2.34091,0.77963 -0.26523,0.43001 -1.32014,0.78164 -2.3409,0.78164 -1.02276,0 -2.07768,0.34963 -2.34291,0.77963 -0.26524,0.43 -1.31814,0.77963 -2.3409,0.77963 -1.02076,0 -2.07567,0.35164 -2.3409,0.78164 -0.26524,0.428 -1.66978,0.77963 -3.12054,0.77963 -1.45076,0 -2.8553,0.35165 -3.12053,0.77964 -0.26524,0.43001 -1.66978,0.78164 -3.12255,0.78164 -1.45076,0 -2.85531,0.35164 -3.12054,0.77963 -0.26524,0.43 -2.02142,0.78164 -3.90217,0.78164 -1.88076,0 -3.63694,0.34963 -3.90218,0.77963 -0.26523,0.42799 -2.02141,0.77963 -3.90017,0.77963 -1.88075,0 -3.63694,0.35165 -3.90218,0.78165 -0.26523,0.42798 -2.37305,0.77963 -4.6818,0.77963 -2.31077,0 -4.41657,0.35164 -4.68181,0.77963 -0.26523,0.43 -3.62287,0.78164 -7.46075,0.78164 -4.30405,0 -6.9765,0.30944 -6.9765,0.80977 0,0.5164 -2.48156,0.7294 -6.8278,0.58472 l -6.82781,-0.22504 -0.21098,-16.19143 -0.21098,-16.19142 h 8.16402 c 4.59943,0 8.37301,-0.34159 8.64427,-0.78163 0.26523,-0.428 2.72469,-0.77963 5.46344,-0.77963 2.73877,0 5.19621,-0.35164 5.46144,-0.77964 0.26524,-0.43 2.56797,-0.78164 5.11785,-0.78164 2.57198,0 4.6376,-0.34762 4.6376,-0.77963 0,-0.43001 1.73408,-0.77964 3.85395,-0.77964 2.12189,0 4.07298,-0.35163 4.33821,-0.78163 0.26524,-0.428 1.66978,-0.77963 3.12254,-0.77963 1.45076,0 2.8553,-0.35164 3.12054,-0.77963 0.26523,-0.43001 1.29603,-0.78164 2.29268,-0.78164 0.99464,0 2.24445,-0.52646 2.77894,-1.16945 0.5345,-0.64501 2.13797,-1.17146 3.5626,-1.17146 1.42263,0 2.80506,-0.35164 3.0703,-0.77963 0.26523,-0.43001 1.32015,-0.78164 2.34091,-0.78164 1.02275,0 2.07566,-0.34963 2.3409,-0.77963 0.26523,-0.43001 1.32015,-0.77963 2.3409,-0.77963 1.02276,0 2.07768,-0.35165 2.34291,-0.78165 0.26524,-0.42799 1.15137,-0.77963 1.97319,-0.77963 0.81983,0 2.74077,-0.70327 4.26788,-1.56127 1.52912,-0.858 3.2391,-1.55926 3.80172,-1.55926 0.56061,0 4.46881,-1.75618 8.68444,-3.90218 4.21564,-2.146 8.26651,-3.90218 9.00395,-3.90218 0.73542,0 1.77226,-0.52243 2.30273,-1.16141 0.53047,-0.63898 3.90016,-2.58805 7.48888,-4.33419 3.58871,-1.74412 6.73135,-3.50633 6.98252,-3.91222 0.25117,-0.4079 1.95912,-1.42463 3.79367,-2.26053 1.83656,-0.83589 3.78765,-2.06361 4.34022,-2.72871 0.55258,-0.6651 1.42262,-1.20964 1.933,-1.20964 0.51038,0 1.93702,-1.0529 3.17078,-2.3409 1.23374,-1.288 2.65034,-2.34091 3.14665,-2.34091 0.49832,0 1.53917,-0.70126 2.31679,-1.56127 0.77562,-0.85799 1.81244,-1.55926 2.30273,-1.55926 0.49029,0 2.26254,-1.40454 3.94035,-3.12255 1.67581,-1.71598 3.42596,-3.12053 3.88811,-3.12053 0.46417,0 2.92764,-2.10782 5.47551,-4.6818 5.88743,-5.94972 4.37638,-6.52641 17.6683,6.7434"
     stroke="none"
     fill="#040404"
     fill-rule="evenodd"
     style="fill:#ffffff;stroke:none;stroke-width:1;stroke-miterlimit:4;stroke-dasharray:none;stroke-opacity:1" />
</svg>
