<?xml version="1.0" encoding="UTF-8" standalone="no"?>
<svg
   id="svg"
   width="897.47382"
   height="897.47382"
   viewBox="0 0 897.47382 897.47385"
   version="1.1"
   sodipodi:docname="institution_roed.svg"
   inkscape:version="1.1 (c68e22c387, 2021-05-23)"
   xmlns:inkscape="http://www.inkscape.org/namespaces/inkscape"
   xmlns:sodipodi="http://sodipodi.sourceforge.net/DTD/sodipodi-0.dtd"
   xmlns="http://www.w3.org/2000/svg"
   xmlns:svg="http://www.w3.org/2000/svg">
  <defs
     id="defs7" />
  <sodipodi:namedview
     id="namedview5"
     pagecolor="#ffffff"
     bordercolor="#666666"
     borderopacity="1.0"
     inkscape:pageshadow="2"
     inkscape:pageopacity="0.0"
     inkscape:pagecheckerboard="0"
     showgrid="false"
     fit-margin-top="0"
     fit-margin-left="0"
     fit-margin-right="0"
     fit-margin-bottom="0"
     inkscape:zoom="0.30009657"
     inkscape:cx="603.13918"
     inkscape:cy="734.76348"
     inkscape:window-width="1920"
     inkscape:window-height="1009"
     inkscape:window-x="1912"
     inkscape:window-y="-8"
     inkscape:window-maximized="1"
     inkscape:current-layer="svg" />
  <circle
     style="fill:#782121;fill-opacity:1;stroke:#ffffff;stroke-width:25;stroke-miterlimit:4;stroke-dasharray:none;stroke-opacity:1"
     id="path846"
     cx="448.73691"
     cy="448.73691"
     r="436.23691" />
  <path
     id="path0"
     d="m 549.95192,196.30871 c -0.91499,0.94427 -2.84281,2.77101 -4.28339,4.05847 -1.44058,1.28746 -2.8313,2.60902 -3.0941,2.93728 -0.26087,0.32612 -2.73538,2.72199 -5.49761,5.32462 -10.3181,9.71134 -23.79744,22.55395 -31.8674,30.35969 -1.43866,1.39191 -5.72395,5.45465 -9.5182,9.02501 -3.79615,3.57034 -8.40179,7.96347 -10.23369,9.76463 -1.83382,1.80115 -4.57305,4.38461 -6.08844,5.74027 l -2.75456,2.46621 H 311.55745 c -131.32132,0 -165.21434,0.13428 -165.82243,0.66079 -0.42201,0.36235 -1.12025,2.20828 -1.55184,4.09896 -0.43351,1.89069 -1.21615,5.22231 -1.74174,7.40501 -0.52367,2.18058 -1.15094,5.03687 -1.39263,6.34564 -0.23978,1.31091 -0.63877,2.85628 -0.8843,3.43819 -0.24553,0.58191 -0.55628,1.77345 -0.69057,2.64525 -0.13426,0.87181 -0.9169,4.32493 -1.73981,7.66933 -1.54034,6.26464 -2.07552,8.51555 -6.10186,25.65323 -1.29863,5.52712 -2.82938,11.95376 -3.40292,14.28141 -0.57355,2.32552 -1.35427,5.53989 -1.73408,7.13856 -0.37788,1.60079 -1.24108,5.17115 -1.9163,7.93364 -1.31206,5.36938 -1.73023,7.25154 -2.50519,11.27591 -0.27047,1.40043 -0.60233,2.74971 -0.73852,2.99483 -0.13811,0.24513 -1.09722,4.09684 -2.13497,8.55819 -1.03776,4.46346 -2.21363,9.42359 -2.61453,11.02226 -1.55377,6.21772 -4.6421,19.41843 -5.04685,21.59048 -0.23593,1.25549 -0.57354,2.54508 -0.75385,2.86694 -0.17839,0.32187 -0.47572,1.43666 -0.66179,2.47687 -0.18607,1.04233 -0.91307,4.24392 -1.61515,7.11511 -1.80696,7.38796 -3.66188,6.67817 17.46924,6.67817 13.55606,0 18.39189,0.16413 18.81582,0.63519 0.44119,0.49026 0.57162,27.85726 0.57162,119.9595 0,92.10224 0.13045,119.46924 0.57163,119.95951 0.84785,0.94 597.52551,0.92295 598.04917,-0.0191 0.1995,-0.35811 0.37598,-44.0933 0.39324,-97.18813 0.0173,-53.09484 0.20142,-96.83429 0.40858,-97.19879 0.72701,-1.27893 1.92589,-0.62454 6.06158,3.30605 4.38888,4.17144 5.23674,4.57856 6.24955,2.99269 0.34145,-0.53501 1.736,-2.38094 3.09794,-4.09897 4.09539,-5.16689 10.00734,-12.78932 16.80169,-21.65871 11.17363,-14.59047 14.9717,-19.51649 15.70638,-20.3755 0.89197,-1.04233 3.45663,-4.65532 3.9055,-5.50154 0.41432,-0.78228 -2.03525,-3.42327 -10.80725,-11.65108 -3.66381,-3.43817 -7.84169,-7.38369 -9.28228,-8.76706 -9.06166,-8.71165 -12.05217,-11.57219 -19.04407,-18.21198 -4.28915,-4.07339 -10.00736,-9.48967 -12.7063,-12.03688 -2.70085,-2.54934 -5.30196,-5.04752 -5.78152,-5.55483 -0.47956,-0.50517 -1.78969,-1.74147 -2.91185,-2.74331 -1.12024,-1.00395 -2.27884,-2.08039 -2.57233,-2.3916 -0.29541,-0.31334 -2.77376,-2.70707 -5.51105,-5.31822 -2.7373,-2.61115 -7.34293,-7.01494 -10.2337,-9.78595 l -5.25783,-5.03686 -0.0519,-37.27659 c -0.0614,-42.79304 -0.0269,-42.41363 -4.43492,-51.02723 -9.35901,-18.29512 -34.02156,-23.31278 -47.6908,-9.70495 -0.68672,0.6821 -1.64965,1.6349 -2.14264,2.11449 -5.85441,5.70618 -8.76819,13.56734 -9.18252,24.77929 -0.3894,10.48511 -0.37405,10.47446 -6.286,4.70861 -1.67078,-1.62851 -4.75144,-4.59563 -6.84613,-6.59503 -2.09279,-1.99939 -4.04361,-3.87942 -4.33134,-4.17998 -0.28966,-0.2984 -1.55952,-1.49633 -2.82555,-2.66017 -2.8965,-2.6623 -9.44723,-8.87578 -11.64742,-11.04783 -2.02948,-2.00365 -11.20817,-10.75368 -12.81947,-12.22445 -0.64068,-0.58191 -2.89076,-2.72413 -5.00272,-4.75977 -2.11387,-2.03775 -5.33841,-5.1285 -7.16838,-6.86999 -1.82998,-1.74147 -3.43362,-3.29112 -3.56406,-3.44458 -0.13235,-0.15347 -2.38052,-2.28716 -4.99888,-4.74058 -6.64471,-6.22413 -6.40302,-5.99606 -9.04249,-8.59015 -1.31014,-1.28746 -4.63058,-4.46348 -7.37939,-7.0597 -2.74882,-2.59624 -5.63956,-5.34807 -6.42604,-6.11756 -8.51689,-8.32797 -8.56485,-8.35568 -10.70942,-6.14312 m 3.52953,93.08062 c 0.86511,0.65438 2.64138,2.26157 3.94576,3.57033 1.30441,1.30879 3.41254,3.33164 4.6824,4.49546 1.26986,1.16383 3.71366,3.46591 5.42855,5.11786 4.1472,3.99026 17.08751,16.34688 18.58946,17.75156 0.65412,0.61176 3.00969,2.86268 5.23483,5.00062 2.22514,2.14008 4.64401,4.40379 5.37486,5.02833 1.31973,1.12973 2.58384,2.34045 11.28489,10.80272 2.48792,2.41931 4.8435,4.68727 5.23674,5.03899 1.74174,1.56455 14.54202,13.65045 14.75494,13.93182 0.13045,0.17266 1.84533,1.831 3.80768,3.68758 1.96424,1.85445 4.855,4.62548 6.42603,6.15593 1.57102,1.53046 5.8544,5.58041 9.52013,9.00154 3.66571,3.41901 6.7713,6.35842 6.90175,6.53321 0.35486,0.47534 9.8961,9.60051 11.60713,11.10112 0.81526,0.71621 3.51803,3.29325 6.00404,5.72535 2.48794,2.43424 5.2962,5.17967 6.24381,6.10477 l 1.72255,1.67753 0.25897,7.40501 c 0.49107,13.99577 0.11317,179.50868 -0.41051,180.08846 -0.32992,0.36663 -10.86478,0.50092 -32.11675,0.41139 l -31.62568,-0.13642 -0.12086,-71.27485 -0.12084,-71.27271 -63.89974,0.13216 -63.89973,0.13429 -0.23788,70.61193 c -0.13044,38.83687 -0.4105,70.90822 -0.62343,71.27271 -0.47763,0.82065 -61.99302,0.96132 -63.15738,0.14282 -0.62917,-0.44124 -0.72892,-11.54661 -0.83827,-93.82667 l -0.12276,-93.32575 3.21303,-3.09076 c 1.76667,-1.69885 3.44894,-3.32734 3.7386,-3.61724 0.29157,-0.29202 1.7897,-1.72017 3.33195,-3.17388 1.54033,-1.45372 4.51742,-4.31639 6.61594,-6.36056 2.09854,-2.04415 4.37738,-4.18636 5.0641,-4.75976 1.25451,-1.04658 14.6552,-13.76342 19.21673,-18.23542 1.337,-1.30877 3.34729,-3.21225 4.46945,-4.23112 1.12408,-1.01889 2.38243,-2.20829 2.79676,-2.64527 0.41434,-0.43483 3.03655,-2.93514 5.82564,-5.55269 5.63189,-5.28838 14.69933,-13.94461 15.52607,-14.82494 0.2954,-0.31335 1.45017,-1.38977 2.56658,-2.39374 1.1164,-1.00184 3.01736,-2.81365 4.22392,-4.02437 1.20847,-1.21072 3.81726,-3.71103 5.8007,-5.55483 3.80767,-3.5405 13.17626,-12.47171 14.04136,-13.38828 0.28007,-0.29841 1.54417,-1.49208 2.80637,-2.6559 1.26411,-1.16384 2.53204,-2.35963 2.8217,-2.65592 0.28773,-0.29843 2.77374,-2.67724 5.52255,-5.28838 2.74881,-2.61115 5.10438,-4.87486 5.23482,-5.0326 0.48722,-0.58404 10.16465,-9.8158 11.62442,-11.09047 0.83442,-0.72686 2.02755,-1.85658 2.65289,-2.51096 0.62342,-0.6544 1.21231,-1.19155 1.30823,-1.19155 0.096,0 0.88239,0.53715 1.7475,1.19155 m -238.83176,148.891 c 4.38888,5.74454 8.20231,10.70039 8.4747,11.01373 0.2743,0.31121 1.35425,1.7159 2.4016,3.11847 1.04735,1.40468 2.12539,2.81576 2.39586,3.13551 0.64835,0.76736 11.36354,14.60539 13.72295,17.72173 7.26237,9.59411 5.91196,9.24666 12.34757,3.18879 3.33962,-3.1419 5.17729,-4.55512 5.33457,-4.09897 0.13044,0.38367 0.18416,28.78235 0.11703,63.10886 l -0.12276,62.41399 h -74.9679 -74.96786 l -0.38556,-7.93364 c -0.72316,-14.86971 -0.0306,-160.07958 0.77113,-161.45442 0.30308,-0.52225 10.55787,-0.66078 48.64222,-0.66078 h 48.25857 l 7.97788,10.44673"
     stroke="none"
     fill="#040404"
     fill-rule="evenodd"
     style="fill:#ffffff;stroke-width:0.999999" />
</svg>
