<?xml version="1.0" encoding="UTF-8" standalone="no"?>
<svg
   id="svg"
   width="897.47382"
   height="897.47382"
   viewBox="0 0 897.47382 897.47385"
   version="1.1"
   sodipodi:docname="it_infratruktur.svg"
   inkscape:version="1.1 (c68e22c387, 2021-05-23)"
   xmlns:inkscape="http://www.inkscape.org/namespaces/inkscape"
   xmlns:sodipodi="http://sodipodi.sourceforge.net/DTD/sodipodi-0.dtd"
   xmlns="http://www.w3.org/2000/svg"
   xmlns:svg="http://www.w3.org/2000/svg">
  <defs
     id="defs7" />
  <sodipodi:namedview
     id="namedview5"
     pagecolor="#ffffff"
     bordercolor="#666666"
     borderopacity="1.0"
     inkscape:pageshadow="2"
     inkscape:pageopacity="0.0"
     inkscape:pagecheckerboard="0"
     showgrid="false"
     fit-margin-top="0"
     fit-margin-left="0"
     fit-margin-right="0"
     fit-margin-bottom="0"
     inkscape:zoom="0.30009657"
     inkscape:cx="603.13918"
     inkscape:cy="734.76348"
     inkscape:window-width="1920"
     inkscape:window-height="1009"
     inkscape:window-x="1912"
     inkscape:window-y="-8"
     inkscape:window-maximized="1"
     inkscape:current-layer="svg" />
  <circle
     style="fill:#006680;fill-opacity:1;stroke:#ffffff;stroke-width:25;stroke-miterlimit:4;stroke-dasharray:none;stroke-opacity:1"
     id="path846"
     cx="448.73691"
     cy="448.73691"
     r="436.23691" />
  <path
     id="path0"
     d="m 251.13235,184.6973 c -19.63394,2.61925 -39.40591,9.90142 -55.34846,20.38571 -11.06376,7.27609 -25.44485,27.00729 -29.51175,40.48969 -0.68425,2.27075 -1.70841,5.33079 -2.2754,6.80009 -0.93212,2.41889 -1.03008,5.58822 -1.03008,33.51475 v 30.84329 l 2.47725,7.28582 c 3.92589,11.54436 9.50527,21.24786 17.51737,30.46077 10.55613,12.1406 10.56949,12.87768 0.45122,25.15427 -9.48599,11.51038 -13.42523,18.53754 -18.78345,33.51476 l -1.65052,4.61435 -0.18108,28.92953 c -0.10389,16.82902 0.0563,30.03457 0.38443,31.57188 2.92401,13.70218 9.84072,27.46631 19.38754,38.58568 10.01736,11.66702 10.50122,13.90375 4.54633,21.06692 -8.66369,10.42479 -10.60958,13.00762 -13.72802,18.23641 -4.60867,7.72661 -5.57937,9.88686 -8.20801,18.25461 l -2.21306,7.04296 v 30.35756 c 0,34.12676 -0.42005,30.30049 4.82537,43.95775 4.22126,10.98822 15.69765,27.01095 24.39399,34.05754 11.03407,8.93848 31.82128,17.93525 49.58651,21.45916 l 9.06297,1.79839 h 198.00172 198.00174 l 9.40285,-1.85911 c 39.9447,-7.90025 66.28012,-29.49298 76.52159,-62.74179 l 1.94439,-6.31438 v -30.35756 -30.35756 l -2.00524,-6.80009 c -3.23423,-10.96637 -10.0322,-23.12761 -17.96415,-32.14016 -9.86445,-11.20559 -9.9075,-13.1934 -0.5358,-23.96062 8.7839,-10.09086 15.61007,-22.6516 19.14115,-35.21478 1.34326,-4.78556 1.36404,-5.29678 1.36404,-34.72905 v -29.87184 l -1.94143,-6.76609 c -3.26985,-11.39016 -9.0496,-21.77002 -17.79491,-31.96045 -10.39881,-12.11631 -10.40919,-13.42047 -0.21374,-24.9697 7.93046,-8.98341 14.5785,-20.90785 17.9953,-32.28222 l 1.95478,-6.50867 V 285.88756 255.53 l -1.95478,-6.50866 c -4.50922,-15.01 -15.50321,-31.98231 -26.59368,-41.05558 -9.98469,-8.1674 -32.34226,-18.34446 -45.96194,-20.92122 -2.44903,-0.46264 -5.92223,-1.19608 -7.7182,-1.62716 -3.06355,-0.7383 -395.93222,-1.44259 -401.34684,-0.72008 m 398.3783,42.10351 c 18.49252,5.077 30.9411,16.43559 34.7156,31.67508 1.67871,6.78067 1.05384,53.51917 -0.78369,58.49781 -5.2558,14.24862 -17.1641,23.99705 -34.82248,28.50696 l -5.34336,1.36488 -190.87724,0.13964 c -124.6268,0.0911 -192.44611,-0.0279 -195.39833,-0.34486 -19.80611,-2.12502 -34.81951,-12.31302 -41.6145,-28.24103 l -1.95478,-4.58278 -0.17811,-26.21922 c -0.19445,-28.83968 -0.14101,-29.40555 3.52217,-37.23173 4.39196,-9.38291 16.14589,-18.80953 27.83156,-22.31766 10.02626,-3.01026 -5.13409,-2.8099 206.01086,-2.71761 l 193.84578,0.085 5.04652,1.38552 m -152.14964,39.19647 c -9.94759,0.94716 -10.82331,2.55854 -10.82331,19.90363 0,15.45321 0.43787,17.01967 5.3508,19.12769 2.74144,1.17666 130.56982,1.89433 135.70986,0.76138 7.0384,-1.55067 7.96013,-3.88456 7.96013,-20.14528 0,-16.89702 -0.95289,-18.58855 -11.06671,-19.6632 -5.24839,-0.55737 -121.26196,-0.5428 -127.13077,0.0158 m -239.40102,0.30601 c -19.25545,3.52997 -26.41557,21.64615 -13.22336,33.45525 13.49795,12.0823 38.81664,5.53964 42.04642,-10.86558 2.61677,-13.29419 -12.95472,-25.49792 -28.82306,-22.58967 m 72.87771,0.42015 c -25.40182,5.5955 -23.55242,35.17591 2.44459,39.10781 10.46113,1.58225 22.63364,-3.92947 26.57735,-12.03373 7.50744,-15.42528 -9.57205,-31.35814 -29.02194,-27.07408 m 75.10706,-0.22344 c -17.67618,3.40856 -24.65076,21.85624 -12.47232,32.98775 13.59889,12.4296 38.9903,6.21115 42.46795,-10.40051 2.9077,-13.88919 -12.99775,-25.86585 -29.99563,-22.58724 M 643.31678,388.399 c 20.75308,3.00782 36.6986,15.78836 40.90799,32.78616 0.83714,3.38184 0.944,7.35746 0.78964,29.38612 l -0.17961,25.47607 -2.21156,5.34293 c -6.37198,15.38764 -21.76682,25.88286 -40.96587,27.92653 -3.44203,0.36672 -62.09299,0.48086 -196.08554,0.38128 l -191.17408,-0.14206 -4.45282,-1.12809 c -18.93484,-4.79892 -32.07658,-16.26315 -35.87186,-31.29378 -1.56442,-6.19538 -1.37146,-52.03894 0.24194,-57.54581 4.69624,-16.0203 19.4009,-27.63752 39.19217,-30.95985 5.00942,-0.84151 384.04914,-1.06373 389.8096,-0.2295 m -146.16803,40.27719 c -9.5676,0.89373 -10.61105,2.87911 -10.61105,20.17078 0,15.06828 0.36216,16.47566 4.82241,18.74398 l 2.30209,1.17059 h 67.08905 c 76.83031,0 70.29952,0.39222 73.31555,-4.40306 1.48428,-2.3594 1.49169,-2.43105 1.49169,-15.49815 0,-17.43131 -0.82525,-18.97955 -10.73869,-20.15135 -4.66507,-0.55251 -121.79482,-0.58165 -127.67105,-0.0327 m -240.96988,0.75287 c -1.6327,0.37158 -3.13775,0.68486 -3.34554,0.69579 -3.73889,0.21251 -11.70645,7.57361 -13.58554,12.54982 -7.57721,20.07121 22.86816,35.15527 40.76848,20.19749 17.36596,-14.51091 0.0104,-38.8601 -23.8374,-33.4431 m 74.51039,0.0389 c -22.05329,4.82806 -24.48007,29.41648 -3.6988,37.49037 13.11354,5.09521 29.17186,-0.75773 33.47031,-12.19888 5.73374,-15.26379 -10.92571,-29.41648 -29.77151,-25.29149 m 74.74343,-0.10565 c -25.37361,6.01444 -23.57912,35.31313 2.40452,39.2669 15.71843,2.39096 31.01384,-10.42965 28.03342,-23.49797 -2.56481,-11.2408 -17.30956,-18.88119 -30.43794,-15.76893 m 243.66088,122.8267 c 18.59494,4.77099 31.70254,16.6748 35.2351,31.9993 0.70354,3.05033 0.82823,8.46126 0.67089,29.16026 l -0.19296,25.41535 -1.65199,4.35328 c -5.29143,13.94262 -18.30402,24.24354 -35.42509,28.04188 l -5.04653,1.11959 H 449.13408 255.58516 l -5.02574,-1.0953 c -18.45097,-4.0242 -31.78715,-15.22857 -36.27261,-30.47657 -1.94588,-6.61552 -1.73808,-52.63636 0.26716,-59.0746 5.02427,-16.1296 21.13751,-28.15482 40.92135,-30.5397 1.69356,-0.20401 89.77465,-0.34244 195.73675,-0.30845 l 192.65835,0.0644 5.22315,1.34058 m -152.05762,39.25232 c -9.56019,1.01638 -10.49825,2.81233 -10.49825,20.12222 0,17.74703 0.81042,19.14834 11.66488,20.16957 6.3898,0.60108 118.38396,0.60715 125.35707,0.007 11.16023,-0.96052 11.99884,-2.37032 11.99884,-20.17684 0,-17.68753 -0.84751,-19.15198 -11.6812,-20.17078 -6.01724,-0.56587 -121.46827,-0.52093 -126.84134,0.0486 m -240.18916,0.50428 c -18.82945,3.61741 -25.18807,23.32918 -11.02219,34.17048 16.82718,12.87646 44.45094,0.92529 40.90056,-17.69604 -2.19524,-11.5128 -16.02122,-19.13618 -29.87837,-16.47444 m 73.84247,0.23921 c -21.40021,4.68478 -24.37915,29.31691 -4.50475,37.26817 9.68784,3.87605 20.15639,2.44682 28.00522,-3.82141 17.87804,-14.28019 0.69018,-38.74111 -23.50047,-33.44676 m 74.74343,-0.10563 c -24.50234,5.808 -23.98582,33.78675 0.71839,38.96454 16.21418,3.39883 32.58569,-9.09634 29.73588,-22.6941 -2.44756,-11.67552 -17.01271,-19.45677 -30.45427,-16.27044"
     stroke="none"
     fill="#040404"
     fill-rule="evenodd"
     style="fill:#ffffff;stroke-width:1" />
</svg>
