<?xml version="1.0" encoding="UTF-8" standalone="no"?>
<svg
   id="svg"
   width="897.47382"
   height="897.47382"
   viewBox="0 0 897.47382 897.47385"
   version="1.1"
   sodipodi:docname="lufthavn.svg"
   inkscape:version="1.1 (c68e22c387, 2021-05-23)"
   xmlns:inkscape="http://www.inkscape.org/namespaces/inkscape"
   xmlns:sodipodi="http://sodipodi.sourceforge.net/DTD/sodipodi-0.dtd"
   xmlns="http://www.w3.org/2000/svg"
   xmlns:svg="http://www.w3.org/2000/svg">
  <defs
     id="defs7" />
  <sodipodi:namedview
     id="namedview5"
     pagecolor="#ffffff"
     bordercolor="#666666"
     borderopacity="1.0"
     inkscape:pageshadow="2"
     inkscape:pageopacity="0.0"
     inkscape:pagecheckerboard="0"
     showgrid="false"
     fit-margin-top="0"
     fit-margin-left="0"
     fit-margin-right="0"
     fit-margin-bottom="0"
     inkscape:zoom="0.20683226"
     inkscape:cx="1692.1925"
     inkscape:cy="669.62474"
     inkscape:window-width="1920"
     inkscape:window-height="1017"
     inkscape:window-x="1912"
     inkscape:window-y="-8"
     inkscape:window-maximized="1"
     inkscape:current-layer="svg" />
  <circle
     style="fill:#006680;fill-opacity:1;stroke:#ffffff;stroke-width:25;stroke-miterlimit:4;stroke-dasharray:none;stroke-opacity:1"
     id="path846"
     cx="448.73691"
     cy="448.73691"
     r="436.23691" />
  <path
     d="m 784.87102,451.292 c 0.71496,-20.18007 -21.82367,-22.77516 -45.64841,-33.45113 l 30.87755,-106.42248 h -40.12093 l -64.8985,97.29871 C 639.15949,400.25991 564.35104,398.04515 492.68597,398.04515 l 70.99714,-265.14569 h -77.1912 L 332.43877,399.71159 c -64.326,0 -144.97372,4.19164 -170.77535,7.09985 -23.92016,2.71603 -56.94125,13.46055 -56.94125,44.48056 0,31.02 33.02109,41.74302 56.94125,44.5034 25.80163,2.86117 106.44935,7.05282 170.77535,7.05282 l 154.05046,266.83631 h 77.1912 l -70.99715,-265.1188 c 71.66506,0 146.47352,-2.24163 172.39476,-10.67464 l 64.8985,97.30139 h 40.12093 L 739.21992,484.74313 c 23.82609,-10.67598 46.36606,-13.27106 45.6511,-33.45113 z"
     fill="param(fill)"
     fill-opacity="param(fill-opacity)"
     stroke="param(outline)"
     stroke-opacity="param(outline-opacity)"
     stroke-width="1.34391"
     id="path2"
     style="fill:#ffffff" />
</svg>
