<?xml version="1.0" encoding="UTF-8" standalone="no"?>
<svg
   id="svg"
   width="897.47382"
   height="897.47382"
   viewBox="0 0 897.47382 897.47385"
   version="1.1"
   sodipodi:docname="pakhus_blaa.svg"
   inkscape:version="1.1 (c68e22c387, 2021-05-23)"
   xmlns:inkscape="http://www.inkscape.org/namespaces/inkscape"
   xmlns:sodipodi="http://sodipodi.sourceforge.net/DTD/sodipodi-0.dtd"
   xmlns="http://www.w3.org/2000/svg"
   xmlns:svg="http://www.w3.org/2000/svg">
  <defs
     id="defs7" />
  <sodipodi:namedview
     id="namedview5"
     pagecolor="#ffffff"
     bordercolor="#666666"
     borderopacity="1.0"
     inkscape:pageshadow="2"
     inkscape:pageopacity="0.0"
     inkscape:pagecheckerboard="0"
     showgrid="false"
     fit-margin-top="0"
     fit-margin-left="0"
     fit-margin-right="0"
     fit-margin-bottom="0"
     inkscape:zoom="0.035998268"
     inkscape:cx="-3166.819"
     inkscape:cy="-5458.5959"
     inkscape:window-width="1920"
     inkscape:window-height="1009"
     inkscape:window-x="-8"
     inkscape:window-y="-8"
     inkscape:window-maximized="1"
     inkscape:current-layer="svg" />
  <circle
     style="fill:#006680;fill-opacity:1;stroke:#ffffff;stroke-width:25;stroke-miterlimit:4;stroke-dasharray:none;stroke-opacity:1"
     id="path846"
     cx="448.73691"
     cy="448.73691"
     r="436.23691" />
  <path
     id="path0"
     d="m 419.43257,156.08444 c -25.45007,12.62311 -65.37636,32.38747 -122.97973,60.87328 -131.99767,65.27865 -133.20725,65.89691 -136.58836,69.65706 -13.23295,14.71882 -2.74767,38.48086 16.97795,38.48086 5.10787,0 8.63891,-1.51113 35.94546,-15.39436 26.38167,-13.41153 44.95835,-22.8338 97.47912,-49.44627 15.38088,-7.79322 37.06237,-18.78895 48.1811,-24.43591 60.15392,-30.5512 87.22125,-44.13287 87.95239,-44.13287 0.98047,0 8.0038,3.52934 59.96021,30.1334 7.9684,4.08023 24.79809,12.65343 37.3993,19.05175 12.60121,6.39832 25.64043,13.07291 28.97604,14.83169 3.33562,1.75877 17.28456,8.88655 30.99764,15.83912 13.71308,6.95256 29.48144,14.98836 35.0408,17.85732 70.72176,36.49297 71.93302,37.0388 82.27849,37.05397 25.78531,0.0387 31.13913,-35.64391 6.7184,-44.77978 -1.82785,-0.68229 -13.35088,-6.23492 -25.60674,-12.33841 -12.25754,-6.10351 -35.32382,-17.5423 -51.26065,-25.42143 -104.94045,-51.87891 -145.65516,-72.03074 -177.5187,-87.87154 -14.24544,-7.08059 -26.37494,-12.86232 -26.95446,-12.84885 -0.57952,0.0134 -12.72925,5.81374 -26.99826,12.89097 m -129.74361,215.6879 c -0.17688,0.46497 -0.24428,30.7146 -0.14825,67.22106 l 0.17352,66.37536 h 67.04922 67.04922 v -67.04922 -67.04922 l -66.90097,-0.17184 c -53.16431,-0.13646 -66.96667,0.001 -67.22274,0.67386 m 179.24716,0 c -0.17689,0.46497 -0.24428,30.7146 -0.14825,67.22106 l 0.17352,66.37536 h 67.04921 67.04922 v -67.04922 -67.04922 l -66.90097,-0.17184 c -53.16429,-0.13646 -66.96667,0.001 -67.22273,0.67386 M 200.21363,551.02287 c -1.06638,0.78505 -1.13377,5.43469 -0.97036,67.55461 l 0.17351,66.71229 66.71229,0.17352 c 62.11993,0.16341 66.76958,0.096 67.55462,-0.97035 1.42017,-1.93231 1.20959,-131.82753 -0.21732,-133.25275 -1.42522,-1.4269 -131.32045,-1.63748 -133.25274,-0.21732 m 179.12081,0.67386 c -0.20216,0.83391 -0.28302,31.23348 -0.18194,67.55462 l 0.18531,66.03842 h 67.04922 67.04922 l 0.18531,-66.03842 c 0.1011,-36.32114 0.0202,-66.72071 -0.18195,-67.55462 l -0.36557,-1.51618 h -66.68701 -66.68702 l -0.36557,1.51618 m 179.97324,-0.45654 c -1.42689,1.42522 -1.63748,131.32044 -0.21732,133.25275 0.78505,1.06638 5.43469,1.13376 67.55462,0.97035 l 66.71229,-0.17352 0.17351,-66.71229 c 0.16342,-62.11992 0.096,-66.76956 -0.97036,-67.55461 -1.93229,-1.42016 -131.82752,-1.20958 -133.25274,0.21732"
     stroke="none"
     fill="#050505"
     fill-rule="evenodd"
     style="fill:#ffffff;stroke-width:1" />
</svg>
