<?xml version="1.0" encoding="UTF-8" standalone="no"?>
<svg
   id="svg"
   width="897.47382"
   height="897.47382"
   viewBox="0 0 897.47382 897.47385"
   version="1.1"
   sodipodi:docname="tankanlaeg_blaa.svg"
   inkscape:version="1.1 (c68e22c387, 2021-05-23)"
   xmlns:inkscape="http://www.inkscape.org/namespaces/inkscape"
   xmlns:sodipodi="http://sodipodi.sourceforge.net/DTD/sodipodi-0.dtd"
   xmlns="http://www.w3.org/2000/svg"
   xmlns:svg="http://www.w3.org/2000/svg">
  <defs
     id="defs7" />
  <sodipodi:namedview
     id="namedview5"
     pagecolor="#ffffff"
     bordercolor="#666666"
     borderopacity="1.0"
     inkscape:pageshadow="2"
     inkscape:pageopacity="0.0"
     inkscape:pagecheckerboard="0"
     showgrid="false"
     fit-margin-top="0"
     fit-margin-left="0"
     fit-margin-right="0"
     fit-margin-bottom="0"
     inkscape:zoom="0.05090924"
     inkscape:cx="2239.2792"
     inkscape:cy="88.392598"
     inkscape:window-width="1920"
     inkscape:window-height="1009"
     inkscape:window-x="1912"
     inkscape:window-y="-8"
     inkscape:window-maximized="1"
     inkscape:current-layer="svg" />
  <circle
     style="fill:#006680;fill-opacity:1;stroke:#ffffff;stroke-width:25;stroke-miterlimit:4;stroke-dasharray:none;stroke-opacity:1"
     id="path846"
     cx="448.73691"
     cy="448.73691"
     r="436.23691" />
  <path
     id="path0"
     d="m 326.40557,199.54192 c -13.46786,0.73879 -29.76143,2.24278 -34.46854,3.18052 -2.17224,0.43433 -5.88838,1.01075 -8.25809,1.2807 -21.27176,2.43359 -44.81808,8.36231 -105.20083,26.49145 -7.05708,2.11899 -9.40167,3.85436 -11.72471,8.67891 l -1.9191,3.9863 v 193.96879 c 0,149.78254 -0.19567,194.19 -0.86171,194.943 -0.55472,0.62719 -3.4271,0.97627 -8.07856,0.97832 -3.96926,0.002 -8.41787,0.38158 -9.88817,0.84433 -10.20232,3.20285 -11.96165,19.97006 -2.71081,25.84804 l 2.70542,1.71913 h 304.63545 304.63542 l 2.70542,-1.71913 c 9.25084,-5.87798 7.49153,-22.64519 -2.7108,-25.84804 -1.47031,-0.46275 -5.9189,-0.8423 -9.88818,-0.84433 -4.65145,-0.002 -7.52383,-0.35113 -8.07855,-0.97832 -0.66424,-0.75097 -0.86171,-35.88277 -0.86171,-153.18836 V 326.67116 l -1.50441,-3.51542 c -2.35536,-5.4984 -5.56703,-7.08968 -27.84591,-13.79373 -30.72727,-9.24522 -52.56092,-14.38437 -68.31054,-16.08117 -2.56718,-0.27606 -6.28332,-0.85248 -8.25808,-1.28073 -10.3657,-2.24891 -47.94359,-3.19068 -68.93706,-1.72729 -18.14446,1.26451 -20.38851,1.3335 -21.00069,0.64139 -0.298,-0.33691 -0.70373,-11.45148 -0.9012,-24.69921 -0.48113,-32.30445 -0.003,-31.33021 -18.16241,-37.07828 -11.82882,-3.74273 -36.81132,-11.06382 -48.26134,-14.13876 -5.13437,-1.38019 -10.6278,-2.87404 -12.2076,-3.32058 -31.8044,-8.97932 -92.48878,-14.44931 -134.64271,-12.13546 m 55.65232,28.38106 c 12.75156,0.88087 26.91417,2.2915 33.3914,3.32462 18.762,2.99175 19.43163,3.11354 37.3409,6.79537 3.3571,0.69008 6.55262,1.44312 7.10016,1.67247 0.54756,0.22935 3.94055,1.1427 7.54,2.02562 3.59945,0.88495 10.74448,2.87403 15.87886,4.42065 5.13438,1.5446 14.34393,4.31309 20.4657,6.14791 6.12175,1.83484 11.85752,3.86655 12.74796,4.51401 l 1.61751,1.17722 -0.18131,187.31954 -0.18133,187.3195 H 351.89791 186.01809 l -0.18132,-187.23832 c -0.15438,-160.47695 -0.0358,-187.37635 0.833,-188.19228 0.55833,-0.52367 4.03388,-1.87746 7.7213,-3.01206 28.42038,-8.73169 29.60883,-9.02396 31.08273,-7.64175 0.9802,0.92147 1.12022,19.28808 1.28718,169.20256 0.20824,186.51982 -0.22081,171.91625 5.17388,175.49255 5.48803,3.63517 11.57028,1.87949 14.36727,-4.1507 1.28718,-2.77458 1.51697,-5.10669 1.83114,-18.57566 l 0.35904,-15.40328 1.79524,-1.025 c 2.17942,-1.24419 47.68327,-1.50195 50.51077,-0.28617 l 1.7737,0.76114 0.24773,15.27337 c 0.36623,22.63298 5.98353,30.82682 16.22535,23.67016 5.6514,-3.94977 5.16309,13.05898 5.26183,-183.35758 0.0915,-182.70199 0.0234,-178.39907 2.84725,-180.01469 2.034,-1.16301 39.09126,-1.31117 54.90371,-0.2192 m -80.14115,3.54992 c 0.57448,0.78346 0.76119,6.67156 0.62654,19.68792 l -0.19388,18.57161 -26.12607,0.21313 c -18.68483,0.15222 -26.40613,-0.0487 -27.10807,-0.70836 -0.75759,-0.71039 -0.98199,-3.94774 -0.98199,-14.12864 0,-15.67523 0.14901,-16.05683 6.8219,-17.43702 15.65266,-3.23938 20.05996,-4.09386 25.49236,-4.94227 3.35708,-0.52366 7.71951,-1.21984 9.69428,-1.54865 6.20791,-1.02905 10.88809,-0.91337 11.77493,0.29228 m -0.59781,67.92133 c 1.70189,1.02904 2.18301,32.03652 0.52781,33.9079 -1.68573,1.90589 -52.05468,1.33958 -52.97025,-0.59672 -1.30334,-2.75227 -0.96762,-31.3444 0.38598,-32.87479 1.36977,-1.55069 49.55032,-1.95257 52.05646,-0.43639 m 315.55586,19.34086 c 11.89702,0.94177 14.53243,1.27261 29.44186,3.68185 19.19827,3.10338 65.16888,15.49259 68.26565,18.39908 0.89404,0.83826 1.01073,20.63985 0.85275,146.39704 l -0.18132,145.42683 h -87.2413 -87.2413 l -0.46137,-2.4356 c -0.59064,-3.12978 -0.75939,-302.64415 -0.17235,-306.66291 0.55474,-3.78941 0.35725,-3.7265 14.5486,-4.63782 6.43591,-0.41204 11.89522,-0.97019 12.13399,-1.23811 0.67861,-0.76723 36.53127,-0.002 50.05479,1.06964 m -316.00825,43.12469 1.84191,0.79159 v 16.22935 c 0,15.21451 -0.0861,16.28211 -1.38952,17.06964 -2.50614,1.51618 -50.68669,1.11429 -52.05646,-0.4364 -0.94609,-1.06963 -1.12741,-3.72447 -1.11843,-16.44043 0.0107,-15.25915 0.17234,-16.56425 2.14351,-17.41266 1.90475,-0.81999 48.63654,-0.63527 50.57899,0.19891 m 0.70552,63.83965 c 0.98559,0.42623 1.13639,2.7015 1.13639,17.06966 v 16.57641 l -1.84191,0.79157 c -2.89572,1.24421 -48.35649,1.01281 -50.57899,-0.25776 l -1.79524,-1.02704 -0.19568,-15.70365 c -0.13465,-10.89533 0.0575,-16.04668 0.62654,-16.82202 0.85453,-1.16505 50.05836,-1.75162 52.64889,-0.62717 m -0.25313,63.67322 c 1.70189,1.02904 2.18301,32.03652 0.52781,33.9079 -1.23513,1.39641 -51.61664,1.39641 -52.85177,0 -0.96403,-1.08995 -1.24947,-31.21249 -0.31236,-32.79969 0.29083,-0.49119 1.01251,-1.10213 1.60494,-1.35583 2.01425,-0.8687 49.57185,-0.6353 51.03138,0.24762"
     stroke="none"
     fill="#040404"
     fill-rule="evenodd"
     style="fill:#ffffff;stroke:#ffffff;stroke-width:20;stroke-miterlimit:4;stroke-dasharray:none;stroke-opacity:1" />
</svg>
