<?xml version="1.0" encoding="UTF-8" standalone="no"?>
<svg
   id="svg"
   width="897.47382"
   height="897.47382"
   viewBox="0 0 897.47382 897.47385"
   version="1.1"
   sodipodi:docname="telemast.svg"
   inkscape:version="1.1 (c68e22c387, 2021-05-23)"
   xmlns:inkscape="http://www.inkscape.org/namespaces/inkscape"
   xmlns:sodipodi="http://sodipodi.sourceforge.net/DTD/sodipodi-0.dtd"
   xmlns="http://www.w3.org/2000/svg"
   xmlns:svg="http://www.w3.org/2000/svg">
  <defs
     id="defs7" />
  <sodipodi:namedview
     id="namedview5"
     pagecolor="#ffffff"
     bordercolor="#666666"
     borderopacity="1.0"
     inkscape:pageshadow="2"
     inkscape:pageopacity="0.0"
     inkscape:pagecheckerboard="0"
     showgrid="false"
     fit-margin-top="0"
     fit-margin-left="0"
     fit-margin-right="0"
     fit-margin-bottom="0"
     inkscape:zoom="0.15674954"
     inkscape:cx="1684.2154"
     inkscape:cy="673.04822"
     inkscape:window-width="1920"
     inkscape:window-height="1017"
     inkscape:window-x="1912"
     inkscape:window-y="-8"
     inkscape:window-maximized="1"
     inkscape:current-layer="svg" />
  <circle
     style="fill:#006680;fill-opacity:1;stroke:#ffffff;stroke-width:25;stroke-miterlimit:4;stroke-dasharray:none;stroke-opacity:1"
     id="path846"
     cx="448.73691"
     cy="448.73691"
     r="436.23691" />
  <g
     id="svgg"
     transform="matrix(1.4789406,0,0,1.4470223,158.59513,149.01141)"
     style="fill:#ffffff">
    <path
       id="path0"
       d="M 43.462,5.986 C -8.46,62.414 -14.119,157.549 30.55,223.036 c 17.497,25.652 26.628,29.218 36.798,14.375 4.869,-7.105 3.985,-10.275 -6.912,-24.802 C 19.666,158.26 19.91,86.759 61.051,31.862 72.443,16.661 72.921,13.434 64.954,5.468 57.104,-2.383 51.028,-2.236 43.462,5.986 M 336.639,5.282 c -5.11,4.901 -6.233,7.436 -5.815,13.122 0.089,1.214 3.998,7.235 8.687,13.38 41.682,54.629 41.062,128.769 -1.54,184.353 -8.772,11.445 -9.27,16.622 -2.328,24.198 6.934,7.566 14.959,7.56 21.509,-0.017 C 410.841,178.209 414.73,84.953 366.432,17.792 352.397,-1.725 346.517,-4.194 336.639,5.282 M 77.693,34.531 C 54.661,53.912 38.86,110.678 46.337,147.183 c 7.165,34.983 29.153,70.627 41.634,67.494 13.023,-3.268 16.332,-16.778 7.114,-29.04 C 67.587,149.056 67.788,95.808 95.561,59.193 107.873,42.962 92.647,21.948 77.693,34.531 m 228.04,1.463 c -8.719,7.876 -8.789,11.679 -0.434,23.673 26.697,38.329 28.263,84.263 4.095,120.142 -12.749,18.926 -12.979,20.235 -5.133,29.171 11.042,12.576 22.911,4.272 38.003,-26.586 C 364.692,136.535 359.832,82.791 329.592,42.271 320.098,29.55 314.497,28.076 305.733,35.994 M 109.027,68.349 c -24.383,25.853 -24.563,84.144 -0.337,108.922 14.475,14.806 31.379,-5.427 19.972,-23.907 -12.04,-19.506 -11.915,-41.699 0.349,-61.999 10.978,-18.169 -6.055,-37.785 -19.984,-23.016 m 164.311,0.039 c -8.029,7.254 -8.543,11.671 -2.502,21.506 12.883,20.977 13.248,43.348 1.036,63.559 -7.16,11.85 -7.199,15.249 -0.259,22.544 21.582,22.687 48.119,-34.929 35.766,-77.655 -8.257,-28.561 -22.1,-40.742 -34.041,-29.954 m -88.127,12.356 c -30.533,11.972 -39.702,49.312 -17.821,72.578 l 4.449,4.731 -8.574,26.959 c -4.715,14.828 -10.81,33.932 -13.544,42.453 -2.734,8.521 -6.725,21.197 -8.869,28.169 -2.144,6.972 -15.118,48.102 -28.832,91.4 -27.033,85.355 -26.808,84.277 -19.134,91.63 11.894,11.394 21.202,4.806 29.871,-21.142 l 6.56,-19.635 70.399,-0.365 70.4,-0.365 5.916,18.675 c 7.805,24.637 14.008,30.852 25.85,25.904 13.995,-5.847 14.145,-4.922 -16.501,-101.595 -14.489,-45.704 -29.539,-93.24 -33.446,-105.634 -3.907,-12.394 -9.858,-31.092 -13.226,-41.549 -3.368,-10.458 -7.188,-22.516 -8.489,-26.796 l -2.365,-7.781 4.602,-4.895 C 263.59,120.375 227.166,64.294 185.211,80.744 m 20.349,112.918 c 2.587,8.521 6.805,21.805 9.372,29.519 5.593,16.804 7.56,14.777 -14.656,15.108 -19.964,0.297 -21.248,-0.031 -18.965,-4.84 1.504,-3.17 2.405,-5.997 12.55,-39.345 2.989,-9.828 5.785,-17.433 6.214,-16.902 0.429,0.532 2.897,7.939 5.485,16.46 m 28.335,89.437 c 2.044,6.584 4.169,13.397 4.723,15.14 l 1.008,3.169 h -39.531 c -21.742,0 -39.544,-0.475 -39.56,-1.056 -0.016,-0.581 1.996,-7.565 4.47,-15.52 l 4.498,-14.463 30.338,0.379 30.338,0.379 3.716,11.972 m 20.822,65.658 c 2.518,8.224 4.328,15.203 4.023,15.508 -0.305,0.305 -27.139,0.389 -59.632,0.187 l -59.076,-0.367 4.702,-15.141 4.702,-15.141 h 50.352 50.352 l 4.577,14.954"
       stroke="none"
       fill="#000000"
       fill-rule="evenodd"
       style="fill:#ffffff" />
  </g>
</svg>
