<?xml version="1.0" encoding="UTF-8" standalone="no"?>
<svg
   id="svg"
   width="897.47382"
   height="897.47382"
   viewBox="0 0 897.47382 897.47385"
   version="1.1"
   sodipodi:docname="vandforsyning.svg"
   inkscape:version="1.1 (c68e22c387, 2021-05-23)"
   xmlns:inkscape="http://www.inkscape.org/namespaces/inkscape"
   xmlns:sodipodi="http://sodipodi.sourceforge.net/DTD/sodipodi-0.dtd"
   xmlns="http://www.w3.org/2000/svg"
   xmlns:svg="http://www.w3.org/2000/svg">
  <defs
     id="defs7" />
  <sodipodi:namedview
     id="namedview5"
     pagecolor="#ffffff"
     bordercolor="#666666"
     borderopacity="1.0"
     inkscape:pageshadow="2"
     inkscape:pageopacity="0.0"
     inkscape:pagecheckerboard="0"
     showgrid="false"
     fit-margin-top="0"
     fit-margin-left="0"
     fit-margin-right="0"
     fit-margin-bottom="0"
     inkscape:zoom="0.30009657"
     inkscape:cx="603.13918"
     inkscape:cy="734.76348"
     inkscape:window-width="1920"
     inkscape:window-height="1017"
     inkscape:window-x="1912"
     inkscape:window-y="-8"
     inkscape:window-maximized="1"
     inkscape:current-layer="svg" />
  <circle
     style="fill:#006680;fill-opacity:1;stroke:#ffffff;stroke-width:25;stroke-miterlimit:4;stroke-dasharray:none;stroke-opacity:1"
     id="path846"
     cx="448.73691"
     cy="448.73691"
     r="436.23691" />
  <g
     id="svgg"
     transform="matrix(1.27792,0,0,1.27792,195.95929,134.04911)"
     style="fill:#ffffff">
    <path
       id="path0"
       d="m 79.786,4.284 c -0.589,0.589 -1.071,7.08 -1.071,14.426 v 13.355 l 34.136,0.433 34.137,0.434 v 22.49 22.49 l -20.052,0.454 c -22.785,0.516 -23.204,0.721 -22.796,11.16 0.469,11.999 0.91,11.82 -27.956,11.319 L 50.602,100.402 50.148,82.287 49.693,64.172 26.051,64.616 2.41,65.06 1.966,156.627 c -0.245,50.361 -0.05,93.192 0.432,95.18 0.858,3.541 1.347,3.615 24.092,3.615 h 23.216 l 0.448,-21.285 0.448,-21.286 106.025,-0.381 106.024,-0.382 6.273,3.595 c 16.307,9.344 19.13,20.557 17.385,69.056 l -0.853,23.695 h 55.49 55.49 l 1.173,-31.288 c 2.912,-77.646 -9.894,-112.477 -53.031,-144.248 -4.417,-3.254 -8.813,-6.569 -9.767,-7.368 -12.692,-10.622 -48.999,-21.475 -80.193,-23.971 l -14.457,-1.157 -0.474,-10.799 -0.474,-10.798 -22.016,-0.447 -22.016,-0.446 v -22.49 -22.49 l 34.939,-0.433 34.94,-0.433 V 17.639 3.213 h -92.101 c -50.656,0 -92.584,0.482 -93.173,1.071 m 256.429,345.515 c -15.585,18.273 -26.046,33.939 -37.273,55.823 -27.886,54.354 49.697,99.041 86.776,49.982 18.32,-24.239 9.766,-51.799 -32.411,-104.432 -10.135,-12.648 -7.646,-12.448 -17.092,-1.373"
       stroke="none"
       fill="#000000"
       fill-rule="evenodd"
       style="fill:#ffffff" />
  </g>
</svg>
