<?xml version="1.0" encoding="UTF-8" standalone="no"?>
<svg
   id="svg"
   width="897.47382"
   height="897.47382"
   viewBox="0 0 897.47382 897.47385"
   version="1.1"
   sodipodi:docname="varmeforsyning.svg"
   inkscape:version="1.1 (c68e22c387, 2021-05-23)"
   xmlns:inkscape="http://www.inkscape.org/namespaces/inkscape"
   xmlns:sodipodi="http://sodipodi.sourceforge.net/DTD/sodipodi-0.dtd"
   xmlns="http://www.w3.org/2000/svg"
   xmlns:svg="http://www.w3.org/2000/svg">
  <defs
     id="defs7" />
  <sodipodi:namedview
     id="namedview5"
     pagecolor="#ffffff"
     bordercolor="#666666"
     borderopacity="1.0"
     inkscape:pageshadow="2"
     inkscape:pageopacity="0.0"
     inkscape:pagecheckerboard="0"
     showgrid="false"
     fit-margin-top="0"
     fit-margin-left="0"
     fit-margin-right="0"
     fit-margin-bottom="0"
     inkscape:zoom="0.30009657"
     inkscape:cx="603.13918"
     inkscape:cy="734.76348"
     inkscape:window-width="1920"
     inkscape:window-height="1017"
     inkscape:window-x="1912"
     inkscape:window-y="-8"
     inkscape:window-maximized="1"
     inkscape:current-layer="svg" />
  <circle
     style="fill:#006680;fill-opacity:1;stroke:#ffffff;stroke-width:25;stroke-miterlimit:4;stroke-dasharray:none;stroke-opacity:1"
     id="path846"
     cx="448.73691"
     cy="448.73691"
     r="436.23691" />
  <g
     id="svgg"
     transform="matrix(1.3188023,0,0,1.3188023,186.4163,146.68467)"
     style="fill:#ffffff">
    <path
       id="path0"
       d="m 93.361,0.955 c -0.236,0.615 0.661,4.196 1.995,7.957 5.458,15.397 3.595,26.685 -7.646,46.334 -8.389,14.663 -11.504,23.275 -12.058,33.336 -1.312,23.812 13.102,45.106 33.331,49.239 6.675,1.364 7.341,0.512 4.955,-6.349 -5.432,-15.619 -4.355,-23.538 6.226,-45.758 C 136.212,52.012 135.582,29.602 118.089,11.863 110.53,4.2 94.781,-2.748 93.361,0.955 m 96.495,0.009 c -0.685,0.825 -0.558,1.782 0.596,4.474 6.933,16.174 5.567,29.02 -5.062,47.602 -10.867,18.998 -13.2,25.813 -13.218,38.601 -0.033,23.728 15.146,43.869 35.051,46.51 4.94,0.655 5.242,-0.249 2.66,-7.957 -4.819,-14.384 -3.396,-23.604 6.974,-45.211 C 232.174,53.071 231.679,30.355 215.284,12.83 207.261,4.253 192.747,-2.52 189.856,0.964 m 96.63,0.088 c -0.782,0.942 -0.679,1.803 0.595,4.988 6.546,16.36 5.139,28.663 -5.383,47.074 -9.847,17.229 -12.581,24.589 -13.298,35.797 -1.476,23.097 13.44,44.983 33.3,48.858 6.798,1.326 7.391,0.51 4.938,-6.799 -5.353,-15.944 -4.183,-23.606 7.246,-47.447 14.897,-31.076 14.231,-52.681 -2.187,-70.941 -7.213,-8.023 -22.369,-14.954 -25.211,-11.53 m 47.055,152.714 c -7.291,2.707 -12.777,7.886 -15.994,15.098 -1.063,2.384 -1.389,5.805 -1.743,18.315 -0.662,23.377 -7.004,32.132 -22.412,30.94 -13.976,-1.081 -18.74,-8.123 -19.442,-28.742 -0.762,-22.368 -6.944,-32.021 -22.327,-34.865 -18.556,-3.43 -29.661,8.657 -30.359,33.044 -0.648,22.627 -7.867,32.12 -23.22,30.535 -13.651,-1.409 -18.556,-9.185 -19.265,-30.545 -0.811,-24.459 -11.804,-36.348 -30.425,-32.906 -15.369,2.841 -21.013,11.424 -21.641,32.906 -0.641,21.94 -6.729,30.769 -21.218,30.769 -14.384,0 -20.547,-8.831 -21.218,-30.403 -0.405,-13.013 -0.559,-14.19 -2.363,-18.077 -9.357,-20.162 -36.909,-20.849 -47.274,-1.179 l -2.039,3.871 -0.367,19.781 -0.366,19.78 -9.927,0.203 -9.927,0.203 -5.655,5.688 -5.655,5.689 -0.075,12.685 -0.074,12.685 6.117,6.149 6.116,6.148 h 9.715 9.714 l 0.192,89.561 0.192,89.56 2.006,4.086 c 8.072,16.437 28.988,20.196 42,7.549 6.226,-6.051 7.214,-9.4 7.644,-25.92 0.573,-22.003 6.375,-30.3 21.244,-30.378 14.624,-0.077 20.588,8.36 21.215,30.011 0.385,13.278 0.498,14.122 2.451,18.315 9.46,20.31 36.915,20.782 47.208,0.812 1.821,-3.533 1.956,-4.539 2.431,-18.043 0.807,-22.984 8.516,-33.164 23.598,-31.163 13.53,1.795 18.216,9.191 18.825,29.713 0.399,13.429 0.54,14.535 2.355,18.443 8.161,17.569 30.723,21.204 43.488,7.007 5.434,-6.044 6.376,-9.634 6.868,-26.183 0.644,-21.634 8.031,-30.962 22.955,-28.982 13.404,1.778 18.217,9.1 18.82,28.632 0.805,26.052 16.369,39.675 36.07,31.572 13.542,-5.57 16.719,-12.769 16.719,-37.878 v -16.648 l 9.707,-0.088 9.707,-0.089 5.715,-5.701 5.716,-5.702 v -12.735 -12.734 l -5.755,-5.755 -5.755,-5.755 -9.484,-0.149 -9.485,-0.149 -0.366,-89.743 c -0.405,-99.268 -0.026,-91.851 -5.076,-99.191 C 356.799,154.186 344,149.882 333.541,153.766 M 114.687,257.494 c 11.364,5.56 11.687,6.927 11.687,49.466 v 35.531 l -1.748,3.868 c -7.462,16.512 -30.801,16.512 -38.263,0 l -1.748,-3.868 -0.218,-33.232 c -0.144,-22.031 0.052,-34.532 0.583,-37.088 2.828,-13.623 17.274,-20.76 29.707,-14.677 m 94.296,-0.282 c 4.25,2.127 7.628,5.463 9.947,9.821 l 1.949,3.663 0.217,34.678 c 0.252,40.261 0.292,39.932 -5.755,46.549 -10.264,11.231 -27.362,8.606 -34.164,-5.246 l -2.056,-4.186 -0.232,-32.107 c -0.254,-35.191 0.09,-39.866 3.316,-45.051 5.703,-9.167 17.528,-12.753 26.778,-8.121 m 94.806,-0.008 c 4.419,2.139 9.502,8.037 10.856,12.597 1.956,6.586 1.612,70.184 -0.409,75.584 -5.517,14.746 -25.197,18.08 -35.521,6.018 -4.696,-5.486 -4.722,-5.737 -4.722,-44.823 v -35.284 l 2.241,-4.485 c 5.136,-10.277 17.364,-14.541 27.555,-9.607"
       stroke="none"
       fill="#000000"
       fill-rule="evenodd"
       style="fill:#ffffff" />
  </g>
</svg>
