<?xml version="1.0" encoding="UTF-8" standalone="no"?>
<!-- Created with Inkscape (http://www.inkscape.org/) -->

<svg
   width="34.052704"
   height="34.052704"
   viewBox="0 0 34.052702 34.052702"
   id="svg4142"
   version="1.1"
   inkscape:version="1.1 (c68e22c387, 2021-05-23)"
   sodipodi:docname="efterskoler_final.svg"
   xmlns:inkscape="http://www.inkscape.org/namespaces/inkscape"
   xmlns:sodipodi="http://sodipodi.sourceforge.net/DTD/sodipodi-0.dtd"
   xmlns="http://www.w3.org/2000/svg"
   xmlns:svg="http://www.w3.org/2000/svg"
   xmlns:rdf="http://www.w3.org/1999/02/22-rdf-syntax-ns#"
   xmlns:cc="http://creativecommons.org/ns#"
   xmlns:dc="http://purl.org/dc/elements/1.1/">
  <defs
     id="defs4144" />
  <sodipodi:namedview
     id="base"
     pagecolor="#ffffff"
     bordercolor="#666666"
     borderopacity="1.0"
     inkscape:pageopacity="0.0"
     inkscape:pageshadow="2"
     inkscape:zoom="6"
     inkscape:cx="-67.166667"
     inkscape:cy="7.0833333"
     inkscape:document-units="px"
     inkscape:current-layer="layer1"
     showgrid="false"
     fit-margin-top="0"
     fit-margin-left="0"
     fit-margin-right="0"
     fit-margin-bottom="0"
     inkscape:window-width="1920"
     inkscape:window-height="1017"
     inkscape:window-x="1912"
     inkscape:window-y="-8"
     inkscape:window-maximized="1"
     units="px"
     inkscape:pagecheckerboard="0" />
  <metadata
     id="metadata4147">
    <rdf:RDF>
      <cc:Work
         rdf:about="">
        <dc:format>image/svg+xml</dc:format>
        <dc:type
           rdf:resource="http://purl.org/dc/dcmitype/StillImage" />
      </cc:Work>
    </rdf:RDF>
  </metadata>
  <g
     inkscape:groupmode="layer"
     id="layer2"
     inkscape:label="Layer 2"
     transform="translate(-88.116508,-89.907295)" />
  <g
     inkscape:label="Layer 1"
     inkscape:groupmode="layer"
     id="layer1"
     transform="translate(-88.116508,-89.907295)">
    <circle
       style="opacity:1;fill:#006680;fill-opacity:1;stroke:#ffffff;stroke-width:2.59999967;stroke-miterlimit:4;stroke-dasharray:none;stroke-opacity:1"
       id="path4690"
       cx="105.14286"
       cy="106.93365"
       r="15.726353" />
    <g
       id="svgg"
       style="fill:#ffffff"
       transform="matrix(0.05567819,0,0,0.05567819,93.360296,97.537237)">
      <path
         id="path0"
         d="M 188.064,6.188 C 166.534,98.084 65.042,117.621 4.527,41.517 l -4.761,-5.988 0.579,4.791 c 4.185,34.666 38.02,68.172 79.76,78.984 8.46,2.192 7.768,1.067 9.861,16.025 7.7,55.043 -10.547,153.037 -34.573,185.674 -4.523,6.143 -4.469,6.225 1.819,2.769 27.422,-15.073 55.997,-49.11 68.552,-81.656 2.718,-7.047 3.022,-7.095 5.071,-0.799 9.354,28.746 8.861,82.997 -1.046,115.17 -1.857,6.034 -1.615,6.034 4.023,0 28.922,-30.957 42.165,-79.004 39.391,-142.914 -1.15,-26.5 -3.498,-47.914 -10.82,-98.691 l -2.142,-14.858 5.384,-6.299 c 23.289,-27.251 33.893,-60.624 28.298,-89.062 -1.456,-7.403 -3.918,-6.762 -5.859,1.525 m -89.117,8.19 c -29.455,4.987 -31.545,47.143 -2.752,55.513 27.121,7.884 48.007,-24.962 29.569,-46.503 -4.28,-4.999 -17.863,-10.795 -22.77,-9.715 -0.22,0.048 -2.041,0.366 -4.047,0.705 m 290.365,12.471 c -2.114,17.994 -15.688,44.696 -30.639,60.273 -38.819,40.443 -89.386,38.125 -138.913,-6.369 -4.501,-4.044 -8.183,-7.006 -8.183,-6.584 0,0.423 1.443,4.476 3.207,9.008 11.212,28.801 35.016,49.236 68.25,58.593 2.635,0.742 5.285,1.489 5.89,1.66 2.515,0.711 -1.636,19.769 -7.031,32.283 -5.534,12.836 -12.779,23.757 -23.617,35.599 l -5.985,6.539 6.19,4.532 c 3.404,2.493 8.388,5.801 11.076,7.353 l 4.886,2.82 0.458,18.852 c 0.991,40.824 12.674,74.583 33.675,97.313 5.139,5.562 5.711,5.723 4.44,1.254 -8.03,-28.232 -4.54,-103.493 4.763,-102.7 1.09,0.093 4.856,0.416 8.369,0.718 l 6.387,0.549 3.022,9.262 c 4.403,13.497 15.792,35.22 21.614,41.227 0.502,0.518 3.341,3.801 6.309,7.296 7.832,9.223 19.188,18.52 30.59,25.044 5.67,3.243 5.793,2.975 1.483,-3.219 -14.099,-20.259 -26.757,-58.504 -26.661,-80.552 l 0.03,-6.881 13.344,-6.548 c 17.577,-8.625 17.297,-8.399 13.742,-11.107 -19.355,-14.746 -36.004,-42.212 -46.332,-76.435 -3.955,-13.106 -4.301,-11.337 3.418,-17.495 35.302,-28.164 49.942,-65.493 39.295,-100.192 -2.401,-7.824 -2.403,-7.825 -3.077,-2.093 m -92.427,16.523 c -15.803,4.475 -24.993,24.177 -18.144,38.9 13.365,28.735 54.592,20.266 54.592,-11.214 0,-19.809 -17.452,-33.066 -36.448,-27.686"
         stroke="none"
         fill="#000000"
         fill-rule="evenodd"
         style="fill:#ffffff" />
    </g>
  </g>
</svg>
