<?xml version="1.0" encoding="UTF-8" standalone="no"?>
<svg
   id="svg"
   width="34.052704"
   height="34.052704"
   viewBox="0 0 34.052704 34.052705"
   version="1.1"
   sodipodi:docname="erhvervoguni_final.svg"
   inkscape:version="1.1 (c68e22c387, 2021-05-23)"
   xmlns:inkscape="http://www.inkscape.org/namespaces/inkscape"
   xmlns:sodipodi="http://sodipodi.sourceforge.net/DTD/sodipodi-0.dtd"
   xmlns="http://www.w3.org/2000/svg"
   xmlns:svg="http://www.w3.org/2000/svg">
  <defs
     id="defs7" />
  <sodipodi:namedview
     id="namedview5"
     pagecolor="#ffffff"
     bordercolor="#666666"
     borderopacity="1.0"
     inkscape:pageshadow="2"
     inkscape:pageopacity="0.0"
     inkscape:pagecheckerboard="0"
     showgrid="false"
     fit-margin-top="0"
     fit-margin-left="0"
     fit-margin-right="0"
     fit-margin-bottom="0"
     inkscape:zoom="3.2460875"
     inkscape:cx="21.872485"
     inkscape:cy="24.182959"
     inkscape:window-width="1920"
     inkscape:window-height="1017"
     inkscape:window-x="-8"
     inkscape:window-y="-8"
     inkscape:window-maximized="1"
     inkscape:current-layer="svg" />
  <circle
     style="fill:#8800aa;fill-opacity:1;stroke:#ffffff;stroke-width:2.6;stroke-miterlimit:4;stroke-dasharray:none;stroke-opacity:1"
     id="path4690"
     cx="17.026352"
     cy="17.026352"
     r="15.726353" />
  <g
     id="svgg"
     transform="matrix(0.06885601,0,0,0.06885601,3.4235683,5.2471787)"
     style="fill:#ffffff">
    <path
       id="path0"
       d="m 79.452,28.091 c -13.023,14.866 -15.227,20.03 -19.911,46.645 -3.868,21.978 -3.533,38.25 0.903,43.89 4.507,5.729 4.507,12.347 0,19.152 -3.525,5.323 -4.86,17.65 -2.096,19.359 0.803,0.496 8.203,0.343 16.445,-0.34 l 14.985,-1.241 0.569,-5.946 c 0.401,-4.183 -0.812,-7.94 -4.089,-12.669 C 78.584,125.867 86.483,112 100.465,112 c 12.98,0 14.269,-1.561 13.623,-16.499 C 113.444,80.622 112.908,80.074 98.974,80.024 81.37,79.961 77.718,63.852 87.686,30.23 93.217,11.574 93.79,11.723 79.452,28.091 m 54.743,52.227 c -0.558,1.455 -0.781,9.379 -0.494,17.608 l 0.521,14.963 94.755,0.46 c 63.296,0.307 95.905,-0.156 98.222,-1.396 3.87,-2.071 5.301,-28.832 1.662,-31.081 -4.449,-2.75 -193.616,-3.289 -194.666,-0.554 m 146.694,63.085 c -1.467,0.623 -7.32,5.419 -13.007,10.658 -18.41,16.959 -8.916,15.648 -117.566,16.235 -65.159,0.352 -96.646,1.131 -98.213,2.432 -2.131,1.768 -1.559,20.237 0.705,22.796 0.418,0.472 43.33,0.594 95.361,0.27 109.859,-0.682 105.434,-1.202 118.624,13.963 19.393,22.296 43.266,20.148 64.534,-5.807 10.319,-12.592 8.786,-13.961 -10.438,-9.319 -21.821,5.269 -29.096,1.717 -30.701,-14.989 -1.268,-13.193 1.416,-16.095 19.805,-21.407 8.437,-2.438 15.34,-5.363 15.34,-6.5 0,-4.961 -36.343,-11.774 -44.444,-8.332 m -116.445,86.891 c -11.733,2.283 -37.733,7.024 -57.777,10.536 -69.189,12.124 -73.074,13.16 -63.285,16.882 2.667,1.014 5.662,1.844 6.656,1.844 0.994,0 21.142,4.489 44.773,9.975 45.317,10.521 51.36,11.885 81.189,18.324 l 18.667,4.03 36.444,-8.415 c 64.935,-14.994 70.261,-16.36 67.556,-17.334 -1.467,-0.527 -26.175,-2.814 -54.906,-5.082 -50.844,-4.013 -59.193,-5.554 -56.213,-10.374 2.856,-4.623 111.326,3.539 122.932,9.249 7.684,3.781 13.278,3.35 32.35,-2.493 11.04,-3.381 9.955,-3.667 -62.83,-16.533 -14.667,-2.593 -39.352,-7.057 -54.857,-9.92 -32.962,-6.086 -32.953,-6.086 -60.699,-0.689 M 308,267.824 c -1.575,0.65 -2.222,6.257 -2.222,19.245 0,14.652 -0.535,18.534 -2.667,19.352 -3.941,1.512 -3.295,4.782 2.863,14.491 6.196,9.771 6.683,9.604 14.166,-4.842 3.378,-6.523 3.377,-6.634 -0.071,-9.846 -2.932,-2.732 -3.568,-6.064 -4,-20.938 -0.524,-18.055 -1.502,-20.173 -8.069,-17.462 m -206.667,23.543 c 0,23.542 22.888,31.256 92.445,31.157 70.87,-0.101 92.444,-8.023 92.444,-33.944 v -9.854 l -4.889,1.242 c -7.823,1.988 -57.083,13.266 -70.338,16.104 -6.664,1.427 -14.562,2.595 -17.551,2.595 -4.488,0 -78.562,-15.691 -89,-18.853 -2.757,-0.835 -3.111,0.479 -3.111,11.553"
       stroke="none"
       fill="#000000"
       fill-rule="evenodd"
       style="fill:#ffffff" />
  </g>
</svg>
