<?xml version="1.0" encoding="UTF-8" standalone="no"?>
<svg
   id="svg"
   width="34.052704"
   height="34.052704"
   viewBox="0 0 34.052704 34.052705"
   version="1.1"
   sodipodi:docname="højskole_final.svg"
   inkscape:version="1.1 (c68e22c387, 2021-05-23)"
   xmlns:inkscape="http://www.inkscape.org/namespaces/inkscape"
   xmlns:sodipodi="http://sodipodi.sourceforge.net/DTD/sodipodi-0.dtd"
   xmlns="http://www.w3.org/2000/svg"
   xmlns:svg="http://www.w3.org/2000/svg">
  <defs
     id="defs7" />
  <sodipodi:namedview
     id="namedview5"
     pagecolor="#ffffff"
     bordercolor="#666666"
     borderopacity="1.0"
     inkscape:pageshadow="2"
     inkscape:pageopacity="0.0"
     inkscape:pagecheckerboard="0"
     showgrid="false"
     fit-margin-top="0"
     fit-margin-left="0"
     fit-margin-right="0"
     fit-margin-bottom="0"
     inkscape:zoom="12.98435"
     inkscape:cx="5.8532002"
     inkscape:cy="17.598109"
     inkscape:window-width="1920"
     inkscape:window-height="1017"
     inkscape:window-x="-8"
     inkscape:window-y="-8"
     inkscape:window-maximized="1"
     inkscape:current-layer="svg" />
  <circle
     style="fill:#aa4400;fill-opacity:1;stroke:#ffffff;stroke-width:2.6;stroke-miterlimit:4;stroke-dasharray:none;stroke-opacity:1"
     id="path4690"
     cx="17.026352"
     cy="17.026352"
     r="15.726353" />
  <path
     id="path1"
     d="m 8.0185505,7.8404193 c -0.254991,0.036796 -0.6070061,0.1749712 -0.7643304,0.2999312 -0.039081,0.031077 -0.07709,0.056444 -0.084521,0.056444 -0.035509,0 -0.345442,0.3339389 -0.4278194,0.4609699 -0.7280361,1.122705 -0.1066691,2.5717746 1.222015,2.8497716 0.8539242,0.178687 1.8808195,-0.434893 2.0950863,-1.251808 0.0088,-0.03387 0.02593,-0.09838 0.038,-0.143463 C 10.334972,9.2215464 9.7566162,8.1860061 8.8686835,7.9130816 8.829247,7.9010117 8.7647296,7.8805727 8.7252913,7.8677868 8.6527694,7.8442793 8.1317883,7.8240635 8.0185458,7.8404202 m 4.2201802,-8.573e-4 c -0.02258,0.00521 -0.09167,0.019574 -0.15368,0.032007 -0.358088,0.071518 -0.77612,0.332082 -1.010106,0.6295115 -0.105526,0.134176 -0.219054,0.299788 -0.219054,0.319578 0,0.0056 -0.02165,0.0588 -0.04808,0.118244 -0.143821,0.323222 -0.200764,0.77269 -0.133604,1.055331 0.105526,0.4441796 0.234843,0.6925266 0.507696,0.9746676 0.355158,0.367305 0.823488,0.567139 1.329398,0.567139 0.290357,7.2e-5 0.512841,-0.05416 0.823417,-0.200549 0.415674,-0.195977 0.793623,-0.625868 0.9313,-1.059332 0.08752,-0.275496 0.115172,-0.7834776 0.05466,-1.0038176 C 14.152627,8.6607634 13.808971,8.2370885 13.283485,7.9936711 13.164527,7.9385103 13.10837,7.918434 12.935256,7.8689975 c -0.08352,-0.023861 -0.622081,-0.046578 -0.696528,-0.02944 m 4.496748,9.29e-4 c -1.038827,0.1250307 -1.803014,1.2084391 -1.56617,2.2206157 0.151322,0.646731 0.530988,1.087197 1.166643,1.353476 0.839279,0.351515 1.941978,-0.103954 2.316784,-0.95702 0.07431,-0.169185 0.08295,-0.191691 0.108312,-0.283785 0.281642,-1.0231086 -0.322865,-2.0258541 -1.389769,-2.3054943 -0.09467,-0.024865 -0.509769,-0.043007 -0.6358,-0.027794 m 4.425017,-2.864e-4 c -0.696529,0.1270318 -1.264883,0.6128641 -1.473719,1.2598101 -0.126175,0.390738 -0.127318,0.683525 -0.0047,1.1532116 0.02551,0.09788 0.208694,0.463399 0.232129,0.463399 0.0094,0 0.01707,0.01372 0.01707,0.03044 0,0.01679 0.08988,0.120457 0.199763,0.230484 0.81663,0.817845 2.126166,0.724893 2.810692,-0.199477 0.345084,-0.465901 0.475187,-1.2908176 0.265779,-1.6846996 -0.01043,-0.01957 -0.01893,-0.04566 -0.01893,-0.05802 0,-0.01236 -0.03522,-0.09367 -0.07838,-0.180687 -0.235223,-0.4750457 -0.6659,-0.8254173 -1.201961,-0.977955 -0.100667,-0.02865 -0.645159,-0.055226 -0.747755,-0.036507 m 4.271407,0.008 c -0.04508,0.00972 -0.121315,0.024223 -0.16947,0.032221 -0.04815,0.00809 -0.09252,0.022578 -0.09853,0.03236 -0.006,0.00972 -0.02515,0.017724 -0.04244,0.017724 -0.255562,0 -0.849494,0.5278433 -1.033253,0.9182963 -0.08523,0.181116 -0.09467,0.204479 -0.121673,0.300646 -0.266852,0.9515193 0.191689,1.8811053 1.117131,2.2644143 1.658552,0.686954 3.207861,-1.304535 2.178107,-2.7998323 C 26.870955,8.0464552 26.068901,7.7108015 25.431887,7.8481922 m -10.78608,4.1323718 c -0.05066,0.0044 -0.121173,0.0213 -0.156681,0.0378 -0.03551,0.01643 -0.07445,0.02987 -0.08645,0.02987 -0.137249,0 -0.59679,0.44118 -0.59679,0.572926 0,0.01193 -0.0087,0.03773 -0.01936,0.0573 -0.08131,0.149037 -0.08073,0.130961 -0.08552,2.883208 -0.0043,2.46875 -0.0022,2.648151 0.03094,2.724671 0.0723,0.166612 0.09395,0.206193 0.144822,0.26435 0.02865,0.0328 0.05208,0.06552 0.05208,0.07287 0,0.04644 0.281998,0.282712 0.409672,0.343228 0.166183,0.07873 0.261922,0.09452 0.645373,0.106454 l 0.389239,0.01207 0.01043,3.769498 c 0.01136,4.098222 0.0023,3.801291 0.122317,3.994839 0.220982,0.356302 0.332724,0.383809 1.516372,0.373307 1.095198,-0.0097 1.105843,-0.01172 1.335329,-0.253063 0.237772,-0.249919 0.224412,0.0088 0.21741,-4.210893 l -0.006,-3.660399 0.05887,-0.01179 c 0.03243,-0.0064 0.175901,-0.01179 0.318936,-0.01179 0.364732,0 0.472473,-0.02037 0.70796,-0.133961 0.194762,-0.09395 0.48219,-0.398598 0.530773,-0.562568 0.06795,-0.22927 0.07187,-0.383666 0.0728,-2.865847 9.29e-4,-2.366153 -0.0047,-2.636434 -0.05837,-2.778111 -0.06302,-0.166399 -0.15118,-0.302932 -0.278712,-0.431678 -0.135961,-0.137177 -0.182544,-0.166612 -0.471329,-0.298288 -0.05808,-0.0265 -4.514039,-0.04873 -4.80411,-0.02401 m -8.5530314,0.387238 c -0.1118846,0.03022 -0.127317,0.03643 -0.3055036,0.123316 -0.2562774,0.124887 -0.513412,0.462899 -0.5825718,0.765831 -0.029007,0.127174 -0.024792,4.833759 0.0045,4.947431 0.057657,0.224126 0.3231509,0.589859 0.4897633,0.674808 0.036294,0.01851 0.093666,0.04994 0.1275313,0.06973 0.1103843,0.06465 0.2833554,0.108027 0.4711873,0.118102 0.1013821,0.0054 0.2235549,0.01464 0.2714238,0.02043 l 0.087093,0.01057 v 3.218791 c 0,2.304281 0.00643,3.239582 0.02272,3.291953 0.024006,0.07695 0.055156,0.155395 0.1023109,0.257492 0.050084,0.108312 0.264565,0.303074 0.4178171,0.379379 l 0.1433923,0.0713 h 0.9328012 c 1.0006025,0 0.9313717,0.006 1.1670727,-0.09945 0.077301,-0.03465 0.3375111,-0.30043 0.3738771,-0.381951 0.10474,-0.234914 0.09859,-0.01207 0.09259,-3.349108 l -0.0055,-3.092976 -0.06802,-0.04143 c -0.232515,-0.141605 -0.4975086,-0.398168 -0.5862449,-0.567568 -0.013651,-0.02607 -0.034583,-0.06587 -0.046439,-0.08838 -0.01193,-0.02258 -0.037437,-0.09167 -0.056658,-0.153681 -0.037084,-0.119672 -0.051228,-0.158038 -0.094309,-0.256062 -0.021787,-0.04952 -0.028575,-0.574214 -0.03501,-2.703452 -0.00874,-2.891925 -0.014934,-2.716881 0.1092412,-3.071111 0.027218,-0.07745 0.044439,-0.148894 0.038293,-0.158753 -0.019574,-0.03172 -2.9516545,-0.01758 -3.0713982,0.01478 m 4.1997467,-4.29e-4 c -0.05637,0.01501 -0.118458,0.03687 -0.138034,0.04865 -0.01957,0.01179 -0.04952,0.02143 -0.06659,0.02143 -0.01707,0 -0.03101,0.0092 -0.03101,0.0205 0,0.01129 -0.01422,0.0205 -0.03158,0.0205 -0.1244578,0 -0.5624942,0.489834 -0.5624942,0.62894 0,0.01493 -0.00818,0.04316 -0.018291,0.06273 -0.055942,0.108813 -0.062228,0.354302 -0.064302,2.514404 -0.00205,2.178965 0.00391,2.42974 0.061661,2.560844 0.00993,0.0225 0.029291,0.0778 0.043007,0.122887 0.075516,0.248347 0.3305104,0.483619 0.6948862,0.64123 0.0876,0.03787 0.261635,0.06545 0.426105,0.06758 0.0868,0.0011 0.180829,0.0085 0.208979,0.01629 l 0.05123,0.01422 0.01028,3.266661 0.01022,3.26666 0.06902,0.142606 c 0.128889,0.266423 0.389596,0.472259 0.664092,0.524272 0.125102,0.02379 1.648191,0.02365 1.776437,-7.1e-5 0.305717,-0.05666 0.577284,-0.287214 0.688883,-0.584859 0.05658,-0.150965 0.07116,-6.281687 0.01507,-6.343702 -0.01886,-0.02079 -0.04308,-0.03779 -0.05394,-0.03779 -0.0623,0 -0.424319,-0.320222 -0.521486,-0.461328 -0.309647,-0.449539 -0.310361,-0.459327 -0.292357,-4.055926 l 0.01022,-2.048646 0.0768,-0.214767 c 0.0423,-0.118173 0.07681,-0.217268 0.07681,-0.220269 0,-0.02287 -3.01467,0.0033 -3.103621,0.02694 m 10.283172,-0.01036 c -0.0076,0.01243 0.002,0.06094 0.02157,0.107884 0.0195,0.04687 0.04301,0.103668 0.05216,0.126245 0.0091,0.0225 0.02108,0.06859 0.02658,0.102382 0.0054,0.03387 0.02008,0.09838 0.03243,0.143464 0.03587,0.13039 0.02472,5.320023 -0.01164,5.428835 -0.01507,0.04508 -0.02751,0.09824 -0.02765,0.118101 -2.15e-4,0.01986 -0.0086,0.05216 -0.01872,0.07166 -0.01007,0.01957 -0.03494,0.07709 -0.05523,0.127818 -0.09738,0.243774 -0.348372,0.546705 -0.572213,0.690598 -0.05608,0.03608 -0.122673,0.08023 -0.148037,0.09817 l -0.04609,0.03258 v 3.100191 c 0,3.362254 -0.0079,3.115337 0.106455,3.345608 0.04494,0.09052 0.293,0.353729 0.333439,0.353729 0.01279,0 0.07344,0.02537 0.134819,0.05637 l 0.111598,0.05629 h 0.932801 c 1.025824,0 0.977741,0.0053 1.197795,-0.131246 0.09695,-0.06015 0.297002,-0.264065 0.297002,-0.302646 0,-0.01486 0.0093,-0.027 0.0205,-0.027 0.01129,0 0.0205,-0.01693 0.0205,-0.03758 0,-0.02064 0.0064,-0.04401 0.01436,-0.05187 0.0881,-0.0881 0.08745,-0.06358 0.08773,-3.457421 l 3.57e-4,-3.20886 0.04608,-0.01236 c 0.02537,-0.0068 0.115957,-0.01251 0.201407,-0.01265 0.153181,-2.85e-4 0.358803,-0.02908 0.438751,-0.06145 0.264422,-0.107026 0.411529,-0.217124 0.561567,-0.420246 0.07852,-0.106384 0.186188,-0.318507 0.186188,-0.366947 0,-0.01536 0.01251,-0.05187 0.02772,-0.08116 0.03558,-0.06866 0.02586,-4.763956 -0.01022,-4.898846 -0.06866,-0.256992 -0.199762,-0.458828 -0.422246,-0.649947 -0.05608,-0.04822 -0.107669,-0.07788 -0.316649,-0.182187 -0.127961,-0.0638 -0.225698,-0.06802 -1.709992,-0.07394 -1.073836,-0.0044 -1.503155,3.57e-4 -1.513158,0.01643 m 4.292841,0.01729 c 0,0.02165 0.01758,0.08038 0.03908,0.130532 0.108097,0.252134 0.104096,0.136391 0.104524,3.017457 4.29e-4,2.348791 -0.0033,2.679872 -0.03057,2.732671 -0.01715,0.03301 -0.03108,0.08766 -0.03108,0.121316 0,0.03373 -0.0082,0.0663 -0.01815,0.07251 -0.01001,0.0061 -0.02415,0.04279 -0.03137,0.08137 -0.04637,0.247132 -0.382808,0.646946 -0.683525,0.8122 -0.04822,0.02658 -0.09237,0.06716 -0.09809,0.09024 -0.02515,0.101953 0.0014,6.195952 0.027,6.221601 0.01414,0.01414 0.02565,0.04244 0.02565,0.06302 0,0.108741 0.277425,0.431678 0.430177,0.500694 0.02822,0.01279 0.0881,0.04023 0.133176,0.06108 0.09431,0.04372 1.652477,0.06944 1.874532,0.031 0.355159,-0.06151 0.619653,-0.299145 0.734681,-0.660306 0.01701,-0.05337 0.02329,-0.946089 0.02329,-3.303955 v -3.230723 l 0.05251,-0.02 c 0.02894,-0.011 0.12403,-0.02 0.211409,-0.02 0.19269,0 0.374092,-0.0315 0.482548,-0.08388 0.04436,-0.02143 0.08859,-0.03901 0.09817,-0.03901 0.03358,0 0.252063,-0.171971 0.346871,-0.272996 0.09895,-0.105383 0.216339,-0.318507 0.271924,-0.493764 0.04894,-0.154181 0.04859,-4.794965 -3.57e-4,-4.955361 -0.09288,-0.304218 -0.354587,-0.633942 -0.594146,-0.748541 -0.05537,-0.02644 -0.115171,-0.05544 -0.13289,-0.06444 -0.152966,-0.07745 -0.249776,-0.08202 -1.762005,-0.08202 -1.438496,0 -1.473361,10e-4 -1.473361,0.0393"
     stroke="none"
     fill="#040404"
     fill-rule="evenodd"
     style="stroke-width:0.0714462;fill:#ffffff" />
</svg>
