<?xml version="1.0" encoding="UTF-8" standalone="no"?>
<!-- Created with Inkscape (http://www.inkscape.org/) -->

<svg
   width="34.052704"
   height="34.052704"
   viewBox="0 0 34.052702 34.052702"
   id="svg4142"
   version="1.1"
   inkscape:version="1.1 (c68e22c387, 2021-05-23)"
   sodipodi:docname="skole.svg"
   xmlns:inkscape="http://www.inkscape.org/namespaces/inkscape"
   xmlns:sodipodi="http://sodipodi.sourceforge.net/DTD/sodipodi-0.dtd"
   xmlns="http://www.w3.org/2000/svg"
   xmlns:svg="http://www.w3.org/2000/svg"
   xmlns:rdf="http://www.w3.org/1999/02/22-rdf-syntax-ns#"
   xmlns:cc="http://creativecommons.org/ns#"
   xmlns:dc="http://purl.org/dc/elements/1.1/">
  <defs
     id="defs4144" />
  <sodipodi:namedview
     id="base"
     pagecolor="#ffffff"
     bordercolor="#666666"
     borderopacity="1.0"
     inkscape:pageopacity="0.0"
     inkscape:pageshadow="2"
     inkscape:zoom="12"
     inkscape:cx="18.416667"
     inkscape:cy="16.541667"
     inkscape:document-units="px"
     inkscape:current-layer="layer1"
     showgrid="false"
     fit-margin-top="0"
     fit-margin-left="0"
     fit-margin-right="0"
     fit-margin-bottom="0"
     inkscape:window-width="1920"
     inkscape:window-height="1017"
     inkscape:window-x="1912"
     inkscape:window-y="-8"
     inkscape:window-maximized="1"
     units="px"
     inkscape:pagecheckerboard="0" />
  <metadata
     id="metadata4147">
    <rdf:RDF>
      <cc:Work
         rdf:about="">
        <dc:format>image/svg+xml</dc:format>
        <dc:type
           rdf:resource="http://purl.org/dc/dcmitype/StillImage" />
      </cc:Work>
    </rdf:RDF>
  </metadata>
  <g
     inkscape:groupmode="layer"
     id="layer2"
     inkscape:label="Layer 2"
     transform="translate(-88.116508,-89.907295)" />
  <g
     inkscape:label="Layer 1"
     inkscape:groupmode="layer"
     id="layer1"
     transform="translate(-88.116508,-89.907295)">
    <circle
       style="opacity:1;fill:#dc7823;fill-opacity:1;stroke:#ffffff;stroke-width:2.59999967;stroke-miterlimit:4;stroke-dasharray:none;stroke-opacity:1"
       id="path4690"
       cx="105.14286"
       cy="106.93365"
       r="15.726353" />
    <g
       id="g4154"
       transform="matrix(0.96818135,0,0,0.96818135,3.4837899,3.0789314)">
      <path
         style="fill:#ffffff;stroke:none"
         inkscape:connector-curvature="0"
         id="path8"
         d="m 100.71148,96.802512 c -0.2052,0.05933 -0.49245,0.360208 -0.55173,0.574506 -0.0318,0.11404 -0.0502,1.454543 -0.0502,4.021642 0,3.83923 0,3.85291 0.0958,4.05355 0.0548,0.10942 0.18238,0.2599 0.2827,0.33285 l 0.18238,0.13222 -2.799635,0 -2.799638,0 -0.168708,0.11405 c -0.09119,0.0593 -0.214305,0.18694 -0.26902,0.2827 l -0.109435,0.17327 0,3.99882 0,3.99427 0.13679,0.19607 c 0.07752,0.10492 0.227984,0.24166 0.337416,0.30094 l 0.200625,0.10492 4.135621,0 4.135614,0 0.20062,-0.10492 c 0.10943,-0.0593 0.26448,-0.19607 0.33742,-0.30094 l 0.13679,-0.19607 0,-3.99427 0,-3.99882 -0.10942,-0.17327 c -0.0547,-0.0958 -0.17782,-0.22342 -0.26902,-0.2827 l -0.1687,-0.11405 1.45909,0 1.45909,0 -0.16871,0.11405 c -0.0912,0.0593 -0.2143,0.18694 -0.26901,0.2827 l -0.10943,0.17327 0,3.99882 0,3.99427 0.1368,0.19607 c 0.0775,0.10492 0.22798,0.24166 0.3374,0.30094 l 0.20063,0.10492 4.12651,0 c 4.09458,0 4.13106,0 4.32713,-0.0958 0.10943,-0.0501 0.23709,-0.14592 0.28725,-0.20975 0.0912,-0.11404 0.0912,-0.18238 0.0912,-4.29521 0,-4.60982 0.0228,-4.27697 -0.29183,-4.46848 -0.15047,-0.0958 -0.1915,-0.0958 -3.05953,-0.0958 l -2.90907,0 0.18238,-0.13222 c 0.10492,-0.073 0.22799,-0.22343 0.2827,-0.33742 l 0.0957,-0.20063 -0.009,-3.94411 -0.0136,-3.939552 -0.12312,-0.186954 c -0.0685,-0.100303 -0.20063,-0.232536 -0.29639,-0.291819 l -0.17326,-0.109422 -4.1493,-0.0093 c -2.53973,-0.0046 -4.20857,0.0093 -4.29976,0.03636 z m 4.70101,0.97577 c 0.0867,0.03647 0.24167,0.164146 0.34198,0.282688 0.20518,0.237107 0.27357,0.387575 0.69306,1.54117 0.22343,0.61557 0.28726,0.78883 0.36934,0.96665 0.0502,0.10942 0.0867,0.20976 0.0867,0.22343 0,0.0182 0.10493,0.31006 0.23255,0.65202 0.27357,0.73412 0.35109,0.94842 0.54261,1.46366 0.0775,0.2143 0.15958,0.42862 0.17782,0.47878 0.10493,0.24622 0.16414,0.52891 0.16414,0.77513 0,0.42406 -0.20518,0.63835 -0.6657,0.69307 -0.39669,0.0456 -0.69764,-0.16871 -0.85723,-0.62467 -0.0319,-0.0867 -0.073,-0.20063 -0.0958,-0.25079 -0.0182,-0.0501 -0.0638,-0.18238 -0.10027,-0.29638 l -0.0685,-0.20518 -1.29494,0 -1.29494,0 -0.14135,0.41038 c -0.22343,0.66115 -0.35565,0.8481 -0.66114,0.93473 -0.53349,0.15502 -0.99858,-0.15503 -0.99858,-0.66116 0,-0.23254 0.21431,-0.95297 0.43317,-1.45909 0.0548,-0.12767 0.13222,-0.33285 0.34198,-0.91194 0.0501,-0.13678 0.13222,-0.36477 0.18239,-0.50156 0.22342,-0.611 0.28269,-0.7797 0.31917,-0.86634 0.0364,-0.0867 0.13223,-0.35108 0.31462,-0.857215 0.44229,-1.221996 0.60644,-1.527491 0.93474,-1.74179 0.25533,-0.168717 0.70674,-0.186954 1.04416,-0.0456 z m 6.67079,9.233328 c 0.61557,0.13679 1.05785,0.41037 1.16273,0.71586 0.0274,0.0959 0.041,0.26903 0.0274,0.41493 -0.0227,0.20975 -0.0547,0.27815 -0.19606,0.42406 -0.24623,0.25078 -0.50158,0.27358 -0.95299,0.0867 -0.34653,-0.14136 -0.44683,-0.1596 -0.93472,-0.1596 -0.48789,0 -0.53805,0.009 -0.75235,0.12768 -0.29638,0.16416 -0.42861,0.28725 -0.59732,0.53348 -0.26446,0.38757 -0.34197,0.65204 -0.36933,1.20376 -0.0274,0.59275 0.0274,0.93929 0.20975,1.33141 0.18238,0.38758 0.41493,0.62924 0.76603,0.79795 0.28725,0.13679 0.31461,0.14135 0.80705,0.1231 0.42406,-0.0136 0.57452,-0.041 0.93475,-0.16869 0.4742,-0.16414 0.64746,-0.16414 0.9028,0.009 0.18694,0.12767 0.26445,0.31006 0.2599,0.61554 -0.009,0.26446 -0.14136,0.50613 -0.37845,0.68396 -0.35566,0.25991 -1.15815,0.4651 -1.83299,0.4651 -1.491,0 -2.76317,-0.91651 -3.19177,-2.30266 -0.2599,-0.82528 -0.24621,-1.93328 0.0274,-2.75858 0.082,-0.24623 0.36021,-0.77058 0.50155,-0.95754 0.51525,-0.65204 1.32688,-1.11711 2.16585,-1.23567 0.31007,-0.0456 1.14448,-0.0136 1.44085,0.0502 z m -11.82778,0.11854 c 0.54261,0.13224 0.95297,0.44684 1.18096,0.90738 0.17782,0.36478 0.23254,0.93473 0.11856,1.26759 -0.0958,0.28726 -0.31463,0.59276 -0.53349,0.74779 -0.19151,0.13678 -0.22799,0.19607 -0.10943,0.19607 0.15958,0 0.5654,0.24165 0.76603,0.45596 0.30549,0.32375 0.44685,0.66571 0.47421,1.10801 0.041,0.67027 -0.17328,1.22199 -0.62468,1.6369 -0.56084,0.51526 -0.9393,0.59278 -2.717566,0.57454 l -1.331424,-0.0136 -0.182386,-0.12312 c -0.351094,-0.23253 -0.337416,-0.0958 -0.328296,-3.26017 0.0046,-1.54117 0.02735,-2.88626 0.05016,-2.98658 0.0684,-0.31006 0.246222,-0.48333 0.629233,-0.59732 0.159589,-0.0502 2.357349,0.0228 2.608129,0.0867 z" />
      <path
         style="fill:#ffffff;stroke:none"
         inkscape:connector-curvature="0"
         id="path10"
         d="m 104.92461,99.53375 c -0.13223,0.328302 -0.78883,2.39838 -0.77515,2.42575 0.0319,0.0456 1.55485,0.0456 1.58222,0 0.0136,-0.0182 -0.0274,-0.19608 -0.0912,-0.3967 -0.60644,-1.96522 -0.67027,-2.147604 -0.71587,-2.02905 z" />
      <path
         style="fill:#ffffff;stroke:none"
         inkscape:connector-curvature="0"
         id="path12"
         d="m 98.595786,108.61662 c -0.0092,0.0821 -0.01823,0.37388 -0.01823,0.64747 l 0.0046,0.49701 0.487889,-0.004 c 0.551709,-0.004 0.71586,-0.0593 0.857205,-0.29638 0.1824,-0.30093 0.0684,-0.75689 -0.232526,-0.90736 -0.118555,-0.0638 -0.269035,-0.082 -0.615558,-0.082 l -0.460532,0 -0.02279,0.14591 z" />
      <path
         style="fill:#ffffff;stroke:none"
         inkscape:connector-curvature="0"
         id="path14"
         d="m 98.559308,111.91326 0,0.71587 0.697628,-0.0182 c 0.766024,-0.0136 0.962094,-0.0685 1.144484,-0.32373 0.13223,-0.17782 0.13223,-0.56996 0,-0.74324 -0.19151,-0.25989 -0.38302,-0.31462 -1.144484,-0.32829 l -0.697628,-0.0136 0,0.7113 z" />
    </g>
  </g>
</svg>
