<?xml version="1.0" encoding="UTF-8" standalone="no"?>
<svg
   version="1.1"
   width="409"
   height="359.96024"
   style="clip-rule:evenodd;fill-rule:evenodd;image-rendering:optimizeQuality;shape-rendering:geometricPrecision;text-rendering:geometricPrecision"
   id="svg166"
   sodipodi:docname="trekant_roed.svg"
   inkscape:version="1.4.3 (0d15f75042, 2025-12-25)"
   xmlns:inkscape="http://www.inkscape.org/namespaces/inkscape"
   xmlns:sodipodi="http://sodipodi.sourceforge.net/DTD/sodipodi-0.dtd"
   xmlns="http://www.w3.org/2000/svg"
   xmlns:svg="http://www.w3.org/2000/svg">
  <defs
     id="defs170" />
  <sodipodi:namedview
     id="namedview168"
     pagecolor="#ffffff"
     bordercolor="#666666"
     borderopacity="1.0"
     inkscape:pageshadow="2"
     inkscape:pageopacity="0.0"
     inkscape:pagecheckerboard="0"
     showgrid="false"
     fit-margin-top="0"
     fit-margin-left="0"
     fit-margin-right="0"
     fit-margin-bottom="0"
     inkscape:zoom="0.5477773"
     inkscape:cx="687.32311"
     inkscape:cy="219.97991"
     inkscape:window-width="1920"
     inkscape:window-height="1008"
     inkscape:window-x="0"
     inkscape:window-y="0"
     inkscape:window-maximized="1"
     inkscape:current-layer="svg166"
     inkscape:showpageshadow="2"
     inkscape:deskcolor="#d1d1d1" />
  <g
     id="g8"
     transform="translate(0.5,-10.540025)"
     style="fill:#666666">
    <path
       style="opacity:1;fill:#666666"
       fill="#020201"
       d="m 408.5,346.5 c 0,3 0,6 0,9 -2.118,7.615 -7.118,12.449 -15,14.5 -126.667,0.667 -253.333,0.667 -380,0 -6.98737,-2.182 -11.65403,-6.682 -14,-13.5 0,-3 0,-6 0,-9 62.5398,-109.402 125.373,-218.735 188.5,-328 1.597,-2.7192 3.763,-4.8859 6.5,-6.5 10.345,-4.76986 18.845,-2.6032 25.5,6.5 62.874,109.095 125.707,218.095 188.5,327 z"
       id="path6" />
  </g>
  <g
     id="g12"
     transform="translate(0.5,-10.540025)"
     style="fill:#d40000">
    <path
       d="m 367.5,336.5 c -109,0 -218,0 -327,0 54.4883,-94.306 108.988,-188.639 163.5,-283 55.017,94.034 109.517,188.367 163.5,283 z"
       id="path10"
       style="fill:#d40000" />
  </g>
  <g
     id="g148"
     transform="translate(0.5,-10.540025)" />
  <g
     id="g948"
     style="clip-rule:evenodd;fill-rule:evenodd;image-rendering:optimizeQuality;shape-rendering:geometricPrecision;text-rendering:geometricPrecision"
     transform="translate(-56.091949,65.068814)" />
</svg>
