<?xml version="1.0" encoding="UTF-8" standalone="no"?>
<!-- Created with Inkscape (http://www.inkscape.org/) -->

<svg
   width="173.02528mm"
   height="118.35733mm"
   viewBox="0 0 173.02528 118.35733"
   version="1.1"
   id="svg5"
   inkscape:version="1.1 (c68e22c387, 2021-05-23)"
   sodipodi:docname="jernbane_kryds.svg"
   xmlns:inkscape="http://www.inkscape.org/namespaces/inkscape"
   xmlns:sodipodi="http://sodipodi.sourceforge.net/DTD/sodipodi-0.dtd"
   xmlns="http://www.w3.org/2000/svg"
   xmlns:svg="http://www.w3.org/2000/svg">
  <sodipodi:namedview
     id="namedview7"
     pagecolor="#ffffff"
     bordercolor="#666666"
     borderopacity="1.0"
     inkscape:pageshadow="2"
     inkscape:pageopacity="0.0"
     inkscape:pagecheckerboard="0"
     inkscape:document-units="mm"
     showgrid="false"
     fit-margin-top="0"
     fit-margin-left="0"
     fit-margin-right="0"
     fit-margin-bottom="0"
     inkscape:zoom="0.74118967"
     inkscape:cx="215.86917"
     inkscape:cy="394.63583"
     inkscape:window-width="1920"
     inkscape:window-height="1017"
     inkscape:window-x="1912"
     inkscape:window-y="-8"
     inkscape:window-maximized="1"
     inkscape:current-layer="layer1" />
  <defs
     id="defs2" />
  <g
     inkscape:label="Lag 1"
     inkscape:groupmode="layer"
     id="layer1"
     transform="translate(-7.3707723,-44.279033)">
    <path
       d="M 93.866894,103.4584 15.390767,148.75684 7.4228058,134.947 61.974017,103.44112 7.4393422,71.970164 15.425092,58.142685 Z"
       style="fill:none;stroke:#ee293d;stroke-width:0.0762;stroke-linecap:butt;stroke-linejoin:miter;stroke-miterlimit:2.6131;stroke-dasharray:none;stroke-opacity:1"
       id="path24" />
    <path
       d="m 93.866894,103.4584 78.507876,45.29844 7.96925,-13.80984 -54.55144,-31.50588 54.53451,-31.470956 -7.98301,-13.827479 z"
       style="fill:none;stroke:#ee293d;stroke-width:0.0762;stroke-linecap:butt;stroke-linejoin:miter;stroke-miterlimit:2.6131;stroke-dasharray:none;stroke-opacity:1"
       id="path28" />
    <path
       d="M 93.883474,85.020825 23.394413,44.331081 15.425092,58.142685 93.866894,103.4584 172.34408,58.142685 164.37448,44.331081 93.883474,85.020825 v 0"
       style="fill:#ffffff;fill-opacity:1;fill-rule:evenodd;stroke:none;stroke-width:0.0352778"
       id="path30" />
    <path
       d="M 93.883474,85.020825 23.394413,44.331081 15.425092,58.142685 93.866894,103.4584 172.34408,58.142685 164.37448,44.331081 Z"
       style="fill:none;stroke:#010000;stroke-width:1.2;stroke-linecap:butt;stroke-linejoin:miter;stroke-miterlimit:2.61310005;stroke-dasharray:none;stroke-opacity:1"
       id="path32" />
    <path
       d="m 15.390767,148.75684 7.986289,13.82748 70.506418,-40.70633 70.508636,40.70633 7.98266,-13.82748 -78.491296,-45.29844 -78.492707,45.29844 v 0"
       style="fill:#ffffff;fill-opacity:1;fill-rule:evenodd;stroke:none;stroke-width:0.0352778"
       id="path34" />
    <path
       d="m 15.390767,148.75684 7.986289,13.82748 70.506418,-40.70633 70.508636,40.70633 7.98266,-13.82748 -78.491296,-45.29844 z"
       style="fill:none;stroke:#000000;stroke-width:1.2;stroke-linecap:butt;stroke-linejoin:miter;stroke-miterlimit:2.61310005;stroke-dasharray:none;stroke-opacity:1"
       id="path36" />
    <path
       d="M 93.866894,103.4584 15.390767,148.75684 7.4228058,134.947 61.974017,103.44112 7.4393422,71.970164 15.425092,58.142685 93.866894,103.4584 v 0"
       style="fill:#ee293d;fill-opacity:1;fill-rule:evenodd;stroke:#ee293d;stroke-width:1.2;stroke-opacity:1;stroke-miterlimit:4;stroke-dasharray:none"
       id="path22" />
    <path
       d="M 93.866894,103.4584 172.37477,148.75684 180.34402,134.947 125.79258,103.44112 180.32709,71.970164 172.34408,58.142685 93.866894,103.4584 v 0"
       style="fill:#ee293d;fill-opacity:1;fill-rule:evenodd;stroke:#ee293d;stroke-width:1.2;stroke-opacity:1;stroke-miterlimit:4;stroke-dasharray:none"
       id="path26" />
  </g>
</svg>
