<?xml version="1.0" encoding="UTF-8" standalone="no"?>
<svg
   id="svg"
   version="1.1"
   width="400"
   height="64.95726495726495"
   viewBox="0, 0, 400,64.95726495726495"
   sodipodi:docname="spaerring.svg"
   inkscape:version="1.1 (c68e22c387, 2021-05-23)"
   xmlns:inkscape="http://www.inkscape.org/namespaces/inkscape"
   xmlns:sodipodi="http://sodipodi.sourceforge.net/DTD/sodipodi-0.dtd"
   xmlns="http://www.w3.org/2000/svg"
   xmlns:svg="http://www.w3.org/2000/svg">
  <defs
     id="defs8" />
  <sodipodi:namedview
     id="namedview6"
     pagecolor="#ffffff"
     bordercolor="#666666"
     borderopacity="1.0"
     inkscape:pageshadow="2"
     inkscape:pageopacity="0.0"
     inkscape:pagecheckerboard="0"
     showgrid="false"
     inkscape:zoom="2.6575"
     inkscape:cx="240.82785"
     inkscape:cy="32.549389"
     inkscape:window-width="1920"
     inkscape:window-height="1017"
     inkscape:window-x="-8"
     inkscape:window-y="-8"
     inkscape:window-maximized="1"
     inkscape:current-layer="svgg" />
  <g
     id="svgg">
    <path
       id="path0"
       d="m -0.04263311,22.10089 c 0,25.086 -0.146,22.822 1.37900001,21.449 0.387,-0.349 0.929,-0.803 1.204,-1.01 0.722,-0.54 39.3430001,-39.1430001 39.9590001,-39.9390001 0.283,-0.366 0.757,-0.929 1.052,-1.25 0.295,-0.321 0.587,-0.75199997 0.649,-0.95799997 l 0.113,-0.375 h -22.178 -22.17800011 V 22.10089 M 92.028367,0.39288993 c -0.229,0.72399997 -1.898,2.42699997 -31.404,32.03000007 -29.169,29.264 -31.165,31.302 -31.405,32.057 l -0.118,0.373 23.129,-0.043 23.129,-0.042 0.09,-0.344 c 0.188,-0.71 2.442,-3.007 31.384003,-31.989 16.295,-16.317 29.75,-29.8540001 29.9,-30.0840001 0.151,-0.229 0.517,-0.679 0.814,-1 0.297,-0.321 0.591,-0.75199997 0.653,-0.95799997 l 0.113,-0.375 h -23.084 -23.083003 l -0.118,0.375 m 94.000003,-0.003 c -0.239,0.75499997 -2.246,2.80199997 -31.404,32.04500007 -29.394,29.479 -31.183,31.305 -31.373,32.041 l -0.096,0.375 h 23.151 c 22.707,0 23.151,-0.006 23.151,-0.319 0,-0.652 2.511,-3.218 31.249,-31.941 16.147,-16.139 29.681,-29.7700001 30.075,-30.2910001 0.394,-0.522 0.78,-0.949 0.858,-0.949 0.157,0 0.651,-0.87899997 0.651,-1.15799997 0,-0.121 -7.074,-0.175 -23.072,-0.175 h -23.072 l -0.118,0.372 m 93.952,0.211 c -0.116,0.321 -0.275,0.58399997 -0.353,0.58399997 -0.078,0 -0.452,0.393 -0.83,0.875 -0.379,0.481 -13.979,14.1870001 -30.223,30.4580001 -28.992,29.041 -30.95,31.038 -31.279,31.904 l -0.163,0.429 h 23.162 c 22.785,0 23.163,-0.005 23.163,-0.322 0,-0.705 4.723,-5.534 31.933,-32.648 15.574,-15.519 28.654,-28.6360001 29.067,-29.1490001 0.412,-0.512 0.887,-1.051 1.055,-1.198 0.331,-0.289 0.778,-1.05999997 0.778,-1.34099997 0,-0.121 -7.067,-0.175 -23.05,-0.175 h -23.049 l -0.211,0.583 m 94.072,-0.152 c -0.06,0.237 -0.274,0.59699997 -0.477,0.79999997 -0.202,0.203 -0.576,0.628 -0.829,0.944 -0.254,0.316 -13.758,13.8880001 -30.009,30.1580001 -16.251,16.271 -29.975,30.096 -30.497,30.722 -1.665,1.997 -4.383,1.778 22.134,1.778 22.907,0 23.083,-0.002 23.083,-0.33 0,-1.126 40.476,-41.552 42.125,-42.073 l 0.375,-0.119 V 11.17289 0.01788993 h -12.899 -12.898 l -0.108,0.431"
       stroke="none"
       fill="#fcfcfc"
       fill-rule="evenodd"
       style="fill:#ffffff;stroke:#000000;stroke-width:1.5;stroke-miterlimit:4;stroke-dasharray:none;stroke-opacity:1" />
    <path
       id="path1"
       d="M44.243 0.375 C 44.181 0.581,43.889 1.012,43.594 1.333 C 43.299 1.654,42.825 2.217,42.542 2.583 C 41.926 3.379,3.305 41.982,2.583 42.522 C 2.308 42.729,1.766 43.183,1.379 43.532 C 0.991 43.881,0.522 44.167,0.337 44.167 C 0.002 44.167,0.000 44.240,0.000 54.500 L 0.000 64.833 14.572 64.833 L 29.144 64.833 29.262 64.462 C 29.502 63.707,31.503 61.664,60.667 32.405 C 90.173 2.802,91.842 1.099,92.071 0.375 L 92.189 0.000 68.272 0.000 L 44.356 0.000 44.243 0.375 M138.243 0.375 C 138.181 0.581,137.887 1.012,137.590 1.333 C 137.293 1.654,136.927 2.104,136.776 2.333 C 136.626 2.563,123.171 16.101,106.876 32.419 C 77.562 61.775,75.649 63.726,75.461 64.459 L 75.364 64.834 99.300 64.792 L 123.235 64.750 123.326 64.407 C 123.515 63.694,125.667 61.497,154.667 32.415 C 183.824 3.175,185.832 1.127,186.071 0.372 L 186.189 0.000 162.272 0.000 L 138.356 0.000 138.243 0.375 M232.185 0.594 C 232.067 0.921,231.869 1.227,231.745 1.275 C 231.620 1.323,231.201 1.782,230.813 2.296 C 230.425 2.810,216.896 16.434,200.749 32.573 C 184.601 48.712,170.965 62.429,170.445 63.055 C 168.787 65.053,165.958 64.833,193.337 64.833 L 217.175 64.833 217.338 64.404 C 217.667 63.538,219.625 61.541,248.617 32.500 C 264.861 16.229,278.461 2.523,278.840 2.042 C 279.218 1.560,279.585 1.167,279.654 1.167 C 279.789 1.167,280.167 0.423,280.167 0.159 C 280.167 0.059,271.308 0.000,256.283 0.000 L 232.400 0.000 232.185 0.594 M326.263 0.423 C 326.205 0.656,325.953 1.062,325.704 1.326 C 325.454 1.589,324.912 2.219,324.500 2.725 C 324.087 3.232,311.007 16.344,295.433 31.863 C 268.223 58.977,263.500 63.806,263.500 64.511 C 263.500 64.828,263.886 64.833,287.417 64.833 C 310.879 64.833,311.333 64.827,311.333 64.514 C 311.333 63.871,313.761 61.388,342.780 32.333 C 359.031 16.063,372.534 2.487,372.786 2.167 C 373.038 1.846,373.339 1.523,373.456 1.450 C 373.690 1.302,374.167 0.448,374.167 0.175 C 374.167 0.054,366.843 0.000,350.268 0.000 L 326.369 0.000 326.263 0.423 M399.487 22.470 C 397.646 23.263,357.500 63.453,357.500 64.503 C 357.500 64.831,357.671 64.833,378.750 64.833 L 400.000 64.833 400.000 43.583 C 400.000 31.896,399.944 22.339,399.875 22.345 C 399.806 22.351,399.632 22.408,399.487 22.470 "
       stroke="none"
       fill="#e40c04"
       fill-rule="evenodd"
       style="fill:#d40000;stroke:#000000;stroke-opacity:1;stroke-width:1.5;stroke-miterlimit:4;stroke-dasharray:none" />
  </g>
</svg>
