<?xml version="1.0" encoding="UTF-8" standalone="no"?>
<svg
   id="svg"
   version="1.1"
   width="347.58453"
   height="46.543785"
   viewBox="0 0 347.58454 46.543784"
   sodipodi:docname="spaerring.svg"
   inkscape:version="1.1 (c68e22c387, 2021-05-23)"
   xmlns:inkscape="http://www.inkscape.org/namespaces/inkscape"
   xmlns:sodipodi="http://sodipodi.sourceforge.net/DTD/sodipodi-0.dtd"
   xmlns="http://www.w3.org/2000/svg"
   xmlns:svg="http://www.w3.org/2000/svg">
  <defs
     id="defs8" />
  <sodipodi:namedview
     id="namedview6"
     pagecolor="#ffffff"
     bordercolor="#666666"
     borderopacity="1.0"
     inkscape:pageshadow="2"
     inkscape:pageopacity="0.0"
     inkscape:pagecheckerboard="0"
     showgrid="false"
     fit-margin-top="0.3"
     lock-margins="true"
     fit-margin-left="0.3"
     fit-margin-right="0.3"
     fit-margin-bottom="0.3"
     inkscape:zoom="1.32875"
     inkscape:cx="455.31515"
     inkscape:cy="-154.65663"
     inkscape:window-width="1920"
     inkscape:window-height="1017"
     inkscape:window-x="-8"
     inkscape:window-y="-8"
     inkscape:window-maximized="1"
     inkscape:current-layer="svg" />
  <g
     id="svgg"
     transform="translate(-2.6936912,-1.5285843)">
    <path
       id="path0"
       d="m 3.111,2.611 c -0.192,0.193 -0.132,44.206 0.062,44.567 0.244,0.456 346.58793,0.8476 346.76293,0.3906 0.21,-0.548 -0.41916,-45.488099 -0.63116,-45.700099 C 349.08577,1.649501 3.33,2.393 3.111,2.611 m 98.627,1.651 c 0.453,0.453 0.394,41.322 -0.06,41.565 -0.647,0.346 -47.832,0.229 -47.975,-0.119 -0.156,-0.381 -0.156,-41.035 0,-41.416 0.176,-0.428 47.608,-0.457 48.035,-0.03 M 199.625,4.105 200,4.206 v 20.81 20.811 l -0.375,0.09 c -0.206,0.05 -11.062,0.07 -24.125,0.045 L 151.75,45.917 151.704,25.333 C 151.679,14.012 151.699,4.581 151.749,4.375 L 151.84,4 175.545,4.002 c 13.038,0.002 23.874,0.048 24.08,0.103 m 98.053,0.068 C 297.994,4.342 298,4.751 298,25.086 v 20.741 l -0.375,0.09 c -0.206,0.05 -11.363,0.07 -24.792,0.045 l -24.416,-0.045 -0.043,-20.75 C 248.35,13.754 248.367,4.323 248.41,4.208 248.514,3.935 297.167,3.899 297.678,4.173 m 49.905,41.744 -0.043,-20.75 C 347.517,13.754 347.533,4.323 347.577,4.208"
       stroke="none"
       fill="#de1f35"
       fill-rule="evenodd"
       sodipodi:nodetypes="cccsccccccccccccccsccccscccccccccc" />
    <path
       id="path1"
       d="M 0,25 V 50 H 196.6604 L 349.90593,49.90593 C 350.03104,21.473382 350.05575,21.637715 350,-0.18814675 L 196.6604,0 H 0 V 25 M 347.55259,2.4648166 c 0.212,0.212 0.26196,44.6465134 0.052,45.1945134 C 347.42955,48.11633 3.417,47.634 3.173,47.178 2.979,46.817 2.919,2.804 3.111,2.611 m 50.592,1.681 c -0.156,0.381 -0.156,41.035 0,41.416 0.143,0.348 47.328,0.465 47.975,0.119 0.454,-0.243 0.513,-41.112 0.06,-41.565 -0.427,-0.427 -47.859,-0.398 -48.035,0.03 m 98.046,0.083 c -0.05,0.206 -0.07,9.637 -0.045,20.958 l 0.046,20.584 23.75,0.045 c 13.063,0.025 23.919,0.005 24.125,-0.045 L 200,45.827 V 25.016 4.206 L 199.625,4.105 C 199.419,4.05 188.583,4.004 175.545,4.002 L 151.84,4 151.749,4.375 M 248.41,4.208 c -0.043,0.115 -0.06,9.546 -0.036,20.959 l 0.043,20.75 24.416,0.045 c 13.429,0.025 24.586,0.005 24.792,-0.045 L 298,45.827 V 25.086 C 298,4.751 297.994,4.342 297.678,4.173 297.167,3.899 248.514,3.935 248.41,4.208"
       stroke="none"
       fill="#fcf9f9"
       fill-rule="evenodd"
       style="fill:#ffffff"
       sodipodi:nodetypes="cccccccccccccccscccccccccccccccccccscc" />
  </g>
</svg>
