<?xml version="1.0" encoding="UTF-8" standalone="no"?>
<svg
   id="svg"
   version="1.1"
   width="390.09052"
   height="390.09052"
   viewBox="0 0 390.09052 390.09052"
   sodipodi:docname="andet_afsluttet.svg"
   inkscape:version="1.1 (c68e22c387, 2021-05-23)"
   xmlns:inkscape="http://www.inkscape.org/namespaces/inkscape"
   xmlns:sodipodi="http://sodipodi.sourceforge.net/DTD/sodipodi-0.dtd"
   xmlns="http://www.w3.org/2000/svg"
   xmlns:svg="http://www.w3.org/2000/svg">
  <defs
     id="defs8" />
  <sodipodi:namedview
     id="namedview6"
     pagecolor="#ffffff"
     bordercolor="#666666"
     borderopacity="1.0"
     inkscape:pageshadow="2"
     inkscape:pageopacity="0.0"
     inkscape:pagecheckerboard="0"
     showgrid="false"
     fit-margin-top="0"
     fit-margin-left="0"
     fit-margin-right="0"
     fit-margin-bottom="0"
     inkscape:zoom="0.066245342"
     inkscape:cx="196.24021"
     inkscape:cy="188.69251"
     inkscape:window-width="1920"
     inkscape:window-height="1017"
     inkscape:window-x="-8"
     inkscape:window-y="-8"
     inkscape:window-maximized="1"
     inkscape:current-layer="svg" />
  <circle
     style="fill:#338000;stroke:#ffffff;stroke-width:0;stroke-miterlimit:4;stroke-dasharray:none"
     id="path153"
     cx="195.04526"
     cy="195.04526"
     r="195.04526" />
  <path
     id="path0"
     d="m 185.76448,43.615258 c -0.99,0.304 -2.7,0.819 -3.8,1.145 -12.677,3.755 -25.674,17.892 -27.395,29.797 -0.213,1.478 -0.572,3.317 -0.797,4.085 -0.493,1.688 -0.485,6.584 0.015,9.603 0.201,1.21 0.537,5.17 0.748,8.8 0.21,3.630002 0.753,9.085002 1.206,12.122002 0.453,3.037 0.823,7.109 0.823,9.05 0,1.94 0.346,5.665 0.77,8.278 0.423,2.612 0.871,7.18 0.996,10.15 0.124,2.97 0.504,7.11 0.845,9.2 0.34,2.09 0.782,6.68 0.982,10.2 0.199,3.52 0.643,7.84 0.985,9.6 0.342,1.76 0.622,5.059 0.622,7.331 0,2.272 0.346,6.502 0.769,9.4 0.423,2.898 0.867,7.609 0.986,10.469 0.119,2.86 0.582,7.27 1.028,9.8 0.458,2.594 0.813,6.371 0.814,8.66 0.002,2.233 0.343,6.103 0.757,8.6 0.415,2.497 0.869,5.317 1.009,6.267 1.269,8.605 10.259,17.438 20.412,20.055 14.194,3.658 31.201,-7.658 32.825,-21.841 0.148,-1.288 0.613,-4.389 1.034,-6.893 0.421,-2.503 0.766,-5.923 0.766,-7.6 0.001,-1.676 0.271,-4.398 0.602,-6.048 0.33,-1.65 0.781,-5.647 1.001,-8.881 0.22,-3.235 0.682,-7.195 1.026,-8.8 0.345,-1.606 0.791,-5.439 0.993,-8.519 0.202,-3.08 0.63,-6.95 0.951,-8.6 0.322,-1.65 0.594,-4.581 0.606,-6.512 0.012,-1.942 0.468,-5.934 1.021,-8.927 0.55,-2.978 1.001,-6.707 1.003,-8.288 0.001,-1.58 0.36,-4.943 0.797,-7.473 0.437,-2.53 0.796,-6.13 0.799,-8 0.002,-1.87 0.375,-5.29 0.828,-7.6 0.454,-2.31 0.98,-6.63 1.168,-9.6 0.189,-2.97 0.627,-6.84 0.974,-8.6 0.347,-1.76 0.631,-4.730002 0.631,-6.600002 0,-1.87 0.27,-4.811 0.6,-6.535 3.726,-19.471 -8.768,-39.877 -28.4,-46.388 -4.328,-1.435 -17.433,-2.001 -21,-0.907 m 2.8,227.023002 c -21.884,1.966 -38.025,28.024 -30.786,49.702 10.357,31.014 50.917,36.631 69.151,9.575 6.971,-10.343 8.146,-25.349 2.901,-37.048 -4.03,-8.99 -13.759,-18.051 -22.066,-20.552 -0.77,-0.231 -2.12,-0.682 -3,-1.002 -1.959,-0.711 -11.416,-1.105 -16.2,-0.675"
     stroke="none"
     fill="#ffffff"
     fill-rule="evenodd"
     sodipodi:nodetypes="ccccccssccccsssscccccccccccsccccscccsscccccccccc"
     style="fill:#ffffff" />
</svg>
