<?xml version="1.0" encoding="UTF-8" standalone="no"?>
<svg
   id="svg"
   version="1.1"
   width="390.09052"
   height="390.09052"
   viewBox="0 0 390.09052 390.09052"
   sodipodi:docname="bygningsskade_venter.svg"
   inkscape:version="1.1 (c68e22c387, 2021-05-23)"
   xmlns:inkscape="http://www.inkscape.org/namespaces/inkscape"
   xmlns:sodipodi="http://sodipodi.sourceforge.net/DTD/sodipodi-0.dtd"
   xmlns="http://www.w3.org/2000/svg"
   xmlns:svg="http://www.w3.org/2000/svg">
  <defs
     id="defs8" />
  <sodipodi:namedview
     id="namedview6"
     pagecolor="#ffffff"
     bordercolor="#666666"
     borderopacity="1.0"
     inkscape:pageshadow="2"
     inkscape:pageopacity="0.0"
     inkscape:pagecheckerboard="0"
     showgrid="false"
     fit-margin-top="0"
     fit-margin-left="0"
     fit-margin-right="0"
     fit-margin-bottom="0"
     inkscape:zoom="0.33487128"
     inkscape:cx="194.10443"
     inkscape:cy="192.61132"
     inkscape:window-width="1920"
     inkscape:window-height="1017"
     inkscape:window-x="1912"
     inkscape:window-y="-8"
     inkscape:window-maximized="1"
     inkscape:current-layer="svg" />
  <circle
     style="fill:#d40000;stroke:#ffffff;stroke-width:0;stroke-miterlimit:4;stroke-dasharray:none"
     id="path153"
     cx="195.04526"
     cy="195.04526"
     r="195.04526" />
  <path
     id="path0"
     d="m 187.23359,52.467757 c -4.41191,0.547753 -8.61798,2.455483 -13.01882,5.904666 -1.73621,1.361083 -3.24447,2.584952 -3.35291,2.719953 -0.33861,0.421604 -5.96664,4.916498 -6.67705,5.332569 -0.37071,0.217995 -1.10658,0.845421 -1.63441,1.39428 -0.52784,0.549966 -2.20208,1.960845 -3.7214,3.134918 -1.51822,1.175179 -4.03014,3.254427 -5.58155,4.622149 -1.55141,1.367723 -2.98332,2.486467 -3.18139,2.486467 -2.14564,0 -2.8118,2.993276 -1.89445,8.510642 0.32312,1.936501 0.76243,5.207526 0.9771,7.269072 0.9605,9.223267 1.23051,10.016677 3.56537,10.491397 1.42637,0.28992 7.36202,2.49643 9.8507,3.66165 2.49311,1.16743 6.07176,3.28873 10.66404,6.32074 5.7431,3.79222 4.73612,3.23119 14.20174,7.91199 4.44841,2.19986 8.3535,4.16956 8.67884,4.37648 0.32533,0.20804 1.03575,0.56104 1.57797,0.78567 4.20165,1.73842 5.9777,2.94569 5.7752,3.92722 -0.11288,0.54444 -0.40833,1.96085 -0.65731,3.1482 -0.40943,1.96084 -2.30388,7.29231 -3.7557,10.57661 -0.31538,0.71263 -0.57874,1.51158 -0.58649,1.77494 -0.008,0.26447 -0.35631,1.18957 -0.7757,2.05822 -0.41939,0.86756 -0.76796,1.85241 -0.77571,2.1888 -0.007,0.3364 -0.17373,0.78014 -0.3707,0.98707 -0.19697,0.20582 -0.54111,0.99591 -0.76575,1.75502 -0.40279,1.36883 -0.82107,2.52077 -2.43778,6.70693 -0.46033,1.19288 -0.99923,2.70225 -1.1962,3.35291 -0.19808,0.65066 -0.51566,1.53814 -0.7071,1.97302 -0.19144,0.43377 -0.7414,1.85351 -1.22165,3.15594 -1.30133,3.52554 -2.01618,5.3879 -2.57168,6.70804 -0.27443,0.65177 -0.62521,1.75945 -0.78013,2.46101 -0.15381,0.70157 -0.44373,1.37658 -0.64402,1.50051 -0.20029,0.12394 -0.36407,0.49907 -0.36407,0.83325 0,0.33419 -0.24012,1.16633 -0.53336,1.85019 -0.29214,0.68386 -0.92842,2.30831 -1.41199,3.60964 -1.53703,4.13304 -1.89666,5.09133 -2.51524,6.70693 -0.33197,0.86755 -0.99923,2.6436 -1.48391,3.94493 -0.48357,1.30243 -1.11985,2.92688 -1.41309,3.60963 -0.83989,1.96085 -0.64403,3.61738 0.68275,5.77299 0.66837,1.08665 1.38101,2.34814 1.58351,2.80516 0.2025,0.45701 0.67722,1.30354 1.05345,1.88117 1.09994,1.68752 5.22081,8.64453 5.22081,8.81495 0,0.0852 0.51013,0.91845 1.13313,1.85129 0.62189,0.93284 1.79375,2.93905 2.60376,4.45838 0.80891,1.51821 1.69306,3.02758 1.96306,3.35291 0.27111,0.32533 0.60972,0.85759 0.75358,1.18292 0.27664,0.62854 0.51787,1.0435 4.3289,7.43617 1.33896,2.24523 2.94016,4.99727 3.55874,6.11491 0.61857,1.11764 1.37215,2.31274 1.67645,2.65467 0.3032,0.34303 0.55218,0.74583 0.55218,0.89521 0,0.1505 0.48247,1.02358 1.07227,1.94204 0.5898,0.91734 1.45957,2.37913 1.93207,3.24668 0.47362,0.86755 2.1888,3.79664 3.81325,6.50885 1.70191,2.84389 2.83614,5.14445 2.68012,5.43548 -0.2855,0.53116 -31.35028,19.02418 -31.95779,19.02418 -0.30763,0 -2.40237,-3.02094 -3.28209,-4.73391 -0.1671,-0.32644 -0.65509,-1.12428 -1.08444,-1.77605 -0.42935,-0.65066 -0.90075,-1.44961 -1.04903,-1.77494 -0.20804,-0.45812 -8.18531,-13.97268 -10.01337,-16.96374 -0.19918,-0.32534 -3.23119,-5.47311 -6.73791,-11.43974 -14.26039,-24.2649 -18.91906,-32.18132 -19.26874,-32.74346 -0.20139,-0.32643 -1.1121,-1.83469 -2.0217,-3.35401 -0.9096,-1.51822 -1.90441,-3.05193 -2.20983,-3.40603 -0.7746,-0.89743 -0.74583,-5.06367 0.0443,-6.59185 0.34303,-0.66284 0.623,-1.82363 0.623,-2.57831 0,-0.75468 0.26668,-1.63773 0.59201,-1.96417 0.32533,-0.32533 0.59202,-0.78234 0.59202,-1.01583 0,-0.23238 0.35521,-1.08555 0.78898,-1.89556 0.43378,-0.81001 0.79452,-1.74063 0.80116,-2.07039 0.007,-0.32865 0.27333,-0.94169 0.59202,-1.3633 0.31869,-0.42049 0.57873,-1.06452 0.57873,-1.43079 0,-0.36517 0.26669,-0.88637 0.59202,-1.15637 0.32533,-0.27001 0.59202,-0.79341 0.59202,-1.1619 0,-0.58095 1.52485,-4.43846 3.38389,-8.56265 0.30874,-0.68386 0.56103,-1.51711 0.56103,-1.85019 0,-0.33419 0.17042,-0.71374 0.37956,-0.84321 0.20914,-0.12836 0.54996,-0.80448 0.758,-1.50272 0.20804,-0.69714 0.72923,-2.1545 1.15747,-3.24004 0.42935,-1.08444 1.52043,-3.83649 2.4245,-6.11492 0.90518,-2.27843 1.91326,-4.85232 2.24192,-5.71987 0.32754,-0.86755 0.84874,-2.08035 1.15747,-2.6945 0.30763,-0.61415 0.56103,-1.32457 0.56214,-1.57797 0.001,-0.25451 0.26226,-0.96051 0.58095,-1.57023 1.55363,-2.97889 0.9594,-3.5023 -9.26201,-8.15875 -0.9771,-0.44484 -2.04162,-0.98263 -2.36695,-1.1951 -1.13645,-0.7414 -6.62062,-3.14819 -7.17391,-3.14819 -0.30762,0 -0.74472,-0.18591 -0.97267,-0.41386 -0.23792,-0.23791 -4.16625,-0.58538 -9.25094,-0.81665 -6.00426,-0.27332 -8.99754,-0.55993 -9.33947,-0.8919 -0.31316,-0.3043 -0.79451,-3.44697 -1.2803,-8.35461 -2.2231,-22.48333 -1.78269,-21.27163 -6.35504,-17.49822 -1.599,1.32014 -3.88407,3.20131 -5.07806,4.17952 -1.19288,0.97932 -2.95012,2.42893 -3.903982,3.22123 -0.95387,0.79342 -2.506386,2.06265 -3.449186,2.82287 -6.48119,5.2208 -8.34465,6.75008 -10.51464,8.62572 -1.3467,1.16411 -2.89258,2.49643 -3.4348,2.96229 -0.54222,0.46587 -1.71186,1.33674 -2.59823,1.9354 -1.61781,1.0944 -5.028265,3.84201 -6.869601,5.53617 -1.924328,1.77052 -6.291966,5.39897 -6.497788,5.39897 -0.115084,0 -0.535581,0.31094 -0.935053,0.6905 -0.398366,0.37955 -1.741744,1.48944 -2.98553,2.46544 -1.243787,0.976 -3.279879,2.66241 -4.525878,3.74796 -1.246,1.08444 -2.936841,2.50528 -3.757918,3.15594 -4.479402,3.5521 -4.981785,4.18948 -5.446545,6.90833 -0.638492,3.73578 0.822183,7.03779 3.79886,8.59031 l 2.005108,1.04571 13.329762,0.20914 c 11.261583,0.17706 13.387313,0.3021 13.702683,0.80116 0.23017,0.36628 0.37513,24.36339 0.37955,62.81012 0.006,60.67 0.0243,62.26567 0.77239,64.16234 2.75204,6.98246 7.88211,11.52383 14.60785,12.93139 3.311968,0.69272 181.645948,0.81001 186.336708,0.12283 2.52851,-0.3707 4.35989,-0.96603 6.19016,-2.00953 0.32533,-0.1859 0.94722,-0.49574 1.381,-0.68829 2.42339,-1.07448 6.88951,-6.3661 7.53132,-8.92229 0.15603,-0.61968 0.5212,-1.5835 0.81112,-2.1401 0.43488,-0.83325 0.52894,-12.03618 0.53116,-63.38111 0.002,-59.91864 0.031,-62.39404 0.72369,-63.02147 0.63518,-0.57431 2.04274,-0.65287 11.7363,-0.65509 15.57168,-0.004 15.96783,-0.0564 18.30934,-2.39794 4.37206,-4.37206 3.43701,-9.5641 -2.53184,-14.06342 -1.31793,-0.99259 -2.57278,-2.0051 -2.78967,-2.25076 -0.21688,-0.24455 -1.72625,-1.48059 -3.35291,-2.74541 -1.62777,-1.26481 -3.93607,-3.15262 -5.12896,-4.19501 -1.19288,-1.0435 -3.12164,-2.66573 -4.28464,-3.60521 -1.16301,-0.93948 -3.47132,-2.8129 -5.12896,-4.16292 -1.65654,-1.35002 -4.39088,-3.53439 -6.07397,-4.85343 -1.68421,-1.31903 -3.37062,-2.70888 -3.74796,-3.08844 -0.37734,-0.37955 -1.92986,-1.64547 -3.44808,-2.81401 -1.51932,-1.16743 -3.42705,-2.74872 -4.24149,-3.51226 l -1.47838,-1.38874 V 95.387243 c 0,-25.616025 -0.0741,-29.244474 -0.62521,-30.591171 -1.25485,-3.065204 0.13057,-2.889259 -22.88058,-2.899218 l -20.54682,-0.0089 -1.4474,1.446289 -1.44629,1.447396 v 10.16718 c 0,5.592613 -0.13721,10.253493 -0.30431,10.356404 -0.1682,0.104018 -1.38542,-0.640705 -2.70556,-1.653218 -6.71689,-5.153304 -7.97617,-6.162497 -9.6139,-7.707271 -0.97599,-0.920668 -3.19578,-2.779708 -4.93088,-4.129726 -5.66565,-4.406368 -8.65118,-6.819801 -10.25681,-8.287114 -0.86866,-0.793412 -2.91029,-2.498639 -4.53695,-3.788902 -1.62776,-1.290262 -3.0475,-2.459908 -3.15594,-2.599337 -0.10844,-0.138321 -1.52928,-0.918454 -3.15594,-1.732891 -1.62777,-0.815543 -3.31418,-1.673136 -3.74796,-1.907729 -0.89411,-0.482465 -6.58853,-1.479486 -8.08793,-1.415305 -0.54222,0.02324 -2.22864,0.195863 -3.74685,0.38398"
     stroke="none"
     fill="#ffffff"
     fill-rule="evenodd"
     style="fill:#ffffff;stroke-width:1.10657" />
</svg>
