<?xml version="1.0" encoding="UTF-8" standalone="no"?>
<svg
   id="svg"
   version="1.1"
   width="390.09052"
   height="390.09052"
   viewBox="0 0 390.09052 390.09052"
   sodipodi:docname="drikkevandsforurening_afsluttet.svg"
   inkscape:version="1.1 (c68e22c387, 2021-05-23)"
   xmlns:inkscape="http://www.inkscape.org/namespaces/inkscape"
   xmlns:sodipodi="http://sodipodi.sourceforge.net/DTD/sodipodi-0.dtd"
   xmlns="http://www.w3.org/2000/svg"
   xmlns:svg="http://www.w3.org/2000/svg">
  <defs
     id="defs8" />
  <sodipodi:namedview
     id="namedview6"
     pagecolor="#ffffff"
     bordercolor="#666666"
     borderopacity="1.0"
     inkscape:pageshadow="2"
     inkscape:pageopacity="0.0"
     inkscape:pagecheckerboard="0"
     showgrid="false"
     fit-margin-top="0"
     fit-margin-left="0"
     fit-margin-right="0"
     fit-margin-bottom="0"
     inkscape:zoom="0.67521728"
     inkscape:cx="194.01162"
     inkscape:cy="191.79011"
     inkscape:window-width="1920"
     inkscape:window-height="1017"
     inkscape:window-x="-8"
     inkscape:window-y="-8"
     inkscape:window-maximized="1"
     inkscape:current-layer="svg" />
  <circle
     style="fill:#338000;stroke:#ffffff;stroke-width:0;stroke-miterlimit:4;stroke-dasharray:none"
     id="path153"
     cx="195.04526"
     cy="195.04526"
     r="195.04526" />
  <path
     id="path0"
     d="m 76.487604,62.725192 c -0.299544,0.361244 -0.377339,1.110558 -0.233375,2.235423 0.119815,0.930831 0.626813,4.971581 1.127544,8.978352 0.500742,4.007666 0.974645,7.389414 1.051543,7.514597 0.07775,0.125185 0.325487,2.157636 0.549915,4.516452 0.225336,2.359712 0.639336,5.576934 0.920998,7.150677 0.281662,1.573722 0.675101,4.631778 0.874494,6.795668 0.199405,2.162989 0.594626,5.221059 0.878968,6.795689 0.284352,1.57374 0.675997,4.47085 0.870031,6.43802 0.411321,4.1561 2.095036,17.13943 2.379378,18.35282 0.107303,0.45424 0.499845,3.43182 0.872711,6.61685 0.634863,5.42582 1.267932,10.38041 2.132594,16.6986 0.202084,1.47539 0.68315,5.25772 1.070322,8.40519 0.386285,3.14748 0.87807,6.84934 1.09178,8.22636 0.214607,1.37702 0.551708,4.11318 0.750205,6.08035 0.198508,1.96717 0.582103,4.86429 0.85215,6.43802 0.270932,1.57374 0.595511,3.988 0.72249,5.36502 0.126072,1.37701 0.540072,4.59603 0.918308,7.15335 0.379122,2.55733 0.852139,6.31462 1.051543,8.34886 0.20029,2.03512 0.435459,3.81542 0.523087,3.95759 0.08767,0.14127 0.414892,2.66104 0.727856,5.59929 0.312953,2.93824 0.796699,6.63026 1.074784,8.20399 0.278983,1.57375 0.608932,4.06848 0.73322,5.54385 0.125186,1.47539 0.450662,4.05059 0.722491,5.72268 0.272716,1.6721 0.822631,5.83267 1.222325,9.24482 0.399695,3.41215 0.793134,6.31105 0.872714,6.4416 0.0805,0.12966 0.32547,2.16568 0.54454,4.52449 0.21908,2.35971 0.63039,5.73789 0.91564,7.50834 0.51951,3.23511 1.07031,7.44038 2.31858,17.70455 0.37019,3.04912 0.92636,7.3143 1.23573,9.47819 0.86646,6.06426 1.58985,11.69484 2.18178,16.98922 0.29776,2.65568 0.77256,6.19659 1.05691,7.86868 0.28345,1.6721 0.69209,4.81063 0.90669,6.97453 0.21459,2.16388 0.53649,4.58887 0.71444,5.38826 0.17883,0.79939 0.51056,3.37459 0.73768,5.72268 0.80296,8.28895 3.79396,12.48529 9.94495,13.95619 3.18056,0.76094 141.27604,0.73143 144.89921,-0.0313 6.12685,-1.28851 9.34407,-5.75577 10.03974,-13.93921 0.18509,-2.16926 0.49269,-4.58709 0.68404,-5.37395 0.19135,-0.78687 0.52219,-3.28161 0.7359,-5.54385 0.21281,-2.26226 0.52934,-4.75699 0.70282,-5.54385 0.17257,-0.78687 0.64737,-4.38769 1.05422,-8.00103 0.40685,-3.61334 0.80476,-6.67497 0.88434,-6.80284 0.0795,-0.12875 0.40147,-2.56358 0.71533,-5.4124 0.31385,-2.84793 0.80296,-6.54622 1.08731,-8.21831 0.28434,-1.6721 0.61251,-4.2473 0.72875,-5.72268 0.11624,-1.47539 0.52666,-4.85534 0.91205,-7.51102 1.06585,-7.34919 1.75078,-12.58365 2.315,-17.70455 0.28256,-2.55732 0.74932,-6.09824 1.03814,-7.8687 0.28791,-1.77044 0.70102,-4.90898 0.91652,-6.97451 0.21549,-2.06553 0.61519,-5.04312 0.8888,-6.61685 0.27273,-1.57375 0.59731,-4.14895 0.7207,-5.72268 0.1234,-1.57375 0.45156,-4.14895 0.72874,-5.72268 0.2772,-1.57375 0.67958,-4.6318 0.89507,-6.79569 0.21549,-2.16389 0.61429,-5.22195 0.88702,-6.79569 0.27361,-1.57373 0.60088,-3.98799 0.72874,-5.36501 0.12787,-1.37703 0.4605,-4.11318 0.73948,-6.08035 0.27898,-1.96718 0.74753,-5.74951 1.04171,-8.40519 0.29419,-2.65569 0.69388,-5.55279 0.88791,-6.43802 0.19404,-0.88523 0.59104,-3.78233 0.88165,-6.43802 0.2915,-2.65568 0.77436,-6.19659 1.07211,-7.86869 0.29865,-1.6721 0.54276,-3.87085 0.54276,-4.88663 8.9e-4,-1.01488 0.23338,-3.06342 0.51862,-4.55132 0.28434,-1.4879 0.69209,-4.35907 0.90668,-6.3799 0.21371,-2.02172 0.69388,-5.76739 1.06765,-8.32472 0.37286,-2.55732 0.86734,-6.5006 1.09714,-8.76285 0.2298,-2.26225 0.48196,-4.2178 0.55975,-4.34656 0.0787,-0.12876 0.47123,-3.01961 0.8736,-6.4255 0.40238,-3.405 0.87629,-6.84129 1.05334,-7.63531 0.17615,-0.79402 0.49268,-3.43271 0.70281,-5.86485 0.21014,-2.43214 0.4605,-4.54864 0.55707,-4.70422 0.0957,-0.15559 0.49895,-3.07505 0.89507,-6.48721 0.397,-3.412136 0.87717,-7.009377 1.06673,-7.992957 0.18957,-0.983591 0.51683,-3.558796 0.72697,-5.722681 0.21101,-2.163896 0.61429,-5.382907 0.89684,-7.153362 0.28167,-1.770454 0.75558,-5.39184 1.05065,-8.047521 0.29598,-2.655683 0.70103,-5.390947 0.89954,-6.077668 0.48464,-1.672097 0.45961,-2.000256 -0.20029,-2.659259 -0.8441,-0.84499 -233.014214,-0.864661 -233.715246,-0.01967 M 298.47761,73.09125 c 0.3201,0.431883 0.45781,1.140065 0.34873,1.788338 -0.10012,0.590151 -0.43546,3.004408 -0.74664,5.365015 -0.31028,2.360614 -0.88523,6.625807 -1.27777,9.478201 -0.39164,2.852395 -0.87717,6.795673 -1.07836,8.762847 -0.2012,1.967169 -0.45425,3.818099 -0.56333,4.113179 -0.10909,0.29507 -0.49269,3.03123 -0.85214,6.08035 -0.70371,5.95695 -1.48969,12.12672 -2.34809,18.41988 -0.29508,2.16389 -0.70193,5.3829 -0.9049,7.15335 -0.20298,1.77046 -0.66795,5.15042 -1.03276,7.51102 -0.36393,2.36061 -0.76988,5.66009 -0.90044,7.33219 -0.13144,1.6721 -0.38091,3.70365 -0.55527,4.51377 -0.17437,0.81101 -0.5669,3.61602 -0.87271,6.23325 -0.70372,6.02312 -0.78151,6.16797 -4.67204,8.74587 -16.23274,10.75506 -21.49761,12.87514 -36.99446,14.89238 -7.11758,0.92636 -20.0875,-0.24678 -27.71924,-2.50814 -3.80201,-1.12665 -9.29757,-3.5892 -13.00212,-5.8264 -1.24915,-0.75468 -2.32573,-1.37166 -2.3919,-1.37166 -0.0653,0 -1.17761,-0.72428 -2.47058,-1.6095 -1.29298,-0.88523 -2.425,-1.60951 -2.5153,-1.60951 -0.0903,0 -1.33678,-0.77703 -2.76835,-1.72574 -9.65076,-6.39689 -12.39944,-7.91162 -19.59304,-10.79799 -15.25005,-6.12059 -42.13682,-6.10628 -55.71657,0.0295 -0.84141,0.38002 -1.68551,0.69119 -1.87507,0.69119 -1.08284,0 -10.6111,5.1674 -14.97555,8.12084 -2.56447,1.73648 -3.041951,1.29119 -3.615118,-3.37369 -0.212813,-1.72575 -0.695662,-5.31048 -1.073898,-7.96616 -0.670627,-4.71317 -1.279559,-9.53631 -2.348087,-18.59872 -0.289711,-2.45896 -0.761831,-5.83892 -1.048859,-7.51102 -0.287021,-1.67209 -0.61697,-4.2473 -0.73322,-5.72268 -0.117136,-1.47538 -0.438138,-4.05058 -0.715327,-5.72268 -0.276303,-1.6721 -0.74127,-5.13253 -1.031878,-7.68985 -0.291494,-2.55733 -0.774344,-6.42014 -1.073898,-8.58403 -1.028291,-7.436798 -1.646158,-12.172312 -2.335564,-17.883367 -0.380019,-3.147487 -0.855726,-6.567685 -1.057799,-7.601343 -0.414897,-2.121864 -0.07068,-3.511403 0.935293,-3.773395 2.56627,-0.668838 209.072835,-0.03308 209.576255,0.644697"
     stroke="none"
     fill="#ffffff"
     fill-rule="evenodd"
     style="fill:#ffffff;stroke-width:0.89417" />
</svg>
