<?xml version="1.0" encoding="UTF-8" standalone="no"?>
<svg
   id="svg"
   version="1.1"
   width="390.09052"
   height="390.09052"
   viewBox="0 0 390.09052 390.09052"
   sodipodi:docname="nedfaldbygn_igang.svg"
   inkscape:version="1.1 (c68e22c387, 2021-05-23)"
   xmlns:inkscape="http://www.inkscape.org/namespaces/inkscape"
   xmlns:sodipodi="http://sodipodi.sourceforge.net/DTD/sodipodi-0.dtd"
   xmlns="http://www.w3.org/2000/svg"
   xmlns:svg="http://www.w3.org/2000/svg">
  <defs
     id="defs8" />
  <sodipodi:namedview
     id="namedview6"
     pagecolor="#ffffff"
     bordercolor="#666666"
     borderopacity="1.0"
     inkscape:pageshadow="2"
     inkscape:pageopacity="0.0"
     inkscape:pagecheckerboard="0"
     showgrid="false"
     fit-margin-top="0"
     fit-margin-left="0"
     fit-margin-right="0"
     fit-margin-bottom="0"
     inkscape:zoom="0.42224253"
     inkscape:cx="191.83288"
     inkscape:cy="190.64872"
     inkscape:window-width="1920"
     inkscape:window-height="1017"
     inkscape:window-x="-8"
     inkscape:window-y="-8"
     inkscape:window-maximized="1"
     inkscape:current-layer="svg" />
  <circle
     style="fill:#ff6600;stroke:#ffffff;stroke-width:0;stroke-miterlimit:4;stroke-dasharray:none"
     id="path153"
     cx="195.04526"
     cy="195.04526"
     r="195.04526" />
  <path
     id="path1"
     d="m 168.03365,48.604947 c -0.70769,0.166258 -1.36488,0.420432 -1.4615,0.565799 -0.0975,0.145367 -0.87743,0.52924 -1.73483,0.853051 -0.85653,0.323811 -1.70262,0.858273 -1.87845,1.188177 -0.1767,0.329904 -0.52663,0.599747 -0.77819,0.599747 -0.25156,0 -0.64849,0.262008 -0.88178,0.581467 -0.23415,0.320329 -0.86436,0.889609 -1.40144,1.265648 -0.53707,0.376038 -3.02223,2.759357 -5.52132,5.296746 -2.49996,2.53739 -4.96597,5.00079 -5.48042,5.47432 -0.51444,0.47353 -1.75658,1.718288 -2.76022,2.766321 -1.00451,1.047163 -2.24405,2.290179 -2.75414,2.760227 -1.24911,1.152489 -3.42874,3.337342 -4.46284,4.475033 -0.46396,0.510089 -1.7061,1.757458 -2.76023,2.770673 -1.055,1.013215 -2.73934,2.694072 -3.74298,3.735142 -1.00451,1.041069 -2.24665,2.281474 -2.76109,2.755875 -3.46617,3.198939 -86.771767,86.947587 -86.938895,87.401097 -0.115771,0.31249 -0.350795,0.56841 -0.524017,0.56841 -0.172351,0 -0.642399,0.58408 -1.044551,1.29873 -0.401282,0.71464 -0.826066,1.29959 -0.944449,1.29959 -0.117512,0 -0.565798,1.05935 -0.995805,2.35459 -0.430007,1.29525 -0.925299,2.45731 -1.102002,2.58353 -0.477012,0.34122 -0.385614,7.8176 0.09749,7.9795 0.212392,0.0705 0.385614,0.37778 0.385614,0.68157 0,0.92704 1.123763,3.81087 1.716546,4.40366 0.306402,0.3064 0.557094,0.70942 0.557094,0.89657 0,0.65546 3.874416,4.15731 5.177494,4.67872 0.725093,0.28986 1.318746,0.63369 1.318746,0.76339 0,0.96534 4.233915,1.43887 14.047476,1.57031 l 9.987652,0.13492 v 51.61129 c 0,28.77827 0.12361,51.61129 0.28029,51.61129 0.15407,0 0.37517,0.69463 0.49007,1.54333 0.27768,2.04035 1.12724,4.56294 1.78531,5.29587 0.29161,0.32468 0.82172,0.98797 1.17947,1.47456 0.63022,0.85914 1.91937,2.19008 3.24769,3.35562 0.35689,0.31337 1.16119,0.76775 1.78618,1.00886 0.62499,0.24199 1.22822,0.5719 1.33877,0.73467 0.31075,0.45351 3.82306,1.19253 5.6989,1.19775 1.02018,0.003 1.75223,0.16452 1.86713,0.41173 0.14972,0.32033 0.23068,0.31772 0.38388,-0.0139 0.15407,-0.33251 0.29334,-0.33686 0.6746,-0.0209 0.383,0.31859 0.54491,0.30466 0.80431,-0.0679 0.24808,-0.35515 0.36385,-0.36995 0.49007,-0.0601 0.20629,0.50834 7.58083,0.58756 7.58083,0.081 0,-0.42914 5.743287,-0.42914 6.008777,0 0.26462,0.42827 7.20567,0.42827 7.47029,0 0.11055,-0.17845 1.50763,-0.32468 3.10493,-0.32468 1.71915,0 2.90385,0.13231 2.90385,0.32468 0,0.21587 17.59286,0.32468 52.13008,0.32468 34.53723,0 52.13009,-0.10881 52.13009,-0.32468 0,-0.18019 0.8661,-0.32468 1.94895,-0.32468 1.08286,0 1.94896,0.14449 1.94896,0.32468 0,0.19759 1.4615,0.32468 3.73515,0.32468 2.27364,0 3.73514,-0.12709 3.73514,-0.32468 0,-0.19237 1.18469,-0.32468 2.90385,-0.32468 1.59729,0 2.99438,0.14623 3.10493,0.32468 0.26723,0.43262 7.30751,0.43262 7.30751,0 0,-0.19324 1.24563,-0.32468 3.08578,-0.32468 1.84102,0 3.08578,0.13144 3.08578,0.32468 0,0.18367 0.92007,0.32468 2.11086,0.32468 1.19079,0 2.11174,-0.14101 2.11174,-0.32468 0,-0.17845 0.62673,-0.32468 1.39273,-0.32468 1.58859,0 5.15225,-0.85392 5.42906,-1.30047 0.10097,-0.16452 0.719,-0.5214 1.37271,-0.79473 0.65372,-0.27332 1.30656,-0.68244 1.45019,-0.90876 0.14362,-0.22719 0.79037,-0.766 1.43713,-1.19862 0.64588,-0.43175 1.51808,-1.41363 1.93764,-2.18137 0.41869,-0.76775 0.92095,-1.45628 1.11593,-1.53114 0.19411,-0.0749 0.55883,-0.7721 0.80953,-1.55029 0.25069,-0.77819 0.55187,-1.48849 0.66851,-1.57727 0.85653,-0.65198 0.95141,-6.11846 0.95141,-55.13926 v -50.70168 l -0.71639,-0.22719 c -0.39344,-0.12448 -0.91572,-0.42653 -1.15945,-0.67113 -0.2446,-0.2446 -0.63543,-0.4448 -0.86872,-0.4448 -0.23328,0 -0.60584,-0.21936 -0.82868,-0.48659 -0.22196,-0.2681 -0.66329,-0.48746 -0.97926,-0.48746 -0.31685,0 -0.65198,-0.20107 -0.74686,-0.44654 -0.094,-0.24547 -0.85914,-0.54926 -1.70087,-0.67548 -1.45715,-0.21935 -3.044,-0.76165 -3.39393,-1.16206 -0.0888,-0.10185 -0.89309,-0.45699 -1.78618,-0.78864 -0.89309,-0.33164 -1.6974,-0.6894 -1.78618,-0.7956 -0.41086,-0.48571 -2.23273,-1.29089 -3.41046,-1.50763 -0.71465,-0.13144 -1.37272,-0.33078 -1.4615,-0.44133 -0.22458,-0.27941 -4.35491,-1.653 -4.96859,-1.653 -0.27506,0 -0.54752,-0.10968 -0.60758,-0.24373 -0.15668,-0.35341 -2.19095,-1.38055 -2.73237,-1.38055 -0.25418,0 -0.46135,-0.12621 -0.46135,-0.28029 0,-0.15494 -0.69375,-0.37603 -1.54245,-0.49181 -1.47717,-0.20194 -4.28788,-1.10548 -4.62823,-1.48761 -0.0897,-0.1001 -0.70333,-0.4657 -1.36314,-0.81214 -1.37707,-0.72161 -1.26391,-0.27855 -2.09259,-8.21453 -0.30379,-2.90298 -0.67286,-5.27846 -0.82171,-5.27846 -0.14885,0 -0.27071,-0.4744 -0.27071,-1.055 0,-0.5806 -0.21936,-2.29801 -0.48659,-3.81697 -0.26723,-1.51808 -0.48659,-3.30861 -0.48659,-3.97887 -8.7e-4,-0.66938 -0.12447,-1.21777 -0.27506,-1.21777 -0.32294,0 -1.34922,-4.45414 -1.34922,-5.85558 0,-0.7486 -0.14623,-0.96534 -0.65023,-0.96534 -0.35689,0 -0.64936,-0.13318 -0.64936,-0.29596 0,-0.16277 -1.75659,-0.40128 -3.90401,-0.52924 -2.1483,-0.12795 -3.98323,-0.36037 -4.07985,-0.51618 -0.0958,-0.15494 -0.81127,-0.28203 -1.58946,-0.28203 -0.77906,0 -1.46411,-0.14275 -1.52417,-0.31597 -0.1149,-0.33513 -4.70832,-1.3083 -6.17504,-1.3083 -0.47788,0 -1.11419,-0.2446 -1.41363,-0.54404 -0.52575,-0.52576 -1.26739,-0.719 -5.5927,-1.45541 -1.11593,-0.19063 -2.02991,-0.46221 -2.02991,-0.6041 0,-0.14275 -0.73032,-0.3595 -1.62341,-0.48223 -0.89309,-0.12274 -1.70523,-0.35602 -1.80533,-0.51793 -0.1001,-0.1619 -0.4657,-0.29421 -0.81301,-0.29421 -0.34644,0 -0.63021,-0.12796 -0.63021,-0.28464 0,-0.15582 -0.76688,-0.3743 -1.70523,-0.48398 -3.01876,-0.35341 -4.14078,-0.59452 -4.14078,-0.89048 0,-0.15929 -0.43871,-0.28899 -0.97492,-0.28899 -0.53533,0 -0.97404,-0.11055 -0.97404,-0.2446 0,-0.13405 -0.69463,-0.60845 -1.54245,-1.05325 -0.8487,-0.44481 -1.80969,-1.13856 -2.13524,-1.54246 -0.32555,-0.40302 -0.78951,-0.73292 -1.03063,-0.73292 -0.66154,0 -2.43728,-1.91153 -2.43728,-2.62357 0,-0.34296 0.14624,-0.62412 0.32468,-0.62412 0.17844,0 0.32468,-0.48223 0.32468,-1.07066 0,-1.3675 1.25259,-7.14212 1.59816,-7.3667 0.14363,-0.094 0.33426,-0.60845 0.42392,-1.14466 0.56319,-3.36955 1.39273,-6.85313 1.67737,-7.04376 0.43959,-0.29421 0.47266,-8.32507 0.0357,-8.63843 -0.61019,-0.43784 -1.46237,-2.50432 -1.66867,-4.04938 -0.11316,-0.84783 -0.32033,-1.54246 -0.46047,-1.54246 -0.14015,0 -0.50226,-0.76774 -0.80431,-1.70523 -0.30205,-0.93748 -0.72944,-1.85146 -0.94793,-2.02991 -0.21935,-0.17844 -0.48745,-0.69027 -0.59626,-1.13682 -0.87133,-3.58977 -1.09417,-4.14426 -2.0508,-5.115689 -0.57103,-0.580596 -1.17687,-1.055867 -1.34486,-1.055867 -0.16887,0 -0.58234,-0.51096 -0.91834,-1.13682 -0.33687,-0.62499 -0.70594,-1.136821 -0.8191,-1.136821 -0.11403,0 -0.46918,-0.693756 -0.78951,-1.542454 -0.3212,-0.848698 -0.73205,-1.640816 -0.91485,-1.76094 -0.1828,-0.119253 -0.39606,-1.142913 -0.4744,-2.27277 -0.0783,-1.130727 -0.29074,-2.241433 -0.47266,-2.466882 -0.18106,-0.22632 -0.40302,-1.431906 -0.49181,-2.679275 -0.10794,-1.505895 -0.29857,-2.269288 -0.56667,-2.269288 -1.03846,0 -1.62776,-19.211913 -0.77297,-25.17195 0.17932,-1.24998 0.40477,-3.625464 0.50139,-5.277596 0.0966,-1.653003 0.30814,-3.004826 0.46917,-3.004826 0.64066,0 0.26114,-1.231701 -0.43697,-1.41885 -1.10374,-0.295956 -7.37453,-0.181055 -8.8369,0.161035 m 114.47762,31.487135 c 0,0.191501 -0.21936,0.567539 -0.48659,0.83477 -0.2681,0.268102 -0.58495,0.877423 -0.7042,1.354435 -0.12012,0.477012 -0.4126,1.061961 -0.65023,1.299596 -0.23851,0.237636 -0.43262,0.632825 -0.43262,0.878294 0,0.244599 -0.26984,0.636306 -0.59888,0.869589 -0.3299,0.233283 -0.94967,1.191659 -1.37881,2.130015 -0.42826,0.937485 -0.92617,1.70436 -1.10635,1.70436 -0.17932,0 -0.60671,0.877423 -0.9488,1.948959 -0.34296,1.072406 -0.71987,1.948959 -0.83912,1.948959 -0.11839,0 -0.5571,1.02279 -0.97405,2.27364 -0.41782,1.25085 -0.85653,2.27364 -0.97491,2.27364 -0.11926,0 -0.49617,0.876553 -0.83913,1.948959 -0.34209,1.071532 -0.71987,1.948962 -0.83912,1.948962 -0.12012,0 -0.53359,0.94967 -0.92008,2.11086 -0.38648,1.1612 -0.81736,2.11087 -0.95837,2.11087 -0.29335,0 -1.00277,3.34865 -1.17077,5.52219 -0.20717,2.67928 -0.551,4.54641 -0.83651,4.54641 -0.15494,0 -0.28203,0.21936 -0.28203,0.48746 0,0.2681 0.14624,0.48746 0.32468,0.48746 0.17845,0 0.32468,0.21935 0.32468,0.48745 0,0.26724 -0.12273,0.48659 -0.27245,0.48659 -1.2082,0 -1.2935,9.58898 -0.0931,10.37936 0.91746,0.6041 1.06457,1.81403 0.84783,6.94626 -0.12274,2.88645 -0.26201,6.98109 -0.30989,9.09979 -0.0479,2.1187 -0.22196,3.94579 -0.38648,4.06069 -0.16539,0.11403 -0.50661,0.84783 -0.75904,1.63124 -0.25243,0.78254 -0.68331,1.64778 -0.95838,1.92285 -0.48658,0.48745 -1.04803,1.34747 -1.52591,2.33718 -0.12883,0.2681 -0.50052,0.67809 -0.8252,0.91224 -0.32381,0.23328 -0.5893,0.63457 -0.5893,0.89135 0,0.25679 -0.73119,1.21342 -1.62428,2.12566 -0.89309,0.91225 -1.6234,1.86714 -1.6234,2.12305 0,0.25505 -0.21936,0.54839 -0.48746,0.65111 -0.2681,0.10271 -0.48746,0.31075 -0.48746,0.46221 0,0.15146 -0.32903,0.6337 -0.73031,1.07154 -1.40928,1.53462 -2.31195,2.79679 -2.75501,3.84917 -0.24547,0.58408 -0.65807,1.18034 -0.91659,1.32484 -0.61803,0.34557 -0.60671,2.32065 0.0174,2.94476 0.2681,0.26811 0.48745,0.62587 0.48745,0.7956 0,0.16974 0.21849,0.49007 0.48659,0.71291 0.2681,0.22197 0.48746,0.75121 0.48746,1.17599 0,0.47005 0.19063,0.77297 0.48746,0.77297 0.2681,0 0.48658,0.22458 0.48658,0.50051 0,0.27507 0.29248,0.81475 0.65024,1.19776 0.35688,0.38387 0.64936,0.88874 0.64936,1.12376 0,0.23415 0.23328,0.42565 0.51879,0.42565 0.28638,0 0.91747,0.40216 1.40405,0.8931 1.85321,1.87148 2.98133,2.74456 3.84308,2.97436 0.49094,0.13057 1.06544,0.58408 1.27784,1.00712 0.21152,0.42304 0.75991,0.96534 1.21777,1.20559 0.45786,0.24024 0.83303,0.55448 0.83303,0.69897 0,0.14363 0.58234,0.54143 1.29524,0.88265 0.71204,0.34122 1.29699,0.78515 1.29873,0.9871 0.003,0.20195 0.43523,0.54491 0.96273,0.76339 0.5275,0.21849 1.18817,0.74773 1.46933,1.176 0.28029,0.42913 0.69376,0.77993 0.91747,0.77993 0.22458,0 0.77732,0.40128 1.22996,0.89309 1.02105,1.10896 2.1657,2.02991 2.52346,2.02991 0.14885,0 0.53533,0.29247 0.85914,0.64936 0.32294,0.35689 0.70943,0.64937 0.85828,0.64937 0.29334,0 1.26303,0.73205 2.419,1.82622 0.40041,0.37865 1.10549,0.78341 1.56683,0.89918 0.54404,0.13667 0.83912,0.43349 0.83912,0.84435 0,0.49007 0.40825,0.75382 1.78793,1.15423 0.98275,0.28638 1.9272,0.7808 2.09781,1.10026 0.17061,0.31946 0.97404,0.76601 1.78531,0.9932 0.81127,0.22719 1.47456,0.60061 1.47456,0.83041 0,0.2298 0.15581,0.47005 0.34557,0.5336 0.24112,0.0801 0.23676,0.39867 -0.0148,1.06109 -0.19846,0.52053 -0.4509,2.12392 -0.56145,3.56192 -0.11141,1.43887 -0.38039,2.79417 -0.59887,3.01266 -0.3447,0.3447 -1.44584,5.33069 -1.44409,6.53628 0,0.23589 -0.18628,0.61628 -0.41521,0.84434 -0.22893,0.22893 -0.69202,1.97246 -1.02976,3.87442 -0.33774,1.90282 -0.72422,3.45921 -0.85827,3.45921 -0.24199,0 -0.74424,1.67128 -0.77906,2.59832 -0.0322,0.81997 -0.51618,1.94896 -0.83651,1.94896 -0.16713,0 -0.30292,0.65719 -0.30292,1.4615 0,0.80343 0.13927,1.4615 0.30901,1.4615 0.17061,0 0.55274,0.51183 0.84957,1.13682 0.29595,0.62499 0.74511,1.13682 0.99755,1.13682 0.25156,0 0.598,0.3682 0.76861,0.81736 0.17148,0.45003 0.67896,0.95838 1.12899,1.12899 0.45002,0.17148 0.81823,0.4683 0.81823,0.66068 0,0.19237 0.43784,0.50312 0.97404,0.6894 0.53621,0.18715 0.97405,0.54491 0.97405,0.7956 0,0.24982 0.20717,0.45525 0.46047,0.45525 0.2533,0 0.65372,0.43871 0.89135,0.97404 0.23677,0.53621 0.5571,0.97492 0.7103,0.97492 0.1532,0 1.28392,0.98623 2.51301,2.19182 2.76632,2.71409 3.4714,3.3295 3.81523,3.3295 0.14798,0 0.47701,0.40216 0.73031,0.8931 0.25418,0.49094 1.26478,1.71915 2.24753,2.72802 0.98275,1.00973 1.94983,2.03252 2.14916,2.27364 0.20021,0.24111 0.82781,0.8043 1.39535,1.25085 0.56754,0.44654 1.2082,1.00799 1.4232,1.24824 0.21588,0.24024 0.72074,0.76861 1.12202,1.17425 0.40216,0.40563 0.73119,0.87655 0.73119,1.04716 0,0.37691 2.03339,2.70104 2.3633,2.70104 0.12883,0 0.23502,-0.21849 0.23502,-0.48659 0,-0.27071 0.289,-0.48746 0.64937,-0.48746 0.35775,0 0.65023,0.1297 0.65023,0.28812 0,0.15843 1.05935,0.63109 2.35459,1.05065 1.29525,0.41869 2.54784,0.94706 2.78373,1.17251 0.23503,0.22632 0.81997,0.50573 1.29873,0.6215 0.47875,0.11491 1.38229,0.46657 2.00728,0.78081 1.86887,0.93835 3.56453,1.60774 4.07114,1.60774 0.262,0 0.47614,0.13492 0.47614,0.29856 0,0.38562 2.64619,1.26043 4.62823,1.5294 0.8487,0.1149 1.54333,0.336 1.54333,0.49007 0,0.15407 0.94967,0.28029 2.11086,0.28029 1.16119,0 2.11087,-0.12535 2.11087,-0.27942 0,-0.15407 0.78341,-0.37256 1.74091,-0.48485 1.89412,-0.22283 3.931,-0.96359 4.66306,-1.69565 0.25504,-0.25418 0.61628,-0.46309 0.80256,-0.46309 0.5127,0 4.70832,-4.36013 4.95988,-5.15399 0.12099,-0.38039 0.336,-0.69201 0.47875,-0.69201 0.32381,0 1.21516,-2.35982 1.50241,-3.97887 0.11839,-0.67026 0.34558,-1.21778 0.50487,-1.21778 0.15842,0 0.28812,-1.4615 0.28812,-3.24855 0,-1.78618 -0.12708,-3.24769 -0.28203,-3.24769 -0.15581,0 -0.45786,-0.91311 -0.67199,-2.02991 -0.51183,-2.67144 -1.04368,-4.46633 -1.32223,-4.46633 -0.1236,0 -0.48223,-0.94967 -0.79647,-2.11086 -0.31424,-1.16119 -0.67286,-2.11086 -0.79647,-2.11086 -0.1236,0 -0.56493,-1.06022 -0.98014,-2.35547 -0.41521,-1.29524 -0.86088,-2.42771 -0.98971,-2.51737 -0.1297,-0.0888 -0.56841,-1.18469 -0.97666,-2.43554 -0.40737,-1.25085 -0.8661,-2.43294 -1.0193,-2.62792 -0.1532,-0.19498 -0.57625,-1.2848 -0.93923,-2.42162 -0.36298,-1.13682 -0.77558,-2.14655 -0.91659,-2.24404 -0.14015,-0.0975 -0.51619,-1.01757 -0.8339,-2.04471 -0.31859,-1.02715 -0.67548,-1.86714 -0.79473,-1.86714 -0.11926,0 -0.57886,-1.16903 -1.02279,-2.59832 -0.44307,-1.4293 -0.90354,-2.59832 -1.02192,-2.59832 -0.11926,0 -0.47614,-0.84087 -0.79386,-1.86801 -0.31685,-1.02714 -0.83216,-2.37896 -1.14466,-3.00395 -0.79124,-1.58511 -0.75904,-4.2226 0.0514,-4.2226 0.14189,0 0.58408,-0.98623 0.98275,-2.19269 0.3978,-1.20559 0.83129,-2.26494 0.96186,-2.35459 0.13057,-0.0897 0.57537,-1.14901 0.98797,-2.3546 0.4126,-1.20558 0.85479,-2.19269 0.98275,-2.19269 0.12796,0 0.48571,-0.80343 0.79473,-1.78618 0.30901,-0.98275 0.66155,-1.78618 0.78254,-1.78618 0.12187,0 0.5571,-1.02366 0.96708,-2.27364 0.40999,-1.25085 0.84609,-2.27364 0.96969,-2.27364 0.12448,0 0.58234,-1.09591 1.01931,-2.43555 0.43697,-1.33877 0.89222,-2.43467 1.01148,-2.43554 0.11925,-8.7e-4 0.53359,-0.95142 0.9192,-2.11261 0.38649,-1.16119 0.80082,-2.11086 0.92008,-2.11086 0.11925,0 0.49703,-0.87656 0.83999,-1.94896 0.34209,-1.07154 0.71987,-1.94896 0.83825,-1.94896 0.11839,0 0.5571,-1.02279 0.97492,-2.27277 0.41782,-1.25085 0.85392,-2.27364 0.96969,-2.27364 0.11577,0 0.54665,-1.02366 0.95663,-2.27364 0.40999,-1.25085 0.84783,-2.27364 0.97405,-2.27364 0.12622,0 0.48223,-0.80431 0.79212,-1.78706 0.30988,-0.98188 0.66503,-1.78618 0.79037,-1.78705 0.12448,-8.7e-4 0.58408,-1.09678 1.02105,-2.43555 0.43697,-1.33963 0.89222,-2.43554 1.01148,-2.43554 0.12012,0 0.54926,-0.98623 0.95402,-2.19182 0.40564,-1.20646 0.8574,-2.27016 1.00451,-2.36591 0.41956,-0.27071 1.27,-3.87963 1.27,-5.38988 0,-0.77558 0.17583,-1.44757 0.40564,-1.55551 0.32555,-0.15146 0.32555,-0.22719 0,-0.37865 -0.23851,-0.11142 -0.40738,-0.81475 -0.41086,-1.70523 -0.005,-1.70262 -0.75643,-5.22711 -1.17947,-5.53612 -0.15233,-0.11142 -0.56928,-0.78516 -0.92617,-1.49807 -0.83477,-1.66344 -4.17908,-5.01123 -5.84514,-5.84948 -0.71029,-0.35776 -1.46411,-0.8104 -1.67563,-1.00626 -0.21152,-0.19585 -1.05413,-0.54403 -1.87236,-0.77296 -0.81823,-0.22893 -1.48762,-0.5275 -1.48762,-0.66242 0,-0.13579 -1.02366,-0.58147 -2.27364,-0.99146 -1.25085,-0.40998 -2.27364,-0.83999 -2.27364,-0.95663 0,-0.11577 -1.02366,-0.55187 -2.27364,-0.96969 -1.25085,-0.41782 -2.27364,-0.85653 -2.27364,-0.97491 0,-0.11839 -0.87742,-0.49617 -1.94896,-0.83826 -1.07153,-0.34209 -1.94896,-0.71987 -1.94896,-0.83912 0,-1.14901 -11.18279,-1.18382 -11.98361,-0.0374 -0.10794,0.15494 -0.82433,0.48311 -1.59207,0.73032 -0.76862,0.24721 -1.49894,0.62325 -1.62428,0.83564 -0.12535,0.21239 -0.6955,0.62498 -1.26652,0.91746 -1.19601,0.61019 -3.01788,2.45034 -3.01962,3.04835 -8.8e-4,0.22283 -0.1445,0.40563 -0.31859,0.40563 -0.3508,0 -1.63211,2.47124 -1.63211,3.14671 0,0.23503 -0.12796,0.42653 -0.28552,0.42653 -0.15668,0 -0.4596,0.47527 -0.67373,1.05587 -0.21326,0.58059 -0.65981,1.63994 -0.9932,2.35459 -0.33251,0.71465 -0.86958,1.99248 -1.1934,2.84031 -0.32381,0.84783 -0.70333,1.54245 -0.8426,1.54332 -0.28377,8.7e-4 -0.28986,-0.0139 -1.09678,-2.84118 -0.31946,-1.11593 -0.68157,-2.02991 -0.80604,-2.02991 -0.12448,0 -0.55275,-0.98623 -0.95055,-2.19269 -0.39867,-1.20558 -0.8278,-2.26493 -0.95315,-2.35459 -0.12622,-0.0888 -0.49094,-0.96621 -0.81214,-1.94896 -0.32033,-0.98188 -0.6807,-1.8593 -0.80082,-1.94809 -0.12012,-0.0896 -0.55535,-1.22212 -0.96795,-2.51736 -0.41173,-1.29525 -0.84087,-2.3546 -0.95403,-2.3546 -0.11316,0 -0.56841,-1.16989 -1.01234,-2.59919 -0.44306,-1.42842 -0.90354,-2.59832 -1.02192,-2.59832 -0.11925,0 -0.47701,-0.83999 -0.79473,-1.86713 -0.31859,-1.02715 -0.69376,-1.94722 -0.83477,-2.04471 -0.14102,-0.0966 -0.55535,-1.11332 -0.92095,-2.25885 -0.36646,-1.14552 -0.77645,-2.16222 -0.91224,-2.25971 -0.13492,-0.0966 -0.59539,-1.30917 -1.02366,-2.6932 -0.42739,-1.3849 -0.87394,-2.517372 -0.99319,-2.517372 -0.11926,0 -0.48137,-0.877423 -0.80605,-1.948959 -0.32468,-1.071535 -0.69201,-1.948959 -0.81649,-1.948959 -0.12448,0 -0.551,-1.095908 -0.9488,-2.435545 -0.3978,-1.340508 -0.84435,-2.436417 -0.99145,-2.436417 -0.14798,0 -0.52576,-0.817361 -0.84,-1.817519 -0.31423,-0.999288 -0.73641,-1.985519 -0.93748,-2.191818 -0.20108,-0.206298 -0.56493,-0.886998 -0.80953,-1.511988 -0.45873,-1.175991 -0.62673,-1.393606 -3.06837,-3.97887 -1.41624,-1.499802 -2.14394,-1.905436 -2.14394,-1.195141"
     stroke="none"
     fill="#ffffff"
     fill-rule="evenodd"
     style="fill:#ffffff;stroke-width:0.87046" />
</svg>
