<?xml version="1.0" encoding="UTF-8" standalone="no"?>
<svg
   id="svg"
   version="1.1"
   width="390.09052"
   height="390.09052"
   viewBox="0 0 390.09052 390.09052"
   sodipodi:docname="oversvoemmelse_igang.svg"
   inkscape:version="1.1 (c68e22c387, 2021-05-23)"
   xmlns:inkscape="http://www.inkscape.org/namespaces/inkscape"
   xmlns:sodipodi="http://sodipodi.sourceforge.net/DTD/sodipodi-0.dtd"
   xmlns="http://www.w3.org/2000/svg"
   xmlns:svg="http://www.w3.org/2000/svg">
  <defs
     id="defs8" />
  <sodipodi:namedview
     id="namedview6"
     pagecolor="#ffffff"
     bordercolor="#666666"
     borderopacity="1.0"
     inkscape:pageshadow="2"
     inkscape:pageopacity="0.0"
     inkscape:pagecheckerboard="0"
     showgrid="false"
     fit-margin-top="0"
     fit-margin-left="0"
     fit-margin-right="0"
     fit-margin-bottom="0"
     inkscape:zoom="0.42224253"
     inkscape:cx="191.83288"
     inkscape:cy="190.64872"
     inkscape:window-width="1920"
     inkscape:window-height="1017"
     inkscape:window-x="-8"
     inkscape:window-y="-8"
     inkscape:window-maximized="1"
     inkscape:current-layer="svg" />
  <circle
     style="fill:#ff6600;stroke:#ffffff;stroke-width:0;stroke-miterlimit:4;stroke-dasharray:none"
     id="path153"
     cx="195.04526"
     cy="195.04526"
     r="195.04526" />
  <path
     id="path0"
     d="m 192.45579,45.720258 c -0.64336,0.156896 -1.99493,0.473317 -3.00555,0.702962 -1.82227,0.413714 -3.96534,1.677644 -9.85024,5.813027 -1.46903,1.03253 -2.98102,2.162354 -3.36055,2.511205 -0.37865,0.348852 -0.79237,0.634595 -0.91858,0.634595 -0.12535,0 -0.49173,0.232275 -0.81253,0.517142 -0.61706,0.546067 -6.91743,5.207356 -8.56177,6.333674 -0.53116,0.363752 -1.37525,0.96241 -1.87661,1.329668 -0.50049,0.367259 -1.95111,1.366482 -3.22381,2.221081 -1.27182,0.853723 -2.5261,1.809997 -2.7873,2.123788 -0.26033,0.314667 -1.31127,1.118429 -2.33591,1.786331 -1.02376,0.667901 -2.60675,1.787207 -3.51744,2.486664 -0.9107,0.699458 -2.48229,1.855577 -3.49202,2.569057 -1.00974,0.713481 -2.66285,1.907291 -3.67258,2.654076 -1.01062,0.745909 -2.88899,2.135189 -4.17396,3.085326 -1.28584,0.951012 -3.33162,2.414787 -4.54558,3.25361 -1.21485,0.837946 -3.91889,2.814475 -6.01024,4.391325 -2.09137,1.57684 -4.70424,3.45521 -5.80603,4.173943 -1.10177,0.718742 -2.15358,1.477806 -2.33765,1.687288 -0.30327,0.34622 -6.51862,4.925125 -8.32073,6.13032 -0.68718,0.4593 -1.97653,1.39278 -10.50498,7.60637 -1.58298,1.15261 -4.438657,3.25623 -6.346817,4.67443 -1.907289,1.4182 -4.118734,3.03274 -4.914607,3.58756 -1.67063,1.16576 -4.322951,4.15817 -4.656902,5.25294 -0.125345,0.41283 -0.431243,0.98169 -0.67842,1.26481 -1.581229,1.80824 -1.424329,10.80125 0.245425,14.05311 1.424329,2.77503 4.927743,6.96914 5.820033,6.96914 0.211243,0 0.742406,0.26822 1.180665,0.59603 1.819638,1.3621 5.282726,2.07908 10.463783,2.16762 6.57559,0.11306 5.85948,-2.23073 5.85948,19.15177 0,18.64779 0.12184,20.15714 1.63382,20.15714 0.12885,0 0.52678,0.22439 0.88527,0.49787 3.64279,2.78117 11.71985,7.06556 15.16015,8.04286 0.8362,0.23755 2.19041,0.67667 3.00995,0.97644 1.70218,0.6232 10.56722,2.16674 12.45523,2.1685 1.84418,0.002 11.06158,-1.6312 13.3703,-2.36834 1.0939,-0.34973 2.13782,-0.63547 2.32101,-0.63547 1.19206,0 9.42688,-4.05037 12.8856,-6.33806 4.45618,-2.94771 7.20229,-4.63061 7.59848,-4.65691 0.2016,-0.0132 1.03253,-0.37778 1.84506,-0.8099 0.81252,-0.43212 2.18076,-0.89141 3.03974,-1.02025 0.85986,-0.12885 2.05805,-0.4891 2.66284,-0.80026 1.60314,-0.82479 12.62878,-0.83619 14.12674,-0.014 0.55309,0.30327 1.72761,0.66001 2.61026,0.79236 1.69429,0.25419 9.4409,4.03196 10.69519,5.21613 1.45589,1.37349 8.50742,5.22313 11.2176,6.12331 0.92208,0.3059 1.75303,0.68017 1.84681,0.83181 0.0929,0.15076 0.9589,0.46017 1.92394,0.68631 0.96417,0.22614 1.99845,0.53729 2.29734,0.69157 5.49836,2.82938 17.86857,2.66371 27.00445,-0.36201 7.96574,-2.63742 18.62412,-8.68535 19.17457,-10.87926 0.11745,-0.46631 0.10869,-8.93078 -0.0175,-18.80906 -0.19108,-14.81306 -0.15339,-18.01057 0.21474,-18.23759 0.24543,-0.15163 2.78643,-0.33657 5.6465,-0.41195 8.65467,-0.22614 14.02155,-2.78117 16.6169,-7.9114 0.28487,-0.56272 0.69946,-1.24816 0.9221,-1.52338 2.4814,-3.07305 2.12641,-11.80135 -0.64863,-15.94725 -0.46016,-0.68719 -1.21484,-1.81263 -1.67764,-2.50157 -0.46192,-0.68806 -0.97994,-1.25166 -1.15173,-1.25166 -0.1718,0 -0.68369,-0.33833 -1.13684,-0.75117 -1.14472,-1.04216 -1.90817,-1.65748 -2.88285,-2.32451 -0.45929,-0.31379 -1.66099,-1.17452 -2.67073,-1.91342 -1.01062,-0.7389 -2.66284,-1.90378 -3.67346,-2.58834 -1.00975,-0.68455 -2.61726,-1.85207 -3.57267,-2.5936 -2.83463,-2.2018 -6.78595,-5.12145 -9.28225,-6.8587 -1.28584,-0.894041 -2.93895,-2.079084 -3.67346,-2.633035 -1.51725,-1.143846 -4.52893,-3.342136 -9.88793,-7.217195 -2.03176,-1.46904 -5.24592,-3.797929 -7.14181,-5.175805 -1.89591,-1.377001 -4.60345,-3.330742 -6.01551,-4.340485 -1.41293,-1.009744 -3.5674,-2.598864 -4.78751,-3.530591 -1.2201,-0.931736 -3.4964,-2.573439 -5.05746,-3.648918 -1.56107,-1.074606 -2.91353,-2.045781 -3.0047,-2.156222 -0.092,-0.111316 -1.81963,-1.395406 -3.83999,-2.853921 -2.02036,-1.458516 -3.82334,-2.770654 -4.00741,-2.916156 -1.40855,-1.117551 -7.81498,-5.726251 -8.34703,-6.004982 -0.36813,-0.192832 -0.92558,-0.592521 -1.23938,-0.888782 -0.7275,-0.686308 -1.78896,-1.491823 -3.26851,-2.480529 -2.0116,-1.344568 -7.45123,-5.301142 -8.87907,-6.460767 -1.69342,-1.373495 -4.91811,-3.117753 -5.76481,-3.117753 -0.34798,0 -1.21485,-0.204227 -1.92658,-0.453156 -1.83278,-0.642483 -4.10295,-0.860735 -5.46768,-0.526784 M 89.444643,206.27354 c -2.772412,0.69244 -4.720022,1.65222 -7.004211,3.44995 -7.776411,6.12419 -14.500133,9.60569 -24.567747,12.72432 -7.941196,2.45949 -12.472761,5.98219 -13.690236,10.64524 -1.604894,6.14259 -1.606646,6.19168 -0.478576,9.96243 3.198392,10.6838 12.195785,14.83584 23.702631,10.93535 0.551326,-0.18669 1.903784,-0.61706 3.005559,-0.95626 2.806591,-0.86337 8.454832,-2.89074 9.850241,-3.53498 4.904954,-2.2649 10.966909,-5.33007 11.519994,-5.82355 1.096518,-0.97994 3.213288,-1.30337 4.403596,-0.67228 1.040413,0.55045 6.167126,3.04676 7.950826,3.8698 4.56136,2.10626 9.75996,4.04423 12.1879,4.54471 0.82654,0.17005 1.95286,0.51978 2.50419,0.77748 0.55044,0.25769 1.75302,0.56973 2.67073,0.69331 0.91858,0.1236 2.72157,0.49786 4.00741,0.83269 1.28585,0.33395 3.75147,0.70384 5.48082,0.82217 1.72937,0.11745 4.1801,0.43212 5.44753,0.69858 2.97751,0.6267 9.45493,0.62232 12.44559,-0.008 1.28496,-0.27084 3.9145,-0.582 5.84283,-0.69244 1.92832,-0.11045 4.48248,-0.47332 5.67629,-0.80727 1.19381,-0.33307 3.05464,-0.70122 4.1345,-0.81778 1.08074,-0.11571 2.88373,-0.49874 4.00741,-0.84934 1.12369,-0.35061 3.39473,-1.04218 5.04784,-1.53566 1.65309,-0.49435 3.96533,-1.33054 5.13811,-1.8582 1.17365,-0.52854 2.28418,-0.96066 2.46825,-0.96066 0.18407,0 0.9519,-0.29538 1.70657,-0.65563 0.75468,-0.36112 1.89765,-0.88353 2.54101,-1.16225 0.64249,-0.27785 1.39365,-0.63459 1.66976,-0.79149 0.27522,-0.15778 1.40241,-0.70823 2.50418,-1.22449 1.10179,-0.51627 2.40166,-1.14122 2.88987,-1.39015 1.54091,-0.78623 2.79081,-0.511 6.85432,1.50935 2.17024,1.07811 4.92249,2.36921 6.11629,2.86708 1.19381,0.49873 2.78995,1.18592 3.54725,1.52688 1.29548,0.58376 5.92259,2.13869 10.8109,3.63402 1.19381,0.3655 2.99679,0.75994 4.00653,0.87738 1.01062,0.11746 2.88898,0.48647 4.17396,0.81955 1.28583,0.33306 3.91537,0.69857 5.84369,0.81252 1.92834,0.11307 4.55787,0.42774 5.84283,0.69858 3.0152,0.63547 9.14816,0.63108 12.18615,-0.008 1.30862,-0.27522 3.91099,-0.59865 5.78235,-0.71961 1.87135,-0.12009 4.21426,-0.49611 5.20735,-0.83444 0.99309,-0.33921 2.42092,-0.6232 3.1721,-0.63109 0.75204,-0.009 1.96777,-0.24367 2.70228,-0.5224 0.73539,-0.27961 2.43407,-0.79675 3.77514,-1.14823 1.34194,-0.35236 4.13626,-1.31915 6.21008,-2.14921 2.07383,-0.82918 3.90399,-1.50848 4.06702,-1.50848 0.16303,0 1.05006,-0.35761 1.97127,-0.79411 0.92034,-0.43651 2.04929,-0.96154 2.50858,-1.16577 0.45929,-0.2051 1.06058,-0.511 1.3358,-0.67929 4.78751,-2.93631 6.19519,-3.00644 10.02204,-0.49874 1.19644,0.78361 2.5489,1.58474 3.00556,1.7802 0.45667,0.19458 1.05532,0.49523 1.33055,0.66702 1.39014,0.86863 8.23044,3.6533 13.18974,5.36864 4.39658,1.52162 5.11181,1.74075 6.54228,1.99932 0.84409,0.15339 2.33678,0.51626 3.31672,0.80726 5.63159,1.6724 13.47725,-1.79596 16.92807,-7.48453 6.01025,-9.90721 0.92648,-21.47015 -10.92659,-24.85261 -4.10119,-1.17014 -7.98677,-2.54714 -8.21116,-2.91002 -0.0964,-0.1569 -0.40057,-0.28574 -0.67404,-0.28574 -0.51714,0 -8.18399,-3.60685 -8.4785,-3.989 -0.0911,-0.11921 -0.91595,-0.65037 -1.8319,-1.17979 -1.36211,-0.78711 -4.20288,-2.8136 -7.87546,-5.61581 -4.52192,-3.45171 -11.63307,-4.06526 -16.62217,-1.43485 -0.48559,0.25594 -1.89765,0.96241 -3.13792,1.56983 -1.23938,0.60655 -2.25351,1.22274 -2.25351,1.36823 0,0.14638 -0.20247,0.26559 -0.44877,0.26559 -0.24718,0 -1.33668,0.57148 -2.42092,1.26919 -2.22547,1.43134 -8.86417,4.74192 -9.51016,4.74192 -0.23227,0 -0.66001,0.2095 -0.95014,0.46631 -0.49785,0.44089 -1.78808,0.85986 -6.28722,2.04052 -1.05619,0.27698 -2.59622,0.72049 -3.42278,0.98608 -0.82654,0.26558 -2.47877,0.64686 -3.67258,0.84758 -1.19381,0.20072 -2.98452,0.50751 -3.97936,0.68281 -5.18194,0.91332 -19.4945,0.071 -23.28366,-1.36911 -0.43914,-0.16742 -1.73462,-0.52153 -2.87934,-0.78711 -1.14384,-0.26471 -2.53049,-0.71787 -3.08181,-1.00536 -0.55134,-0.28749 -1.28585,-0.52328 -1.63295,-0.52415 -0.63021,-0.003 -1.31301,-0.28225 -5.7131,-2.34555 -2.13956,-1.0036 -8.47937,-4.67006 -9.32609,-5.39493 -1.03341,-0.88352 -5.14512,-3.31672 -5.86649,-3.47274 -0.45929,-0.0982 -1.67151,-0.39619 -2.69352,-0.66176 -5.04257,-1.30864 -9.12887,-0.008 -17.34091,5.52114 -2.02211,1.36035 -11.42095,5.92785 -13.12751,6.37838 -0.58464,0.15426 -2.04052,0.59602 -3.23433,0.98169 -4.50002,1.45238 -5.27134,1.65047 -9.00353,2.31574 -7.18564,1.28146 -21.61127,0.7056 -25.97718,-1.03691 -0.50311,-0.20072 -1.81613,-0.55921 -2.91791,-0.79587 -4.45005,-0.95453 -14.65353,-5.3625 -18.24985,-7.88247 -0.48734,-0.34184 -1.02025,-0.62145 -1.18417,-0.62145 -0.1639,0 -0.59163,-0.22526 -0.95013,-0.50048 -5.37827,-4.13013 -10.93448,-5.5606 -16.346057,-4.20901 m -0.504872,58.90246 c -1.195562,0.40407 -2.543645,0.99835 -2.995925,1.32003 -0.451394,0.3208 -1.004479,0.58375 -1.227992,0.58375 -0.224379,0 -1.505839,0.87038 -2.847782,1.93359 -2.21056,1.75127 -3.932909,2.93719 -8.695874,5.98745 -3.305325,2.1159 -9.37254,4.68583 -13.779641,5.83582 -0.734517,0.19195 -2.011594,0.58988 -2.838145,0.88352 -0.826551,0.29451 -2.103628,0.69419 -2.839022,0.88878 -4.230045,1.11931 -8.070043,5.33446 -9.97821,10.95552 -2.161477,6.36611 1.345446,15.0611 7.533619,18.67671 5.45278,3.18612 10.284112,2.88022 22.31336,-1.41644 2.111517,-0.7538 4.290525,-1.49708 4.841851,-1.65135 2.394633,-0.66965 9.150781,-3.97148 12.048528,-5.88928 3.920636,-2.5936 3.288677,-2.64443 10.235032,0.81428 5.948,2.96173 9.44089,4.43427 12.06867,5.08815 0.71261,0.17793 1.60841,0.49085 1.99056,0.69507 0.38304,0.20511 1.82841,0.64074 3.21242,0.96767 1.38489,0.32781 3.19313,0.75643 4.01969,0.95189 4.07314,0.96592 10.61367,2.05894 14.35813,2.39902 13.0311,1.18504 33.33988,-2.30786 45.4112,-7.80972 1.19381,-0.54432 3.14755,-1.43134 4.34136,-1.97215 1.19381,-0.53993 3.32812,-1.57422 4.7428,-2.29822 3.23697,-1.65485 3.63403,-1.64433 7.16462,0.18758 1.5935,0.82654 3.15369,1.50234 3.46748,1.50234 0.31379,0 0.75818,0.22526 0.98607,0.50136 0.22877,0.27522 0.54957,0.50049 0.71261,0.50049 0.16303,0 1.47604,0.58288 2.91702,1.2946 1.44186,0.71174 3.18262,1.47956 3.86893,1.7057 0.68631,0.22702 1.64697,0.61969 2.1343,0.87388 0.48734,0.25419 1.2613,0.46718 1.7206,0.47157 0.45929,0.005 1.45238,0.29012 2.20706,0.63284 0.75467,0.34271 2.03174,0.72487 2.83814,0.84846 0.80639,0.12447 2.51734,0.50574 3.80319,0.84759 12.78567,3.40261 27.25688,3.75585 40.4028,0.98608 6.41695,-1.35159 8.74058,-1.9371 10.64612,-2.68213 0.89667,-0.35061 1.95111,-0.63811 2.34291,-0.63811 0.39093,0 1.23501,-0.28048 1.87486,-0.6232 0.63985,-0.34271 1.68991,-0.73539 2.3324,-0.873 0.64336,-0.13761 1.31914,-0.36462 1.50322,-0.50487 0.18319,-0.14025 1.46026,-0.73364 2.83814,-1.31915 1.377,-0.58463 4.12048,-1.88976 6.09526,-2.90037 4.10207,-2.09837 3.96271,-2.101 7.41704,0.149 2.30173,1.49884 11.48319,6.07159 12.1914,6.07159 0.20248,0 0.92472,0.28049 1.60666,0.6232 0.68104,0.34185 1.83979,0.73102 2.57431,0.86424 0.73452,0.13324 1.526,0.3997 1.75828,0.59165 0.23227,0.19196 1.20871,0.54694 2.17024,0.78974 0.96154,0.24279 3.23171,0.89842 5.04608,1.45764 11.14134,3.43329 21.20896,-3.49816 21.80323,-15.01114 0.45491,-8.80369 -4.6569,-14.64564 -15.08389,-17.24186 -1.10177,-0.27436 -2.33678,-0.71437 -2.74349,-0.97819 -0.40669,-0.26384 -1.08073,-0.47858 -1.49795,-0.47858 -0.41634,0 -1.51111,-0.35586 -2.43232,-0.79061 -3.55251,-1.67677 -4.76034,-2.21495 -4.97421,-2.21495 -0.51977,0 -8.6757,-5.24417 -11.89251,-7.64669 -8.55826,-6.38976 -13.4711,-6.25303 -24.74831,0.69069 -3.12476,1.92395 -5.82617,3.33601 -9.81167,5.13023 -0.91858,0.41284 -2.34555,1.05532 -3.17209,1.42696 -0.82655,0.37252 -2.40428,0.93436 -3.50605,1.2499 -1.10177,0.31468 -2.90476,0.84759 -4.00741,1.1833 -1.10178,0.3357 -2.98014,0.74767 -4.17308,0.91507 -1.19381,0.1683 -3.12301,0.56185 -4.28614,0.87476 -2.88548,0.77747 -16.90528,0.62145 -18.75385,-0.20773 -0.64247,-0.28837 -2.18952,-0.62408 -3.43767,-0.74591 -1.24816,-0.12183 -3.01958,-0.51626 -3.93641,-0.87827 -0.91596,-0.36112 -1.8845,-0.65651 -2.15184,-0.65651 -0.51802,0 -7.44422,-2.62251 -8.00431,-3.03097 -0.18407,-0.13322 -1.91167,-1.06409 -3.83999,-2.06769 -1.92833,-1.0036 -5.21262,-2.96348 -7.29784,-4.35539 -5.53255,-3.69362 -11.87761,-5.24066 -15.10493,-3.68135 -0.44264,0.21387 -1.85557,0.88002 -3.14142,1.48043 -1.28584,0.60129 -3.08882,1.65047 -4.00654,2.33152 -3.18787,2.36658 -13.31158,7.47139 -17.36369,8.75636 -5.10217,1.61716 -6.1873,1.90027 -8.01395,2.09573 -1.10177,0.11745 -3.0152,0.51189 -4.25195,0.87564 -2.93106,0.86337 -17.26904,0.76782 -19.28852,-0.12884 -0.64249,-0.28575 -2.172,-0.61708 -3.39823,-0.73628 -1.22625,-0.11921 -2.7768,-0.44614 -3.44646,-0.72575 -0.66965,-0.27961 -1.84505,-0.64248 -2.612,-0.80639 -1.93183,-0.41108 -4.84535,-1.45851 -7.3215,-2.63041 -1.14823,-0.54257 -2.61376,-1.22361 -3.25625,-1.51286 -0.64247,-0.28838 -1.39452,-0.653 -1.66975,-0.8099 -0.27522,-0.15601 -1.02639,-0.55483 -1.66976,-0.88615 -2.53224,-1.30425 -4.91021,-2.68826 -6.34418,-3.69012 -5.415957,-3.78828 -10.986194,-4.99524 -15.697439,-3.40086"
     stroke="none"
     fill="#ffffff"
     fill-rule="evenodd"
     style="fill:#ffffff;stroke-width:0.876512" />
</svg>
