<?xml version="1.0" encoding="UTF-8" standalone="no"?>
<svg
   id="svg"
   version="1.1"
   width="390.09052"
   height="390.09052"
   viewBox="0 0 390.09052 390.09052"
   sodipodi:docname="storm_afsluttet.svg"
   inkscape:version="1.1 (c68e22c387, 2021-05-23)"
   xmlns:inkscape="http://www.inkscape.org/namespaces/inkscape"
   xmlns:sodipodi="http://sodipodi.sourceforge.net/DTD/sodipodi-0.dtd"
   xmlns="http://www.w3.org/2000/svg"
   xmlns:svg="http://www.w3.org/2000/svg">
  <defs
     id="defs8" />
  <sodipodi:namedview
     id="namedview6"
     pagecolor="#ffffff"
     bordercolor="#666666"
     borderopacity="1.0"
     inkscape:pageshadow="2"
     inkscape:pageopacity="0.0"
     inkscape:pagecheckerboard="0"
     showgrid="false"
     fit-margin-top="0"
     fit-margin-left="0"
     fit-margin-right="0"
     fit-margin-bottom="0"
     inkscape:zoom="0.42224253"
     inkscape:cx="191.83288"
     inkscape:cy="190.64872"
     inkscape:window-width="1920"
     inkscape:window-height="1017"
     inkscape:window-x="-8"
     inkscape:window-y="-8"
     inkscape:window-maximized="1"
     inkscape:current-layer="svg" />
  <circle
     style="fill:#338000;stroke:#ffffff;stroke-width:0;stroke-miterlimit:4;stroke-dasharray:none"
     id="path153"
     cx="195.04526"
     cy="195.04526"
     r="195.04526" />
  <path
     id="path0"
     d="m 82.269003,57.064258 c -2.757696,1.055171 -5.049689,2.985381 -6.280607,5.2899 l -0.841919,1.575733 -0.09314,136.411159 c -0.08401,123.88546 -0.04018,136.54089 0.486706,137.82494 0.318686,0.77754 0.665682,1.74182 0.771606,2.1434 0.237417,0.90065 3.871732,4.06286 4.669821,4.06286 0.320513,0 0.98163,0.23632 1.470161,0.52634 1.366065,0.80977 4.806793,0.96511 6.757268,0.30573 0.904014,-0.30573 2.004353,-0.63376 2.444488,-0.72879 1.235484,-0.26689 3.593224,-2.25246 4.740135,-3.99014 l 1.03367,-1.56665 0.182631,-73.26453 c 0.100455,-40.29479 0.294945,-73.36534 0.431006,-73.48929 0.210934,-0.19004 8.950641,5.7518 10.879201,7.39694 1.03642,0.88413 2.34587,1.84014 3.00242,2.19297 0.76978,0.41314 9.16431,6.48967 12.35119,8.94127 2.62895,2.02193 2.41984,1.8732 4.85519,3.44645 1.88656,1.21795 3.18048,2.81021 3.18048,3.9133 0,6.42605 9.0867,12.17371 14.8249,9.37673 0.38444,-0.18757 1.76694,-0.79572 3.07273,-1.35264 1.3058,-0.55692 2.78509,-1.22786 3.28732,-1.49062 0.50223,-0.26359 1.98153,-0.91636 3.28732,-1.45179 1.3058,-0.53544 3.12478,-1.28984 4.04158,-1.67572 0.91771,-0.3867 1.93221,-0.70234 2.25547,-0.70234 0.32234,0 1.09212,-0.38505 1.71031,-0.85604 l 1.12409,-0.85521 v -62.37487 c 0,-49.37901 -0.0949,-62.492206 -0.45658,-62.939226 -1.02454,-1.26588 -19.20707,-1.05022 -24.53984,0.29085 -3.74937,0.9428 -7.39099,4.11079 -8.05393,7.006096 -0.23833,1.03947 -2.61433,3.71004 -3.3138,3.72491 -0.18902,0.004 -1.1113,0.6412 -2.0491,1.41709 -0.9378,0.77506 -2.2372,1.77569 -2.88827,2.22354 -2.52851,1.73768 -5.69072,4.01907 -6.91251,4.98583 -0.70312,0.55691 -2.51114,1.83931 -4.01783,2.85152 -1.50669,1.01137 -2.98598,2.09299 -3.28733,2.40284 -0.30133,0.30904 -1.69844,1.35512 -3.10468,2.32353 -1.40624,0.96923 -3.84708,2.70031 -5.42408,3.8472 -2.989634,2.17479 -3.663534,2.4359 -4.033361,1.56251 -0.122358,-0.28755 -0.221896,-14.46418 -0.221896,-31.503906 V 63.885271 l -1.100341,-1.947562 c -1.318579,-2.332613 -2.601541,-3.609229 -4.147495,-4.127312 -0.629156,-0.21153 -1.615353,-0.61228 -2.190634,-0.891566 -1.935866,-0.93949 -5.225924,-0.878345 -7.90235,0.145427 M 190.28484,98.513374 c -1.01267,0.5123 -0.97341,114.170776 0.0392,114.461626 0.36891,0.10577 1.37519,-0.0331 2.23811,-0.3082 0.86201,-0.27516 2.57416,-0.50404 3.80416,-0.50734 1.23093,-0.004 3.30559,-0.23963 4.61138,-0.52387 1.69389,-0.36935 5.06431,-0.56601 11.76495,-0.68665 6.95634,-0.12559 9.4894,-0.27846 9.77521,-0.58997 0.26573,-0.29002 0.38626,-15.90688 0.3881,-50.58952 l 0.003,-50.16976 -0.77343,-0.74532 c -0.42553,-0.40984 -1.20992,-0.84198 -1.74319,-0.96097 -0.53327,-0.11899 -1.62723,-0.49247 -2.43079,-0.83125 -3.15582,-1.32867 -5.76924,-2.31443 -6.1619,-2.32435 -0.22737,-0.005 -1.23457,-0.37596 -2.23903,-0.82298 -1.00445,-0.44702 -2.18607,-0.81389 -2.6262,-0.81555 -0.44013,-0.002 -0.90128,-0.15038 -1.02364,-0.32969 -0.12235,-0.1793 -1.15969,-0.55774 -2.30386,-0.84033 -1.14508,-0.28342 -2.39061,-0.67012 -2.76774,-0.86017 -0.37713,-0.18922 -1.52769,-0.5437 -2.55681,-0.78662 -1.0291,-0.24376 -2.36413,-0.675906 -2.9668,-0.960976 -0.60268,-0.28507 -1.55873,-0.51891 -2.12398,-0.52056 -0.56615,-8.3e-4 -1.30944,-0.13799 -1.65369,-0.30407 -0.38262,-0.18592 -0.8675,-0.17931 -1.25376,0.0165 m 56.59395,22.651046 c -0.65289,0.58997 -0.26207,88.90205 0.39539,89.4193 1.67927,1.32372 29.93196,1.6187 31.83496,0.333 l 0.94693,-0.63955 0.0867,-37.14746 c 0.0949,-40.80543 0.22281,-38.51496 -2.17784,-39.12394 -0.74148,-0.18839 -1.55235,-0.52717 -1.80164,-0.75275 -0.2502,-0.2264 -0.70586,-0.41066 -1.01451,-0.41066 -0.55975,0 -3.06724,-1.00146 -6.287,-2.50944 -0.93322,-0.43793 -1.94043,-0.79572 -2.23811,-0.79572 -0.29769,0 -0.74421,-0.22227 -0.9935,-0.49329 -0.24837,-0.27185 -1.125,-0.65773 -1.94683,-0.85769 -0.82273,-0.20079 -1.66649,-0.55526 -1.8756,-0.7891 -0.20911,-0.23384 -0.86018,-0.52635 -1.44642,-0.65029 -0.58714,-0.12395 -1.47198,-0.51313 -1.9669,-0.86595 -0.49493,-0.352 -1.18436,-0.64038 -1.53226,-0.64038 -0.34791,0 -1.05012,-0.29746 -1.56056,-0.66103 -0.51136,-0.36356 -1.08574,-0.66103 -1.27658,-0.66103 -0.48854,0 -4.91455,-2.06159 -5.49895,-2.56149 -0.52781,-0.45198 -1.26563,-0.53874 -1.64732,-0.19253 M 132.0792,131.27241 c 0.45657,1.54268 0.25568,56.61069 -0.2082,57.03044 -0.62733,0.56766 -1.06198,0.48916 -2.30113,-0.41645 -0.60267,-0.44041 -3.56125,-2.60363 -6.57463,-4.80735 -3.01338,-2.20371 -7.2869,-5.27998 -9.49671,-6.83506 -2.2098,-1.5559 -4.18219,-2.99612 -4.38308,-3.20186 -0.20089,-0.20492 -1.02272,-0.80398 -1.82629,-1.33116 -0.80357,-0.52717 -1.6254,-1.1221 -1.8263,-1.32206 -0.20088,-0.19996 -1.02271,-0.79819 -1.82628,-1.3295 -0.80357,-0.53213 -2.48832,-1.77156 -3.743897,-2.75484 l -2.282859,-1.78892 v -4.7462 c 0,-4.46113 0.04929,-4.79413 0.82183,-5.55679 0.747865,-0.7387 7.657636,-5.8964 10.399796,-7.76381 0.62277,-0.42388 1.68111,-1.21464 2.35136,-1.75751 0.67116,-0.5437 1.92673,-1.46088 2.79057,-2.03928 0.86382,-0.57758 4.97298,-3.5423 9.13144,-6.58718 7.69141,-5.63198 8.58447,-6.10875 8.97438,-4.79247 m 171.97429,9.23791 c -0.46387,0.41975 -0.67664,64.42985 -0.21732,65.51312 0.29038,0.68416 3.83154,0.38009 5.48525,-0.47016 0.62642,-0.32225 1.83908,-0.69326 2.69469,-0.82381 0.85561,-0.13055 2.06827,-0.50238 2.69469,-0.82629 0.62733,-0.32308 1.72493,-0.68004 2.439,-0.79241 0.715,-0.1132 1.94135,-0.50156 2.72575,-0.86347 0.78439,-0.36192 1.78245,-0.65773 2.21802,-0.65773 0.43465,0 0.98711,-0.21318 1.22636,-0.47429 0.23923,-0.2611 0.95788,-0.57509 1.59708,-0.69739 0.63829,-0.12229 1.73681,-0.48833 2.43992,-0.81389 0.70312,-0.32473 2.2646,-0.98989 3.46995,-1.4774 4.0151,-1.62449 6.2039,-2.54167 6.75727,-2.83169 0.30134,-0.15865 1.77242,-0.85191 3.26997,-1.54103 7.8366,-3.60923 8.05302,-4.29918 8.05302,-25.71163 0,-20.2168 -0.0739,-20.55062 -5.26885,-24.045 -2.12488,-1.42865 -0.85835,-1.31214 -15.00296,-1.38072 -6.71343,-0.0331 -10.64635,-0.18261 -11.44809,-0.43546 -0.67116,-0.21235 -3.17773,-0.54865 -5.57109,-0.74779 -2.39244,-0.19996 -4.92002,-0.57758 -5.61584,-0.84116 -1.5222,-0.5751 -1.40624,-0.57097 -1.94682,-0.0818"
     stroke="none"
     fill="#ffffff"
     fill-rule="evenodd"
     style="fill:#ffffff;stroke-width:0.868632" />
</svg>
