<?xml version="1.0" encoding="UTF-8" standalone="no"?>
<svg
   id="svg"
   version="1.1"
   width="390.09052"
   height="390.09052"
   viewBox="0 0 390.09052 390.09052"
   sodipodi:docname="stroemudfald_afsluttet.svg"
   inkscape:version="1.1 (c68e22c387, 2021-05-23)"
   xmlns:inkscape="http://www.inkscape.org/namespaces/inkscape"
   xmlns:sodipodi="http://sodipodi.sourceforge.net/DTD/sodipodi-0.dtd"
   xmlns="http://www.w3.org/2000/svg"
   xmlns:svg="http://www.w3.org/2000/svg">
  <defs
     id="defs8" />
  <sodipodi:namedview
     id="namedview6"
     pagecolor="#ffffff"
     bordercolor="#666666"
     borderopacity="1.0"
     inkscape:pageshadow="2"
     inkscape:pageopacity="0.0"
     inkscape:pagecheckerboard="0"
     showgrid="false"
     fit-margin-top="0"
     fit-margin-left="0"
     fit-margin-right="0"
     fit-margin-bottom="0"
     inkscape:zoom="0.42224253"
     inkscape:cx="191.83288"
     inkscape:cy="190.64872"
     inkscape:window-width="1920"
     inkscape:window-height="1017"
     inkscape:window-x="-8"
     inkscape:window-y="-8"
     inkscape:window-maximized="1"
     inkscape:current-layer="svg" />
  <circle
     style="fill:#338000;stroke:#ffffff;stroke-width:0;stroke-miterlimit:4;stroke-dasharray:none"
     id="path153"
     cx="195.04526"
     cy="195.04526"
     r="195.04526" />
  <path
     d="m 289.54259,121.95791 q 3.67915,4.08793 1.43079,8.99347 L 180.59909,367.43846 q -2.65716,5.10996 -8.58467,5.10996 -0.81758,0 -2.86155,-0.40881 -3.47476,-1.022 -5.21213,-3.88354 -1.73737,-2.86153 -0.91978,-6.13187 l 40.26618,-165.15265 -82.98511,20.64407 q -0.81759,0.2044 -2.45276,0.2044 -3.67914,0 -6.33631,-2.24836 -3.67914,-3.06596 -2.65716,-7.97147 L 149.93956,38.972804 q 0.81759,-2.861553 3.27035,-4.701125 2.45276,-1.839571 5.72312,-1.839571 h 67.04215 q 3.88354,0 6.5407,2.55496 2.65716,2.55496 2.65716,6.029711 0,1.635169 -1.02198,3.679144 l -34.95186,94.635717 80.94114,-20.0309 q 1.63519,-0.40878 2.45276,-0.40878 3.88355,0 6.94949,3.06595 z"
     id="path2"
     style="fill:#ffffff;stroke-width:0.204396" />
</svg>
