<?xml version="1.0" encoding="UTF-8" standalone="no"?>
<svg
   id="svg"
   version="1.1"
   width="390.09052"
   height="390.09052"
   viewBox="0 0 390.09052 390.09052"
   sodipodi:docname="vaelt_trae_igang.svg"
   inkscape:version="1.1 (c68e22c387, 2021-05-23)"
   xmlns:inkscape="http://www.inkscape.org/namespaces/inkscape"
   xmlns:sodipodi="http://sodipodi.sourceforge.net/DTD/sodipodi-0.dtd"
   xmlns="http://www.w3.org/2000/svg"
   xmlns:svg="http://www.w3.org/2000/svg">
  <defs
     id="defs8" />
  <sodipodi:namedview
     id="namedview6"
     pagecolor="#ffffff"
     bordercolor="#666666"
     borderopacity="1.0"
     inkscape:pageshadow="2"
     inkscape:pageopacity="0.0"
     inkscape:pagecheckerboard="0"
     showgrid="false"
     fit-margin-top="0"
     fit-margin-left="0"
     fit-margin-right="0"
     fit-margin-bottom="0"
     inkscape:zoom="0.42224253"
     inkscape:cx="191.83288"
     inkscape:cy="190.64872"
     inkscape:window-width="1920"
     inkscape:window-height="1017"
     inkscape:window-x="-8"
     inkscape:window-y="-8"
     inkscape:window-maximized="1"
     inkscape:current-layer="svg" />
  <circle
     style="fill:#ff6600;stroke:#ffffff;stroke-width:0;stroke-miterlimit:4;stroke-dasharray:none"
     id="path153"
     cx="195.04526"
     cy="195.04526"
     r="195.04526" />
  <path
     id="path1"
     d="m 238.39648,18.255796 c -0.10724,0.28004 -0.54514,0.389848 -1.55484,0.389848 -0.93303,0 -1.51521,0.131248 -1.72962,0.389846 -0.17803,0.214416 -0.52499,0.389847 -0.77124,0.389847 -0.24626,0 -0.6595,0.233907 -0.9181,0.519794 -0.29368,0.324223 -0.80047,0.519796 -1.34822,0.519796 -0.6335,0 -1.09092,0.217664 -1.6406,0.779693 -0.54578,0.558129 -1.0084,0.779692 -1.62956,0.779692 -0.65039,0 -1.08832,0.228061 -1.74911,0.909641 -0.4847,0.500305 -1.07857,0.909644 -1.31833,0.909644 -0.2404,0 -0.58282,0.175429 -0.76085,0.389846 -0.17803,0.214415 -0.52888,0.389845 -0.7797,0.389845 -0.25079,0 -0.60165,0.175431 -0.77969,0.389847 -0.17802,0.214415 -0.56658,0.389847 -0.8635,0.389847 -0.31124,0 -1.05454,0.549033 -1.7595,1.299488 -0.6712,0.714719 -1.43919,1.299488 -1.70688,1.299488 -0.66859,0 -6.48056,5.915271 -6.68587,6.80542 -0.11956,0.517196 -0.34501,0.718617 -0.87521,0.779693 -0.62376,0.07148 -0.72447,0.208568 -0.79593,1.081824 -0.0572,0.693927 -0.31643,1.228667 -0.84467,1.745862 -0.41974,0.409989 -0.7628,0.968769 -0.7628,1.242311 0,0.272893 -0.16829,0.6361 -0.37426,0.806982 -0.20596,0.170883 -0.41063,0.565278 -0.45482,0.876505 -0.12929,0.907044 -1.18123,0.8869 -2.0272,-0.03899 -0.39115,-0.42818 -0.99086,-0.818677 -1.33197,-0.866758 -0.45807,-0.06498 -0.6413,-0.276792 -0.70302,-0.812831 -0.0643,-0.559428 -0.25146,-0.75825 -0.82324,-0.872606 -0.40673,-0.08122 -1.06363,-0.486008 -1.45997,-0.899245 -0.39569,-0.413887 -0.90965,-0.751754 -1.14225,-0.751754 -0.23261,0 -0.7589,-0.350862 -1.16954,-0.779693 l -0.74721,-0.779694 h -3.56189 c -2.92644,0 -3.58854,0.06953 -3.71199,0.389847 -0.0819,0.214415 -0.41908,0.389847 -0.7485,0.389847 -0.68613,0 -4.35524,3.522262 -4.35524,4.181103 0,0.219614 -0.35086,0.736161 -0.77969,1.146799 -0.60167,0.576322 -0.7797,0.975265 -0.7797,1.745862 0,0.648445 -0.13709,1.051936 -0.38984,1.148748 -0.21442,0.08252 -0.38985,0.411288 -0.38985,0.731611 0,0.319674 -0.23391,0.793339 -0.5198,1.051936 -0.39375,0.35606 -0.51979,0.800485 -0.51979,1.831629 0,0.970718 -0.11175,1.404746 -0.38985,1.511304 -0.25469,0.09746 -0.38984,0.502253 -0.38984,1.164991 0,0.58607 -0.16503,1.153296 -0.38985,1.339773 -0.28914,0.239756 -0.38984,0.879104 -0.38984,2.469032 0,1.589928 -0.10071,2.229271 -0.38985,2.469024 -0.28849,0.239754 -0.38985,0.877803 -0.38985,2.460585 0,1.80694 -0.0806,2.209781 -0.51979,2.607423 -0.45222,0.408693 -0.5198,0.800484 -0.5198,2.997268 0,1.947938 -0.0909,2.602225 -0.39634,2.855628 -0.35541,0.294993 -0.35541,0.3749 0,0.767344 0.5055,0.558141 0.5081,1.40995 0.007,1.82643 -0.29759,0.24691 -0.38985,0.921992 -0.38985,2.858879 0,1.936888 -0.0923,2.61197 -0.38985,2.85888 -0.28718,0.238448 -0.38985,0.873256 -0.38985,2.41509 0,1.582131 -0.10463,2.207835 -0.43013,2.567791 -0.40024,0.441833 -0.40024,0.508101 0,0.949922 0.53475,0.591271 0.54968,1.181888 0.0402,1.60422 -0.30083,0.249509 -0.38984,0.941482 -0.38984,3.029113 0,2.164297 0.078,2.734772 0.38984,2.854322 0.67444,0.259255 0.49707,1.982372 -0.27937,2.711389 -0.61661,0.579567 -0.68809,0.593217 -0.92199,0.174779 -0.13971,-0.248857 -0.51655,-0.452871 -0.83818,-0.452871 -0.33007,0 -0.8609,-0.333974 -1.22151,-0.76865 -0.35022,-0.422984 -0.87781,-0.773848 -1.17149,-0.779699 -0.29304,-0.0054 -0.93044,-0.420385 -1.41514,-0.920687 -0.48472,-0.500302 -1.07078,-0.909636 -1.30209,-0.909636 -0.23066,0 -0.75631,-0.350865 -1.16695,-0.7797 -0.57632,-0.601657 -0.97526,-0.779688 -1.74586,-0.779688 -0.64844,0 -1.05194,-0.137094 -1.14874,-0.389845 -0.22091,-0.574368 -7.15434,-0.574368 -7.63126,0 -0.17802,0.214413 -0.58931,0.389845 -0.91353,0.389845 -0.32487,0 -0.65754,0.175432 -0.74006,0.389855 -0.0819,0.214412 -0.40998,0.389833 -0.72901,0.389833 -0.35801,0 -1.037,0.487316 -1.7764,1.274803 -0.65819,0.701076 -1.48271,1.315088 -1.83293,1.364466 -0.43728,0.06178 -0.66274,0.281333 -0.72252,0.704969 -0.0481,0.337868 -0.42818,0.947975 -0.84466,1.355363 -0.41649,0.407398 -0.7576,0.956426 -0.7576,1.220868 0,0.263801 -0.35087,0.81608 -0.7797,1.22673 -0.42882,0.410629 -0.7797,0.940819 -0.7797,1.177984 0,0.237154 -0.2339,0.642595 -0.51979,0.901197 -0.32616,0.294982 -0.51979,0.800472 -0.51979,1.356667 0,0.665326 -0.19427,1.04933 -0.77969,1.541833 -0.62376,0.52499 -0.7797,0.86156 -0.7797,1.68089 0,0.67119 -0.13449,1.07663 -0.38984,1.17409 -0.25015,0.0961 -0.38985,0.4977 -0.38985,1.12146 0,0.6413 -0.17673,1.1312 -0.5198,1.44178 -0.43922,0.39764 -0.51978,0.80048 -0.51978,2.60742 0,1.58279 -0.10137,2.22083 -0.38986,2.46059 -0.22481,0.18647 -0.38984,0.75369 -0.38984,1.33976 0,0.66274 -0.13515,1.06754 -0.38986,1.16499 -0.32031,0.12347 -0.38984,0.7875 -0.38984,3.73279 0,2.94529 -0.0695,3.60933 -0.38983,3.73278 -0.58609,0.22482 -0.58609,17.09217 0,17.57882 0.30017,0.24886 0.38983,0.93693 0.38983,2.99273 0,2.13311 0.0786,2.69968 0.38984,2.81923 0.25471,0.0974 0.38986,0.50226 0.38986,1.165 0,0.58606 0.16503,1.15329 0.38984,1.33977 0.24951,0.20662 0.38986,0.78164 0.38986,1.59383 0,0.94861 0.13188,1.38265 0.51978,1.71532 0.28589,0.24495 0.5198,0.69717 0.5198,1.00515 0,0.30798 0.17543,0.70562 0.38985,0.88365 0.21442,0.17803 0.38984,0.5289 0.38984,0.77969 0,0.2508 0.16829,0.59583 0.37426,0.7667 0.20597,0.17089 0.41064,0.56528 0.45482,0.87651 0.0487,0.34307 0.29563,0.59647 0.627,0.6439 0.30083,0.043 0.93758,0.48145 1.41515,0.97461 0.47821,0.49316 1.10975,0.90184 1.4028,0.90769 0.29368,0.005 0.82127,0.35672 1.17148,0.7797 0.4951,0.59646 0.85182,0.76865 1.59253,0.76865 0.53213,0 1.09871,0.17282 1.27869,0.38984 0.17803,0.21442 0.70043,0.38985 1.1611,0.38985 0.50744,0 1.02269,0.20466 1.30793,0.51979 0.30992,0.34242 0.80048,0.51979 1.43789,0.51979 0.54317,0 1.10976,0.17089 1.29103,0.38986 0.17803,0.21441 0.52889,0.38984 0.7797,0.38984 0.25079,0 0.60165,0.17543 0.77969,0.38985 0.18323,0.22026 0.7498,0.38984 1.30339,0.38984 0.63155,0 1.03308,0.1384 1.1299,0.38984 0.0819,0.21443 0.44117,0.38986 0.79788,0.38986 0.38271,0 0.7628,0.21312 0.92719,0.51979 0.15724,0.29433 0.54448,0.51979 0.8908,0.51979 0.33721,0 0.68028,0.17545 0.7628,0.38986 0.0975,0.25469 0.50225,0.38984 1.16499,0.38984 0.58606,0 1.1533,0.16504 1.33977,0.38984 0.18453,0.22222 0.75111,0.38985 1.31833,0.38985 0.58217,0 1.08118,0.15139 1.20268,0.36516 0.11436,0.20012 0.5003,0.4048 0.85766,0.45482 1.72962,0.2391 1.43399,0.57112 -16.10716,18.10447 -10.47582,10.47062 -17.13505,16.93883 -17.4924,16.98951 -0.37036,0.0526 -0.60687,0.29368 -0.66079,0.67378 -0.11501,0.80828 -1.08898,1.80629 -1.87127,1.91609 -0.42103,0.0598 -0.67118,0.282 -0.72252,0.64326 -0.0942,0.66013 -1.02009,1.56848 -1.72897,1.69713 -0.28004,0.0507 -0.57501,0.37296 -0.65623,0.71601 -0.14424,0.61271 -0.46587,0.88691 -1.36967,1.1663 -0.3723,0.115 -0.45481,0.44767 -0.45481,1.83877 v 1.69779 l 13.64918,13.64397 c 8.24199,8.23875 13.84019,13.64397 14.13257,13.64397 0.26575,0 0.62896,0.17545 0.80699,0.38986 0.49445,0.5958 1.12599,0.46911 1.94923,-0.38986 0.41064,-0.42882 0.94473,-0.77969 1.18642,-0.77969 0.5211,0 0.93045,-0.45027 1.06234,-1.16954 0.0533,-0.29043 0.33852,-0.55488 0.64519,-0.59842 0.6582,-0.0942 1.56589,-1.02138 1.69454,-1.72896 0.0507,-0.28004 0.33267,-0.57243 0.62636,-0.64974 0.86676,-0.23001 1.8771,-1.17148 1.97326,-1.83879 0.0579,-0.40283 0.30864,-0.67182 0.71408,-0.76734 0.614,-0.14359 0.8882,-0.46521 1.16758,-1.369 0.0773,-0.25016 0.35736,-0.45483 0.62311,-0.45483 0.57437,0 1.52299,-0.96292 1.65295,-1.67764 0.0507,-0.28004 0.35671,-0.57242 0.67898,-0.64974 0.32292,-0.078 7.70012,-7.24659 16.39369,-15.93043 15.15269,-15.13579 15.84596,-15.78878 16.76016,-15.78878 1.03893,0 1.99277,0.71666 1.99277,1.49766 0,0.59907 7.01397,7.59875 7.61435,7.59875 0.25274,0 0.80308,0.35087 1.22216,0.7797 0.54968,0.56203 1.00711,0.77969 1.6406,0.77969 0.54773,0 1.05454,0.19557 1.34823,0.5198 0.31057,0.34306 0.80048,0.5198 1.44177,0.5198 0.62376,0 1.0253,0.13969 1.12146,0.38984 0.0988,0.25795 0.50614,0.38984 1.20527,0.38984 0.69913,0 1.10653,-0.13189 1.20529,-0.38984 0.0961,-0.25015 0.4977,-0.38984 1.12146,-0.38984 0.64129,0 1.13119,-0.17674 1.44177,-0.5198 0.28005,-0.30928 0.80049,-0.5198 1.28585,-0.5198 0.62246,0 1.08572,-0.27613 1.96287,-1.16953 0.63156,-0.64326 1.36576,-1.16955 1.63281,-1.16955 0.27355,0 1.78615,-1.31053 3.46833,-3.00506 3.30786,-3.33319 3.77242,-3.53007 4.01672,-1.70428 0.0883,0.66209 0.33138,1.23192 0.58478,1.37421 0.23845,0.1332 0.43337,0.51654 0.43337,0.85117 0,0.33526 0.17543,0.67637 0.38984,0.7589 0.21442,0.0819 0.38986,0.42168 0.38986,0.75435 0,0.72381 1.75171,2.5301 2.45343,2.5301 0.26574,0 0.8804,0.40934 1.36641,0.90964 0.48601,0.5003 1.09742,0.90965 1.35861,0.90965 0.26185,0 0.62116,0.17543 0.79919,0.38984 0.23066,0.27744 0.84012,0.38984 2.11947,0.38984 1.35601,0 1.83163,0.0955 1.94468,0.38986 0.22286,0.57957 9.48951,0.57957 9.97032,0 0.23976,-0.28914 0.8791,-0.38986 2.46904,-0.38986 1.58992,0 2.22927,-0.10071 2.46901,-0.38984 0.21183,-0.25535 0.79139,-0.38984 1.6809,-0.38984 1.02724,0 1.47167,-0.12671 1.82773,-0.5198 0.35607,-0.39375 0.80048,-0.5198 1.83163,-0.5198 0.97071,0 1.40474,-0.11175 1.51131,-0.38984 0.10723,-0.28004 0.54512,-0.38985 1.55483,-0.38985 0.93303,0 1.51519,-0.13125 1.72962,-0.38984 0.18647,-0.22482 0.7537,-0.38986 1.33977,-0.38986 0.66274,0 1.06753,-0.13513 1.16499,-0.38984 0.0968,-0.25145 0.49836,-0.38985 1.1299,-0.38985 0.55359,0 1.12017,-0.16958 1.3034,-0.38984 0.17803,-0.21441 0.71991,-0.38985 1.20396,-0.38985 0.55879,0 1.04285,-0.18972 1.32549,-0.5198 0.24495,-0.28588 0.69912,-0.51979 1.00906,-0.51979 0.31057,0 0.63154,-0.17543 0.71406,-0.38984 0.0974,-0.2547 0.50226,-0.38986 1.16499,-0.38986 0.58607,0 1.1533,-0.16503 1.33977,-0.38983 0.17803,-0.21443 0.58931,-0.38985 0.91354,-0.38985 0.32487,0 0.65754,-0.17544 0.74006,-0.38985 0.0819,-0.21441 0.44898,-0.38985 0.81544,-0.38985 0.36645,0 0.73355,-0.17543 0.81541,-0.38985 0.0826,-0.21441 0.41129,-0.38985 0.73162,-0.38985 0.31967,0 0.79334,-0.2339 1.05194,-0.51979 0.28523,-0.31512 0.80048,-0.51979 1.30793,-0.51979 0.46067,0 0.98306,-0.17543 1.16109,-0.38985 0.17803,-0.21441 0.54708,-0.38984 0.81998,-0.38984 0.27354,0 0.84012,-0.35086 1.2592,-0.7797 0.41908,-0.42882 0.99606,-0.77969 1.2813,-0.77969 0.28589,0 0.64519,-0.23391 0.79789,-0.5198 0.15658,-0.29238 0.54449,-0.51979 0.8869,-0.51979 0.33461,0 0.75435,-0.17544 0.93238,-0.38985 0.17803,-0.21441 0.52888,-0.38984 0.7797,-0.38984 0.25079,0 0.60165,-0.17543 0.77969,-0.38986 0.17802,-0.21441 0.52889,-0.38983 0.77968,-0.38983 0.25081,0 0.60167,-0.17544 0.7797,-0.38986 0.17803,-0.21441 0.55553,-0.38984 0.83947,-0.38984 0.28329,0 1.06428,-0.58478 1.73547,-1.29949 0.68028,-0.72446 1.45152,-1.29948 1.74326,-1.29948 0.28718,0 0.85896,-0.35087 1.2696,-0.7797 0.41063,-0.42883 0.93433,-0.77969 1.16304,-0.77969 0.22871,0 0.99216,-0.58477 1.69583,-1.29949 0.70368,-0.71472 1.46388,-1.29949 1.68934,-1.29949 0.22546,0 0.98566,-0.58477 1.68933,-1.29948 0.7732,-0.7849 1.50871,-1.2995 1.85697,-1.2995 0.43664,0 0.59777,-0.17413 0.65949,-0.71471 0.0598,-0.51915 0.24755,-0.73812 0.68613,-0.8005 0.7706,-0.10915 4.14083,-3.48911 4.25128,-4.2636 0.0598,-0.42039 0.30278,-0.62247 0.86286,-0.71798 0.60426,-0.10332 0.79723,-0.28523 0.85832,-0.81088 0.0436,-0.3736 0.42362,-1.00839 0.84466,-1.41189 0.42168,-0.40413 0.76605,-0.92328 0.76605,-1.15395 0,-0.2313 0.40934,-0.81738 0.90964,-1.30209 0.5003,-0.4847 0.90963,-1.10001 0.90963,-1.36705 0,-0.26704 0.35088,-0.78101 0.7797,-1.1416 0.47431,-0.39959 0.7797,-0.90509 0.7797,-1.29105 0,-0.34891 0.17542,-0.70238 0.38985,-0.78424 0.21441,-0.0825 0.38983,-0.40349 0.38983,-0.71407 0,-0.30992 0.23391,-0.7641 0.5198,-1.00905 0.28589,-0.24495 0.5198,-0.66599 0.5198,-0.93563 0,-0.26965 0.17543,-0.6361 0.38984,-0.81413 0.22026,-0.18323 0.38986,-0.7498 0.38986,-1.30339 0,-0.63155 0.13838,-1.03309 0.38984,-1.12991 0.30669,-0.1176 0.38984,-0.64974 0.38984,-2.49631 0,-1.91349 0.0721,-2.34753 0.38985,-2.34753 0.32617,0 0.38984,-0.54577 0.38984,-3.35072 0,-2.73868 -0.0714,-3.37803 -0.38984,-3.50082 -0.30602,-0.1176 -0.38985,-0.64715 -0.38985,-2.46904 0,-1.82188 -0.0837,-2.35142 -0.38984,-2.46902 -0.25471,-0.0974 -0.38984,-0.50226 -0.38984,-1.16499 0,-0.58608 -0.16504,-1.15329 -0.38986,-1.33977 -0.21441,-0.17804 -0.38984,-0.71993 -0.38984,-1.20398 0,-0.55877 -0.18973,-1.04284 -0.5198,-1.32548 -0.34371,-0.29434 -0.5198,-0.7667 -0.5198,-1.395 0,-0.52759 -0.17347,-1.09416 -0.38983,-1.2735 -0.21443,-0.17803 -0.38985,-0.52888 -0.38985,-0.7797 0,-0.25079 -0.17544,-0.60166 -0.38985,-0.77969 -0.22027,-0.18323 -0.38985,-0.7498 -0.38985,-1.30338 0,-0.63156 -0.1384,-1.03309 -0.38985,-1.1299 -0.25145,-0.0961 -0.38985,-0.49836 -0.38985,-1.13381 0,-0.80699 -0.16373,-1.12081 -0.90963,-1.74262 -0.73421,-0.61206 -0.90964,-0.94083 -0.90964,-1.70427 0,-0.71148 -0.19297,-1.13056 -0.7797,-1.69258 -0.43207,-0.41389 -0.77969,-1.0188 -0.77969,-1.35603 0,-0.33527 -0.17543,-0.67703 -0.38984,-0.75889 -0.21442,-0.0826 -0.38986,-0.4009 -0.38986,-0.70822 0,-0.32033 -0.38789,-0.88171 -0.90963,-1.31704 -0.51461,-0.42882 -0.90964,-0.99735 -0.90964,-1.30858 0,-0.30928 -0.51266,-1.05389 -1.16954,-1.69843 -0.64325,-0.63156 -1.16955,-1.33069 -1.16955,-1.55419 0,-0.22352 -0.9941,-1.39565 -2.20913,-2.60417 -1.21501,-1.20854 -2.20912,-2.37807 -2.20912,-2.59833 0,-0.22027 -1.11107,-1.5074 -2.46903,-2.85952 -1.35796,-1.35213 -2.46903,-2.64511 -2.46903,-2.87318 0,-0.51655 1.06559,-1.54509 1.60096,-1.54509 0.21897,0 0.60947,-0.2339 0.86807,-0.51979 0.25859,-0.28588 0.67183,-0.51979 0.91808,-0.51979 0.24626,0 0.59322,-0.17544 0.77125,-0.38985 0.17803,-0.21441 0.54708,-0.38984 0.81997,-0.38984 0.27356,0 0.84013,-0.35087 1.25921,-0.7797 0.41909,-0.42883 0.97462,-0.77969 1.23387,-0.77969 0.65884,0 3.44429,-2.873825 3.44429,-3.553453 0,-0.302129 0.17543,-0.616612 0.38985,-0.699118 0.25469,-0.09745 0.38985,-0.50226 0.38985,-1.165009 0,-0.58606 0.16504,-1.153294 0.38983,-1.339766 0.50161,-0.415838 0.50161,-1.403446 0,-1.819284 -0.22026,-0.183219 -0.38983,-0.749801 -0.38983,-1.303385 0,-0.631545 -0.1384,-1.033092 -0.38985,-1.1299 -0.21442,-0.0819 -0.38985,-0.404799 -0.38985,-0.716673 0,-0.688731 -2.65615,-3.347479 -3.34424,-3.347479 -0.26053,0 -0.68548,-0.233902 -0.94407,-0.519792 -0.28525,-0.315136 -0.80049,-0.519803 -1.30794,-0.519803 -0.46067,0 -0.98306,-0.175422 -1.16109,-0.389845 -0.17803,-0.214423 -0.58932,-0.389844 -0.91354,-0.389844 -0.32486,0 -0.65754,-0.175432 -0.74006,-0.389844 -0.0974,-0.254708 -0.50225,-0.389855 -1.165,-0.389855 -0.58606,0 -1.15328,-0.165035 -1.33976,-0.389845 -0.21442,-0.258591 -0.79658,-0.389844 -1.72961,-0.389844 -1.00971,0 -1.44764,-0.109816 -1.55485,-0.389844 -0.10658,-0.278092 -0.54058,-0.389844 -1.5113,-0.389844 -1.03114,0 -1.47558,-0.126055 -1.83163,-0.519804 -0.31058,-0.343066 -0.80048,-0.519792 -1.44178,-0.519792 -0.62375,0 -1.0253,-0.139693 -1.12146,-0.389844 -0.0819,-0.214412 -0.42623,-0.389855 -0.7641,-0.389855 -1.12796,0 -0.95318,-0.307327 1.6497,-2.9089 2.23383,-2.231871 2.58728,-2.702285 2.58728,-3.444941 0,-0.473014 0.17543,-1.005161 0.38984,-1.183182 0.28914,-0.239754 0.38986,-0.879107 0.38986,-2.469025 0,-1.605524 0.0994,-2.227987 0.39633,-2.474234 0.35542,-0.294982 0.35542,-0.3749 0,-0.767344 -0.24495,-0.270946 -0.39633,-0.938882 -0.39633,-1.750416 0,-0.849209 -0.13776,-1.426188 -0.38986,-1.635402 -0.21441,-0.178031 -0.38984,-0.695877 -0.38984,-1.150695 0,-0.603615 -0.2456,-1.064284 -0.90964,-1.708184 -0.5003,-0.484706 -0.90965,-1.138351 -0.90965,-1.452824 0,-0.313831 -0.17543,-0.638048 -0.38984,-0.720566 -0.21441,-0.0819 -0.38984,-0.41909 -0.38984,-0.748506 0,-0.402841 -0.67639,-1.271551 -2.06749,-2.654202 -1.13705,-1.129911 -2.10193,-2.296844 -2.14416,-2.592486 -0.0461,-0.325522 -0.30278,-0.570475 -0.64974,-0.619206 -0.31513,-0.04483 -1.15394,-0.658841 -1.86282,-1.364463 -0.70951,-0.705622 -1.49505,-1.283245 -1.74586,-1.283245 -0.25015,0 -0.95968,-0.526292 -1.57629,-1.169538 -0.61595,-0.643248 -1.3521,-1.169541 -1.6354,-1.169541 -0.28329,0 -0.64064,-0.233907 -0.79334,-0.519794 -0.15658,-0.292386 -0.54448,-0.519796 -0.88689,-0.519796 -0.33463,0 -0.75435,-0.175431 -0.93238,-0.389846 -0.17803,-0.214416 -0.5289,-0.389847 -0.7797,-0.389847 -0.25079,0 -0.60167,-0.175431 -0.7797,-0.389846 -0.18647,-0.224812 -0.75369,-0.389847 -1.33976,-0.389847 -0.66274,0 -1.06753,-0.135147 -1.16499,-0.389846 -0.0962,-0.250152 -0.49772,-0.389847 -1.12146,-0.389847 -0.6413,0 -1.13121,-0.17673 -1.44179,-0.519794 -0.40869,-0.452223 -0.80048,-0.519797 -2.99727,-0.519797 -1.92908,0 -2.60352,-0.09226 -2.85042,-0.389846 -0.47691,-0.574373 -8.6195,-0.574373 -9.09642,0 -0.23976,0.288486 -0.87781,0.389846 -2.46059,0.389846 -1.80693,0 -2.20977,0.08057 -2.60741,0.519797 -0.31058,0.343064 -0.80048,0.519794 -1.4418,0.519794 -0.62374,0 -1.02529,0.139695 -1.12144,0.389847 -0.0819,0.214415 -0.43143,0.389846 -0.77515,0.389846 -0.34437,0 -0.77709,0.181278 -0.96097,0.402842 -0.21637,0.260547 -0.66339,0.375553 -1.26635,0.324872 l -0.93174,-0.07797 -0.0747,-2.250714 c -0.0526,-1.584076 -0.18711,-2.343627 -0.45482,-2.56519 -0.23845,-0.198173 -0.38008,-0.788139 -0.38008,-1.586025 0,-0.948627 -0.13191,-1.382655 -0.51981,-1.715325 -0.3437,-0.294334 -0.51979,-0.766697 -0.51979,-1.394999 0,-0.527593 -0.17348,-1.09417 -0.38984,-1.2735 -0.21442,-0.17803 -0.38986,-0.704321 -0.38986,-1.169538 0,-0.465217 -0.17542,-0.99151 -0.38984,-1.169541 -0.21442,-0.178029 -0.38985,-0.605561 -0.38985,-0.949925 0,-0.343715 -0.17543,-0.693278 -0.38984,-0.775144 -0.21441,-0.08252 -0.38985,-0.400894 -0.38985,-0.708222 0,-0.320324 -0.38789,-0.881702 -0.90963,-1.31703 -0.51981,-0.43338 -0.90966,-0.996708 -0.90966,-1.314434 0,-0.305379 -0.35085,-0.892099 -0.77968,-1.302737 -0.42884,-0.410638 -0.7797,-0.933032 -0.7797,-1.159793 0,-0.526942 -3.64962,-4.168108 -4.1785,-4.168108 -0.21897,0 -0.79463,-0.40934 -1.27935,-0.909642 -0.70302,-0.725765 -1.08182,-0.909642 -1.86997,-0.909642 -0.70562,0 -0.98891,-0.111757 -0.98891,-0.389846 0,-0.564629 -3.25587,-0.564629 -3.47287,0 M 109.1156,257.8262 l -1.09352,1.11431 v 24.75395 c 0,21.76318 -0.0468,24.7715 -0.38984,24.90274 -0.21443,0.0826 -0.38986,0.4152 -0.38986,0.74007 0,0.32422 -0.17543,0.7355 -0.38984,0.91353 -0.21441,0.17803 -0.38985,0.52045 -0.38985,0.76086 0,0.23975 -0.40933,0.83361 -0.90964,1.31833 -0.50031,0.48471 -0.90964,1.13835 -0.90964,1.45282 0,0.31383 -0.17543,0.63805 -0.38984,0.72057 -0.21443,0.0819 -0.38985,0.41648 -0.38985,0.74331 0,0.38335 -0.46003,1.00711 -1.29949,1.76145 -0.71472,0.64196 -1.29949,1.39305 -1.29949,1.66789 0,0.2755 -0.52629,1.00451 -1.16954,1.62111 -0.643246,0.61596 -1.169538,1.32938 -1.169538,1.58409 0,0.5984 -5.452004,6.04262 -6.051067,6.04262 -0.250151,0 -0.959672,0.52629 -1.57563,1.16953 -0.616607,0.64326 -1.354066,1.16954 -1.639954,1.16954 -0.285238,0 -0.860261,0.40935 -1.277397,0.90965 -0.43208,0.5185 -0.997356,0.90964 -1.313133,0.90964 -0.30473,0 -0.699774,0.17543 -0.877804,0.38984 -0.17803,0.21441 -0.528891,0.38986 -0.779693,0.38986 -0.2508,0 -0.601664,0.17542 -0.779693,0.38984 -0.186477,0.22481 -0.753703,0.38983 -1.339772,0.38983 -0.66274,0 -1.06753,0.13516 -1.164991,0.38986 -0.09681,0.25146 -0.498354,0.38984 -1.129905,0.38984 -0.553582,0 -1.120159,0.1696 -1.303387,0.38986 -0.17803,0.21441 -0.519795,0.38984 -0.759552,0.38984 -0.573073,0 -1.059731,0.5055 -1.059731,1.10002 0,0.26119 -0.175431,0.54318 -0.389848,0.62505 -0.522394,0.20077 -0.537987,1.9135 -0.01754,1.9135 0.213766,0 0.40804,0.30538 0.45482,0.71472 0.06563,0.56527 0.234559,0.73225 0.812832,0.79853 0.401541,0.0461 0.793987,0.25081 0.871956,0.45482 0.214415,0.55878 100.279547,0.56008 100.493957,9.3e-4 0.078,-0.20338 0.41194,-0.40804 0.74266,-0.45483 0.384,-0.0546 0.6296,-0.28848 0.68093,-0.65104 0.0442,-0.31123 0.24886,-0.70563 0.45483,-0.87651 0.48146,-0.39958 0.48146,-1.3937 0,-1.7933 -0.20597,-0.17087 -0.41064,-0.62374 -0.45483,-1.00644 -0.0624,-0.53604 -0.2404,-0.71407 -0.77643,-0.77645 -0.38271,-0.0442 -0.83558,-0.24885 -1.00647,-0.45482 -0.19816,-0.2391 -0.80503,-0.37426 -1.68023,-0.37426 -0.97787,0 -1.41255,-0.11175 -1.51975,-0.38984 -0.0819,-0.21441 -0.44897,-0.38984 -0.81544,-0.38984 -0.36645,0 -0.73356,-0.17544 -0.81542,-0.38985 -0.0968,-0.25146 -0.49835,-0.38984 -1.12991,-0.38984 -0.55358,0 -1.12015,-0.16959 -1.30339,-0.38986 -0.17802,-0.21441 -0.52044,-0.38984 -0.76085,-0.38984 -0.23974,0 -0.83362,-0.40934 -1.31833,-0.90964 -0.48469,-0.5003 -1.11236,-0.90965 -1.39499,-0.90965 -0.28264,0 -1.0175,-0.52628 -1.63411,-1.16954 -0.61596,-0.64324 -1.33068,-1.16953 -1.58797,-1.16953 -0.61985,0 -3.43975,-2.86732 -3.43975,-3.49823 0,-0.27158 -0.7602,-1.22477 -1.68934,-2.11816 -0.96487,-0.92719 -1.68934,-1.84462 -1.68934,-2.13895 0,-0.28329 -0.35085,-0.81024 -0.77969,-1.1715 -0.42883,-0.3606 -0.77968,-0.87455 -0.77968,-1.14161 0,-0.26704 -0.40934,-0.88233 -0.90964,-1.36705 -0.50031,-0.48471 -0.90966,-1.07078 -0.90966,-1.30209 0,-0.23066 -0.35085,-0.7563 -0.77968,-1.16693 -0.42884,-0.41064 -0.7797,-1.00517 -0.7797,-1.32029 0,-0.31512 -0.17543,-0.64064 -0.38985,-0.72317 -0.21441,-0.0819 -0.38983,-0.44896 -0.38983,-0.81541 0,-0.36647 -0.17544,-0.73357 -0.38985,-0.81544 -0.21442,-0.0826 -0.38985,-0.41129 -0.38985,-0.73161 0,-0.31968 -0.23392,-0.79335 -0.5198,-1.05194 -0.51264,-0.46391 -0.51979,-0.80048 -0.51979,-25.1204 v -24.65065 l -1.07078,-1.03893 -1.07078,-1.0396 h -19.53715 -19.53651 l -1.09416,1.11431"
     stroke="none"
     fill="#ffffff"
     fill-rule="evenodd"
     style="fill:#ffffff;stroke-width:0.649744" />
</svg>
