<?xml version="1.0" encoding="UTF-8" standalone="no"?>
<svg
   enable-background="new 0 0 580 580"
   height="580"
   viewBox="0 0 580 580"
   width="580"
   version="1.1"
   id="svg8"
   sodipodi:docname="112sirene.svg"
   inkscape:version="1.1 (c68e22c387, 2021-05-23)"
   xmlns:inkscape="http://www.inkscape.org/namespaces/inkscape"
   xmlns:sodipodi="http://sodipodi.sourceforge.net/DTD/sodipodi-0.dtd"
   xmlns="http://www.w3.org/2000/svg"
   xmlns:svg="http://www.w3.org/2000/svg">
  <defs
     id="defs12" />
  <sodipodi:namedview
     id="namedview10"
     pagecolor="#ffffff"
     bordercolor="#666666"
     borderopacity="1.0"
     inkscape:pageshadow="2"
     inkscape:pageopacity="0.0"
     inkscape:pagecheckerboard="0"
     showgrid="false"
     inkscape:zoom="0.060287258"
     inkscape:cx="613.72836"
     inkscape:cy="-1335.2739"
     inkscape:window-width="1920"
     inkscape:window-height="1009"
     inkscape:window-x="1912"
     inkscape:window-y="-8"
     inkscape:window-maximized="1"
     inkscape:current-layer="svg8" />
  <path
     d="M 470.747,105.791 C 422.539,57.583 358.443,31.034 290.267,31.034 c -68.177,0 -132.272,26.549 -180.48,74.757 -48.208,48.208 -74.758,112.304 -74.758,180.48 0,68.176 26.549,132.272 74.758,180.48 48.208,48.208 112.304,74.758 180.48,74.758 68.176,0 132.272,-26.55 180.48,-74.758 48.208,-48.208 74.758,-112.304 74.758,-180.48 0,-68.177 -26.55,-132.272 -74.758,-180.48 z"
     fill="param(fill)"
     fill-opacity="param(fill-opacity)"
     stroke="param(outline)"
     stroke-opacity="param(outline-opacity)"
     stroke-width="param(outline-width)"
     id="path4"
     style="fill:#006680;fill-opacity:1;stroke:#ffffff;stroke-opacity:1;stroke-width:25;stroke-miterlimit:4;stroke-dasharray:none"
     sodipodi:nodetypes="sssscssss" />
  <path
     id="path0"
     d="m 402.30858,132.1813 c -0.55,0.324 -1.499,0.596 -2.109,0.604 -2.468,0.031 -6.372,4.978 -6.844,8.673 -0.322,2.511 0.095,6.426 0.753,7.084 0.266,0.266 0.735,0.95 1.042,1.521 0.307,0.571 2.605,3.175 5.107,5.787 2.503,2.612 5.249,5.688 6.104,6.837 0.855,1.148 1.879,2.408 2.276,2.8 0.837,0.826 5.178,6.241 6.182,7.712 0.375,0.55 1.673,2.35 2.884,4 1.211,1.65 2.499,3.54 2.861,4.2 0.362,0.66 1.622,2.683 2.801,4.496 1.179,1.813 2.143,3.454 2.143,3.646 0,0.193 0.367,0.817 0.816,1.388 1.039,1.32 7.584,14.119 7.584,14.829 0,0.293 0.36,0.991 0.8,1.55 0.44,0.56 0.8,1.32 0.8,1.691 0,0.371 0.36,1.131 0.8,1.691 0.44,0.559 0.8,1.493 0.8,2.074 0,0.581 0.244,1.412 0.543,1.846 0.299,0.434 0.768,1.481 1.044,2.328 0.275,0.846 0.75,2.016 1.054,2.6 0.305,0.583 0.556,1.421 0.559,1.861 0.003,0.44 0.286,1.34 0.63,1.999 0.344,0.66 0.871,2.19 1.171,3.4 0.3,1.211 1.079,4.271 1.732,6.801 2.355,9.128 2.867,11.546 2.867,13.533 0,1.111 0.156,2.116 0.346,2.234 0.525,0.324 0.883,3.035 1.246,9.433 0.182,3.19 0.548,7.51 0.815,9.6 0.528,4.131 0.276,15.791 -0.402,18.6 -0.212,0.88 -0.39,3.31 -0.396,5.4 -0.005,2.09 -0.295,5.15 -0.643,6.8 -0.348,1.65 -0.788,4.467 -0.978,6.261 -0.189,1.793 -0.624,3.93 -0.966,4.749 -0.342,0.818 -0.622,1.876 -0.622,2.35 0,0.779 -1.309,6.028 -2.952,11.84 -0.342,1.21 -1.175,3.73 -1.851,5.6 -0.676,1.87 -1.423,4.029 -1.659,4.798 -0.236,0.769 -0.679,1.754 -0.984,2.189 -0.305,0.435 -0.555,1.156 -0.557,1.602 -10e-4,0.446 -0.36,1.351 -0.797,2.011 -0.437,0.66 -0.8,1.56 -0.806,2 -0.007,0.44 -0.364,1.25 -0.794,1.8 -0.43,0.55 -0.786,1.291 -0.791,1.646 -0.005,0.355 -0.342,1.075 -0.748,1.6 -0.406,0.525 -0.857,1.436 -1.001,2.026 -0.143,0.59 -0.501,1.311 -0.793,1.604 -0.293,0.293 -0.653,1.013 -0.8,1.6 -0.148,0.587 -0.514,1.314 -0.815,1.615 -0.3,0.3 -0.681,0.988 -0.847,1.528 -0.165,0.539 -0.536,1.251 -0.824,1.582 -0.289,0.33 -0.727,1.05 -0.974,1.6 -0.246,0.549 -0.885,1.719 -1.42,2.599 -0.534,0.88 -1.2,2.05 -1.479,2.6 -0.809,1.595 -7.719,11.815 -9.596,14.194 -0.942,1.193 -2.219,2.853 -2.838,3.688 -2.073,2.795 -8.591,10.277 -12.472,14.318 -7.72,8.037 -8.383,15.193 -1.901,20.504 3.43,2.81 10.385,3.313 13.364,0.965 2.471,-1.948 14.861,-14.904 15.696,-16.415 0.199,-0.36 1.009,-1.413 1.8,-2.34 2.618,-3.068 3.823,-4.608 5.324,-6.805 0.817,-1.196 1.946,-2.744 2.509,-3.441 0.562,-0.698 1.597,-2.168 2.299,-3.268 0.702,-1.1 1.508,-2.144 1.792,-2.32 0.283,-0.176 0.515,-0.523 0.515,-0.771 0,-0.247 0.78,-1.634 1.734,-3.08 2.19,-3.32 3.137,-4.818 3.688,-5.829 0.987,-1.81 1.615,-2.845 2.278,-3.751 0.385,-0.526 0.7,-1.265 0.7,-1.641 0,-0.376 0.36,-1.01 0.8,-1.408 0.44,-0.398 0.804,-1.011 0.809,-1.362 0.005,-0.351 0.361,-1.088 0.791,-1.638 0.43,-0.55 0.786,-1.242 0.791,-1.537 0.005,-0.295 0.369,-0.994 0.809,-1.554 0.44,-0.559 0.8,-1.228 0.8,-1.486 0,-0.258 0.629,-1.719 1.399,-3.246 0.769,-1.527 1.399,-3.068 1.4,-3.423 0,-0.355 0.361,-1.104 0.801,-1.663 0.44,-0.56 0.8,-1.266 0.8,-1.57 0,-0.303 0.36,-1.258 0.8,-2.121 0.44,-0.863 0.8,-1.809 0.8,-2.103 0,-0.293 0.45,-1.379 1,-2.412 0.55,-1.033 1,-2.316 1,-2.85 0,-0.535 0.277,-1.278 0.616,-1.653 0.339,-0.374 0.757,-1.573 0.93,-2.663 0.172,-1.09 0.615,-2.413 0.983,-2.94 0.369,-0.526 0.672,-1.592 0.674,-2.368 10e-4,-0.776 0.36,-1.951 0.797,-2.611 0.44,-0.664 0.796,-1.877 0.797,-2.716 0.002,-0.834 0.363,-2.222 0.803,-3.084 0.44,-0.862 0.8,-2.293 0.8,-3.18 0,-0.886 0.36,-2.558 0.8,-3.716 0.44,-1.157 0.8,-2.95 0.8,-3.984 0,-1.035 0.292,-2.925 0.65,-4.2 0.357,-1.276 0.794,-4.21 0.971,-6.52 0.177,-2.31 0.506,-5.55 0.733,-7.2 0.54,-3.945 0.542,-32.979 0.002,-36.6 -0.23,-1.54 -0.562,-4.33 -0.738,-6.2 -0.176,-1.87 -0.606,-4.48 -0.955,-5.8 -0.349,-1.32 -0.641,-3.24 -0.649,-4.267 -0.008,-1.027 -0.374,-2.707 -0.814,-3.733 -0.44,-1.026 -0.8,-2.642 -0.8,-3.589 0,-0.948 -0.356,-2.508 -0.791,-3.467 -0.435,-0.959 -0.797,-2.374 -0.803,-3.144 -0.006,-0.77 -0.369,-1.94 -0.806,-2.6 -0.437,-0.66 -0.796,-1.833 -0.797,-2.606 -0.002,-0.773 -0.363,-2.078 -0.803,-2.898 -0.44,-0.821 -0.8,-1.861 -0.8,-2.31 0,-0.45 -0.36,-1.524 -0.8,-2.386 -0.44,-0.862 -0.8,-1.892 -0.8,-2.287 0,-0.396 -0.45,-1.565 -1,-2.598 -0.55,-1.033 -1,-2.152 -1,-2.487 0,-0.335 -0.359,-1.198 -0.799,-1.918 -0.439,-0.721 -0.798,-1.58 -0.798,-1.91 -10e-4,-0.53 -1.117,-3.121 -2.069,-4.8 -0.187,-0.33 -0.536,-1.05 -0.776,-1.6 -0.239,-0.55 -0.683,-1.54 -0.986,-2.2 -0.303,-0.66 -0.735,-1.65 -0.96,-2.2 -0.226,-0.55 -0.571,-1.27 -0.768,-1.6 -0.197,-0.33 -0.556,-1.05 -0.798,-1.6 -0.242,-0.55 -0.594,-1.27 -0.781,-1.6 -0.4,-0.705 -1.127,-2.053 -2.157,-4 -0.407,-0.77 -1.174,-2.12 -1.704,-3 -0.529,-0.88 -1.16,-2.05 -1.401,-2.6 -0.242,-0.55 -0.656,-1.183 -0.921,-1.407 -0.265,-0.223 -0.752,-0.886 -1.082,-1.473 -1.93,-3.431 -3.37,-5.77 -3.768,-6.12 -0.25,-0.22 -1.529,-1.994 -2.843,-3.943 -1.314,-1.948 -2.649,-3.928 -2.968,-4.4 -0.792,-1.173 -4.952,-6.407 -5.301,-6.669 -0.156,-0.117 -0.786,-0.958 -1.401,-1.87 -3.702,-5.488 -16.586,-18.193 -19.119,-18.854 -3.232,-0.844 -5.103,-0.929 -6.2,-0.282 m -227.76,1.022 c -2.305,0.819 -3.261,1.493 -6.003,4.23 -3.357,3.353 -11.432,12.152 -12.912,14.069 -0.295,0.383 -1.815,2.317 -3.376,4.297 -1.561,1.98 -3.46,4.5 -4.221,5.6 -0.761,1.1 -1.824,2.63 -2.362,3.4 -0.538,0.77 -1.201,1.74 -1.472,2.156 -0.272,0.415 -0.87,1.225 -1.33,1.8 -0.46,0.574 -1.354,1.944 -1.987,3.044 -0.632,1.1 -1.381,2.238 -1.663,2.529 -0.283,0.29 -0.514,0.763 -0.514,1.051 0,0.287 -0.28,0.755 -0.623,1.039 -0.343,0.285 -0.884,1.072 -1.203,1.749 -0.319,0.678 -1.009,1.952 -1.533,2.832 -0.525,0.88 -2.522,4.75 -4.438,8.6 -1.916,3.85 -4.186,8.41 -5.044,10.132 -0.857,1.723 -1.56,3.433 -1.562,3.8 -0.001,0.368 -0.36,1.208 -0.797,1.868 -0.437,0.66 -0.796,1.622 -0.797,2.137 -0.002,0.515 -0.363,1.394 -0.803,1.954 -0.44,0.559 -0.8,1.49 -0.8,2.069 0,0.578 -0.36,1.724 -0.8,2.544 -0.44,0.821 -0.801,1.899 -0.801,2.395 -0.001,0.495 -0.361,1.49 -0.8,2.211 -0.44,0.72 -0.8,1.98 -0.8,2.8 -10e-4,0.819 -0.348,2.057 -0.77,2.749 -0.422,0.693 -0.895,2.133 -1.05,3.2 -0.156,1.068 -0.52,2.408 -0.809,2.978 -0.289,0.571 -0.642,2.011 -0.784,3.2 -0.141,1.19 -0.601,3.199 -1.022,4.465 -0.42,1.265 -0.77,3.065 -0.778,4 -0.008,0.934 -0.294,2.778 -0.636,4.098 -0.341,1.32 -0.775,4.2 -0.964,6.4 -0.189,2.2 -0.529,5.71 -0.754,7.8 -0.507,4.692 -0.51,27.695 -0.004,32.6 0.203,1.98 0.537,5.4 0.741,7.6 0.203,2.2 0.654,5.044 1,6.32 0.347,1.275 0.631,3.12 0.631,4.098 0,0.978 0.344,2.815 0.764,4.08 0.421,1.266 0.881,3.275 1.022,4.465 0.142,1.189 0.493,2.629 0.78,3.2 0.287,0.57 0.632,1.884 0.768,2.92 0.135,1.035 0.61,2.563 1.056,3.394 0.445,0.831 0.81,2.115 0.81,2.854 0,0.739 0.36,1.8 0.8,2.36 0.45,0.571 0.8,1.623 0.8,2.4 0,0.777 0.35,1.828 0.8,2.4 0.44,0.559 0.801,1.578 0.803,2.263 10e-4,0.685 0.36,1.786 0.797,2.446 0.437,0.66 0.797,1.56 0.8,2 0.003,0.44 0.363,1.34 0.8,2 0.437,0.66 0.796,1.532 0.797,1.937 0.002,0.405 0.363,1.194 0.803,1.754 0.44,0.559 0.8,1.273 0.8,1.587 0,0.827 5.705,12.691 7.849,16.322 0.52,0.88 1.224,2.14 1.564,2.8 0.341,0.66 1.056,1.92 1.589,2.8 0.533,0.88 1.236,2.154 1.561,2.832 0.325,0.677 0.871,1.464 1.214,1.749 0.343,0.284 0.623,0.706 0.623,0.936 0,0.231 0.299,0.75 0.664,1.154 0.366,0.404 0.861,1.071 1.1,1.483 0.753,1.293 4.097,6.18 5.292,7.732 0.629,0.818 1.774,2.346 2.544,3.398 6.079,8.299 18.491,22.137 21.864,24.376 7.842,5.205 17.535,-0.252 17.494,-9.85 -0.022,-5.212 -0.263,-5.669 -6.203,-11.81 -2.341,-2.42 -5.576,-6.02 -7.189,-8 -1.614,-1.98 -3.136,-3.727 -3.384,-3.883 -0.247,-0.155 -0.974,-1.055 -1.616,-2 -0.641,-0.944 -2.156,-3.009 -3.366,-4.588 -1.21,-1.58 -2.74,-3.709 -3.4,-4.732 -0.66,-1.023 -1.685,-2.611 -2.277,-3.528 -2.174,-3.367 -3.754,-5.988 -5.026,-8.341 -0.717,-1.325 -1.662,-2.865 -2.1,-3.423 -0.438,-0.557 -0.797,-1.321 -0.797,-1.697 0,-0.376 -0.36,-1.01 -0.8,-1.408 -0.44,-0.398 -0.8,-1.118 -0.8,-1.6 0,-0.482 -0.36,-1.202 -0.8,-1.6 -0.44,-0.398 -0.801,-1.011 -0.803,-1.362 -0.001,-0.351 -0.36,-1.178 -0.797,-1.838 -0.437,-0.66 -0.796,-1.491 -0.797,-1.846 -0.002,-0.355 -0.352,-1.09 -0.778,-1.632 -0.427,-0.542 -0.907,-1.511 -1.068,-2.154 -0.161,-0.642 -0.621,-1.708 -1.023,-2.368 -0.402,-0.66 -0.732,-1.532 -0.733,-1.938 0,-0.406 -0.269,-1.216 -0.596,-1.8 -0.626,-1.119 -1.588,-3.715 -2.247,-6.062 -0.216,-0.77 -0.639,-2.03 -0.94,-2.8 -0.548,-1.403 -1.418,-4.338 -2.981,-10.065 -0.46,-1.686 -0.837,-3.576 -0.837,-4.2 0,-0.624 -0.36,-2.082 -0.8,-3.239 -0.44,-1.158 -0.8,-3.07 -0.8,-4.25 0,-1.18 -0.277,-2.931 -0.616,-3.892 -0.363,-1.029 -0.783,-4.458 -1.022,-8.35 -0.224,-3.632 -0.576,-7.017 -0.784,-7.523 -0.491,-1.193 -0.493,-18.806 -0.003,-20.321 0.207,-0.638 0.555,-4.13 0.775,-7.76 0.241,-3.992 0.646,-7.292 1.024,-8.35 0.344,-0.963 0.626,-2.69 0.626,-3.838 0,-1.148 0.356,-3.151 0.79,-4.45 0.435,-1.299 0.797,-2.902 0.806,-3.562 0.009,-0.66 0.296,-2.005 0.639,-2.989 0.342,-0.984 0.782,-2.514 0.976,-3.4 0.734,-3.345 1.637,-6.446 2.158,-7.411 0.297,-0.55 0.666,-1.764 0.82,-2.698 0.155,-0.934 0.433,-1.792 0.62,-1.907 0.186,-0.116 0.623,-1.187 0.97,-2.382 0.347,-1.195 0.809,-2.282 1.026,-2.416 0.217,-0.134 0.395,-0.749 0.395,-1.367 0,-0.617 0.36,-1.58 0.8,-2.139 0.44,-0.56 0.8,-1.234 0.8,-1.5 0,-0.265 0.343,-1.137 0.763,-1.937 0.42,-0.799 2.142,-4.244 3.828,-7.654 1.685,-3.41 3.49,-6.92 4.009,-7.8 0.52,-0.88 1.228,-2.14 1.574,-2.8 0.345,-0.66 1.16,-2.01 1.811,-3 0.65,-0.99 1.774,-2.737 2.499,-3.882 2.859,-4.523 8.649,-12.499 10.829,-14.918 0.298,-0.33 1.877,-2.216 3.509,-4.19 2.852,-3.45 4.732,-5.553 8.911,-9.968 4.641,-4.903 6.203,-11.608 3.567,-15.304 -0.495,-0.694 -0.9,-1.455 -0.9,-1.69 0,-0.688 -3.988,-3.647 -4.936,-3.662 -0.475,-0.008 -1.314,-0.272 -1.864,-0.586 -1.304,-0.746 -3.714,-0.666 -6.16,0.204 m 72.56,144.396 v 122 h 45.6 45.6 v -122 -122 h -45.6 -45.6 v 122 m 118.6,-109.266 c -6.201,2.341 -9,5.901 -9,11.448 0,4.017 0.826,5.654 5.496,10.897 4.925,5.53 6.439,7.327 8.693,10.321 0.994,1.32 2.027,2.659 2.295,2.975 0.915,1.079 3.873,5.622 5.159,7.926 3.538,6.335 5.557,10.236 5.557,10.737 0,0.255 0.265,0.684 0.589,0.953 0.325,0.269 0.703,1.095 0.842,1.835 0.139,0.74 0.492,1.544 0.785,1.787 0.293,0.243 0.658,1.015 0.812,1.715 0.153,0.699 0.615,1.899 1.025,2.666 0.411,0.767 0.747,1.818 0.747,2.337 0,0.519 0.36,1.4 0.8,1.96 0.44,0.56 0.8,1.623 0.8,2.364 0,0.742 0.36,2.02 0.8,2.841 0.44,0.82 0.8,2.073 0.8,2.783 0,0.71 0.334,2.153 0.743,3.206 0.409,1.053 0.862,3.237 1.007,4.853 0.144,1.616 0.472,3.326 0.727,3.8 1.774,3.295 1.724,37.297 -0.06,40.631 -0.246,0.459 -0.556,2.049 -0.689,3.533 -0.133,1.484 -0.576,3.56 -0.985,4.613 -0.409,1.053 -0.743,2.455 -0.743,3.116 0,0.66 -0.36,1.907 -0.8,2.769 -0.44,0.862 -0.801,2.07 -0.801,2.684 -10e-4,0.614 -0.361,1.705 -0.8,2.426 -0.44,0.72 -0.799,1.821 -0.799,2.446 0,0.625 -0.334,1.565 -0.742,2.09 -0.408,0.525 -0.863,1.611 -1.011,2.414 -0.147,0.803 -0.529,1.676 -0.847,1.94 -0.318,0.264 -0.692,1.086 -0.831,1.826 -0.139,0.74 -0.504,1.554 -0.811,1.809 -0.307,0.255 -0.561,0.666 -0.565,0.914 -0.008,0.47 -1.728,3.932 -4,8.051 -1.758,3.187 -8.728,13.66 -9.993,15.015 -2.07,2.217 -3.452,3.825 -3.8,4.419 -0.22,0.376 -1.939,2.31 -3.821,4.298 -6.656,7.032 -7.565,14.03 -2.479,19.104 1.155,1.152 1.626,1.432 4.663,2.772 3.906,1.723 8.982,0.24 12.913,-3.771 4.527,-4.62 8.591,-9.126 9.651,-10.699 0.59,-0.876 1.303,-1.851 1.584,-2.166 2.413,-2.701 10.089,-14.079 10.089,-14.954 0,-0.286 0.285,-0.756 0.633,-1.045 0.601,-0.499 1.078,-1.304 2.943,-4.973 0.448,-0.88 0.977,-1.87 1.176,-2.2 0.2,-0.33 0.56,-1.05 0.802,-1.6 0.242,-0.55 0.591,-1.27 0.775,-1.6 1.278,-2.292 2.071,-4.05 2.071,-4.593 0,-0.349 0.305,-1.101 0.678,-1.67 0.708,-1.08 1.918,-4.2 2.502,-6.448 0.188,-0.722 0.518,-1.532 0.734,-1.8 0.217,-0.269 0.514,-1.119 0.661,-1.889 0.147,-0.77 0.501,-2.03 0.785,-2.8 1.247,-3.376 2.24,-6.83 2.24,-7.788 0,-0.571 0.283,-1.707 0.629,-2.525 0.345,-0.818 0.882,-3.157 1.191,-5.198 0.31,-2.041 0.745,-4.05 0.967,-4.464 0.221,-0.415 0.511,-2.345 0.644,-4.289 0.133,-1.945 0.511,-5.156 0.84,-7.136 0.712,-4.28 0.816,-22.05 0.148,-25.2 -0.234,-1.1 -0.596,-4.204 -0.806,-6.898 -0.21,-2.693 -0.573,-5.253 -0.806,-5.688 -0.233,-0.436 -0.678,-2.462 -0.989,-4.503 -0.31,-2.041 -0.847,-4.499 -1.191,-5.461 -0.345,-0.963 -0.627,-2.187 -0.627,-2.72 0,-0.533 -0.265,-1.482 -0.589,-2.108 -0.323,-0.626 -0.708,-1.922 -0.854,-2.88 -0.147,-0.958 -0.448,-2.094 -0.67,-2.524 -0.221,-0.429 -0.632,-1.599 -0.912,-2.6 -0.28,-1 -0.901,-2.808 -1.38,-4.018 -0.48,-1.21 -1.134,-3.041 -1.454,-4.068 -0.32,-1.028 -0.843,-2.085 -1.162,-2.349 -0.318,-0.265 -0.579,-0.828 -0.579,-1.253 0,-0.424 -0.345,-1.437 -0.767,-2.251 -0.422,-0.813 -0.96,-1.929 -1.197,-2.479 -0.237,-0.55 -0.592,-1.27 -0.79,-1.6 -0.198,-0.33 -0.558,-1.05 -0.8,-1.6 -0.465,-1.057 -0.961,-1.914 -2.13,-3.684 -0.394,-0.596 -0.716,-1.333 -0.716,-1.638 0,-0.305 -0.355,-0.876 -0.79,-1.269 -0.434,-0.393 -0.907,-1.086 -1.051,-1.539 -0.144,-0.454 -0.869,-1.688 -1.611,-2.743 -0.741,-1.055 -1.348,-2.077 -1.348,-2.271 0,-0.193 -0.675,-1.231 -1.5,-2.305 -0.825,-1.075 -1.68,-2.241 -1.9,-2.593 -1.378,-2.2 -2.581,-3.844 -3.17,-4.333 -0.374,-0.31 -1.288,-1.478 -2.032,-2.595 -2.684,-4.029 -11.745,-13.18 -14.373,-14.516 -2.043,-1.038 -5.741,-1.54 -7.225,-0.98 m -153.2,0.815 c -3.575,0.838 -5.184,2.168 -13.37,11.051 -1.819,1.973 -8.153,10.118 -8.711,11.2 -0.34,0.66 -1.196,1.92 -1.902,2.8 -0.706,0.88 -1.803,2.5 -2.437,3.6 -0.634,1.1 -1.384,2.238 -1.666,2.529 -0.283,0.29 -0.514,0.757 -0.514,1.038 0,0.28 -0.35,0.826 -0.777,1.212 -0.428,0.387 -0.892,1.223 -1.031,1.858 -0.139,0.635 -0.422,1.258 -0.629,1.386 -0.206,0.127 -0.639,0.804 -0.961,1.504 -0.322,0.7 -0.75,1.543 -0.951,1.873 -0.201,0.33 -0.563,1.05 -0.805,1.6 -0.242,0.55 -0.611,1.27 -0.819,1.6 -0.682,1.081 -2.427,5.139 -2.427,5.644 0,0.271 -0.243,0.777 -0.539,1.125 -0.297,0.347 -0.817,1.441 -1.157,2.431 -0.339,0.99 -1.202,3.51 -1.917,5.6 -0.715,2.09 -1.544,4.367 -1.843,5.06 -0.299,0.694 -0.544,1.632 -0.544,2.086 0,0.453 -0.36,1.738 -0.8,2.854 -0.44,1.116 -0.8,2.434 -0.8,2.929 0,0.494 -0.36,1.923 -0.8,3.175 -0.44,1.252 -0.8,3.067 -0.8,4.034 0,0.967 -0.36,2.885 -0.8,4.262 -0.481,1.507 -0.8,3.606 -0.8,5.269 0,1.521 -0.311,4.152 -0.692,5.848 -1.013,4.512 -1.017,23.278 -0.006,27.826 0.384,1.728 0.698,4.355 0.698,5.836 0,1.482 0.275,3.577 0.611,4.657 0.335,1.08 0.777,3.351 0.98,5.046 0.203,1.695 0.649,3.621 0.989,4.28 0.341,0.659 0.62,1.69 0.62,2.29 0,0.959 0.744,3.704 2.046,7.548 0.224,0.66 0.674,2.19 1.001,3.4 0.327,1.21 0.765,2.371 0.974,2.58 0.208,0.209 0.379,0.706 0.379,1.104 0,0.712 0.888,2.95 2.425,6.116 0.428,0.88 0.777,1.746 0.776,1.925 -0.001,0.372 1.86,4.575 2.424,5.475 0.207,0.33 0.556,1.05 0.776,1.6 0.219,0.55 0.579,1.27 0.8,1.6 0.22,0.33 0.584,1.026 0.808,1.547 0.224,0.521 0.763,1.4 1.199,1.954 0.436,0.554 0.792,1.336 0.792,1.739 0,0.402 0.36,0.925 0.8,1.16 0.44,0.235 0.8,0.716 0.8,1.067 0,0.717 6.909,11.244 9.407,14.333 0.889,1.1 2.052,2.63 2.583,3.4 0.532,0.77 1.336,1.778 1.788,2.24 0.452,0.461 2.827,2.982 5.278,5.602 6.126,6.548 11.005,8.582 15.366,6.407 0.715,-0.357 1.511,-0.649 1.767,-0.649 3.647,0 7.68,-10.173 5.609,-14.146 -0.329,-0.63 -0.598,-1.324 -0.598,-1.542 0,-0.505 -1.393,-2.183 -4.743,-5.712 -1.461,-1.54 -3.279,-3.61 -4.038,-4.6 -0.76,-0.99 -2.016,-2.479 -2.792,-3.309 -0.775,-0.83 -1.905,-2.27 -2.511,-3.2 -0.606,-0.93 -1.281,-1.904 -1.5,-2.164 -1.072,-1.276 -5.27,-7.849 -6.594,-10.327 -0.823,-1.54 -1.66,-2.971 -1.859,-3.18 -0.2,-0.209 -0.367,-0.659 -0.372,-1 -0.005,-0.341 -0.361,-1.07 -0.791,-1.62 -0.43,-0.55 -0.79,-1.27 -0.8,-1.6 -0.01,-0.33 -0.37,-1.05 -0.8,-1.6 -0.43,-0.55 -0.786,-1.381 -0.791,-1.846 -0.005,-0.465 -0.369,-1.304 -0.809,-1.863 -0.44,-0.56 -0.8,-1.46 -0.8,-2 0,-0.541 -0.36,-1.441 -0.8,-2 -0.44,-0.56 -0.8,-1.401 -0.8,-1.87 0,-0.469 -0.338,-1.521 -0.752,-2.337 -0.414,-0.816 -0.878,-2.238 -1.031,-3.161 -0.154,-0.922 -0.625,-2.355 -1.048,-3.184 -0.423,-0.83 -0.769,-2.109 -0.769,-2.843 0,-0.735 -0.301,-1.912 -0.668,-2.616 -0.368,-0.704 -0.794,-2.54 -0.946,-4.08 -0.153,-1.54 -0.56,-3.97 -0.906,-5.4 -1.654,-6.842 -1.554,-32.403 0.152,-38.6 0.424,-1.54 0.77,-3.558 0.769,-4.485 0,-0.927 0.341,-2.637 0.76,-3.8 0.419,-1.163 0.846,-2.841 0.95,-3.728 0.104,-0.887 0.572,-2.452 1.039,-3.478 0.468,-1.026 0.85,-2.393 0.85,-3.038 0,-0.645 0.265,-1.393 0.589,-1.662 0.325,-0.269 0.697,-1.146 0.828,-1.949 0.131,-0.803 0.586,-2.115 1.011,-2.914 0.424,-0.8 0.772,-1.811 0.772,-2.247 0,-0.435 0.36,-1.249 0.8,-1.808 0.44,-0.56 0.8,-1.37 0.8,-1.8 0,-0.431 0.36,-1.241 0.8,-1.8 0.44,-0.56 0.8,-1.185 0.8,-1.39 0,-0.332 1.855,-4.124 2.789,-5.701 0.195,-0.33 1.025,-1.77 1.843,-3.2 3.361,-5.869 8.411,-12.959 12.486,-17.527 0.506,-0.566 1.586,-1.81 2.4,-2.765 0.815,-0.954 2.444,-2.757 3.62,-4.006 5.126,-5.447 5.36,-12.061 0.607,-17.16 -0.85,-0.912 -1.995,-1.785 -2.545,-1.941 -0.55,-0.157 -1.385,-0.527 -1.856,-0.823 -1.052,-0.662 -4.324,-1.008 -5.944,-0.629 m 55.552,243.157 c -0.329,0.216 -0.374,15.619 -0.169,58.094 0.154,31.79 0.13,57.971 -0.052,58.18 -0.182,0.209 -0.331,0.524 -0.331,0.7 0,0.675 49.85,0.382 50.413,-0.296 0.773,-0.932 0.302,-116.138 -0.477,-116.632 -0.654,-0.415 -48.754,-0.459 -49.384,-0.046"
     stroke="none"
     fill="#050505"
     fill-rule="evenodd"
     style="fill:#ffffff" />
</svg>
