<?xml version="1.0" encoding="UTF-8" standalone="no"?>
<!-- Uploaded to: SVG Repo, www.svgrepo.com, Generator: SVG Repo Mixer Tools -->

<svg
   width="748.55072"
   height="692.18469"
   viewBox="0 0 22.456521 20.765541"
   fill="none"
   version="1.1"
   id="svg4"
   sodipodi:docname="anden_fare_vej.svg"
   inkscape:version="1.1 (c68e22c387, 2021-05-23)"
   xmlns:inkscape="http://www.inkscape.org/namespaces/inkscape"
   xmlns:sodipodi="http://sodipodi.sourceforge.net/DTD/sodipodi-0.dtd"
   xmlns="http://www.w3.org/2000/svg"
   xmlns:svg="http://www.w3.org/2000/svg">
  <defs
     id="defs8" />
  <sodipodi:namedview
     id="namedview6"
     pagecolor="#ffffff"
     bordercolor="#666666"
     borderopacity="1.0"
     inkscape:pageshadow="2"
     inkscape:pageopacity="0.0"
     inkscape:pagecheckerboard="0"
     showgrid="false"
     lock-margins="true"
     fit-margin-top="3"
     fit-margin-left="3"
     fit-margin-right="3"
     fit-margin-bottom="3"
     inkscape:zoom="0.515"
     inkscape:cx="897.08738"
     inkscape:cy="612.62136"
     inkscape:window-width="1920"
     inkscape:window-height="1009"
     inkscape:window-x="1912"
     inkscape:window-y="-8"
     inkscape:window-maximized="1"
     inkscape:current-layer="svg4" />
  <path
     stroke="#000000"
     stroke-width="2"
     d="m 10.353261,1.9095399 a 1,1 0 0 1 1.749999,0 l 8.805,15.9320011 a 1,1 0 0 1 -0.875,1.484 H 2.4232608 a 1,1 0 0 1 -0.875,-1.484 z"
     id="path2"
     style="fill:#ffffff;fill-opacity:1;stroke:#f50000;stroke-width:2.7;stroke-miterlimit:4;stroke-dasharray:none;stroke-opacity:1" />
  <path
     id="path1"
     d="M 11.021796,6.8637814 C 10.350925,6.9674206 9.908652,7.486446 9.8882795,8.1939762 c -0.00853,0.2956384 -1.777e-4,0.3896244 0.087649,0.9879485 0.032217,0.2192415 0.059931,0.4110629 0.095349,0.6603301 0.01184,0.082911 0.03601,0.2443512 0.05383,0.3587692 0.01776,0.114359 0.04494,0.292203 0.06046,0.395133 0.01546,0.102987 0.0424,0.280773 0.05987,0.39519 0.01747,0.114359 0.04602,0.310918 0.06348,0.436765 0.01747,0.125789 0.03654,0.25217 0.04246,0.280774 0.0059,0.02861 0.02505,0.154926 0.04246,0.280774 0.06757,0.488703 0.114594,0.819105 0.143494,1.008676 0.01652,0.108673 0.04507,0.295875 0.06342,0.415979 0.0183,0.120103 0.04181,0.275976 0.05211,0.346332 0.07285,0.496224 0.569483,0.711498 0.923101,0.400226 0.163275,-0.143674 0.194485,-0.223151 0.253709,-0.646236 0.01813,-0.129519 0.05128,-0.361849 0.07373,-0.516301 0.02244,-0.154393 0.05377,-0.375943 0.06971,-0.492316 0.01593,-0.116313 0.03867,-0.266086 0.05058,-0.332771 0.0119,-0.06668 0.05004,-0.303692 0.08487,-0.526784 0.03483,-0.223031 0.07249,-0.457019 0.08374,-0.519972 0.0112,-0.0629 0.03494,-0.217286 0.05272,-0.343134 0.12798,-0.9070513 0.191287,-1.3402633 0.226466,-1.5494369 0.0183,-0.1086733 0.0427,-0.2911968 0.05425,-0.4056144 0.01155,-0.1143585 0.0257,-0.2232094 0.03145,-0.2418052 0.02652,-0.086227 0.01178,-0.5541443 -0.02155,-0.6836637 -0.177665,-0.6900005 -0.83829,-1.1434073 -1.513841,-1.0390574 m -0.05686,8.4416826 c -0.9936338,0.267567 -1.1290162,1.623523 -0.206391,2.067276 0.838294,0.403247 1.778982,-0.412246 1.507152,-1.306446 -0.16902,-0.555743 -0.765805,-0.904859 -1.300761,-0.76083"
     stroke="none"
     fill="#050505"
     fill-rule="evenodd"
     style="stroke-width:0.03" />
</svg>
