<?xml version="1.0" encoding="UTF-8" standalone="no"?>
<svg
   id="svg"
   version="1.1"
   width="400"
   height="351"
   viewBox="0, 0, 400,351"
   sodipodi:docname="anden_fare_vej_lilla.svg"
   inkscape:version="1.1 (c68e22c387, 2021-05-23)"
   xmlns:inkscape="http://www.inkscape.org/namespaces/inkscape"
   xmlns:sodipodi="http://sodipodi.sourceforge.net/DTD/sodipodi-0.dtd"
   xmlns="http://www.w3.org/2000/svg"
   xmlns:svg="http://www.w3.org/2000/svg">
  <defs
     id="defs9" />
  <sodipodi:namedview
     id="namedview7"
     pagecolor="#ffffff"
     bordercolor="#666666"
     borderopacity="1.0"
     inkscape:pageshadow="2"
     inkscape:pageopacity="0.0"
     inkscape:pagecheckerboard="0"
     showgrid="false"
     inkscape:zoom="2.3703704"
     inkscape:cx="28.6875"
     inkscape:cy="175.71094"
     inkscape:window-width="1920"
     inkscape:window-height="1017"
     inkscape:window-x="1912"
     inkscape:window-y="-8"
     inkscape:window-maximized="1"
     inkscape:current-layer="svg" />
  <path
     id="path0"
     d="m 198.349,79.791 c -0.934,1.654 -14.394,24.979 -18.299,31.71 -1.345,2.318 -3.899,6.743 -5.676,9.834 -3.92,6.816 -10.357,17.965 -18.248,31.606 -3.241,5.602 -7.717,13.345 -9.947,17.208 -4.559,7.895 -5.724,9.908 -6.232,10.76 -0.193,0.324 -2.11,3.646 -4.26,7.382 -2.15,3.736 -5.607,9.716 -7.682,13.289 -2.074,3.574 -4.162,7.186 -4.639,8.028 -0.477,0.841 -2.72,4.713 -4.984,8.604 -2.265,3.89 -4.649,8.022 -5.299,9.18 -0.65,1.159 -3.7,6.453 -6.777,11.765 -3.078,5.312 -6.42,11.08 -7.427,12.818 -1.008,1.739 -3.337,5.769 -5.177,8.956 -1.84,3.187 -5.13,8.876 -7.31,12.642 -7.232,12.49 -10.028,17.323 -13.66,23.611 -1.979,3.425 -3.498,6.389 -3.377,6.585 0.428,0.691 260.408,0.476 260.408,-0.216 0,-0.315 -1.21,-2.646 -2.689,-5.18 -1.478,-2.534 -4.141,-7.135 -5.916,-10.226 -1.775,-3.09 -5.016,-8.7 -7.203,-12.467 -4.298,-7.402 -9.389,-16.221 -15.611,-27.041 -2.166,-3.766 -6.593,-11.431 -9.837,-17.032 -3.244,-5.602 -9.01,-15.558 -12.814,-22.125 -3.803,-6.567 -9.178,-15.891 -11.943,-20.72 -2.766,-4.829 -5.406,-9.377 -5.867,-10.107 -0.461,-0.73 -1.167,-1.915 -1.568,-2.634 -1.004,-1.8 -9.192,-16 -15.332,-26.592 -2.8,-4.828 -7.776,-13.441 -11.059,-19.139 -8.256,-14.328 -10.867,-18.852 -13.584,-23.53 -1.29,-2.221 -4.804,-8.305 -7.809,-13.52 -9.741,-16.905 -8.876,-15.763 -10.182,-13.449 m 6.743,42.608 c 13.51,3.123 19.923,14.646 17.588,31.596 -0.607,4.4 -1.063,7.555 -2.819,19.491 -0.383,2.607 -1.017,6.953 -1.408,9.657 -0.392,2.704 -0.947,6.418 -1.234,8.253 -0.287,1.835 -0.757,4.838 -1.044,6.672 -0.288,1.835 -0.769,4.917 -1.07,6.849 -0.301,1.931 -0.785,5.013 -1.075,6.848 -0.887,5.599 -2.847,18.944 -3.687,25.109 -1.403,10.297 -9.721,14.501 -16.527,8.352 -2.726,-2.463 -2.746,-2.534 -4.9,-17.482 -0.39,-2.704 -0.945,-6.497 -1.234,-8.429 -0.289,-1.931 -0.829,-5.645 -1.198,-8.253 -0.828,-5.833 -1.594,-11.064 -2.263,-15.452 -0.28,-1.835 -0.753,-4.995 -1.051,-7.024 -0.298,-2.028 -0.874,-5.899 -1.279,-8.604 -0.404,-2.704 -0.954,-6.417 -1.22,-8.252 -0.936,-6.44 -1.97,-13.556 -2.501,-17.208 -1.271,-8.74 -0.943,-14.113 1.15,-18.847 4.403,-9.955 15.472,-15.657 25.772,-13.276 m 1.114,142.695 c 13.116,4.589 16.828,21.862 6.73,31.309 -12.404,11.603 -31.584,2.6 -30.951,-14.529 0.455,-12.326 12.702,-20.811 24.221,-16.78"
     stroke="none"
     fill="#fbfafa"
     fill-rule="evenodd" />
  <path
     id="path1"
     d="m 196.921,122.227 c -11.328,1.75 -18.796,10.514 -19.14,22.461 -0.144,4.992 -0.003,6.579 1.48,16.682 0.544,3.702 1.012,6.941 1.61,11.15 0.2,1.4 0.608,4.126 0.909,6.058 0.3,1.931 0.759,4.934 1.021,6.672 0.261,1.739 0.716,4.741 1.011,6.673 0.295,1.931 0.777,5.25 1.072,7.375 0.295,2.124 0.617,4.258 0.717,4.741 0.1,0.483 0.423,2.616 0.717,4.741 1.141,8.252 1.935,13.831 2.423,17.032 0.279,1.835 0.761,4.996 1.071,7.024 0.309,2.028 0.706,4.66 0.88,5.848 1.23,8.379 9.616,12.014 15.587,6.758 2.757,-2.426 3.284,-3.768 4.284,-10.912 0.306,-2.187 0.866,-6.11 1.245,-8.718 0.379,-2.607 0.908,-6.348 1.177,-8.313 0.269,-1.964 0.653,-4.493 0.854,-5.619 0.201,-1.126 0.845,-5.128 1.433,-8.895 0.588,-3.766 1.224,-7.717 1.414,-8.78 0.189,-1.062 0.59,-3.669 0.89,-5.794 2.161,-15.316 3.23,-22.631 3.824,-26.163 0.309,-1.835 0.721,-4.917 0.916,-6.849 0.195,-1.931 0.434,-3.769 0.531,-4.083 0.448,-1.456 0.199,-9.357 -0.364,-11.544 -3,-11.651 -14.155,-19.307 -25.562,-17.545 m -0.96,142.542 c -16.778,4.518 -19.064,27.414 -3.485,34.907 14.155,6.809 30.039,-6.961 25.449,-22.06 -2.854,-9.384 -12.931,-15.279 -21.964,-12.847"
     stroke="none"
     fill="#050505"
     fill-rule="evenodd" />
  <path
     id="path2"
     d="m 194.293,0.443 c -0.821,0.198 -1.492,0.482 -1.492,0.633 0,0.15 -0.461,0.374 -1.024,0.498 -0.563,0.123 -1.462,0.601 -1.998,1.061 -0.535,0.46 -1.09,0.765 -1.233,0.676 -0.143,-0.088 -0.362,0.16 -0.486,0.551 -0.124,0.391 -0.686,0.949 -1.249,1.24 -0.567,0.293 -1.125,0.934 -1.251,1.435 -0.151,0.602 -0.316,0.76 -0.494,0.473 -0.17,-0.276 -0.354,-0.034 -0.509,0.672 -0.133,0.607 -0.382,1.017 -0.554,0.911 -0.172,-0.106 -0.413,0.208 -0.536,0.699 -0.124,0.491 -0.355,0.892 -0.515,0.892 -0.16,0 -0.49,0.553 -0.735,1.23 -0.244,0.676 -0.558,1.229 -0.697,1.229 -0.139,0 -0.357,0.475 -0.485,1.056 -0.127,0.581 -0.366,0.974 -0.529,0.873 -0.164,-0.101 -0.409,0.174 -0.546,0.612 -0.136,0.437 -0.345,0.874 -0.464,0.971 -0.119,0.096 -0.54,0.807 -0.937,1.58 -1.341,2.613 -2.438,4.529 -2.856,4.989 -0.228,0.252 -0.526,0.806 -0.66,1.23 -0.135,0.425 -0.462,0.988 -0.726,1.252 -0.264,0.264 -0.48,0.706 -0.48,0.982 0,0.276 -0.148,0.502 -0.328,0.502 -0.18,0 -0.436,0.356 -0.568,0.79 -0.133,0.435 -0.447,1.027 -0.699,1.317 -0.252,0.29 -0.566,0.96 -0.698,1.49 -0.132,0.53 -0.37,0.883 -0.529,0.785 -0.159,-0.098 -0.396,0.162 -0.528,0.577 -0.245,0.773 -2.575,4.91 -2.943,5.225 -0.112,0.097 -0.678,1.119 -1.258,2.271 -0.579,1.152 -1.251,2.309 -1.492,2.571 -0.242,0.262 -0.439,0.702 -0.439,0.978 0,0.276 -0.155,0.502 -0.345,0.502 -0.189,0 -0.443,0.395 -0.565,0.878 -0.121,0.483 -0.349,0.878 -0.506,0.878 -0.157,0 -0.468,0.553 -0.691,1.229 -0.224,0.676 -0.541,1.229 -0.706,1.229 -0.166,0 -0.411,0.348 -0.546,0.774 -0.135,0.425 -0.462,0.99 -0.726,1.254 -0.265,0.264 -0.481,0.706 -0.481,0.982 0,0.276 -0.132,0.502 -0.295,0.502 -0.162,0 -0.502,0.627 -0.754,1.393 -0.253,0.766 -0.595,1.31 -0.759,1.208 -0.164,-0.101 -0.299,0.051 -0.299,0.338 0,0.287 -0.213,0.736 -0.474,0.996 -0.26,0.261 -0.668,1.062 -0.905,1.781 -0.237,0.719 -0.574,1.308 -0.748,1.308 -0.175,0 -0.417,0.395 -0.538,0.878 -0.121,0.482 -0.327,0.877 -0.457,0.877 -0.129,0 -0.432,0.435 -0.671,0.966 -0.707,1.57 -1.562,3.035 -2.061,3.534 -0.257,0.257 -0.467,0.693 -0.467,0.969 0,0.276 -0.155,0.502 -0.345,0.502 -0.189,0 -0.443,0.395 -0.565,0.878 -0.121,0.482 -0.335,0.878 -0.477,0.878 -0.141,0 -0.464,0.626 -0.716,1.393 -0.253,0.766 -0.595,1.31 -0.759,1.208 -0.164,-0.101 -0.299,0.051 -0.299,0.338 0,0.287 -0.216,0.738 -0.48,1.003 -0.265,0.264 -0.591,0.828 -0.726,1.254 -0.135,0.426 -0.368,0.774 -0.517,0.774 -0.149,0 -0.478,0.627 -0.731,1.393 -0.253,0.766 -0.582,1.318 -0.73,1.226 -0.149,-0.092 -0.375,0.308 -0.503,0.89 -0.127,0.581 -0.343,1.056 -0.479,1.056 -0.137,0 -0.717,0.909 -1.29,2.019 -0.572,1.111 -1.128,2.099 -1.234,2.195 -0.107,0.097 -0.641,1.045 -1.187,2.107 -0.546,1.063 -1.091,2.011 -1.211,2.108 -0.12,0.096 -0.61,0.926 -1.089,1.843 -0.479,0.918 -0.967,1.668 -1.085,1.668 -0.118,0 -0.421,0.627 -0.674,1.394 -0.253,0.766 -0.582,1.317 -0.73,1.226 -0.149,-0.092 -0.375,0.308 -0.503,0.889 -0.127,0.581 -0.352,1.057 -0.498,1.057 -0.146,0 -0.707,0.901 -1.246,2.002 -0.54,1.101 -1.197,2.218 -1.462,2.483 -0.265,0.265 -0.482,0.707 -0.482,0.983 0,0.276 -0.158,0.502 -0.351,0.502 -0.193,0 -0.351,0.226 -0.351,0.502 0,0.276 -0.198,0.71 -0.439,0.965 -0.242,0.256 -0.715,1.018 -1.051,1.694 -0.622,1.248 -0.774,1.504 -2.427,4.093 -0.512,0.803 -1.047,1.823 -1.187,2.266 -0.141,0.444 -0.433,1.007 -0.649,1.25 -0.99,1.117 -1.199,1.467 -1.601,2.686 -0.236,0.715 -0.561,1.218 -0.723,1.118 -0.162,-0.1 -0.399,0.294 -0.526,0.875 -0.128,0.581 -0.375,1.057 -0.549,1.057 -0.174,0 -0.416,0.395 -0.537,0.878 -0.121,0.483 -0.346,0.878 -0.499,0.878 -0.153,0 -0.456,0.509 -0.673,1.131 -0.217,0.622 -0.825,1.595 -1.352,2.161 -0.526,0.567 -0.743,0.908 -0.481,0.757 0.488,-0.28 -0.422,1.33 -1.232,2.181 -0.229,0.239 -0.52,0.911 -0.647,1.492 -0.128,0.582 -0.352,1.057 -0.499,1.057 -0.146,0 -0.705,0.869 -1.243,1.932 -0.537,1.062 -1.104,1.931 -1.258,1.931 -0.155,0 -0.386,0.474 -0.513,1.054 -0.127,0.579 -0.362,1.053 -0.52,1.053 -0.159,0 -0.455,0.474 -0.657,1.054 -0.202,0.579 -0.463,1.054 -0.582,1.054 -0.118,0 -0.1,-0.198 0.039,-0.439 0.138,-0.242 0.117,-0.316 -0.048,-0.166 -0.166,0.151 -0.332,0.487 -0.37,0.747 -0.16,1.09 -0.566,1.963 -0.835,1.797 -0.159,-0.098 -0.397,0.255 -0.529,0.785 -0.132,0.529 -0.593,1.437 -1.025,2.017 -0.431,0.579 -1.005,1.606 -1.274,2.282 -0.27,0.676 -0.656,1.421 -0.857,1.656 -0.997,1.163 -1.178,1.446 -1.427,2.234 -0.148,0.468 -0.556,1.053 -0.906,1.3 -0.351,0.247 -0.56,0.651 -0.465,0.898 0.152,0.396 -0.1,0.805 -1.586,2.574 -0.189,0.225 -0.443,0.806 -0.565,1.292 -0.122,0.485 -0.444,0.968 -0.716,1.072 -0.273,0.105 -0.495,0.5 -0.495,0.878 0,0.379 -0.207,0.898 -0.459,1.153 -0.252,0.255 -0.563,0.74 -0.691,1.078 -0.128,0.338 -0.396,0.615 -0.595,0.615 -0.2,0 -0.363,0.195 -0.363,0.434 0,0.617 -1.817,4.131 -2.136,4.131 -0.146,0 -0.367,0.461 -0.491,1.025 -0.124,0.563 -0.437,1.105 -0.697,1.205 -0.26,0.1 -0.579,0.666 -0.709,1.259 -0.13,0.592 -0.371,1.077 -0.535,1.077 -0.164,0 -0.665,0.75 -1.113,1.668 -0.448,0.917 -0.973,1.781 -1.166,1.919 -0.194,0.137 -0.36,0.375 -0.369,0.526 -0.042,0.671 -0.583,1.857 -0.846,1.857 -0.16,0 -0.391,0.402 -0.514,0.892 -0.123,0.491 -0.381,0.795 -0.573,0.677 -0.193,-0.119 -0.329,-0.086 -0.303,0.073 0.078,0.484 -0.446,1.87 -0.707,1.87 -0.135,0 -0.462,0.553 -0.727,1.229 -0.265,0.676 -0.599,1.229 -0.74,1.229 -0.142,0 -0.362,0.474 -0.489,1.054 -0.128,0.579 -0.365,1.053 -0.528,1.053 -0.164,0 -0.737,0.869 -1.275,1.932 -0.538,1.062 -1.086,1.931 -1.218,1.931 -0.132,0 -0.348,0.433 -0.481,0.962 -0.133,0.53 -0.427,1.077 -0.653,1.217 -0.226,0.14 -0.432,0.378 -0.458,0.53 -0.145,0.849 -0.598,1.857 -0.834,1.857 -0.149,0 -0.371,0.395 -0.492,0.878 -0.121,0.483 -0.376,0.878 -0.565,0.878 -0.189,0 -0.345,0.225 -0.345,0.501 0,0.276 -0.207,0.711 -0.46,0.966 -0.253,0.255 -0.687,0.978 -0.964,1.605 -0.276,0.628 -0.605,1.142 -0.73,1.142 -0.125,0 -0.332,0.414 -0.459,0.92 -0.127,0.506 -0.42,1.133 -0.652,1.393 -1.063,1.189 -1.287,1.55 -1.506,2.426 -0.13,0.515 -0.443,1.016 -0.696,1.113 -0.253,0.097 -0.558,0.624 -0.678,1.172 -0.12,0.547 -0.446,1.082 -0.724,1.188 -0.278,0.107 -0.505,0.436 -0.505,0.732 0,0.296 -0.146,0.538 -0.324,0.538 -0.177,0 -0.424,0.461 -0.548,1.024 -0.124,0.564 -0.531,1.378 -0.906,1.81 -0.374,0.432 -0.681,0.998 -0.681,1.258 0,0.26 -0.123,0.473 -0.274,0.473 -0.151,0 -0.468,0.435 -0.706,0.966 -0.692,1.548 -1.379,2.618 -1.885,2.939 -0.38,0.241 -0.369,0.302 0.056,0.315 0.415,0.012 0.397,0.092 -0.088,0.374 -0.338,0.197 -0.615,0.587 -0.615,0.867 0,0.28 -0.145,0.509 -0.323,0.509 -0.178,0 -0.43,0.485 -0.56,1.078 -0.13,0.592 -0.449,1.158 -0.709,1.258 -0.259,0.1 -0.57,0.629 -0.69,1.176 -0.12,0.547 -0.456,1.086 -0.746,1.198 -0.291,0.111 -0.436,0.35 -0.324,0.531 0.112,0.182 0.027,0.439 -0.19,0.573 -0.216,0.133 -0.615,0.776 -0.888,1.429 -0.273,0.652 -0.634,1.186 -0.804,1.186 -0.17,0 -0.417,0.433 -0.55,0.962 -0.133,0.529 -0.426,1.077 -0.653,1.216 -0.226,0.14 -0.43,0.418 -0.455,0.618 -0.024,0.201 -0.063,0.532 -0.087,0.736 -0.024,0.205 -0.189,0.283 -0.367,0.173 -0.177,-0.11 -0.429,0.287 -0.56,0.881 -0.13,0.594 -0.459,1.165 -0.731,1.27 -0.271,0.104 -0.493,0.352 -0.493,0.552 0,0.584 -1.542,3.576 -1.992,3.866 -0.226,0.146 -0.513,0.726 -0.636,1.288 -0.124,0.562 -0.452,1.109 -0.73,1.216 -0.278,0.106 -0.505,0.436 -0.505,0.731 0,0.296 -0.14,0.538 -0.311,0.538 -0.267,0 -0.718,0.962 -0.871,1.857 -0.026,0.152 -0.224,0.389 -0.439,0.527 -0.216,0.137 -0.515,0.645 -0.666,1.127 -0.151,0.482 -0.527,1.069 -0.837,1.306 -0.31,0.236 -0.426,0.434 -0.257,0.44 0.168,0.006 0.108,0.25 -0.135,0.542 -0.52,0.627 -1.547,2.414 -2.167,3.771 -0.243,0.531 -0.552,0.966 -0.688,0.966 -0.135,0 -0.351,0.475 -0.478,1.056 -0.128,0.582 -0.377,0.967 -0.555,0.858 -0.177,-0.11 -0.322,0.047 -0.322,0.348 0,0.301 -0.317,0.863 -0.703,1.25 -0.428,0.428 -0.531,0.706 -0.263,0.713 0.243,0.006 0.165,0.17 -0.176,0.368 -0.338,0.197 -0.614,0.587 -0.614,0.868 0,0.28 -0.14,0.509 -0.311,0.509 -0.301,0 -0.857,1.313 -0.781,1.844 0.021,0.145 -0.101,0.263 -0.271,0.263 -0.169,0 -0.516,0.514 -0.769,1.141 -0.254,0.628 -0.668,1.268 -0.921,1.423 -0.252,0.154 -0.459,0.598 -0.459,0.986 0,0.388 -0.145,0.616 -0.323,0.506 -0.177,-0.109 -0.427,0.276 -0.555,0.858 -0.127,0.581 -0.39,1.056 -0.584,1.056 -0.194,0 -0.287,0.196 -0.207,0.436 0.079,0.24 -0.026,0.629 -0.235,0.866 -0.952,1.079 -1.187,1.436 -1.413,2.149 -0.133,0.42 -0.383,0.763 -0.556,0.763 -0.172,0 -0.504,0.638 -0.738,1.418 -0.252,0.842 -0.527,1.25 -0.678,1.006 -0.152,-0.246 -0.351,0.03 -0.496,0.69 -0.132,0.606 -0.387,1.101 -0.564,1.101 -0.178,0 -0.324,0.217 -0.324,0.483 0,0.266 -0.229,0.674 -0.509,0.906 -0.279,0.233 -0.697,1.003 -0.928,1.712 -0.231,0.708 -0.595,1.401 -0.809,1.539 -0.213,0.138 -0.388,0.42 -0.388,0.627 0,0.208 -0.169,0.49 -0.376,0.628 -0.364,0.241 -0.955,1.503 -0.844,1.799 0.03,0.079 -0.185,0.278 -0.477,0.441 -0.292,0.164 -0.634,0.77 -0.761,1.349 -0.127,0.578 -0.36,1.051 -0.517,1.051 -0.156,0 -0.386,0.402 -0.509,0.893 -0.123,0.49 -0.36,0.807 -0.527,0.704 -0.167,-0.103 -0.41,0.237 -0.54,0.754 -0.13,0.518 -0.465,1.11 -0.744,1.315 -0.279,0.205 -0.583,0.768 -0.675,1.251 -0.092,0.483 -0.436,1.075 -0.765,1.317 -0.329,0.241 -0.47,0.439 -0.312,0.439 0.157,0 0.109,0.212 -0.106,0.471 -0.215,0.259 -0.287,0.575 -0.16,0.702 0.127,0.127 0.055,0.231 -0.159,0.231 -0.366,0 -0.824,0.683 -1.888,2.81 -0.241,0.483 -0.734,1.312 -1.094,1.844 -0.361,0.531 -0.527,0.97 -0.369,0.976 0.158,0.006 0.029,0.162 -0.288,0.347 -0.316,0.185 -0.679,0.752 -0.807,1.261 -0.128,0.508 -0.422,1.137 -0.654,1.397 -1.075,1.204 -1.299,1.556 -1.299,2.037 0,0.284 -0.277,0.793 -0.615,1.131 -0.338,0.338 -0.634,0.744 -0.659,0.903 -0.024,0.159 -0.063,0.44 -0.087,0.626 -0.024,0.185 -0.39,0.66 -0.813,1.053 -0.423,0.394 -0.648,0.716 -0.501,0.716 0.147,0 -0.06,0.417 -0.461,0.926 -0.4,0.509 -0.728,1.146 -0.728,1.416 0,0.269 -0.227,0.577 -0.505,0.684 -0.278,0.107 -0.606,0.655 -0.73,1.218 -0.124,0.563 -0.352,1.024 -0.507,1.024 -0.28,0 -0.827,1.338 -0.754,1.844 0.021,0.145 -0.108,0.263 -0.287,0.263 -0.18,0 -0.731,0.856 -1.225,1.901 -0.495,1.046 -1.025,1.954 -1.178,2.019 -0.154,0.066 -0.747,1.067 -1.318,2.226 -0.571,1.159 -1.241,2.235 -1.489,2.392 -0.247,0.157 -0.357,0.435 -0.244,0.617 0.112,0.183 -0.033,0.423 -0.323,0.535 -0.29,0.111 -0.628,0.662 -0.752,1.224 -0.123,0.562 -0.438,1.142 -0.699,1.288 -0.261,0.146 -0.473,0.387 -0.473,0.535 0.005,0.785 -0.498,2.364 -0.752,2.364 -1.311,0 -1.353,13.349 -0.045,14.399 0.423,0.339 1.097,1.752 1.097,2.299 0,0.303 0.158,0.454 0.351,0.335 0.193,-0.12 0.351,0.034 0.351,0.341 0,0.307 0.238,0.65 0.527,0.761 0.29,0.111 0.53,0.383 0.533,0.603 0.003,0.221 0.399,0.774 0.878,1.229 0.48,0.455 0.872,0.978 0.872,1.162 0,0.184 0.158,0.237 0.351,0.118 0.193,-0.119 0.351,-0.05 0.351,0.155 0,0.204 0.22,0.372 0.49,0.372 0.269,0 0.574,0.222 0.678,0.493 0.104,0.272 0.674,0.601 1.267,0.731 0.592,0.13 1.077,0.37 1.077,0.534 0,1.064 4.659,1.087 191.221,0.943 186.12,-0.143 188.762,-0.153 188.762,-0.653 0,-0.143 0.592,-0.533 1.317,-0.868 0.724,-0.335 1.972,-1.29 2.774,-2.124 0.802,-0.833 1.641,-1.515 1.865,-1.515 0.223,0 0.308,-0.159 0.188,-0.353 -0.12,-0.195 0.028,-0.449 0.33,-0.565 0.302,-0.115 0.549,-0.423 0.549,-0.682 0,-0.259 0.226,-0.598 0.502,-0.753 0.276,-0.154 0.532,-0.438 0.569,-0.632 0.037,-0.193 0.206,-0.717 0.376,-1.164 0.17,-0.447 0.309,-0.961 0.309,-1.141 0,-0.181 0.142,-0.328 0.315,-0.328 1.303,0 1.301,-12.869 -0.002,-13.712 -0.162,-0.105 -0.343,-0.5 -0.402,-0.878 -0.059,-0.378 -0.23,-0.885 -0.381,-1.126 -0.15,-0.241 -0.146,-0.444 0.011,-0.45 0.156,-0.006 0.019,-0.165 -0.303,-0.353 -0.323,-0.188 -0.689,-0.803 -0.812,-1.365 -0.124,-0.562 -0.462,-1.113 -0.752,-1.224 -0.29,-0.112 -0.435,-0.352 -0.323,-0.535 0.113,-0.182 -0.004,-0.46 -0.261,-0.617 -0.257,-0.157 -0.675,-0.798 -0.928,-1.426 -0.254,-0.628 -0.587,-1.142 -0.742,-1.142 -0.154,0 -0.385,-0.474 -0.512,-1.053 -0.127,-0.58 -0.365,-1.054 -0.529,-1.054 -0.164,0 -0.709,-0.869 -1.212,-1.931 -0.502,-1.062 -1.067,-1.932 -1.254,-1.932 -0.188,0 -0.324,-0.118 -0.303,-0.263 0.073,-0.506 -0.474,-1.844 -0.754,-1.844 -0.155,0 -0.386,-0.474 -0.513,-1.053 -0.128,-0.58 -0.385,-1.054 -0.573,-1.054 -0.188,0 -0.507,-0.474 -0.709,-1.053 -0.207,-0.594 -0.529,-0.953 -0.738,-0.824 -0.21,0.13 -0.269,0.063 -0.136,-0.151 0.13,-0.21 0.072,-0.483 -0.127,-0.606 -0.199,-0.123 -0.271,-0.372 -0.159,-0.553 0.112,-0.181 -0.044,-0.425 -0.346,-0.54 -0.302,-0.116 -0.549,-0.51 -0.549,-0.876 0,-0.366 -0.184,-0.665 -0.409,-0.665 -0.226,0 -0.318,-0.092 -0.205,-0.205 0.113,-0.112 -0.098,-0.507 -0.468,-0.878 -0.371,-0.37 -0.674,-0.921 -0.674,-1.224 0,-0.304 -0.197,-0.773 -0.439,-1.042 -1.075,-1.199 -1.302,-1.563 -1.523,-2.444 -0.129,-0.515 -0.451,-1.019 -0.715,-1.12 -0.263,-0.101 -0.41,-0.296 -0.326,-0.432 0.085,-0.137 -0.229,-0.694 -0.696,-1.239 -0.468,-0.544 -0.765,-1.128 -0.66,-1.297 0.104,-0.169 -0.048,-0.399 -0.338,-0.51 -0.29,-0.112 -0.628,-0.663 -0.752,-1.225 -0.123,-0.562 -0.489,-1.176 -0.812,-1.365 -0.322,-0.188 -0.472,-0.347 -0.331,-0.353 0.141,-0.006 -0.215,-0.753 -0.79,-1.66 -0.575,-0.907 -1.046,-1.855 -1.046,-2.107 0,-0.252 -0.141,-0.458 -0.313,-0.458 -0.172,0 -0.414,-0.401 -0.537,-0.892 -0.123,-0.491 -0.365,-0.806 -0.536,-0.7 -0.172,0.107 -0.417,-0.282 -0.545,-0.863 -0.127,-0.581 -0.348,-1.057 -0.49,-1.057 -0.141,0 -0.474,-0.553 -0.74,-1.229 -0.265,-0.676 -0.598,-1.229 -0.74,-1.229 -0.141,0 -0.359,-0.461 -0.482,-1.024 -0.124,-0.564 -0.463,-1.116 -0.753,-1.227 -0.29,-0.111 -0.428,-0.363 -0.307,-0.559 0.121,-0.195 -0.018,-0.447 -0.308,-0.558 -0.29,-0.112 -0.631,-0.674 -0.758,-1.251 -0.126,-0.576 -0.452,-1.133 -0.723,-1.237 -0.272,-0.104 -0.494,-0.388 -0.494,-0.631 0,-0.243 -0.311,-0.837 -0.691,-1.32 -0.38,-0.483 -0.594,-0.975 -0.476,-1.093 0.117,-0.118 -0.036,-0.31 -0.342,-0.428 -0.305,-0.117 -0.659,-0.684 -0.785,-1.261 -0.127,-0.576 -0.438,-1.127 -0.693,-1.225 -0.254,-0.097 -0.563,-0.58 -0.686,-1.072 -0.124,-0.492 -0.414,-1.108 -0.646,-1.367 -0.865,-0.969 -1.314,-1.539 -1.283,-1.631 0.018,-0.052 -0.137,-0.54 -0.344,-1.084 -0.206,-0.543 -0.375,-1.136 -0.375,-1.317 0,-0.18 -0.158,-0.328 -0.352,-0.328 -0.193,0 -0.351,-0.242 -0.351,-0.538 0,-0.296 -0.227,-0.625 -0.505,-0.731 -0.278,-0.107 -0.609,-0.666 -0.736,-1.242 -0.126,-0.577 -0.442,-1.13 -0.702,-1.229 -0.26,-0.1 -0.57,-0.629 -0.691,-1.177 -0.12,-0.547 -0.456,-1.085 -0.746,-1.197 -0.29,-0.111 -0.428,-0.363 -0.307,-0.558 0.121,-0.196 -0.005,-0.443 -0.279,-0.548 -0.274,-0.105 -0.703,-0.81 -0.953,-1.566 -0.249,-0.756 -0.571,-1.302 -0.715,-1.213 -0.143,0.088 -0.365,-0.252 -0.491,-0.757 -0.127,-0.505 -0.42,-1.13 -0.652,-1.39 -1.011,-1.132 -1.224,-1.484 -1.619,-2.683 -0.231,-0.698 -0.648,-1.459 -0.928,-1.692 -0.28,-0.232 -0.509,-0.64 -0.509,-0.906 0,-0.266 -0.155,-0.483 -0.344,-0.483 -0.19,0 -0.444,-0.395 -0.565,-0.878 -0.121,-0.483 -0.355,-0.878 -0.52,-0.878 -0.164,0 -0.487,-0.627 -0.716,-1.394 -0.23,-0.766 -0.547,-1.312 -0.706,-1.214 -0.159,0.098 -0.39,-0.223 -0.513,-0.714 -0.123,-0.491 -0.352,-0.893 -0.509,-0.893 -0.157,0 -0.389,-0.474 -0.517,-1.053 -0.127,-0.58 -0.358,-1.054 -0.513,-1.054 -0.154,0 -0.721,-0.869 -1.258,-1.931 -0.538,-1.062 -1.093,-1.932 -1.233,-1.932 -0.141,0 -0.362,-0.422 -0.491,-0.938 -0.13,-0.516 -0.542,-1.327 -0.916,-1.803 -0.375,-0.476 -0.681,-1.081 -0.681,-1.345 0,-0.263 -0.12,-0.479 -0.268,-0.479 -0.269,0 -0.614,-0.572 -1.67,-2.773 -0.315,-0.656 -0.798,-1.418 -1.073,-1.693 -0.275,-0.276 -0.501,-0.659 -0.501,-0.852 0,-0.193 -0.237,-0.588 -0.527,-0.878 -0.289,-0.29 -0.526,-0.815 -0.526,-1.166 0,-0.352 -0.222,-0.725 -0.494,-0.83 -0.272,-0.104 -0.597,-0.661 -0.724,-1.237 -0.126,-0.576 -0.457,-1.135 -0.735,-1.242 -0.278,-0.107 -0.506,-0.436 -0.506,-0.732 0,-0.295 -0.145,-0.537 -0.323,-0.537 -0.178,0 -0.427,-0.474 -0.555,-1.054 -0.127,-0.579 -0.349,-1.053 -0.493,-1.053 -0.144,0 -0.719,-0.937 -1.278,-2.081 -0.559,-1.144 -1.127,-2.012 -1.262,-1.928 -0.135,0.083 -0.347,-0.311 -0.471,-0.876 -0.125,-0.565 -0.533,-1.381 -0.907,-1.813 -0.374,-0.432 -0.681,-0.998 -0.681,-1.258 0,-0.26 -0.158,-0.473 -0.351,-0.473 -0.193,0 -0.351,-0.226 -0.351,-0.502 0,-0.276 -0.202,-0.71 -0.45,-0.965 -0.247,-0.256 -0.905,-1.373 -1.462,-2.484 -0.557,-1.11 -1.145,-2.019 -1.306,-2.019 -0.162,0 -0.294,-0.226 -0.294,-0.502 0,-0.276 -0.198,-0.716 -0.439,-0.979 -0.695,-0.756 -1.317,-1.972 -1.317,-2.574 0,-0.303 -0.145,-0.462 -0.323,-0.353 -0.177,0.11 -0.427,-0.276 -0.554,-0.857 -0.128,-0.581 -0.375,-1.056 -0.549,-1.056 -0.174,0 -0.415,-0.394 -0.536,-0.876 -0.121,-0.481 -0.344,-0.799 -0.496,-0.705 -0.152,0.094 -0.385,-0.263 -0.517,-0.792 -0.132,-0.53 -0.446,-1.201 -0.698,-1.49 -0.252,-0.29 -0.566,-0.883 -0.699,-1.317 -0.132,-0.435 -0.376,-0.791 -0.541,-0.791 -0.165,0 -0.483,-0.553 -0.706,-1.229 -0.223,-0.676 -0.551,-1.229 -0.73,-1.229 -0.178,0 -0.323,-0.213 -0.323,-0.473 0,-0.26 -0.317,-0.837 -0.703,-1.283 -0.386,-0.445 -0.702,-1.022 -0.702,-1.283 0,-0.26 -0.126,-0.473 -0.281,-0.473 -0.154,0 -0.48,-0.553 -0.725,-1.229 -0.244,-0.676 -0.58,-1.229 -0.745,-1.229 -0.165,0 -0.405,-0.475 -0.533,-1.057 -0.127,-0.581 -0.364,-0.974 -0.526,-0.875 -0.161,0.1 -0.398,-0.295 -0.526,-0.877 -0.128,-0.583 -0.355,-0.985 -0.503,-0.893 -0.149,0.092 -0.478,-0.46 -0.73,-1.226 -0.253,-0.766 -0.593,-1.393 -0.755,-1.393 -0.162,0 -0.295,-0.226 -0.295,-0.502 0,-0.276 -0.252,-0.753 -0.559,-1.061 -0.307,-0.307 -0.594,-0.797 -0.637,-1.088 -0.042,-0.291 -0.195,-0.52 -0.339,-0.509 -0.144,0.011 -0.765,-0.973 -1.38,-2.186 -0.616,-1.212 -1.203,-2.284 -1.304,-2.38 -0.102,-0.097 -0.383,-0.571 -0.624,-1.054 -0.241,-0.483 -0.827,-1.51 -1.301,-2.283 -0.475,-0.772 -0.964,-1.681 -1.088,-2.019 -0.124,-0.338 -0.347,-0.615 -0.497,-0.615 -0.15,0 -0.369,-0.384 -0.486,-0.853 -0.118,-0.469 -0.412,-1.065 -0.653,-1.323 -0.241,-0.259 -0.83,-1.218 -1.309,-2.132 -0.479,-0.914 -0.968,-1.662 -1.086,-1.662 -0.118,0 -0.409,-0.647 -0.646,-1.439 -0.237,-0.791 -0.524,-1.346 -0.636,-1.234 -0.113,0.113 -0.582,-0.583 -1.043,-1.546 -0.461,-0.963 -0.965,-1.751 -1.119,-1.751 -0.155,0 -0.491,-0.634 -0.747,-1.41 -0.256,-0.775 -0.676,-1.585 -0.934,-1.799 -0.258,-0.214 -0.469,-0.606 -0.469,-0.872 0,-0.267 -0.14,-0.484 -0.31,-0.484 -0.283,0 -0.828,-1.429 -0.646,-1.693 0.043,-0.062 -0.186,-0.26 -0.509,-0.441 -0.323,-0.181 -0.692,-0.803 -0.819,-1.383 -0.127,-0.58 -0.377,-0.965 -0.554,-0.855 -0.178,0.109 -0.323,-0.036 -0.323,-0.323 0,-0.288 -0.206,-0.732 -0.458,-0.987 -0.518,-0.523 -1.087,-1.734 -1.002,-2.132 0.03,-0.145 -0.092,-0.264 -0.273,-0.264 -0.181,0 -0.528,-0.553 -0.773,-1.229 -0.244,-0.676 -0.553,-1.229 -0.687,-1.229 -0.133,0 -0.343,-0.401 -0.466,-0.892 -0.124,-0.491 -0.365,-0.806 -0.537,-0.699 -0.171,0.106 -0.416,-0.282 -0.544,-0.862 -0.127,-0.58 -0.495,-1.209 -0.818,-1.397 -0.323,-0.189 -0.458,-0.347 -0.3,-0.353 0.158,-0.006 -0.04,-0.47 -0.439,-1.031 -0.4,-0.561 -0.726,-1.272 -0.726,-1.58 0,-0.309 -0.237,-0.561 -0.527,-0.561 -0.29,0 -0.498,-0.118 -0.462,-0.263 0.128,-0.515 -1.477,-3.53 -2.435,-4.576 -0.242,-0.263 -0.439,-0.704 -0.439,-0.98 0,-0.276 -0.133,-0.502 -0.295,-0.502 -0.163,0 -0.504,-0.632 -0.759,-1.405 -0.255,-0.772 -0.596,-1.405 -0.759,-1.405 -0.162,0 -0.295,-0.201 -0.295,-0.448 0,-0.247 -0.316,-0.72 -0.702,-1.05 -0.386,-0.331 -0.702,-0.902 -0.702,-1.27 0,-0.368 -0.239,-0.76 -0.53,-0.872 -0.292,-0.112 -0.512,-0.326 -0.489,-0.476 0.081,-0.535 -0.473,-1.854 -0.778,-1.854 -0.171,0 -0.31,-0.242 -0.31,-0.537 0,-0.296 -0.223,-0.624 -0.496,-0.728 -0.272,-0.105 -0.598,-0.604 -0.725,-1.109 -0.127,-0.506 -0.536,-1.348 -0.91,-1.873 -0.373,-0.524 -0.679,-1.126 -0.679,-1.338 0,-0.212 -0.158,-0.385 -0.351,-0.385 -0.193,0 -0.351,-0.229 -0.351,-0.509 0,-0.28 -0.251,-0.65 -0.559,-0.822 -0.307,-0.172 -0.563,-0.456 -0.568,-0.632 -0.006,-0.176 -0.15,-0.685 -0.32,-1.133 -0.17,-0.447 -0.309,-0.96 -0.309,-1.141 0,-0.18 -0.158,-0.328 -0.351,-0.328 -0.194,0 -0.352,-0.229 -0.352,-0.51 0,-0.28 -0.209,-0.635 -0.465,-0.79 -0.496,-0.299 -1.093,-1.494 -0.986,-1.975 0.035,-0.159 -0.09,-0.194 -0.279,-0.077 -0.188,0.116 -0.532,-0.42 -0.763,-1.192 -0.231,-0.772 -0.55,-1.323 -0.709,-1.225 -0.159,0.098 -0.39,-0.223 -0.513,-0.714 -0.123,-0.491 -0.365,-0.892 -0.537,-0.892 -0.172,0 -0.313,-0.185 -0.313,-0.411 0,-0.227 -0.249,-0.687 -0.553,-1.023 -0.305,-0.336 -0.604,-0.823 -0.667,-1.081 -0.315,-1.314 -0.649,-2.051 -0.928,-2.051 -0.171,0 -0.31,-0.189 -0.31,-0.42 0,-0.459 -1.716,-3.111 -2.282,-3.525 -0.194,-0.142 -0.214,-0.26 -0.046,-0.263 0.169,-0.003 0.11,-0.243 -0.131,-0.533 -0.24,-0.289 -0.309,-0.526 -0.152,-0.526 0.157,0 -0.021,-0.309 -0.396,-0.686 -1.388,-1.397 -1.626,-1.772 -1.134,-1.783 0.29,-0.007 0.246,-0.132 -0.122,-0.347 -0.317,-0.185 -0.68,-0.752 -0.808,-1.261 -0.127,-0.509 -0.421,-1.137 -0.653,-1.397 -1.013,-1.134 -1.3,-1.54 -1.3,-1.839 0,-0.175 -0.306,-0.708 -0.681,-1.184 -0.374,-0.476 -0.783,-1.276 -0.909,-1.778 -0.126,-0.502 -0.462,-1.002 -0.747,-1.111 -0.284,-0.109 -0.418,-0.359 -0.297,-0.555 0.121,-0.195 -0.011,-0.445 -0.294,-0.553 -0.434,-0.167 -0.853,-1.007 -0.881,-1.769 -0.004,-0.11 -0.294,-0.418 -0.645,-0.684 -0.351,-0.265 -0.509,-0.488 -0.351,-0.494 0.158,-0.006 -0.029,-0.456 -0.416,-0.999 -0.386,-0.543 -0.806,-1.4 -0.933,-1.906 -0.127,-0.505 -0.453,-1.004 -0.726,-1.109 -0.272,-0.104 -0.495,-0.415 -0.495,-0.69 0,-0.275 -0.222,-0.585 -0.494,-0.69 -0.271,-0.104 -0.6,-0.674 -0.73,-1.266 -0.13,-0.593 -0.382,-1.078 -0.56,-1.078 -0.178,0 -0.323,-0.229 -0.323,-0.509 0,-0.28 -0.277,-0.67 -0.615,-0.867 -0.486,-0.283 -0.504,-0.363 -0.087,-0.379 0.416,-0.017 0.398,-0.097 -0.088,-0.38 -0.338,-0.197 -0.615,-0.535 -0.615,-0.752 0,-0.216 -0.249,-0.669 -0.553,-1.005 -0.304,-0.336 -0.592,-0.875 -0.639,-1.197 -0.048,-0.322 -0.245,-0.692 -0.438,-0.821 -0.396,-0.264 -0.969,-1.5 -0.884,-1.903 0.031,-0.145 -0.106,-0.264 -0.304,-0.264 -0.318,0 -1.181,-1.716 -1.039,-2.068 0.03,-0.075 -0.157,-0.266 -0.415,-0.426 -0.258,-0.159 -0.469,-0.459 -0.469,-0.666 0,-0.208 -0.161,-0.49 -0.358,-0.628 -0.197,-0.138 -0.553,-0.646 -0.792,-1.128 -0.238,-0.483 -0.896,-1.669 -1.462,-2.634 -0.565,-0.966 -1.039,-2.016 -1.052,-2.333 -0.013,-0.318 -0.26,-0.668 -0.55,-0.779 -0.29,-0.112 -0.527,-0.445 -0.527,-0.74 0,-0.296 -0.126,-0.538 -0.28,-0.538 -0.155,0 -0.481,-0.553 -0.725,-1.229 -0.245,-0.676 -0.593,-1.229 -0.773,-1.229 -0.181,0 -0.329,-0.321 -0.329,-0.714 0,-0.392 -0.225,-0.799 -0.499,-0.905 -0.275,-0.105 -0.742,-0.798 -1.039,-1.539 -0.297,-0.742 -0.707,-1.451 -0.911,-1.578 -0.205,-0.126 -0.28,-0.378 -0.168,-0.559 0.112,-0.181 -0.034,-0.42 -0.324,-0.532 -0.29,-0.111 -0.626,-0.65 -0.746,-1.197 -0.12,-0.547 -0.431,-1.077 -0.691,-1.176 -0.26,-0.1 -0.579,-0.666 -0.709,-1.259 -0.13,-0.592 -0.382,-1.077 -0.56,-1.077 -0.178,0 -0.323,-0.242 -0.323,-0.538 0,-0.296 -0.227,-0.625 -0.505,-0.731 -0.278,-0.107 -0.607,-0.655 -0.731,-1.219 -0.123,-0.563 -0.37,-1.024 -0.548,-1.024 -0.178,0 -0.323,-0.166 -0.323,-0.37 0,-0.203 -0.395,-0.951 -0.878,-1.661 -0.483,-0.711 -0.878,-1.581 -0.878,-1.934 0,-0.353 -0.153,-0.547 -0.341,-0.431 -0.187,0.116 -0.442,-0.191 -0.565,-0.682 -0.123,-0.49 -0.345,-0.892 -0.494,-0.892 -0.149,0 -0.481,-0.514 -0.738,-1.141 -0.256,-0.628 -0.67,-1.35 -0.92,-1.606 -0.25,-0.255 -0.454,-0.652 -0.454,-0.881 0,-0.23 -0.395,-0.844 -0.878,-1.365 -0.483,-0.52 -0.878,-1.072 -0.878,-1.225 -0.001,-0.506 -1.653,-2.21 -2.148,-2.216 -0.386,-0.004 -0.378,-0.075 0.041,-0.346 0.461,-0.297 0.457,-0.341 -0.033,-0.345 -0.308,-0.003 -0.846,-0.322 -1.196,-0.708 -0.35,-0.386 -0.831,-0.703 -1.07,-0.703 -0.24,0 -0.521,-0.222 -0.625,-0.493 -0.104,-0.272 -0.674,-0.6 -1.266,-0.73 -0.593,-0.131 -1.078,-0.355 -1.078,-0.5 0,-0.955 -9.617,-1.434 -12.906,-0.643 m 7.226,80.705 c 0.852,1.435 4.007,6.877 7.012,12.092 3.005,5.215 6.519,11.299 7.809,13.52 2.717,4.678 5.328,9.202 13.584,23.53 3.283,5.698 8.259,14.311 11.059,19.139 6.14,10.592 14.328,24.792 15.332,26.592 0.401,0.719 1.107,1.904 1.568,2.634 0.461,0.73 3.101,5.278 5.867,10.107 2.765,4.829 8.14,14.153 11.943,20.72 3.804,6.567 9.57,16.523 12.814,22.125 3.244,5.601 7.671,13.266 9.837,17.032 6.222,10.82 11.313,19.639 15.611,27.041 2.187,3.767 5.428,9.377 7.203,12.467 1.775,3.091 4.438,7.692 5.916,10.226 1.479,2.534 2.689,4.865 2.689,5.18 0,0.692 -259.98,0.907 -260.408,0.216 -0.121,-0.196 1.398,-3.16 3.377,-6.585 3.632,-6.288 6.428,-11.121 13.66,-23.611 2.18,-3.766 5.47,-9.455 7.31,-12.642 1.84,-3.187 4.169,-7.217 5.177,-8.956 1.007,-1.738 4.349,-7.506 7.427,-12.818 3.077,-5.312 6.127,-10.606 6.777,-11.765 0.65,-1.158 3.034,-5.29 5.299,-9.18 2.264,-3.891 4.507,-7.763 4.984,-8.604 0.477,-0.842 2.565,-4.454 4.639,-8.028 2.075,-3.573 5.532,-9.553 7.682,-13.289 2.15,-3.736 4.067,-7.058 4.26,-7.382 0.508,-0.852 1.673,-2.865 6.232,-10.76 2.23,-3.863 6.706,-11.606 9.947,-17.208 7.891,-13.641 14.328,-24.79 18.248,-31.606 1.777,-3.091 4.331,-7.516 5.676,-9.834 3.905,-6.731 17.365,-30.056 18.299,-31.71 1.076,-1.908 1.286,-1.818 3.17,1.357 m -24.036,64.769 c 0,2.318 0.057,3.221 0.126,2.006 0.069,-1.215 0.068,-3.111 -0.001,-4.214 -0.07,-1.103 -0.126,-0.109 -0.125,2.208 m 43.143,21.247 c 0,0.676 0.072,0.953 0.16,0.615 0.089,-0.338 0.089,-0.891 0,-1.229 -0.088,-0.338 -0.16,-0.062 -0.16,0.614 m -1.398,9.307 c 0.004,0.772 0.076,1.047 0.16,0.61 0.084,-0.437 0.081,-1.069 -0.007,-1.405 -0.088,-0.335 -0.157,0.022 -0.153,0.795 m -32.316,37.752 c 0,0.676 0.072,0.953 0.161,0.615 0.088,-0.338 0.088,-0.892 0,-1.23 -0.089,-0.338 -0.161,-0.061 -0.161,0.615 m 25.285,8.428 c 0,0.676 0.073,0.953 0.161,0.615 0.088,-0.338 0.088,-0.891 0,-1.229 -0.088,-0.338 -0.161,-0.062 -0.161,0.614 m -21.773,15.101 c 0,0.676 0.072,0.953 0.16,0.615 0.089,-0.338 0.089,-0.891 0,-1.229 -0.088,-0.338 -0.16,-0.062 -0.16,0.614 m 16.578,7.112 -1.032,1.141 1.142,-1.031 c 0.627,-0.568 1.141,-1.081 1.141,-1.142 0,-0.271 -0.29,-0.032 -1.251,1.032 m 5.992,24.846 c 1.147,1.159 2.164,2.107 2.261,2.107 0.096,0 -0.763,-0.948 -1.91,-2.107 -1.147,-1.159 -2.164,-2.107 -2.261,-2.107 -0.096,0 0.763,0.948 1.91,2.107 m -25.659,-0.263 -1.031,1.141 1.141,-1.031 c 0.628,-0.568 1.141,-1.081 1.141,-1.142 0,-0.271 -0.289,-0.032 -1.251,1.032"
     stroke="none"
     fill="#ec131b"
     fill-rule="evenodd"
     style="fill:#c923f7;fill-opacity:1" />
</svg>
