<?xml version="1.0" encoding="UTF-8" standalone="no"?>
<svg
   id="svg"
   width="388.93042"
   height="208.23627"
   viewBox="0 0 388.93042 208.23627"
   version="1.1"
   sodipodi:docname="baadisaetning.svg"
   inkscape:version="1.1 (c68e22c387, 2021-05-23)"
   xmlns:inkscape="http://www.inkscape.org/namespaces/inkscape"
   xmlns:sodipodi="http://sodipodi.sourceforge.net/DTD/sodipodi-0.dtd"
   xmlns="http://www.w3.org/2000/svg"
   xmlns:svg="http://www.w3.org/2000/svg">
  <defs
     id="defs7" />
  <sodipodi:namedview
     id="namedview5"
     pagecolor="#ffffff"
     bordercolor="#666666"
     borderopacity="1.0"
     inkscape:pageshadow="2"
     inkscape:pageopacity="0.0"
     inkscape:pagecheckerboard="0"
     showgrid="false"
     inkscape:zoom="1.35"
     inkscape:cx="64.444444"
     inkscape:cy="134.44444"
     inkscape:window-width="1920"
     inkscape:window-height="1017"
     inkscape:window-x="-8"
     inkscape:window-y="-8"
     inkscape:window-maximized="1"
     inkscape:current-layer="svg"
     fit-margin-top="0"
     fit-margin-left="0"
     fit-margin-right="0"
     fit-margin-bottom="0" />
  <g
     id="svgg"
     style="fill:#0044aa;stroke:#ffffff;stroke-opacity:1;stroke-width:3;stroke-miterlimit:4;stroke-dasharray:none"
     transform="translate(-10.666567,-46.977)">
    <path
       id="path0"
       d="m 87.29,47.11 c -0.21,0.209 -0.156,1.628 0.066,1.766 0.11,0.068 0.2,0.859 0.2,1.759 0,2.597 0.413,9.196 0.602,9.635 0.095,0.22 0.232,1.299 0.304,2.399 0.072,1.099 0.217,2.448 0.322,2.998 0.106,0.55 0.318,1.989 0.472,3.199 0.31,2.438 0.737,5.021 1.207,7.296 0.17,0.825 0.389,1.904 0.485,2.399 0.483,2.465 1.587,7.001 1.805,7.419 0.093,0.177 0.279,0.896 0.414,1.599 0.134,0.702 0.318,1.373 0.409,1.49 0.091,0.118 0.269,0.702 0.395,1.299 0.126,0.598 0.293,1.176 0.372,1.286 0.079,0.11 0.348,0.83 0.598,1.599 0.675,2.08 2.08,5.724 2.97,7.705 1.914,4.263 2.725,5.872 4.578,9.087 9.549,16.568 21.822,25.83 41.736,31.496 3.41,0.97 13.036,3.707 21.392,6.083 23.639,6.722 64.541,18.522 65.323,18.846 0.293,0.122 0.144,0.302 -0.846,1.023 -11.345,8.262 -13.067,26.052 -3.519,36.358 0.638,0.689 1.037,1.209 0.886,1.156 -0.151,-0.053 -13.993,-3.793 -30.759,-8.312 -16.767,-4.519 -60.17,-16.223 -96.452,-26.01 -59.546,-16.062 -71.153,-19.18 -80.055,-21.503 -4.348,-1.135 -6.595,-0.43 -8.1,2.54 -0.716,1.414 -0.696,-0.32 -0.537,45.879 l 0.149,43.578 0.475,1.2 c 1.247,3.15 2.947,4.068 12.399,6.701 31.837,8.868 56.323,8.186 89.08,-2.48 7.387,-2.405 9.098,-2.389 16.84,0.156 34.321,11.281 62.001,11.229 96.685,-0.182 7.104,-2.337 8.952,-2.336 16.137,0.012 31.096,10.162 55.349,11.242 84.313,3.752 13.778,-3.562 13.635,-3.516 14.912,-4.794 2.751,-2.75 2.029,-7.954 -1.341,-9.674 -0.621,-0.316 -87.51,-23.901 -89.583,-24.316 -0.503,-0.101 -0.365,-0.184 1.086,-0.656 13.515,-4.395 20.736,-19.593 15.485,-32.593 -0.414,-1.025 -0.438,-1.192 -0.159,-1.104 0.182,0.057 3.613,1.056 7.626,2.221 8.966,2.601 37.993,11.064 53.764,15.673 16.552,4.838 20.597,5.34 28.79,3.573 7.577,-1.634 11.682,-4.155 18.505,-11.366 1.094,-1.156 3.519,-3.718 5.388,-5.694 1.869,-1.975 4.214,-4.447 5.211,-5.493 0.997,-1.046 3.692,-3.881 5.99,-6.3 2.298,-2.419 4.652,-4.892 5.232,-5.497 0.579,-0.605 1.054,-1.235 1.055,-1.399 0.001,-0.218 -25.6,-9.791 -92.701,-34.668 -81.599,-30.25 -113.107,-41.946 -114.492,-42.498 -0.318,-0.126 0.482,-0.589 3.898,-2.255 10.56,-5.152 28.222,-14.651 29.39,-15.807 3.716,-3.679 1.375,-9.966 -3.827,-10.277 -1.999,-0.119 -2.27,-0.018 -7.372,2.759 -9.97,5.428 -13.727,7.38 -25.661,13.335 l -12.567,6.272 -5.924,-2.189 C 167.083,76.387 147.175,69.006 126.1,61.189 105.026,53.372 87.702,46.977 87.603,46.977 c -0.099,0 -0.24,0.059 -0.313,0.133 m -69.84,69.434 c -7.466,1.09 -9.349,11.666 -2.712,15.235 1.024,0.551 188.718,53.001 190.385,53.202 8.555,1.033 12.421,-11.23 4.827,-15.31 -1.122,-0.603 -188.9,-53.039 -190.46,-53.185 -0.549,-0.052 -1.468,-0.026 -2.04,0.058 m 231.118,63.243 c 6.477,3.201 6.439,11.857 -0.067,15.072 -6.631,3.277 -14.236,-4.138 -11.079,-10.803 2.103,-4.439 7.003,-6.317 11.146,-4.269 m 31.551,10.122 c -7.523,1.083 -9.353,11.84 -2.599,15.279 1.122,0.571 78.236,23.007 80.15,23.319 7.586,1.236 12.365,-8.109 7.052,-13.789 -1.51,-1.614 -1.418,-1.585 -42.183,-13.397 -39.086,-11.326 -40.456,-11.694 -42.42,-11.412"
       stroke="none"
       fill="#000000"
       fill-rule="evenodd"
       style="fill:#0044aa;stroke:#ffffff;stroke-opacity:1;stroke-width:3;stroke-miterlimit:4;stroke-dasharray:none" />
  </g>
</svg>
