<?xml version="1.0" encoding="UTF-8" standalone="no"?>
<svg
   id="svg"
   version="1.1"
   width="400"
   height="400"
   viewBox="0, 0, 400,400"
   sodipodi:docname="baare_kvadr.svg"
   inkscape:version="1.1 (c68e22c387, 2021-05-23)"
   xmlns:inkscape="http://www.inkscape.org/namespaces/inkscape"
   xmlns:sodipodi="http://sodipodi.sourceforge.net/DTD/sodipodi-0.dtd"
   xmlns="http://www.w3.org/2000/svg"
   xmlns:svg="http://www.w3.org/2000/svg">
  <defs
     id="defs8" />
  <sodipodi:namedview
     id="namedview6"
     pagecolor="#ffffff"
     bordercolor="#666666"
     borderopacity="1.0"
     inkscape:pageshadow="2"
     inkscape:pageopacity="0.0"
     inkscape:pagecheckerboard="0"
     showgrid="false"
     inkscape:zoom="0.72831999"
     inkscape:cx="278.72364"
     inkscape:cy="142.10787"
     inkscape:window-width="1920"
     inkscape:window-height="1009"
     inkscape:window-x="-8"
     inkscape:window-y="-8"
     inkscape:window-maximized="1"
     inkscape:current-layer="svg" />
  <rect
     style="fill:#049b5d;fill-opacity:1;stroke:#566ee6;stroke-width:0.604724"
     id="rect1009"
     width="398.815"
     height="398.5"
     x="1.8628955"
     y="1.3021492" />
  <path
     id="path0"
     d="m 1.8628964,1.3021491 c -0.104,0.275 -0.144,90.0499999 -0.087,199.5000009 l 0.102,199 H 201.2779 h 199.4 v -199.4 V 1.0021491 l -199.312,-0.1 c -159.241004,-0.081 -199.3510036,0 -199.5030036,0.4 M 381.4779,199.60215 v 179 h -180 -180.000004 l -0.102,-178.6 c -0.057,-98.23 -0.017,-178.825001 0.087,-179.100001 0.152,-0.4 36.382,-0.481 180.103004,-0.4 l 179.912,0.1 V 199.60215"
     stroke="none"
     fill="#f5f6f5"
     fill-rule="evenodd"
     style="fill:#ffffff"
     sodipodi:nodetypes="cccccccccccccccccc" />
  <a
     id="a2706"
     transform="matrix(4.9855098,0,0,5.6428741,41.540429,31.425684)"
     style="fill:#ffffff;stroke-width:0.188537">
    <path
       id="path2"
       d="m 55.872078,19.939067 -0.141669,20.04172 C 44.040034,39.905632 30.383944,40.041108 7.6875,39.96875 7.6875,34.635417 7.57746,22.304207 8,20 30.973208,19.94151 32.743636,19.9579 55.872078,19.93907 Z M 0,22 c 0,-1.104569 0.8954305,-2 2,-2 h 6 v 4.07767 L 2,24 C 0.89552304,23.985703 0,23.104569 0,22 Z M 0,38 C 0,36.895431 0.8954305,36 2,36 H 8 L 7.6875,39.96875 2,40 C 0.90834698,39.831574 0,39.104569 0,38 Z m 54.148505,-18.083024 7.553398,0.03883 c 2.988143,0.05896 3.148184,3.992492 0,4 l -7.428165,-0.02144 c -0.191524,-3.929005 -0.219314,-0.922051 -0.125233,-4.017393 z m 0.07427,16.070598 7.553398,0.03883 c 2.988143,0.05896 3.148184,3.992492 0,4 l -7.415225,-0.03232 c -0.191524,-3.929007 -0.232258,-0.911168 -0.138177,-4.00651 z"
       style="fill:#ffffff;stroke-width:0.188537" />
  </a>
</svg>
