<?xml version="1.0" encoding="UTF-8" standalone="no"?>
<svg
   id="svg"
   version="1.1"
   width="400"
   height="400"
   viewBox="0, 0, 400,400"
   sodipodi:docname="bess_anlaeg2.svg"
   inkscape:version="1.1 (c68e22c387, 2021-05-23)"
   xmlns:inkscape="http://www.inkscape.org/namespaces/inkscape"
   xmlns:sodipodi="http://sodipodi.sourceforge.net/DTD/sodipodi-0.dtd"
   xmlns="http://www.w3.org/2000/svg"
   xmlns:svg="http://www.w3.org/2000/svg">
  <defs
     id="defs9" />
  <sodipodi:namedview
     id="namedview7"
     pagecolor="#ffffff"
     bordercolor="#666666"
     borderopacity="1.0"
     inkscape:pageshadow="2"
     inkscape:pageopacity="0.0"
     inkscape:pagecheckerboard="0"
     showgrid="false"
     lock-margins="true"
     inkscape:zoom="0.515"
     inkscape:cx="27.184466"
     inkscape:cy="53.398058"
     inkscape:window-width="1920"
     inkscape:window-height="1009"
     inkscape:window-x="-8"
     inkscape:window-y="-8"
     inkscape:window-maximized="1"
     inkscape:current-layer="svg" />
  <rect
     style="fill:#f7c226;fill-opacity:1;stroke:#000000;stroke-width:25;stroke-miterlimit:4;stroke-dasharray:none"
     id="rect1148"
     width="261.2883"
     height="261.2883"
     x="156.73447"
     y="-132.58589"
     transform="rotate(45)" />
  <path
     id="path0"
     d="m 191.19923,81.776542 c -1.58472,0.32852 -4.15483,2.731197 -25.46172,23.814988 -97.490487,96.46663 -90.536802,89.34212 -90.564403,92.77497 -0.02369,2.94585 1.668579,4.8234 30.612773,33.96465 29.46269,29.66161 29.65239,29.84023 32.5851,30.42321 3.18501,0.63362 3.77984,0.1233 29.35178,-25.17787 13.28726,-13.14492 38.49012,-38.07323 56.00539,-55.39478 17.51527,-17.32156 32.1689,-32.11319 32.56268,-32.87029 2.09507,-4.03071 0.978,-6.2611 -7.34121,-14.65422 -8.01819,-8.09047 -7.61802,-7.09048 -4.14556,-10.37577 4.35389,-4.11838 5.09791,-5.99363 3.88318,-9.77666 -0.76593,-2.38415 -21.94797,-23.557932 -24.55133,-24.541072 -3.06416,-1.157472 -5.34671,-0.268701 -9.24608,3.5974 -3.79922,3.76647 -2.8064,4.12326 -10.55387,-3.79008 -8.06452,-8.238791 -9.05213,-8.839612 -13.13673,-7.994476 m 26.49632,39.443488 c 13.66819,13.88651 24.84977,25.43333 24.84795,25.6601 -0.004,0.56152 -102.57889,102.08237 -102.97716,101.92149 -0.17546,-0.0705 -11.65358,-11.53766 -25.50921,-25.4829 l -25.19056,-25.35617 6.25291,-6.3299 c 20.05113,-20.3023 96.52942,-95.670922 97.07474,-95.665452 0.35743,0.003 11.83312,11.367412 25.50133,25.252832 m -9.42961,17.69327 c -2.97727,0.92963 -5.60795,1.73246 -5.84595,1.78454 -0.238,0.0521 -3.8431,1.16458 -8.01134,2.47342 -13.58193,4.26449 -27.0377,8.41444 -28.36436,8.7472 -0.7142,0.18 -2.85758,0.81828 -4.76308,1.41959 -5.9428,1.87556 -9.80567,3.08319 -14.29094,4.4683 -7.66165,2.36499 -7.63876,2.60816 1.09476,11.58668 3.82908,3.93688 6.73018,7.24209 6.44749,7.34458 -0.28377,0.10249 -1.35854,0.80549 -2.38841,1.56396 -2.09991,1.54361 -7.78745,5.38669 -8.93959,6.0405 -0.41334,0.23426 -1.56569,1.05113 -2.56214,1.81527 -0.99644,0.76414 -1.92694,1.38841 -2.06733,1.38728 -0.14145,-0.001 -1.18225,0.63738 -2.31488,1.41877 -1.13265,0.7814 -3.42716,2.35152 -5.0994,3.49035 -1.67223,1.13776 -4.31093,2.93838 -5.86375,3.99934 -1.55283,1.06204 -3.99573,2.68712 -5.42867,3.61298 -4.66466,3.01112 -5.55927,4.40891 -3.82784,5.98224 1.14928,1.04489 1.77036,1.02936 5.50872,-0.13821 1.90546,-0.59484 5.51042,-1.69221 8.01108,-2.43993 4.17529,-1.2483 15.3139,-4.63826 24.89918,-7.57635 2.14353,-0.65664 6.82024,-2.07801 10.39267,-3.15838 3.57244,-1.07928 8.24916,-2.50281 10.39273,-3.16377 2.14355,-0.65988 6.23572,-1.90884 9.09368,-2.77572 8.91059,-2.70268 8.91142,-2.80528 0.0447,-11.87882 -7.09503,-7.26122 -7.05781,-7.18857 -4.48502,-8.85257 0.87497,-0.56532 2.79464,-1.85444 4.26605,-2.86314 1.47034,-1.00979 5.47705,-3.7195 8.90381,-6.02242 3.42569,-2.30402 7.40207,-5.00318 8.8356,-6.00031 1.4335,-0.99603 4.2677,-2.93656 6.29822,-4.31117 2.03053,-1.3757 4.2782,-2.89759 4.99487,-3.38428 3.67885,-2.49529 4.52333,-4.10406 2.92712,-5.57264 -1.08593,-0.99903 -1.70321,-0.91975 -7.85803,1.00271 m 50.66717,11.1062 c -0.71629,0.44132 -5.02574,4.5374 -9.5765,9.10128 -9.67206,9.69987 -46.6635,46.46225 -80.1543,79.65768 -26.45516,26.22169 -25.54877,25.10586 -23.97173,29.4944 0.72779,2.02423 56.54905,59.11621 59.7351,61.09541 4.87636,3.02844 5.63207,2.52048 25.22082,-16.95292 9.21521,-9.16033 26.85304,-26.68177 39.19577,-38.93688 60.72843,-60.29746 56.49074,-55.99024 57.03469,-57.96536 1.00224,-3.63453 0.38953,-4.65999 -7.77981,-13.02382 l -7.33816,-7.51372 3.09842,-3.10363 c 7.08415,-7.09754 6.97763,-7.4159 -7.39244,-22.11692 -14.50288,-14.83813 -16.18161,-15.44344 -22.99722,-8.30053 -3.23028,3.3855 -2.57906,3.65099 -10.23549,-4.16982 -8.31516,-8.49351 -10.84089,-9.72982 -14.83915,-7.26517 m 28.3986,38.83997 c 13.71288,13.83611 24.86786,25.33413 24.78838,25.54948 -0.28711,0.78495 -100.66531,100.61069 -102.1037,101.54082 -0.94878,0.61441 -51.13823,-48.82205 -51.14301,-50.37719 -0.002,-0.51298 21.95085,-22.4663 70.1708,-70.17304 12.14859,-12.01908 24.2882,-24.12895 26.97582,-26.90975 3.1624,-3.27158 5.15157,-5.01046 5.63359,-4.92236 0.40979,0.0735 11.96526,11.45485 25.67812,25.29204 m -10.7127,17.97885 c -6.78095,2.16258 -17.4384,5.47864 -24.4675,7.61222 -2.26257,0.68592 -4.89335,1.50387 -5.84622,1.81694 -0.95285,0.31415 -4.94767,1.54447 -8.87737,2.73643 -3.92972,1.19196 -8.50923,2.61195 -10.17668,3.15686 -1.66747,0.54493 -5.6538,1.79367 -8.85828,2.77547 -9.77472,2.99595 -9.76265,2.8373 -0.87143,11.9456 l 6.96217,7.13165 -1.28074,0.93464 c -1.78045,1.29995 -7.7408,5.36006 -13.92198,9.48536 -6.92493,4.62255 -11.68614,7.82405 -14.3325,9.63756 -1.19449,0.81761 -3.44213,2.33412 -4.99475,3.36917 -5.2778,3.51699 -6.00705,4.76383 -3.90808,6.69434 0.96801,0.89116 0.46809,1.01565 18.57842,-4.62389 3.45361,-1.0759 8.13036,-2.50377 10.3928,-3.17457 2.26244,-0.6708 5.96479,-1.79115 8.22745,-2.49002 2.26267,-0.6989 6.35496,-1.96406 9.09397,-2.8103 2.73902,-0.84623 7.02603,-2.15302 9.52668,-2.90398 23.11981,-6.94378 21.96105,-5.4682 12.16784,-15.48549 l -6.98795,-7.14914 1.04488,-0.74538 c 2.23964,-1.59648 5.66786,-3.94584 10.44647,-7.16123 6.06201,-4.07873 7.26949,-4.89948 12.80234,-8.71034 2.38906,-1.64494 5.90736,-4.04865 7.81842,-5.34215 6.90697,-4.67346 6.94286,-4.70449 7.09986,-5.9635 0.41217,-3.31313 -1.1765,-3.43499 -9.63782,-0.73625"
     stroke="none"
     fill="#070606"
     fill-rule="evenodd"
     sodipodi:nodetypes="ccscccscccccccccscccccccsccccccccssscccccccccscccccccsccsscccscccccssccccccccccccsscccccccccsssccccccccc"
     style="stroke-width:1" />
</svg>
