<?xml version="1.0" encoding="UTF-8" standalone="no"?>
<svg
   id="svg"
   version="1.1"
   width="406.59189"
   height="303.85907"
   viewBox="0 0 406.59189 303.85906"
   sodipodi:docname="betondaekningsgrav.svg"
   inkscape:version="1.1 (c68e22c387, 2021-05-23)"
   xmlns:inkscape="http://www.inkscape.org/namespaces/inkscape"
   xmlns:sodipodi="http://sodipodi.sourceforge.net/DTD/sodipodi-0.dtd"
   xmlns="http://www.w3.org/2000/svg"
   xmlns:svg="http://www.w3.org/2000/svg">
  <defs
     id="defs8" />
  <sodipodi:namedview
     id="namedview6"
     pagecolor="#ffffff"
     bordercolor="#666666"
     borderopacity="1.0"
     inkscape:pageshadow="2"
     inkscape:pageopacity="0.0"
     inkscape:pagecheckerboard="0"
     showgrid="false"
     fit-margin-bottom="3"
     lock-margins="true"
     fit-margin-top="3"
     fit-margin-left="3"
     fit-margin-right="3"
     inkscape:zoom="1.8791363"
     inkscape:cx="238.4074"
     inkscape:cy="222.7087"
     inkscape:window-width="1920"
     inkscape:window-height="1009"
     inkscape:window-x="-8"
     inkscape:window-y="-8"
     inkscape:window-maximized="1"
     inkscape:current-layer="svg" />
  <rect
     style="fill:#ffffff;fill-opacity:1;stroke:#ffffff;stroke-width:51.703;stroke-linecap:round;stroke-linejoin:round;stroke-opacity:1"
     id="rect1054"
     width="283.69421"
     height="208.83028"
     x="61.095184"
     y="54.507462"
     rx="88.661346"
     ry="88.661346" />
  <path
     id="path0"
     d="m 188.18449,3.3209311 c -9.82677,0.7300596 -18.46823,1.894629 -28.24004,3.8058502 -4.33368,0.8472422 -5.11767,1.021461 -9.105,2.0232188 -1.44352,0.3629558 -3.11001,0.7756882 -3.70422,0.9177599 -3.93652,0.938499 -13.055,3.760221 -17.59194,5.443299 -7.46445,2.768833 -8.81568,3.295638 -9.08946,3.541411 -0.16073,0.145182 -0.46354,0.264439 -0.67198,0.264439 -0.20844,0 -1.43108,0.485323 -2.71698,1.079534 -1.2859,0.59421 -2.41729,1.080571 -2.5127,1.080571 -0.74768,0 -15.204727,7.47274 -20.110851,10.395052 -1.658189,0.988276 -3.153567,1.852111 -3.323638,1.921591 -0.169033,0.06948 -2.497135,1.561747 -5.1716,3.316379 -14.673782,9.626622 -26.972796,20.179301 -38.978334,33.446888 -2.722168,3.007348 -8.39361,10.065281 -11.157259,13.881502 -3.214751,4.44154 -9.042783,13.319438 -9.042783,13.776762 0,0.09436 -0.261328,0.539248 -0.580729,0.99035 -1.280715,1.806482 -6.722977,12.405822 -9.295815,18.103192 -1.095089,2.4235 -4.099326,10.28824 -5.247303,13.73424 -0.494657,1.48398 -1.911221,6.0261 -2.16529,6.94386 -0.816132,2.9441 -2.5355051,9.77078 -2.7605376,10.95712 -0.1441453,0.76324 -0.4925828,2.56868 -0.7736142,4.01222 -0.8316872,4.26732 -1.4373047,8.54812 -2.2275111,15.73983 -0.8731678,7.95391 -0.9872396,103.88105 -0.1285901,108.04881 0.8710937,4.22792 1.0930152,4.9756 2.1404018,7.21452 4.1262881,8.81672 11.9205032,14.67378 21.7742332,16.36308 4.171917,0.71554 347.43678,0.71554 351.60869,0 12.78745,-2.19224 21.68091,-11.04734 24.03286,-23.92812 0.72591,-3.97798 0.51228,-100.92554 -0.23748,-107.69829 -0.86902,-7.85333 -1.44249,-11.90599 -2.22544,-15.73983 -0.25925,-1.27346 -0.60147,-3.00942 -0.75909,-3.85874 -0.26963,-1.45286 -1.86456,-7.8191 -2.90054,-11.5731 -5.70462,-20.68018 -20.89173,-48.779176 -34.30035,-63.458142 -0.17215,-0.188737 -1.21331,-1.368862 -2.31359,-2.623652 -17.0278,-19.411909 -37.1957,-34.678864 -61.94202,-46.891806 -3.4263,-1.690336 -6.30713,-3.073716 -6.40358,-3.073716 -0.0954,0 -1.18116,-0.463546 -2.41313,-1.02872 -1.23094,-0.566211 -3.97489,-1.688263 -6.09662,-2.494025 -2.12174,-0.805761 -4.13562,-1.582487 -4.47577,-1.726632 -0.74976,-0.318364 -4.02673,-1.515081 -5.09174,-1.858333 C 248.4341,6.1239863 227.96858,2.8760511 202.38124,3.0036041 c -5.85603,0.029036 -12.24509,0.1721447 -14.19675,0.317327 m 24.75565,61.0522649 c 10.64083,1.022498 17.77031,2.261732 25.24305,4.386579 1.78264,0.507101 3.65756,1.029757 4.16674,1.163532 5.52107,1.440416 19.37561,7.363853 25.08542,10.723787 1.23509,0.726948 2.30218,1.322196 2.37062,1.322196 0.30903,0 7.12223,4.365838 10.0435,6.434686 22.83199,16.179524 39.82558,39.014634 48.15075,64.705674 0.71554,2.20676 1.78055,5.4433 2.36647,7.1917 0.58695,1.74738 1.17805,3.83074 1.31494,4.62924 0.13792,0.79746 0.46562,2.493 0.73006,3.76541 1.43626,6.93039 1.56485,11.52021 1.58663,56.63457 l 0.0166,34.5679 H 202.22673 70.439575 l -0.08088,-31.48174 c -0.07985,-30.92072 0.228143,-51.72844 0.807836,-54.47342 0.160737,-0.76428 0.462509,-2.56974 0.668875,-4.01222 0.422066,-2.95032 0.600433,-3.65444 2.731502,-10.8026 6.393206,-21.44654 14.752594,-36.43246 29.350672,-52.61614 1.94751,-2.15803 3.80169,-4.10762 4.12213,-4.33161 0.3194,-0.22503 1.64368,-1.43834 2.94098,-2.698318 5.69115,-5.525223 16.20442,-13.329808 23.50086,-17.445726 0.59422,-0.334957 1.9133,-1.083682 2.93165,-1.664412 5.08657,-2.897424 14.18742,-6.8889 20.98714,-9.20352 10.92185,-3.716667 18.4143,-5.27945 32.40676,-6.757199 3.53415,-0.373325 18.37904,-0.398214 22.13304,-0.03836"
     stroke="none"
     fill="#434343"
     fill-rule="evenodd"
     style="fill:#ffffff;stroke-width:1.03702" />
  <path
     id="path0-1"
     d="m 188.66833,7.9461107 c -9.476,0.704 -17.809,1.827 -27.232,3.6700003 -4.179,0.817 -4.935,0.985 -8.78,1.951 -1.392,0.35 -2.999,0.748 -3.572,0.885 -3.796,0.905 -12.589,3.626 -16.964,5.249 -7.198,2.67 -8.501,3.178 -8.765,3.415 -0.155,0.14 -0.447,0.255 -0.648,0.255 -0.201,0 -1.38,0.468 -2.62,1.041 -1.24,0.573 -2.331,1.042 -2.423,1.042 -0.721,0 -14.662,7.206 -19.393,10.024 -1.599,0.953 -3.040998,1.786 -3.204998,1.853 -0.163,0.067 -2.408,1.506 -4.987,3.198 -14.15,9.283 -26.01,19.459002 -37.587,32.253002 -2.625,2.9 -8.094,9.706 -10.759,13.386 -3.1,4.283 -8.72,12.844 -8.72,13.285 0,0.091 -0.252,0.52 -0.56,0.954997 -1.235,1.742 -6.483,11.96299 -8.964,17.45699 -1.056,2.337 -3.953,9.921 -5.06,13.244 -0.477,1.431 -1.843,5.811 -2.088,6.696 -0.787,2.839 -2.445,9.422 -2.662,10.566 -0.139,0.736 -0.475,2.477 -0.746,3.869 -0.802,4.115 -1.386,8.243 -2.148,15.178 -0.8420001,7.67 -0.9520001,100.173 -0.124,104.192 0.84,4.077 1.054,4.798 2.064,6.957 3.979,8.502 11.495,14.15 20.997,15.779 4.023,0.69 335.034998,0.69 339.057998,0 12.331,-2.114 20.907,-10.653 23.175,-23.074 0.7,-3.836 0.494,-97.323 -0.229,-103.854 -0.838,-7.573 -1.391,-11.481 -2.146,-15.178 -0.25,-1.228 -0.58,-2.902 -0.732,-3.721 -0.26,-1.401 -1.798,-7.54 -2.797,-11.16 -5.501,-19.942 -20.146,-47.037987 -33.076,-61.192987 -0.166,-0.182 -1.17,-1.32 -2.231,-2.53 -16.42,-18.719 -35.868,-33.441002 -59.731,-45.218002 -3.304,-1.63 -6.082,-2.964 -6.175,-2.964 -0.092,0 -1.139,-0.447 -2.327,-0.992 -1.187,-0.546 -3.833,-1.628 -5.879,-2.405 -2.046,-0.777 -3.988,-1.526 -4.316,-1.665 -0.723,-0.307 -3.883,-1.461 -4.91,-1.792 -24.639,-7.951 -44.374,-11.0830003 -69.048,-10.9600003 -5.647,0.028 -11.808,0.166 -13.69,0.306 m 23.872,58.8730023 c 10.261,0.986 17.136,2.181 24.342,4.23 1.719,0.489 3.527,0.993 4.018,1.122 5.324,1.389 18.684,7.101 24.19,10.341 1.191,0.701 2.22,1.275 2.286,1.275 0.298,0 6.868,4.21 9.685,6.205 22.017,15.601987 38.404,37.621987 46.432,62.395987 0.69,2.128 1.717,5.249 2.282,6.935 0.566,1.685 1.136,3.694 1.268,4.464 0.133,0.769 0.449,2.404 0.704,3.631 1.385,6.683 1.509,11.109 1.53,54.613 l 0.016,33.334 H 202.20933 75.126332 l -0.078,-30.358 c -0.077,-29.817 0.22,-49.882 0.779,-52.529 0.155,-0.737 0.446,-2.478 0.645,-3.869 0.407,-2.845 0.579,-3.524 2.634,-10.417 6.165,-20.681 14.226,-35.132 28.302998,-50.738 1.878,-2.081 3.666,-3.96099 3.975,-4.17699 0.308,-0.217 1.585,-1.387 2.836,-2.602 5.488,-5.327997 15.626,-12.853997 22.662,-16.822997 0.573,-0.323 1.845,-1.045 2.827,-1.605 4.905,-2.794 13.681,-6.643 20.238,-8.875 10.532,-3.584 17.757,-5.091 31.25,-6.516 3.408,-0.36 17.723,-0.384 21.343,-0.037"
     stroke="none"
     fill="#434343"
     fill-rule="evenodd" />
</svg>
