<svg id="svg" version="1.1" xmlns="http://www.w3.org/2000/svg" xmlns:xlink="http://www.w3.org/1999/xlink" width="400" height="297.4003466204506" viewBox="0, 0, 400,297.4003466204506"><g id="svgg"><path id="path0" d="M185.417 6.004 C 175.941 6.708,167.608 7.831,158.185 9.674 C 154.006 10.491,153.250 10.659,149.405 11.625 C 148.013 11.975,146.406 12.373,145.833 12.510 C 142.037 13.415,133.244 16.136,128.869 17.759 C 121.671 20.429,120.368 20.937,120.104 21.174 C 119.949 21.314,119.657 21.429,119.456 21.429 C 119.255 21.429,118.076 21.897,116.836 22.470 C 115.596 23.043,114.505 23.512,114.413 23.512 C 113.692 23.512,99.751 30.718,95.020 33.536 C 93.421 34.489,91.979 35.322,91.815 35.389 C 91.652 35.456,89.407 36.895,86.828 38.587 C 72.678 47.870,60.818 58.046,49.241 70.840 C 46.616 73.740,41.147 80.546,38.482 84.226 C 35.382 88.509,29.762 97.070,29.762 97.511 C 29.762 97.602,29.510 98.031,29.202 98.466 C 27.967 100.208,22.719 110.429,20.238 115.923 C 19.182 118.260,16.285 125.844,15.178 129.167 C 14.701 130.598,13.335 134.978,13.090 135.863 C 12.303 138.702,10.645 145.285,10.428 146.429 C 10.289 147.165,9.953 148.906,9.682 150.298 C 8.880 154.413,8.296 158.541,7.534 165.476 C 6.692 173.146,6.582 265.649,7.410 269.668 C 8.250 273.745,8.464 274.466,9.474 276.625 C 13.453 285.127,20.969 290.775,30.471 292.404 C 34.494 293.094,365.506 293.094,369.529 292.404 C 381.860 290.290,390.436 281.751,392.704 269.330 C 393.404 265.494,393.198 172.007,392.475 165.476 C 391.637 157.903,391.084 153.995,390.329 150.298 C 390.079 149.070,389.749 147.396,389.597 146.577 C 389.337 145.176,387.799 139.037,386.800 135.417 C 381.299 115.475,366.654 88.379,353.724 74.224 C 353.558 74.042,352.554 72.904,351.493 71.694 C 335.073 52.975,315.625 38.253,291.762 26.476 C 288.458 24.846,285.680 23.512,285.587 23.512 C 285.495 23.512,284.448 23.065,283.260 22.520 C 282.073 21.974,279.427 20.892,277.381 20.115 C 275.335 19.338,273.393 18.589,273.065 18.450 C 272.342 18.143,269.182 16.989,268.155 16.658 C 243.516 8.707,223.781 5.575,199.107 5.698 C 193.460 5.726,187.299 5.864,185.417 6.004 M209.289 64.877 C 219.550 65.863,226.425 67.058,233.631 69.107 C 235.350 69.596,237.158 70.100,237.649 70.229 C 242.973 71.618,256.333 77.330,261.839 80.570 C 263.030 81.271,264.059 81.845,264.125 81.845 C 264.423 81.845,270.993 86.055,273.810 88.050 C 295.827 103.652,312.214 125.672,320.242 150.446 C 320.932 152.574,321.959 155.695,322.524 157.381 C 323.090 159.066,323.660 161.075,323.792 161.845 C 323.925 162.614,324.241 164.249,324.496 165.476 C 325.881 172.159,326.005 176.585,326.026 220.089 L 326.042 253.423 198.958 253.423 L 71.875 253.423 71.797 223.065 C 71.720 193.248,72.017 173.183,72.576 170.536 C 72.731 169.799,73.022 168.058,73.221 166.667 C 73.628 163.822,73.800 163.143,75.855 156.250 C 82.020 135.569,90.081 121.118,104.158 105.512 C 106.036 103.431,107.824 101.551,108.133 101.335 C 108.441 101.118,109.718 99.948,110.969 98.733 C 116.457 93.405,126.595 85.879,133.631 81.910 C 134.204 81.587,135.476 80.865,136.458 80.305 C 141.363 77.511,150.139 73.662,156.696 71.430 C 167.228 67.846,174.453 66.339,187.946 64.914 C 191.354 64.554,205.669 64.530,209.289 64.877 " stroke="none" fill="#434343" fill-rule="evenodd"></path><path id="path1" d="M0.000 148.810 L 0.000 297.619 200.000 297.619 L 400.000 297.619 400.000 148.810 L 400.000 0.000 200.000 0.000 L 0.000 0.000 0.000 148.810 M213.690 5.960 C 225.465 6.815,237.661 8.564,247.024 10.742 C 254.081 12.383,260.317 14.129,268.155 16.658 C 269.182 16.989,272.342 18.143,273.065 18.450 C 273.393 18.589,275.335 19.338,277.381 20.115 C 279.427 20.892,282.073 21.974,283.260 22.520 C 284.448 23.065,285.495 23.512,285.587 23.512 C 285.844 23.512,297.487 29.286,299.851 30.585 C 312.465 37.520,326.118 47.082,335.410 55.491 C 341.334 60.851,346.909 66.469,351.493 71.694 C 352.554 72.904,353.558 74.042,353.724 74.224 C 360.677 81.836,370.502 96.925,376.613 109.375 C 381.007 118.326,384.666 127.682,386.800 135.417 C 387.799 139.037,389.337 145.176,389.597 146.577 C 389.749 147.396,390.079 149.070,390.329 150.298 C 391.084 153.995,391.637 157.903,392.475 165.476 C 393.198 172.007,393.404 265.494,392.704 269.330 C 390.436 281.751,381.860 290.290,369.529 292.404 C 365.506 293.094,34.494 293.094,30.471 292.404 C 20.969 290.775,13.453 285.127,9.474 276.625 C 8.464 274.466,8.250 273.745,7.410 269.668 C 6.582 265.649,6.692 173.146,7.534 165.476 C 8.296 158.541,8.880 154.413,9.682 150.298 C 9.953 148.906,10.289 147.165,10.428 146.429 C 10.645 145.285,12.303 138.702,13.090 135.863 C 15.430 127.417,18.819 118.701,23.390 109.375 C 26.018 104.011,28.278 99.770,29.202 98.466 C 29.510 98.031,29.762 97.602,29.762 97.511 C 29.762 97.281,33.537 91.328,35.472 88.507 C 47.190 71.425,61.553 56.725,78.983 43.972 C 81.881 41.852,91.121 35.672,91.815 35.389 C 91.979 35.322,93.421 34.489,95.020 33.536 C 99.751 30.718,113.692 23.512,114.413 23.512 C 114.505 23.512,115.596 23.043,116.836 22.470 C 118.076 21.897,119.255 21.429,119.456 21.429 C 119.657 21.429,119.949 21.314,120.104 21.174 C 120.368 20.937,121.671 20.429,128.869 17.759 C 133.244 16.136,142.037 13.415,145.833 12.510 C 146.406 12.373,148.013 11.975,149.405 11.625 C 158.446 9.353,168.008 7.720,179.018 6.569 C 187.599 5.672,205.413 5.359,213.690 5.960 M187.946 64.914 C 174.453 66.339,167.228 67.846,156.696 71.430 C 150.139 73.662,141.363 77.511,136.458 80.305 C 135.476 80.865,134.204 81.587,133.631 81.910 C 126.595 85.879,116.457 93.405,110.969 98.733 C 109.718 99.948,108.441 101.118,108.133 101.335 C 107.824 101.551,106.036 103.431,104.158 105.512 C 90.081 121.118,82.020 135.569,75.855 156.250 C 73.800 163.143,73.628 163.822,73.221 166.667 C 73.022 168.058,72.731 169.799,72.576 170.536 C 72.017 173.183,71.720 193.248,71.797 223.065 L 71.875 253.423 198.958 253.423 L 326.042 253.423 326.026 220.089 C 326.005 176.585,325.881 172.159,324.496 165.476 C 324.241 164.249,323.925 162.614,323.792 161.845 C 323.660 161.075,323.090 159.066,322.524 157.381 C 321.959 155.695,320.932 152.574,320.242 150.446 C 312.214 125.672,295.827 103.652,273.810 88.050 C 270.993 86.055,264.423 81.845,264.125 81.845 C 264.059 81.845,263.030 81.271,261.839 80.570 C 256.333 77.330,242.973 71.618,237.649 70.229 C 237.158 70.100,235.350 69.596,233.631 69.107 C 226.425 67.058,219.550 65.863,209.289 64.877 C 205.669 64.530,191.354 64.554,187.946 64.914 " stroke="none" fill="#fbfbfb" fill-rule="evenodd"></path></g></svg>