<?xml version="1.0" encoding="UTF-8" standalone="no"?>
<svg
   id="svg"
   version="1.1"
   width="400"
   height="400"
   viewBox="0, 0, 400,400"
   sodipodi:docname="brandmateriel.svg"
   inkscape:version="1.1 (c68e22c387, 2021-05-23)"
   xmlns:inkscape="http://www.inkscape.org/namespaces/inkscape"
   xmlns:sodipodi="http://sodipodi.sourceforge.net/DTD/sodipodi-0.dtd"
   xmlns="http://www.w3.org/2000/svg"
   xmlns:svg="http://www.w3.org/2000/svg">
  <defs
     id="defs8" />
  <sodipodi:namedview
     id="namedview6"
     pagecolor="#ffffff"
     bordercolor="#666666"
     borderopacity="1.0"
     inkscape:pageshadow="2"
     inkscape:pageopacity="0.0"
     inkscape:pagecheckerboard="0"
     showgrid="false"
     inkscape:zoom="0.515"
     inkscape:cx="50.485437"
     inkscape:cy="480.58252"
     inkscape:window-width="1920"
     inkscape:window-height="1009"
     inkscape:window-x="-8"
     inkscape:window-y="-8"
     inkscape:window-maximized="1"
     inkscape:current-layer="svg" />
  <rect
     style="fill:#ffffff;stroke:#000000;stroke-width:0"
     id="rect1334"
     width="400"
     height="400"
     x="-0.18674521"
     y="-0.2360616" />
  <path
     id="path1"
     d="m 24.7245,24.770495 c -0.332,0.4 -0.424,46.402002 -0.349,175.501015 l 0.1,174.958 h 175.4 175.4 v -175.4 -175.400015 l -175.051,-0.1 c -146.875,-0.085 -175.123,-0.014 -175.5,0.441 m 113.551,26.681 c 8.73579,1.16508 17.71906,4.295678 25.2,6.188002 15.1612,4.465269 24.94985,10.248059 37.506,24.714001 13.28176,17.343989 18.4916,40.642812 25.849,57.476002 3.037,6.524 9.26,13.051 15.499,16.256 2.931,1.506 4.142,2.958 2.446,2.934 -0.8,-0.011 -4.807,-1.307 -5.942,-1.921 -7.43988,-3.91401 -14.98143,-9.61631 -18.681,-16.259 -8.41836,-16.56583 -14.13684,-35.23623 -24.392,-49.074003 -4.90422,-7.376629 -6.38193,-7.812548 -11.74981,-13.208325 -13.58235,-11.64882 -22.86901,-12.435509 -34.13519,-13.525675 -12.00319,-0.08143 -19.81879,-0.299291 -33.195,5.688 -1.537,0.959 -1.802,-0.015 -1.246,-4.581 0.409,-3.356 0.738,-7.137 1.205,-13.822002 0.086,-1.226 16.843,-1.896 21.636,-0.865 m 13.2,19.485002 c 7.25319,0.834562 15.46069,2.987505 20.63,6.63 4.163,2.341 12.587,10.038 16.701,15.263 27.21505,39.079113 22.44493,70.187763 65.274,73.662003 0.821,0.821 1.477,2.481 1.174,2.972 -0.308,0.498 -200.454,0.492 -200.762,-0.007 -1.11,-1.795 2.254,-4.271 6.583,-4.845 8.73,-1.158 18.746,-13.615 18.954,-23.574 0.042,-2.016 -0.042,-2.234 -1.054,-2.722 5.230976,-20.36393 5.196199,-20.42997 9.7,-37.718 0,-1.049003 1.734,-2.768003 2.792,-2.768003 0.545,0 3.158,-2.377 7.63,-6.942 5.888,-6.009 8.269,-8.134999 12.178,-10.875 13.97074,-8.309043 24.67302,-10.274469 40.2,-9.076 m 162.565,27.593 c 0.923,3.047003 1.411,4.453003 2.05,5.900003 4.51644,10.96232 9.5584,22.18202 15.341,30.841 3.73,5.394 11.699,12.126 16.583,14.011 2.726,1.051 2.661,0.54 2.661,20.898 0,21.08201 0.034,20.85801 -2.742,18.35001 -11.57327,-8.82571 -20.34987,-17.87184 -28.03,-28.70001 -8.27153,-12.22506 -9.18692,-17.15998 -10.64,-28.2 -0.58823,-9.69658 -0.63878,-18.79812 1.169,-28.286 0.306,-0.943 0.652,-2.744 0.77,-4.004003 0.378,-4.056 1.738,-4.444 2.838,-0.81 m -45.765,13.783003 c 1.43,0.321 2.96,0.772 3.4,1.003 3.95271,1.72376 7.34332,3.93404 9.6,5.462 13.34431,9.73966 16.78221,20.88692 22.276,32.652 4.06731,9.46476 9.69561,19.06761 13.924,26.622 4.527,8.14201 11.441,16.33901 18.056,21.40601 3.67893,3.80284 9.11859,5.96882 12.699,8.924 l 0.895,0.952 c -2.28091,0.97206 -4.92736,0.93459 -7.115,1.496 -2.646,0.689 -9.906,0.792 -12.335,0.174 -10.02121,-0.78516 -18.06039,-5.67499 -26.524,-11.574 -0.365,0 -6.364,-5.974 -8.034,-8 -1.997,-2.425 -5.242,-6.765 -5.242,-7.013 0,-0.15 -0.519,-0.928 -1.153,-1.729 -5.30646,-8.64045 -10.01223,-17.8459 -12.631,-27.06401 -1.97599,-6.96752 -4.1317,-13.98314 -5.614,-20.794 -1.508,-6.966 -5.13,-13.154 -10.948,-18.704 -1.79,-1.707 -3.254,-3.187 -3.254,-3.287 0,-1.41 6.742,-1.705 12,-0.526 m -1.926,62.617 c 3.848,5.876 5.76,8.55401 7.327,10.26101 6.4938,7.82124 13.9114,15.28829 22.103,21.35 8.65444,5.84642 14.75167,11.58535 26.653,16.489 11.52382,4.64541 15.93726,6.5252 23.168,7.035 5.548,0.315 5.075,-1.619 5.075,20.771 0,21.167 0.237,19.861 -3.375,18.606 -3.92081,-1.58426 -8.1306,-2.39657 -12.025,-4.03 -0.44,-0.189 -1.43,-0.518 -2.2,-0.731 -13.80206,-4.76973 -22.80295,-9.20229 -33.606,-17.323 -3.13,-2.361 -12.269,-11.484 -13.994,-13.969 -0.55,-0.793 -1.494,-2.053 -2.098,-2.8 -7.86743,-10.68342 -13.23066,-20.84075 -17.036,-33.359 -0.42,-1.244 -1.112,-4.538 -1.68,-8 -0.535,-3.264 -0.465,-14.76101 0.094,-15.32001 0.613,-0.613 0.46,-0.71 1.594,1.02 m -9.874,4.5 v 5.40001 l -101.576,0.101 c -80.997,0.08 -101.64,-0.001 -101.894,-0.4 -0.527,-0.831 -0.397,-9.67401 0.151,-10.22201 0.372,-0.372 23.348,-0.458 101.9,-0.38 l 101.419,0.101 v 5.4 m 9.662,61.80001 c 13.73005,2.43078 21.00673,7.60155 32.44935,20.87463 15.69678,17.79332 36.94039,18.47717 51.06765,28.19737 -2.08984,3.19986 -7.01723,5.63388 -11.379,7.631 -10.74768,4.43516 -22.94153,4.5804 -34.369,1.458 -13.81544,-4.65855 -21.13032,-12.28311 -29.599,-21.707 -9.85329,-15.4866 -25.50706,-20.25061 -38.158,-28.228 -0.18,-0.176 0.54,-0.823 1.6,-1.439 9.50711,-5.49582 18.0519,-8.54786 28.388,-6.787 m 2.299,53.8 c 9.6132,8.66209 22.29139,14.92984 35.239,17.258 10.02839,1.6364 21.39414,3.25737 31.4,1.165 4.18284,-1.09973 8.41625,-1.58778 12.628,-2.848 1.873,-0.571 2.456,-0.459 2.72,0.525 0.412,1.539 0.284,35.363 -0.138,36.474 l -0.39,1.026 c -15.69133,0.13626 -32.83994,-0.19914 -46.42,-4.815 -7.487,-2.583 -16.785,-8.388 -20.612,-12.87 -2.761,-3.233 -4.769,-5.885 -6.45,-8.515 -5.27199,-6.99165 -10.77403,-21.8932 -11.338,-29.451 0,-0.222 0.556,0.014 1.235,0.524"
     stroke="none"
     fill="#e40404"
     fill-rule="evenodd"
     sodipodi:nodetypes="ccccccccccccccccccccccccccccccccccscccccccsccccccccccccccccccsccccsccccccsccccccccscccccscccccccccccccccccccccccc" />
</svg>
