<?xml version="1.0" encoding="UTF-8" standalone="no"?>
<svg
   id="svg"
   version="1.1"
   width="400"
   height="400"
   viewBox="0, 0, 400,400"
   sodipodi:docname="brandstation2.svg"
   inkscape:version="1.4.2 (ebf0e940d0, 2025-05-08)"
   xmlns:inkscape="http://www.inkscape.org/namespaces/inkscape"
   xmlns:sodipodi="http://sodipodi.sourceforge.net/DTD/sodipodi-0.dtd"
   xmlns="http://www.w3.org/2000/svg"
   xmlns:svg="http://www.w3.org/2000/svg">
  <defs
     id="defs11" />
  <sodipodi:namedview
     id="namedview9"
     pagecolor="#ffffff"
     bordercolor="#666666"
     borderopacity="1.0"
     inkscape:pageshadow="2"
     inkscape:pageopacity="0.0"
     inkscape:pagecheckerboard="0"
     showgrid="false"
     inkscape:zoom="0.36415999"
     inkscape:cx="630.2175"
     inkscape:cy="605.50309"
     inkscape:window-width="1918"
     inkscape:window-height="1007"
     inkscape:window-x="0"
     inkscape:window-y="0"
     inkscape:window-maximized="1"
     inkscape:current-layer="svg"
     inkscape:showpageshadow="2"
     inkscape:deskcolor="#d1d1d1" />
  <path
     id="path2"
     d="M 113.239,34.079 C 65.704,52.616 25.948,68.205 24.893,68.721 12.457,74.811 3.098,87.415 0.852,101.098 c -0.857,5.218 -0.631,259.908 0.234,263.432 4,16.305 15.123,28.575 30.304,33.43 6.883,2.201 -6.652,2.037 168.777,2.037 175.428,0 161.893,0.164 168.776,-2.037 15.835,-5.064 27.909,-19.03 30.555,-35.345 0.79,-4.873 0.756,-257.104 -0.036,-261.724 C 397.141,87.347 388.008,75.02 375.801,68.958 372.98,67.557 200.718,0.317 200.047,0.355 199.838,0.366 160.774,15.542 113.239,34.079"
     stroke="none"
     fill="#f44434"
     fill-rule="evenodd"
     sodipodi:nodetypes="cccccscccccc" />
  <path
     style="fill:none;stroke:#545454;stroke-width:10;stroke-linecap:round;stroke-linejoin:miter;stroke-miterlimit:4;stroke-dasharray:none;stroke-opacity:1"
     d="m 98.008229,344.66022 c 204.368941,0 204.368941,0 204.368941,0"
     id="path1049-2" />
  <path
     style="fill:none;stroke:#565656;stroke-width:10;stroke-linecap:round;stroke-linejoin:miter;stroke-miterlimit:4;stroke-dasharray:none;stroke-opacity:1"
     d="m 98.008234,297.89902 c 204.368936,0 204.368936,0 204.368936,0"
     id="path1049-7" />
  <path
     style="fill:none;stroke:#575757;stroke-width:14;stroke-linecap:round;stroke-linejoin:round;stroke-miterlimit:4;stroke-dasharray:none;stroke-opacity:1"
     d="M 54.989128,385.50542 V 124.84204 H 345.39627 V 388.7502"
     id="path1045" />
  <path
     style="fill:none;stroke:#5c5c5c;stroke-width:10;stroke-linecap:round;stroke-linejoin:miter;stroke-miterlimit:4;stroke-dasharray:none;stroke-opacity:1"
     d="m 98.008232,251.1378 c 204.368938,0 204.368938,0 204.368938,0"
     id="path1049" />
  <rect
     style="fill:#ffffff;stroke:#6a6a6a;stroke-width:10;stroke-linecap:round;stroke-linejoin:miter;stroke-miterlimit:4;stroke-dasharray:none;stroke-opacity:1"
     id="rect1375"
     width="203.70374"
     height="33.988544"
     x="98.340836"
     y="170.38808"
     ry="16.994272" />
</svg>
