<?xml version="1.0" encoding="UTF-8" standalone="no"?>
<svg
   id="svg"
   version="1.1"
   width="242.52728"
   height="446.92313"
   viewBox="0 0 242.52728 446.92313"
   sodipodi:docname="brandhane2.svg"
   inkscape:version="1.1 (c68e22c387, 2021-05-23)"
   xmlns:inkscape="http://www.inkscape.org/namespaces/inkscape"
   xmlns:sodipodi="http://sodipodi.sourceforge.net/DTD/sodipodi-0.dtd"
   xmlns="http://www.w3.org/2000/svg"
   xmlns:svg="http://www.w3.org/2000/svg">
  <defs
     id="defs8" />
  <sodipodi:namedview
     id="namedview6"
     pagecolor="#ffffff"
     bordercolor="#666666"
     borderopacity="1.0"
     inkscape:pageshadow="2"
     inkscape:pageopacity="0.0"
     inkscape:pagecheckerboard="0"
     showgrid="false"
     inkscape:zoom="0.33818621"
     inkscape:cx="283.86728"
     inkscape:cy="196.63723"
     inkscape:window-width="1920"
     inkscape:window-height="1009"
     inkscape:window-x="-8"
     inkscape:window-y="-8"
     inkscape:window-maximized="1"
     inkscape:current-layer="svg"
     fit-margin-top="10"
     fit-margin-left="10"
     fit-margin-right="10"
     fit-margin-bottom="10"
     lock-margins="true" />
  <path
     id="path0"
     d="m 102.2002,20.186135 c -0.148,0.149 -0.27,5.057 -0.27,10.907 v 10.638 l -2.9,0.929 c -28.719,9.206 -50.300001,37.844 -50.300001,66.748005 0,2.583 1.051,2.229 -7.4,2.492 l -7.2,0.223 v 19.4 19.4 l 7.2,0.2 7.2,0.2 0.104,16.307 0.105,16.306 -0.905,0.364 c -0.497,0.2 -3.154,0.752 -5.904,1.227 -2.75,0.474 -6.26,1.11 -7.8,1.412 -1.54,0.302 -5.14,0.951 -8,1.441 -2.86,0.49 -5.426,1.061 -5.702,1.268 -0.398,0.298 -0.481,8.395 -0.4,39.021 l 0.102,38.645 2.4,0.486 c 3.127,0.633 22.355,4.12 24.306,4.408 2.067,0.305 1.926,-3.951 1.804,54.115 l -0.11,52.2 -9.6,0.2 -9.6,0.2 v 24 24 h 92.000001 92 v -24 -24 l -9.6,-0.2 -9.6,-0.2 -0.101,-52.892 -0.102,-52.892 0.902,-0.201 c 1.068,-0.238 5.545,-1.069 11.901,-2.211 2.53,-0.455 6.04,-1.09 7.8,-1.411 1.76,-0.321 3.962,-0.698 4.892,-0.838 0.931,-0.14 1.856,-0.457 2.055,-0.705 0.432,-0.538 1.365,-77.515 0.943,-77.883 -0.159,-0.139 -1.46,-0.45 -2.89,-0.69 -2.364,-0.397 -5.922,-1.03 -15,-2.668 -8.03,-1.449 -9.891,-1.818 -10.233,-2.029 -0.213,-0.132 -0.367,-7.099 -0.367,-16.595 v -16.367 l 7.3,-0.109 7.3,-0.109 v -19.4 -19.4 l -7.2,-0.2 -7.2,-0.2 -0.298,-4.8 c -1.474,-23.771005 -15.093,-45.727005 -35.902,-57.879005 -4.951,-2.891 -9.058,-4.752 -13.894,-6.294 l -2.893,-0.923 -0.107,-10.852 -0.106,-10.852 -19.23,-0.104 c -10.576,-0.057 -19.351,0.018 -19.5,0.167"
     stroke="none"
     fill="#ac0404"
     fill-rule="evenodd"
     style="fill:#d40000;stroke:#ffffff;stroke-width:20;stroke-miterlimit:4;stroke-dasharray:none;stroke-opacity:1" />
</svg>
