<svg id="svg" version="1.1" xmlns="http://www.w3.org/2000/svg" xmlns:xlink="http://www.w3.org/1999/xlink" width="400" height="400" viewBox="0, 0, 400,400"><g id="svgg"><path id="path0" d="M199.834 80.167 C 192.263 117.981,181.049 147.833,168.965 162.343 L 167.042 164.652 166.818 163.508 C 166.694 162.879,166.433 160.754,166.237 158.785 C 165.292 149.278,161.697 138.317,156.706 129.725 C 154.483 125.898,150.613 120.384,150.340 120.656 C 150.253 120.743,149.673 122.744,149.050 125.103 C 144.704 141.559,138.195 156.377,121.420 188.010 C 99.934 228.524,97.315 239.036,102.458 264.113 C 120.383 351.523,237.710 372.197,285.037 296.284 C 308.253 259.047,304.188 201.188,275.041 153.999 L 273.577 151.629 272.973 154.998 C 269.080 176.716,259.901 197.694,249.553 208.526 C 246.556 211.663,246.578 211.666,247.598 208.258 C 257.903 173.827,251.904 138.380,230.776 108.865 C 223.194 98.273,208.810 83.675,201.219 78.869 L 200.220 78.237 199.834 80.167 M206.081 223.064 C 228.716 269.033,235.872 290.619,232.552 302.922 C 223.571 336.206,176.762 336.206,167.781 302.922 C 165.201 293.363,168.138 281.281,179.438 254.954 C 185.017 241.957,199.547 211.490,200.167 211.490 C 200.285 211.490,202.946 216.699,206.081 223.064 " stroke="none" fill="#fcc304" fill-rule="evenodd"></path><path id="path1" d="M194.088 223.730 C 172.219 268.160,165.090 289.240,167.700 301.760 C 174.408 333.936,220.714 336.950,231.480 305.912 C 235.401 294.608,233.181 284.001,220.886 255.287 C 215.524 242.764,200.774 211.823,200.167 211.823 C 200.047 211.823,197.311 217.182,194.088 223.730 " stroke="none" fill="#fcfcc4" fill-rule="evenodd"></path><path id="path2" d="M113.239 34.079 C 65.704 52.616,25.948 68.205,24.893 68.721 C 12.457 74.811,3.098 87.415,0.852 101.098 C -0.005 106.316,0.221 361.006,1.086 364.530 C 5.086 380.835,16.209 393.105,31.390 397.960 C 38.273 400.161,24.738 399.997,200.167 399.997 C 375.595 399.997,362.060 400.161,368.943 397.960 C 384.778 392.896,396.852 378.930,399.498 362.615 C 400.288 357.742,400.254 105.511,399.462 100.891 C 397.141 87.347,388.008 75.020,375.801 68.958 C 372.980 67.557,200.718 0.317,200.047 0.355 C 199.838 0.366,160.774 15.542,113.239 34.079 M207.993 83.978 C 245.689 115.334,260.832 161.711,248.134 206.914 C 246.916 211.249,246.921 211.130,248.006 210.133 C 258.117 200.846,268.901 177.074,272.624 155.870 C 273.507 150.843,273.291 150.823,276.503 156.229 C 300.223 196.159,306.874 245.613,293.186 280.266 C 280.275 312.954,251.434 336.311,216.909 342.039 C 157.002 351.979,102.260 307.474,100.354 247.281 C 99.858 231.629,103.785 220.625,122.044 186.511 C 137.101 158.378,144.701 141.039,148.710 125.671 C 149.371 123.138,149.986 120.847,150.076 120.581 C 150.465 119.432,155.890 127.539,159.076 134.028 C 163.505 143.052,166.861 155.646,166.861 163.241 L 166.861 164.583 168.536 162.641 C 179.936 149.422,191.266 120.250,198.652 85.096 C 199.307 81.982,199.918 79.097,200.010 78.685 C 200.209 77.803,201.991 78.985,207.993 83.978 " stroke="none" fill="#f44434" fill-rule="evenodd"></path><path id="path3" d="M216.320 91.923 C 218.328 93.938,220.047 95.587,220.139 95.587 C 220.230 95.587,218.662 93.938,216.653 91.923 C 214.644 89.908,212.926 88.260,212.834 88.260 C 212.742 88.260,214.311 89.908,216.320 91.923 M166.612 162.032 C 166.616 162.764,166.684 163.025,166.763 162.611 C 166.843 162.196,166.840 161.597,166.757 161.278 C 166.673 160.960,166.608 161.299,166.612 162.032 M252.586 174.355 C 252.586 176.736,252.639 177.667,252.704 176.422 C 252.768 175.178,252.767 173.230,252.703 172.093 C 252.638 170.955,252.585 171.973,252.586 174.355 M252.207 183.014 C 252.211 183.747,252.279 184.007,252.359 183.593 C 252.438 183.179,252.435 182.579,252.352 182.261 C 252.269 181.942,252.204 182.281,252.207 183.014 M299.501 229.642 C 299.505 230.375,299.573 230.635,299.653 230.221 C 299.732 229.807,299.729 229.207,299.646 228.889 C 299.563 228.570,299.497 228.909,299.501 229.642 M299.857 235.803 C 299.857 236.994,299.917 237.481,299.991 236.886 C 300.065 236.291,300.065 235.316,299.991 234.721 C 299.917 234.126,299.857 234.613,299.857 235.803 M100.345 248.959 C 100.348 249.875,100.412 250.210,100.489 249.704 C 100.565 249.198,100.563 248.448,100.484 248.039 C 100.405 247.629,100.343 248.043,100.345 248.959 M299.845 248.959 C 299.848 249.875,299.913 250.210,299.989 249.704 C 300.066 249.198,300.064 248.448,299.985 248.039 C 299.906 247.629,299.843 248.043,299.845 248.959 M129.226 314.238 C 130.406 315.429,131.446 316.403,131.538 316.403 C 131.629 316.403,130.739 315.429,129.559 314.238 C 128.379 313.047,127.338 312.073,127.247 312.073 C 127.155 312.073,128.046 313.047,129.226 314.238 M270.765 314.321 L 268.609 316.570 270.858 314.414 C 272.094 313.229,273.106 312.217,273.106 312.166 C 273.106 311.921,272.767 312.233,270.765 314.321 M194.259 343.286 C 194.766 343.363,195.515 343.361,195.925 343.282 C 196.334 343.203,195.920 343.140,195.004 343.143 C 194.088 343.145,193.753 343.210,194.259 343.286 M204.584 343.286 C 205.090 343.363,205.840 343.361,206.249 343.282 C 206.659 343.203,206.245 343.140,205.329 343.143 C 204.413 343.145,204.078 343.210,204.584 343.286 " stroke="none" fill="#fc811f" fill-rule="evenodd"></path><path id="path4" d="M199.417 327.962 C 199.829 328.041,200.504 328.041,200.916 327.962 C 201.328 327.883,200.991 327.818,200.167 327.818 C 199.342 327.818,199.005 327.883,199.417 327.962 " stroke="none" fill="#fce16c" fill-rule="evenodd"></path></g></svg>