<svg id="svg" version="1.1" xmlns="http://www.w3.org/2000/svg" xmlns:xlink="http://www.w3.org/1999/xlink" width="400" height="400" viewBox="0, 0, 400,400"><g id="svgg"><path id="path0" d="M125.900 165.032 C 85.090 235.994,51.671 294.177,51.635 294.327 C 51.581 294.558,74.668 294.600,199.985 294.600 C 288.344 294.600,348.400 294.527,348.400 294.419 C 348.400 294.320,338.938 277.737,327.372 257.569 C 315.807 237.401,306.224 220.675,306.078 220.400 C 304.474 217.395,200.447 36.117,200.300 36.071 C 200.190 36.037,166.710 94.069,125.900 165.032 " stroke="none" fill="#1c2c73" fill-rule="evenodd"></path><path id="path1" d="M187.500 2.719 C 186.866 2.905,185.145 3.051,182.800 3.121 C 180.440 3.190,178.781 3.332,178.219 3.513 C 177.734 3.669,176.204 3.855,174.819 3.926 C 173.433 3.997,172.075 4.165,171.800 4.300 C 171.525 4.434,170.641 4.603,169.835 4.675 C 169.029 4.747,168.129 4.928,167.835 5.078 C 167.531 5.232,166.393 5.390,165.200 5.442 C 163.782 5.504,162.892 5.642,162.460 5.867 C 162.108 6.050,161.414 6.200,160.917 6.200 C 160.421 6.200,159.558 6.380,159.000 6.600 C 158.442 6.820,157.516 7.001,156.943 7.001 C 156.239 7.002,155.705 7.132,155.300 7.400 C 154.968 7.620,154.362 7.798,153.942 7.799 C 153.525 7.799,152.831 7.980,152.400 8.200 C 151.969 8.420,151.252 8.600,150.807 8.600 C 150.362 8.600,149.663 8.780,149.252 9.000 C 148.842 9.220,148.190 9.403,147.803 9.407 C 147.416 9.411,146.740 9.587,146.300 9.800 C 145.860 10.013,145.207 10.189,144.849 10.193 C 144.491 10.197,143.863 10.380,143.452 10.600 C 143.042 10.820,142.502 11.000,142.252 11.000 C 142.003 11.000,141.463 11.180,141.052 11.400 C 140.642 11.620,139.987 11.800,139.597 11.800 C 139.208 11.800,138.708 11.927,138.487 12.081 C 138.266 12.236,137.664 12.426,137.149 12.503 C 136.634 12.580,136.109 12.769,135.982 12.922 C 135.855 13.075,135.556 13.200,135.318 13.200 C 135.080 13.200,134.551 13.370,134.143 13.578 C 133.735 13.786,133.153 14.018,132.850 14.094 C 132.548 14.169,132.165 14.347,132.000 14.489 C 131.835 14.630,131.351 14.799,130.925 14.864 C 130.499 14.930,129.997 15.122,129.809 15.291 C 129.622 15.461,129.251 15.601,128.984 15.601 C 128.718 15.602,128.230 15.781,127.900 16.000 C 127.570 16.219,127.065 16.398,126.777 16.399 C 126.489 16.399,126.025 16.580,125.745 16.800 C 125.466 17.020,125.089 17.200,124.908 17.200 C 124.727 17.200,124.224 17.380,123.790 17.600 C 123.355 17.820,122.645 18.180,122.210 18.400 C 121.776 18.620,121.243 18.800,121.025 18.800 C 120.807 18.800,120.498 18.931,120.338 19.090 C 120.179 19.250,119.790 19.442,119.474 19.517 C 119.158 19.592,118.765 19.770,118.600 19.911 C 118.435 20.053,118.056 20.230,117.758 20.304 C 117.460 20.378,117.112 20.565,116.984 20.720 C 116.856 20.874,116.594 21.000,116.402 21.000 C 116.211 21.000,115.839 21.168,115.577 21.374 C 115.315 21.580,114.785 21.815,114.400 21.896 C 114.015 21.978,113.565 22.159,113.400 22.299 C 113.235 22.438,112.888 22.617,112.629 22.696 C 112.371 22.775,111.838 23.058,111.445 23.324 C 110.819 23.749,108.862 24.744,108.000 25.076 C 107.835 25.140,107.340 25.419,106.900 25.697 C 106.460 25.975,105.823 26.332,105.484 26.490 C 105.145 26.648,104.752 26.917,104.610 27.088 C 104.467 27.260,104.187 27.400,103.987 27.400 C 103.787 27.400,103.562 27.499,103.487 27.620 C 103.412 27.742,103.070 27.970,102.726 28.129 C 102.382 28.287,101.740 28.633,101.300 28.898 C 100.860 29.163,100.315 29.465,100.090 29.570 C 99.864 29.674,99.279 30.028,98.790 30.356 C 98.300 30.683,97.383 31.225,96.752 31.559 C 96.121 31.894,95.388 32.333,95.125 32.534 C 94.688 32.867,93.859 33.401,92.069 34.500 C 91.710 34.720,90.986 35.193,90.459 35.551 C 89.931 35.910,89.334 36.315,89.131 36.451 C 88.929 36.588,88.484 36.902,88.142 37.150 C 87.801 37.397,87.450 37.600,87.361 37.600 C 87.273 37.600,87.029 37.758,86.821 37.950 C 86.291 38.439,85.520 39.055,85.076 39.344 C 84.869 39.478,84.250 39.904,83.700 40.291 C 83.150 40.677,82.246 41.306,81.691 41.688 C 81.137 42.071,80.372 42.691,79.991 43.066 C 79.611 43.441,78.794 44.097,78.176 44.524 C 77.557 44.951,76.657 45.636,76.176 46.046 C 75.694 46.457,74.797 47.177,74.182 47.646 C 73.071 48.495,72.058 49.381,67.617 53.394 C 64.543 56.172,55.335 65.384,53.118 67.900 C 52.149 69.000,50.713 70.607,49.928 71.472 C 49.143 72.337,48.248 73.417,47.940 73.872 C 47.431 74.624,46.559 75.660,44.800 77.600 C 44.451 77.985,44.038 78.543,43.883 78.839 C 43.728 79.136,43.367 79.631,43.081 79.939 C 42.541 80.522,41.400 82.141,41.400 82.325 C 41.400 82.383,41.127 82.704,40.792 83.038 C 40.458 83.373,40.017 83.973,39.813 84.373 C 39.608 84.773,39.229 85.333,38.971 85.618 C 38.289 86.368,37.600 87.353,37.600 87.578 C 37.600 87.684,37.452 87.919,37.271 88.100 C 36.898 88.474,36.000 89.763,36.000 89.925 C 36.000 89.984,35.690 90.411,35.312 90.873 C 34.933 91.335,34.528 91.935,34.411 92.206 C 34.294 92.478,33.890 93.105,33.512 93.600 C 33.135 94.095,32.821 94.601,32.813 94.726 C 32.806 94.850,32.656 95.071,32.479 95.217 C 32.303 95.364,32.073 95.667,31.969 95.892 C 31.865 96.116,31.560 96.660,31.291 97.100 C 31.023 97.540,30.664 98.170,30.495 98.500 C 30.326 98.830,29.789 99.730,29.303 100.500 C 28.817 101.270,28.279 102.170,28.108 102.500 C 27.937 102.830,27.581 103.460,27.317 103.900 C 27.053 104.340,26.508 105.330,26.105 106.100 C 25.192 107.845,24.941 108.286,24.667 108.629 C 24.547 108.778,24.381 109.125,24.297 109.400 C 24.213 109.675,23.977 110.115,23.772 110.377 C 23.568 110.639,23.400 111.011,23.400 111.202 C 23.400 111.394,23.267 111.661,23.105 111.796 C 22.943 111.930,22.753 112.347,22.683 112.722 C 22.612 113.097,22.480 113.450,22.389 113.507 C 22.298 113.563,21.902 114.277,21.509 115.094 C 21.116 115.911,20.716 116.628,20.620 116.688 C 20.524 116.747,20.388 117.103,20.317 117.478 C 20.247 117.853,20.066 118.262,19.916 118.387 C 19.765 118.512,19.585 118.917,19.516 119.287 C 19.446 119.657,19.266 120.062,19.116 120.187 C 18.965 120.312,18.785 120.717,18.716 121.087 C 18.646 121.457,18.457 121.870,18.295 122.004 C 18.133 122.139,17.999 122.440,17.999 122.674 C 17.998 122.909,17.819 123.370,17.600 123.700 C 17.381 124.030,17.201 124.525,17.200 124.800 C 17.199 125.075,17.019 125.570,16.800 125.900 C 16.581 126.230,16.402 126.734,16.401 127.019 C 16.401 127.305,16.220 127.746,16.000 128.000 C 15.780 128.254,15.600 128.706,15.600 129.006 C 15.600 129.306,15.471 129.658,15.313 129.789 C 15.155 129.920,14.965 130.314,14.891 130.664 C 14.817 131.014,14.587 131.581,14.378 131.924 C 14.170 132.267,14.000 132.720,14.000 132.931 C 14.000 133.143,13.820 133.668,13.600 134.100 C 13.380 134.532,13.200 135.094,13.200 135.349 C 13.200 135.605,13.074 136.013,12.920 136.257 C 12.765 136.501,12.577 137.015,12.500 137.400 C 12.423 137.785,12.235 138.299,12.080 138.543 C 11.926 138.787,11.800 139.193,11.800 139.446 C 11.800 139.699,11.634 140.220,11.431 140.603 C 11.228 140.986,11.003 141.734,10.933 142.263 C 10.862 142.793,10.668 143.421,10.502 143.658 C 10.336 143.895,10.200 144.433,10.200 144.852 C 10.200 145.272,10.020 145.969,9.800 146.400 C 9.580 146.831,9.400 147.436,9.400 147.745 C 9.400 148.054,9.220 148.642,9.000 149.052 C 8.780 149.463,8.600 150.162,8.600 150.607 C 8.600 151.052,8.420 151.769,8.200 152.200 C 7.980 152.631,7.799 153.370,7.799 153.842 C 7.798 154.314,7.654 154.970,7.477 155.300 C 7.301 155.630,7.112 156.485,7.056 157.200 C 7.001 157.915,6.817 158.720,6.648 158.988 C 6.479 159.256,6.298 160.111,6.244 160.888 C 6.191 161.665,6.012 162.567,5.846 162.893 C 5.676 163.229,5.502 164.272,5.446 165.293 C 5.392 166.287,5.224 167.345,5.072 167.643 C 4.921 167.942,4.744 169.022,4.680 170.043 C 4.617 171.065,4.445 172.305,4.300 172.800 C 4.154 173.295,3.988 174.780,3.929 176.100 C 3.869 177.471,3.701 178.800,3.538 179.200 C 3.345 179.673,3.211 181.132,3.125 183.700 C 3.056 185.790,2.864 188.355,2.701 189.400 C 2.275 192.116,2.281 207.776,2.708 210.100 C 2.884 211.052,3.050 213.645,3.118 216.500 C 3.199 219.865,3.320 221.569,3.523 222.200 C 3.682 222.695,3.863 224.090,3.924 225.300 C 3.985 226.510,4.155 227.905,4.300 228.400 C 4.446 228.895,4.620 230.187,4.688 231.271 C 4.757 232.375,4.940 233.491,5.105 233.811 C 5.267 234.124,5.404 234.902,5.409 235.540 C 5.414 236.178,5.558 237.060,5.730 237.500 C 5.903 237.940,6.114 238.991,6.201 239.836 C 6.287 240.681,6.502 241.579,6.679 241.831 C 6.856 242.083,7.003 242.696,7.007 243.195 C 7.011 243.693,7.187 244.460,7.400 244.900 C 7.615 245.346,7.791 246.143,7.798 246.700 C 7.804 247.250,7.987 248.092,8.204 248.572 C 8.422 249.051,8.600 249.784,8.600 250.200 C 8.600 250.616,8.778 251.349,8.996 251.828 C 9.213 252.308,9.393 253.071,9.396 253.526 C 9.398 254.004,9.524 254.454,9.695 254.596 C 9.857 254.730,10.042 255.169,10.107 255.570 C 10.172 255.972,10.399 256.670,10.613 257.122 C 10.826 257.574,11.000 258.185,11.000 258.479 C 11.000 258.773,11.134 259.219,11.299 259.470 C 11.463 259.721,11.654 260.370,11.723 260.913 C 11.792 261.456,11.959 262.080,12.094 262.300 C 12.229 262.520,12.406 263.055,12.486 263.490 C 12.567 263.924,12.761 264.462,12.917 264.684 C 13.072 264.907,13.200 265.273,13.200 265.497 C 13.200 265.722,13.366 266.220,13.569 266.603 C 13.772 266.986,14.004 267.570,14.085 267.900 C 14.165 268.230,14.347 268.635,14.489 268.800 C 14.630 268.965,14.799 269.449,14.864 269.875 C 14.930 270.301,15.122 270.803,15.291 270.991 C 15.461 271.178,15.600 271.539,15.600 271.792 C 15.600 272.045,15.770 272.533,15.978 272.876 C 16.187 273.219,16.417 273.786,16.491 274.136 C 16.565 274.486,16.755 274.880,16.913 275.011 C 17.071 275.142,17.200 275.497,17.200 275.800 C 17.200 276.103,17.329 276.458,17.487 276.589 C 17.645 276.720,17.835 277.114,17.909 277.464 C 17.983 277.814,18.213 278.381,18.422 278.724 C 18.630 279.067,18.800 279.525,18.800 279.743 C 18.800 279.960,18.980 280.301,19.200 280.500 C 19.420 280.699,19.600 281.062,19.600 281.307 C 19.600 281.551,19.729 281.858,19.887 281.989 C 20.045 282.120,20.235 282.514,20.309 282.864 C 20.384 283.214,20.559 283.635,20.700 283.800 C 20.841 283.965,21.016 284.386,21.091 284.736 C 21.165 285.086,21.355 285.480,21.513 285.611 C 21.671 285.742,21.800 285.957,21.800 286.089 C 21.800 286.221,22.171 287.043,22.625 287.915 C 26.638 295.630,26.587 295.535,27.052 296.195 C 27.243 296.466,27.400 296.835,27.400 297.014 C 27.400 297.192,27.580 297.501,27.800 297.700 C 28.020 297.899,28.200 298.184,28.200 298.333 C 28.200 298.482,28.495 299.031,28.855 299.552 C 29.215 300.073,29.626 300.725,29.768 301.000 C 30.451 302.319,31.335 303.733,31.747 304.164 C 31.886 304.310,32.000 304.528,32.000 304.649 C 32.000 304.770,32.150 305.034,32.332 305.236 C 32.674 305.613,32.953 306.055,33.508 307.100 C 33.821 307.687,34.086 308.130,35.300 310.088 C 35.630 310.620,36.215 311.470,36.601 311.978 C 36.987 312.485,37.572 313.305,37.901 313.800 C 38.230 314.295,38.599 314.790,38.719 314.900 C 38.840 315.010,39.152 315.460,39.413 315.900 C 39.869 316.669,44.635 322.809,46.115 324.535 C 46.510 324.995,47.188 325.850,47.623 326.435 C 48.503 327.620,49.690 329.062,50.300 329.689 C 50.815 330.218,52.123 331.723,52.935 332.720 C 54.878 335.109,64.742 344.976,67.200 346.991 C 68.259 347.859,71.036 350.335,72.594 351.800 C 72.770 351.965,73.414 352.475,74.026 352.933 C 74.638 353.391,75.670 354.235,76.319 354.807 C 76.969 355.379,77.829 356.057,78.231 356.314 C 78.633 356.571,79.353 357.147,79.831 357.595 C 80.309 358.043,81.150 358.724,81.700 359.108 C 82.250 359.493,83.150 360.123,83.700 360.509 C 84.250 360.896,84.864 361.322,85.065 361.456 C 85.266 361.590,85.875 362.032,86.419 362.438 C 86.963 362.843,87.586 363.232,87.804 363.301 C 88.022 363.370,88.200 363.513,88.200 363.618 C 88.200 363.724,88.405 363.888,88.657 363.983 C 88.908 364.079,89.520 364.467,90.016 364.847 C 90.513 365.226,91.365 365.795,91.910 366.112 C 92.454 366.429,92.990 366.761,93.100 366.850 C 93.444 367.127,95.186 368.282,95.891 368.700 C 98.021 369.965,98.816 370.400,98.997 370.400 C 99.109 370.400,99.200 370.492,99.200 370.604 C 99.200 370.717,99.448 370.917,99.750 371.050 C 100.053 371.182,100.727 371.585,101.248 371.945 C 101.769 372.305,102.318 372.600,102.467 372.600 C 102.617 372.600,102.946 372.780,103.200 373.000 C 103.454 373.220,103.813 373.400,104.000 373.400 C 104.186 373.400,104.501 373.580,104.700 373.800 C 104.899 374.020,105.214 374.200,105.400 374.200 C 105.587 374.200,105.946 374.380,106.200 374.600 C 106.454 374.820,106.813 375.000,107.000 375.000 C 107.186 375.000,107.501 375.180,107.700 375.400 C 107.899 375.620,108.216 375.800,108.404 375.800 C 108.592 375.800,108.975 375.980,109.255 376.200 C 109.534 376.420,109.894 376.600,110.055 376.600 C 110.215 376.600,110.575 376.780,110.855 377.000 C 111.134 377.220,111.470 377.400,111.600 377.400 C 111.730 377.400,112.066 377.580,112.345 377.800 C 112.625 378.020,113.011 378.200,113.202 378.200 C 113.394 378.200,113.661 378.333,113.796 378.495 C 113.930 378.657,114.343 378.846,114.713 378.916 C 115.083 378.985,115.485 379.162,115.607 379.308 C 115.728 379.454,116.085 379.631,116.400 379.700 C 116.715 379.769,117.080 379.955,117.211 380.113 C 117.342 380.271,117.606 380.400,117.798 380.400 C 117.989 380.400,118.375 380.580,118.655 380.800 C 118.934 381.020,119.315 381.200,119.500 381.200 C 119.685 381.200,120.066 381.380,120.345 381.600 C 120.625 381.820,120.999 382.001,121.177 382.001 C 121.355 382.002,121.770 382.181,122.100 382.400 C 122.430 382.619,122.880 382.799,123.100 382.800 C 123.320 382.801,123.770 382.981,124.100 383.200 C 124.430 383.419,124.873 383.598,125.084 383.599 C 125.296 383.599,125.622 383.739,125.809 383.909 C 125.997 384.078,126.499 384.272,126.925 384.339 C 127.351 384.406,127.915 384.627,128.177 384.831 C 128.439 385.034,128.889 385.201,129.177 385.201 C 129.465 385.202,129.970 385.381,130.300 385.600 C 130.630 385.819,131.103 385.998,131.351 385.999 C 131.599 385.999,132.137 386.180,132.548 386.400 C 132.958 386.620,133.487 386.800,133.723 386.800 C 133.958 386.800,134.255 386.925,134.382 387.078 C 134.509 387.231,135.008 387.416,135.490 387.488 C 135.973 387.560,136.466 387.739,136.587 387.884 C 136.708 388.030,137.246 388.208,137.782 388.279 C 138.319 388.350,138.859 388.530,138.982 388.679 C 139.106 388.828,139.646 389.008,140.182 389.079 C 140.719 389.150,141.268 389.341,141.403 389.504 C 141.544 389.673,141.985 389.800,142.432 389.800 C 142.863 389.800,143.569 389.980,144.000 390.200 C 144.431 390.420,145.081 390.600,145.445 390.600 C 145.809 390.600,146.442 390.780,146.852 391.000 C 147.263 391.220,147.869 391.400,148.200 391.400 C 148.531 391.400,149.137 391.580,149.548 391.800 C 149.958 392.020,150.623 392.200,151.025 392.200 C 151.427 392.200,152.149 392.378,152.628 392.596 C 153.108 392.813,153.883 392.993,154.351 392.996 C 154.819 392.998,155.537 393.180,155.948 393.400 C 156.437 393.662,157.076 393.800,157.803 393.800 C 158.507 393.800,159.082 393.920,159.380 394.128 C 159.664 394.327,160.411 394.494,161.274 394.550 C 162.058 394.602,162.908 394.775,163.162 394.935 C 163.417 395.094,164.272 395.277,165.062 395.340 C 165.853 395.404,166.725 395.565,167.000 395.700 C 167.275 395.834,168.539 396.001,169.809 396.071 C 171.079 396.140,172.564 396.323,173.109 396.478 C 173.654 396.633,175.361 396.807,176.903 396.866 C 178.444 396.926,179.974 397.081,180.303 397.211 C 180.631 397.341,182.160 397.524,183.700 397.617 C 185.240 397.710,186.950 397.901,187.500 398.043 C 188.937 398.412,211.819 398.413,213.388 398.044 C 213.987 397.903,215.607 397.738,216.988 397.676 C 218.370 397.615,219.977 397.434,220.559 397.274 C 221.145 397.113,222.979 396.935,224.659 396.874 C 226.332 396.814,228.150 396.643,228.700 396.494 C 229.250 396.345,230.510 396.162,231.500 396.086 C 232.490 396.011,233.435 395.837,233.600 395.700 C 233.765 395.563,234.612 395.390,235.482 395.314 C 236.353 395.239,237.250 395.048,237.477 394.889 C 237.704 394.730,238.341 394.596,238.895 394.591 C 239.448 394.586,240.260 394.441,240.700 394.269 C 241.140 394.096,242.234 393.886,243.131 393.802 C 244.086 393.713,244.954 393.515,245.226 393.325 C 245.488 393.141,246.083 393.000,246.597 393.000 C 247.124 393.000,247.820 392.832,248.252 392.600 C 248.663 392.380,249.336 392.199,249.749 392.199 C 250.162 392.198,250.770 392.019,251.100 391.800 C 251.430 391.581,252.038 391.402,252.451 391.401 C 252.864 391.401,253.537 391.220,253.948 391.000 C 254.358 390.780,254.991 390.600,255.355 390.600 C 255.719 390.600,256.369 390.420,256.800 390.200 C 257.231 389.980,257.858 389.800,258.193 389.800 C 258.528 389.800,259.137 389.620,259.548 389.400 C 259.958 389.180,260.532 389.000,260.823 389.000 C 261.113 389.000,261.459 388.869,261.592 388.710 C 261.724 388.550,262.253 388.359,262.766 388.285 C 263.280 388.211,263.835 388.038,264.000 387.901 C 264.165 387.763,264.655 387.587,265.090 387.509 C 265.524 387.431,266.062 387.239,266.284 387.083 C 266.507 386.928,266.918 386.800,267.197 386.800 C 267.477 386.800,268.042 386.620,268.452 386.400 C 268.863 386.180,269.356 385.999,269.549 385.999 C 269.742 385.998,270.170 385.819,270.500 385.600 C 270.830 385.381,271.280 385.201,271.500 385.200 C 271.720 385.199,272.170 385.019,272.500 384.800 C 272.830 384.581,273.281 384.402,273.503 384.401 C 273.725 384.401,274.242 384.220,274.652 384.000 C 275.063 383.780,275.587 383.600,275.818 383.600 C 276.048 383.600,276.466 383.420,276.745 383.200 C 277.025 382.980,277.381 382.800,277.537 382.800 C 277.693 382.800,278.154 382.630,278.560 382.421 C 280.723 381.314,282.656 380.400,282.835 380.400 C 282.946 380.400,283.266 380.220,283.545 380.000 C 283.825 379.780,284.256 379.600,284.502 379.600 C 284.749 379.600,285.058 379.471,285.189 379.313 C 285.320 379.155,285.685 378.969,286.000 378.900 C 286.315 378.831,286.680 378.645,286.811 378.487 C 286.942 378.329,287.178 378.200,287.335 378.200 C 287.492 378.200,287.954 378.027,288.360 377.817 C 288.767 377.606,289.325 377.336,289.600 377.218 C 290.125 376.992,290.546 376.750,291.442 376.158 C 291.740 375.961,292.093 375.800,292.226 375.800 C 292.359 375.800,292.616 375.666,292.796 375.503 C 293.099 375.229,295.258 374.053,298.700 372.286 C 299.470 371.891,300.432 371.372,300.838 371.134 C 303.082 369.816,303.777 369.368,304.001 369.099 C 304.137 368.934,304.346 368.800,304.464 368.800 C 304.685 368.800,306.095 367.894,306.564 367.450 C 306.710 367.313,306.922 367.200,307.037 367.200 C 307.151 367.200,307.674 366.840,308.200 366.400 C 308.726 365.960,309.258 365.600,309.384 365.600 C 309.509 365.600,310.067 365.240,310.624 364.800 C 311.180 364.360,311.758 364.000,311.908 364.000 C 312.058 364.000,312.252 363.887,312.340 363.749 C 312.532 363.448,314.050 362.400,314.294 362.400 C 314.389 362.400,314.609 362.269,314.783 362.109 C 315.831 361.148,316.018 361.000,316.187 361.000 C 316.290 361.000,317.053 360.460,317.884 359.800 C 318.714 359.140,319.450 358.600,319.519 358.600 C 319.643 358.600,321.510 357.102,321.900 356.690 C 322.010 356.574,322.505 356.215,323.000 355.893 C 323.495 355.570,324.350 354.884,324.900 354.368 C 325.450 353.852,326.665 352.815,327.600 352.064 C 328.535 351.312,329.660 350.354,330.100 349.934 C 330.540 349.514,331.800 348.438,332.900 347.544 C 335.464 345.459,345.531 335.423,347.288 333.200 C 348.028 332.265,349.106 331.005,349.685 330.400 C 350.264 329.795,351.494 328.371,352.419 327.235 C 353.343 326.099,355.029 324.029,356.165 322.635 C 357.301 321.241,358.336 319.875,358.464 319.600 C 358.592 319.325,358.989 318.795,359.346 318.422 C 359.703 318.049,360.223 317.354,360.503 316.877 C 360.782 316.401,361.323 315.671,361.706 315.255 C 362.088 314.840,362.457 314.320,362.525 314.100 C 362.593 313.880,362.953 313.325,363.324 312.866 C 363.696 312.408,364.000 311.943,364.000 311.834 C 364.000 311.725,364.338 311.198,364.750 310.662 C 365.925 309.136,366.400 308.433,366.400 308.218 C 366.400 308.109,366.523 307.948,366.673 307.860 C 366.823 307.772,367.116 307.396,367.323 307.024 C 367.969 305.865,368.092 305.679,368.451 305.320 C 368.643 305.128,368.800 304.827,368.800 304.651 C 368.800 304.475,368.950 304.166,369.132 303.964 C 369.470 303.592,369.726 303.178,370.289 302.100 C 370.462 301.770,370.805 301.167,371.051 300.759 C 372.580 298.234,373.400 296.796,373.400 296.640 C 373.400 296.542,373.580 296.299,373.800 296.100 C 374.020 295.901,374.200 295.541,374.200 295.300 C 374.200 295.059,374.380 294.699,374.600 294.500 C 374.820 294.301,375.000 293.986,375.000 293.800 C 375.000 293.614,375.180 293.299,375.400 293.100 C 375.620 292.901,375.800 292.584,375.800 292.396 C 375.800 292.208,375.980 291.825,376.200 291.545 C 376.420 291.266,376.600 290.899,376.600 290.730 C 376.600 290.562,376.680 290.374,376.777 290.314 C 377.060 290.139,379.000 286.207,379.000 285.809 C 379.000 285.611,379.129 285.342,379.287 285.211 C 379.445 285.080,379.631 284.715,379.700 284.400 C 379.769 284.085,379.955 283.720,380.113 283.589 C 380.271 283.458,380.400 283.149,380.400 282.902 C 380.400 282.656,380.580 282.225,380.800 281.945 C 381.020 281.666,381.201 281.316,381.201 281.168 C 381.202 281.021,381.381 280.630,381.600 280.300 C 381.819 279.970,381.998 279.510,381.999 279.277 C 381.999 279.044,382.180 278.625,382.400 278.345 C 382.620 278.066,382.800 277.618,382.800 277.349 C 382.800 277.081,382.980 276.699,383.200 276.500 C 383.420 276.301,383.600 275.938,383.600 275.693 C 383.600 275.449,383.729 275.142,383.887 275.011 C 384.045 274.880,384.235 274.486,384.309 274.136 C 384.383 273.786,384.613 273.219,384.822 272.876 C 385.030 272.533,385.200 272.027,385.200 271.751 C 385.200 271.475,385.331 271.141,385.490 271.008 C 385.650 270.876,385.840 270.373,385.912 269.890 C 385.984 269.408,386.164 268.913,386.312 268.790 C 386.460 268.668,386.641 268.147,386.715 267.634 C 386.789 267.120,386.962 266.565,387.099 266.400 C 387.237 266.235,387.412 265.749,387.489 265.321 C 387.566 264.892,387.748 264.352,387.893 264.121 C 388.038 263.889,388.215 263.285,388.287 262.777 C 388.358 262.269,388.545 261.684,388.702 261.477 C 388.859 261.270,388.990 260.829,388.994 260.497 C 388.997 260.165,389.180 259.558,389.400 259.148 C 389.620 258.737,389.800 258.154,389.801 257.851 C 389.801 257.548,389.981 257.005,390.201 256.645 C 390.420 256.285,390.600 255.744,390.600 255.442 C 390.600 255.141,390.780 254.558,391.000 254.148 C 391.221 253.735,391.400 253.019,391.400 252.548 C 391.400 252.076,391.579 251.360,391.800 250.948 C 392.020 250.537,392.201 249.909,392.201 249.551 C 392.202 249.193,392.381 248.630,392.600 248.300 C 392.857 247.912,392.998 247.361,392.999 246.743 C 392.999 246.188,393.140 245.572,393.334 245.276 C 393.518 244.996,393.733 244.121,393.811 243.333 C 393.890 242.545,394.096 241.540,394.269 241.100 C 394.441 240.660,394.586 239.758,394.591 239.095 C 394.596 238.381,394.718 237.721,394.889 237.477 C 395.048 237.250,395.234 236.353,395.302 235.482 C 395.371 234.612,395.547 233.540,395.694 233.100 C 395.841 232.660,396.012 231.568,396.073 230.674 C 396.134 229.780,396.315 228.700,396.475 228.274 C 396.635 227.848,396.817 226.600,396.879 225.500 C 396.941 224.400,397.129 223.058,397.296 222.518 C 397.489 221.895,397.601 220.727,397.604 219.318 C 397.608 217.257,397.684 216.505,398.212 213.300 C 398.567 211.147,398.469 186.312,398.101 185.000 C 397.931 184.395,397.741 182.775,397.680 181.400 C 397.616 179.964,397.443 178.569,397.274 178.122 C 397.113 177.694,396.911 176.389,396.826 175.222 C 396.741 174.055,396.566 172.905,396.438 172.667 C 396.309 172.429,396.150 171.304,396.083 170.167 C 396.017 169.030,395.841 167.740,395.694 167.300 C 395.546 166.860,395.369 165.847,395.300 165.049 C 395.232 164.252,395.047 163.352,394.889 163.049 C 394.731 162.747,394.598 161.960,394.592 161.300 C 394.587 160.640,394.442 159.740,394.271 159.300 C 394.099 158.860,393.892 157.960,393.810 157.300 C 393.729 156.640,393.513 155.812,393.331 155.460 C 393.149 155.108,393.000 154.407,393.000 153.902 C 393.000 153.379,392.828 152.647,392.600 152.200 C 392.380 151.769,392.200 151.119,392.200 150.755 C 392.200 150.391,392.020 149.758,391.800 149.348 C 391.580 148.937,391.399 148.219,391.399 147.751 C 391.398 147.238,391.239 146.661,391.000 146.300 C 390.781 145.970,390.602 145.407,390.601 145.049 C 390.601 144.691,390.420 144.063,390.200 143.652 C 389.980 143.242,389.800 142.612,389.800 142.252 C 389.800 141.893,389.620 141.263,389.400 140.852 C 389.180 140.442,389.000 139.887,389.000 139.619 C 389.000 139.351,388.857 138.974,388.683 138.781 C 388.509 138.589,388.315 138.042,388.252 137.566 C 388.189 137.089,388.026 136.520,387.889 136.300 C 387.751 136.080,387.574 135.586,387.493 135.203 C 387.413 134.820,387.233 134.325,387.093 134.103 C 386.953 133.881,386.778 133.323,386.704 132.862 C 386.629 132.400,386.441 131.917,386.284 131.787 C 386.128 131.657,386.000 131.403,386.000 131.223 C 386.000 131.042,385.820 130.558,385.600 130.148 C 385.380 129.737,385.199 129.199,385.199 128.951 C 385.198 128.703,385.019 128.230,384.800 127.900 C 384.581 127.570,384.402 127.066,384.401 126.781 C 384.401 126.496,384.220 126.099,384.000 125.900 C 383.780 125.701,383.600 125.293,383.600 124.993 C 383.600 124.694,383.465 124.337,383.300 124.200 C 383.135 124.063,383.000 123.840,383.000 123.705 C 383.000 123.570,382.775 123.036,382.500 122.519 C 382.225 122.002,382.000 121.370,382.000 121.114 C 382.000 120.858,381.866 120.537,381.701 120.401 C 381.537 120.265,381.309 119.804,381.194 119.377 C 381.079 118.950,380.898 118.600,380.792 118.600 C 380.687 118.600,380.600 118.454,380.600 118.276 C 380.600 118.098,380.195 117.114,379.700 116.089 C 379.205 115.065,378.800 114.097,378.800 113.938 C 378.800 113.779,378.671 113.542,378.513 113.411 C 378.355 113.280,378.169 112.915,378.100 112.600 C 378.031 112.285,377.851 111.925,377.700 111.800 C 377.549 111.675,377.368 111.310,377.297 110.988 C 377.227 110.667,377.100 110.362,377.016 110.310 C 376.932 110.258,376.382 109.267,375.794 108.108 C 375.207 106.948,374.653 106.000,374.563 106.000 C 374.473 106.000,374.400 105.872,374.400 105.715 C 374.400 105.559,374.175 105.163,373.900 104.836 C 373.625 104.510,373.400 104.112,373.400 103.952 C 373.400 103.792,373.220 103.454,373.000 103.200 C 372.780 102.946,372.600 102.638,372.600 102.515 C 372.600 102.392,372.308 101.843,371.950 101.295 C 371.593 100.748,371.181 100.075,371.037 99.800 C 370.485 98.752,370.077 98.068,369.449 97.140 C 369.092 96.612,368.800 96.085,368.800 95.969 C 368.800 95.853,368.598 95.510,368.350 95.207 C 367.904 94.660,366.977 93.227,366.400 92.190 C 366.235 91.894,365.735 91.168,365.288 90.576 C 363.657 88.415,363.291 87.883,362.822 87.000 C 362.559 86.505,362.272 86.053,362.184 85.996 C 361.966 85.853,361.000 84.418,361.000 84.236 C 361.000 84.155,360.643 83.732,360.207 83.295 C 359.770 82.858,359.410 82.436,359.407 82.359 C 359.398 82.169,358.504 80.862,357.793 80.000 C 357.476 79.615,356.793 78.760,356.277 78.100 C 355.760 77.440,355.002 76.540,354.593 76.100 C 354.183 75.660,353.511 74.805,353.100 74.200 C 352.688 73.595,352.160 72.910,351.926 72.678 C 351.473 72.230,350.433 71.038,348.370 68.600 C 345.165 64.816,334.828 54.554,331.241 51.597 C 330.108 50.664,328.200 49.090,327.001 48.100 C 325.802 47.110,324.074 45.689,323.160 44.943 C 322.247 44.196,321.154 43.296,320.731 42.943 C 320.307 42.589,319.598 42.054,319.154 41.753 C 318.711 41.452,317.977 40.906,317.524 40.541 C 317.071 40.176,316.343 39.660,315.907 39.396 C 315.471 39.131,314.931 38.750,314.707 38.548 C 314.483 38.346,314.165 38.062,314.000 37.916 C 313.835 37.770,313.495 37.587,313.245 37.510 C 312.994 37.433,312.454 37.062,312.045 36.686 C 311.635 36.310,311.201 36.001,311.081 36.001 C 310.960 36.000,310.675 35.843,310.447 35.650 C 310.220 35.458,309.824 35.122,309.567 34.904 C 309.105 34.512,308.281 34.008,307.492 33.635 C 307.267 33.529,306.964 33.297,306.817 33.121 C 306.671 32.944,306.412 32.800,306.241 32.800 C 306.071 32.800,305.786 32.669,305.609 32.508 C 305.431 32.347,304.749 31.931,304.093 31.582 C 303.437 31.234,302.441 30.645,301.879 30.274 C 301.318 29.903,300.808 29.600,300.747 29.600 C 300.685 29.600,300.157 29.285,299.572 28.900 C 298.987 28.515,298.394 28.200,298.253 28.200 C 298.112 28.200,297.842 28.020,297.654 27.800 C 297.465 27.580,297.120 27.400,296.887 27.400 C 296.653 27.400,296.301 27.222,296.105 27.005 C 295.908 26.788,295.571 26.554,295.355 26.486 C 295.139 26.417,294.571 26.097,294.093 25.774 C 293.614 25.451,292.948 25.091,292.612 24.974 C 292.275 24.857,292.000 24.684,292.000 24.589 C 292.000 24.495,291.684 24.359,291.298 24.286 C 290.912 24.214,290.553 24.087,290.502 24.003 C 290.451 23.920,289.754 23.521,288.954 23.117 C 288.154 22.712,287.365 22.295,287.200 22.190 C 287.035 22.086,286.675 21.910,286.400 21.800 C 286.125 21.691,285.765 21.525,285.600 21.432 C 285.249 21.234,283.989 20.653,282.300 19.910 C 281.640 19.620,280.861 19.251,280.569 19.091 C 280.277 18.931,279.872 18.799,279.669 18.799 C 279.466 18.798,279.030 18.619,278.700 18.400 C 278.370 18.181,277.865 18.002,277.577 18.001 C 277.289 18.001,276.825 17.820,276.545 17.600 C 276.266 17.380,275.871 17.199,275.668 17.199 C 275.466 17.198,275.030 17.019,274.700 16.800 C 274.370 16.581,273.910 16.402,273.677 16.401 C 273.444 16.401,273.025 16.220,272.745 16.000 C 272.466 15.780,272.015 15.600,271.743 15.600 C 271.471 15.600,271.139 15.467,271.004 15.305 C 270.870 15.143,270.431 14.950,270.030 14.876 C 269.628 14.802,268.986 14.575,268.603 14.371 C 268.220 14.167,267.725 13.999,267.503 13.999 C 267.281 13.998,266.830 13.819,266.500 13.600 C 266.170 13.381,265.718 13.202,265.495 13.201 C 265.271 13.201,264.908 13.073,264.687 12.919 C 264.466 12.764,263.864 12.574,263.349 12.497 C 262.834 12.420,262.309 12.231,262.182 12.078 C 262.055 11.925,261.675 11.800,261.339 11.800 C 261.002 11.800,260.360 11.629,259.913 11.421 C 259.466 11.213,258.711 10.995,258.234 10.938 C 257.758 10.881,257.211 10.691,257.019 10.517 C 256.826 10.343,256.335 10.200,255.926 10.200 C 255.518 10.200,254.831 10.020,254.400 9.800 C 253.969 9.580,253.364 9.400,253.055 9.400 C 252.746 9.400,252.158 9.220,251.748 9.000 C 251.311 8.766,250.608 8.597,250.051 8.593 C 249.528 8.589,248.740 8.413,248.300 8.200 C 247.860 7.987,247.117 7.811,246.649 7.807 C 246.181 7.803,245.463 7.620,245.052 7.400 C 244.642 7.180,243.977 7.000,243.575 7.000 C 243.173 7.000,242.451 6.822,241.972 6.604 C 241.492 6.387,240.668 6.207,240.140 6.204 C 239.612 6.202,238.892 6.050,238.540 5.867 C 238.108 5.642,237.218 5.504,235.800 5.442 C 234.645 5.391,233.469 5.232,233.186 5.088 C 232.903 4.944,231.868 4.764,230.886 4.687 C 229.904 4.610,228.875 4.436,228.600 4.301 C 228.325 4.166,227.014 3.996,225.686 3.924 C 224.359 3.852,222.964 3.695,222.586 3.576 C 222.209 3.457,220.055 3.283,217.800 3.190 C 215.001 3.074,213.446 2.925,212.900 2.719 C 211.728 2.277,189.012 2.277,187.500 2.719 M253.155 128.017 C 282.116 178.552,305.931 220.125,306.078 220.400 C 306.224 220.675,315.807 237.401,327.372 257.569 C 338.938 277.737,348.400 294.320,348.400 294.419 C 348.400 294.527,288.344 294.600,199.985 294.600 C 74.668 294.600,51.581 294.558,51.635 294.327 C 51.785 293.694,200.118 36.015,200.300 36.071 C 200.410 36.105,224.194 77.481,253.155 128.017 " stroke="none" fill="#ec8c3c" fill-rule="evenodd"></path></g></svg>