<?xml version="1.0" encoding="UTF-8" standalone="no"?>
<svg
   width="397"
   height="400"
   version="1.1"
   id="svg8"
   sodipodi:docname="dokument_orange.svg"
   inkscape:version="1.1 (c68e22c387, 2021-05-23)"
   xmlns:inkscape="http://www.inkscape.org/namespaces/inkscape"
   xmlns:sodipodi="http://sodipodi.sourceforge.net/DTD/sodipodi-0.dtd"
   xmlns="http://www.w3.org/2000/svg"
   xmlns:svg="http://www.w3.org/2000/svg">
  <defs
     id="defs12" />
  <sodipodi:namedview
     id="namedview10"
     pagecolor="#ffffff"
     bordercolor="#666666"
     borderopacity="1.0"
     inkscape:pageshadow="2"
     inkscape:pageopacity="0.0"
     inkscape:pagecheckerboard="0"
     showgrid="false"
     inkscape:zoom="0.14"
     inkscape:cx="200"
     inkscape:cy="203.57143"
     inkscape:window-width="1920"
     inkscape:window-height="1017"
     inkscape:window-x="-8"
     inkscape:window-y="-8"
     inkscape:window-maximized="1"
     inkscape:current-layer="svg8" />
  <path
     style="fill:#ef6000;stroke:none;fill-opacity:1"
     d="M177 10.4244C146.815 14.4362 118.787 23.0827 93 39.6921C72.2556 53.0536 54.041 70.6916 40.0255 91C-23.8146 183.504 8.26783 317.099 109 368.741C144.265 386.82 184.842 392.712 224 387.715C249.45 384.466 274.168 375.058 296 361.797C410.397 292.315 415.534 123.251 308 45.152C288.461 30.9617 266.377 20.9693 243 15.1266C222.184 9.92401 198.391 7.58142 177 10.4244z"
     id="path4" />
  <path
     style="fill:#ffffff; stroke:none;"
     d="M295 148C275.748 148 245.928 153.613 229 142.867C205.295 127.818 213 89.8226 213 66L142 66C133.638 66 121.011 63.6047 114.214 69.5579C109.346 73.8208 110 80.1414 110 86L110 124L110 261L110 296C110 301.334 109.207 307.377 112.653 311.895C119.489 320.859 139.013 317 149 317L254 317C264.562 317 286.442 321.325 292.991 310.957C299.505 300.644 295 276.986 295 265L295 148M233 81C233 91.7926 228.57 115.573 236.228 123.891C244.363 132.727 269.766 128 281 128L281 127L233 81z"
     id="path6" />
</svg>
