<?xml version="1.0" encoding="UTF-8" standalone="no"?>
<svg
   width="299.00079"
   height="299.00079"
   version="1.1"
   id="svg422"
   sodipodi:docname="fire.svg"
   inkscape:version="1.1 (c68e22c387, 2021-05-23)"
   xmlns:inkscape="http://www.inkscape.org/namespaces/inkscape"
   xmlns:sodipodi="http://sodipodi.sourceforge.net/DTD/sodipodi-0.dtd"
   xmlns="http://www.w3.org/2000/svg"
   xmlns:svg="http://www.w3.org/2000/svg">
  <defs
     id="defs426" />
  <sodipodi:namedview
     id="namedview424"
     pagecolor="#ffffff"
     bordercolor="#666666"
     borderopacity="1.0"
     inkscape:pageshadow="2"
     inkscape:pageopacity="0.0"
     inkscape:pagecheckerboard="0"
     showgrid="false"
     fit-margin-top="0"
     fit-margin-left="0"
     fit-margin-right="0"
     fit-margin-bottom="0"
     inkscape:zoom="0.066245342"
     inkscape:cx="196.24021"
     inkscape:cy="203.78791"
     inkscape:window-width="1920"
     inkscape:window-height="1017"
     inkscape:window-x="1912"
     inkscape:window-y="-8"
     inkscape:window-maximized="1"
     inkscape:current-layer="svg422" />
  <circle
     style="opacity:0.860976;fill:#002255;fill-opacity:1;stroke:none;stroke-width:4.913;stroke-miterlimit:4;stroke-dasharray:none"
     id="path2904"
     cx="149.5004"
     cy="149.5004"
     r="149.5004" />
  <path
     style="fill:#cc3c04;stroke:none"
     d="m 141.9832,31.620596 c 0,41.1686 -34.1727,65.272 -56.090299,96.000004 -13.5601,19.011 -19.9186,41.876 -19.9097,65 0.0042,10.969 2.4907,22.422 8.0147,32 4.7408,8.22 10.636,15.358 17.9853,21.384 9.174699,7.524 20.368299,13.924 31.999999,16.616 v -1 c -33.148794,-27.0471 -17.5631,-72.58483 0.7945,-103.73399 6.4215,-9.872 14.05133,-19.08777 27.2055,-27.26601 -14.15281,20.22503 -22.3561,53.852 -7.2114,75 10.8404,15.137 32.2884,14.164 33.2114,-7 20.089,20.145 19.237,38.694 4,61 8.708,-2.508 17.108,-7.998 23.907,-13.909 35.195,-30.601 33.091,-76.401 11.093,-114.091 -1.005,6.283 -0.76,11.7 -5.34,16.907 -9.462,10.755 -26.406,7.43 -31.655,-5.907 -4.161,-10.572 4.157,-24.135 4.905,-35 1.995,-28.969204 -12.607,-66.343604 -42.91,-76.000004 z"
     id="path8"
     sodipodi:nodetypes="cssscccccccccccccc" />
  <path
     style="fill:#fcbb1a;stroke:none;fill-opacity:1"
     d="m 152.19889,130.6206 c -17.07688,10.26019 -21.75287,17.70269 -30.89636,31.41369 -6.5233,11.85 -13.17815,29.01131 -15.10285,42.58631 -1.48769,10.493 -2.6665,22.56801 -0.0272,32.88101 2.53731,9.915 9.29941,18.65299 18.02641,24.55499 12.6802,8.575 46.10001,6.222 57.96001,-2.994 19.123,-14.861 14.316,-47.296 -3.96,-60.442 -0.259,11.01 -11.0024,20.85339 -22.7524,15.78139 -7.64731,-3.3 -12.81521,-11.20439 -15.54851,-18.78139 -5.3215,-14.752 -2.3948,-30.616 2.6458,-45 1.9822,-5.656 6.17018,-12.91529 9.65511,-20 z"
     id="path124"
     sodipodi:nodetypes="ccscccccccc" />
</svg>
