<?xml version="1.0" encoding="UTF-8" standalone="no"?>
<svg
   id="svg"
   version="1.1"
   width="99.648705"
   height="130.21027"
   viewBox="0 0 99.648705 130.21027"
   sodipodi:docname="fireold.svg"
   inkscape:version="1.1 (c68e22c387, 2021-05-23)"
   xmlns:inkscape="http://www.inkscape.org/namespaces/inkscape"
   xmlns:sodipodi="http://sodipodi.sourceforge.net/DTD/sodipodi-0.dtd"
   xmlns="http://www.w3.org/2000/svg"
   xmlns:svg="http://www.w3.org/2000/svg">
  <defs
     id="defs8" />
  <sodipodi:namedview
     id="namedview6"
     pagecolor="#ffffff"
     bordercolor="#666666"
     borderopacity="1.0"
     inkscape:pageshadow="2"
     inkscape:pageopacity="0.0"
     inkscape:pagecheckerboard="0"
     showgrid="false"
     fit-margin-top="1"
     fit-margin-left="1"
     fit-margin-right="1"
     fit-margin-bottom="1"
     lock-margins="true"
     inkscape:zoom="2"
     inkscape:cx="152"
     inkscape:cy="79.25"
     inkscape:window-width="1920"
     inkscape:window-height="1009"
     inkscape:window-x="1912"
     inkscape:window-y="-8"
     inkscape:window-maximized="1"
     inkscape:current-layer="svg" />
  <path
     id="path0"
     d="m 42.910726,1.4920663 c -30.309,4.261 -48.266,33.2199977 -39.825,64.2289977 4.552,16.724 21.263,40.604996 42.042,60.080996 4.786,4.487 4.42,4.471 8.784,0.38 23.615,-22.14 39.608,-45.992996 43.615,-65.051996 7.133004,-33.926998 -20.77,-64.3949977 -54.616,-59.6379977"
     stroke="none"
     fill="#060606"
     fill-rule="evenodd"
     sodipodi:nodetypes="cccccc"
     style="fill:#003380;fill-opacity:1" />
  <g
     id="g886"
     transform="translate(-6.9606235,-0.67902019)">
    <path
       id="path0-0"
       d="m 56.701591,16.35299 c -2.22629,11.119387 -5.52382,19.897509 -9.07718,24.164244 l -0.56546,0.678972 -0.0659,-0.336398 c -0.0365,-0.184961 -0.11321,-0.809827 -0.17085,-1.388821 -0.27788,-2.795579 -1.33501,-6.018713 -2.80263,-8.545231 -0.65369,-1.125348 -1.79168,-2.746766 -1.87196,-2.666783 -0.0256,0.02558 -0.19613,0.613986 -0.37933,1.307662 -1.27796,4.838965 -3.19196,9.196268 -8.12473,18.498101 -6.31806,11.91334 -7.08819,15.00444 -5.57587,22.37845 5.27093,25.703334 39.7715,31.782624 53.68823,9.46004 6.82677,-10.94972 5.63144,-27.96343 -2.93937,-41.839585 l -0.4305,-0.69691 -0.17761,0.990671 c -1.14476,6.386284 -3.84388,12.554964 -6.88676,15.740164 -0.88128,0.92245 -0.87482,0.92333 -0.57488,-0.0788 3.03023,-10.1246 1.2662,-20.547956 -4.94659,-29.226983 -2.22952,-3.114628 -6.45921,-7.407239 -8.69138,-8.820466 l -0.29376,-0.185843 -0.1135,0.567526 m 1.83696,42.019546 c 6.65593,13.5174 8.76018,19.86487 7.78392,23.48262 -2.6409,9.78732 -16.40531,9.78732 -19.04622,0 -0.75866,-2.81087 0.10498,-6.36364 3.4278,-14.10522 1.64053,-3.82183 5.91315,-12.78079 6.09546,-12.78079 0.0347,0 0.81718,1.53173 1.73904,3.40339"
       stroke="none"
       fill="#fcc304"
       fill-rule="evenodd"
       style="fill:#ff9803;fill-opacity:1;stroke-width:0.294055" />
    <path
       id="path1"
       d="m 55.011951,58.568376 c -6.43068,13.06485 -8.527,19.26352 -7.75952,22.94509 1.97252,9.46151 15.58902,10.34779 18.75482,1.22092 1.15298,-3.324 0.50018,-6.44304 -3.11522,-14.88653 -1.57672,-3.68244 -5.91403,-12.78079 -6.09252,-12.78079 -0.0353,0 -0.83982,1.57584 -1.78756,3.50131"
       stroke="none"
       fill="#fcfcc4"
       fill-rule="evenodd"
       style="fill:#fde663;fill-opacity:1;stroke-width:0.294055" />
  </g>
</svg>
