<?xml version="1.0" encoding="UTF-8" standalone="no"?>
<svg
   id="svg"
   version="1.1"
   width="400"
   height="400"
   viewBox="0, 0, 400,400"
   sodipodi:docname="fjernbetjent_port.svg"
   inkscape:version="1.1 (c68e22c387, 2021-05-23)"
   xmlns:inkscape="http://www.inkscape.org/namespaces/inkscape"
   xmlns:sodipodi="http://sodipodi.sourceforge.net/DTD/sodipodi-0.dtd"
   xmlns="http://www.w3.org/2000/svg"
   xmlns:svg="http://www.w3.org/2000/svg">
  <defs
     id="defs9" />
  <sodipodi:namedview
     id="namedview7"
     pagecolor="#ffffff"
     bordercolor="#666666"
     borderopacity="1.0"
     inkscape:pageshadow="2"
     inkscape:pageopacity="0.0"
     inkscape:pagecheckerboard="0"
     showgrid="false"
     inkscape:zoom="0.36415999"
     inkscape:cx="1213.7522"
     inkscape:cy="-26.087435"
     inkscape:window-width="1920"
     inkscape:window-height="1009"
     inkscape:window-x="1912"
     inkscape:window-y="-8"
     inkscape:window-maximized="1"
     inkscape:current-layer="svg" />
  <rect
     style="fill:#ffffff;fill-opacity:1;stroke:#ff2828;stroke-width:35;stroke-miterlimit:4;stroke-dasharray:none;stroke-opacity:1"
     id="rect1148"
     width="362.13593"
     height="362.13593"
     x="20.38835"
     y="20.38835" />
  <path
     id="path1"
     d="M 114.05361,70.844166 C 101.30947,80.72452 91.284211,94.97264 82.764607,109.18516 c -13.29864,23.35016 -21.99175,50.37749 -24.084,73.29 -1.567,8.632 -0.841,35.133 1.286,46.953 3.779194,29.40436 10.164474,43.34375 23.407,65.147 5.715055,9.6266 13.49877,19.56224 20.261003,27.4 11.017,12.785 19.001,14.854 26.242,6.8 6.473,-7.199 5.024,-12.368 -7.173,-25.58 -15.87973,-20.32596 -23.445007,-33.47823 -32.372003,-59.02 -6.224235,-29.17384 -12.610606,-47.92082 4.409,-98.8 8.077263,-19.07272 20.767723,-38.11614 33.635003,-52.194994 4.817,-5.18 5.914,-8.922 4.215,-14.382 -2.451,-7.874 -11.516,-11.764 -18.537,-7.954 m 140.903,10.754 c -1.868,0.405 -3.811,0.925 -4.319,1.157 -0.507,0.231 -1.196,0.42 -1.531,0.42 -0.829,0 -7.825,3.409 -10.104,4.924 -10.581,7.033 -16.947,16.515004 -19.927,29.679994 -0.966,4.27 -1.14,166.944 -0.183,171.196 1.578,7.004 2.932,10.627 5.831,15.594 6.43,11.016 17.17,18.577 30.429,21.423 5.493,1.179 47.707,1.179 53.2,0 18.669,-4.007 31.81,-17.148 35.817,-35.817 1.207,-5.627 1.207,-167.173 0,-172.8 -3.389,-15.78899 -13.002,-27.266994 -28.111,-33.565994 -2.16,-0.9 -4.184,-1.471 -8.04,-2.267 -5.469,-1.129 -47.804,-1.084 -53.062,0.056 m -105.935,19.625004 c -9.79003,4.3555 -13.00241,10.15924 -19.775,18.42899 -6.42234,8.88531 -11.9545,18.45243 -16.31,28.523 -3.109,7.49 -7.091,20.566 -7.979,26.2 -4.22638,30.14549 0.37678,61.43408 9.216,82.6 4.62813,10.95601 11.71039,21.27925 18.671,30.323 4.181,5.44 10.658,11.89 13.167,13.11 2.464,1.199 8.327,1.331 10.519,0.238 3.09817,-1.12294 5.81723,-3.81354 7.206,-6.734 2.657,-6.032 1.207,-11.135 -5.005,-17.612 -2.77954,-2.84647 -5.12903,-6.00101 -7.667,-9.046 -7.22786,-9.58553 -12.79771,-20.73603 -16.482,-31.679 -5.98061,-17.05975 -6.91511,-40.71264 -2.558,-59.4 3.00906,-9.8139 5.07414,-21.77052 11.734,-29.8 4.13311,-6.92293 9.52227,-14.21864 15.018,-20 6.36,-6.668 7.72,-12.237 4.522,-18.507 -1.976,-3.87199 -8.529,-7.74599 -11.919,-7.04599 -0.125,0.025 -1.186,0.206 -2.358,0.401 m 155.36,9.81199 c 4.864,1.629 8.272,5.014 10.358,10.289 0.932,2.356 0.932,162.546 0,164.902 -2.05,5.185 -5.306,8.465 -10.2,10.278 -3.03,1.121 -42.903,1.007 -45.9,-0.133 -4.953,-1.882 -8.013,-4.907 -9.911,-9.796 -0.759,-1.956 -0.776,-3.774 -0.776,-83 v -81 l 1.109,-2.369 c 2.028,-4.335 5.228,-7.346 9.691,-9.118 2.467,-0.98 42.722,-1.026 45.629,-0.053 m -124.103,21.951 c -4.049,1.091 -8.503,4.825 -13.107,10.989 -24.58742,30.91194 -22.73035,68.02162 -13.21,92.2 3.53997,8.60603 8.56752,16.75563 14.333,23.752 7.643,9.156 11.67,11.233 18.388,9.483 10.247,-2.669 13.081,-14.324 5.535,-22.765 -8.85134,-9.35707 -14.89514,-22.1613 -17.314,-33.27 -0.834,-3.935 -0.945,-19.312 -0.169,-23.4 2.19823,-12.56639 8.92744,-24.19928 16.932,-33.391 6.915,-7.819 6.593,-16.484 -0.799,-21.537 -3.455,-2.362 -6.948,-3.042 -10.589,-2.061"
     stroke="none"
     fill="#060606"
     fill-rule="evenodd"
     sodipodi:nodetypes="cccccccccccccccsccccsscccscccccccccccccccccccccccccsccccccccccccccc" />
</svg>
