<?xml version="1.0" encoding="UTF-8" standalone="no"?>
<svg
   id="svg"
   version="1.1"
   width="400"
   height="400"
   viewBox="0, 0, 400,400"
   sodipodi:docname="hjertestarter.svg"
   inkscape:version="1.1 (c68e22c387, 2021-05-23)"
   xmlns:inkscape="http://www.inkscape.org/namespaces/inkscape"
   xmlns:sodipodi="http://sodipodi.sourceforge.net/DTD/sodipodi-0.dtd"
   xmlns="http://www.w3.org/2000/svg"
   xmlns:svg="http://www.w3.org/2000/svg">
  <defs
     id="defs8" />
  <sodipodi:namedview
     id="namedview6"
     pagecolor="#ffffff"
     bordercolor="#666666"
     borderopacity="1.0"
     inkscape:pageshadow="2"
     inkscape:pageopacity="0.0"
     inkscape:pagecheckerboard="0"
     showgrid="false"
     inkscape:zoom="1.45664"
     inkscape:cx="165.44926"
     inkscape:cy="206.9832"
     inkscape:window-width="1920"
     inkscape:window-height="1009"
     inkscape:window-x="-8"
     inkscape:window-y="-8"
     inkscape:window-maximized="1"
     inkscape:current-layer="svg" />
  <rect
     style="fill:#049b5d;fill-opacity:1;stroke:#566ee6;stroke-width:0.604724"
     id="rect1009"
     width="398.815"
     height="398.5"
     x="1.8628955"
     y="1.3021492" />
  <path
     id="path0"
     d="m 1.8628964,1.3021491 c -0.104,0.275 -0.144,90.0499999 -0.087,199.5000009 l 0.102,199 H 201.2779 h 199.4 v -199.4 V 1.0021491 l -199.312,-0.1 c -159.241004,-0.081 -199.3510036,0 -199.5030036,0.39999997 M 381.4779,199.60215 v 179 h -180 -180.000004 l -0.102,-178.6 c -0.057,-98.23 -0.017,-178.825001 0.087,-179.100001 0.152,-0.4 36.382,-0.481 180.103004,-0.4 l 179.912,0.1 V 199.60215 m -91.8,-133.374001 c 0,9.042 -0.151,14.509 -0.414,15 -0.398,0.744 -0.989,0.774 -15,0.774 h -14.586 v 14.8 14.800001 h 14.757 c 13.088,0 14.785,0.072 15,0.633 0.134,0.348 0.243,7.098 0.243,15 v 14.367 h 14.795 14.795 l 0.105,-14.9 0.105,-14.9 14.9,-0.105 14.9,-0.105 v -14.795001 -14.795 h -14.367 c -7.902,0 -14.652,-0.109 -15,-0.243 -0.561,-0.215 -0.633,-1.912 -0.633,-15 v -14.757 h -14.8 -14.8 v 14.226 m -174.712,68.973001 c -33.688008,4.761 -57.101004,40.015 -50.141008,75.499 1.725,8.794 4.016,15.504 8.776,25.702 13.901,29.781 48.217008,64.848 95.804008,97.9 5.171,3.591 4.147,3.728 11.701,-1.56 86.773,-60.732 121.507,-121.774 95.303,-167.486 -22.808,-39.788 -76.526,-40.799 -100.151,-1.884 -2.215,3.647 -1.742,3.653 -3.987,-0.045 -12.196,-20.089 -34.995,-31.278 -57.305,-28.126 m 85.359,30.84 c -0.53,1.188 -2.08,4.501 -3.445,7.361 -1.366,2.86 -3.73,7.866 -5.254,11.125 -1.525,3.259 -2.941,6.229 -3.148,6.6 -0.494,0.89 -4.735,9.882 -7.393,15.675 -1.16,2.53 -3.39,7.274 -4.955,10.543 -1.565,3.269 -2.747,6.104 -2.625,6.3 0.124,0.201 8.171,0.357 18.397,0.357 9.997,0 18.176,0.146 18.176,0.323 0,0.178 -3.532,4.453 -7.85,9.5 -10.037,11.735 -11.053,12.919 -14.386,16.774 -1.52,1.758 -9.85,11.478 -18.51,21.6 -22.572,26.381 -24.917,29.073 -25.132,28.859 -0.222,-0.223 1.427,-4.448 5.486,-14.056 4.438,-10.505 6.008,-14.278 6.571,-15.8 0.285,-0.77 0.886,-2.21 1.334,-3.2 0.793,-1.75 1.372,-3.129 5.706,-13.6 1.139,-2.75 2.314,-5.54 2.612,-6.2 0.299,-0.66 1.068,-2.503 1.711,-4.096 l 1.167,-2.896 -18.021,-0.104 c -18.914,-0.109 -19.009,-0.12 -17.383,-1.907 0.5,-0.548 3.065,-3.434 5.701,-6.412 5.179,-5.85 19.321,-21.733 30.824,-34.617 3.943,-4.418 11.562,-12.968 16.93,-19 14.892,-16.736 15.249,-17.083 13.487,-13.129"
     stroke="none"
     fill="#f5f6f5"
     fill-rule="evenodd"
     style="fill:#ffffff" />
</svg>
