<?xml version="1.0" encoding="UTF-8" standalone="no"?>
<svg
   id="svg"
   version="1.1"
   width="400"
   height="400"
   viewBox="0, 0, 400,400"
   sodipodi:docname="indkoersel_forbudt_roed.svg"
   inkscape:version="1.1 (c68e22c387, 2021-05-23)"
   xmlns:inkscape="http://www.inkscape.org/namespaces/inkscape"
   xmlns:sodipodi="http://sodipodi.sourceforge.net/DTD/sodipodi-0.dtd"
   xmlns="http://www.w3.org/2000/svg"
   xmlns:svg="http://www.w3.org/2000/svg">
  <defs
     id="defs8" />
  <sodipodi:namedview
     id="namedview6"
     pagecolor="#ffffff"
     bordercolor="#666666"
     borderopacity="1.0"
     inkscape:pageshadow="2"
     inkscape:pageopacity="0.0"
     inkscape:pagecheckerboard="0"
     showgrid="false"
     inkscape:zoom="2.08"
     inkscape:cx="200"
     inkscape:cy="199.75962"
     inkscape:window-width="1920"
     inkscape:window-height="1017"
     inkscape:window-x="-8"
     inkscape:window-y="-8"
     inkscape:window-maximized="1"
     inkscape:current-layer="svg" />
  <path
     id="path0"
     d="m 40.649,158.3 c -1.749,5.989 -3.049,23.731 -3.049,41.609 0,18.189 0.578,25.705 3.077,39.991 l 0.228,1.3 h 158.901 158.902 l 0.472,-3.3 c 0.26,-1.815 0.725,-4.779 1.034,-6.586 1.606,-9.38 1.922,-51.99 0.452,-60.914 -1.557,-9.456 -1.903,-11.445 -2.105,-12.1 -0.335,-1.09 -317.593,-1.09 -317.912,0"
     stroke="none"
     fill="#fcfbfb"
     fill-rule="evenodd" />
  <path
     id="path1"
     d="m 184.2,0.256 c -6.596,0.502 -15.191,1.446 -15.748,1.729 -0.359,0.182 -2.902,0.633 -5.652,1.002 -2.75,0.37 -5.06,0.839 -5.133,1.042 -0.074,0.204 -0.564,0.371 -1.089,0.371 -1.29,0 -7.128,1.279 -7.378,1.617 -0.11,0.148 -1.858,0.602 -3.884,1.009 -2.026,0.406 -3.599,0.824 -3.495,0.929 0.105,0.104 -1.207,0.539 -2.915,0.966 -1.709,0.427 -3.196,0.892 -3.306,1.034 -0.11,0.143 -1.638,0.674 -3.395,1.182 -1.758,0.508 -3.288,1.054 -3.4,1.213 -0.113,0.159 -1.33,0.623 -2.705,1.033 -1.375,0.409 -2.5,0.867 -2.5,1.017 0,0.15 -1.08,0.6 -2.4,1 -1.32,0.4 -2.4,0.843 -2.4,0.984 0,0.142 -0.9,0.582 -2,0.977 -1.1,0.396 -2,0.857 -2,1.024 0,0.168 -0.99,0.617 -2.2,0.997 -1.21,0.381 -2.2,0.812 -2.2,0.958 0,0.275 -1.54,0.996 -3.1,1.451 -0.495,0.145 -0.9,0.416 -0.9,0.603 0,0.187 -0.81,0.649 -1.8,1.027 -0.99,0.378 -1.802,0.798 -1.804,0.933 -0.002,0.135 -0.812,0.601 -1.8,1.036 -0.988,0.434 -1.796,0.911 -1.796,1.06 0,0.149 -0.795,0.6 -1.767,1.002 -0.972,0.402 -1.694,0.849 -1.605,0.993 0.089,0.144 -0.421,0.5 -1.133,0.791 -0.712,0.291 -2.126,1.122 -3.143,1.846 -1.016,0.725 -2.051,1.318 -2.3,1.318 -0.248,0 -0.452,0.184 -0.452,0.41 0,0.225 -0.405,0.57 -0.9,0.765 -0.495,0.196 -1.26,0.647 -1.7,1.003 -0.44,0.356 -1.79,1.36 -3,2.231 -1.21,0.872 -2.485,1.857 -2.834,2.188 -0.348,0.332 -0.833,0.603 -1.077,0.603 -0.244,0 -0.679,0.315 -0.966,0.7 -0.288,0.385 -1.598,1.502 -2.912,2.481 -3.235,2.409 -3.805,2.872 -4.825,3.919 -0.483,0.495 -1.016,0.9 -1.184,0.9 -0.168,0 -1.273,0.945 -2.456,2.1 -1.182,1.155 -3.337,3.18 -4.789,4.5 -1.452,1.32 -3.567,3.376 -4.699,4.568 -1.132,1.192 -2.913,3.006 -3.958,4.03 -1.045,1.024 -1.9,2.003 -1.9,2.175 0,0.172 -0.9,1.157 -2,2.19 -1.1,1.033 -2,2.028 -2,2.212 0,0.183 -0.405,0.728 -0.9,1.211 -1.047,1.02 -1.51,1.59 -3.919,4.825 -0.979,1.314 -2.096,2.624 -2.481,2.912 -0.385,0.287 -0.7,0.742 -0.7,1.011 0,0.268 -0.315,0.785 -0.7,1.149 -0.385,0.363 -1.33,1.583 -2.1,2.711 -0.77,1.128 -1.805,2.535 -2.3,3.128 -0.494,0.593 -0.899,1.294 -0.9,1.558 0,0.264 -0.227,0.624 -0.504,0.8 -0.277,0.176 -0.862,1.035 -1.3,1.91 -0.438,0.874 -1.156,1.903 -1.596,2.286 -0.44,0.384 -0.644,0.703 -0.453,0.711 0.192,0.007 -0.089,0.598 -0.623,1.313 -0.534,0.715 -1.283,1.975 -1.666,2.8 -0.383,0.825 -0.822,1.501 -0.977,1.501 -0.154,0.001 -0.614,0.811 -1.021,1.8 -0.406,0.99 -0.877,1.799 -1.045,1.799 -0.169,0 -0.629,0.855 -1.023,1.9 -0.394,1.045 -0.958,2.044 -1.254,2.22 -0.296,0.176 -0.538,0.66 -0.538,1.076 0,0.416 -0.18,0.868 -0.4,1.004 -0.22,0.136 -0.4,0.577 -0.4,0.981 0,0.403 -0.225,0.82 -0.5,0.926 -0.275,0.106 -0.745,1.025 -1.044,2.043 -0.299,1.017 -0.686,1.85 -0.86,1.85 -0.174,0 -0.639,0.9 -1.035,2 -0.395,1.1 -0.835,2 -0.977,2 -0.141,0 -0.484,0.765 -0.761,1.7 -0.277,0.935 -0.931,2.64 -1.453,3.789 -0.522,1.149 -1.072,2.589 -1.221,3.2 -0.15,0.611 -0.411,1.203 -0.58,1.316 -0.169,0.112 -0.724,1.642 -1.232,3.4 -0.508,1.757 -1.039,3.285 -1.182,3.395 -0.142,0.11 -0.607,1.597 -1.034,3.306 -0.427,1.708 -0.862,3.02 -0.966,2.915 -0.105,-0.104 -0.523,1.469 -0.929,3.495 -0.407,2.026 -0.859,3.774 -1.005,3.884 -0.317,0.239 -1.621,6.253 -1.621,7.476 0,0.471 -0.167,0.917 -0.371,0.991 -0.203,0.073 -0.691,2.383 -1.084,5.133 -0.393,2.75 -0.828,5.09 -0.966,5.2 -0.245,0.194 -0.866,5.639 -1.575,13.8 -0.952,10.945 0.262,48.826 1.595,49.8 0.151,0.11 0.597,2.58 0.993,5.489 0.395,2.909 0.837,5.217 0.981,5.128 0.144,-0.09 0.596,1.715 1.004,4.01 0.407,2.295 0.854,4.173 0.992,4.173 0.278,0 1.865,6.806 1.709,7.33 -0.054,0.181 0.045,0.241 0.219,0.134 0.174,-0.108 0.653,1.184 1.065,2.87 0.412,1.686 0.889,3.157 1.058,3.268 0.17,0.111 0.631,1.461 1.025,3 0.393,1.539 0.916,3.068 1.163,3.398 0.246,0.33 0.794,1.68 1.218,3 0.424,1.32 0.871,2.49 0.993,2.6 0.122,0.11 0.556,1.1 0.965,2.2 0.408,1.1 0.856,2.09 0.995,2.2 0.138,0.11 0.597,1.235 1.019,2.5 0.422,1.265 0.882,2.3 1.021,2.3 0.139,0 0.494,0.729 0.788,1.62 0.294,0.891 0.682,1.711 0.862,1.823 0.181,0.111 0.711,1.092 1.179,2.18 0.468,1.087 1.008,1.977 1.201,1.977 0.193,0 0.351,0.255 0.351,0.568 0,0.584 1.201,3.075 1.655,3.432 0.14,0.11 0.534,0.871 0.876,1.691 0.341,0.819 0.985,1.882 1.431,2.36 0.446,0.479 0.733,0.996 0.638,1.149 -0.095,0.153 0.162,0.638 0.571,1.077 0.409,0.439 1.023,1.338 1.364,1.997 0.91,1.76 4.638,7.383 5.586,8.426 0.45,0.495 0.685,0.9 0.522,0.9 -0.163,0 0.345,0.784 1.13,1.741 0.785,0.958 1.427,1.888 1.427,2.067 0,0.329 0.241,0.625 2.266,2.792 0.616,0.66 1.082,1.325 1.035,1.477 -0.047,0.152 0.316,0.61 0.807,1.016 0.843,0.699 1.601,1.693 2.135,2.8 0.23,0.479 0.823,1.145 5.257,5.912 1.155,1.241 2.1,2.37 2.1,2.508 0,0.318 12.848,12.929 15.449,15.163 1.073,0.922 2.65,2.272 3.505,3 0.854,0.728 1.877,1.627 2.273,1.997 0.396,0.371 1.227,0.997 1.846,1.393 0.62,0.396 1.362,1.038 1.65,1.427 0.287,0.389 0.757,0.707 1.044,0.707 0.286,0 0.859,0.45 1.272,1 0.413,0.55 0.907,1 1.098,1 0.192,0 1.03,0.54 1.863,1.2 0.833,0.66 1.714,1.2 1.958,1.2 0.243,0 0.442,0.162 0.442,0.36 0,0.199 0.585,0.728 1.3,1.176 0.715,0.448 2.47,1.631 3.9,2.628 1.43,0.998 2.825,1.819 3.1,1.825 0.275,0.006 0.5,0.178 0.5,0.383 0,0.205 0.855,0.789 1.9,1.3 1.045,0.51 2.006,1.071 2.135,1.246 0.273,0.37 2.196,1.468 4.765,2.719 0.99,0.482 1.891,1.015 2.001,1.183 0.111,0.169 0.966,0.613 1.9,0.987 0.935,0.374 1.699,0.805 1.699,0.957 0,0.153 0.9,0.602 2,0.997 1.1,0.396 2,0.872 2,1.059 0,0.186 0.982,0.649 2.182,1.027 1.2,0.378 2.101,0.818 2.003,0.978 -0.099,0.159 0.314,0.411 0.918,0.558 0.603,0.148 2.239,0.805 3.636,1.461 1.396,0.655 3.061,1.296 3.7,1.424 0.638,0.127 1.161,0.361 1.161,0.519 0,0.265 3.063,1.344 3.296,1.16 0.057,-0.045 0.554,0.164 1.104,0.466 1.538,0.843 7.062,2.77 10.4,3.629 1.65,0.424 3.45,1.02 4,1.323 0.55,0.303 1.63,0.645 2.4,0.759 2.523,0.375 4.196,0.796 4.406,1.11 0.113,0.169 2.211,0.635 4.663,1.034 2.452,0.4 4.389,0.838 4.304,0.975 -0.084,0.137 2.317,0.568 5.337,0.959 3.019,0.391 5.58,0.832 5.69,0.981 0.259,0.35 9.515,1.218 17.3,1.623 12.728,0.661 41.1,-0.483 41.1,-1.658 0,-0.191 0.495,-0.346 1.1,-0.343 1.726,0.007 10.277,-1.318 10.5,-1.628 0.11,-0.153 1.55,-0.489 3.2,-0.748 1.65,-0.258 3.72,-0.722 4.6,-1.03 0.88,-0.309 2.86,-0.841 4.4,-1.183 1.54,-0.342 3.16,-0.799 3.6,-1.015 0.44,-0.216 1.88,-0.654 3.2,-0.972 2.653,-0.64 8.927,-2.731 10.8,-3.6 0.66,-0.306 1.965,-0.76 2.9,-1.008 0.935,-0.249 1.7,-0.625 1.7,-0.836 0,-0.212 0.261,-0.385 0.581,-0.385 0.319,0 1.984,-0.616 3.7,-1.369 1.715,-0.753 3.614,-1.493 4.219,-1.644 0.605,-0.15 1.1,-0.416 1.1,-0.59 0,-0.174 0.9,-0.64 2,-1.036 1.1,-0.395 2,-0.839 2,-0.986 0,-0.146 0.855,-0.589 1.9,-0.984 1.045,-0.395 1.99,-0.844 2.1,-0.998 0.11,-0.153 1.01,-0.674 2,-1.156 2.664,-1.298 4.535,-2.338 5.109,-2.84 0.28,-0.245 1.135,-0.707 1.9,-1.027 0.765,-0.319 1.391,-0.724 1.391,-0.898 0,-0.175 0.761,-0.654 1.691,-1.064 0.93,-0.41 2.044,-1.075 2.475,-1.477 0.432,-0.402 0.993,-0.731 1.247,-0.731 0.255,0 0.75,-0.315 1.1,-0.7 0.35,-0.385 1.323,-1.059 2.162,-1.498 0.839,-0.439 1.746,-1.093 2.016,-1.454 0.27,-0.361 0.966,-0.776 1.547,-0.922 0.581,-0.146 0.946,-0.375 0.812,-0.51 -0.249,-0.248 0.976,-1.096 2.25,-1.556 0.385,-0.139 0.7,-0.415 0.7,-0.613 0,-0.198 0.622,-0.657 1.383,-1.019 0.76,-0.363 1.31,-0.777 1.222,-0.921 -0.089,-0.143 0.369,-0.573 1.017,-0.956 0.648,-0.383 1.178,-0.866 1.178,-1.074 0,-0.207 0.225,-0.377 0.5,-0.377 0.275,0 1.163,-0.585 1.974,-1.3 0.81,-0.715 2.07,-1.807 2.8,-2.426 3.529,-2.998 6.315,-5.523 8.956,-8.117 1.592,-1.563 3.181,-2.952 3.532,-3.087 0.351,-0.135 0.638,-0.432 0.638,-0.661 0,-0.228 1.305,-1.739 2.9,-3.357 1.595,-1.619 3.89,-4.076 5.1,-5.461 1.21,-1.385 2.503,-2.838 2.873,-3.228 0.371,-0.39 1,-1.217 1.398,-1.836 0.399,-0.62 1.131,-1.455 1.627,-1.856 0.496,-0.401 0.902,-0.896 0.902,-1.1 0,-0.204 0.315,-0.702 0.7,-1.107 0.385,-0.405 1.15,-1.317 1.7,-2.028 0.55,-0.711 1.284,-1.608 1.631,-1.995 0.346,-0.386 0.758,-0.958 0.915,-1.272 0.801,-1.598 1.35,-2.34 1.57,-2.119 0.135,0.134 0.364,-0.231 0.51,-0.812 0.146,-0.581 0.561,-1.277 0.922,-1.547 0.361,-0.27 1.015,-1.177 1.454,-2.016 0.439,-0.839 1.113,-1.812 1.498,-2.162 0.385,-0.35 0.7,-0.845 0.7,-1.1 0,-0.254 0.321,-0.811 0.713,-1.238 0.392,-0.426 1.027,-1.442 1.411,-2.258 0.383,-0.816 0.875,-1.593 1.093,-1.727 0.217,-0.135 0.652,-0.858 0.965,-1.608 0.313,-0.75 0.77,-1.593 1.015,-1.873 0.502,-0.574 1.542,-2.445 2.84,-5.109 0.482,-0.99 1.003,-1.89 1.156,-2 0.154,-0.11 0.603,-1.055 0.998,-2.1 0.395,-1.045 0.838,-1.9 0.984,-1.9 0.147,0 0.591,-0.9 0.986,-2 0.396,-1.1 0.881,-2 1.079,-2 0.198,0 0.36,-0.272 0.36,-0.605 0,-0.333 0.152,-0.918 0.337,-1.3 1.43,-2.948 2.1,-4.527 2.544,-5.995 0.282,-0.935 0.643,-1.7 0.801,-1.7 0.158,0 0.489,-0.765 0.735,-1.7 0.247,-0.935 0.78,-2.42 1.184,-3.3 0.989,-2.15 2.711,-7.406 3.473,-10.6 0.341,-1.43 0.777,-2.796 0.969,-3.036 0.191,-0.239 0.64,-1.859 0.998,-3.6 0.357,-1.74 0.813,-3.474 1.013,-3.853 0.366,-0.695 0.986,-3.56 1.41,-6.511 0.127,-0.88 0.356,-1.69 0.511,-1.8 0.311,-0.222 1.637,-8.765 1.63,-10.5 -0.003,-0.605 0.152,-1.1 0.343,-1.1 1.186,0 2.325,-28.549 1.645,-41.2 -0.442,-8.224 -1.251,-16.951 -1.594,-17.2 -0.152,-0.11 -0.595,-2.672 -0.985,-5.694 -0.39,-3.022 -0.826,-5.422 -0.969,-5.334 -0.144,0.089 -0.591,-1.849 -0.994,-4.305 -0.404,-2.457 -0.869,-4.557 -1.035,-4.667 -0.165,-0.11 -0.448,-0.92 -0.627,-1.8 -0.18,-0.88 -0.359,-1.69 -0.397,-1.8 -0.039,-0.11 -0.211,-0.965 -0.382,-1.9 -0.172,-0.935 -0.441,-1.7 -0.597,-1.7 -0.245,0 -1.05,-2.893 -1.489,-5.346 -0.073,-0.41 -0.385,-1.22 -0.693,-1.8 -0.308,-0.58 -0.875,-2.134 -1.259,-3.454 -0.384,-1.32 -0.985,-2.842 -1.335,-3.382 -0.35,-0.541 -0.573,-0.991 -0.495,-1 0.273,-0.034 -0.775,-3.418 -1.057,-3.418 -0.157,0 -0.638,-1.17 -1.07,-2.6 -0.432,-1.43 -0.917,-2.6 -1.079,-2.6 -0.163,0 -0.607,-0.988 -0.987,-2.195 -0.381,-1.207 -0.78,-2.108 -0.887,-2.001 -0.107,0.107 -0.511,-0.704 -0.898,-1.803 -0.386,-1.098 -0.95,-2.244 -1.252,-2.546 -0.302,-0.302 -0.795,-1.293 -1.095,-2.202 -0.3,-0.909 -0.682,-1.653 -0.85,-1.653 -0.168,0 -0.513,-0.632 -0.768,-1.404 -0.255,-0.772 -0.694,-1.634 -0.975,-1.915 -0.281,-0.281 -0.906,-1.315 -1.388,-2.296 -1.273,-2.593 -2.352,-4.481 -2.717,-4.75 -0.176,-0.129 -0.679,-0.952 -1.119,-1.828 -0.44,-0.876 -1.88,-3.181 -3.2,-5.124 -1.32,-1.942 -2.64,-3.982 -2.934,-4.533 -0.294,-0.551 -0.789,-1.099 -1.1,-1.218 -0.311,-0.12 -0.566,-0.43 -0.566,-0.69 0,-0.26 -0.533,-1.095 -1.184,-1.857 -0.651,-0.762 -1.191,-1.567 -1.2,-1.79 -0.009,-0.223 -0.463,-0.741 -1.008,-1.15 -0.546,-0.41 -0.917,-0.869 -0.823,-1.02 0.093,-0.151 -0.405,-0.921 -1.108,-1.712 -0.702,-0.79 -1.817,-2.108 -2.477,-2.928 -0.66,-0.82 -1.605,-1.86 -2.1,-2.31 C 352.405,70.224 352,69.706 352,69.522 352,68.813 335.168,51.6 334.474,51.6 334.213,51.6 334,51.33 334,51 c 0,-0.33 -0.177,-0.6 -0.393,-0.6 -0.217,0 -1.123,-0.675 -2.015,-1.5 -0.892,-0.825 -2.349,-2.175 -3.239,-3 -0.89,-0.825 -1.706,-1.5 -1.814,-1.5 -0.107,0 -1.049,-0.72 -2.093,-1.6 -1.044,-0.88 -2.013,-1.6 -2.154,-1.6 -0.14,0 -0.759,-0.463 -1.374,-1.028 C 318.738,38.168 318.53,38 318.224,38 c -0.17,0 -0.991,-0.54 -1.824,-1.2 -0.833,-0.66 -1.705,-1.2 -1.938,-1.2 -0.232,0 -0.566,-0.225 -0.742,-0.5 -0.372,-0.581 -5.223,-3.9 -5.7,-3.9 -0.177,0 -0.555,-0.28 -0.839,-0.623 -0.285,-0.343 -1.112,-0.872 -1.84,-1.176 -0.727,-0.304 -1.714,-0.917 -2.192,-1.363 -0.479,-0.446 -0.996,-0.733 -1.149,-0.638 -0.153,0.095 -0.635,-0.159 -1.069,-0.564 -0.435,-0.405 -1.587,-1.108 -2.561,-1.561 -1.851,-0.863 -4.827,-2.524 -5.17,-2.886 -0.11,-0.116 -1.01,-0.555 -2,-0.975 -0.99,-0.42 -2.07,-0.971 -2.4,-1.223 -0.33,-0.253 -1.23,-0.704 -2,-1.002 -0.77,-0.299 -1.49,-0.653 -1.6,-0.787 -0.11,-0.134 -1.1,-0.577 -2.2,-0.986 -1.1,-0.408 -2.09,-0.868 -2.2,-1.02 -0.11,-0.153 -1.19,-0.601 -2.4,-0.996 -1.21,-0.395 -2.29,-0.827 -2.4,-0.961 -0.11,-0.133 -1.28,-0.595 -2.6,-1.025 -1.32,-0.431 -2.501,-0.926 -2.625,-1.101 -0.124,-0.175 -1.294,-0.584 -2.6,-0.91 -1.306,-0.326 -2.915,-0.859 -3.575,-1.186 -0.66,-0.326 -2.55,-0.948 -4.2,-1.381 -1.65,-0.433 -2.82,-0.819 -2.6,-0.858 0.425,-0.074 -0.845,-0.388 -4.9,-1.212 -1.375,-0.279 -2.5,-0.629 -2.5,-0.778 0,-0.148 -1.878,-0.604 -4.173,-1.011 -2.295,-0.408 -4.1,-0.86 -4.01,-1.004 0.089,-0.144 -2.219,-0.586 -5.128,-0.981 C 234.18,2.596 231.71,2.147 231.6,1.993 230.769,0.833 194.22,-0.507 184.2,0.256 M 358.561,158.3 c 0.202,0.655 0.548,2.644 2.105,12.1 1.47,8.924 1.154,51.534 -0.452,60.914 -0.309,1.807 -0.774,4.771 -1.034,6.586 l -0.472,3.3 H 199.806 40.905 l -0.228,-1.3 C 38.178,225.614 37.6,218.098 37.6,199.909 c 0,-17.878 1.3,-35.62 3.049,-41.609 0.319,-1.09 317.577,-1.09 317.912,0"
     stroke="none"
     fill="#ec141c"
     fill-rule="evenodd" />
</svg>
