<?xml version="1.0" encoding="UTF-8" standalone="no"?>
<svg
   id="svg"
   version="1.1"
   width="403.83524"
   height="396.97009"
   viewBox="0 0 403.83524 396.97009"
   sodipodi:docname="magnetfelt.svg"
   inkscape:version="1.1 (c68e22c387, 2021-05-23)"
   xmlns:inkscape="http://www.inkscape.org/namespaces/inkscape"
   xmlns:sodipodi="http://sodipodi.sourceforge.net/DTD/sodipodi-0.dtd"
   xmlns="http://www.w3.org/2000/svg"
   xmlns:svg="http://www.w3.org/2000/svg">
  <defs
     id="defs8" />
  <sodipodi:namedview
     id="namedview6"
     pagecolor="#ffffff"
     bordercolor="#666666"
     borderopacity="1.0"
     inkscape:pageshadow="2"
     inkscape:pageopacity="0.0"
     inkscape:pagecheckerboard="0"
     showgrid="false"
     inkscape:zoom="0.72831999"
     inkscape:cx="282.84271"
     inkscape:cy="140.04833"
     inkscape:window-width="1276"
     inkscape:window-height="1032"
     inkscape:window-x="2144"
     inkscape:window-y="28"
     inkscape:window-maximized="0"
     inkscape:current-layer="svg"
     fit-margin-top="1"
     fit-margin-left="1"
     fit-margin-right="1"
     fit-margin-bottom="1"
     lock-margins="true" />
  <rect
     style="fill:#f7c226;fill-opacity:1;stroke:#000000;stroke-width:27;stroke-linecap:round;stroke-linejoin:round;stroke-miterlimit:2;stroke-dasharray:none;stroke-opacity:1"
     id="rect1446"
     width="374.83524"
     height="367.97009"
     x="14.5"
     y="14.5" />
  <path
     id="path0"
     d="m 195.59269,46.910183 c -0.082,0.073 -2.006,0.226 -4.275,0.341 -2.269,0.114 -4.932,0.37 -5.919,0.568 -0.987,0.197 -3.004,0.551 -4.484,0.785 -1.48,0.234 -3.659,0.661 -4.843,0.949 -1.184,0.287 -3.041,0.732 -4.126,0.989 -6.735,1.592 -19.697,6.89 -26.637,10.887 -0.74,0.426 -1.95,1.114 -2.69,1.528 -0.74,0.414 -1.859,1.141 -2.488,1.614 -0.628,0.474 -1.25,0.861 -1.383,0.861 -0.133,0 -0.853,0.485 -1.6,1.077 -0.747,0.592 -1.487,1.076 -1.643,1.076 -0.156,0 -1.05,0.646 -1.986,1.435 -0.936,0.789 -1.817,1.435 -1.957,1.435 -0.356,0 -3.746,2.908 -7.006,6.009 -1.504,1.43 -2.886,2.601 -3.07,2.601 -0.471,0 -2.993,2.634 -2.993,3.126 0,0.223 -0.619,0.942 -1.376,1.599 -1.388,1.204 -7.234,7.968 -7.234,8.37 0,0.119 -0.888,1.315 -1.973,2.659 -1.085,1.343 -1.973,2.556 -1.973,2.695 0,0.139 -0.363,0.767 -0.808,1.395 -0.444,0.627996 -1.006,1.464997 -1.249,1.859997 -0.242,0.394 -1.036,1.686 -1.76401,2.87 -3.410995,5.549 -8.217995,16.109 -10.449995,22.959 -1.941,5.954 -2.192,6.826 -2.895,10.057 -1.141,5.239 -2.046,13.73 -2.388,22.41 -0.402,10.2 -0.935,72.196 -0.629,73.094 0.121,0.355 8.313,0.448 39.350005,0.448 h 39.197 l 0.239,-27.533 c 0.319,-36.881 0.545,-48.661 0.978,-51.115 0.535,-3.032 2.854,-8.218 4.833,-10.81 0.68,-0.891 1.236,-1.799 1.236,-2.018 0,-0.589 8.849,-9.331 9.446,-9.331 0.281,0 0.698,-0.225 0.926,-0.499 0.506,-0.61 6.191,-3.447 6.907,-3.447 0.283,0 0.668,-0.141 0.856,-0.313 0.366,-0.336 4.034,-1.232 7.492,-1.83 2.733,-0.473 6.528,-0.458 9.71,0.037 1.381,0.215 2.753,0.428 3.049,0.475 3.454,0.54 9.329,3.034 12.85,5.456 2.059,1.416 9.392,8.283 9.392,8.795 0,0.158 0.698,1.217 1.55,2.354 0.853,1.136 1.768,2.631 2.033,3.322 0.266,0.69 0.618,1.433 0.782,1.651 2.504,3.316 2.785,8.514 2.797,51.712 l 0.009,33.094 h 39.468 39.468 l -0.006,-26.995 c -0.007,-29.565 -0.493,-55.714 -1.109,-59.641 -1.042,-6.637 -4.312,-19.25 -6.047,-23.319 -0.169,-0.394 -0.988,-2.412 -1.821,-4.484 -1.541,-3.832 -4.637,-10.281 -6.028,-12.556 -0.422,-0.691 -1.107,-1.934 -1.523,-2.762 -0.416,-0.829 -0.984,-1.696 -1.263,-1.928 -0.279,-0.231 -0.507,-0.588 -0.507,-0.792 0,-0.205001 -0.646,-1.227997 -1.435,-2.272997 -0.789,-1.045 -1.435,-2.016 -1.435,-2.157 0,-0.141 -0.781,-1.157 -1.737,-2.258 -0.955,-1.1 -1.802,-2.188 -1.883,-2.417 -0.54,-1.53 -19.201,-20.218 -20.899,-20.929 -0.235,-0.099 -1.327,-0.865 -2.427,-1.704 -1.099,-0.839 -2.115,-1.525 -2.259,-1.525 -0.143,0 -0.789,-0.403 -1.436,-0.896 -0.647,-0.494 -1.307,-0.897 -1.467,-0.897 -0.16,0 -0.79,-0.376 -1.401,-0.835 -0.61,-0.46 -1.594,-1.079 -2.186,-1.377 -0.592,-0.297 -1.722,-0.915 -2.511,-1.372 -10.575,-6.121 -25.636,-11.41 -38.207,-13.417 -5.642,-0.901 -24.455,-1.771 -25.142,-1.163 M 85.817685,252.06918 c -0.016,0.444 -0.082,9.484 -0.145,20.09 l -0.116,19.282 h 39.248005 39.249 v -20.089 -20.09 h -39.103 -39.104005 l -0.029,0.807 m 153.931005,19.283 v 20.089 h 39.103 39.103 v -20.089 -20.09 h -39.103 -39.103 v 20.09 m -117.222,37.969 c -3.566,1.449 -3.66,1.979 -3.664,20.865 -0.005,17.652 -0.052,17.325 2.735,19.048 3.507,2.167 7.718,0.773 8.77,-2.905 0.535,-1.869 0.708,-29.229 0.208,-32.728 -0.561,-3.919 -4.188,-5.848 -8.049,-4.28 m 30.944,-0.318 c -4.866,0.76 -7.03,6.828 -3.588,10.061 0.493,0.464 0.897,1.018 0.897,1.232 0,0.451 17.615,18.141 18.064,18.141 0.166,0 1.033,0.644 1.927,1.431 5.385,4.739 12.292,-0.08 9.571,-6.679 -0.399,-0.968 -4.015,-4.83 -11.928,-12.741 -12.106,-12.102 -11.873,-11.924 -14.943,-11.445 m -61.166005,0.619 c -1.863,0.806 -22.008,21.054 -22.78,22.896 -2.491,5.947 3.631,11.696 8.514,7.995 0.644,-0.489 1.36,-0.954 1.591,-1.034 1.795,-0.622 20.591995,-19.997 21.492995,-22.153 2.30501,-5.517 -3.054995,-10.199 -8.817995,-7.704 m 144.332005,9.159 c -5.392,5.369 -9.803,9.908 -9.803,10.087 0,0.179 -0.905,1.302 -2.01,2.496 l -2.01,2.171 0.138,2.44 c 0.265,4.701 3.919,7.097 8.052,5.28 1.758,-0.773 15.493,-13.952 21.776,-20.896 l 2.562,-2.83 0.006,-2.192 c 0.012,-4.358 -2.012,-6.317 -6.525,-6.317 h -2.383 l -9.803,9.761 m 40.189,-9.532 c -3.802,0.839 -4.211,3.179 -3.977,22.73 0.209,17.356 0.324,17.764 5.141,18.177 4.406,0.378 6.15,-1.211 6.616,-6.028 0.778,-8.041 0.238,-30.896 -0.768,-32.538 -1.078,-1.758 -4.491,-2.897 -7.012,-2.341 m 28.752,0.471 c -0.394,0.148 -1.06,0.388 -1.479,0.532 -1.819,0.627 -2.52,6.101 -1.041,8.132 0.488,0.67 1.038,1.542 1.221,1.936 0.183,0.395 4.667,5.015 9.964,10.266 11.869,11.767 13.276,12.63 17.323,10.616 4.492,-2.235 4.42,-6.798 -0.186,-11.694 -1.464,-1.557 -2.663,-2.967 -2.663,-3.134 0,-0.447 -9.43,-9.821 -9.879,-9.821 -0.211,0 -0.94,-0.585 -1.62,-1.3 -0.68,-0.715 -2.431,-2.33 -3.892,-3.588 -2.655,-2.286 -4.96852,-3.54591 -7.748,-1.945"
     stroke="none"
     fill="#040404"
     fill-rule="evenodd"
     sodipodi:nodetypes="cccscccscssssscsscscsccccccssccscsscscccccsccccccccccccccsssccccscsccccccccccccccccccccccccccccccccsscccccccccccsccccccssccccccccccsccccssscc" />
</svg>
