<?xml version="1.0" encoding="UTF-8" standalone="no"?>
<svg
   enable-background="new 0 0 580 580"
   height="580"
   viewBox="0 0 580 580"
   width="580"
   version="1.1"
   id="svg8"
   sodipodi:docname="midlertidig_arrangement_hvid_paa_graa.svg"
   inkscape:version="1.1 (c68e22c387, 2021-05-23)"
   xmlns:inkscape="http://www.inkscape.org/namespaces/inkscape"
   xmlns:sodipodi="http://sodipodi.sourceforge.net/DTD/sodipodi-0.dtd"
   xmlns="http://www.w3.org/2000/svg"
   xmlns:svg="http://www.w3.org/2000/svg">
  <defs
     id="defs12" />
  <sodipodi:namedview
     id="namedview10"
     pagecolor="#ffffff"
     bordercolor="#666666"
     borderopacity="1.0"
     inkscape:pageshadow="2"
     inkscape:pageopacity="0.0"
     inkscape:pagecheckerboard="0"
     showgrid="false"
     inkscape:zoom="0.67558805"
     inkscape:cx="424.81509"
     inkscape:cy="313.0606"
     inkscape:window-width="1920"
     inkscape:window-height="1017"
     inkscape:window-x="-8"
     inkscape:window-y="-8"
     inkscape:window-maximized="1"
     inkscape:current-layer="svg8" />
  <path
     d="M 470.747,105.791 C 422.539,57.583 358.443,31.034 290.267,31.034 c -68.177,0 -132.272,26.549 -180.48,74.757 -48.208,48.208 -74.758,112.304 -74.758,180.48 0,68.176 26.549,132.272 74.758,180.48 48.208,48.208 112.304,74.758 180.48,74.758 68.176,0 132.272,-26.55 180.48,-74.758 48.208,-48.208 74.758,-112.304 74.758,-180.48 0,-68.177 -26.55,-132.272 -74.758,-180.48 z"
     fill="param(fill)"
     fill-opacity="param(fill-opacity)"
     stroke="param(outline)"
     stroke-opacity="param(outline-opacity)"
     stroke-width="param(outline-width)"
     id="path4"
     style="fill:#a6a5a5;fill-opacity:1;stroke:#ffffff;stroke-opacity:1;stroke-width:25;stroke-miterlimit:4;stroke-dasharray:none"
     sodipodi:nodetypes="sssscssss" />
  <path
     d="m319.044 304.938c-1.021-1.625-12.027-19.432-12.027-32.917 0-14.004 11.658-40.1 11.885-40.604.196-.172.402-.328.595-.509l74.945-71.611c7.971-7.562 8.303-20.154.74-28.125l-1.521-1.602c-7.563-7.971-20.154-8.304-28.125-.742l-70.365 67.234c-1.36-.35-2.749-.537-4.153-.537h-28.188l-55.046-75.82c-6.352-8.965-18.769-11.085-27.734-4.734l-1.802 1.277c-8.966 6.351-11.085 18.768-4.734 27.734l57.508 79.21v94.25l-45.275 126.521c-3.702 10.344 1.684 21.732 12.028 25.435l2.08.743c10.345 3.702 21.732-1.685 25.434-12.027l44.05-123.098h20.193l86.695 100.358c7.183 8.314 19.746 9.23 28.061 2.049l1.672-1.443c8.313-7.18 9.229-19.745 2.049-28.059z"
     fill="param(fill)"
     fill-opacity="param(fill-opacity)"
     stroke="param(outline)"
     stroke-opacity="param(outline-opacity)"
     stroke-width="param(outline-width)"
     id="path2"
     style="fill:#ffffff" />
  <circle
     cx="285.427"
     cy="143.93"
     fill="param(fill)"
     r="35"
     stroke="param(outline)"
     stroke-width="param(outline-width)"
     id="circle6"
     style="fill:#ffffff" />
</svg>
