<?xml version="1.0" encoding="UTF-8" standalone="no"?>
<svg
   enable-background="new 0 0 580 580"
   height="580"
   viewBox="0 0 580 580"
   width="580"
   version="1.1"
   id="svg8"
   sodipodi:docname="midlertidig_arrangement_graa_paa_hvid.svg"
   inkscape:version="1.1 (c68e22c387, 2021-05-23)"
   xmlns:inkscape="http://www.inkscape.org/namespaces/inkscape"
   xmlns:sodipodi="http://sodipodi.sourceforge.net/DTD/sodipodi-0.dtd"
   xmlns="http://www.w3.org/2000/svg"
   xmlns:svg="http://www.w3.org/2000/svg">
  <defs
     id="defs12" />
  <sodipodi:namedview
     id="namedview10"
     pagecolor="#ffffff"
     bordercolor="#666666"
     borderopacity="1.0"
     inkscape:pageshadow="2"
     inkscape:pageopacity="0.0"
     inkscape:pagecheckerboard="0"
     showgrid="false"
     inkscape:zoom="0.67558805"
     inkscape:cx="424.81509"
     inkscape:cy="313.0606"
     inkscape:window-width="1920"
     inkscape:window-height="1017"
     inkscape:window-x="1912"
     inkscape:window-y="-8"
     inkscape:window-maximized="1"
     inkscape:current-layer="svg8" />
  <path
     d="M 470.747,105.791 C 422.539,57.583 358.443,31.034 290.267,31.034 c -68.177,0 -132.272,26.549 -180.48,74.757 -48.208,48.208 -74.758,112.304 -74.758,180.48 0,68.176 26.549,132.272 74.758,180.48 48.208,48.208 112.304,74.758 180.48,74.758 68.176,0 132.272,-26.55 180.48,-74.758 48.208,-48.208 74.758,-112.304 74.758,-180.48 0,-68.177 -26.55,-132.272 -74.758,-180.48 z"
     fill="param(fill)"
     fill-opacity="param(fill-opacity)"
     stroke="param(outline)"
     stroke-opacity="param(outline-opacity)"
     stroke-width="param(outline-width)"
     id="path4"
     style="fill:#ffffff;fill-opacity:1;stroke:#999999;stroke-opacity:1;stroke-width:35;stroke-miterlimit:4;stroke-dasharray:none"
     sodipodi:nodetypes="sssscssss" />
  <g
     id="g825"
     transform="matrix(1.0939469,0,0,1.0939469,-23.358014,-23.555359)"
     style="fill:#999999">
    <path
       d="m 319.044,304.938 c -1.021,-1.625 -12.027,-19.432 -12.027,-32.917 0,-14.004 11.658,-40.1 11.885,-40.604 0.196,-0.172 0.402,-0.328 0.595,-0.509 l 74.945,-71.611 c 7.971,-7.562 8.303,-20.154 0.74,-28.125 l -1.521,-1.602 c -7.563,-7.971 -20.154,-8.304 -28.125,-0.742 l -70.365,67.234 c -1.36,-0.35 -2.749,-0.537 -4.153,-0.537 H 262.83 l -55.046,-75.82 c -6.352,-8.965 -18.769,-11.085 -27.734,-4.734 l -1.802,1.277 c -8.966,6.351 -11.085,18.768 -4.734,27.734 l 57.508,79.21 v 94.25 l -45.275,126.521 c -3.702,10.344 1.684,21.732 12.028,25.435 l 2.08,0.743 c 10.345,3.702 21.732,-1.685 25.434,-12.027 l 44.05,-123.098 h 20.193 l 86.695,100.358 c 7.183,8.314 19.746,9.23 28.061,2.049 l 1.672,-1.443 c 8.313,-7.18 9.229,-19.745 2.049,-28.059 z"
       fill="param(fill)"
       fill-opacity="param(fill-opacity)"
       stroke="param(outline)"
       stroke-opacity="param(outline-opacity)"
       stroke-width="param(outline-width)"
       id="path2"
       style="fill:#999999" />
    <circle
       cx="285.427"
       cy="143.92999"
       fill="param(fill)"
       r="35"
       stroke="param(outline)"
       stroke-width="param(outline-width)"
       id="circle6"
       style="fill:#999999" />
  </g>
</svg>
