<?xml version="1.0" encoding="UTF-8" standalone="no"?>
<svg
   enable-background="new 0 0 580 580"
   height="580"
   viewBox="0 0 580 580"
   width="580"
   version="1.1"
   id="svg8"
   sodipodi:docname="mobilantenne.svg"
   inkscape:version="1.1 (c68e22c387, 2021-05-23)"
   xmlns:inkscape="http://www.inkscape.org/namespaces/inkscape"
   xmlns:sodipodi="http://sodipodi.sourceforge.net/DTD/sodipodi-0.dtd"
   xmlns="http://www.w3.org/2000/svg"
   xmlns:svg="http://www.w3.org/2000/svg">
  <defs
     id="defs12" />
  <sodipodi:namedview
     id="namedview10"
     pagecolor="#ffffff"
     bordercolor="#666666"
     borderopacity="1.0"
     inkscape:pageshadow="2"
     inkscape:pageopacity="0.0"
     inkscape:pagecheckerboard="0"
     showgrid="false"
     inkscape:zoom="0.24114903"
     inkscape:cx="199.04704"
     inkscape:cy="495.54419"
     inkscape:window-width="1920"
     inkscape:window-height="1009"
     inkscape:window-x="1912"
     inkscape:window-y="-8"
     inkscape:window-maximized="1"
     inkscape:current-layer="svg8" />
  <path
     d="M 470.747,105.791 C 422.539,57.583 358.443,31.034 290.267,31.034 c -68.177,0 -132.272,26.549 -180.48,74.757 -48.208,48.208 -74.758,112.304 -74.758,180.48 0,68.176 26.549,132.272 74.758,180.48 48.208,48.208 112.304,74.758 180.48,74.758 68.176,0 132.272,-26.55 180.48,-74.758 48.208,-48.208 74.758,-112.304 74.758,-180.48 0,-68.177 -26.55,-132.272 -74.758,-180.48 z"
     fill="param(fill)"
     fill-opacity="param(fill-opacity)"
     stroke="param(outline)"
     stroke-opacity="param(outline-opacity)"
     stroke-width="param(outline-width)"
     id="path4"
     style="fill:#006680;fill-opacity:1;stroke:#ffffff;stroke-opacity:1;stroke-width:25;stroke-miterlimit:4;stroke-dasharray:none"
     sodipodi:nodetypes="sssscssss" />
  <path
     id="path0"
     d="m 390.08094,114.78463 c -4.75819,1.66732 -8.99934,4.9953 -10.49622,8.23663 -0.39515,0.85414 -1.06837,1.99964 -1.49781,2.54526 -1.77778,2.25959 -1.77968,11.75027 -0.003,13.99368 0.41421,0.52371 1.00648,1.51592 1.31595,2.20532 0.30852,0.68845 1.70827,2.57383 3.10992,4.18974 2.58716,2.98041 2.84045,3.26416 5.37808,6.00653 4.55634,4.9239 7.57104,8.49182 8.99173,10.64191 1.53211,2.31864 2.65001,3.82408 3.427,4.61536 1.09886,1.1179 3.67649,4.74964 3.67649,5.17812 0,0.21235 0.44088,0.92365 0.97887,1.58069 1.53973,1.87869 2.76333,3.72979 3.57651,5.40855 0.4123,0.85127 1.08837,1.85395 1.50354,2.22912 0.41421,0.37518 0.86365,1.1836 0.99791,1.79491 0.13428,0.61228 0.66084,1.60639 1.16933,2.21104 0.50847,0.60466 1.18549,1.83777 1.50353,2.74141 0.31899,0.90365 0.89318,1.99012 1.27597,2.41577 0.38278,0.42468 0.88554,1.33689 1.11598,2.0282 0.23139,0.69035 0.76844,1.69875 1.19408,2.23961 0.42564,0.54084 0.96268,1.68445 1.19312,2.53954 0.23044,0.85603 0.74558,1.97107 1.14455,2.4786 0.39994,0.50753 0.97602,1.76255 1.28073,2.78902 0.30471,1.02649 0.89984,2.30626 1.32167,2.84331 0.42278,0.53704 0.87794,1.60162 1.01124,2.36624 0.13426,0.76367 0.65132,2.10343 1.15027,2.97566 0.49801,0.87223 1.0979,2.5005 1.33215,3.6184 0.23329,1.1179 0.74462,2.55954 1.13504,3.20324 0.39135,0.64464 0.98172,2.34148 1.3131,3.77171 0.33231,1.43022 0.92269,3.22608 1.31309,3.99072 0.39041,0.76556 0.90175,2.49668 1.13598,3.84692 0.23521,1.35024 0.75796,3.24609 1.16171,4.21259 0.40469,0.96743 0.92078,3.02422 1.14837,4.5706 0.22757,1.54735 0.82746,4.18402 1.33214,5.85991 0.50563,1.67588 1.09884,4.95815 1.31881,7.29393 0.21995,2.33578 0.65892,5.07814 0.97411,6.09414 2.25292,7.24919 2.37005,48.86651 0.16188,57.68303 -0.39804,1.59114 -0.90746,4.83722 -1.13123,7.21299 -0.23519,2.4967 -0.78748,5.45522 -1.30835,7.01018 -0.49609,1.47973 -1.0122,3.88978 -1.1474,5.35619 -0.14283,1.54734 -0.63799,3.52508 -1.1798,4.71153 -0.51419,1.12552 -1.11217,3.16039 -1.33024,4.52205 -0.21709,1.36166 -0.79604,3.44129 -1.28548,4.62013 -0.48943,1.17884 -1.00172,2.92043 -1.13884,3.86978 -0.13616,0.94935 -0.59133,2.29006 -1.01029,2.97851 -0.41897,0.68845 -1.00649,2.30246 -1.30548,3.58603 -0.299,1.28264 -0.89128,2.80236 -1.31501,3.37559 -0.42373,0.57323 -0.95508,1.86252 -1.17978,2.8652 -0.22378,1.00173 -0.74655,2.37005 -1.16075,3.03945 -0.41326,0.66941 -1.00364,2.06535 -1.3112,3.1023 -0.30851,1.03601 -0.8865,2.2996 -1.28644,2.80713 -0.39897,0.50753 -0.91222,1.6178 -1.14169,2.46717 -0.22854,0.84843 -0.83033,2.02726 -1.33786,2.61763 -0.50847,0.59132 -1.03029,1.64161 -1.15979,2.33577 -0.13045,0.69322 -0.63132,1.73779 -1.11314,2.31959 -0.48181,0.58275 -1.07885,1.65113 -1.32548,2.37576 -0.24757,0.72369 -0.78556,1.67494 -1.19692,2.11201 -0.69226,0.73701 -1.55402,2.23008 -3.51747,6.09319 -0.42564,0.83795 -1.17883,2.00822 -1.67494,2.60049 -0.49515,0.59229 -0.90079,1.30453 -0.90079,1.58258 0,0.27804 -0.55704,1.20645 -1.23788,2.06248 -2.31767,2.91472 -2.84139,3.65649 -3.52126,4.99054 -0.37327,0.7332 -1.12647,1.88158 -1.67305,2.55098 -0.54751,0.66941 -1.50924,1.9168 -2.1377,2.76997 -0.62847,0.85413 -1.65685,2.21485 -2.2853,3.02232 -0.62847,0.80843 -1.82826,2.36339 -2.6662,3.45558 -0.83794,1.09122 -2.46623,2.95947 -3.6184,4.14973 -1.15218,1.19122 -2.37481,2.59573 -2.71762,3.12135 -0.34184,0.52561 -2.95184,3.3651 -5.79801,6.3103 -6.84163,7.07778 -7.97857,8.80889 -8.98982,13.68707 l -0.78747,3.80123 0.76748,3.67267 c 0.87318,4.18496 1.09504,4.87818 1.56162,4.87818 0.18283,0 0.67703,0.67702 1.09886,1.50353 0.80937,1.58544 4.77533,5.1429 7.87953,7.06636 2.48624,1.54163 11.86552,1.75493 14.22223,0.32376 0.73321,-0.44469 2.27579,-1.07982 3.42795,-1.41023 2.23485,-0.64179 7.4501,-5.50378 13.95085,-13.00624 1.45116,-1.67589 3.6203,-4.07451 4.81914,-5.33048 1.19787,-1.25692 2.17865,-2.411 2.17865,-2.56525 0,-0.15427 0.4266,-0.75415 0.94745,-1.33405 0.52086,-0.57991 1.82063,-2.25389 2.88806,-3.72029 1.06743,-1.4664 2.26721,-2.9709 2.66713,-3.34417 0.39898,-0.3723 0.98936,-1.18645 1.3112,-1.8092 0.32185,-0.62178 0.73131,-1.13122 0.91032,-1.13122 0.17806,0 0.54466,-0.53134 0.81414,-1.18074 0.26852,-0.64941 1.01791,-1.84062 1.66446,-2.6462 1.88158,-2.34434 2.63762,-3.40319 3.65173,-5.11812 2.00059,-3.38131 2.50526,-4.1526 3.4689,-5.29906 0.54562,-0.65037 1.20169,-1.82349 1.45688,-2.60714 0.25521,-0.78368 0.69417,-1.55498 0.97603,-1.71399 0.49609,-0.27995 1.71016,-2.34625 3.80408,-6.47788 0.55798,-1.09981 1.16645,-1.99965 1.35213,-1.99965 0.18569,0 0.54753,-0.72845 0.80463,-1.61876 0.25614,-0.89033 0.93506,-2.30435 1.50639,-3.14229 0.57228,-0.83796 1.15027,-2.06249 1.28453,-2.72238 0.13426,-0.65892 0.58085,-1.50259 0.99316,-1.87585 0.4123,-0.37231 1.01029,-1.57591 1.32929,-2.67382 0.31898,-1.09789 0.82841,-2.20246 1.13217,-2.45384 0.30376,-0.25233 0.80556,-1.31024 1.11408,-2.35005 0.30947,-1.04076 0.89699,-2.43385 1.30548,-3.0966 0.40946,-0.66368 0.95221,-2.06248 1.20646,-3.10991 0.25424,-1.04744 0.85318,-2.43291 1.33215,-3.0785 0.47895,-0.6456 0.99315,-1.84538 1.14265,-2.66619 0.14949,-0.82081 0.76271,-2.47288 1.36261,-3.67173 0.59989,-1.19787 1.09028,-2.65476 1.09028,-3.23751 0,-0.5818 0.50276,-2.11962 1.11599,-3.41653 0.61417,-1.29691 1.23311,-3.18229 1.3769,-4.18973 0.14378,-1.00743 0.66845,-2.65666 1.16646,-3.66506 0.49705,-1.00839 1.0779,-2.91662 1.28929,-4.23924 0.21139,-1.32357 0.78939,-3.49842 1.28548,-4.83247 0.4961,-1.33405 1.02267,-3.52508 1.16931,-4.86864 0.14665,-1.34358 0.66941,-3.74315 1.16075,-5.33239 0.49229,-1.58924 1.1017,-4.77439 1.3531,-7.07874 0.25138,-2.30435 0.78081,-5.38952 1.17692,-6.85591 0.39518,-1.46641 0.89699,-5.15146 1.11505,-8.18902 0.21805,-3.03755 0.7332,-9.55068 1.14456,-14.47361 0.8227,-9.85252 0.95602,-19.42604 0.33898,-24.35183 -0.22091,-1.75587 -0.72464,-7.83573 -1.1198,-13.51186 -0.44087,-6.32648 -0.94936,-11.05517 -1.31405,-12.22258 -0.32756,-1.04743 -0.86271,-4.17925 -1.18931,-6.96066 -0.32756,-2.78045 -0.93316,-6.03702 -1.34643,-7.2368 -0.41325,-1.19883 -1.0122,-3.79646 -1.33023,-5.77135 -0.319,-1.97394 -0.91127,-4.31923 -1.31787,-5.21049 -0.40564,-0.89127 -0.91127,-2.84044 -1.12265,-4.33066 -0.21139,-1.49021 -0.71226,-3.35368 -1.11409,-4.14116 -0.40184,-0.78748 -0.9265,-2.5367 -1.1655,-3.88692 -0.23806,-1.35024 -0.82938,-3.2261 -1.31406,-4.16879 -0.48371,-0.94268 -1.07503,-2.63381 -1.315,-3.75743 -0.23995,-1.12455 -0.76939,-2.51288 -1.17788,-3.0861 -0.40755,-0.57323 -0.92937,-1.88157 -1.15789,-2.90806 -0.22854,-1.02553 -0.74558,-2.42528 -1.14837,-3.11086 -0.40279,-0.68465 -1.0103,-2.20247 -1.35118,-3.37275 -0.33994,-1.17025 -1.02934,-2.73283 -1.53211,-3.47365 -0.50182,-0.73987 -0.91318,-1.67304 -0.91318,-2.07392 0,-0.88746 -0.89222,-2.67286 -1.64922,-3.30132 -0.30566,-0.25424 -0.67322,-1.08456 -0.81605,-1.84537 -0.14283,-0.76082 -0.65893,-1.91204 -1.14741,-2.55765 -0.48849,-0.64559 -1.0741,-1.8749 -1.30167,-2.7319 -0.22854,-0.85794 -0.75891,-1.87014 -1.17979,-2.25102 -0.42088,-0.38089 -0.93983,-1.34261 -1.15407,-2.13771 -0.21426,-0.79509 -0.78844,-1.92537 -1.27693,-2.51098 -0.48752,-0.58561 -1.09123,-1.69398 -1.34261,-2.46241 -0.25043,-0.76843 -0.72178,-1.61877 -1.04743,-1.88919 -0.32566,-0.27043 -1.01315,-1.355 -1.5283,-2.41099 -1.91109,-3.91455 -2.70904,-5.29715 -3.31083,-5.73707 -0.33995,-0.24853 -0.95508,-1.21598 -1.36834,-2.1501 -0.41325,-0.93316 -1.0998,-2.01297 -1.52638,-2.39957 -0.42659,-0.38564 -0.77606,-0.90269 -0.77606,-1.14741 0,-0.24567 -0.43707,-0.857 -0.97221,-1.3588 -0.53419,-0.50278 -1.30263,-1.60354 -1.70636,-2.44718 -0.40374,-0.84367 -1.29501,-2.25199 -1.97965,-3.12898 -0.68558,-0.87794 -2.04248,-2.61476 -3.01755,-3.8593 -0.97411,-1.2455 -1.98155,-2.67001 -2.2396,-3.1661 -0.4104,-0.79129 -3.36225,-4.36493 -5.93418,-7.18633 -0.47801,-0.52373 -2.80616,-3.17944 -5.17431,-5.90181 -10.32481,-11.8693 -16.05713,-14.59358 -24.49181,-11.63697 m -263.95259,20.68869 c -3.10135,0.95411 -7.0159,4.09735 -7.85574,6.30839 -1.52545,4.00976 -1.47593,-1.7235 -1.47593,171.86737 v 165.6599 h 12.1883 12.18829 V 312.75876 c 0,-160.51035 -0.0257,-166.64068 -0.69987,-169.07548 -1.69209,-6.09987 -8.51467,-10.00489 -14.34505,-8.20996 m 61.89369,35.13657 c -1.36166,0.27708 -3.75361,0.70654 -5.31524,0.95316 -1.67684,0.26471 -3.68792,0.90079 -4.91054,1.55306 -1.1379,0.60751 -2.28913,1.10456 -2.5586,1.10456 -0.26853,0 -0.97411,0.4085 -1.56829,0.90841 -0.59323,0.49991 -1.70065,1.16836 -2.4586,1.48546 -1.9806,0.82747 -11.37416,10.40003 -11.37416,11.59029 0,0.19712 -0.51229,1.13314 -1.13981,2.07868 -2.63,3.97263 -2.4786,-2.05582 -2.4786,98.39288 0,99.57935 -0.0762,96.19328 2.25103,99.55269 0.54275,0.78176 0.98649,1.60351 0.98649,1.82443 0,0.22091 0.59799,1.15503 1.32928,2.07486 0.7313,0.91984 1.33119,1.85015 1.3331,2.06916 0.002,0.21805 0.6037,1.07505 1.33596,1.90442 2.49288,2.8195 1.94346,2.30912 6.28553,5.84276 0.73321,0.59704 2.03012,1.43784 2.88235,1.87015 0.85127,0.43135 1.76349,1.04362 2.02535,1.35975 0.26281,0.31614 1.02268,0.68749 1.68922,0.82557 0.6656,0.13807 1.8149,0.65893 2.55287,1.15884 3.1442,2.1282 14.00894,3.28418 19.78884,2.10534 2.15772,-0.43992 4.37066,-0.80082 4.91817,-0.80082 0.54658,-9.5e-4 2.18437,-0.60084 3.63841,-1.33309 1.45402,-0.7332 2.8252,-1.3369 3.04706,-1.34261 0.22188,-0.005 1.07601,-0.51991 1.89871,-1.14265 0.82272,-0.62275 1.6597,-1.13219 1.85873,-1.13219 0.33422,0 0.99124,-0.53229 4.91721,-3.98595 2.05296,-1.80634 6.2884,-6.88448 6.59025,-7.9024 0.14283,-0.47897 0.66655,-1.47497 1.16454,-2.21293 2.36721,-3.50509 2.2558,1.31882 2.2558,-97.87869 0,-98.67569 0.0639,-95.74288 -2.15104,-99.30035 -0.49229,-0.79223 -1.19693,-2.04058 -1.56544,-2.77473 -0.68559,-1.36833 -1.72064,-2.92519 -3.59745,-5.41236 -1.4226,-1.88443 -6.7845,-6.47409 -8.71273,-7.45772 -0.85033,-0.43326 -1.7673,-1.056 -2.03964,-1.38452 -0.27232,-0.32756 -1.20359,-0.78176 -2.07009,-1.00934 -0.86558,-0.22663 -2.1739,-0.81128 -2.90712,-1.29882 -2.71283,-1.80348 -13.50424,-3.18134 -17.90155,-2.2853 m 144.35513,2.12534 c -0.7332,0.4561 -1.84728,1.00362 -2.47573,1.21691 -1.18552,0.40184 -6.10844,5.18289 -7.85669,7.63102 -2.36339,3.30894 -2.29959,14.24984 0.10099,17.27025 0.59989,0.75511 1.09028,1.5083 1.09028,1.67494 0,0.25043 3.84503,4.94387 8.55753,10.44765 1.82632,2.13296 2.76044,3.42511 3.44032,4.76106 0.37327,0.7332 1.09505,1.84728 1.60353,2.47574 1.50545,1.85682 2.72998,3.71934 3.3813,5.14195 0.33613,0.73319 0.93126,1.68064 1.32357,2.10532 0.39136,0.42565 0.98078,1.53497 1.30929,2.46528 0.32851,0.93032 0.91793,2.03964 1.30929,2.46528 0.39232,0.42468 0.87508,1.37213 1.07505,2.10533 0.199,0.73321 0.81509,1.99965 1.36928,2.81474 0.55419,0.81509 1.00744,1.86158 1.00744,2.3272 0,0.46468 0.48753,1.7692 1.08362,2.89853 0.59608,1.12933 1.29404,2.90996 1.5521,3.9574 0.25805,1.04743 0.77605,2.41861 1.15122,3.04706 0.37516,0.62847 0.89222,2.25294 1.14932,3.60889 0.25804,1.3569 0.80271,3.12134 1.2112,3.92214 0.40851,0.80082 0.91508,2.8614 1.12647,4.58014 0.21234,1.71873 0.71417,4.15259 1.11599,5.40951 2.25674,7.05397 2.38338,39.27012 0.17997,45.51663 -0.32851,0.9303 -0.85984,3.32226 -1.18074,5.31619 -0.32089,1.99297 -0.89984,4.14021 -1.28644,4.77153 -0.38659,0.63132 -0.91508,2.26149 -1.17312,3.62316 -0.25901,1.36165 -0.85699,3.16133 -1.32928,3.99928 -0.47326,0.83795 -0.97888,2.12343 -1.12457,2.85663 -0.14568,0.73321 -0.65893,2.01869 -1.1398,2.85664 -0.48087,0.83794 -1.0798,2.29483 -1.33023,3.23751 -0.25043,0.94269 -0.77606,2.06154 -1.16932,2.48622 -0.39326,0.42564 -0.98268,1.53116 -1.30929,2.45766 -0.3266,0.92555 -0.88365,2.00345 -1.23787,2.39481 -0.87413,0.9665 -2.18247,3.12515 -3.28418,5.42094 -0.50277,1.04743 -1.27786,2.23103 -1.72064,2.63 -0.44373,0.39898 -0.80653,0.91699 -0.80653,1.15122 0,0.23424 -0.48752,1.02173 -1.08457,1.75016 -0.59608,0.72844 -1.30928,1.75302 -1.58447,2.27674 -0.27518,0.52372 -0.91126,1.3807 -1.41308,1.90442 -0.50087,0.52372 -2.48051,2.83759 -4.39826,5.14194 -3.19753,3.84312 -9.05077,10.48289 -10.65905,12.09213 -0.3666,0.36755 -0.66655,0.84936 -0.66655,1.07219 0,0.22282 -0.53323,1.5102 -1.18455,2.86139 -5.79325,12.01118 10.59335,29.98226 21.87133,23.98618 0.96554,-0.51323 2.48241,-1.12932 3.37178,-1.36927 3.26418,-0.8789 11.2437,-8.82033 18.86234,-18.7738 0.6675,-0.87221 1.65304,-2.10056 2.19009,-2.72902 2.34814,-2.75094 3.2099,-3.90313 3.98691,-5.33239 0.88459,-1.62733 2.32528,-3.70791 3.427,-4.95148 0.37136,-0.41899 0.89793,-1.32454 1.16931,-2.01203 0.27138,-0.6875 0.94174,-1.83872 1.49021,-2.55859 1.46927,-1.93204 2.96042,-4.43921 3.28418,-5.52283 0.15616,-0.52371 0.77605,-1.62827 1.37784,-2.45575 0.60275,-0.82652 1.09504,-1.78254 1.09504,-2.12438 0,-0.34185 0.49897,-1.37975 1.10837,-2.3053 0.60943,-0.9265 1.29597,-2.3929 1.52545,-3.25846 0.23044,-0.86651 0.67607,-1.78826 0.99125,-2.05011 0.31519,-0.26091 0.84557,-1.43785 1.17885,-2.61478 0.33327,-1.17788 0.99696,-2.82616 1.47402,-3.6641 0.478,-0.83795 0.99125,-2.29483 1.14074,-3.23752 0.14949,-0.94269 0.67607,-2.41671 1.17027,-3.2756 0.4942,-0.85889 1.07124,-2.63667 1.28262,-3.95168 0.21235,-1.31501 0.75321,-3.09659 1.20264,-3.95834 0.44946,-0.86271 1.05982,-3.19752 1.35596,-5.18954 0.29614,-1.99203 0.86555,-4.57348 1.26453,-5.73707 0.44755,-1.30263 0.96268,-4.71916 1.34072,-8.88318 0.33802,-3.72123 0.78748,-7.56816 0.99982,-8.54895 0.71987,-3.32512 0.8589,-18.1139 0.20949,-22.36076 -0.3209,-2.10058 -0.87032,-6.98542 -1.22074,-10.8552 -0.41516,-4.58299 -0.94744,-8.09666 -1.52735,-10.082 -0.49038,-1.6759 -0.99981,-4.16116 -1.13312,-5.52283 -0.13332,-1.36166 -0.65607,-3.39653 -1.16075,-4.52109 -0.50562,-1.12552 -1.0979,-3.18229 -1.31691,-4.57062 -0.219,-1.38927 -0.75606,-3.21085 -1.19312,-4.0488 -0.43706,-0.83794 -1.03409,-2.5405 -1.32739,-3.78314 -0.29327,-1.24262 -0.86174,-2.79091 -1.26262,-3.44033 -0.40183,-0.64941 -0.90937,-1.97965 -1.12742,-2.95566 -0.21901,-0.97602 -0.82842,-2.4091 -1.35404,-3.18324 -0.52467,-0.77415 -0.95602,-1.68447 -0.95602,-2.02154 -9.6e-4,-0.33709 -0.60084,-1.80349 -1.3331,-3.25751 -0.7332,-1.45403 -1.33215,-2.84521 -1.33215,-3.08992 0,-0.24473 -0.50275,-1.07791 -1.11693,-1.8511 -0.61418,-0.77225 -1.22359,-1.89205 -1.35405,-2.48813 -0.1314,-0.59608 -0.56466,-1.37881 -0.96458,-1.74065 -0.39898,-0.36088 -0.92365,-1.27882 -1.16647,-2.03867 -0.24282,-0.76083 -0.82937,-1.8111 -1.30262,-2.33483 -0.4742,-0.52371 -1.2274,-1.7235 -1.67494,-2.66619 -1.08933,-2.29674 -2.54812,-4.65346 -3.17848,-5.13242 -0.28185,-0.21519 -1.3569,-1.67588 -2.38719,-3.24704 -1.85681,-2.82901 -3.06136,-4.45443 -4.93721,-6.66546 -0.53419,-0.62847 -1.66351,-1.99965 -2.51098,-3.04708 -0.84651,-1.04744 -2.08725,-2.5662 -2.75665,-3.37559 -0.66941,-0.80938 -1.64543,-1.99108 -2.16914,-2.62524 -0.97126,-1.17599 -2.50812,-2.71762 -3.90882,-3.92121 -0.42945,-0.36945 -1.48259,-0.94555 -2.33958,-1.28073 -0.85794,-0.33516 -2.06535,-0.95126 -2.68333,-1.36832 -1.79492,-1.21312 -10.51908,-1.3188 -12.39778,-0.15044 m -52.56205,61.27571 c -0.73319,0.39611 -2.13103,0.91698 -3.10704,1.15597 -2.79094,0.68465 -9.04887,7.10349 -9.65066,9.89825 -0.15807,0.73319 -0.60847,2.15388 -1.00173,3.15657 -0.96936,2.47384 -0.89794,4.94578 0.23805,8.19663 0.52372,1.49878 0.95221,2.95755 0.95221,3.24227 0,0.60846 1.26263,2.36339 4.29067,5.96275 1.20834,1.43593 2.43575,3.18228 2.72808,3.88121 0.29327,0.69892 0.95792,1.7635 1.47687,2.36719 0.51992,0.60276 1.05315,1.77588 1.18646,2.60525 0.13236,0.83032 0.57228,2.15867 0.97697,2.95186 1.95679,3.8355 2.07106,17.17979 0.17235,20.09355 -0.30376,0.46562 -0.80653,1.82347 -1.1179,3.0185 -0.31136,1.19408 -0.89032,2.52717 -1.28738,2.96138 -0.39708,0.43516 -1.09029,1.47592 -1.54068,2.31386 -1.04459,1.94347 -2.36339,3.64792 -4.9496,6.3941 -1.13503,1.2055 -2.24911,2.50813 -2.47573,2.89472 -0.22664,0.38756 -0.73035,1.15218 -1.11885,1.70065 -1.84349,2.60049 -2.17295,12.80628 -0.50659,15.69148 1.41499,2.44908 2.13581,3.50415 3.59651,5.26383 0.89126,1.07504 2.02249,2.21103 2.51383,2.52525 0.49133,0.31424 1.31785,0.87223 1.83681,1.23883 2.56336,1.81397 9.27453,2.66905 12.72535,1.62162 1.02839,-0.31139 2.21294,-0.57133 2.63191,-0.57704 2.44432,-0.0304 13.51282,-10.02393 15.62292,-14.10414 0.3209,-0.62086 0.73701,-1.12933 0.92364,-1.12933 0.18663,0 0.63322,-0.76843 0.99221,-1.70827 0.35898,-0.93983 0.90555,-1.9187 1.21407,-2.17485 0.30947,-0.25709 0.97983,-1.41022 1.48925,-2.56335 0.51039,-1.15407 1.1617,-2.36053 1.44831,-2.68142 0.28663,-0.32185 0.72273,-1.35595 0.97126,-2.29863 0.24758,-0.9427 0.76653,-2.05678 1.15313,-2.47575 0.38755,-0.41898 0.96744,-2.02821 1.28929,-3.57556 0.3228,-1.54734 0.857,-3.22609 1.1874,-3.73075 2.64811,-4.04119 2.49384,-31.70957 -0.2009,-36.1145 -0.3847,-0.62845 -0.89889,-2.25007 -1.14266,-3.60412 -0.24377,-1.35405 -0.84176,-3.15373 -1.32738,-3.99929 -0.48563,-0.84556 -1.00459,-2.13771 -1.15218,-2.8709 -0.1476,-0.73321 -0.58752,-1.68066 -0.97696,-2.10535 -0.3885,-0.42563 -0.9665,-1.5083 -1.28359,-2.40623 -0.31709,-0.89794 -0.93602,-2.09296 -1.37499,-2.65572 -0.43896,-0.56181 -1.55115,-2.2215 -2.47099,-3.68792 -4.17068,-6.65118 -10.93232,-13.52139 -13.30714,-13.52139 -0.4266,0 -1.58067,-0.4285 -2.56431,-0.95221 -2.31958,-1.23501 -6.95684,-1.33689 -9.06029,-0.199"
     stroke="none"
     fill="#060606"
     fill-rule="evenodd"
     style="fill:#ffffff;stroke-width:0.95221" />
</svg>
