<?xml version="1.0" encoding="UTF-8" standalone="no"?>
<svg
   id="svg"
   version="1.1"
   width="391.83249"
   height="391.81973"
   viewBox="0 0 391.83249 391.81974"
   sodipodi:docname="port.svg"
   inkscape:version="1.1 (c68e22c387, 2021-05-23)"
   xmlns:inkscape="http://www.inkscape.org/namespaces/inkscape"
   xmlns:sodipodi="http://sodipodi.sourceforge.net/DTD/sodipodi-0.dtd"
   xmlns="http://www.w3.org/2000/svg"
   xmlns:svg="http://www.w3.org/2000/svg">
  <defs
     id="defs8" />
  <sodipodi:namedview
     id="namedview6"
     pagecolor="#ffffff"
     bordercolor="#666666"
     borderopacity="1.0"
     inkscape:pageshadow="2"
     inkscape:pageopacity="0.0"
     inkscape:pagecheckerboard="0"
     showgrid="false"
     fit-margin-top="1"
     lock-margins="true"
     fit-margin-left="1"
     fit-margin-right="1"
     fit-margin-bottom="1"
     inkscape:zoom="0.73673131"
     inkscape:cx="272.82674"
     inkscape:cy="448.60317"
     inkscape:window-width="1920"
     inkscape:window-height="1009"
     inkscape:window-x="-8"
     inkscape:window-y="-8"
     inkscape:window-maximized="1"
     inkscape:current-layer="svg" />
  <path
     id="path0"
     d="m 365.86309,11.468082 c 4.41008,0.943979 8.1523,4.799508 9.06854,9.343119 0.38912,1.925869 0.3882,348.264799 -9.2e-4,350.184979 -0.93096,4.60237 -4.60051,8.38302 -9.06762,9.34312 -1.86376,0.39996 -338.024404,0.4009 -339.893675,0 -4.410082,-0.94398 -8.152304,-4.79951 -9.069461,-9.34312 -0.387285,-1.92208 -0.387285,-348.262901 0,-350.184979 0.892319,-4.419453 4.443199,-8.196317 8.707014,-9.261611 1.740483,-0.435026 338.231382,-0.515587 340.256122,-0.08151"
     stroke="none"
     fill="#fbfbfb"
     fill-rule="evenodd"
     style="fill:#aa4400;stroke-width:0.999998"
     sodipodi:nodetypes="ccccccccc" />
  <path
     id="path1"
     d="m 10.78075,1.3898476 c -4.635,1.124 -8.495,5.1090001 -9.465,9.7720004 -0.421,2.028 -0.421,367.455002 0,369.483002 0.997,4.794 5.065,8.862 9.859,9.858 2.032,0.423 367.457,0.422 369.483,0 4.856,-1.013 8.845,-5.002 9.857,-9.858 0.423,-2.026 0.424,-367.451002 0.001,-369.483002 -0.996,-4.7940003 -5.064,-8.8620004 -9.858,-9.8580004 -2.201,-0.45800004 -367.985,-0.37300004 -369.877,0.086 m 359.884,194.5140024 v 174.748 h -174.749 -174.748 V 195.90385 21.154848 h 174.748 174.749 V 195.90385 M 59.04575,45.088848 c -4.419,0.856 -8.584,4.7 -10.018,9.243 l -0.593,1.88 v 138.348002 138.348 l 0.593,1.881 c 4.434,14.055 24.535,11.889 26.162,-2.82 0.156,-1.405 0.225,-54.96 0.181,-139.155 l -0.073,-136.870002 -0.594,-1.746 c -2.247,-6.596 -8.839,-10.431 -15.658,-9.109 m 269.443,1.343 c -4.42,0.856 -8.585,4.7 -10.018,9.243 l -0.594,1.881 v 138.348002 138.347 l 0.594,1.881 c 4.434,14.055 24.535,11.889 26.162,-2.82 0.155,-1.405 0.225,-54.96 0.18,-139.155 l -0.072,-136.870002 -0.595,-1.746 c -2.247,-6.596 -8.838,-10.431 -15.657,-9.109 m -226.908,28.027 c -4.636001,1.124 -8.496,5.109 -9.465,9.772 -0.421,2.024 -0.421,221.052002 0,223.076002 0.996,4.794 5.063999,8.862 9.858,9.859 2.002,0.416 69.295,0.416 71.297,0 4.842,-1.007 8.846,-5.011 9.857,-9.859 0.422,-2.022 0.422,-221.048002 0.001,-223.076002 -0.997,-4.794 -5.065,-8.862 -9.858,-9.858 -2.166,-0.45 -69.814,-0.369 -71.69,0.086 m 116.767,-0.143 c 0,0.131 -0.454,0.322 -1.008,0.423 -4.25,0.781 -8.485,5.159 -9.442,9.761 -0.421,2.024 -0.421,221.052002 0,223.076002 0.762,3.664 3.441,7.112 6.86,8.826 l 1.843,0.925 36.266,0.08 c 26.11,0.058 36.718,-0.005 37.878,-0.223 4.935,-0.929 9.017,-4.941 10.046,-9.877 0.421,-2.022 0.422,-221.048002 10e-4,-223.076002 -0.997,-4.794 -5.065,-8.862 -9.859,-9.858 -1.767,-0.368 -72.585,-0.424 -72.585,-0.057 m -54.169,83.853002 c 3.006,1.125 5.119,3.348 6.081,6.4 0.749,2.373 0.851,54.212 0.112,56.739 -2.837,9.701 -16.457,9.701 -19.294,0 -0.739,-2.527 -0.637,-54.366 0.112,-56.739 1.716,-5.441 7.688,-8.383 12.989,-6.4 m 69.308,0 c 3.007,1.125 5.119,3.348 6.082,6.4 0.748,2.373 0.85,54.212 0.111,56.739 -2.836,9.701 -16.457,9.701 -19.294,0 -0.739,-2.527 -0.637,-54.366 0.112,-56.739 1.716,-5.441 7.689,-8.383 12.989,-6.4"
     stroke="none"
     fill="#040404"
     fill-rule="evenodd"
     style="fill:#ffffff" />
</svg>
