<?xml version="1.0" encoding="UTF-8" standalone="no"?>
<svg
   id="svg"
   version="1.1"
   width="400"
   height="400"
   viewBox="0, 0, 400,400"
   sodipodi:docname="radioaktiv.svg"
   inkscape:version="1.1 (c68e22c387, 2021-05-23)"
   xmlns:inkscape="http://www.inkscape.org/namespaces/inkscape"
   xmlns:sodipodi="http://sodipodi.sourceforge.net/DTD/sodipodi-0.dtd"
   xmlns="http://www.w3.org/2000/svg"
   xmlns:svg="http://www.w3.org/2000/svg">
  <defs
     id="defs9" />
  <sodipodi:namedview
     id="namedview7"
     pagecolor="#ffffff"
     bordercolor="#666666"
     borderopacity="1.0"
     inkscape:pageshadow="2"
     inkscape:pageopacity="0.0"
     inkscape:pagecheckerboard="0"
     showgrid="false"
     lock-margins="true"
     inkscape:zoom="0.36415999"
     inkscape:cx="337.76363"
     inkscape:cy="6.8651144"
     inkscape:window-width="1920"
     inkscape:window-height="1009"
     inkscape:window-x="-8"
     inkscape:window-y="-8"
     inkscape:window-maximized="1"
     inkscape:current-layer="svg" />
  <rect
     style="fill:#f7c226;fill-opacity:1;stroke:#000000;stroke-width:25;stroke-miterlimit:4;stroke-dasharray:none"
     id="rect1148"
     width="261.2883"
     height="261.2883"
     x="156.73447"
     y="-132.58589"
     transform="rotate(45)" />
  <path
     id="path0"
     d="m 146.04882,114.64481 c -14.195,8.851 -25.905,20.889 -32.802,33.719 -0.946,1.76 -1.866,3.47 -2.045,3.8 -0.821,1.515 -3.153,6.861 -3.153,7.229 0,0.226 -0.267,0.926 -0.592,1.556 -3.686,7.127 -6.854,31.315 -5.177,39.515 l 0.184,0.9 h 34.521 34.522 l 0.505,-3.9 c 1.547,-11.926 4.52,-17.482 12.037,-22.491 1.43,-0.953 2.658,-1.778 2.729,-1.834 0.134,-0.104 -1.809,-3.359 -5.072,-8.501 -1.021,-1.609 -4.185,-6.649 -7.031,-11.2 -6.969,-11.145 -8.52,-13.594 -9.802,-15.474 -0.6,-0.88 -1.206,-1.87 -1.346,-2.2 -0.576,-1.359 -14.145,-22.553 -14.497,-22.643 -0.209,-0.054 -1.551,0.632 -2.981,1.524 m 109.789,5.219 c -2.376,3.795 -5.074,8.07 -5.996,9.5 -0.922,1.43 -3.098,4.894 -4.835,7.697 -3.184,5.139 -5.853,9.407 -9.03,14.443 -0.95,1.506 -2.078,3.306 -2.505,4 -0.428,0.693 -2.93,4.675 -5.561,8.848 -5.893,9.35 -5.697,8.617 -2.803,10.46 7.766,4.944 10.702,10.601 12.43,23.952 l 0.311,2.4 34.746,0.102 34.747,0.102 -0.193,-10.702 c -0.198,-10.949 -0.299,-11.828 -2.356,-20.502 -5.327,-22.468 -20.651,-42.895 -41.796,-55.713 -1.349,-0.818 -2.54,-1.487 -2.646,-1.487 -0.107,0 -2.138,3.105 -4.513,6.9 m -55.989,66.255 c -15.98,4.179 -15.802,27.984 0.242,32.43 20.2,5.598 30.289,-22.6 11.358,-31.744 -1.748,-0.845 -9.288,-1.291 -11.6,-0.686 m -11.314,46.179 c -0.195,0.256 -2.215,3.706 -4.488,7.666 -2.274,3.96 -5.244,9.09 -6.602,11.4 -1.357,2.31 -4.769,8.16 -7.582,13 -2.812,4.84 -6.475,11.14 -8.139,14 -6.56,11.272 -8.508,14.698 -8.394,14.762 0.065,0.037 0.839,0.542 1.719,1.123 2.199,1.45 10.28,5.547 13.2,6.691 1.32,0.518 2.94,1.169 3.6,1.447 23.373,9.85 54.079,6.971 78.3,-7.344 3.01,-1.778 3.479,-2.307 2.751,-3.099 -0.192,-0.209 -1.112,-1.82 -2.044,-3.58 -0.933,-1.76 -3.72,-6.98 -6.195,-11.6 -2.474,-4.62 -5.356,-10.02 -6.404,-12 -2.002,-3.784 -3.693,-6.937 -5.684,-10.6 -0.658,-1.21 -3.592,-6.7 -6.52,-12.2 -2.928,-5.5 -5.364,-10.052 -5.413,-10.116 -0.049,-0.063 -1.237,0.423 -2.64,1.082 -9.978,4.682 -16.526,4.914 -24.965,0.883 -3.002,-1.434 -4.243,-1.852 -4.5,-1.515"
     stroke="none"
     fill="#060505"
     fill-rule="evenodd"
     sodipodi:nodetypes="cscscsccccscscsccccscsccccccccccscccccccccccccccsccccsccsc" />
</svg>
