<?xml version="1.0" encoding="UTF-8" standalone="no"?>
<svg
   id="svg"
   version="1.1"
   width="391.83249"
   height="391.81973"
   viewBox="0 0 391.83249 391.81974"
   sodipodi:docname="speaker.svg"
   inkscape:version="1.1 (c68e22c387, 2021-05-23)"
   xmlns:inkscape="http://www.inkscape.org/namespaces/inkscape"
   xmlns:sodipodi="http://sodipodi.sourceforge.net/DTD/sodipodi-0.dtd"
   xmlns="http://www.w3.org/2000/svg"
   xmlns:svg="http://www.w3.org/2000/svg">
  <defs
     id="defs8" />
  <sodipodi:namedview
     id="namedview6"
     pagecolor="#ffffff"
     bordercolor="#666666"
     borderopacity="1.0"
     inkscape:pageshadow="2"
     inkscape:pageopacity="0.0"
     inkscape:pagecheckerboard="0"
     showgrid="false"
     fit-margin-top="1"
     lock-margins="true"
     fit-margin-left="1"
     fit-margin-right="1"
     fit-margin-bottom="1"
     inkscape:zoom="1.4734626"
     inkscape:cx="149.98684"
     inkscape:cy="274.52342"
     inkscape:window-width="1920"
     inkscape:window-height="1009"
     inkscape:window-x="-8"
     inkscape:window-y="-8"
     inkscape:window-maximized="1"
     inkscape:current-layer="svg" />
  <path
     id="path0"
     d="m 365.86309,11.468082 c 4.41008,0.943979 8.1523,4.799508 9.06854,9.343119 0.38912,1.925869 0.3882,348.264799 -9.2e-4,350.184979 -0.93096,4.60237 -4.60051,8.38302 -9.06762,9.34312 -1.86376,0.39996 -338.024404,0.4009 -339.893675,0 -4.410082,-0.94398 -8.152304,-4.79951 -9.069461,-9.34312 -0.387285,-1.92208 -0.387285,-348.262901 0,-350.184979 0.892319,-4.419453 4.443199,-8.196317 8.707014,-9.261611 1.740483,-0.435026 338.231382,-0.515587 340.256122,-0.08151"
     stroke="none"
     fill="#fbfbfb"
     fill-rule="evenodd"
     style="fill:#aa4400;stroke-width:0.999998"
     sodipodi:nodetypes="ccccccccc" />
  <path
     id="path1"
     d="m 10.78075,1.3898476 c -4.635,1.124 -8.495,5.1090001 -9.465,9.7720004 -0.421,2.028 -0.421,367.455002 0,369.483002 0.997,4.794 5.065,8.862 9.859,9.858 2.032,0.423 367.457,0.422 369.483,0 4.856,-1.013 8.845,-5.002 9.857,-9.858 0.423,-2.026 0.424,-367.451002 0.001,-369.483002 -0.996,-4.7940003 -5.064,-8.8620004 -9.858,-9.8580004 -2.201,-0.45800004 -367.985,-0.37300004 -369.877,0.086 m 359.884,194.5140024 v 174.748 h -174.749 -174.748 V 195.90385 21.154848 h 174.748 174.749 V 195.90385"
     stroke="none"
     fill="#040404"
     fill-rule="evenodd"
     style="fill:#ffffff"
     sodipodi:nodetypes="cccccccccccccccccc" />
  <g
     id="g913"
     transform="matrix(4.7119465,0,0,4.688069,-5.8494226,18.4024)"
     style="fill:#ffffff;stroke:#ffffff;stroke-width:1.41844;stroke-opacity:1">
    <path
       d="M 39.389035,13.769 26.256559,28.606 H 13.827635 V 47.699 H 26.06823 L 39.389035,62.75 Z"
       style="fill:#ffffff;stroke:#ffffff;stroke-width:7.0922;stroke-linejoin:round;stroke-opacity:1"
       id="path2" />
    <path
       d="m 49.296293,27.744766 c 4.263804,6.496183 4.263804,14.903817 0,21.4 m 7.1,-28.5 c 7.801725,10.584358 7.801725,25.015642 0,35.6 m 7.364195,-41.955234 c 11.402479,14.193572 11.402479,34.406428 0,48.6"
       style="fill:#aa4400;stroke:#ffffff;stroke-width:7.0922;stroke-linecap:round;stroke-opacity:1"
       id="path4"
       sodipodi:nodetypes="cccccc" />
  </g>
</svg>
