<?xml version="1.0" encoding="UTF-8" standalone="no"?>
<svg
   id="svg"
   version="1.1"
   width="438.8504"
   height="269.51834"
   viewBox="0 0 438.8504 269.51833"
   sodipodi:docname="tunnelpladser.svg"
   inkscape:version="1.1 (c68e22c387, 2021-05-23)"
   xmlns:inkscape="http://www.inkscape.org/namespaces/inkscape"
   xmlns:sodipodi="http://sodipodi.sourceforge.net/DTD/sodipodi-0.dtd"
   xmlns="http://www.w3.org/2000/svg"
   xmlns:svg="http://www.w3.org/2000/svg">
  <defs
     id="defs8" />
  <sodipodi:namedview
     id="namedview6"
     pagecolor="#ffffff"
     bordercolor="#666666"
     borderopacity="1.0"
     inkscape:pageshadow="2"
     inkscape:pageopacity="0.0"
     inkscape:pagecheckerboard="0"
     showgrid="false"
     fit-margin-bottom="3"
     lock-margins="true"
     fit-margin-top="3"
     fit-margin-left="3"
     fit-margin-right="3"
     inkscape:zoom="1.32875"
     inkscape:cx="287.86453"
     inkscape:cy="255.50329"
     inkscape:window-width="1920"
     inkscape:window-height="1009"
     inkscape:window-x="-8"
     inkscape:window-y="-8"
     inkscape:window-maximized="1"
     inkscape:current-layer="svg" />
  <rect
     style="fill:#aa0000;stroke:#ffffff;stroke-width:20;stroke-miterlimit:4;stroke-dasharray:none;stroke-opacity:1"
     id="rect2190"
     width="5.2681088"
     height="14.299153"
     x="329.30292"
     y="49.340542" />
  <rect
     style="fill:#ffffff;fill-opacity:1;stroke:#434343;stroke-width:40;stroke-miterlimit:4;stroke-dasharray:none;stroke-opacity:1"
     id="rect2214"
     width="392.8504"
     height="223.51834"
     x="23"
     y="23" />
  <g
     aria-label="T"
     id="text1852"
     style="font-size:192px;line-height:1.25;font-family:'Arial Rounded MT Bold';-inkscape-font-specification:'Arial Rounded MT Bold, ';fill:#4d4d4d">
    <path
       d="m 263.58145,87.837296 h -30.375 v 99.843754 q 0,8.625 -3.84375,12.84375 -3.84375,4.125 -9.9375,4.125 -6.1875,0 -10.125,-4.21875 -3.84375,-4.21875 -3.84375,-12.75 V 87.837296 h -30.375 q -7.125,0 -10.59375,-3.09375 -3.46875,-3.1875 -3.46875,-8.34375 0,-5.34375 3.5625,-8.4375 3.65625,-3.09375 10.5,-3.09375 h 88.5 q 7.21875,0 10.6875,3.1875 3.5625,3.1875 3.5625,8.34375 0,5.15625 -3.5625,8.34375 -3.5625,3.09375 -10.6875,3.09375 z"
       id="path824" />
  </g>
</svg>
