<?xml version="1.0" encoding="UTF-8" standalone="no"?>
<svg
   id="svg"
   version="1.1"
   width="400"
   height="667.7551020408163"
   viewBox="0, 0, 400,667.7551020408163"
   sodipodi:docname="vaabenskab.svg"
   inkscape:version="1.1 (c68e22c387, 2021-05-23)"
   xmlns:inkscape="http://www.inkscape.org/namespaces/inkscape"
   xmlns:sodipodi="http://sodipodi.sourceforge.net/DTD/sodipodi-0.dtd"
   xmlns="http://www.w3.org/2000/svg"
   xmlns:svg="http://www.w3.org/2000/svg">
  <defs
     id="defs8" />
  <sodipodi:namedview
     id="namedview6"
     pagecolor="#ffffff"
     bordercolor="#666666"
     borderopacity="1.0"
     inkscape:pageshadow="2"
     inkscape:pageopacity="0.0"
     inkscape:pagecheckerboard="0"
     showgrid="false"
     inkscape:zoom="0.87255936"
     inkscape:cx="237.23314"
     inkscape:cy="313.44572"
     inkscape:window-width="1920"
     inkscape:window-height="1009"
     inkscape:window-x="-8"
     inkscape:window-y="-8"
     inkscape:window-maximized="1"
     inkscape:current-layer="svg" />
  <path
     id="path0"
     d="m 47.4,18.434 c -8.649,0.398 -12.048,1.437 -17.293,5.287 -3.97,2.915 -8.853,9.678 -8.92,12.354 -0.007,0.289 -0.361,1.515 -0.787,2.725 -0.866,2.462 -1.267,587.189 -0.405,590.4 1.355,5.047 1.819,6.301 3.249,8.781 3.481,6.038 8.902,10.193 16.156,12.385 l 2.8,0.846 155.707,-0.006 c 155.236,-0.006 155.719,-0.008 159.6,-0.823 10.081,-2.115 16.586,-7.961 20.233,-18.183 l 0.856,-2.4 0.103,-293.992 c 0.065,-184.795 -0.038,-294.664 -0.277,-295.8 -1.19,-5.657 -3.496,-10.167 -7.065,-13.819 -1.988,-2.034 -5.968,-4.989 -6.72,-4.989 -0.206,0 -0.658,-0.252 -1.006,-0.56 C 362.894,19.987 359.141,18.888 356,18.405 353.313,17.993 56.385,18.02 47.4,18.434 M 346,334.376 c 0,167.146 -0.147,283.668 -0.359,283.799 -0.198,0.122 -66.213,0.224 -146.7,0.227 L 52.6,618.406 52.5,335.145 C 52.426,126.054 52.517,51.741 52.849,51.341 53.225,50.888 77.098,50.8 199.649,50.8 H 346 V 334.376 M 260.4,75.156 c -0.731,0.201 -1.036,0.595 -1.133,1.46 -1.40943,4.87263 -3.36842,9.347143 -5.078,14.114 -0.141,0.401 -0.443,0.329 -1.242,-0.3 -0.58,-0.457 -1.504,-0.83 -2.054,-0.83 -0.549,0 -1.56,-0.339 -2.246,-0.753 -3.641,-2.198 -6.268,-0.948 -6.894,3.28 -0.136,0.92 -0.515,2.1 -0.842,2.622 -0.92,1.471 0.258,2.699 3.889,4.053 6.157,2.296 7.002,2.929 5.6,4.198 -1.15212,3.80491 -2.58571,7.24165 -3.677,11.103 -0.179,1.813 -1.986,2.252 -3.617,0.879 -0.642,-0.54 -1.364,-0.982 -1.605,-0.982 -0.241,0 -0.742,-0.276 -1.115,-0.612 -0.372,-0.337 -1.571,-0.719 -2.665,-0.848 l -1.989,-0.236 -1.066,1.819 c -0.586,1.001 -1.067,2.237 -1.068,2.748 -0.002,0.511 -0.269,1.439 -0.594,2.062 -0.959,1.839 -0.018,3.146 3.077,4.273 5.858,2.134 7.529,3.156 6.523,3.991 -40.56233,123.27051 -82.26876,253.8047 -117.653,375.234 -1.005,1.153 -0.574,3.569 0.638,3.569 0.387,0 1.153,0.354 1.703,0.787 22.74015,10.02875 48.30341,17.81762 69.762,27.899 1.92,0.904 2.773,0.574 2.614,-1.012 -0.073,-0.723 0.084,-1.575 0.349,-1.894 -2.4288,-20.15937 8.092,-54.71117 -1.713,-70.935 -1.163,-1.882 -1.123,-5.586 0.077,-7.112 2.85177,-9.43223 13.28224,-28.5833 6.524,-37.406 -0.242,-0.292 -0.56,-1.006 -0.706,-1.587 -0.403,-1.608 -4.86,-6.017 -6.599,-6.529 -0.55,-0.162 -1.36,-0.514 -1.8,-0.783 -0.44,-0.269 -1.611,-0.711 -2.602,-0.983 -3.732,-1.023 -4.936,-3.617 -2.889,-6.22 12.12551,-30.77195 22.94517,-60.7265 34.351,-89.129 0.311,-0.607 0.557,-1.687 0.548,-2.4 -0.009,-0.713 0.097,-2.411 0.235,-3.774 0.202,-2.005 0.097,-2.806 -0.552,-4.2 -0.441,-0.947 -1.362,-2.937 -2.046,-4.422 -0.684,-1.485 -1.387,-2.7 -1.562,-2.7 -0.175,0 -1.091,-0.72 -2.034,-1.6 -0.944,-0.88 -1.95,-1.6 -2.237,-1.6 -1.743,0 -2.183,-3.751 -0.815,-6.955 0.292,-0.685 1.02,-2.865 1.617,-4.845 0.598,-1.98 1.407,-4.5 1.799,-5.6 15.75849,-69.42999 45.64262,-145.24291 60.521,-184.927 1.789,-1.977 1.132,-5.821 -1.065,-6.234 -4.82082,-1.102006 -14.72001,-7.760315 -18.669,-6.683 M 92.4,299.8 c -0.55,0.314 -1.251,0.578 -1.559,0.586 -2.903,0.073 -8.076,5.929 -9.688,10.966 -1.165,3.64 -1.144,44.368 0.025,48.095 1.578,5.036 6.494,10.081 11.022,11.313 3.718,1.012 10.661,0.319 12.037,-1.201 0.378,-0.418 0.92,-0.759 1.205,-0.759 0.285,0 0.662,-0.244 0.838,-0.542 0.176,-0.297 0.722,-0.752 1.213,-1.01 1.06,-0.556 4.431,-5.59 4.946,-7.384 0.199,-0.692 0.361,-11.888 0.361,-24.879 v -23.62 l -1.1,-2.034 c -2.832,-5.238 -4.206,-6.535 -9.65,-9.113 -2.537,-1.201 -7.875,-1.433 -9.65,-0.418 m 98.722,111.025 c 0.542,0.426 1.567,0.775 2.278,0.775 0.711,0 1.721,0.335 2.246,0.745 0.525,0.41 1.375,0.877 1.891,1.039 0.521,0.163 1.175,0.866 1.476,1.586 0.298,0.712 0.821,1.526 1.164,1.811 0.343,0.284 0.624,0.81 0.626,1.168 0.001,0.358 0.36,1.191 0.797,1.851 4.99637,8.08977 -9.79699,31.49504 -10.464,29.788 -0.233,-0.667 -0.944,-1.482 -1.582,-1.812 -0.637,-0.329 -1.472,-1.219 -1.856,-1.977 -0.384,-0.757 -1.223,-2.374 -1.865,-3.591 l -1.167,-2.214 0.821,-0.897 c 0.452,-0.493 0.944,-1.302 1.094,-1.796 0.15,-0.495 0.702,-1.007 1.228,-1.139 0.92,-0.231 2.991,-2.508 2.991,-3.289 0,-0.209 0.378,-0.479 0.84,-0.599 0.462,-0.121 0.727,-0.404 0.587,-0.63 -0.328,-0.53 -1.757,-0.099 -5.151,1.555 -1.819,0.887 -7.587,1.274 -8.703,0.584 -0.306,-0.189 0.799,-3.961 1.869,-6.383 0.292,-0.66 0.652,-1.74 0.801,-2.4 0.265,-1.177 1.825,-4.215 2.772,-5.4 0.264,-0.33 0.575,-1.352 0.691,-2.272 0.115,-0.919 0.589,-2.078 1.052,-2.575 0.588,-0.631 0.842,-1.428 0.842,-2.641 0,-2.595 2.273,-3.214 4.722,-1.287 m -69.94,103.824 c -4.1992,15.76732 -8.7006,34.11182 -13.2,48.021 -0.671,2.068 -0.145,3.267 1.559,3.557 0.802,0.136 1.929,0.578 2.504,0.982 0.575,0.404 1.745,0.859 2.6,1.011 25.37798,6.54608 58.99635,28.08741 81.9,32.53 1.036,0.194 2.226,0.662 2.644,1.04 0.418,0.379 0.952,0.57 1.186,0.426 0.53,-0.328 0.47,-50.541 -0.061,-50.869 -0.197,-0.122 -0.174,-0.434 0.052,-0.706 1.808,-2.179 -0.516,-6.659 -3.716,-7.163 -0.852,-0.134 -1.842,-0.499 -2.2,-0.81 -23.38003,-7.97933 -47.14967,-20.74128 -71.768,-28.667 -0.982,-0.312 -1.166,-0.233 -1.5,0.648"
     stroke="none"
     fill="#040404"
     fill-rule="evenodd"
     sodipodi:nodetypes="ccccscscsccccccsccccccccssccccccscccscccscccccccccsccccccccsscccsccsscsccccccccccccscccscccccsscccccccccccccscccccccccsccccscccccccccc" />
  <path
     id="path1"
     d="M 0,333.8 V 667.6 H 200 400 V 333.8 0 H 200 0 V 333.8 M 356,18.405 c 3.141,0.483 6.894,1.582 7.631,2.235 0.348,0.308 0.8,0.56 1.006,0.56 0.752,0 4.732,2.955 6.72,4.989 3.569,3.652 5.875,8.162 7.065,13.819 0.239,1.136 0.342,111.005 0.277,295.8 l -0.103,293.992 -0.856,2.4 c -3.647,10.222 -10.152,16.068 -20.233,18.183 -3.881,0.815 -4.364,0.817 -159.6,0.823 L 42.2,651.212 39.4,650.366 c -7.254,-2.192 -12.675,-6.347 -16.156,-12.385 -1.43,-2.48 -1.894,-3.734 -3.249,-8.781 -0.862,-3.211 -0.461,-587.938 0.405,-590.4 0.426,-1.21 0.78,-2.436 0.787,-2.725 0.067,-2.676 4.95,-9.439 8.92,-12.354 5.245,-3.85 8.644,-4.889 17.293,-5.287 C 56.385,18.02 353.313,17.993 356,18.405 M 52.849,51.341 c -0.332,0.4 -0.423,74.713 -0.349,283.804 l 0.1,283.261 146.341,-0.004 c 80.487,-0.003 146.502,-0.105 146.7,-0.227 C 345.853,618.044 346,501.522 346,334.376 V 50.8 H 199.649 c -122.551,0 -146.424,0.088 -146.8,0.541 m 210.397,24.201 c 0.525,0.408 1.664,0.873 2.533,1.033 0.868,0.16 2.017,0.636 2.554,1.058 0.575,0.453 1.602,0.767 2.507,0.767 1.091,0 1.648,0.217 1.935,0.753 0.258,0.482 1.043,0.849 2.181,1.02 0.978,0.146 1.991,0.523 2.251,0.836 0.261,0.313 1.098,0.687 1.862,0.83 2.197,0.413 2.854,4.257 1.065,6.234 -0.346,0.382 -0.723,1.557 -0.839,2.611 -0.116,1.054 -0.545,2.345 -0.953,2.87 -0.408,0.525 -0.742,1.59 -0.742,2.368 0,0.778 -0.291,1.737 -0.647,2.13 -0.356,0.394 -0.739,1.525 -0.85,2.515 -0.118,1.041 -0.519,2.086 -0.953,2.478 -0.491,0.445 -0.75,1.222 -0.75,2.254 0,0.969 -0.308,1.966 -0.8,2.592 -0.463,0.589 -0.801,1.626 -0.803,2.463 -0.001,0.795 -0.36,1.986 -0.797,2.646 -0.437,0.66 -0.796,1.847 -0.797,2.638 -0.002,0.927 -0.287,1.695 -0.803,2.162 -0.526,0.476 -0.8,1.232 -0.8,2.208 0,0.878 -0.326,1.899 -0.8,2.501 -0.494,0.628 -0.8,1.623 -0.8,2.6 0,0.977 -0.306,1.972 -0.8,2.6 -0.45,0.572 -0.8,1.623 -0.8,2.4 0,0.761 -0.335,1.812 -0.744,2.337 -0.409,0.525 -0.868,1.794 -1.019,2.821 -0.152,1.027 -0.537,2.084 -0.857,2.349 -0.319,0.265 -0.584,1.045 -0.589,1.733 -0.005,0.688 -0.336,1.973 -0.737,2.855 -0.401,0.882 -0.863,2.322 -1.027,3.2 -0.164,0.878 -0.476,1.811 -0.693,2.073 -0.217,0.263 -0.636,1.343 -0.93,2.4 -0.536,1.923 -0.997,3.316 -2.091,6.323 -0.32,0.88 -0.828,2.5 -1.128,3.6 -0.777,2.847 -2.342,7.291 -2.69,7.638 -0.162,0.163 -0.295,0.606 -0.295,0.985 0,0.38 -1.418,4.985 -3.151,10.234 -2.957,8.958 -12.71,38.81 -14.552,44.543 -0.459,1.43 -1.145,3.5 -1.524,4.6 -0.379,1.1 -1.45,4.43 -2.38,7.4 -0.929,2.97 -2.019,6.21 -2.422,7.2 -0.403,0.99 -0.856,2.429 -1.005,3.198 -0.15,0.77 -0.497,1.94 -0.771,2.6 -0.274,0.661 -0.988,2.822 -1.586,4.802 -0.597,1.98 -1.429,4.443 -1.848,5.474 -0.418,1.031 -0.761,2.107 -0.761,2.392 0,0.285 -0.342,1.422 -0.76,2.526 -0.418,1.105 -1.155,3.268 -1.637,4.808 -0.483,1.54 -1.198,3.7 -1.59,4.8 -0.392,1.1 -1.201,3.62 -1.799,5.6 -0.597,1.98 -1.325,4.16 -1.617,4.845 -1.368,3.204 -0.928,6.955 0.815,6.955 0.287,0 1.293,0.72 2.237,1.6 0.943,0.88 1.859,1.6 2.034,1.6 0.175,0 0.878,1.215 1.562,2.7 0.684,1.485 1.605,3.475 2.046,4.422 0.649,1.394 0.754,2.195 0.552,4.2 -0.138,1.363 -0.244,3.061 -0.235,3.774 0.009,0.713 -0.237,1.793 -0.548,2.4 -0.31,0.607 -0.685,1.734 -0.833,2.504 -0.149,0.77 -0.513,2.03 -0.81,2.8 -0.298,0.77 -1.11,3.2 -1.805,5.4 -0.695,2.2 -1.861,5.17 -2.59,6.6 -1.653,3.24 -2.618,5.48 -2.635,6.114 -0.006,0.267 -0.455,1.386 -0.996,2.486 -0.541,1.1 -0.985,2.3 -0.987,2.667 -0.005,0.868 -1.825,4.487 -2.567,5.102 -0.316,0.262 -0.698,1.232 -0.849,2.154 -0.151,0.922 -0.525,1.961 -0.831,2.307 -0.305,0.347 -0.714,1.427 -0.908,2.4 -0.195,0.974 -0.821,2.58 -1.392,3.57 -1.895,3.284 -2.998,5.618 -3.268,6.916 -0.147,0.706 -0.493,1.644 -0.768,2.084 -0.275,0.44 -0.631,1.501 -0.79,2.358 -0.159,0.858 -0.529,1.938 -0.822,2.4 -0.293,0.463 -0.653,1.597 -0.802,2.519 -0.148,0.922 -0.506,1.873 -0.795,2.113 -0.289,0.24 -0.642,1.217 -0.785,2.171 -0.143,0.955 -0.613,2.427 -1.044,3.272 -0.431,0.845 -0.783,1.908 -0.783,2.363 0,0.454 -0.247,1.181 -0.549,1.615 -0.302,0.434 -0.686,1.419 -0.854,2.189 -0.167,0.77 -0.64,1.635 -1.051,1.923 -0.41,0.287 -0.746,0.879 -0.746,1.316 0,0.436 -0.36,1.499 -0.8,2.361 -0.44,0.862 -0.801,1.98 -0.803,2.484 -0.001,0.504 -0.36,1.456 -0.797,2.116 -0.437,0.66 -0.796,1.761 -0.797,2.446 -0.002,0.685 -0.404,1.756 -0.894,2.379 -2.047,2.603 -0.843,5.197 2.889,6.22 0.991,0.272 2.162,0.714 2.602,0.983 0.44,0.269 1.25,0.621 1.8,0.783 1.739,0.512 6.196,4.921 6.599,6.529 0.146,0.581 0.464,1.295 0.706,1.587 2.166,2.61 3.163,9.633 1.754,12.358 -0.362,0.701 -0.661,1.689 -0.663,2.195 -0.002,0.506 -0.446,1.82 -0.987,2.92 -0.541,1.1 -0.99,2.455 -0.996,3.011 -0.007,0.556 -0.268,1.375 -0.58,1.82 -0.312,0.446 -0.692,1.521 -0.845,2.389 -0.153,0.869 -0.531,1.984 -0.84,2.477 -0.309,0.493 -0.674,1.709 -0.81,2.702 -0.136,0.992 -0.583,2.191 -0.993,2.664 -0.439,0.506 -0.745,1.47 -0.745,2.344 0,0.891 -0.328,1.902 -0.819,2.526 -1.2,1.526 -1.24,5.23 -0.077,7.112 0.855,1.383 0.872,1.704 0.91,17.582 0.022,8.895 0.138,17.703 0.257,19.573 0.231,3.604 0.243,4.13 0.121,5.4 -0.042,0.44 -0.059,1.61 -0.037,2.6 0.067,3.065 0.068,3.335 0.03,5.728 -0.02,1.28 0.163,2.569 0.408,2.864 0.328,0.395 0.327,0.61 -0.004,0.815 -0.291,0.18 -0.434,1.714 -0.404,4.336 0.025,2.231 0.047,5.488 0.048,7.236 0,1.749 0.195,3.414 0.433,3.7 0.312,0.376 0.298,0.683 -0.049,1.101 -0.265,0.319 -0.422,1.171 -0.349,1.894 0.159,1.586 -0.694,1.916 -2.614,1.012 -3.54,-1.669 -5.162,-2.286 -6.003,-2.286 -0.51,0 -1.241,-0.347 -1.625,-0.771 -0.383,-0.424 -1.446,-0.897 -2.362,-1.051 -0.915,-0.154 -2.077,-0.605 -2.583,-1.001 -0.505,-0.397 -1.495,-0.841 -2.2,-0.987 -0.704,-0.146 -2.373,-0.772 -3.708,-1.392 -1.334,-0.62 -3.172,-1.328 -4.083,-1.574 -0.911,-0.245 -1.753,-0.603 -1.872,-0.795 -0.118,-0.192 -1.107,-0.563 -2.197,-0.824 -1.09,-0.261 -2.192,-0.729 -2.45,-1.04 -0.258,-0.311 -0.815,-0.565 -1.238,-0.565 -0.424,0 -2.104,-0.625 -3.735,-1.388 -1.631,-0.764 -3.468,-1.512 -4.082,-1.662 -0.614,-0.15 -1.743,-0.605 -2.51,-1.011 -0.767,-0.407 -1.667,-0.74 -2,-0.742 -0.333,-10e-4 -1.146,-0.36 -1.806,-0.797 -0.66,-0.437 -1.688,-0.796 -2.284,-0.797 -0.597,-0.002 -1.407,-0.339 -1.8,-0.75 -0.394,-0.411 -1.436,-0.877 -2.316,-1.036 -0.88,-0.159 -1.786,-0.442 -2.014,-0.63 -0.228,-0.188 -1.758,-0.822 -3.4,-1.408 -1.642,-0.586 -3.526,-1.384 -4.186,-1.774 -0.66,-0.389 -1.857,-0.824 -2.66,-0.967 -0.803,-0.143 -1.661,-0.502 -1.907,-0.799 -0.247,-0.296 -1.189,-0.658 -2.094,-0.802 -0.906,-0.145 -2.097,-0.618 -2.647,-1.05 -0.55,-0.433 -1.316,-0.787 -1.703,-0.787 -1.212,0 -1.643,-2.416 -0.638,-3.569 0.639,-0.731 1.522,-5.376 1.187,-6.247 -0.124,-0.325 0.064,-1.032 0.418,-1.573 0.354,-0.541 0.644,-1.487 0.644,-2.103 0,-0.616 0.36,-1.792 0.8,-2.612 0.44,-0.821 0.8,-2.099 0.8,-2.841 0,-0.741 0.333,-1.776 0.739,-2.301 0.407,-0.525 0.857,-1.836 1.001,-2.914 0.143,-1.077 0.427,-2.159 0.629,-2.403 0.53,-0.639 1.631,-5.621 1.631,-7.382 0,-0.822 0.178,-1.673 0.396,-1.891 0.218,-0.218 0.512,-1.289 0.654,-2.38 0.142,-1.091 0.511,-2.276 0.82,-2.633 0.309,-0.357 0.71,-1.527 0.892,-2.6 0.181,-1.073 0.623,-2.491 0.981,-3.151 0.359,-0.66 0.653,-1.696 0.655,-2.301 0.001,-0.606 0.362,-1.774 0.802,-2.595 0.44,-0.82 0.804,-2.035 0.809,-2.698 0.005,-0.663 0.365,-1.991 0.8,-2.95 0.447,-0.986 0.791,-2.605 0.791,-3.726 0,-1.09 0.222,-2.376 0.494,-2.856 0.271,-0.481 0.708,-1.684 0.971,-2.674 0.457,-1.723 2.105,-7.262 3.807,-12.8 0.439,-1.43 0.877,-3.86 0.972,-5.4 0.12,-1.95 0.413,-3.129 0.964,-3.884 0.436,-0.596 0.798,-1.676 0.804,-2.4 0.007,-0.724 0.456,-2.036 0.998,-2.916 0.542,-0.88 0.993,-2.14 1.001,-2.8 0.008,-0.66 0.266,-1.532 0.573,-1.937 0.307,-0.405 0.681,-1.465 0.832,-2.356 0.15,-0.89 0.609,-2.359 1.02,-3.263 0.41,-0.904 0.75,-2.045 0.755,-2.534 0.005,-0.49 0.368,-1.48 0.808,-2.2 0.439,-0.721 0.8,-1.85 0.802,-2.51 0.002,-0.66 0.362,-1.74 0.799,-2.4 0.437,-0.66 0.797,-1.74 0.8,-2.4 0.003,-0.66 0.363,-1.74 0.8,-2.4 0.437,-0.66 0.796,-1.743 0.797,-2.406 0.002,-0.663 0.363,-1.878 0.803,-2.698 0.44,-0.821 0.8,-1.901 0.8,-2.4 0,-0.5 0.36,-1.58 0.8,-2.4 0.44,-0.821 0.801,-1.989 0.803,-2.595 0.001,-0.605 0.36,-1.641 0.797,-2.301 0.437,-0.66 0.796,-1.851 0.797,-2.646 0.002,-0.795 0.336,-1.875 0.743,-2.4 0.406,-0.525 0.865,-1.759 1.019,-2.744 0.153,-0.984 0.518,-2.064 0.809,-2.4 0.292,-0.335 0.622,-1.472 0.734,-2.526 0.112,-1.054 0.495,-2.238 0.851,-2.632 0.37,-0.409 0.647,-1.403 0.647,-2.322 0,-1.098 0.253,-1.835 0.8,-2.33 0.558,-0.505 0.8,-1.232 0.8,-2.4 0,-1.131 0.244,-1.897 0.751,-2.355 0.437,-0.396 0.859,-1.501 1.011,-2.645 0.144,-1.081 0.5,-2.204 0.791,-2.496 0.292,-0.291 0.662,-1.424 0.824,-2.517 0.162,-1.093 0.526,-2.257 0.81,-2.587 0.283,-0.33 0.636,-1.44 0.784,-2.467 0.147,-1.027 0.521,-2.077 0.829,-2.333 0.308,-0.256 0.682,-1.306 0.829,-2.333 0.148,-1.027 0.497,-2.137 0.776,-2.467 0.28,-0.33 0.635,-1.41 0.79,-2.4 0.155,-0.99 0.53,-2.192 0.834,-2.672 0.304,-0.479 0.671,-1.649 0.815,-2.6 0.144,-0.95 0.508,-2.012 0.808,-2.358 0.301,-0.347 0.703,-1.47 0.895,-2.496 0.191,-1.026 0.536,-2.093 0.765,-2.37 0.229,-0.277 0.543,-1.224 0.697,-2.104 0.154,-0.88 0.508,-1.964 0.785,-2.409 0.278,-0.445 0.637,-1.615 0.799,-2.6 0.162,-0.985 0.543,-2.074 0.847,-2.419 0.304,-0.345 0.722,-1.515 0.928,-2.6 0.206,-1.085 0.656,-2.512 1.001,-3.172 0.344,-0.66 0.627,-1.655 0.629,-2.211 10e-4,-0.556 0.257,-1.375 0.569,-1.82 0.312,-0.446 0.698,-1.521 0.859,-2.389 0.16,-0.869 0.625,-2.207 1.033,-2.974 0.407,-0.767 0.741,-1.64 0.741,-1.94 0,-0.3 0.72,-2.691 1.6,-5.314 0.88,-2.623 1.606,-4.99 1.614,-5.261 0.007,-0.27 0.361,-1.211 0.786,-2.091 0.425,-0.88 0.779,-1.805 0.786,-2.055 0.017,-0.54 3.371,-11.08 4.438,-13.945 0.41,-1.1 1.579,-4.7 2.597,-8 1.019,-3.3 2.008,-6.36 2.198,-6.8 0.392,-0.909 1.75,-5.105 3.364,-10.4 0.604,-1.98 1.334,-4.23 1.623,-5 0.81,-2.159 1.799,-5.233 2.252,-7 0.226,-0.88 0.58,-1.96 0.788,-2.4 0.208,-0.44 0.631,-1.7 0.94,-2.8 0.533,-1.895 1.022,-3.366 2.659,-8 0.388,-1.1 1.245,-3.71 1.905,-5.8 0.659,-2.09 1.391,-4.34 1.625,-5 1.096,-3.079 4.025,-12.297 4.025,-12.666 0,-0.227 0.251,-0.98 0.557,-1.674 0.776,-1.757 4.243,-12.509 4.243,-13.158 0,-0.293 0.36,-1.239 0.8,-2.102 0.44,-0.863 0.806,-1.936 0.814,-2.385 0.007,-0.448 0.361,-1.535 0.786,-2.415 0.425,-0.88 0.779,-2.053 0.786,-2.606 0.008,-0.553 0.374,-1.678 0.814,-2.498 0.44,-0.821 0.801,-1.989 0.803,-2.595 0.001,-0.605 0.36,-1.641 0.797,-2.301 0.437,-0.66 0.797,-1.65 0.8,-2.2 0.003,-0.55 0.298,-1.54 0.657,-2.2 0.358,-0.66 0.8,-2.078 0.981,-3.151 0.182,-1.073 0.607,-2.257 0.946,-2.631 0.339,-0.375 0.617,-1.297 0.619,-2.049 0.001,-0.753 0.36,-1.909 0.797,-2.569 0.466,-0.704 0.796,-1.877 0.797,-2.838 0.002,-1.092 0.253,-1.865 0.754,-2.317 0.434,-0.394 0.859,-1.498 1.008,-2.62 0.142,-1.067 0.522,-2.16 0.845,-2.428 1.006,-0.835 -0.665,-1.857 -6.523,-3.991 -3.095,-1.127 -4.036,-2.434 -3.077,-4.273 0.325,-0.623 0.592,-1.551 0.594,-2.062 10e-4,-0.511 0.482,-1.747 1.068,-2.748 l 1.066,-1.819 1.989,0.236 c 1.094,0.129 2.293,0.511 2.665,0.848 0.373,0.336 0.874,0.612 1.115,0.612 0.241,0 0.963,0.442 1.605,0.982 1.631,1.373 3.438,0.934 3.617,-0.879 0.068,-0.684 0.383,-1.459 0.7,-1.722 0.336,-0.279 0.577,-1.185 0.577,-2.168 0,-1.181 0.241,-1.907 0.8,-2.413 0.558,-0.505 0.8,-1.232 0.8,-2.4 0,-1.168 0.242,-1.895 0.8,-2.4 1.402,-1.269 0.557,-1.902 -5.6,-4.198 -3.631,-1.354 -4.809,-2.582 -3.889,-4.053 0.327,-0.522 0.706,-1.702 0.842,-2.622 0.626,-4.228 3.253,-5.478 6.894,-3.28 0.686,0.414 1.697,0.753 2.246,0.753 0.55,0 1.474,0.373 2.054,0.83 0.799,0.629 1.101,0.701 1.242,0.3 0.379,-1.073 1.061,-2.557 1.622,-3.53 0.318,-0.55 0.58,-1.526 0.583,-2.169 0.003,-0.642 0.291,-1.483 0.64,-1.868 0.349,-0.386 0.732,-1.48 0.852,-2.432 0.121,-0.952 0.45,-2.001 0.733,-2.331 0.283,-0.33 0.574,-1.133 0.648,-1.784 0.097,-0.865 0.402,-1.259 1.133,-1.46 1.579,-0.436 1.834,-0.402 2.846,0.386 M 102.05,300.218 c 5.444,2.578 6.818,3.875 9.65,9.113 l 1.1,2.034 v 23.62 c 0,12.991 -0.162,24.187 -0.361,24.879 -0.515,1.794 -3.886,6.828 -4.946,7.384 -0.491,0.258 -1.037,0.713 -1.213,1.01 -0.176,0.298 -0.553,0.542 -0.838,0.542 -0.285,0 -0.827,0.341 -1.205,0.759 -1.376,1.52 -8.319,2.213 -12.037,1.201 -4.528,-1.232 -9.444,-6.277 -11.022,-11.313 -1.169,-3.727 -1.19,-44.455 -0.025,-48.095 1.612,-5.037 6.785,-10.893 9.688,-10.966 0.308,-0.008 1.009,-0.272 1.559,-0.586 1.775,-1.015 7.113,-0.783 9.65,0.418 m 85.25,109.786 c -0.738,0.304 -0.9,0.682 -0.9,2.108 0,1.213 -0.254,2.01 -0.842,2.641 -0.463,0.497 -0.937,1.656 -1.052,2.575 -0.116,0.92 -0.427,1.942 -0.691,2.272 -0.947,1.185 -2.507,4.223 -2.772,5.4 -0.149,0.66 -0.509,1.74 -0.801,2.4 -1.07,2.422 -2.175,6.194 -1.869,6.383 1.116,0.69 6.884,0.303 8.703,-0.584 3.394,-1.654 4.823,-2.085 5.151,-1.555 0.14,0.226 -0.125,0.509 -0.587,0.63 -0.462,0.12 -0.84,0.39 -0.84,0.599 0,0.781 -2.071,3.058 -2.991,3.289 -0.526,0.132 -1.078,0.644 -1.228,1.139 -0.15,0.494 -0.642,1.303 -1.094,1.796 l -0.821,0.897 1.167,2.214 c 0.642,1.217 1.481,2.834 1.865,3.591 0.384,0.758 1.219,1.648 1.856,1.977 0.638,0.33 1.349,1.145 1.582,1.812 1.031,2.958 3.601,1.181 4.899,-3.388 0.375,-1.32 0.873,-2.94 1.107,-3.6 0.761,-2.147 1.695,-5.165 2.103,-6.8 0.22,-0.88 0.633,-1.96 0.917,-2.4 0.285,-0.44 0.65,-1.514 0.812,-2.386 0.162,-0.873 0.549,-2.079 0.86,-2.68 0.898,-1.736 0.752,-7.045 -0.234,-8.534 -0.437,-0.66 -0.796,-1.493 -0.797,-1.851 -0.002,-0.358 -0.283,-0.884 -0.626,-1.168 -0.343,-0.285 -0.866,-1.099 -1.164,-1.811 -0.301,-0.72 -0.955,-1.423 -1.476,-1.586 -0.516,-0.162 -1.366,-0.629 -1.891,-1.039 -0.525,-0.41 -1.535,-0.745 -2.246,-0.745 -0.711,0 -1.736,-0.349 -2.278,-0.775 -1.255,-0.988 -2.676,-1.293 -3.822,-0.821 m -61.001,105.293 c 1.374,0.518 2.715,1.157 2.98,1.422 0.265,0.265 0.812,0.481 1.217,0.481 0.405,0 1.412,0.345 2.239,0.767 0.826,0.421 2.162,0.89 2.969,1.041 0.807,0.152 1.666,0.515 1.909,0.808 0.243,0.293 0.994,0.654 1.669,0.802 0.674,0.148 2.057,0.682 3.072,1.186 1.015,0.504 2.746,1.215 3.846,1.581 1.1,0.366 2.379,0.911 2.842,1.211 0.462,0.3 1.542,0.671 2.4,0.824 0.857,0.154 1.918,0.593 2.358,0.977 0.44,0.383 1.497,0.803 2.35,0.933 0.852,0.13 1.842,0.489 2.2,0.799 0.357,0.31 1.19,0.689 1.85,0.842 0.66,0.153 2.28,0.794 3.6,1.424 1.32,0.63 3.144,1.34 4.053,1.578 0.91,0.238 1.877,0.701 2.149,1.03 0.273,0.328 0.972,0.597 1.553,0.597 0.581,0 1.729,0.36 2.549,0.8 0.821,0.44 1.685,0.8 1.919,0.8 0.235,0 1.45,0.468 2.702,1.039 3.429,1.566 4.532,2.021 6.169,2.543 0.822,0.262 1.598,0.643 1.724,0.847 0.126,0.204 0.644,0.371 1.152,0.371 0.507,0 1.361,0.345 1.897,0.767 0.537,0.422 1.686,0.895 2.554,1.051 0.869,0.156 1.872,0.538 2.229,0.85 0.358,0.311 1.348,0.676 2.2,0.81 3.2,0.504 5.524,4.984 3.716,7.163 -0.226,0.272 -0.249,0.584 -0.052,0.706 0.531,0.328 0.591,50.541 0.061,50.869 -0.234,0.144 -0.768,-0.047 -1.186,-0.426 -0.418,-0.378 -1.608,-0.846 -2.644,-1.04 -1.036,-0.193 -2.182,-0.621 -2.546,-0.951 -0.364,-0.329 -0.974,-0.599 -1.355,-0.599 -0.382,0 -1.717,-0.468 -2.969,-1.039 -3.994,-1.824 -4.788,-2.161 -5.135,-2.175 -0.187,-0.007 -1.06,-0.361 -1.94,-0.786 -0.88,-0.425 -1.87,-0.78 -2.2,-0.788 -0.33,-0.008 -1.189,-0.374 -1.91,-0.813 -0.72,-0.44 -1.731,-0.799 -2.246,-0.799 -0.515,0 -1.365,-0.337 -1.89,-0.748 -0.525,-0.411 -1.584,-0.885 -2.354,-1.053 -0.77,-0.168 -2.027,-0.642 -2.794,-1.052 -0.767,-0.411 -1.672,-0.747 -2.011,-0.747 -0.339,0 -0.972,-0.236 -1.406,-0.525 -0.434,-0.289 -2.229,-1.086 -3.989,-1.77 -1.76,-0.685 -3.74,-1.528 -4.4,-1.873 -0.66,-0.345 -1.612,-0.628 -2.116,-0.63 -0.504,-0.001 -1.404,-0.345 -2,-0.765 -0.596,-0.419 -1.741,-0.874 -2.544,-1.01 -0.803,-0.137 -1.68,-0.513 -1.949,-0.838 -0.269,-0.324 -0.742,-0.589 -1.052,-0.589 -0.507,0 -3.54,-1.162 -6.739,-2.583 -0.66,-0.293 -1.773,-0.653 -2.472,-0.801 -0.7,-0.147 -1.487,-0.526 -1.749,-0.842 -0.262,-0.316 -0.86,-0.575 -1.328,-0.575 -0.468,-10e-4 -1.406,-0.34 -2.084,-0.754 -0.679,-0.414 -1.849,-0.884 -2.6,-1.045 -0.752,-0.161 -1.547,-0.433 -1.767,-0.606 -0.22,-0.172 -2.11,-0.972 -4.2,-1.776 -2.09,-0.804 -3.971,-1.632 -4.18,-1.84 -0.209,-0.208 -0.728,-0.378 -1.153,-0.378 -0.425,0 -1.334,-0.338 -2.02,-0.751 -0.686,-0.414 -1.947,-0.876 -2.802,-1.029 -0.855,-0.152 -2.025,-0.607 -2.6,-1.011 -0.575,-0.404 -1.702,-0.846 -2.504,-0.982 -1.704,-0.29 -2.23,-1.489 -1.559,-3.557 1.292,-3.986 1.618,-5.183 1.618,-5.952 0,-0.47 0.302,-1.189 0.672,-1.597 0.443,-0.49 0.76,-1.797 0.931,-3.832 0.143,-1.699 0.559,-3.629 0.926,-4.289 0.366,-0.66 0.667,-1.696 0.669,-2.301 0.001,-0.606 0.362,-1.774 0.802,-2.595 0.44,-0.82 0.801,-1.945 0.803,-2.498 10e-4,-0.553 0.36,-1.546 0.797,-2.206 0.437,-0.66 0.802,-1.74 0.811,-2.4 0.009,-0.66 0.364,-1.92 0.789,-2.8 0.425,-0.88 0.779,-2.145 0.786,-2.811 0.008,-0.666 0.285,-1.598 0.617,-2.072 0.331,-0.473 0.757,-2.358 0.946,-4.189 0.189,-1.83 0.637,-4.025 0.997,-4.877 0.36,-0.852 0.654,-1.785 0.654,-2.074 0,-0.289 0.172,-0.976 0.382,-1.528 0.427,-1.124 0.403,-1.127 5.117,0.648"
     stroke="none"
     fill="#fbfbfb"
     fill-rule="evenodd"
     style="fill:#ffffff" />
</svg>
