<?xml version="1.0" encoding="UTF-8" standalone="no"?>
<svg
   id="svg"
   version="1.1"
   width="400"
   height="400"
   viewBox="0, 0, 400,400"
   sodipodi:docname="vaerdiredningsplan.svg"
   inkscape:version="1.1 (c68e22c387, 2021-05-23)"
   xmlns:inkscape="http://www.inkscape.org/namespaces/inkscape"
   xmlns:sodipodi="http://sodipodi.sourceforge.net/DTD/sodipodi-0.dtd"
   xmlns="http://www.w3.org/2000/svg"
   xmlns:svg="http://www.w3.org/2000/svg">
  <defs
     id="defs8" />
  <sodipodi:namedview
     id="namedview6"
     pagecolor="#ffffff"
     bordercolor="#666666"
     borderopacity="1.0"
     inkscape:pageshadow="2"
     inkscape:pageopacity="0.0"
     inkscape:pagecheckerboard="0"
     showgrid="false"
     inkscape:zoom="0.72831999"
     inkscape:cx="443.48639"
     inkscape:cy="393.37105"
     inkscape:window-width="1920"
     inkscape:window-height="1009"
     inkscape:window-x="-8"
     inkscape:window-y="-8"
     inkscape:window-maximized="1"
     inkscape:current-layer="svg" />
  <path
     id="path0"
     d="m 18.985,19.3 c -0.104,0.275 -0.144,81.77 -0.087,181.1 L 19,381 H 200 381 V 200 19 L 200.088,18.9 C 55.567,18.819 19.137,18.9 18.985,19.3 m 212.816,68.352 c 17.159,34.348 31.4,62.661 31.645,62.917 0.246,0.257 20.826,41.229 45.733,91.049 24.908,49.82 45.52,90.852 45.804,91.182 0.936,1.084 21.408,42.491 21.186,42.85 -0.302,0.489 -351.253,0.461 -351.556,-0.029 -0.221,-0.358 21.002,-42.835 128.535,-257.25 43.708,-87.152 46.76,-93.171 47.239,-93.171 0.118,0 14.255,28.103 31.414,62.452"
     stroke="none"
     fill="#1c4484"
     fill-rule="evenodd" />
  <path
     id="path1"
     d="M 0,200 V 400 H 200 400 V 200 0 H 200 0 v 200 m 381,0 V 381 H 200 19 L 18.898,200.4 C 18.841,101.07 18.881,19.575 18.985,19.3 19.137,18.9 55.567,18.819 200.088,18.9 L 381,19 V 200 M 199.386,26.471 c -0.752,1.216 -43.451,86.279 -133.349,265.65 -22.912,45.716 -41.553,83.291 -41.424,83.5 0.303,0.49 351.254,0.518 351.556,0.029 0.222,-0.359 -20.25,-41.766 -21.186,-42.85 -0.284,-0.33 -20.896,-41.362 -45.804,-91.182 -24.907,-49.82 -45.487,-90.792 -45.733,-91.049 C 263.201,150.313 248.96,122 231.801,87.652 214.642,53.303 200.505,25.2 200.387,25.2 c -0.118,0 -0.568,0.572 -1.001,1.271"
     stroke="none"
     fill="#fcfcfc"
     fill-rule="evenodd"
     style="fill:#ffffff" />
</svg>
