<?xml version="1.0" encoding="UTF-8" standalone="no"?>
<svg
   width="397"
   height="400"
   version="1.1"
   id="svg8"
   sodipodi:docname="vandforsyningsplan.svg"
   inkscape:version="1.1 (c68e22c387, 2021-05-23)"
   xmlns:inkscape="http://www.inkscape.org/namespaces/inkscape"
   xmlns:sodipodi="http://sodipodi.sourceforge.net/DTD/sodipodi-0.dtd"
   xmlns="http://www.w3.org/2000/svg"
   xmlns:svg="http://www.w3.org/2000/svg">
  <defs
     id="defs12" />
  <sodipodi:namedview
     id="namedview10"
     pagecolor="#ffffff"
     bordercolor="#666666"
     borderopacity="1.0"
     inkscape:pageshadow="2"
     inkscape:pageopacity="0.0"
     inkscape:pagecheckerboard="0"
     showgrid="false"
     inkscape:zoom="0.050000001"
     inkscape:cx="-3559.9999"
     inkscape:cy="-309.99999"
     inkscape:window-width="1920"
     inkscape:window-height="1009"
     inkscape:window-x="-8"
     inkscape:window-y="-8"
     inkscape:window-maximized="1"
     inkscape:current-layer="svg8" />
  <path
     style="fill:#2c5aa0;stroke:none;fill-opacity:1"
     d="M177 10.4244C146.815 14.4362 118.787 23.0827 93 39.6921C72.2556 53.0536 54.041 70.6916 40.0255 91C-23.8146 183.504 8.26783 317.099 109 368.741C144.265 386.82 184.842 392.712 224 387.715C249.45 384.466 274.168 375.058 296 361.797C410.397 292.315 415.534 123.251 308 45.152C288.461 30.9617 266.377 20.9693 243 15.1266C222.184 9.92401 198.391 7.58142 177 10.4244z"
     id="path4" />
  <path
     style="fill:#ffffff;stroke:none;stroke-width:0.941248"
     d="m 286.13572,147.91636 c -18.12091,0 -46.18892,5.28323 -62.12235,-4.83142 C 201.70109,128.9201 208.95339,93.157024 208.95339,70.734051 H 142.1248 c -7.8707,0 -19.75584,-2.254571 -26.15351,3.348865 -4.58198,4.012445 -3.96641,9.961695 -3.96641,15.476089 v 35.767415 128.95094 32.94368 c 0,5.02061 -0.74642,10.70857 2.49713,14.96113 6.43437,8.43735 24.81129,4.80507 34.21153,4.80507 h 98.83101 c 9.94146,0 30.53596,4.0709 36.70019,-5.68796 6.1313,-9.70709 1.89098,-31.97513 1.89098,-43.25692 v -110.126 M 227.77835,84.852767 c 0,10.158509 -4.16973,32.541753 3.03835,40.371063 7.65705,8.31686 31.56757,3.86758 42.14155,3.86758 v -0.94125 z"
     id="path6" />
  <g
     aria-label="V"
     id="text1992"
     style="font-weight:bold;font-size:160px;line-height:1.25;font-family:Impact;-inkscape-font-specification:'Impact Bold';fill:#2c5aa0;stroke-width:0.869379"
     transform="matrix(1.3230655,0,0,1,-44.363363,0)">
    <path
       d="M 222.94504,163.85504 206.22629,290.33942 H 156.30441 L 137.32004,163.85504 h 34.6875 q 6.01562,52.26563 8.59375,88.35938 2.57812,-36.48438 5.39062,-64.84375 l 2.26563,-23.51563 z"
       id="path9973"
       style="stroke-width:0.869379" />
  </g>
</svg>
