<?xml version="1.0" encoding="UTF-8" standalone="no"?>
<svg
   version="1.1"
   width="1320"
   height="1320"
   style="clip-rule:evenodd;fill-rule:evenodd;image-rendering:optimizeQuality;shape-rendering:geometricPrecision;text-rendering:geometricPrecision"
   id="svg5"
   sodipodi:docname="waypoint.svg"
   viewBox="-10 -10 1320 1320"
   inkscape:version="1.4.2 (ebf0e940d0, 2025-05-08)"
   xmlns:inkscape="http://www.inkscape.org/namespaces/inkscape"
   xmlns:sodipodi="http://sodipodi.sourceforge.net/DTD/sodipodi-0.dtd"
   xmlns="http://www.w3.org/2000/svg"
   xmlns:svg="http://www.w3.org/2000/svg">
  <defs
     id="defs5" />
  <sodipodi:namedview
     id="namedview5"
     pagecolor="#ffffff"
     bordercolor="#000000"
     borderopacity="0.25"
     inkscape:showpageshadow="2"
     inkscape:pageopacity="0.0"
     inkscape:pagecheckerboard="0"
     inkscape:deskcolor="#d1d1d1"
     inkscape:zoom="0.57410072"
     inkscape:cx="353.59649"
     inkscape:cy="768.15789"
     inkscape:window-width="1918"
     inkscape:window-height="1007"
     inkscape:window-x="0"
     inkscape:window-y="0"
     inkscape:window-maximized="1"
     inkscape:current-layer="svg5" />
  <g
     id="g1">
    <g
       id="g2"
       style="fill:#0044aa">
      <path
         style="opacity:1;fill:#0044aa"
         fill="#000000"
         d="m 639.5,-0.5 c 6.667,0 13.333,0 20,0 22.106,5.93635 36.606,19.9363 43.5,42 1.135,40.5384 1.968,81.038 2.5,121.5 158.632,22.164 280.132,100.664 364.5,235.5 36.11,60.51 57.95,125.843 65.5,196 40.7,-0.459 81.36,0.041 122,1.5 22.24,6.7 36.24,21.2 42,43.5 0,6.667 0,13.333 0,20 -5.32,21.092 -18.32,35.258 -39,42.5 -2.97,0.794 -5.97,1.461 -9,2 -38.67,0.5 -77.33,0.667 -116,0.5 -18.52,142.94 -85.18,257.106 -200,342.5 -69.102,49.43 -146.102,78.93 -231,88.5 0.167,38.67 0,77.33 -0.5,116 -7.588,34.57 -29.088,50.41 -64.5,47.5 -18.843,-4.18 -32.343,-15.01 -40.5,-32.5 -2.156,-5.13 -3.489,-10.47 -4,-16 -0.5,-38.33 -0.667,-76.67 -0.5,-115 -142.856,-18.48 -257.023,-85.15 -342.5,-200 -49.425,-69.07 -78.925,-146.07 -88.5,-231 -38.668,0.167 -77.3348,0 -116,-0.5 C 27.7787,700.722 13.2787,690.222 4,672.5 c -1.57459,-4.445 -3.074594,-8.778 -4.5,-13 0,-6.667 0,-13.333 0,-20 6.35269,-25.044 22.3527,-39.878 48,-44.5 38.6652,-0.5 77.332,-0.667 116,-0.5 9.576,-84.932 39.076,-161.932 88.5,-231 85.5,-114.864 199.667,-181.53 342.5,-200 -0.167,-38.668 0,-77.3348 0.5,-116 4.622,-25.6473 19.456,-41.64731 44.5,-48 z"
         id="path2" />
    </g>
    <g
       id="g4">
      <path
         style="opacity:1"
         fill="#f9f9f9"
         d="m 591.5,273.5 c 1,0 2,0 3,0 -0.478,74.361 0.022,148.694 1.5,223 8.063,26.055 25.73,40.388 53,43 28.24,-2.252 46.24,-16.918 54,-44 1.485,-73.963 1.985,-147.963 1.5,-222 128.395,22.291 223.228,90.625 284.5,205 18.3,36.728 30.46,75.394 36.5,116 -74.361,-0.478 -148.694,0.022 -223,1.5 -26.312,8.09 -40.646,25.923 -43,53.5 2.485,27.975 17.152,45.808 44,53.5 73.963,1.485 147.963,1.985 222,1.5 -19.78,116.499 -79.111,206.332 -178,269.5 -44.136,26.77 -91.802,43.94 -143,51.5 0.478,-74.361 -0.022,-148.694 -1.5,-223 -8.119,-26.274 -25.952,-40.608 -53.5,-43 -24.597,1.536 -41.764,13.536 -51.5,36 -0.667,2.667 -1.333,5.333 -2,8 -1.485,73.963 -1.985,147.963 -1.5,222 -105.813,-17.12 -190.313,-68.452 -253.5,-154 -35.72,-50.137 -58.22,-105.803 -67.5,-167 74.365,0.481 148.698,-0.019 223,-1.5 26.289,-8.131 40.622,-25.965 43,-53.5 -2.49,-27.979 -17.157,-45.812 -44,-53.5 -73.969,-1.481 -147.969,-1.981 -222,-1.5 23.187,-131.948 94.187,-228.115 213,-288.5 33.639,-15.604 68.639,-26.438 105,-32.5 z"
         id="path4" />
    </g>
  </g>
</svg>
